<?xml version="1.0" standalone="no"?>
<!DOCTYPE svg PUBLIC "-//W3C//DTD SVG 20010904//EN"
 "http://www.w3.org/TR/2001/REC-SVG-20010904/DTD/svg10.dtd">
<svg version="1.0" xmlns="http://www.w3.org/2000/svg"
 width="720.000000pt" height="544.000000pt" viewBox="0 0 720.000000 544.000000"
 preserveAspectRatio="xMidYMid meet">
<metadata>
Created by potrace 1.16, written by Peter Selinger 2001-2019
</metadata>
<g transform="translate(0.000000,544.000000) scale(0.100000,-0.100000)"
fill="#000000" stroke="none">
<path d="M3335 5304 c-222 -39 -400 -125 -549 -265 -108 -100 -216 -268 -216
-334 0 -26 -6 -39 -25 -51 -39 -25 -62 -143 -33 -172 7 -7 11 -35 9 -69 -2
-49 -9 -68 -46 -123 -58 -89 -69 -127 -62 -224 8 -141 76 -270 166 -320 58
-31 198 -80 260 -91 33 -5 47 -15 66 -43 l24 -36 -49 -52 c-28 -29 -50 -58
-50 -64 0 -6 23 14 52 45 41 46 56 55 74 51 38 -10 95 -48 91 -60 -3 -8 6 -10
28 -8 48 6 53 -15 8 -35 -21 -9 -44 -16 -51 -16 -7 0 -10 -8 -6 -19 8 -25 1
-23 -36 12 -40 37 -91 48 -125 26 -17 -11 -48 -16 -106 -16 -45 0 -126 -7
-180 -16 l-98 -15 -76 36 c-88 43 -222 70 -305 62 -58 -6 -148 -42 -190 -77
-14 -11 -59 -43 -101 -70 -80 -52 -95 -67 -184 -190 -60 -82 -71 -122 -62
-222 4 -46 2 -61 -9 -65 -8 -3 -14 -13 -14 -22 0 -32 -18 -41 -141 -76 -184
-53 -169 -51 -169 -23 0 35 -18 48 -66 48 -67 0 -74 -6 -74 -61 l0 -48 -73 1
c-93 1 -134 -18 -139 -64 -2 -25 -9 -33 -33 -41 -29 -9 -240 -89 -520 -198
-72 -28 -141 -61 -154 -74 -24 -23 -24 -24 -15 -162 l9 -138 32 -20 c25 -16
33 -29 37 -60 3 -22 26 -294 51 -605 25 -311 48 -597 51 -635 l6 -71 -40 -18
c-23 -10 -51 -29 -63 -42 -19 -21 -21 -31 -17 -96 9 -119 32 -130 323 -153
105 -8 296 -22 425 -30 674 -45 2041 -139 2385 -165 143 -11 539 -40 880 -65
341 -25 670 -49 731 -55 60 -5 397 -10 747 -10 l638 0 127 73 c254 147 507
299 521 312 9 9 16 43 19 93 l4 79 -37 31 -38 30 7 69 c13 136 37 467 65 886
l29 427 30 28 c28 26 30 32 36 142 12 208 12 209 -16 236 -31 31 -71 38 -398
64 -238 19 -246 19 -270 1 -14 -10 -45 -28 -68 -40 -23 -12 -42 -24 -42 -27 0
-3 16 -20 35 -38 27 -26 35 -41 35 -67 l0 -34 -17 33 c-9 19 -22 36 -30 39 -7
3 -13 12 -13 21 0 8 -10 0 -23 -19 -65 -98 -262 -163 -612 -204 -71 -8 -133
-15 -136 -15 -3 0 -6 -19 -5 -43 1 -41 2 -42 41 -48 27 -4 9 -7 -55 -8 l-96
-1 4 40 c3 29 0 40 -9 40 -11 0 -12 2 -1 9 7 4 -60 11 -156 14 -92 4 -240 16
-328 28 -87 11 -182 23 -211 26 -29 3 -60 13 -71 23 -10 9 -48 31 -84 48 -36
18 -82 49 -103 69 -32 34 -36 42 -31 77 6 48 42 86 111 115 48 20 49 20 25 1
-14 -11 -31 -20 -37 -20 -7 0 -24 -17 -38 -38 -21 -33 -23 -42 -15 -74 7 -25
20 -41 43 -52 17 -9 46 -25 62 -34 79 -46 235 -92 310 -92 24 0 46 -4 49 -8 9
-15 201 -35 329 -36 303 -1 509 11 639 38 138 28 204 50 270 89 55 32 74 54
83 94 9 46 -10 43 -76 -9 -30 -24 -48 -35 -40 -25 8 10 12 20 9 22 -3 3 -48
-4 -100 -15 -122 -25 -307 -50 -380 -50 -62 0 -158 -19 -158 -31 0 -4 4 -19
10 -33 7 -20 17 -26 42 -27 18 -1 -4 -5 -48 -10 -45 -4 -122 -4 -170 0 l-89 8
98 2 c89 1 97 2 83 17 -9 8 -16 21 -16 27 0 34 -36 44 -176 50 -149 7 -371 37
-444 61 -41 13 -42 14 -15 15 17 0 73 -7 125 -16 130 -24 526 -24 650 0 47 9
108 18 135 22 65 7 245 51 318 77 32 12 68 31 80 44 12 13 31 24 42 24 76 1
-173 83 -320 105 -60 10 -119 21 -130 25 -76 32 306 -22 429 -60 37 -12 69
-20 71 -18 10 12 15 48 6 48 -6 0 -11 7 -11 15 0 10 -10 15 -29 15 -16 0 -60
6 -98 14 -67 14 -236 38 -363 52 -57 6 -68 11 -98 43 -61 65 -63 70 -50 138 8
43 8 93 1 170 -9 104 -12 113 -46 160 -52 71 -115 103 -205 103 -39 0 -74 5
-77 10 -18 30 -255 140 -299 140 -12 0 -16 10 -16 42 0 81 -107 204 -228 261
-53 25 -83 32 -144 35 -106 5 -168 -16 -229 -80 l-48 -48 -88 0 c-57 -1 -97
-6 -113 -15 -45 -26 -39 -16 38 58 42 39 82 80 89 89 33 43 43 48 88 41 41 -5
52 -2 132 47 101 61 134 89 172 145 50 74 66 131 66 240 0 93 -2 105 -33 167
-39 79 -128 174 -194 206 -45 22 -48 22 -87 6 -47 -19 -68 -14 -80 18 -13 34
5 46 29 20 12 -12 24 -22 27 -22 3 0 -2 9 -12 20 -21 23 -20 25 17 34 22 5 31
0 52 -26 30 -38 33 -33 9 17 -12 26 -14 38 -5 47 15 15 -29 102 -72 143 -18
16 -44 47 -60 68 -37 51 -157 145 -248 195 -193 107 -445 146 -673 106z m190
-249 c83 -6 181 -30 190 -46 4 -5 -7 -28 -23 -51 -32 -47 -72 -123 -72 -135 1
-4 10 10 21 32 36 69 92 145 107 145 54 0 207 -120 270 -212 41 -60 51 -181
36 -458 l-7 -145 -13 64 c-36 173 -102 263 -205 277 -38 5 -61 0 -147 -35 -56
-22 -126 -54 -155 -70 -161 -91 -339 -141 -498 -141 -110 0 -122 4 -132 45 -2
12 -4 9 -2 -7 l1 -27 -71 6 c-64 5 -75 3 -93 -15 -11 -11 -25 -38 -31 -58 -19
-68 15 -233 65 -314 14 -23 14 -23 9 -2 -12 43 4 21 41 -55 20 -43 47 -92 60
-110 13 -17 24 -38 24 -46 0 -25 56 -64 111 -77 67 -16 135 -8 200 26 106 53
124 57 334 64 170 6 210 10 266 29 97 33 157 83 198 163 30 60 35 78 39 170
l6 103 13 -60 c7 -33 20 -96 29 -140 17 -87 35 -155 41 -155 2 0 14 5 26 12
17 9 15 3 -10 -25 -59 -67 -117 -116 -201 -167 -46 -27 -85 -50 -87 -50 -3 0
-37 -15 -77 -34 -223 -104 -462 -123 -663 -54 -167 57 -236 123 -344 328 -64
123 -89 200 -106 335 -15 112 -10 210 16 308 67 256 279 477 539 562 56 19
159 34 195 29 11 -2 56 -6 100 -9z m929 -411 c26 -15 45 -28 44 -30 -2 -2 -26
3 -53 11 -63 19 -79 9 -125 -76 -34 -62 -35 -67 -35 -179 1 -219 73 -391 163
-390 26 1 26 1 8 15 -21 16 -21 17 12 34 25 13 46 6 36 -11 -5 -8 -1 -9 12 -4
22 9 21 8 -40 -39 -48 -36 -50 -37 -88 -24 -101 33 -164 170 -172 374 -4 88
-1 110 22 179 19 59 36 91 67 123 50 52 81 55 149 17z m131 -121 c50 -69 69
-139 62 -237 -8 -134 -54 -226 -111 -226 -19 0 -19 1 2 16 12 8 36 43 53 77
28 55 31 70 30 147 -1 99 -13 135 -70 208 -23 28 -41 54 -41 57 0 3 9 5 20 5
12 0 33 -19 55 -47z m-2007 -182 c-28 -54 -30 -67 -30 -155 0 -57 8 -120 18
-158 32 -118 119 -275 171 -309 36 -24 17 -24 -48 1 -69 26 -93 50 -120 123
-12 34 -26 67 -30 72 -21 28 -42 149 -43 245 -1 58 -2 95 -4 83 -4 -28 -22
-31 -22 -4 0 21 23 45 33 34 4 -3 7 2 7 11 0 46 54 113 92 116 4 0 -7 -27 -24
-59z m1162 -130 c0 -17 5 -33 10 -36 6 -3 10 -22 10 -41 0 -30 2 -33 18 -26
29 16 90 23 97 13 3 -6 7 -36 9 -67 2 -45 7 -59 21 -64 16 -6 15 -9 -11 -27
-33 -23 -222 -85 -235 -77 -5 3 -19 -2 -31 -10 -12 -9 -37 -16 -55 -16 -28 0
-33 3 -33 24 0 14 -4 28 -10 31 -5 3 -10 19 -10 35 0 16 -4 32 -10 35 -5 3
-10 15 -10 25 0 20 16 27 75 32 29 3 30 5 27 47 -2 24 -11 55 -19 68 -14 21
-14 26 -2 38 18 17 96 44 132 45 23 0 27 -4 27 -29z m-700 -160 c0 -17 5 -33
10 -36 6 -3 10 -20 10 -36 0 -30 1 -31 43 -25 50 7 67 -2 71 -35 1 -13 6 -32
10 -41 5 -10 6 -24 3 -32 -3 -8 1 -17 9 -20 22 -8 17 -25 -12 -38 -20 -9 -30
-9 -45 0 -16 10 -19 9 -19 -3 0 -12 -18 -15 -100 -15 -87 0 -101 2 -106 18 -3
9 -10 26 -15 37 -6 12 -11 28 -13 38 -1 9 -5 20 -9 23 -4 4 -7 16 -7 26 0 17
19 23 63 20 17 -2 24 13 10 20 -5 2 -16 27 -26 57 -23 65 -17 71 66 71 57 0
57 0 57 -29z m1625 -258 c90 -31 201 -127 231 -198 17 -42 18 -69 1 -36 -16
32 -66 69 -75 55 -4 -5 -20 -11 -36 -12 -16 -1 -48 -12 -72 -23 -48 -24 -148
-119 -170 -161 -8 -16 -17 -28 -19 -28 -6 0 16 51 27 64 4 6 -19 25 -55 44
-34 19 -75 47 -92 62 -34 31 -95 46 -95 23 0 -8 -5 -11 -12 -7 -8 5 -9 -4 -5
-31 8 -47 51 -103 103 -132 21 -13 34 -23 28 -23 -29 0 -103 61 -123 102 -65
136 15 286 172 318 50 10 137 2 192 -17z m-481 -219 c-22 -52 -30 -216 -14
-285 7 -30 30 -87 52 -128 21 -41 33 -69 25 -63 -19 16 -57 4 -50 -16 8 -23
-17 12 -47 65 -31 56 -37 48 -8 -11 l22 -46 -108 -105 c-60 -58 -115 -105
-123 -105 -8 0 -22 -7 -30 -16 -19 -18 -52 -15 -167 15 -44 12 -101 21 -128
21 -35 0 -48 4 -48 14 0 8 -4 17 -9 20 -4 3 -6 -5 -4 -17 4 -20 -3 -24 -67
-39 -71 -17 -71 -17 -96 5 -29 25 -64 31 -64 11 0 -8 -6 -14 -13 -14 -29 0
-90 199 -79 256 8 43 -41 62 -54 22 -23 -74 28 -256 100 -357 37 -52 51 -78
61 -111 l7 -25 -27 25 c-15 14 -45 55 -67 92 -102 171 -131 401 -67 533 20 42
20 40 3 -45 -4 -17 -3 -21 4 -12 16 23 27 18 33 -13 l5 -30 20 40 c16 33 25
41 52 43 23 2 32 -1 32 -12 0 -20 12 -26 38 -19 18 4 20 8 10 26 -10 20 -9 19
28 -3 33 -20 52 -24 120 -24 72 0 89 4 155 36 68 32 150 92 223 161 20 18 32
24 36 16 9 -14 40 -5 67 20 11 11 47 33 79 50 33 17 70 39 84 50 14 11 26 18
27 17 2 -2 -4 -20 -13 -42z m-1828 -123 c36 -13 73 -35 91 -54 41 -43 83 -122
83 -156 0 -25 -3 -27 -32 -24 -18 1 -60 11 -92 21 -57 17 -60 20 -74 62 -35
106 -90 151 -207 171 -37 6 -22 7 60 5 80 -3 127 -10 171 -25z m2709 -20 c92
-39 181 -89 172 -97 -3 -3 -27 2 -54 12 l-49 17 -55 -35 c-31 -20 -68 -47 -82
-62 -14 -14 -31 -26 -36 -26 -5 0 -24 -28 -40 -62 -17 -35 -31 -58 -31 -53 0
6 -47 33 -105 60 -57 28 -104 55 -105 60 0 22 49 112 81 148 42 46 140 90 184
81 17 -3 71 -23 120 -43z m-2226 -26 c51 -26 139 -145 95 -128 -10 4 -12 0 -8
-11 4 -10 13 -15 20 -12 8 3 14 -1 14 -8 0 -8 2 -20 3 -28 2 -7 2 -10 0 -5 -8
13 -100 7 -129 -8 -16 -8 -47 -15 -69 -15 -23 0 -53 -9 -70 -20 -16 -11 -33
-20 -36 -20 -4 0 -10 19 -13 43 -10 67 -55 139 -100 162 -22 11 -41 25 -43 31
-10 29 286 45 336 19z m-791 -10 c46 -19 72 -59 72 -115 0 -79 -49 -128 -82
-81 -20 28 -54 35 -90 17 -43 -22 -57 -20 -80 9 -24 30 -38 31 -68 5 -13 -11
-25 -20 -27 -20 -13 0 -53 35 -53 46 0 21 123 106 188 130 71 27 91 28 140 9z
m3368 -156 c88 -42 144 -138 144 -246 0 -71 -15 -137 -30 -128 -4 3 -22 29
-38 58 -38 68 -77 101 -144 122 -29 10 -57 21 -62 26 -14 13 -76 11 -76 -2 0
-7 -10 -9 -26 -5 -16 4 -23 3 -19 -3 3 -6 0 -8 -9 -5 -32 12 -96 -46 -137
-123 -28 -53 -28 -55 -7 -41 40 25 65 30 33 6 -36 -27 -70 -60 -108 -107 -44
-53 -40 -31 5 28 31 41 41 64 44 100 5 60 47 185 80 234 20 31 29 37 47 32 15
-4 18 -3 9 3 -11 7 -7 14 17 31 77 55 189 63 277 20z m-3404 -112 c6 -29 3
-44 -12 -70 -32 -52 -27 -62 38 -81 32 -9 72 -16 89 -16 38 0 59 -19 68 -60 6
-28 25 -43 25 -19 0 8 4 8 13 1 6 -5 33 -12 58 -16 42 -6 46 -5 57 19 11 23 9
25 -16 30 -79 17 -101 28 -112 58 -14 40 -13 100 2 115 7 7 29 12 50 12 46 0
58 -22 58 -106 l0 -55 60 2 c33 1 63 -1 67 -4 3 -4 28 -7 54 -7 47 0 105 24
107 45 1 6 19 11 39 12 29 2 33 0 18 -6 -17 -7 -14 -10 19 -16 53 -11 155 -12
189 -2 19 5 26 4 22 -2 -11 -19 -79 -31 -215 -38 -129 -7 -132 -8 -75 -16 119
-17 305 9 305 42 0 5 21 12 48 16 26 3 67 11 92 19 25 7 54 10 64 6 11 -4 30
-38 50 -91 39 -104 72 -161 125 -216 23 -23 41 -45 41 -48 0 -12 -59 -4 -70
10 -14 17 -110 22 -110 6 0 -19 -41 -23 -60 -6 -12 11 -47 18 -116 23 l-99 7
-3 43 c-2 23 -6 42 -10 42 -7 0 -53 -68 -77 -112 -5 -10 -20 -18 -32 -18 -36
0 -102 -30 -108 -50 -8 -26 -128 -85 -220 -108 -94 -24 -170 -36 -355 -58 -74
-9 -141 -20 -147 -26 -7 -6 -13 -23 -13 -39 0 -25 4 -28 38 -32 20 -2 1 -4
-43 -5 l-80 -2 -2 36 c-1 20 -3 38 -5 40 -2 1 -90 10 -194 18 -105 9 -229 23
-275 32 -46 9 -93 17 -104 18 -11 1 -29 7 -40 13 -11 6 -32 13 -47 17 -30 7
-83 49 -99 78 -15 27 5 72 38 87 32 15 41 7 20 -17 -24 -26 -21 -65 6 -90 29
-28 116 -58 237 -83 132 -27 430 -37 480 -16 l34 15 -54 6 c-30 3 -68 8 -85 9
-16 2 6 5 51 6 44 0 123 3 175 6 61 3 83 1 64 -4 -16 -5 -55 -10 -85 -11 -30
-1 -49 -4 -41 -7 11 -5 11 -7 0 -14 -8 -5 33 -9 101 -9 121 0 279 19 390 46
63 16 237 90 229 98 -2 2 -42 -4 -89 -15 -160 -35 -296 -49 -468 -48 -92 1
-159 3 -149 6 9 2 15 8 12 13 -9 15 14 21 36 9 25 -13 110 -2 274 36 252 59
334 94 341 143 3 18 -88 58 -179 78 -39 9 -78 21 -86 28 -9 7 -75 11 -194 11
l-179 0 7 50 c3 28 7 68 8 90 2 23 13 58 25 79 13 21 21 40 19 42 -2 2 -14
-14 -28 -37 -26 -42 -37 -44 -102 -20 l-28 11 18 31 c29 50 71 80 107 77 26
-3 31 -8 38 -41z m2605 -59 c15 -7 46 -31 68 -53 30 -30 70 -53 158 -89 64
-27 117 -52 117 -56 0 -3 -11 -17 -25 -30 -13 -12 -36 -53 -50 -91 -35 -92
-69 -103 -84 -27 l-7 33 -64 0 -65 0 -3 -47 -3 -46 -98 -4 c-105 -3 -141 -19
-141 -60 0 -15 -8 -18 -50 -18 -49 0 -50 1 -50 31 0 21 8 37 27 52 112 91 179
199 210 341 9 42 20 76 24 76 5 0 21 -6 36 -12z m-2872 -52 c17 -12 17 -18 5
-90 -10 -61 -18 -81 -36 -93 -35 -23 -59 -13 -57 22 1 17 3 53 5 82 2 33 10
59 22 72 22 25 35 26 61 7z m154 -23 l22 -18 -19 -59 c-11 -35 -21 -54 -25
-45 -3 7 -6 1 -6 -16 -2 -41 -11 -52 -46 -56 l-30 -4 0 85 c1 48 6 95 13 108
16 27 60 30 91 5z m3508 -59 c63 -32 173 -128 173 -151 0 -12 -8 -10 -36 7
l-35 22 -24 -22 c-22 -21 -25 -21 -47 -6 -32 23 -85 21 -100 -4 -15 -24 -35
-25 -62 -5 -25 19 -49 19 -88 -1 -39 -20 -48 -9 -48 65 0 49 3 57 40 94 l40
40 65 -6 c44 -3 84 -14 122 -33z m-62 -363 c3 -6 35 -149 35 -158 0 -2 -13 -3
-29 -3 -19 0 -36 8 -49 24 -25 33 -55 113 -49 131 9 21 79 26 92 6z m-4681
-80 c-5 -5 -40 -19 -79 -30 -99 -30 -275 -118 -275 -136 0 -9 12 -20 26 -25
22 -9 202 -25 532 -47 51 -3 90 -9 87 -12 -3 -3 -45 -5 -93 -4 l-87 1 80 -8
c44 -4 130 -13 190 -19 114 -11 365 -27 565 -35 175 -8 55 10 -165 25 -99 6
-182 13 -184 15 -8 7 76 4 296 -10 120 -8 306 -20 413 -26 233 -14 469 -37
393 -39 -92 -2 -57 -18 55 -25 59 -4 195 -14 302 -21 353 -26 822 -56 1005
-65 99 -5 223 -12 275 -16 107 -8 117 5 12 17 -101 11 157 0 383 -17 105 -7
224 -14 265 -15 41 0 104 -6 140 -14 l65 -13 -84 -1 c-46 -1 -82 -3 -80 -5 6
-6 590 -38 596 -33 2 3 -22 8 -54 12 -109 12 -98 13 87 8 102 -2 268 -11 370
-18 427 -32 572 -30 653 12 18 8 77 47 132 85 156 109 424 282 385 249 -40
-34 -38 -47 4 -25 16 8 31 12 34 9 3 -3 -1 -5 -8 -5 -7 0 -11 -2 -8 -5 9 -10
38 7 31 18 -3 6 -1 7 6 3 11 -7 132 71 147 95 14 24 -22 33 -172 45 -89 7
-161 17 -168 24 -8 8 -7 10 4 6 8 -3 82 -10 164 -15 149 -10 196 -23 196 -55
0 -7 -48 -47 -107 -90 -332 -236 -543 -377 -593 -396 l-45 -18 -7 -108 c-4
-60 -10 -114 -13 -121 -2 -7 -19 -13 -38 -13 -31 0 -33 2 -31 28 2 15 5 66 7
115 l5 87 -119 0 c-65 0 -210 6 -321 14 -112 8 -279 20 -373 26 -93 6 -309 19
-480 30 -170 11 -425 27 -565 35 -140 8 -349 22 -465 30 -115 8 -379 26 -585
40 -206 13 -573 38 -815 55 -242 17 -507 35 -590 40 -82 5 -208 14 -280 20
-362 28 -759 51 -1015 60 -157 6 -296 11 -310 13 -24 2 -25 -1 -28 -58 -1 -33
1 -77 5 -99 l8 -38 60 -4 c57 -4 89 -8 320 -39 l100 -14 -125 5 c-226 9 -414
24 -453 34 -57 17 -65 38 -69 178 -3 115 -2 124 17 135 22 13 188 78 340 133
55 20 107 40 115 44 18 10 28 3 14 -9z m3031 -202 c86 -4 95 -17 46 -63 -27
-26 -31 -27 -105 -20 -42 4 -79 11 -82 15 -9 15 14 46 48 62 18 9 35 14 38 12
3 -2 28 -4 55 -6z m-1877 -431 c32 -16 52 -34 65 -59 16 -33 16 -39 2 -71 -8
-20 -39 -58 -70 -85 -55 -50 -60 -63 -21 -63 36 0 83 -36 102 -79 27 -59 47
-53 74 22 13 34 43 111 68 170 42 99 48 108 69 104 13 -2 31 2 40 9 10 7 26
14 36 14 9 0 17 5 17 10 0 6 5 10 10 10 6 0 10 -9 10 -20 0 -11 4 -28 9 -38 5
-9 15 -55 21 -102 19 -132 27 -160 51 -160 15 0 19 -5 16 -15 -4 -8 -2 -17 2
-20 5 -2 14 17 21 43 27 108 114 213 205 248 86 32 169 -10 167 -86 -1 -48
-22 -102 -37 -96 -7 2 -16 -2 -19 -10 -5 -14 -8 -14 -21 0 -8 8 -18 29 -21 45
-9 42 -34 40 -79 -4 -47 -47 -76 -107 -82 -169 -4 -43 -1 -56 18 -80 19 -24
27 -28 60 -23 20 3 64 23 98 46 34 23 61 40 61 37 0 -3 -4 -16 -10 -30 -12
-32 1 -33 34 -3 22 19 28 41 51 174 27 167 41 209 61 192 9 -7 15 -5 22 7 6
10 16 15 26 11 9 -4 16 -2 16 3 0 19 15 10 27 -15 9 -20 8 -40 -3 -92 -7 -37
-13 -68 -11 -69 1 -2 32 22 67 53 103 88 168 135 178 129 5 -3 20 6 32 19 13
14 28 25 34 25 5 0 -4 -15 -22 -33 -36 -37 -41 -53 -13 -37 27 14 36 13 22 -4
-6 -7 -9 -20 -6 -28 5 -14 -34 -56 -115 -122 -19 -16 -54 -46 -78 -68 l-43
-39 97 -120 c53 -66 99 -118 101 -115 2 2 -1 13 -8 23 -12 20 -4 102 8 89 3
-3 12 -1 20 5 7 6 13 8 13 4 0 -4 6 -3 13 3 10 9 16 4 26 -23 8 -23 21 -37 37
-41 58 -15 149 22 149 61 0 12 -30 33 -95 66 -111 58 -139 82 -146 130 -7 45
24 92 96 142 60 40 148 65 194 53 41 -10 76 -50 76 -86 0 -33 -27 -96 -37 -86
-3 3 -12 -2 -19 -12 -8 -10 -13 -12 -14 -4 0 6 -7 12 -15 12 -10 0 -15 10 -15
30 0 35 -11 37 -70 14 -41 -17 -69 -50 -53 -64 4 -4 41 -25 82 -46 41 -22 94
-57 118 -80 36 -34 43 -47 43 -79 0 -57 -61 -113 -167 -153 -74 -29 -147 -43
-130 -25 7 6 -84 53 -92 47 -2 -1 18 -30 44 -63 25 -34 44 -61 42 -61 -2 0
-28 18 -57 40 -57 43 -85 53 -55 20 26 -28 13 -34 -19 -9 -22 17 -36 20 -74
16 -42 -5 -44 -5 -19 5 15 7 27 15 27 20 0 4 -24 31 -53 60 -29 29 -73 76 -98
105 l-46 51 -11 -46 c-6 -26 -14 -68 -18 -95 -3 -26 -11 -50 -17 -54 -6 -4 -8
2 -5 15 4 12 3 22 -2 22 -8 0 -25 -40 -33 -75 -3 -11 -5 -5 -6 15 -1 19 -6 42
-11 50 -9 13 -11 13 -21 0 -8 -11 -9 4 -6 58 l4 74 -71 -70 c-114 -112 -129
-117 -209 -82 -58 26 -104 78 -118 135 -13 51 -22 61 -37 42 -8 -9 -7 -33 3
-82 18 -83 18 -95 4 -75 -8 11 -9 1 -6 -40 l5 -55 -16 38 c-9 23 -20 36 -28
33 -7 -3 -17 7 -23 22 -7 20 -10 22 -10 8 -2 -33 -14 -9 -31 61 -22 92 -40 94
-40 4 0 -39 -4 -71 -9 -71 -5 0 -13 29 -16 65 l-7 64 -32 -5 c-56 -10 -56 -9
-40 -60 16 -55 17 -64 5 -64 -5 0 -14 14 -20 31 -12 35 -23 32 -41 -11 -7 -16
-18 -30 -25 -30 -7 0 -19 -13 -27 -30 -17 -38 -24 -38 -32 2 -6 30 -7 31 -21
12 -14 -19 -14 -19 -15 2 0 12 7 40 14 62 9 26 11 44 5 47 -5 4 -6 12 -3 18 4
7 -17 -11 -47 -40 -30 -28 -85 -72 -124 -97 -38 -25 -63 -46 -55 -47 8 0 -16
-16 -54 -35 -76 -37 -80 -39 -71 -24 3 6 -1 10 -9 10 -9 0 -18 -12 -22 -27
-10 -46 -12 -49 -13 -19 -1 24 -3 27 -16 16 -10 -8 -15 -31 -15 -71 0 -33 -4
-59 -10 -59 -5 0 -9 8 -8 18 3 43 -3 92 -12 92 -5 0 -10 -7 -10 -15 0 -8 -4
-15 -10 -15 -5 0 -10 7 -10 15 0 18 3 17 -38 6 -20 -6 -32 -6 -32 0 0 5 5 9
10 9 6 0 10 5 10 10 0 6 -9 10 -20 10 -20 0 -20 1 -3 27 18 26 17 27 -2 20
-19 -7 -19 -6 1 10 12 10 36 26 54 35 39 22 38 52 -2 56 -34 4 -68 46 -68 84
0 39 40 78 80 78 16 0 30 5 30 10 0 6 -7 10 -15 10 -14 0 -20 24 -16 58 1 6
-4 12 -11 12 -7 0 1 10 19 21 26 16 34 30 42 72 17 89 19 118 7 113 -96 -38
-116 -44 -121 -36 -3 6 -1 10 4 10 6 0 11 7 11 15 0 20 -19 19 -87 -5 -79 -28
-79 -25 0 16 37 19 67 39 67 45 0 5 -4 7 -10 4 -21 -13 -9 13 13 27 36 24 155
69 221 84 87 20 204 12 264 -18z m-1419 -268 c34 -389 60 -709 66 -820 4 -58
9 -116 11 -130 4 -16 2 -21 -4 -15 -5 6 -15 60 -21 120 -24 235 -80 968 -81
1054 0 81 9 11 29 -209z m3891 213 c0 -4 7 -57 15 -118 9 -60 18 -129 21 -152
4 -33 9 -42 27 -45 15 -2 21 -9 19 -20 -6 -36 16 -16 33 30 53 140 200 262
317 262 65 0 95 -14 114 -52 14 -31 14 -37 -4 -83 -14 -34 -25 -49 -36 -47 -9
2 -16 -2 -16 -8 0 -6 -7 -6 -20 2 -12 8 -20 24 -20 40 0 71 -119 2 -192 -111
-51 -80 -32 -181 33 -181 44 0 129 47 129 72 0 4 -20 8 -45 8 -33 0 -45 4 -46
15 -4 67 -4 69 30 76 17 4 75 10 128 14 l95 7 -5 -33 c-3 -19 -18 -72 -35
-119 -16 -47 -38 -112 -47 -145 -14 -46 -20 -55 -26 -40 -6 17 -9 15 -23 -17
-9 -21 -16 -45 -16 -53 0 -9 -4 -14 -9 -11 -5 3 -7 24 -4 46 4 26 2 40 -6 40
-6 0 -11 -7 -11 -16 0 -8 -4 -13 -9 -10 -4 3 -5 25 -1 48 5 24 7 44 5 46 -2 2
-22 -8 -44 -22 -49 -31 -74 -34 -122 -13 -77 34 -129 99 -129 162 0 20 -5 25
-23 25 -23 0 -24 -1 -15 -57 4 -32 10 -68 13 -80 6 -27 -11 -31 -19 -5 -3 9
-3 -11 -1 -46 5 -66 -8 -78 -19 -18 -4 23 -11 33 -20 30 -7 -3 -18 5 -24 18
-6 13 -11 17 -11 11 -1 -7 -5 -13 -10 -13 -5 0 -12 21 -16 48 -14 100 -8 95
-89 87 -39 -4 -78 -11 -86 -15 -9 -5 -29 -36 -45 -69 -16 -34 -31 -57 -35 -52
-9 15 -25 0 -49 -44 -20 -37 -21 -38 -16 -10 5 32 -12 71 -22 48 -2 -7 -8 -13
-13 -13 -5 0 2 26 15 58 18 43 21 59 12 67 -16 13 -20 55 -6 55 8 0 8 4 0 14
-13 15 4 26 38 26 16 0 41 43 139 242 2 4 -9 6 -25 3 -15 -2 -65 -9 -109 -16
l-81 -11 -16 -57 c-8 -31 -25 -99 -37 -151 -36 -153 -58 -228 -59 -197 -1 41
-13 33 -44 -31 l-29 -57 6 45 c3 25 2 52 -4 60 -6 10 -10 11 -10 3 0 -7 -5
-13 -10 -13 -6 0 -8 16 -4 43 6 41 49 269 60 316 6 26 18 26 -117 5 -39 -7
-41 -6 -34 15 3 11 2 21 -3 21 -13 0 -10 56 4 70 6 6 51 16 100 22 49 6 95 16
102 21 15 11 232 20 276 11 28 -6 29 -7 11 -20 -17 -13 -17 -14 0 -20 15 -6
13 -9 -11 -20 l-29 -12 40 -1 c36 -1 42 3 59 34 14 26 24 34 38 29 18 -5 84
13 103 28 11 10 25 10 25 1z m1106 -107 c9 -10 25 -15 35 -13 11 3 21 1 24 -3
3 -5 -15 -12 -39 -15 -48 -8 -85 -34 -50 -36 40 -1 -22 -17 -92 -23 -172 -16
-172 -16 -177 -39 -3 -12 -9 -32 -13 -45 -7 -23 -5 -23 57 -22 35 1 80 1 99 0
32 -1 33 -2 15 -12 -19 -12 -19 -12 5 -18 25 -7 25 -7 -10 -23 -26 -11 -30
-16 -15 -17 l20 -1 -20 -9 c-11 -4 -59 -11 -107 -15 l-86 -7 -13 -47 c-7 -25
-12 -48 -11 -50 1 -2 71 -3 155 -2 88 1 158 -3 167 -9 11 -7 7 -10 -20 -10
-64 -1 -10 -20 60 -21 64 -2 60 -3 -47 -15 -54 -6 -74 -24 -26 -24 14 0 24 -2
22 -4 -2 -2 -76 -10 -164 -16 -88 -7 -172 -18 -187 -25 -20 -10 -28 -10 -32
-1 -2 6 -8 0 -12 -13 -7 -23 -8 -23 -14 -6 -4 13 -16 19 -35 20 -20 0 -29 6
-32 20 -13 69 -12 73 11 79 18 4 27 18 39 58 11 39 12 56 3 63 -18 16 -8 73
15 80 20 7 30 25 43 78 5 22 3 27 -13 27 -24 0 -36 16 -20 26 8 5 8 8 0 13
-18 12 10 59 44 73 32 13 225 27 337 23 47 -2 72 -7 84 -19z m-4652 -197 c8
-12 13 -34 11 -51 -3 -20 0 -28 8 -25 65 24 82 10 51 -42 -17 -28 -23 -31 -69
-31 -27 1 -69 5 -92 9 -24 5 -43 4 -43 0 0 -5 -5 -9 -11 -9 -5 0 -8 4 -4 9 3
5 1 12 -5 16 -15 9 -12 25 6 25 9 0 12 -5 8 -12 -4 -7 -3 -8 4 -4 19 11 14 44
-8 56 -11 6 -20 16 -20 22 0 7 6 6 16 -2 13 -11 16 -10 21 8 3 12 8 22 11 22
11 0 42 -34 42 -46 0 -16 17 -27 30 -19 6 4 6 15 -1 32 -20 52 14 85 45 42z
m360 -89 c22 -39 42 -70 45 -70 3 0 24 32 46 70 22 39 46 70 53 70 9 0 12 -28
12 -105 0 -63 -4 -105 -10 -105 -6 0 -10 35 -10 85 0 47 -3 85 -7 85 -5 0 -22
-26 -39 -58 -17 -31 -37 -58 -45 -60 -8 -1 -26 19 -42 47 -15 28 -32 53 -37
56 -6 4 -10 -38 -10 -109 l0 -116 -72 6 c-98 8 -98 8 -98 50 l0 37 69 -7 c55
-5 70 -3 75 9 7 19 2 22 -73 29 -70 8 -84 12 -76 27 4 5 40 9 81 9 100 0 97
22 -4 33 l-72 9 0 35 0 35 70 -4 c39 -2 70 0 70 5 0 4 8 7 18 7 11 0 31 -25
56 -70z m-276 -88 c16 -10 5 -42 -14 -42 -9 0 -14 -11 -14 -31 0 -26 -3 -29
-21 -24 -13 4 -27 1 -38 -9 -15 -14 -20 -14 -37 -1 -10 8 -38 15 -61 15 -51 0
-70 24 -52 64 12 25 14 25 84 19 49 -4 74 -2 79 6 8 13 55 15 74 3z m1921
-187 c33 -10 69 -31 88 -50 33 -33 33 -35 19 -63 -16 -31 -65 -67 -133 -96
-42 -19 -56 -36 -30 -36 33 0 119 -33 147 -56 23 -20 30 -34 30 -62 0 -31 -8
-44 -53 -87 -60 -56 -108 -82 -241 -132 -61 -22 -78 -32 -51 -27 63 9 38 -2
-67 -30 -54 -15 -106 -29 -115 -32 -10 -2 0 4 22 15 35 18 36 20 10 14 -95
-20 -109 -27 -122 -68 l-11 -40 -1 38 c-1 35 -2 36 -21 25 -12 -7 -23 -22 -25
-33 -2 -11 -8 -45 -14 -75 -10 -53 -10 -53 -5 23 5 71 3 78 -13 75 -9 -2 -20
-14 -24 -28 -7 -24 -10 -22 -13 10 -1 15 -15 16 -71 6 -28 -5 -29 -5 -11 9 13
9 42 15 80 15 34 0 81 7 106 16 25 9 108 34 184 55 134 38 300 98 293 106 -2
2 -34 -8 -70 -22 -38 -14 -67 -20 -67 -14 0 5 -4 8 -9 4 -5 -3 -12 -1 -16 5
-3 5 -17 7 -31 4 -13 -3 -30 -1 -38 5 -10 9 -36 5 -107 -14 -52 -14 -97 -25
-100 -25 -4 0 2 17 12 37 19 38 28 92 10 64 -7 -10 -21 -12 -55 -8 -51 7 -50
8 -61 -56 -5 -29 -3 -37 6 -32 7 5 10 3 7 -5 -4 -14 -20 -20 -97 -40 -25 -7
-40 -15 -35 -18 5 -4 10 -15 10 -24 1 -14 -6 -18 -35 -17 -31 0 -33 1 -13 9
24 10 30 30 10 30 -22 1 23 22 70 34 l45 12 24 89 c12 50 25 100 29 113 5 18
2 22 -17 23 -23 0 -23 1 -4 9 17 7 17 9 3 9 -10 1 -18 5 -18 10 0 5 8 12 18
16 16 7 15 8 -3 15 -21 8 -22 8 35 29 20 7 31 25 53 86 l27 78 -37 -7 c-21 -4
-56 -10 -78 -13 -37 -5 -38 -4 -21 9 18 14 18 15 -9 22 l-28 7 32 20 c39 24
36 34 -5 19 l-29 -10 24 18 c13 9 67 27 120 39 83 19 119 22 266 19 126 -2
184 -8 224 -21z m871 -4 c41 4 111 8 155 7 l80 0 -50 -13 c-43 -11 -46 -13
-20 -15 26 -1 27 -3 10 -10 -30 -13 60 -12 210 1 71 6 145 8 172 3 32 -5 40
-9 26 -12 -35 -5 -27 -22 10 -23 29 -1 27 -3 -23 -19 -45 -15 -50 -18 -26 -19
68 -2 4 -20 -112 -32 l-123 -12 -20 -38 c-10 -21 -19 -41 -19 -45 0 -4 39 -4
88 -1 48 4 96 2 107 -3 19 -8 19 -9 -3 -9 -29 -1 -19 -21 11 -22 20 -1 21 -2
2 -6 -11 -3 -31 -10 -45 -16 l-25 -10 25 -7 c18 -4 1 -9 -55 -14 -153 -13
-149 -11 -167 -64 -10 -25 -16 -48 -14 -50 2 -2 66 1 143 5 76 5 163 6 193 2
45 -5 48 -6 18 -8 -21 0 -38 -5 -38 -10 0 -12 36 -20 95 -22 43 -2 40 -3 -25
-9 -41 -4 -90 -11 -109 -15 -25 -6 -32 -5 -27 3 4 7 16 12 27 12 10 0 19 5 19
10 0 6 -12 10 -26 10 -16 0 -23 4 -18 11 5 8 -29 9 -122 4 -71 -4 -133 -8
-139 -9 -5 0 -9 4 -8 9 9 60 9 60 -25 63 -18 2 -30 8 -27 13 4 5 0 9 -8 9 -15
0 -37 -48 -37 -82 0 -20 -61 -53 -83 -45 -7 3 3 9 22 14 30 8 37 16 52 58 22
63 23 79 5 72 -16 -6 -17 28 -1 52 5 10 4 12 -3 7 -7 -4 -12 -4 -12 -1 0 3 16
13 35 20 27 12 37 24 46 56 10 33 10 42 0 49 -8 4 -10 13 -7 19 4 6 2 11 -4
11 -6 0 -8 5 -4 11 4 8 -3 9 -22 6 -16 -3 -59 -9 -95 -12 l-67 -6 -83 -219
c-46 -121 -85 -215 -87 -211 -2 5 7 35 18 67 12 33 27 78 35 102 l13 43 -58
-2 -59 -2 -32 -101 c-29 -93 -49 -137 -49 -109 0 6 27 91 61 189 81 237 79
228 43 221 -16 -3 -49 -9 -74 -12 -25 -3 -58 -8 -75 -11 -27 -4 -28 -4 -12 9
15 13 16 16 2 27 -14 12 -14 15 2 32 15 16 15 21 3 28 -22 14 23 27 141 40 57
7 109 16 114 20 14 11 58 17 70 9 6 -3 44 -2 85 2z m1010 -19 c19 -9 37 -26
39 -37 2 -11 8 -23 14 -27 17 -11 -28 -99 -47 -92 -9 3 -17 -3 -22 -18 l-7
-23 -9 24 c-7 19 -11 21 -22 11 -12 -9 -15 -6 -18 22 -4 41 -21 45 -92 23 -66
-21 -116 -58 -100 -75 6 -6 59 -29 117 -50 134 -50 221 -93 241 -122 18 -25
21 -74 6 -83 -5 -3 -10 -14 -10 -23 0 -10 -14 -23 -32 -31 -45 -20 -24 -24 68
-12 44 5 83 6 87 2 4 -4 -43 -13 -105 -20 -100 -10 -127 -17 -241 -65 -70 -29
-127 -57 -127 -62 2 -12 -142 -65 -162 -58 -10 3 -39 -5 -65 -16 -27 -12 -64
-28 -83 -35 -19 -7 -52 -20 -72 -29 -70 -30 -39 -5 38 30 42 20 74 38 71 41
-3 2 -79 -20 -169 -51 -156 -53 -201 -66 -168 -47 56 33 342 125 384 124 35
-1 200 53 326 106 l85 36 -50 6 c-27 3 -64 12 -82 18 -24 10 -37 10 -54 1 -12
-7 -79 -36 -148 -65 -69 -29 -143 -60 -163 -69 -21 -9 -38 -14 -38 -12 0 6 73
40 225 107 172 75 300 143 303 161 4 20 -36 42 -163 87 -158 56 -206 95 -191
155 9 37 68 90 136 122 131 63 234 79 300 46z m-1471 -14 c-1 -7 1 -20 5 -29
4 -9 -8 -58 -28 -115 -19 -54 -55 -160 -81 -234 -26 -74 -51 -139 -55 -144
-11 -11 3 45 29 118 25 70 18 85 -39 82 -50 -3 -64 -21 -84 -107 -9 -36 -20
-77 -25 -90 l-10 -24 0 27 c-1 15 13 72 29 125 17 54 44 143 61 198 35 114 70
196 76 178 6 -17 22 -16 57 2 21 11 31 12 36 4 5 -7 9 -5 13 5 8 19 19 21 16
4z m-2099 -64 c6 -6 10 -24 8 -40 -4 -35 -22 -39 -115 -29 l-63 7 0 37 c0 21
2 40 4 42 9 9 156 -7 166 -17z m-247 -98 c4 -6 6 -24 5 -41 -3 -29 -5 -30 -55
-33 -79 -5 -117 8 -121 42 -7 54 0 58 86 51 42 -4 80 -13 85 -19z m235 -12
c17 -5 22 -14 22 -40 0 -22 -6 -36 -15 -39 -47 -15 -51 -18 -30 -23 32 -7 45
-22 45 -54 0 -37 -14 -42 -102 -31 l-73 8 -3 38 -3 37 48 1 48 0 -45 17 c-41
16 -45 21 -48 55 l-3 37 68 0 c37 0 78 -3 91 -6z m-231 -94 c2 0 3 -19 3 -41
l0 -42 -82 7 c-44 4 -85 9 -90 12 -4 3 -8 20 -8 39 l0 34 58 3 c31 2 70 0 87
-4 16 -5 31 -8 32 -8z m4926 -56 c35 -6 37 -8 37 -45 l0 -39 -64 0 c-35 0 -78
3 -95 6 -27 6 -31 11 -31 39 0 17 3 35 7 38 8 9 96 9 146 1z m-13 -122 c43 -7
45 -8 45 -42 0 -31 -3 -35 -30 -38 -16 -2 -58 -1 -92 3 l-63 7 0 39 0 39 48
-1 c26 0 67 -4 92 -7z m-5396 -67 c-17 -43 41 -58 293 -80 95 -8 189 -18 210
-24 42 -11 292 -35 543 -52 91 -6 201 -15 245 -19 74 -8 71 -9 -35 -4 -63 2
-185 8 -270 14 -420 27 -647 39 -770 42 -133 3 -135 3 -138 -19 -5 -36 -40
-30 -50 9 -6 24 -16 34 -44 44 -34 11 -36 11 -42 -9 -3 -12 -6 -38 -6 -56 0
-63 -19 -19 -21 50 -3 76 2 86 45 105 40 17 47 17 40 -1z m6656 -24 c9 -18 3
-24 -52 -54 -35 -19 -185 -102 -334 -185 -149 -82 -299 -160 -333 -172 -33
-13 -58 -26 -55 -31 3 -5 0 -9 -5 -9 -6 0 -10 -3 -10 -8 5 -32 -3 -52 -21 -52
-16 0 -20 7 -20 33 l0 33 -292 17 c-161 10 -506 31 -767 48 -261 16 -488 30
-505 30 -20 1 -24 3 -10 6 11 2 178 -5 370 -17 192 -11 466 -27 609 -36 234
-14 521 -13 620 2 25 3 27 2 10 -6 -43 -21 81 3 133 26 64 28 219 120 228 136
5 7 2 8 -7 3 -8 -5 -12 -6 -9 -2 3 3 30 19 60 35 30 16 87 48 127 70 40 22 73
36 75 30 3 -9 126 49 163 78 20 15 20 15 1 30 -17 12 -17 14 -3 14 9 0 21 -9
27 -19z m-1480 -10 c21 -6 25 -13 25 -41 0 -34 -1 -35 -45 -38 -25 -1 -65 1
-90 6 -36 6 -46 12 -48 30 -7 45 3 52 70 51 35 -1 74 -4 88 -8z m258 -23 c20
-20 15 -66 -8 -73 -31 -10 -158 6 -171 21 -6 8 -8 25 -5 39 6 24 9 25 89 25
51 0 88 -5 95 -12z m-1756 -36 c15 -4 -153 -7 -375 -7 -248 -1 -452 -6 -532
-13 -173 -17 -368 -47 -468 -72 -84 -21 -117 -36 -57 -26 131 22 507 68 619
75 75 5 285 9 466 9 304 -1 317 -2 165 -9 -247 -13 -490 -37 -630 -65 -144
-28 -137 -27 -125 -15 21 19 263 65 395 74 25 2 4 4 -46 5 -117 2 -441 -30
-691 -69 -107 -16 -209 -29 -226 -27 l-32 4 47 22 c112 53 430 100 863 126 94
6 597 -4 627 -12z"/>
<path d="M3889 3675 c-13 -13 -30 -25 -36 -25 -7 0 -13 -4 -13 -8 0 -4 -23
-16 -52 -27 l-51 -18 -19 23 c-10 12 -18 28 -18 36 0 7 -5 16 -11 19 -5 4 -3
-10 6 -32 24 -55 23 -56 -15 -60 -19 -2 -46 -8 -60 -13 -14 -6 -59 -16 -100
-24 -72 -13 -101 -12 -207 10 -17 3 -39 1 -50 -5 -16 -9 -16 -10 6 -11 14 0
33 -8 44 -17 30 -27 227 -22 322 7 39 12 82 22 98 23 16 0 27 5 27 13 0 13 13
19 34 15 4 -1 23 10 41 24 19 14 37 25 40 25 19 0 63 42 58 55 -7 21 -17 19
-44 -10z"/>
<path d="M2692 2799 c-40 -12 -62 -51 -44 -79 7 -13 8 -20 1 -22 -13 -4 9 -58
23 -58 19 0 74 34 95 59 27 32 30 61 6 55 -10 -2 -40 0 -68 5 -29 5 -39 9 -23
10 14 0 34 4 44 8 12 4 15 3 10 -5 -9 -15 -4 -15 29 0 60 27 3 49 -73 27z"/>
<path d="M205 2239 c-8 -24 4 -197 14 -203 3 -2 21 -7 39 -11 l32 -7 0 89 c0
113 -5 129 -42 142 -39 14 -36 15 -43 -10z"/>
<path d="M1607 1490 c-44 -8 -44 -8 -49 -40 -2 -20 2 -26 20 -28 30 -5 28 -22
-3 -22 -24 0 -25 -3 -25 -54 0 -30 4 -57 8 -60 10 -6 63 20 77 38 6 7 24 20
41 29 17 9 37 23 45 33 13 16 11 17 -31 11 -41 -5 -43 -4 -25 9 11 8 35 14 55
12 33 -3 35 -1 38 28 3 30 0 32 -42 43 -49 12 -53 12 -109 1z"/>
<path d="M2469 1054 c-9 -3 -28 -34 -42 -70 l-26 -66 25 6 c52 13 191 67 223
87 22 13 30 24 24 30 -11 11 -177 21 -204 13z"/>
<path d="M2440 813 c-78 -8 -76 -6 -111 -113 -18 -54 -31 -102 -28 -104 9 -9
182 50 269 92 100 48 136 77 120 97 -21 25 -145 39 -250 28z"/>
</g>
</svg>
