<?xml version="1.0" standalone="no"?>
<!DOCTYPE svg PUBLIC "-//W3C//DTD SVG 20010904//EN"
 "http://www.w3.org/TR/2001/REC-SVG-20010904/DTD/svg10.dtd">
<svg version="1.0" xmlns="http://www.w3.org/2000/svg"
 width="720.000000pt" height="544.000000pt" viewBox="0 0 720.000000 544.000000"
 preserveAspectRatio="xMidYMid meet">
<metadata>
Created by potrace 1.16, written by Peter Selinger 2001-2019
</metadata>
<g transform="translate(0.000000,544.000000) scale(0.100000,-0.100000)"
fill="#000000" stroke="none">
<path d="M3890 5410 c-227 -21 -436 -106 -602 -244 -67 -55 -94 -95 -42 -61
15 10 23 12 19 4 -6 -9 -3 -11 9 -6 9 4 32 -1 50 -10 31 -14 34 -19 29 -49 -8
-49 10 -45 126 31 110 72 198 109 281 118 59 7 52 3 -55 -29 -121 -37 -311
-191 -381 -309 -28 -48 -30 -49 -97 -23 -39 15 -28 33 19 30 45 -4 64 11 89
71 21 51 19 66 -12 78 -16 6 -42 21 -60 35 -19 15 -45 24 -66 24 -31 0 -40 -7
-81 -61 -25 -34 -46 -67 -46 -74 0 -19 39 -45 67 -45 27 0 36 -14 28 -40 -8
-26 -40 -43 -65 -35 -14 5 -20 15 -20 38 l0 32 -25 -37 c-13 -20 -44 -47 -67
-60 -56 -31 -112 -106 -145 -198 -24 -63 -28 -90 -27 -170 1 -154 33 -215 163
-317 91 -71 134 -93 179 -93 24 0 32 -6 42 -31 8 -17 37 -62 67 -100 29 -38
53 -71 53 -74 0 -3 -31 -5 -68 -5 -38 0 -93 -7 -122 -16 -96 -29 -209 -119
-239 -192 l-13 -32 -94 0 c-89 0 -94 1 -98 23 -3 12 -19 96 -37 187 -17 90
-34 173 -39 184 -5 15 6 36 52 90 58 69 88 136 88 197 0 15 -16 51 -36 80 -32
47 -39 67 -51 154 -12 89 -11 116 4 240 10 77 17 180 16 230 -1 84 -2 91 -27
112 -18 16 -40 23 -66 23 -36 0 -41 -4 -60 -40 -12 -23 -20 -61 -21 -92 -1
-37 -3 -46 -8 -29 -4 14 -12 -47 -19 -144 -7 -92 -10 -170 -7 -173 3 -3 5 13
5 36 0 22 5 44 10 47 11 7 13 -14 4 -67 -7 -41 -23 -48 -45 -21 -23 27 -91 73
-109 73 -9 0 -37 -13 -61 -30 -33 -22 -56 -30 -91 -30 -34 0 -54 -6 -75 -24
-15 -13 -44 -30 -63 -38 -19 -9 -44 -25 -54 -37 -19 -21 -19 -28 -7 -154 13
-137 39 -266 65 -328 15 -36 15 -38 -14 -74 -28 -35 -30 -43 -30 -124 0 -92
18 -216 51 -345 23 -89 47 -142 77 -169 11 -11 29 -42 39 -70 11 -33 36 -71
68 -104 62 -64 112 -80 187 -62 46 10 54 9 96 -11 54 -28 148 -39 329 -39 127
-1 133 0 155 23 16 17 38 25 73 29 28 3 59 8 71 12 18 6 22 -1 37 -69 17 -81
61 -183 99 -229 13 -16 38 -32 57 -36 32 -6 36 -11 47 -61 7 -30 13 -58 14
-62 0 -5 -30 -8 -66 -8 -47 0 -70 4 -78 15 -16 22 -69 22 -110 0 -33 -18 -36
-18 -53 -2 -14 12 -47 18 -117 23 -64 5 -99 11 -103 20 -4 12 -11 41 -12 57
-1 12 -70 -74 -77 -95 -4 -10 -16 -18 -28 -18 -41 -1 -100 -29 -124 -60 -49
-63 -189 -106 -451 -140 -86 -11 -176 -26 -201 -32 -25 -7 -47 -11 -49 -9 -7
5 -21 -24 -21 -46 0 -18 7 -22 38 -26 20 -2 0 -4 -45 -5 l-83 -2 0 28 c0 15
-4 32 -8 38 -4 7 -85 18 -197 28 -214 18 -408 55 -475 89 -60 31 -92 78 -79
116 6 16 24 34 44 44 39 18 46 10 15 -18 -27 -24 -25 -66 4 -94 30 -28 143
-67 255 -87 110 -20 411 -31 411 -15 0 6 10 11 22 11 41 0 10 11 -53 19 -63 8
-63 8 37 10 56 0 137 3 180 6 77 4 78 4 24 -6 -95 -18 -100 -19 -100 -28 0
-13 185 -13 286 -1 119 15 245 46 319 80 33 15 70 31 83 35 55 17 6 15 -94 -4
-135 -25 -276 -37 -254 -22 20 14 14 14 -140 -4 -148 -18 -180 -18 -180 -5 0
6 28 10 64 10 75 0 295 47 444 96 104 33 142 55 142 80 0 7 6 14 13 17 19 7
-78 46 -168 68 -44 10 -129 24 -190 31 -132 14 -474 15 -532 1 -40 -10 -41
-10 -47 18 -5 28 -7 29 -66 29 -59 0 -60 0 -60 -28 0 -27 -4 -29 -127 -65
-187 -55 -173 -53 -173 -25 0 35 -18 48 -70 48 -57 0 -70 -12 -70 -67 l0 -43
-75 0 c-94 0 -132 -17 -137 -61 -3 -29 -8 -32 -143 -83 -531 -202 -549 -210
-575 -241 -10 -12 -11 -43 -4 -153 l9 -137 32 -20 c21 -13 34 -30 37 -50 3
-16 26 -291 51 -610 25 -319 49 -609 52 -645 l5 -66 -40 -18 c-23 -10 -51 -29
-63 -42 -20 -21 -21 -30 -16 -95 11 -135 17 -137 597 -174 129 -8 330 -22 445
-30 116 -8 314 -21 440 -30 580 -39 1270 -87 1585 -110 868 -64 1565 -116
1672 -125 64 -5 359 -10 657 -10 l540 0 4 23 4 22 2 -22 c1 -22 5 -23 92 -23
l91 0 252 146 c356 208 396 234 407 261 5 13 9 53 9 88 0 61 -1 65 -36 94
l-37 30 6 63 c13 128 38 465 66 886 l30 432 29 29 c26 27 29 37 35 122 4 51 7
124 7 164 0 119 -11 124 -370 150 -118 8 -241 18 -272 21 l-58 6 0 43 c0 76
-10 105 -43 122 -35 18 -142 22 -172 6 -15 -8 -55 -3 -160 18 -77 16 -182 32
-233 35 l-93 7 -31 39 -31 39 12 69 c15 95 14 223 -3 264 -21 50 -78 108 -131
135 -40 20 -58 23 -115 19 -49 -4 -72 -1 -82 8 -16 16 -160 87 -208 103 -29 9
-38 19 -52 59 -33 90 -143 192 -258 238 -57 24 -55 28 18 38 61 9 119 40 175
95 41 39 87 106 87 126 0 17 -19 0 -39 -35 -24 -42 -77 -100 -92 -100 -19 0
-8 31 16 42 14 6 39 32 55 56 25 38 29 51 24 84 -6 34 -4 40 15 45 13 3 21 13
21 26 0 19 -1 19 -20 2 -24 -22 -50 -13 -45 16 6 29 24 49 46 49 21 0 25 15 9
25 -6 4 -8 15 -5 25 3 9 1 29 -4 44 -14 34 2 33 28 -1 11 -16 21 -22 21 -15 0
20 -39 92 -81 149 -33 44 -39 60 -39 101 0 32 5 54 15 62 28 24 14 133 -23
174 -11 12 -22 40 -26 63 -3 24 -27 77 -52 120 -135 229 -309 371 -564 461
-157 55 -316 76 -470 62z m358 -275 c46 -15 117 -45 158 -66 41 -20 69 -30 63
-22 -7 8 -58 37 -113 64 -56 27 -90 47 -76 43 77 -19 192 -87 269 -159 109
-104 160 -179 201 -300 58 -169 52 -304 -20 -485 -10 -25 -34 -96 -54 -157
-20 -62 -51 -146 -70 -186 -19 -40 -38 -86 -42 -101 -12 -49 -164 -142 -274
-169 -184 -45 -351 -42 -539 8 -238 64 -412 176 -496 318 -25 43 -27 57 -26
130 1 87 38 415 72 631 13 88 26 141 41 165 54 88 227 242 289 255 13 3 35 8
49 12 l25 5 -1 -163 -1 -163 7 140 c9 183 14 202 54 214 55 17 78 19 241 17
147 -2 167 -4 243 -31z m-1150 -331 c16 -5 22 -14 22 -34 0 -42 31 -170 41
-170 18 0 9 -29 -11 -35 -24 -8 -38 -53 -50 -166 -6 -50 -22 -121 -40 -170
-41 -110 -41 -112 -2 -128 31 -14 45 -42 20 -40 -17 0 -160 111 -166 127 -2 7
0 12 5 11 4 -1 22 -1 39 0 30 1 31 3 47 74 21 91 41 262 34 281 -3 8 -19 17
-36 21 -48 10 -41 39 12 51 39 8 42 12 45 45 6 74 -28 109 -74 74 -43 -32 -32
-12 13 24 49 41 62 45 101 35z m-723 -168 c16 -12 20 -29 24 -97 3 -74 2 -81
-14 -76 -9 4 -40 7 -69 7 l-52 0 8 68 c6 54 13 71 33 90 30 26 44 27 70 8z
m-140 -79 c4 -18 5 -53 3 -77 l-3 -45 -48 -9 c-26 -4 -50 -6 -53 -4 -2 3 -7
35 -11 71 -6 64 -5 65 23 81 16 8 41 15 56 16 23 0 28 -5 33 -33z m2789 -189
c44 -60 53 -78 37 -78 -6 0 -11 4 -11 8 0 5 -10 19 -21 31 -27 28 -33 19 -43
-56 -6 -46 -4 -52 14 -58 12 -4 20 -15 20 -29 0 -31 -8 -36 -35 -26 -22 8 -24
5 -44 -63 -33 -115 -64 -210 -78 -237 -28 -55 -6 -83 51 -62 27 11 28 10 15
-3 -17 -17 -115 -55 -142 -55 -27 0 -19 46 37 212 49 146 59 225 31 248 -8 7
-15 21 -15 31 0 15 7 19 35 19 45 0 65 30 72 110 7 77 24 79 77 8z m-2357 -24
c37 -28 63 -72 63 -106 0 -36 -27 -68 -57 -68 -15 0 -24 3 -21 6 4 3 -4 29
-17 57 -16 37 -21 64 -18 95 3 23 8 42 11 42 3 0 20 -11 39 -26z m-589 -434
c0 -76 23 -110 99 -146 65 -30 161 -37 228 -14 84 27 165 108 165 164 0 38 16
69 24 46 16 -46 76 -389 76 -433 0 -44 -6 -61 -37 -107 -38 -55 -38 -55 -41
-25 -4 36 -24 99 -51 157 -11 24 -27 75 -36 114 l-16 72 -47 -15 c-29 -9 -87
-15 -149 -15 l-103 0 5 -37 c4 -35 26 -134 47 -218 6 -24 15 -43 20 -43 5 0 6
-5 2 -11 -9 -15 26 -89 43 -89 7 0 13 -9 13 -20 0 -23 -2 -23 -72 -9 -75 15
-127 73 -156 172 -34 118 -51 217 -58 333 -6 94 -4 116 11 147 9 20 21 37 25
37 4 0 8 -27 8 -60z m1288 -147 c24 -16 44 -34 44 -40 0 -20 -55 -43 -100 -43
-25 0 -39 -4 -35 -10 3 -5 1 -10 -6 -10 -8 0 -6 -7 5 -19 18 -20 14 -41 -8
-41 -6 0 -28 -15 -47 -32 -20 -18 -48 -42 -63 -52 -20 -14 -25 -24 -20 -40 4
-13 -12 -2 -42 31 -58 60 -117 84 -160 64 -56 -25 -41 19 29 89 91 91 177 127
301 129 48 1 67 -4 102 -26z m104 -68 l25 -14 -36 -1 c-47 0 -86 -40 -91 -94
-2 -36 0 -41 27 -52 l30 -13 -40 -2 c-22 -1 -48 -1 -58 -1 -10 1 -15 -3 -12
-8 3 -6 17 -10 30 -10 l24 0 -18 -32 c-11 -18 -22 -44 -25 -58 -3 -14 2 -8 14
15 37 76 41 79 117 71 37 -4 75 -9 84 -10 9 -1 32 -18 50 -38 35 -37 87 -67
152 -87 22 -8 37 -19 38 -29 0 -11 2 -12 6 -4 3 8 28 12 74 12 43 0 91 8 128
20 77 27 272 35 313 14 16 -8 28 -10 28 -5 0 9 -36 23 -85 34 -11 3 -1 5 23 6
23 0 65 12 92 25 l50 24 0 -136 c0 -76 3 -160 6 -189 6 -50 6 -52 -15 -48 -14
3 -21 -1 -21 -12 0 -41 -15 6 -27 80 l-12 82 3 -79 3 -78 -46 -45 c-25 -24
-58 -52 -73 -61 -16 -9 -28 -20 -28 -25 0 -11 -140 -77 -164 -77 -10 0 -41 14
-68 31 -28 16 -86 40 -129 52 -71 20 -79 25 -80 47 -2 22 -2 22 -6 4 -4 -19
-12 -22 -97 -26 -53 -3 -106 -11 -123 -20 -29 -15 -31 -14 -49 11 -27 37 -86
104 -104 118 -11 9 -16 9 -20 0 -19 -44 -59 15 -67 99 -3 29 -10 51 -15 48 -8
-5 -4 25 8 64 8 27 -8 10 -22 -23 -8 -20 -19 -33 -23 -30 -5 3 -14 -7 -20 -22
-9 -24 -10 -19 -6 27 15 144 80 313 156 400 29 33 57 60 63 60 6 -1 22 -7 36
-15z m1386 -36 c71 -33 162 -117 193 -177 12 -23 18 -42 13 -42 -5 0 -14 11
-20 26 -13 28 -66 54 -110 54 -89 0 -219 -80 -264 -163 -21 -38 -27 -42 -63
-43 -30 -1 -32 -1 -10 3 36 6 54 19 66 50 10 27 2 53 -17 53 -7 0 -18 9 -24
19 -14 27 -13 34 6 27 12 -4 15 -2 10 9 -3 8 -1 15 5 15 6 0 8 7 5 17 -4 10 2
24 15 36 19 18 20 21 5 29 -28 16 -171 15 -189 -1 -33 -27 -19 13 16 46 91 86
235 103 363 42z m-1906 -139 c47 -24 85 -72 111 -140 20 -53 27 -120 9 -89 -9
16 -17 17 -95 3 -37 -6 -38 -8 -15 -14 23 -7 22 -8 -10 -9 -19 -1 -57 -4 -85
-7 -27 -2 -63 -1 -79 4 -28 8 -31 13 -42 80 -7 40 -22 88 -33 108 -21 35 -27
65 -14 77 3 4 53 7 110 7 84 0 111 -4 143 -20z m2225 -159 c52 -21 109 -49
127 -60 l33 -22 -51 6 c-76 10 -123 -7 -177 -62 -65 -67 -94 -100 -105 -119
-8 -14 -22 -10 -115 33 l-106 50 23 49 c28 59 74 104 141 138 71 36 117 33
230 -13z m311 -140 c92 -42 161 -132 171 -223 6 -56 -12 -168 -27 -168 -4 0
-28 30 -53 68 -25 37 -54 77 -65 88 -12 12 -19 24 -16 26 2 3 -2 5 -8 5 -7 0
-33 9 -58 20 -86 40 -124 47 -176 34 -26 -7 -56 -19 -68 -27 -26 -18 -42 -18
-26 1 6 8 9 19 6 24 -4 5 -1 13 4 16 12 7 30 48 34 75 2 8 27 30 56 48 47 27
63 32 120 32 41 0 80 -7 106 -19z m-737 -241 c23 -11 52 -31 63 -45 11 -14 58
-45 105 -69 l85 -42 -24 -30 c-13 -16 -31 -45 -40 -65 -12 -27 -24 -38 -48
-43 -59 -11 -80 -8 -80 14 0 22 -4 23 -70 19 -25 -1 -53 -2 -62 -3 -12 0 -18
-8 -18 -23 0 -15 -10 -28 -30 -38 -16 -9 -30 -17 -30 -18 0 -2 17 -2 38 0 30
3 33 1 17 -7 -11 -5 -32 -14 -46 -19 -52 -19 -42 -100 17 -140 77 -53 388
-138 519 -142 91 -3 1 -17 -115 -18 -140 -1 -315 16 -403 40 -99 27 -102 27
-105 3 -7 -48 148 -118 348 -158 189 -38 269 -42 686 -38 319 4 617 74 704
166 11 13 23 39 26 58 5 29 1 41 -26 71 -18 21 -28 37 -23 37 6 0 18 -9 28
-20 10 -11 26 -22 36 -25 11 -4 19 -13 19 -22 0 -8 16 -33 35 -56 24 -28 35
-50 34 -71 0 -17 -3 -24 -6 -16 -3 8 -18 29 -33 46 l-27 31 -31 -38 c-74 -87
-279 -148 -640 -190 l-103 -11 3 -42 c3 -40 4 -41 43 -47 22 -4 -10 -6 -75 -6
-63 0 -105 2 -92 4 17 3 22 11 22 33 0 55 -7 60 -79 60 -82 0 -278 16 -391 31
-183 24 -354 78 -451 141 -47 31 -85 80 -74 97 3 5 -19 26 -49 46 -30 20 -60
42 -66 50 -7 8 -19 15 -27 15 -12 0 -13 3 -3 14 6 8 10 30 9 48 -2 18 3 43 9
55 12 22 11 22 -13 13 -15 -6 -34 -10 -43 -9 -9 0 -4 5 13 11 16 6 35 17 42
24 7 7 23 21 36 31 53 42 131 186 117 214 -6 10 -10 24 -9 31 0 7 5 3 11 -9 7
-14 20 -23 35 -23 12 0 23 -2 23 -5 0 -14 -53 -108 -78 -137 -15 -18 -34 -42
-42 -52 -14 -18 -14 -19 6 -8 12 6 34 26 49 44 32 38 95 164 95 190 0 9 4 28
10 42 9 24 14 26 67 26 36 0 75 -8 102 -20z m726 -51 c69 -34 198 -152 172
-157 -9 -2 -26 4 -39 12 -22 14 -26 14 -56 -4 -32 -20 -32 -20 -52 0 -28 28
-54 25 -93 -10 -34 -29 -34 -29 -52 -10 -22 24 -81 27 -112 5 -21 -15 -23 -14
-29 10 -10 42 1 120 22 148 39 55 134 57 239 6z m-3352 -212 c44 -19 47 -32
10 -51 -50 -25 -132 -36 -264 -36 -135 0 -210 12 -230 37 -18 21 0 34 78 55
89 24 346 21 406 -5z m-1452 -221 c-6 -7 -39 -21 -74 -31 -90 -25 -287 -121
-287 -140 0 -9 11 -20 26 -25 20 -8 456 -45 598 -51 23 -1 25 -3 9 -6 -13 -2
-23 -8 -23 -13 0 -11 59 -18 265 -30 221 -13 466 -29 520 -35 35 -4 34 -3 -12
9 -29 8 -137 20 -240 27 -103 8 -177 15 -164 17 13 2 135 -3 270 -12 135 -9
325 -21 421 -27 236 -14 462 -36 388 -38 -58 -1 -95 -21 -39 -21 16 0 155 -9
308 -20 153 -11 352 -24 443 -30 91 -6 257 -17 370 -25 113 -8 270 -17 350
-20 79 -3 176 -8 215 -12 83 -7 81 6 -2 18 -88 12 121 2 462 -22 160 -11 297
-25 305 -30 12 -8 11 -9 -5 -5 -31 8 -387 27 -393 21 -3 -3 1 -5 9 -5 8 0 86
-7 174 -15 88 -8 243 -19 345 -25 102 -5 230 -13 285 -16 108 -7 124 1 29 15
-99 15 263 2 543 -20 284 -21 409 -24 503 -8 53 8 80 20 148 67 202 137 454
300 423 274 -19 -16 -32 -34 -30 -41 3 -8 13 -4 29 11 13 12 35 23 49 23 38 0
191 100 191 124 0 17 -59 30 -166 36 -109 7 -210 22 -154 24 14 0 85 -4 159
-9 133 -9 181 -23 181 -54 0 -22 -624 -456 -698 -485 l-47 -19 -7 -108 c-4
-60 -10 -114 -13 -121 -6 -17 -76 -17 -71 -1 3 7 7 59 10 116 l6 102 -117 0
c-65 0 -214 7 -333 15 -392 27 -1030 67 -1490 95 -144 8 -817 53 -1790 119
-162 11 -322 23 -355 26 -33 3 -161 12 -285 20 -124 8 -389 26 -590 39 -386
27 -496 32 -784 41 -98 3 -184 7 -190 8 -14 3 -20 -109 -8 -155 9 -38 13 -39
187 -58 55 -6 143 -17 195 -25 l95 -13 -125 4 c-204 8 -402 23 -443 34 -20 6
-43 21 -51 33 -20 33 -30 251 -12 269 16 17 56 34 226 98 74 28 162 61 195 74
72 29 81 30 66 12z m3083 -212 c24 -9 20 -27 -13 -58 -28 -27 -30 -28 -107
-19 -43 4 -79 13 -81 20 -2 6 9 23 24 37 24 23 37 26 95 26 36 0 73 -3 82 -6z
m-1936 -426 c63 -31 89 -81 69 -130 -8 -19 -40 -57 -71 -84 -56 -51 -61 -64
-22 -64 36 0 83 -36 102 -79 27 -59 47 -53 74 22 31 85 101 249 113 265 6 7
19 11 28 9 10 -3 26 1 36 9 10 7 26 14 36 14 9 0 17 5 17 10 0 6 5 10 10 10 6
0 10 -9 10 -20 0 -11 4 -28 9 -38 6 -9 18 -71 28 -137 17 -110 20 -120 41
-123 15 -2 22 -11 23 -25 0 -12 9 4 19 35 23 74 58 133 107 180 134 130 303
83 257 -72 -9 -31 -19 -48 -26 -44 -5 4 -13 1 -17 -5 -13 -21 -40 0 -47 35 -8
45 -33 45 -79 -1 -47 -47 -76 -107 -82 -169 -4 -43 -1 -56 18 -80 19 -24 27
-28 60 -23 20 3 57 18 81 34 23 17 53 35 65 42 21 11 21 10 8 -16 -18 -35 -13
-39 23 -18 28 17 30 23 56 175 28 171 40 215 56 205 6 -4 17 -2 24 4 7 6 21 9
30 5 9 -3 16 -1 16 5 0 19 15 12 26 -14 9 -18 8 -40 -2 -91 -8 -37 -13 -69
-11 -71 2 -2 42 30 88 70 99 86 142 117 161 117 8 0 23 9 33 20 10 11 22 20
28 20 5 0 -5 -16 -22 -35 -36 -41 -39 -50 -12 -35 27 14 36 13 21 -5 -6 -8 -9
-19 -5 -25 9 -14 -13 -39 -90 -103 -33 -27 -79 -67 -103 -89 l-43 -39 97 -120
c53 -66 99 -118 101 -115 2 2 -1 13 -8 23 -13 22 -4 97 12 88 5 -4 9 -1 9 5 0
7 6 10 14 7 7 -3 18 -1 23 4 5 5 14 -5 22 -26 8 -23 20 -37 37 -41 58 -15 149
22 149 61 0 12 -30 33 -94 66 -108 56 -124 69 -141 110 -25 59 19 125 119 178
128 68 241 43 241 -54 0 -29 -28 -90 -37 -81 -3 3 -12 -2 -19 -12 -8 -10 -13
-12 -14 -4 0 6 -7 12 -15 12 -10 0 -15 10 -15 30 0 37 -18 39 -80 8 -66 -34
-60 -52 34 -101 44 -23 99 -60 123 -83 35 -33 43 -47 43 -77 0 -64 -72 -125
-196 -167 -57 -19 -114 -27 -101 -13 7 6 -84 53 -92 47 -2 -1 18 -30 44 -63
25 -34 44 -61 42 -61 -2 0 -28 18 -57 40 -56 42 -85 53 -57 22 27 -29 20 -35
-14 -12 -24 18 -39 21 -77 17 -42 -5 -44 -5 -19 5 15 7 27 15 27 18 0 4 -28
36 -63 71 -35 35 -79 83 -99 107 l-35 42 -18 -87 c-10 -49 -22 -95 -27 -103
-6 -11 -7 -8 -3 8 4 12 2 22 -3 22 -11 0 -30 -37 -35 -70 -3 -18 -5 -15 -6 11
-1 39 -24 70 -35 47 -3 -7 -5 20 -3 60 l3 72 -71 -68 c-117 -115 -134 -120
-226 -71 -48 26 -63 40 -84 82 -14 28 -25 59 -25 69 0 11 -7 18 -20 18 -11 0
-20 -2 -20 -4 0 -2 7 -40 15 -83 18 -92 18 -92 4 -73 -8 11 -9 1 -6 -40 l5
-55 -16 38 c-9 23 -20 36 -28 33 -7 -3 -16 4 -20 16 -4 15 -8 17 -14 8 -8 -13
-10 -8 -38 100 -10 39 -12 39 -108 19 -52 -10 -52 -10 -74 -69 -12 -33 -28
-60 -35 -60 -7 0 -19 -13 -27 -30 -17 -38 -24 -38 -32 2 -6 30 -7 31 -21 12
-19 -25 -19 -10 1 56 11 38 13 55 5 58 -6 2 -8 9 -5 15 4 7 -17 -11 -47 -40
-30 -28 -84 -71 -122 -96 -37 -24 -65 -46 -62 -49 3 -3 -20 -18 -52 -34 -76
-38 -77 -38 -69 -25 4 6 1 11 -8 11 -9 0 -18 -12 -22 -27 -9 -44 -12 -50 -13
-25 -1 12 -5 22 -10 22 -12 0 -21 -37 -21 -87 0 -24 -4 -43 -10 -43 -5 0 -10
25 -10 55 0 55 -15 75 -23 33 l-4 -23 -8 23 c-8 24 -15 24 -72 6 -16 -5 -16
-4 2 11 17 13 18 17 5 25 -8 5 -18 6 -22 4 -4 -3 -8 0 -8 6 0 6 7 13 15 16 21
9 19 27 -2 20 -24 -8 14 23 54 45 27 15 29 19 31 90 1 41 5 91 8 112 5 30 3
37 -10 37 -15 0 -21 16 -18 53 1 9 -4 17 -11 17 -6 0 2 10 20 21 26 16 34 31
43 74 6 30 10 68 8 84 l-3 29 -55 -23 c-50 -21 -91 -24 -59 -4 11 7 11 11 1
21 -10 10 -23 9 -65 -6 -84 -30 -86 -29 -15 8 61 33 105 69 65 53 -25 -9 -21
8 6 25 36 24 152 67 219 83 90 20 206 13 266 -17z m-1419 -273 c11 -132 25
-294 31 -360 5 -66 14 -169 20 -230 5 -60 12 -162 15 -225 4 -63 9 -123 12
-134 3 -10 1 -16 -5 -13 -5 4 -12 35 -16 69 -38 371 -94 1149 -83 1138 3 -3
15 -113 26 -245z m3899 153 c6 -40 16 -111 23 -158 10 -81 19 -100 46 -100 7
0 10 -7 7 -15 -4 -8 -2 -15 4 -15 5 0 17 21 27 48 38 100 126 195 222 239 45
21 66 24 115 21 53 -4 64 -9 85 -34 19 -23 22 -36 17 -64 -8 -47 -33 -92 -46
-84 -5 4 -14 1 -18 -6 -12 -19 -40 12 -40 44 0 73 -149 -23 -200 -130 -25 -50
-26 -121 -3 -146 24 -27 80 -23 127 10 57 39 57 52 2 52 -34 0 -46 4 -47 15
-5 70 -5 69 37 76 21 4 79 10 128 14 l88 7 -5 -34 c-3 -18 -18 -71 -35 -118
-16 -47 -38 -112 -47 -145 -14 -44 -20 -54 -25 -40 -8 23 -17 11 -36 -49 l-13
-41 0 48 c-1 46 -15 64 -24 30 -3 -10 -5 5 -6 34 l-1 51 -46 -24 c-52 -28 -69
-29 -117 -9 -74 31 -127 97 -127 160 0 20 -5 25 -23 25 l-24 0 12 -80 c10 -72
7 -101 -9 -67 -3 6 -4 -14 -1 -46 6 -63 -8 -71 -19 -11 -4 21 -12 34 -19 31
-7 -2 -17 5 -24 17 -7 12 -12 15 -13 9 0 -7 -4 -13 -9 -13 -5 0 -12 21 -16 48
-14 100 -10 95 -79 88 -105 -12 -105 -12 -142 -90 -19 -39 -34 -63 -34 -53 0
31 -19 18 -45 -30 -23 -42 -25 -44 -21 -18 5 33 -11 70 -21 48 -2 -7 -8 -13
-13 -13 -5 0 2 27 16 60 28 69 28 70 12 70 -7 0 -14 11 -14 25 -1 14 3 25 8
25 7 0 6 5 -1 14 -13 15 4 26 38 26 13 0 35 34 77 118 32 64 60 120 62 123 1
4 -8 5 -20 3 -13 -1 -62 -8 -109 -14 l-86 -12 -15 -56 c-9 -31 -33 -129 -54
-217 -29 -119 -40 -152 -44 -130 l-5 30 -22 -36 c-12 -19 -27 -46 -33 -60 -8
-19 -9 -14 -4 27 3 33 2 54 -5 59 -6 3 -11 1 -11 -5 0 -6 -4 -9 -9 -5 -5 3 -7
22 -5 43 7 48 53 291 61 316 6 20 -1 20 -121 0 -34 -6 -38 -5 -33 9 3 9 2 19
-2 22 -11 6 -7 63 5 75 5 5 45 14 89 20 44 6 91 16 105 22 28 12 264 21 294
11 19 -5 19 -6 1 -19 -17 -13 -17 -14 0 -20 15 -6 13 -9 -11 -19 l-29 -12 38
-4 c35 -5 39 -2 58 31 17 29 27 37 52 37 47 2 97 14 97 24 0 5 4 9 9 9 4 0 13
-33 19 -72z m1097 -42 c10 -9 25 -14 35 -11 10 3 21 1 24 -4 4 -5 -13 -13 -38
-16 -25 -4 -53 -13 -63 -21 -17 -12 -16 -13 7 -14 19 0 21 -3 10 -9 -8 -5 -71
-14 -139 -20 -69 -6 -125 -13 -126 -14 -7 -17 -25 -75 -25 -81 0 -4 28 -7 63
-6 114 3 121 2 107 -15 -10 -13 -9 -15 9 -15 33 0 25 -17 -11 -25 -28 -6 -30
-8 -13 -14 18 -7 17 -8 -5 -14 -14 -3 -62 -9 -107 -13 l-81 -7 -13 -46 c-7
-25 -12 -48 -11 -49 1 -2 71 -3 156 -3 98 1 157 -2 161 -9 3 -6 -3 -10 -15
-10 -12 0 -18 -4 -15 -10 3 -5 36 -11 73 -11 66 -2 62 -3 -45 -15 -54 -6 -74
-24 -26 -24 14 0 24 -2 22 -4 -2 -2 -76 -10 -164 -16 -88 -7 -172 -18 -187
-25 -20 -10 -28 -10 -32 -1 -2 6 -8 1 -11 -11 -8 -26 -25 -31 -25 -8 0 10 -10
15 -31 15 -23 0 -30 4 -26 14 3 8 3 17 -1 21 -4 3 -7 19 -8 35 -1 22 3 30 19
32 27 4 63 106 44 123 -19 16 -9 73 14 80 20 7 30 25 42 76 6 22 3 28 -16 33
-23 5 -31 36 -14 52 4 4 7 15 7 24 0 31 67 49 184 49 60 1 112 4 115 7 13 13
140 -3 156 -20z m-4360 -535 c26 -5 30 -10 30 -41 0 -33 -2 -35 -35 -38 -19
-2 -58 -1 -87 3 -55 7 -71 24 -58 65 5 17 15 20 63 19 31 -1 71 -4 87 -8z
m1714 -26 c33 -10 69 -31 88 -50 33 -33 33 -35 19 -63 -16 -31 -62 -65 -141
-102 -38 -18 -45 -25 -30 -27 124 -24 185 -64 185 -121 0 -31 -8 -44 -53 -87
-60 -56 -109 -83 -241 -131 -60 -22 -77 -32 -51 -28 81 13 32 -4 -150 -52 -16
-4 -17 -3 -5 5 13 9 12 11 -5 10 -11 0 -38 -6 -59 -12 -31 -10 -42 -19 -52
-47 l-12 -35 -1 32 c-1 24 -5 31 -15 27 -17 -7 -31 -41 -45 -114 -10 -54 -10
-53 -5 23 5 71 3 78 -13 75 -9 -2 -20 -14 -24 -28 l-6 -25 -7 27 c-5 15 -13
25 -19 23 -7 -2 -28 -6 -47 -9 -32 -5 -33 -4 -16 9 11 8 42 14 82 14 34 0 71
4 81 9 10 6 98 33 197 61 174 51 311 99 303 108 -3 2 -22 -3 -43 -11 -22 -8
-48 -17 -59 -22 -38 -14 -50 -14 -87 1 -21 8 -38 12 -38 9 0 -4 -7 0 -17 7
-13 11 -17 11 -20 1 -3 -6 -8 -10 -12 -8 -4 3 -41 -4 -82 -14 -93 -25 -92 -25
-75 3 8 12 17 38 21 57 7 31 6 33 -8 21 -9 -7 -31 -12 -49 -11 -18 1 -38 2
-44 1 -15 -1 -24 -74 -11 -82 18 -12 -3 -27 -55 -39 -53 -13 -93 -29 -72 -30
6 0 12 -10 12 -23 0 -20 -4 -22 -37 -18 -32 3 -33 5 -13 12 24 9 30 29 10 29
-22 1 23 22 70 34 l45 12 24 89 c12 50 25 100 29 113 5 16 2 22 -11 22 -9 0
-14 4 -11 9 4 5 0 12 -6 14 -10 4 -9 8 2 16 13 10 13 12 0 20 -14 10 -6 15 49
33 8 2 27 39 43 82 l28 79 -37 -7 c-60 -10 -120 -16 -100 -10 25 8 21 21 -10
29 -26 7 -26 8 -8 15 12 4 27 15 35 25 12 15 11 16 -16 9 -24 -5 -27 -4 -17 7
7 7 59 23 115 35 90 20 125 23 273 20 126 -2 184 -8 224 -21z m866 -4 c39 4
108 8 155 7 l85 0 -50 -13 c-48 -13 -49 -13 -15 -15 29 -1 32 -3 15 -10 -29
-13 29 -12 200 1 141 12 250 5 195 -11 -24 -7 -24 -8 9 -15 l35 -8 -55 -18
c-44 -14 -49 -18 -25 -18 19 -1 26 -5 20 -10 -5 -5 -64 -15 -132 -22 l-123
-12 -20 -38 c-10 -21 -19 -41 -19 -45 0 -4 35 -4 78 0 42 3 91 2 107 -3 26 -8
27 -9 7 -10 -29 -1 -19 -21 11 -22 15 -1 11 -4 -13 -11 -46 -13 -61 -28 -29
-29 29 -2 -49 -14 -142 -24 -66 -6 -66 -7 -78 -43 -7 -20 -15 -42 -17 -49 -4
-8 45 -10 193 -8 109 2 181 1 161 -1 -70 -9 -31 -32 61 -35 20 -1 6 -5 -34 -9
-38 -4 -86 -10 -105 -14 l-35 -6 30 14 30 14 -27 7 c-16 4 -25 12 -22 17 6 9
-104 6 -253 -6 -10 0 -17 4 -16 9 9 60 9 60 -24 63 -18 2 -33 7 -33 13 0 5 -4
9 -8 9 -9 0 -32 -59 -32 -83 0 -9 -12 -22 -27 -29 -17 -8 -28 -21 -28 -33 0
-12 -8 -21 -20 -23 -17 -4 -18 -2 -5 13 11 13 11 18 1 25 -9 5 -3 11 21 19 30
10 37 19 51 65 20 64 21 66 4 66 -8 0 -13 8 -12 18 2 28 25 62 41 62 15 0 44
56 44 85 0 8 -6 15 -14 15 -8 0 -12 9 -10 26 2 22 -1 25 -24 20 -15 -3 -57 -8
-93 -12 l-67 -6 -51 -137 c-100 -263 -116 -303 -119 -288 -2 8 7 38 19 68 11
30 27 72 33 94 l13 41 -55 -3 c-32 -1 -59 -8 -64 -15 -19 -30 -40 -111 -31
-117 20 -12 22 -47 5 -96 l-17 -50 340 -2 c187 -1 352 -5 367 -10 16 -4 -139
-8 -365 -8 -405 0 -570 -10 -792 -45 -120 -20 -299 -60 -293 -66 2 -1 102 11
223 27 292 39 525 60 654 58 59 0 210 -1 336 -1 l230 0 -165 -9 c-255 -13
-493 -38 -629 -64 -119 -24 -161 -26 -110 -7 48 18 256 55 354 63 81 6 68 7
-70 4 -177 -5 -395 -27 -673 -71 -90 -14 -178 -24 -195 -22 l-32 3 31 17 c74
40 403 100 634 114 58 4 114 10 125 14 29 11 62 140 36 140 -5 0 -12 -13 -16
-30 -4 -16 -11 -32 -16 -36 -14 -9 -3 31 58 211 74 215 73 209 37 202 -16 -3
-49 -9 -74 -12 -25 -3 -58 -8 -75 -11 -28 -5 -29 -4 -12 10 17 13 17 15 2 24
-16 9 -16 11 0 36 10 15 13 26 6 26 -6 0 -11 4 -11 9 0 9 81 25 190 36 36 4
70 11 75 15 14 11 58 17 70 9 6 -3 42 -3 80 2z m1015 -19 c19 -9 37 -26 39
-37 2 -11 8 -23 14 -27 17 -11 -28 -99 -47 -92 -9 3 -17 -3 -21 -15 -3 -12
-10 -21 -15 -21 -5 0 -7 6 -4 14 7 18 -12 30 -23 14 -5 -9 -10 -1 -13 22 -5
34 -6 35 -46 33 -41 -2 -136 -42 -149 -64 -11 -17 4 -27 126 -73 144 -54 213
-90 233 -118 18 -25 21 -74 6 -83 -5 -3 -10 -15 -10 -26 0 -10 -6 -19 -12 -19
-7 0 -22 -8 -33 -16 -18 -14 -15 -15 50 -9 39 3 80 8 93 11 12 2 22 0 22 -4 0
-5 -48 -14 -108 -20 -74 -8 -124 -19 -162 -36 -30 -13 -90 -39 -133 -56 -43
-18 -75 -35 -72 -38 5 -6 -82 -45 -128 -57 -20 -5 -20 -4 3 9 14 9 22 15 19
16 -12 0 -116 -39 -208 -79 -52 -23 -97 -39 -99 -36 -3 3 30 21 74 41 43 21
74 39 68 41 -5 2 -82 -21 -169 -52 -150 -52 -199 -66 -165 -46 60 35 344 126
366 117 9 -4 12 -2 8 5 -4 8 1 9 15 4 23 -7 227 61 343 114 l63 30 -45 0 c-26
1 -51 6 -58 13 -7 7 -12 9 -12 5 0 -4 -9 -3 -20 3 -16 8 -55 -5 -212 -72 -106
-45 -211 -93 -233 -108 -48 -32 -103 -55 -112 -47 -6 7 179 97 412 201 166 73
267 127 272 143 6 18 -24 41 -84 63 -217 79 -251 98 -267 143 -23 65 68 148
217 199 95 32 167 35 217 10z m-1479 -118 c-36 -110 -128 -369 -144 -404 -16
-34 -16 -34 -10 -5 3 17 16 63 30 104 19 59 21 76 11 82 -18 12 -58 11 -58 -1
0 -5 -5 -10 -11 -10 -5 0 -7 6 -3 13 3 6 -5 0 -19 -15 -17 -17 -33 -53 -46
-103 -11 -42 -22 -79 -25 -83 -14 -13 -4 42 24 134 17 55 44 144 61 199 37
121 68 193 78 177 5 -8 17 -8 48 1 23 7 45 16 49 20 4 4 14 -6 21 -21 12 -25
11 -36 -6 -88z m-2343 -57 c15 -12 16 -63 0 -73 -19 -12 -105 -8 -138 6 -25
10 -30 18 -30 45 0 17 3 35 7 38 9 10 146 -4 161 -16z m250 -19 c20 -20 15
-68 -9 -76 l-20 -8 20 -18 c25 -23 28 -74 5 -83 -8 -3 -48 -2 -87 3 l-72 9 -3
38 c-3 34 -1 37 22 37 33 0 33 13 1 28 -20 9 -25 19 -25 47 l0 35 78 0 c47 0
83 -5 90 -12z m4711 -153 c6 -3 11 -22 11 -41 l0 -34 -64 0 c-35 0 -78 3 -95
6 -27 6 -31 11 -31 39 0 17 3 35 8 39 8 9 155 2 171 -9z m-39 -113 c43 -7 45
-8 45 -42 0 -34 -2 -35 -40 -38 -22 -2 -64 -1 -92 3 l-53 6 0 40 0 39 48 -1
c26 0 67 -4 92 -7z m-5401 -86 c30 -32 78 -43 256 -56 83 -6 184 -17 225 -25
85 -16 319 -39 555 -55 264 -18 482 -37 443 -39 -21 0 -138 6 -260 14 -521 34
-710 45 -1015 60 l-123 6 0 -38 c0 -21 -4 -33 -8 -27 -4 6 -15 13 -24 17 -9 3
-18 18 -20 32 -2 21 -11 30 -40 40 -34 11 -37 11 -42 -9 -3 -12 -6 -37 -6 -55
0 -65 -19 -18 -21 53 -2 61 0 71 20 88 30 23 33 23 60 -6z m6661 -6 c9 -16 -1
-24 -68 -61 -42 -23 -193 -107 -334 -185 -142 -79 -285 -153 -318 -165 -38
-14 -62 -29 -66 -41 -3 -11 -12 -17 -20 -14 -8 3 -14 1 -14 -4 0 -6 8 -10 17
-10 9 0 13 -3 9 -7 -16 -16 -31 -7 -36 22 -4 27 -8 30 -37 27 -18 -2 -144 4
-280 12 -383 25 -1215 76 -1248 77 -17 0 -24 3 -17 6 12 5 363 -13 722 -37
482 -32 638 -34 865 -14 45 4 56 2 45 -6 -29 -21 62 1 130 32 76 34 214 118
206 126 -3 2 29 25 72 49 119 69 155 86 185 89 28 4 123 50 162 80 19 14 19
16 3 28 -22 16 -23 27 -3 20 9 -4 20 -15 25 -24z m-1485 -9 c26 -5 30 -10 30
-41 0 -35 0 -35 -50 -38 -79 -4 -129 9 -133 37 -7 43 4 51 65 50 32 -1 72 -4
88 -8z m263 -23 c17 -17 15 -53 -3 -68 -11 -9 -36 -10 -91 -5 -67 6 -76 9 -84
31 -18 46 -5 54 84 54 50 0 87 -5 94 -12z"/>
<path d="M3414 4630 c-30 -12 -74 -67 -100 -126 -31 -70 -46 -160 -46 -275 -1
-130 20 -194 86 -267 81 -88 192 -127 356 -124 154 2 229 -12 341 -65 107 -50
103 -44 78 -110 -8 -22 -13 -23 -121 -23 -167 0 -339 43 -369 92 -5 8 -8 -1
-7 -24 1 -21 5 -35 10 -32 4 3 8 0 8 -5 0 -6 7 -11 15 -11 8 0 23 -4 33 -10
20 -11 143 -46 192 -54 60 -10 223 -8 275 3 28 6 61 13 74 15 42 9 96 28 106
38 11 10 -89 9 -154 -2 l-43 -8 6 30 c3 17 6 34 6 38 0 3 36 5 79 2 148 -8
238 42 336 188 87 129 109 196 109 330 1 119 -12 156 -67 191 -29 18 -42 20
-135 14 l-103 -6 7 28 c4 15 11 38 15 51 5 13 9 29 8 35 0 7 -11 -17 -23 -53
l-23 -65 -174 0 c-150 1 -184 4 -244 23 -96 29 -225 86 -253 111 -12 11 -26
20 -30 21 -4 0 -39 14 -79 30 -71 30 -129 37 -169 20z m246 -289 c56 -18 69
-35 54 -69 -8 -19 -33 -107 -31 -108 1 0 25 -5 52 -10 l50 -9 -4 -50 c-1 -27
-6 -54 -9 -60 -4 -5 -6 -19 -7 -30 0 -25 -30 -31 -71 -14 -16 7 -46 14 -67 15
-55 3 -112 36 -114 65 0 13 -1 30 -2 37 -1 6 -8 12 -16 12 -11 0 -13 -8 -8
-30 6 -32 0 -36 -40 -21 -21 8 -45 51 -29 51 4 0 8 25 9 55 1 30 5 60 8 65 10
15 42 12 60 -7 14 -13 18 -14 25 -3 11 18 4 30 -18 30 -26 1 -52 24 -43 39 6
9 16 8 44 -5 20 -10 39 -15 42 -12 3 3 8 23 9 44 2 22 4 40 5 42 1 3 36 -6
101 -27z m783 -148 c9 -5 9 -37 0 -47 -4 -4 -9 -18 -10 -31 -3 -23 0 -25 39
-27 l43 -1 -48 -6 c-26 -3 -46 -10 -45 -16 3 -11 8 -12 57 -14 33 -1 33 -1 27
-38 -11 -62 -16 -73 -34 -73 -12 0 -13 -3 -4 -12 7 -7 12 -20 12 -30 0 -16
-10 -18 -99 -18 -54 0 -113 3 -131 6 -32 7 -33 12 -15 57 5 12 2 17 -10 17 -9
0 -13 -5 -10 -10 3 -6 3 -19 0 -30 -5 -16 -15 -20 -46 -20 -42 0 -57 16 -43
48 4 9 6 21 5 26 -1 5 1 16 5 25 4 9 9 27 10 40 5 38 18 45 66 33 43 -11 66
-4 54 17 -4 6 -25 11 -46 11 -21 0 -42 5 -45 10 -4 6 10 10 34 10 59 0 92 18
85 46 -10 40 3 47 75 39 36 -4 69 -9 74 -12z"/>
<path d="M4440 2646 c-48 -32 -66 -83 -46 -130 8 -19 26 -42 41 -52 24 -16 27
-16 42 -1 17 17 27 127 12 127 -4 0 -20 5 -34 10 -31 12 -22 25 35 53 32 15
33 17 10 17 -14 0 -41 -11 -60 -24z"/>
<path d="M204 2235 c-7 -29 5 -193 14 -199 4 -2 22 -7 40 -11 l32 -7 0 89 c0
113 -5 129 -42 142 -40 14 -37 15 -44 -14z"/>
<path d="M1625 1493 c-11 -2 -29 -6 -41 -8 -21 -5 -25 -21 -50 -184 l-6 -44
62 34 c91 50 170 124 170 159 0 26 -4 29 -50 39 -28 6 -54 10 -58 10 -4 -1
-16 -3 -27 -6z"/>
<path d="M2469 1054 c-8 -3 -27 -34 -41 -70 l-26 -66 24 6 c52 13 191 67 223
87 31 19 33 22 17 31 -20 11 -171 20 -197 12z"/>
<path d="M2450 813 c-97 -14 -86 -4 -121 -113 -18 -55 -31 -102 -27 -105 8 -9
180 51 270 94 94 45 137 81 115 99 -26 22 -165 36 -237 25z"/>
<path d="M2701 2800 c-38 -9 -56 -25 -66 -57 -5 -19 -2 -23 17 -23 22 -1 22
-1 4 -15 -16 -12 -18 -19 -8 -40 14 -30 21 -31 72 -5 45 23 71 57 76 100 5 45
-23 57 -95 40z"/>
</g>
</svg>
