<?xml version="1.0" standalone="no"?>
<!DOCTYPE svg PUBLIC "-//W3C//DTD SVG 20010904//EN"
 "http://www.w3.org/TR/2001/REC-SVG-20010904/DTD/svg10.dtd">
<svg version="1.0" xmlns="http://www.w3.org/2000/svg"
 width="720.000000pt" height="544.000000pt" viewBox="0 0 720.000000 544.000000"
 preserveAspectRatio="xMidYMid meet">
<metadata>
Created by potrace 1.16, written by Peter Selinger 2001-2019
</metadata>
<g transform="translate(0.000000,544.000000) scale(0.100000,-0.100000)"
fill="#000000" stroke="none">
<path d="M3430 5379 c-243 -43 -456 -152 -602 -308 -82 -87 -182 -237 -173
-259 6 -17 -20 -68 -39 -75 -16 -6 -46 -94 -46 -133 0 -12 6 -24 14 -27 11 -4
13 -21 8 -74 -4 -59 -10 -73 -38 -107 -111 -129 -95 -376 33 -526 55 -64 171
-114 295 -127 41 -4 52 -11 82 -47 33 -41 145 -116 194 -131 30 -9 22 -17 -36
-32 -39 -10 -49 -9 -58 3 -6 8 -18 14 -27 14 -25 0 -47 11 -41 21 7 12 -18 11
-50 -1 -14 -5 -26 -6 -26 -1 0 11 41 47 65 56 13 5 16 9 7 12 -7 3 -31 -7 -53
-21 l-39 -26 -113 36 c-153 49 -164 52 -225 59 -44 6 -53 11 -58 31 -4 13 -4
34 -1 45 8 29 -14 106 -73 261 -57 147 -89 209 -124 235 l-23 18 33 60 c38 71
58 161 49 220 -5 37 -13 49 -60 85 -58 45 -65 56 -65 103 0 18 -14 59 -30 92
-16 33 -30 69 -30 79 0 20 -32 133 -56 196 -7 19 -15 50 -18 68 -10 61 -59
183 -76 192 -24 13 -82 -5 -110 -35 -20 -22 -22 -31 -17 -87 2 -35 14 -84 25
-109 23 -53 69 -265 59 -275 -3 -4 -20 5 -37 20 -50 41 -117 31 -145 -24 -11
-21 -23 -30 -40 -30 -44 0 -74 -19 -92 -57 -10 -21 -28 -43 -41 -49 -12 -6
-34 -22 -48 -35 -22 -20 -25 -31 -21 -65 6 -59 166 -381 210 -423 l35 -33 -19
-42 c-10 -22 -19 -53 -19 -67 0 -63 97 -351 156 -459 15 -27 43 -60 64 -74 21
-14 40 -36 44 -51 10 -39 53 -100 90 -129 39 -29 105 -48 154 -44 28 2 39 -2
47 -17 34 -67 82 -94 294 -165 123 -41 168 -48 201 -30 12 7 32 5 65 -6 30
-11 66 -15 103 -12 43 4 65 1 92 -13 19 -11 46 -19 60 -19 22 0 28 -7 38 -46
37 -138 134 -285 202 -305 32 -10 40 -17 40 -36 0 -22 -3 -23 -74 -23 -56 0
-75 4 -80 15 -6 17 -106 22 -106 6 0 -18 -33 -21 -58 -5 -16 11 -57 18 -123
21 l-99 6 0 32 c0 17 -3 35 -6 38 -7 7 -79 -82 -79 -98 0 -5 -19 -13 -42 -17
-50 -8 -99 -32 -106 -52 -10 -25 -130 -76 -248 -106 -63 -16 -190 -39 -284
-51 -93 -12 -176 -26 -182 -31 -7 -6 -13 -23 -13 -39 0 -24 4 -28 33 -32 17
-2 -2 -4 -43 -5 l-75 -2 -2 36 c-1 20 -3 38 -5 40 -2 2 -89 10 -193 19 -250
20 -347 36 -455 76 -122 45 -155 126 -68 170 41 21 42 18 4 -34 l-20 -27 20
-28 c38 -52 149 -89 345 -117 125 -17 369 -21 369 -5 0 6 7 10 16 10 8 0 12 5
9 10 -3 6 -34 10 -67 10 -117 0 -52 7 112 13 103 3 150 2 125 -3 -22 -5 -60
-9 -85 -10 -25 -1 -39 -4 -32 -7 6 -2 9 -10 6 -15 -11 -18 296 -2 406 21 104
21 158 38 243 75 93 42 83 55 -18 25 -69 -20 -239 -37 -357 -36 -70 1 -125 3
-123 5 2 2 54 15 117 28 242 51 423 122 401 157 -4 6 0 8 10 4 10 -3 17 -2 17
2 0 5 -29 20 -63 34 -150 60 -476 95 -725 78 -78 -6 -147 -13 -152 -16 -6 -4
-13 8 -16 25 -7 31 -7 31 -63 28 -52 -3 -56 -5 -59 -29 -3 -24 -12 -28 -130
-63 -184 -54 -172 -52 -172 -24 0 35 -18 48 -66 48 -67 0 -74 -6 -74 -61 l0
-48 -73 1 c-94 1 -137 -19 -137 -63 0 -16 -6 -31 -12 -34 -7 -2 -62 -23 -123
-45 -60 -23 -175 -67 -255 -97 -226 -85 -293 -113 -319 -137 -23 -21 -23 -23
-17 -156 6 -125 9 -137 31 -156 13 -12 29 -24 35 -26 8 -2 17 -65 26 -176 7
-94 32 -392 54 -660 22 -269 40 -496 40 -504 0 -9 -14 -21 -31 -29 -18 -7 -45
-23 -60 -37 -24 -20 -29 -31 -29 -70 0 -95 10 -121 49 -141 62 -31 109 -37
546 -66 553 -36 2058 -139 2340 -161 110 -8 443 -32 740 -54 297 -22 659 -50
805 -62 231 -19 353 -22 957 -25 l692 -4 128 74 c255 147 508 299 522 312 9 9
16 43 19 93 l4 79 -37 31 -38 30 11 124 c16 171 48 617 71 966 l19 292 30 28
c28 26 30 32 36 142 12 204 12 208 -14 235 -27 29 -84 41 -230 50 -58 3 -144
11 -192 16 -87 10 -137 1 -123 -22 4 -5 -4 -9 -17 -9 -18 0 -183 -47 -197 -56
-1 -2 9 -18 23 -37 28 -36 32 -63 15 -87 -9 -12 -10 -12 -5 4 9 28 -19 66 -45
61 -16 -3 -19 0 -15 13 4 9 -5 2 -20 -16 -59 -75 -267 -145 -519 -176 -71 -9
-151 -19 -176 -22 l-46 -5 1 -42 c1 -40 3 -42 36 -48 20 -4 -7 -7 -65 -7 -55
0 -94 2 -87 5 15 6 16 59 1 69 -8 4 -7 9 2 15 9 5 -11 9 -52 9 -128 0 -506 36
-626 59 -29 6 -59 8 -67 5 -8 -3 -17 -1 -21 5 -3 6 0 11 7 11 7 1 -14 12 -47
26 -94 39 -160 83 -180 121 -18 33 -18 36 0 89 10 30 22 54 26 54 5 0 18 18
29 41 25 48 15 69 -31 69 -34 0 -38 15 -9 30 29 15 142 9 148 -8 3 -11 0 -12
-19 -2 -20 10 -22 10 -12 -1 10 -10 7 -16 -17 -31 -17 -10 -30 -26 -30 -37 0
-11 -4 -23 -10 -26 -5 -3 -15 -15 -21 -26 -9 -18 -8 -19 8 -10 10 6 36 18 58
26 l40 16 -28 -29 c-39 -41 -36 -82 9 -128 21 -20 28 -31 16 -25 -39 21 -64
63 -60 103 4 45 -3 47 -31 12 -29 -37 -27 -87 4 -123 85 -94 426 -180 737
-184 278 -3 534 9 648 32 219 44 337 99 347 162 4 24 -14 24 -55 -1 -39 -24
-42 -24 -42 -5 0 8 -6 12 -12 10 -7 -2 -88 -6 -180 -8 l-167 -3 67 17 c349 89
359 93 319 139 -19 22 -19 22 9 -2 30 -28 51 -37 39 -18 -3 5 0 7 8 4 8 -3 21
1 28 9 8 7 32 17 54 20 22 4 46 14 52 24 7 9 13 13 13 7 1 -29 20 28 20 59 0
34 -4 40 -35 53 -38 16 -147 19 -173 5 -12 -6 -39 -4 -77 5 -83 19 -315 54
-361 54 -33 0 -44 7 -88 55 l-50 56 -2 169 -1 168 -32 51 c-36 56 -106 107
-158 117 -19 4 -55 4 -81 1 -40 -5 -51 -2 -73 19 -26 24 -170 92 -249 116 -34
11 -40 17 -40 41 0 63 -86 175 -182 238 -147 94 -312 87 -423 -20 l-40 -39
-92 0 c-59 -1 -105 -6 -125 -16 -44 -19 -128 -30 -128 -17 0 6 4 11 9 11 30 0
240 179 279 238 13 21 20 22 66 17 39 -4 59 -2 83 12 18 10 64 36 103 57 161
89 235 257 196 446 -24 112 -77 191 -186 275 -63 49 -91 96 -72 125 17 28 -38
131 -83 156 -11 6 -28 27 -37 46 -21 43 -137 151 -212 196 -77 47 -199 98
-292 123 -91 24 -332 34 -424 18z m252 -264 c94 -20 138 -34 138 -46 0 -5 -18
-32 -40 -61 -37 -49 -96 -175 -87 -184 2 -3 12 17 22 43 31 84 106 192 133
193 42 0 197 -127 255 -209 27 -40 31 -52 32 -130 2 -47 8 -99 14 -115 9 -22
8 -45 -4 -102 -21 -104 -18 -247 9 -384 16 -84 20 -125 14 -153 -11 -48 -60
-114 -118 -158 -25 -19 -49 -39 -55 -46 -5 -7 -50 -32 -98 -57 -48 -24 -83
-47 -77 -51 5 -3 10 -11 10 -18 0 -20 -37 26 -64 78 -14 28 -26 44 -26 37 0
-14 41 -94 65 -128 15 -20 14 -22 -27 -37 -195 -72 -431 -74 -610 -6 -110 43
-179 98 -243 194 -87 131 -134 245 -167 400 -18 90 -16 287 6 364 19 71 82
201 129 270 33 49 143 161 158 161 5 0 32 17 60 39 53 40 157 86 244 107 71
17 241 17 327 -1z m-1757 -268 c16 -29 25 -59 25 -88 0 -43 -1 -44 -32 -44
-18 0 -45 -4 -61 -8 -24 -6 -29 -4 -37 18 -19 50 -12 114 15 140 36 37 60 32
90 -18z m-145 -67 c4 -14 10 -46 14 -71 l7 -45 -45 -22 -46 -22 -11 21 c-6 11
-13 44 -16 73 -5 49 -3 54 23 75 35 28 66 24 74 -9z m2749 -73 c8 -11 5 -13
-19 -9 -25 3 -36 -2 -63 -32 -57 -61 -72 -121 -72 -281 0 -120 3 -150 23 -210
13 -38 33 -85 45 -102 21 -32 37 -42 37 -24 0 15 41 20 61 8 15 -9 25 -8 51 6
l33 19 -27 -25 c-22 -21 -35 -24 -70 -21 -30 3 -37 2 -23 -4 11 -5 27 -7 35
-4 12 4 12 2 -1 -13 -21 -21 -81 -23 -112 -2 -34 22 -74 85 -97 152 -20 56
-45 307 -33 327 2 5 6 16 8 25 8 46 59 139 91 169 29 28 43 34 78 34 24 0 48
-6 55 -13z m-2236 -75 c45 -32 48 -37 45 -75 -2 -30 -9 -44 -28 -56 -24 -15
-24 -15 -11 2 11 14 11 17 0 17 -8 0 -37 17 -64 38 -52 38 -54 44 -39 110 4
20 7 21 27 11 12 -7 44 -27 70 -47z m360 -198 c-25 -44 -28 -61 -31 -161 -3
-62 -1 -121 3 -130 5 -10 9 -22 10 -28 28 -124 82 -233 147 -298 l50 -50 -39
8 c-41 7 -124 55 -117 66 2 4 -4 23 -14 41 -48 88 -84 194 -89 265 -5 57 -9
73 -19 69 -9 -3 -14 2 -14 13 0 10 7 21 15 25 10 3 15 19 15 44 0 47 -8 57
-28 34 -11 -13 -11 -11 1 8 9 14 20 24 26 23 6 -2 11 4 11 12 0 29 31 76 63
95 17 11 32 18 34 16 2 -2 -9 -25 -24 -52z m-345 -200 c27 -19 44 -52 89 -168
94 -250 100 -271 83 -322 -12 -37 -63 -119 -80 -129 -11 -7 -51 12 -47 23 1 4
-6 28 -17 52 -23 56 -32 79 -41 105 -7 19 -8 19 -14 2 -5 -13 -11 -4 -25 36
-10 30 -15 60 -12 66 4 6 4 11 -1 10 -22 -4 -33 3 -33 22 0 11 -4 17 -10 14
-5 -3 -10 -2 -10 4 0 5 5 13 10 16 6 3 10 2 10 -4 0 -6 6 -8 14 -5 15 6 10 44
-6 44 -5 0 -19 -7 -31 -14 -31 -21 -133 -46 -184 -46 -41 0 -43 -1 -43 -31 0
-17 4 -28 10 -24 9 6 14 -8 11 -28 -1 -5 7 -25 18 -45 10 -20 29 -59 41 -87
58 -136 96 -204 115 -208 11 -2 -6 -5 -38 -6 -128 -3 -175 61 -286 395 -35
103 -41 197 -16 230 13 18 14 16 15 -25 0 -61 52 -113 131 -131 51 -11 64 -11
125 8 136 42 220 125 207 206 -3 20 -10 36 -14 36 -5 0 -9 5 -9 10 0 14 12 12
38 -6z m1882 -331 c0 -27 17 -29 50 -6 l24 17 -22 -31 c-49 -68 -180 -167
-307 -230 -71 -36 -105 -47 -105 -36 0 17 17 33 38 36 12 2 28 9 34 15 7 7 18
12 25 12 8 0 16 6 19 14 3 8 16 17 30 20 13 4 38 20 56 36 18 16 44 38 57 50
13 11 20 20 16 20 -4 0 6 13 23 30 18 17 34 44 38 66 7 38 24 30 24 -13z m562
-140 c76 -37 141 -92 180 -152 28 -44 39 -80 15 -51 -7 8 -24 23 -39 32 -23
15 -32 16 -76 5 -94 -25 -196 -104 -244 -188 -17 -30 -27 -39 -47 -38 -25 1
-25 1 -3 7 29 9 79 92 55 92 -21 0 -99 45 -141 82 -24 21 -43 28 -72 28 -34 0
-40 -3 -40 -22 0 -43 40 -106 87 -137 51 -34 48 -43 -3 -12 -48 29 -86 85 -91
134 -22 196 211 318 419 220z m-434 -91 c9 -6 5 -14 -14 -31 -89 -77 -109
-298 -44 -474 17 -44 17 -47 2 -45 -10 2 -21 8 -25 13 -5 6 -7 0 -4 -12 3 -13
2 -23 -2 -23 -7 0 -23 31 -59 110 -11 24 -11 24 -5 -5 6 -29 31 -94 55 -142 6
-13 8 -26 5 -30 -4 -3 -7 1 -7 11 0 9 -4 14 -10 11 -5 -3 -10 3 -10 15 0 13
-5 20 -12 17 -7 -2 -12 -10 -10 -16 1 -6 -4 -11 -10 -11 -12 0 -38 -22 -130
-106 -20 -19 -40 -34 -44 -34 -3 0 -19 -9 -35 -20 -39 -28 -73 -27 -145 4 -34
14 -97 31 -140 37 -44 7 -82 17 -86 23 -6 8 -8 8 -8 0 0 -15 -150 -49 -159
-37 -9 14 -63 53 -72 53 -4 0 -10 -9 -14 -19 -3 -11 -11 -18 -18 -15 -18 7
-53 98 -71 184 -26 118 -45 133 -54 41 -7 -73 13 -141 85 -290 35 -73 62 -136
59 -138 -7 -8 -64 75 -92 135 -69 146 -86 263 -59 409 9 51 23 100 31 110 12
17 13 17 14 1 0 -12 8 -18 21 -18 18 0 19 -2 9 -15 -9 -10 -9 -15 -1 -15 6 0
11 -8 11 -17 0 -12 7 -6 21 16 16 26 25 32 42 27 12 -3 32 -6 45 -6 12 0 22
-4 22 -10 0 -5 -7 -10 -15 -10 -8 0 -15 -6 -15 -13 0 -9 11 -12 35 -9 38 5 45
15 18 31 -36 21 4 10 51 -14 27 -14 61 -25 76 -25 14 0 31 -5 38 -12 9 -9 12
-9 12 0 0 7 13 12 29 12 50 0 149 36 219 81 47 30 77 42 102 42 32 -1 33 -1 7
5 l-28 7 57 55 c40 38 50 45 36 23 -29 -41 -28 -44 8 -32 17 6 30 15 30 21 0
5 -5 6 -12 2 -7 -4 -8 -3 -4 4 4 7 18 12 31 12 13 0 39 9 58 20 19 12 39 20
43 19 16 -4 79 29 98 50 17 18 17 21 3 27 -9 3 -43 4 -76 2 -57 -3 -70 4 -26
15 34 8 129 7 143 -1z m-1693 -13 c100 -26 262 -82 277 -96 9 -8 18 -22 21
-32 3 -15 -1 -14 -42 6 -59 29 -60 28 -58 -4 3 -31 35 -53 79 -53 15 0 34 -8
44 -17 22 -22 4 -29 -38 -14 -17 6 -33 10 -34 8 -2 -2 12 -20 31 -42 35 -38
35 -38 14 -53 -17 -12 -30 -13 -66 -5 -36 9 -46 8 -50 -3 -6 -16 -69 -19 -78
-4 -3 6 -18 10 -32 10 -15 0 -42 5 -60 12 -27 10 -33 17 -29 33 28 110 13 206
-34 230 -59 31 -25 46 55 24z m2505 -243 c107 -47 148 -71 138 -81 -3 -3 -17
-1 -32 5 -45 17 -83 12 -115 -16 -17 -14 -31 -22 -31 -18 0 5 -7 -2 -16 -14
-8 -12 -28 -28 -43 -36 -15 -8 -40 -38 -56 -68 -15 -29 -29 -55 -31 -56 -1 -2
-53 20 -113 49 -124 58 -122 55 -76 134 34 59 85 103 151 131 73 31 92 28 224
-30z m-2678 -164 c30 3 44 2 36 -3 -11 -7 -10 -11 2 -19 8 -5 20 -10 27 -10 7
0 40 -13 75 -30 73 -34 169 -63 216 -64 28 -1 30 -3 15 -13 -35 -26 -101 -13
-298 60 -110 40 -165 70 -165 88 0 6 9 5 21 -2 12 -6 44 -9 71 -7z m3006 -8
c59 -30 107 -80 135 -143 16 -36 19 -60 15 -128 -6 -111 -17 -120 -61 -50 -46
71 -91 107 -171 133 -84 29 -148 26 -209 -10 -26 -16 -47 -32 -47 -37 0 -5 -6
-9 -12 -9 -7 -1 -26 -28 -41 -61 -16 -34 -31 -58 -34 -55 -10 10 17 125 47
199 29 71 82 133 103 120 6 -3 7 -1 3 6 -5 7 11 20 46 36 74 34 156 34 226 -1z
m-724 -240 c21 -23 64 -49 134 -79 56 -25 109 -45 117 -45 26 0 26 -20 0 -54
-14 -18 -32 -54 -41 -80 -9 -25 -19 -48 -23 -50 -4 -3 -31 -8 -59 -12 l-52 -7
0 30 c0 41 -21 55 -81 55 -60 0 -71 -8 -74 -59 -1 -21 -3 -41 -4 -45 0 -3 -34
-4 -73 -1 -95 7 -145 -12 -155 -58 l-6 -31 -56 7 c-31 4 -58 8 -59 10 -2 2 1
20 8 40 9 28 22 40 58 58 84 40 181 196 222 354 l11 42 51 -20 c29 -11 66 -36
82 -55z m727 -66 c52 -24 179 -130 179 -149 0 -15 -20 -10 -53 13 -18 12 -29
18 -25 13 5 -4 -6 -17 -23 -27 -28 -17 -33 -18 -48 -4 -28 26 -76 20 -101 -11
-13 -17 -24 -23 -28 -17 -23 36 -87 43 -125 14 l-25 -20 -6 23 c-14 52 -6 113
19 147 14 19 31 38 37 42 24 17 142 2 199 -24z m-3338 -221 c20 -9 37 -21 37
-27 0 -6 -21 -21 -47 -33 -44 -20 -64 -22 -233 -22 -145 0 -191 3 -214 15 -58
30 -38 53 64 76 81 19 343 13 393 -9z m-1459 -226 c-5 -5 -40 -19 -79 -30 -99
-30 -275 -118 -275 -136 0 -9 12 -20 26 -25 22 -9 202 -25 532 -47 51 -3 90
-9 87 -12 -3 -3 -45 -5 -93 -4 -48 0 -67 -1 -42 -3 25 -2 81 -9 125 -14 94
-12 699 -51 759 -49 39 1 38 2 -14 10 -30 4 -140 13 -245 21 -104 7 -176 14
-160 16 17 2 136 -3 265 -12 129 -8 321 -20 425 -26 228 -14 463 -37 388 -39
-87 -2 -68 -18 30 -24 509 -35 725 -49 917 -63 124 -8 315 -19 425 -24 110 -5
236 -11 280 -14 52 -4 71 -2 55 3 -14 5 -50 10 -80 11 -30 1 -46 5 -35 7 27 7
709 -35 815 -50 l85 -12 -85 -5 -85 -5 130 -8 c72 -5 193 -12 270 -18 160 -10
211 -11 203 -4 -3 3 -32 9 -64 14 -75 11 239 4 406 -9 599 -47 668 -40 835 82
33 24 78 55 100 68 22 13 108 68 190 122 83 55 134 85 115 69 -36 -31 -31 -38
15 -21 17 7 24 7 20 0 -13 -21 15 -8 81 39 84 59 101 78 86 93 -6 6 -82 17
-168 24 -86 7 -159 16 -162 19 -7 7 31 6 182 -5 129 -9 176 -24 176 -54 0 -22
-626 -458 -700 -486 l-45 -18 -7 -108 c-4 -60 -10 -114 -13 -121 -2 -7 -19
-13 -38 -13 -31 0 -33 2 -31 28 2 15 5 66 7 115 l5 87 -112 0 c-61 0 -212 7
-336 15 -357 24 -661 44 -850 55 -96 6 -236 15 -310 20 -74 5 -187 12 -250 15
-63 4 -207 13 -320 21 -113 7 -410 27 -660 44 -250 17 -651 44 -890 60 -239
17 -502 35 -585 40 -82 5 -206 14 -275 20 -69 5 -201 15 -295 20 -93 6 -224
15 -290 20 -117 9 -220 14 -575 26 -96 3 -179 7 -185 7 -13 2 -18 -106 -8
-157 l8 -38 60 -4 c33 -2 96 -9 140 -15 44 -6 125 -17 180 -24 l100 -14 -130
5 c-215 9 -408 23 -448 34 -57 17 -65 38 -69 178 -3 114 -2 124 17 135 23 14
137 59 324 127 74 27 136 52 139 55 3 3 8 3 11 0 2 -3 0 -9 -5 -14z m3094
-209 c20 -7 14 -26 -17 -56 -28 -27 -30 -28 -107 -19 -46 5 -79 13 -81 20 -3
7 8 24 23 38 25 24 35 26 99 24 38 -1 76 -4 83 -7z m-1940 -424 c32 -16 52
-34 65 -59 16 -33 16 -39 2 -71 -8 -20 -39 -58 -70 -85 -55 -50 -60 -63 -21
-63 36 0 83 -36 102 -79 11 -22 25 -41 32 -41 10 0 62 95 62 115 0 3 21 55 47
116 42 101 49 110 70 106 13 -2 31 2 40 9 10 7 26 14 36 14 9 0 17 5 17 10 0
6 5 10 10 10 6 0 10 -9 10 -20 0 -11 4 -28 9 -38 5 -9 15 -55 21 -102 19 -132
27 -160 51 -160 15 0 19 -5 16 -15 -4 -8 -2 -17 2 -20 5 -2 14 17 21 43 27
108 114 213 205 248 86 32 169 -10 167 -86 -1 -48 -22 -102 -37 -96 -7 2 -16
-2 -19 -10 -5 -14 -8 -14 -21 0 -8 8 -18 29 -21 45 -9 42 -34 40 -79 -4 -47
-47 -76 -107 -82 -169 -4 -43 -1 -56 18 -80 19 -24 27 -28 60 -23 20 3 64 23
98 46 34 23 61 40 61 37 0 -3 -4 -16 -10 -30 -12 -32 1 -33 34 -3 22 19 28 41
51 174 27 167 41 209 61 192 9 -7 15 -5 22 7 6 10 16 15 26 11 9 -4 16 -2 16
3 0 19 15 10 27 -15 9 -20 8 -40 -3 -92 -7 -37 -13 -68 -11 -69 1 -2 32 22 67
53 103 88 168 135 178 129 5 -3 20 6 32 19 13 14 28 25 34 25 5 0 -4 -15 -22
-33 -36 -37 -41 -53 -13 -37 27 14 36 13 22 -4 -6 -7 -9 -20 -6 -28 5 -14 -34
-56 -115 -122 -19 -16 -54 -46 -78 -68 l-43 -39 97 -120 c53 -66 99 -118 101
-115 2 2 -1 13 -8 23 -12 20 -4 102 8 89 3 -3 12 -1 20 5 7 6 13 8 13 4 0 -4
6 -3 13 3 10 9 16 4 26 -23 8 -23 21 -37 37 -41 58 -15 149 22 149 61 0 12
-30 33 -95 66 -111 58 -139 82 -146 130 -7 45 24 92 96 142 60 40 148 65 194
53 41 -10 76 -50 76 -86 0 -33 -27 -96 -37 -86 -3 3 -12 -2 -19 -12 -8 -10
-13 -12 -14 -4 0 6 -7 12 -15 12 -10 0 -15 10 -15 30 0 35 -11 37 -70 14 -41
-17 -69 -50 -53 -64 4 -4 41 -25 82 -46 41 -22 94 -57 118 -80 35 -33 43 -47
43 -77 0 -57 -63 -116 -167 -156 -74 -28 -147 -42 -130 -24 7 6 -84 53 -92 47
-2 -1 18 -30 44 -63 25 -34 44 -61 42 -61 -2 0 -28 18 -57 40 -57 43 -85 53
-55 20 26 -28 13 -34 -19 -9 -22 17 -36 20 -74 16 -42 -5 -44 -5 -19 5 15 7
27 15 27 20 0 4 -24 31 -53 60 -29 29 -73 76 -98 105 l-46 51 -11 -46 c-6 -26
-14 -68 -18 -95 -3 -26 -11 -50 -17 -54 -6 -4 -8 2 -5 15 4 12 3 22 -2 22 -8
0 -25 -40 -33 -75 -3 -11 -5 -5 -6 15 -1 19 -6 42 -11 50 -9 13 -11 13 -21 0
-8 -11 -9 4 -6 58 l4 74 -66 -65 c-68 -66 -127 -107 -153 -107 -32 0 -107 41
-137 75 -17 20 -36 56 -42 80 -13 51 -22 61 -37 42 -7 -9 -6 -35 4 -87 17 -89
17 -89 3 -70 -8 11 -9 1 -6 -40 l5 -55 -16 38 c-9 23 -20 36 -28 33 -7 -3 -17
7 -23 22 -7 20 -10 22 -10 8 -2 -33 -14 -9 -31 61 -22 92 -38 93 -42 1 -2 -40
-7 -72 -12 -70 -6 1 -10 14 -11 30 -5 109 -1 101 -42 95 -21 -3 -41 -8 -44
-12 -4 -3 1 -30 11 -59 20 -60 8 -81 -15 -26 -12 29 -18 34 -29 25 -8 -7 -17
-23 -20 -36 -4 -14 -13 -25 -20 -25 -8 0 -20 -13 -28 -30 -17 -38 -24 -38 -32
2 -6 30 -7 31 -21 12 -14 -18 -14 -18 -14 6 0 14 6 42 13 63 8 21 10 40 5 43
-5 3 -6 11 -3 17 4 7 -17 -11 -47 -40 -30 -28 -85 -72 -124 -97 -38 -25 -63
-46 -55 -47 8 0 -16 -16 -54 -35 -76 -37 -80 -39 -71 -24 3 6 -1 10 -9 10 -9
0 -18 -12 -22 -27 -10 -46 -12 -49 -13 -19 -1 24 -3 27 -16 16 -10 -8 -15 -31
-15 -71 0 -33 -4 -59 -10 -59 -5 0 -9 8 -8 18 6 71 -14 126 -25 70 l-4 -23 -8
23 c-4 12 -8 22 -9 22 -1 0 -16 -4 -34 -9 -20 -6 -32 -6 -32 0 0 5 5 9 10 9 6
0 10 5 10 10 0 6 -9 10 -20 10 -20 0 -20 1 -3 27 18 26 17 27 -2 20 -19 -7
-19 -6 1 10 12 10 36 26 54 35 39 22 38 52 -2 56 -34 4 -68 46 -68 84 0 39 40
78 80 78 16 0 30 5 30 10 0 6 -7 10 -15 10 -14 0 -20 24 -16 58 1 6 -4 12 -11
12 -7 0 1 10 19 21 26 16 34 30 42 72 17 89 19 118 7 113 -96 -38 -116 -44
-121 -36 -3 6 -1 10 4 10 6 0 11 7 11 15 0 20 -19 19 -87 -5 -79 -28 -79 -25
0 16 37 19 67 39 67 45 0 5 -4 7 -10 4 -21 -13 -9 13 13 27 36 24 155 69 221
84 87 20 204 12 264 -18z m-1419 -268 c33 -377 60 -707 66 -820 4 -58 8 -116
11 -128 3 -13 1 -21 -4 -18 -5 3 -12 34 -15 68 -21 215 -29 305 -51 588 -29
372 -40 557 -33 550 3 -3 14 -111 26 -240z m3891 213 c0 -4 7 -57 15 -118 9
-60 18 -129 21 -152 4 -33 9 -42 27 -45 15 -2 21 -9 19 -20 -6 -36 16 -16 33
30 53 140 200 262 317 262 65 0 95 -14 114 -52 14 -31 14 -37 -4 -83 -14 -34
-25 -49 -36 -47 -9 2 -16 -2 -16 -8 0 -6 -7 -6 -20 2 -12 8 -20 24 -20 40 0
71 -119 2 -192 -111 -51 -80 -32 -181 33 -181 44 0 129 47 129 72 0 4 -20 8
-45 8 -33 0 -45 4 -46 15 -4 67 -4 69 30 76 17 4 75 10 128 14 l95 7 -5 -33
c-3 -19 -18 -72 -35 -119 -16 -47 -38 -112 -47 -145 -14 -45 -20 -55 -25 -40
-7 19 -7 19 -17 0 -6 -11 -14 -35 -18 -53 -9 -45 -24 -31 -18 18 6 40 -10 57
-21 23 -3 -10 -4 6 -2 35 2 28 1 52 -1 52 -2 0 -21 -11 -43 -25 -48 -30 -73
-33 -121 -12 -77 34 -129 99 -129 162 0 20 -5 25 -23 25 -23 0 -24 -1 -15 -57
4 -32 10 -68 13 -80 6 -27 -11 -31 -19 -5 -3 9 -4 -9 -1 -40 4 -63 -9 -79 -19
-23 -4 22 -11 32 -20 29 -7 -3 -18 5 -24 18 -6 13 -11 17 -11 11 -1 -7 -5 -13
-10 -13 -5 0 -12 21 -16 48 -14 100 -8 95 -89 87 -39 -4 -78 -11 -86 -15 -9
-5 -29 -36 -45 -69 -16 -34 -31 -57 -35 -52 -9 15 -25 0 -49 -44 -21 -38 -22
-39 -17 -10 5 33 -11 71 -21 48 -2 -7 -8 -13 -13 -13 -5 0 2 26 15 58 18 43
21 59 12 67 -16 13 -20 55 -6 55 8 0 8 4 0 14 -13 15 4 26 38 26 16 0 41 43
139 242 2 4 -9 6 -25 3 -15 -2 -65 -9 -110 -16 -46 -6 -83 -14 -84 -18 -3 -36
-107 -418 -108 -396 -2 29 -2 29 -17 10 -9 -11 -25 -38 -36 -60 l-19 -40 6 47
c7 51 -1 80 -16 57 -4 -7 -10 -11 -13 -8 -7 7 10 125 35 239 11 52 22 106 25
119 6 26 18 26 -118 4 -37 -5 -41 -4 -34 12 4 11 2 22 -6 26 -9 6 -9 11 1 22
9 12 9 16 -1 20 -10 4 -10 8 3 21 10 11 47 20 105 28 49 6 95 16 102 21 15 11
232 20 276 11 28 -6 29 -7 11 -20 -17 -13 -17 -14 0 -20 15 -6 13 -9 -11 -19
l-29 -12 38 -4 c35 -5 39 -3 59 33 16 28 26 37 40 32 18 -5 84 13 103 28 11
10 25 10 25 1z m1106 -108 c9 -9 25 -14 35 -12 11 3 21 1 24 -3 3 -5 -15 -12
-39 -15 -48 -8 -85 -34 -50 -36 40 -1 -22 -17 -92 -23 -172 -16 -172 -16 -177
-39 -3 -12 -9 -32 -13 -45 -7 -23 -5 -23 57 -22 35 1 80 1 99 0 32 -1 33 -2
15 -12 -19 -12 -19 -12 5 -18 25 -7 25 -7 -10 -23 -26 -11 -30 -16 -15 -17
l20 -1 -20 -9 c-11 -4 -59 -11 -107 -15 l-86 -7 -12 -42 c-6 -22 -11 -45 -11
-50 1 -5 70 -8 154 -7 88 1 158 -3 167 -9 11 -7 7 -10 -20 -10 -64 -1 -10 -20
60 -21 64 -2 60 -3 -47 -15 -54 -6 -74 -24 -26 -24 14 0 24 -2 22 -4 -2 -2
-76 -10 -164 -16 -88 -7 -172 -18 -187 -25 -20 -10 -28 -10 -31 -1 -3 6 -9 0
-15 -14 -7 -17 -11 -19 -11 -8 -1 11 -11 18 -33 20 -22 2 -32 9 -35 23 -13 70
-12 73 11 79 18 4 27 18 39 58 11 39 12 56 3 63 -18 16 -8 73 15 80 20 7 30
25 43 78 5 22 3 27 -13 27 -24 0 -36 16 -20 26 8 5 8 8 0 13 -19 12 11 58 49
74 24 11 71 16 149 16 63 1 117 4 120 7 13 13 130 -4 147 -21z m-4631 -215 c3
-11 3 -29 0 -40 -6 -19 -3 -20 34 -14 37 6 41 5 41 -15 0 -12 -11 -32 -23 -45
-21 -20 -31 -23 -73 -19 -27 3 -67 9 -89 14 -24 5 -44 4 -49 -2 -12 -11 -63
-12 -70 -1 -11 18 25 52 55 52 33 0 37 15 12 42 -16 17 -16 20 0 36 16 15 20
15 44 2 15 -9 30 -26 33 -38 8 -34 25 -26 22 10 -3 40 14 61 38 48 10 -6 22
-19 25 -30z m339 -70 c22 -39 42 -70 45 -70 3 0 24 32 46 70 22 39 46 70 53
70 9 0 12 -28 12 -105 0 -63 -4 -105 -10 -105 -6 0 -10 35 -10 85 0 47 -3 85
-7 85 -5 0 -22 -26 -39 -58 -17 -31 -37 -58 -45 -59 -8 -2 -29 23 -49 59 l-35
61 -3 -122 -3 -121 -72 6 c-97 8 -97 8 -97 50 l0 37 70 -7 c64 -6 70 -5 70 13
0 15 -11 20 -70 27 -39 5 -72 14 -73 19 -1 6 29 11 71 13 52 2 72 7 72 16 0
10 -21 16 -70 21 l-70 7 0 35 0 35 70 -4 c39 -2 70 0 70 5 0 4 8 7 18 7 11 0
31 -25 56 -70z m-413 -100 c20 0 50 5 67 11 52 18 95 -20 57 -51 -8 -7 -15
-20 -15 -30 0 -13 -6 -16 -25 -12 -18 3 -30 -1 -39 -14 -14 -18 -15 -18 -59 4
-24 12 -56 22 -70 22 -30 0 -42 26 -28 63 12 31 30 38 56 21 11 -8 36 -14 56
-14z m2058 -175 c33 -10 69 -31 88 -50 33 -33 34 -35 19 -64 -16 -30 -57 -59
-141 -100 -38 -19 -45 -25 -30 -28 127 -26 185 -64 185 -121 0 -30 -8 -44 -50
-83 -56 -55 -115 -87 -245 -136 -61 -23 -77 -32 -50 -27 63 9 38 -2 -67 -30
-54 -15 -106 -29 -115 -32 -10 -2 0 4 22 15 35 18 36 20 10 14 -95 -20 -109
-27 -122 -68 l-11 -40 -1 38 c-1 35 -2 36 -21 25 -11 -7 -23 -28 -26 -48 -16
-100 -24 -114 -19 -37 4 71 3 78 -13 75 -9 -2 -19 -14 -21 -28 l-4 -25 -7 25
c-7 26 -14 27 -75 16 -28 -5 -29 -5 -11 9 13 9 42 15 80 15 34 0 81 7 106 16
25 9 108 34 184 55 134 38 300 98 293 106 -2 2 -34 -8 -72 -22 -60 -23 -69
-24 -84 -11 -10 9 -26 13 -39 9 -12 -3 -28 0 -36 6 -10 9 -36 5 -107 -14 -52
-14 -97 -25 -100 -25 -4 0 2 17 12 37 19 38 28 92 10 64 -7 -10 -21 -12 -55
-8 -51 7 -50 8 -61 -56 -5 -29 -3 -37 6 -32 7 5 10 3 7 -5 -4 -14 -19 -20 -98
-41 -37 -10 -42 -13 -25 -20 11 -4 14 -8 6 -8 -7 -1 -11 -7 -7 -16 4 -12 -3
-15 -32 -15 l-37 1 30 13 c27 11 28 13 11 23 -16 9 -15 11 11 21 15 6 43 15
62 20 34 8 35 10 58 97 12 50 25 100 29 113 5 18 2 22 -17 23 -23 0 -23 1 -4
9 17 7 17 9 3 9 -10 1 -18 5 -18 10 0 5 8 12 18 16 16 7 15 8 -3 15 -21 8 -22
8 35 29 20 7 31 25 53 86 l27 78 -37 -7 c-21 -4 -56 -10 -78 -13 -37 -5 -38
-4 -21 9 18 14 18 15 -5 21 l-24 7 30 25 c33 27 31 30 -12 15 l-28 -10 24 18
c13 9 67 27 120 39 83 19 119 22 266 19 126 -2 184 -8 224 -21z m871 -4 c41 4
111 8 155 7 l80 0 -50 -13 c-43 -11 -46 -13 -20 -15 26 -1 27 -3 10 -10 -30
-13 60 -12 210 1 71 6 145 8 172 3 32 -5 40 -9 26 -12 -34 -5 -27 -22 10 -23
29 -1 27 -3 -23 -19 -45 -15 -50 -19 -26 -19 19 -1 26 -5 20 -10 -5 -5 -64
-15 -132 -22 l-123 -12 -20 -38 c-10 -21 -19 -41 -19 -45 0 -4 39 -4 88 -1 48
4 96 2 107 -3 19 -8 19 -9 -3 -9 -29 -1 -19 -21 11 -22 20 -1 21 -2 2 -6 -11
-3 -31 -10 -45 -16 l-25 -10 25 -7 c18 -4 1 -9 -55 -14 -153 -13 -149 -11
-167 -64 -10 -25 -16 -48 -14 -50 2 -2 66 1 143 5 76 5 163 6 193 2 45 -5 48
-6 18 -8 -80 -3 -26 -29 66 -32 24 -1 7 -5 -39 -9 -44 -4 -93 -11 -109 -15
-21 -6 -27 -5 -22 4 4 6 16 11 27 11 11 0 17 5 14 10 -3 6 -15 10 -26 10 -12
0 -17 4 -13 11 5 8 -29 9 -122 4 -71 -4 -133 -8 -139 -9 -5 0 -9 4 -8 9 9 60
9 60 -25 63 -18 2 -30 8 -27 13 4 5 0 9 -8 9 -15 0 -37 -48 -37 -82 0 -20 -61
-53 -83 -45 -7 3 3 9 22 14 30 8 37 16 52 58 22 63 23 79 5 72 -16 -6 -17 28
-1 52 5 10 4 12 -3 7 -7 -4 -12 -4 -12 -1 0 3 16 13 35 20 27 12 37 24 46 56
10 33 10 42 0 49 -8 4 -10 13 -7 19 4 6 2 11 -4 11 -6 0 -8 5 -4 11 4 8 -3 9
-22 5 -16 -3 -59 -8 -95 -12 l-67 -6 -83 -219 c-46 -120 -85 -214 -87 -210 -2
5 7 35 18 67 12 33 27 78 35 102 l13 43 -58 -2 -58 -2 -33 -101 c-31 -94 -49
-135 -49 -109 0 6 27 91 61 189 81 237 79 228 43 221 -16 -3 -49 -9 -74 -12
-25 -3 -58 -8 -75 -11 -28 -5 -29 -4 -12 10 18 14 18 15 0 24 -17 10 -17 11 2
32 16 18 17 23 5 30 -22 14 23 27 141 40 57 7 109 16 114 20 14 11 58 17 70 9
6 -3 44 -2 85 2z m1010 -19 c19 -9 37 -26 39 -37 2 -11 8 -23 14 -27 17 -11
-28 -99 -47 -92 -9 3 -17 -3 -22 -18 l-7 -23 -9 24 c-7 19 -11 21 -22 11 -12
-9 -15 -6 -18 22 -4 41 -21 45 -92 23 -66 -21 -116 -58 -100 -75 6 -6 59 -29
117 -50 134 -50 221 -93 241 -122 18 -25 21 -74 6 -83 -5 -3 -10 -14 -10 -23
0 -10 -14 -23 -32 -31 -45 -20 -24 -24 68 -12 72 9 95 8 83 -3 -2 -2 -51 -9
-109 -15 -90 -10 -123 -19 -233 -65 -70 -29 -127 -57 -127 -62 2 -12 -142 -65
-161 -59 -15 5 -57 -10 -221 -79 -69 -29 -39 -5 38 30 42 20 74 38 71 41 -3 2
-79 -20 -169 -51 -156 -53 -201 -66 -168 -47 61 36 342 124 365 115 14 -6 16
-4 10 6 -6 10 -2 11 17 7 27 -7 172 40 323 104 l80 34 -45 3 c-24 2 -49 7 -55
11 -34 27 -64 19 -236 -54 -96 -41 -178 -75 -184 -75 -10 0 27 18 295 140 164
74 220 106 220 125 0 18 -48 42 -165 84 -158 56 -206 95 -191 155 9 38 68 90
142 127 117 58 229 74 294 41z m-1471 -14 c-1 -7 1 -20 5 -29 4 -9 -8 -58 -28
-115 -19 -54 -55 -160 -81 -234 -26 -74 -51 -139 -55 -144 -11 -11 3 44 29
118 12 33 18 63 14 67 -5 3 -25 10 -45 13 -46 8 -71 -15 -87 -82 -7 -26 -18
-67 -26 -92 -11 -37 -13 -40 -14 -18 -1 15 13 72 29 125 17 54 44 143 61 198
39 129 68 193 79 176 6 -11 15 -11 46 -1 22 7 46 16 54 21 21 11 21 11 19 -3z
m-2099 -64 c6 -6 10 -24 8 -40 -4 -35 -22 -39 -115 -29 l-63 7 0 37 c0 21 2
40 4 42 9 9 156 -7 166 -17z m-247 -98 c4 -6 6 -24 5 -41 -3 -29 -5 -30 -55
-33 -79 -5 -117 8 -121 42 -7 54 0 58 86 51 42 -4 80 -13 85 -19z m235 -12
c17 -5 22 -14 22 -40 0 -22 -6 -36 -15 -39 -47 -15 -51 -18 -30 -23 32 -7 45
-22 45 -54 0 -37 -14 -42 -102 -31 l-73 8 -3 38 -3 37 48 1 48 0 -45 17 c-41
16 -45 21 -48 55 l-3 37 68 0 c37 0 78 -3 91 -6z m-231 -94 c2 0 3 -19 3 -41
l0 -42 -82 7 c-44 4 -85 9 -90 12 -4 3 -8 20 -8 39 l0 34 58 3 c31 2 70 0 87
-4 16 -5 31 -8 32 -8z m4926 -56 c35 -6 37 -8 37 -45 l0 -39 -64 0 c-35 0 -78
3 -95 6 -27 6 -31 11 -31 39 0 17 3 35 7 38 8 9 96 9 146 1z m-13 -122 c43 -7
45 -8 45 -42 0 -31 -3 -35 -30 -38 -16 -2 -58 -1 -92 3 l-63 7 0 39 0 39 48
-1 c26 0 67 -4 92 -7z m-5396 -67 c-17 -43 41 -58 296 -80 97 -8 189 -19 205
-24 31 -10 277 -33 545 -52 85 -5 196 -14 245 -19 89 -9 89 -9 -30 -5 -66 3
-192 9 -280 15 -424 27 -641 39 -765 42 -133 3 -135 3 -138 -19 -5 -36 -40
-30 -50 9 -6 24 -16 34 -44 44 -34 11 -36 11 -42 -9 -3 -12 -6 -38 -6 -56 0
-63 -19 -19 -21 50 -3 76 2 86 45 105 40 17 47 17 40 -1z m6656 -26 c9 -15 1
-23 -52 -52 -35 -19 -185 -102 -334 -185 -149 -82 -299 -160 -333 -172 -33
-13 -62 -27 -62 -31 -1 -5 -3 -13 -4 -19 -1 -5 -3 -19 -4 -30 -1 -13 -8 -20
-21 -20 -16 0 -20 7 -20 33 l0 33 -272 17 c-150 9 -478 29 -728 44 -250 15
-436 29 -413 31 23 2 158 -4 300 -13 673 -41 794 -46 948 -40 88 3 174 8 190
11 25 3 27 2 10 -6 -14 -7 -6 -8 30 -4 28 4 82 21 120 39 70 32 215 120 215
131 0 3 -6 2 -12 -2 -7 -4 -11 -5 -8 -1 3 3 30 19 60 35 30 16 87 48 127 70
40 22 73 36 75 30 3 -9 126 49 163 78 19 14 19 16 3 28 -22 16 -23 27 -3 20 9
-4 20 -15 25 -25z m-1480 -8 c21 -6 25 -13 25 -41 0 -34 -1 -35 -45 -38 -25
-1 -65 1 -90 6 -36 6 -46 12 -48 30 -7 45 3 52 70 51 35 -1 74 -4 88 -8z m258
-23 c20 -20 15 -66 -8 -73 -31 -10 -158 6 -171 21 -6 8 -8 25 -5 39 6 24 9 25
89 25 51 0 88 -5 95 -12z m-1756 -36 c15 -4 -153 -7 -375 -7 -246 -1 -452 -6
-532 -14 -173 -16 -368 -46 -468 -71 -84 -21 -118 -36 -57 -26 126 22 505 68
619 75 75 5 285 9 466 9 l330 -1 -230 -13 c-260 -14 -445 -34 -589 -64 -114
-23 -113 -23 -100 -10 14 14 241 59 348 70 82 8 75 8 -59 5 -175 -5 -352 -23
-628 -66 -110 -16 -213 -29 -230 -27 l-32 4 47 22 c112 53 430 100 863 126 94
6 597 -4 627 -12z"/>
<path d="M3016 4905 c-35 -54 -51 -144 -51 -300 0 -82 3 -168 7 -190 l7 -40
-81 0 -82 0 -20 -35 c-43 -72 -17 -244 60 -409 20 -42 38 -71 41 -64 2 7 -5
25 -15 40 -11 15 -23 39 -26 53 -4 17 0 13 12 -11 10 -20 23 -44 31 -52 7 -9
10 -24 7 -34 -8 -26 74 -128 126 -155 66 -33 165 -31 243 6 119 56 147 61 315
58 175 -3 257 8 346 48 171 77 227 250 168 520 -25 115 -71 198 -125 226 -49
25 -130 18 -226 -21 -48 -19 -88 -35 -90 -35 -2 0 -4 35 -5 78 l-2 77 -5 -84
-6 -85 -100 -43 c-107 -47 -212 -78 -313 -91 -66 -9 -223 -5 -233 6 -15 15
-29 119 -29 210 0 113 21 243 49 307 22 50 21 57 -3 20z m800 -622 c3 -16 10
-49 16 -74 l11 -46 49 15 c58 16 81 6 61 -27 -10 -15 -9 -20 2 -25 18 -7 20
-37 3 -54 -9 -9 -8 -12 5 -12 10 0 17 -8 17 -20 0 -26 -77 -51 -91 -29 -7 11
-9 9 -9 -7 0 -17 -12 -24 -72 -42 -45 -13 -76 -18 -82 -12 -6 6 -14 4 -20 -4
-6 -8 -30 -17 -53 -21 -37 -6 -43 -4 -45 12 -2 26 -4 36 -12 55 -5 10 -6 23
-3 30 2 7 -2 20 -10 29 -27 32 5 57 81 64 23 2 32 20 17 30 -17 10 -13 43 7
54 15 9 15 10 -5 11 -19 0 -23 6 -23 29 0 27 4 31 58 46 31 9 62 18 67 20 21
7 25 4 31 -22z m-708 -158 c-2 -21 1 -36 8 -39 7 -3 14 -17 16 -32 3 -26 6
-27 58 -28 52 -1 55 -2 55 -26 0 -14 6 -31 13 -38 14 -16 16 -42 2 -42 -5 0 0
-10 11 -21 26 -26 11 -40 -41 -38 -19 1 -42 -1 -50 -5 -9 -3 -56 -5 -105 -4
-90 3 -90 3 -93 31 -2 15 -8 27 -13 27 -5 0 -9 11 -9 24 0 14 -4 28 -10 31 -5
3 -10 15 -10 26 0 16 7 19 41 19 32 0 39 3 31 13 -6 7 -12 25 -14 39 -2 15 -7
30 -11 34 -9 9 -9 49 0 57 3 4 33 7 66 7 l59 0 -4 -35z"/>
<path d="M3280 3700 c-8 -5 -10 -10 -5 -10 6 0 3 -4 -5 -10 -12 -7 -11 -10 5
-15 11 -4 31 -12 44 -18 l23 -12 -23 -6 c-21 -6 -21 -7 7 -8 18 -1 34 -7 37
-15 4 -9 32 -16 86 -20 45 -4 81 -12 81 -17 0 -6 7 -3 16 6 10 10 19 12 23 7
4 -6 31 -7 71 -2 70 9 77 11 128 30 30 11 32 14 19 27 -13 13 -24 12 -93 -8
-140 -39 -306 -30 -337 19 -5 7 -20 17 -34 23 -21 8 -23 12 -13 24 10 12 10
15 -1 15 -8 0 -21 -5 -29 -10z"/>
<path d="M205 2239 c-8 -24 4 -197 14 -203 3 -2 21 -7 39 -11 l32 -7 0 89 c0
113 -5 129 -42 142 -39 14 -36 15 -43 -10z"/>
<path d="M1607 1490 c-44 -8 -44 -8 -49 -40 -2 -20 2 -26 20 -28 30 -5 28 -22
-3 -22 -24 0 -25 -3 -25 -54 0 -30 4 -57 8 -60 10 -6 63 20 77 38 6 7 24 20
41 29 17 9 37 23 45 33 13 16 11 17 -29 12 -37 -5 -41 -4 -31 9 8 9 26 13 53
11 39 -3 41 -2 44 28 3 30 0 32 -42 43 -49 12 -53 12 -109 1z"/>
<path d="M2469 1054 c-9 -3 -28 -34 -42 -70 l-26 -66 25 6 c52 13 191 67 223
87 22 13 30 24 24 30 -11 11 -177 21 -204 13z"/>
<path d="M2440 813 c-78 -8 -76 -6 -111 -113 -18 -54 -31 -102 -28 -104 9 -9
182 50 269 92 100 48 136 77 120 97 -21 25 -145 39 -250 28z"/>
</g>
</svg>
