<?xml version="1.0" standalone="no"?>
<!DOCTYPE svg PUBLIC "-//W3C//DTD SVG 20010904//EN"
 "http://www.w3.org/TR/2001/REC-SVG-20010904/DTD/svg10.dtd">
<svg version="1.0" xmlns="http://www.w3.org/2000/svg"
 width="720.000000pt" height="544.000000pt" viewBox="0 0 720.000000 544.000000"
 preserveAspectRatio="xMidYMid meet">
<metadata>
Created by potrace 1.16, written by Peter Selinger 2001-2019
</metadata>
<g transform="translate(0.000000,544.000000) scale(0.100000,-0.100000)"
fill="#000000" stroke="none">
<path d="M3665 5419 c-144 -17 -318 -81 -443 -162 -90 -59 -230 -192 -238
-225 -8 -32 -32 -62 -50 -62 -7 0 -27 -26 -44 -57 -25 -48 -30 -65 -24 -96 11
-67 -12 -120 -76 -180 -78 -71 -111 -138 -117 -238 -10 -140 33 -280 105 -339
20 -17 88 -56 151 -88 94 -47 118 -64 138 -97 14 -22 44 -59 66 -82 22 -24 39
-44 36 -46 -2 -2 -31 -11 -64 -21 -75 -22 -129 -53 -177 -101 l-37 -38 -48 21
c-57 24 -148 42 -257 51 -76 6 -80 7 -87 33 -4 16 -3 40 3 55 9 24 1 52 -57
198 -83 210 -98 241 -143 288 -33 33 -35 40 -24 58 45 71 56 106 59 179 3 90
-6 117 -57 159 -27 22 -44 47 -55 84 -10 29 -27 70 -40 92 -12 22 -27 63 -34
90 -14 56 -85 287 -109 354 -21 59 -58 101 -88 101 -13 0 -39 -14 -59 -31 -47
-41 -46 -74 6 -236 66 -210 73 -233 66 -239 -3 -4 -21 2 -39 13 -67 40 -114
35 -154 -14 -11 -14 -40 -33 -64 -42 -33 -12 -48 -25 -64 -56 -11 -22 -25 -42
-31 -44 -5 -2 -25 -19 -42 -37 -56 -55 -53 -63 100 -359 28 -53 64 -105 87
-126 l40 -37 -16 -38 c-23 -54 -14 -135 29 -265 69 -209 154 -359 202 -359 7
0 20 -21 30 -47 37 -101 151 -180 246 -171 45 5 49 3 58 -23 5 -16 25 -38 43
-49 60 -36 347 -120 412 -120 14 0 36 5 49 11 15 7 45 7 87 2 36 -5 81 -6 101
-1 26 5 50 2 84 -11 l47 -18 29 -91 c36 -110 80 -180 133 -207 40 -21 65 -59
66 -102 0 -22 -4 -23 -64 -23 -48 0 -65 4 -70 15 -7 20 -89 20 -106 0 -16 -19
-39 -19 -59 -1 -10 9 -53 18 -116 23 l-100 8 0 42 c0 52 -19 73 -77 84 -71 14
-173 -9 -183 -42 -8 -24 -9 -24 -91 7 -159 60 -438 89 -703 73 -83 -5 -156
-10 -163 -11 -8 -2 -14 9 -16 25 -3 26 -5 27 -63 27 -59 0 -59 0 -59 -30 0
-24 -5 -31 -27 -36 -80 -18 -144 -35 -197 -54 -75 -26 -76 -26 -76 9 0 33 -14
41 -69 41 -53 0 -69 -16 -73 -75 -3 -47 -1 -50 22 -53 14 -2 31 -9 38 -14 8
-7 16 -7 26 1 11 9 12 7 9 -13 -4 -21 1 -26 44 -39 127 -42 344 -81 543 -99
19 -2 -57 -7 -170 -12 -170 -6 -226 -5 -328 9 -68 9 -125 15 -128 12 -10 -10
130 -58 213 -73 113 -21 456 -31 486 -15 15 8 41 9 85 3 105 -15 340 12 492
55 79 23 150 56 188 88 27 23 32 33 27 54 -4 14 -14 34 -22 44 -15 15 -15 17
0 17 21 0 46 -26 53 -56 28 -111 -193 -195 -613 -234 l-133 -12 0 -39 c0 -36
1 -38 38 -42 20 -2 0 -4 -44 -5 -81 -2 -81 -2 -77 22 3 13 0 32 -5 43 -9 17
-31 20 -194 31 -277 17 -440 52 -513 108 -18 14 -67 36 -108 49 -41 13 -88 30
-104 38 -28 15 -36 13 -224 -62 -106 -43 -261 -103 -344 -135 -83 -31 -161
-67 -174 -80 -23 -24 -23 -26 -16 -161 l7 -136 39 -26 c37 -24 39 -29 39 -76
0 -28 20 -296 45 -596 25 -300 48 -580 51 -622 l6 -76 -32 -13 c-18 -7 -46
-24 -61 -38 -24 -20 -29 -31 -29 -70 0 -26 3 -64 7 -86 5 -35 11 -41 57 -62
60 -27 50 -26 1276 -109 1331 -90 3003 -211 3275 -237 66 -6 391 -13 722 -15
l602 -4 4 43 4 43 1 -42 2 -43 90 0 90 0 128 74 c283 163 508 298 521 311 9 9
16 43 19 93 l4 79 -36 30 -37 30 21 259 c11 143 33 454 49 692 l30 432 29 29
c26 27 29 37 35 122 4 51 7 124 7 164 0 119 -7 122 -362 151 -188 15 -291 12
-243 -7 19 -7 19 -8 -3 -8 -12 -1 -58 -13 -102 -28 -80 -27 -80 -27 -61 -47
27 -30 41 -61 40 -88 0 -16 -2 -19 -7 -8 -4 8 -18 30 -31 47 l-24 33 -34 -40
c-76 -89 -278 -149 -641 -191 l-103 -11 3 -42 c3 -40 4 -41 43 -47 22 -4 -10
-6 -75 -6 -63 0 -105 2 -92 4 19 4 22 11 22 47 l0 43 -157 7 c-195 8 -315 20
-461 48 -62 11 -115 18 -119 15 -3 -3 -13 2 -24 11 -10 9 -40 26 -66 36 -65
25 -146 80 -167 110 -23 35 -20 67 9 106 26 36 72 66 83 56 3 -4 -7 -19 -21
-34 -32 -34 -35 -74 -7 -119 57 -95 420 -190 745 -195 467 -8 754 28 918 115
64 34 99 70 90 93 -6 17 -47 11 -73 -10 -27 -23 -40 -28 -34 -13 4 12 -3 13
-43 6 -106 -20 -226 -29 -600 -42 -18 -1 -16 -15 7 -44 11 -14 17 -29 14 -34
-3 -5 32 -9 77 -9 45 0 80 -2 78 -4 -10 -10 -270 -23 -334 -16 l-70 7 86 1 86
2 -18 52 c-9 29 -22 54 -28 56 -30 10 8 22 72 22 104 0 270 20 283 33 4 4 28
7 53 7 25 0 58 6 73 14 14 8 45 17 68 21 23 4 85 22 138 39 l95 32 -29 24
c-19 15 -22 20 -9 15 39 -15 71 -12 98 9 23 19 26 27 21 54 -5 26 -12 33 -40
38 -47 9 -44 28 4 21 27 -5 33 -4 22 4 -19 13 86 1 115 -13 19 -10 19 -10 2 8
-13 14 -36 20 -91 22 -40 2 -82 0 -92 -6 -13 -6 -53 -2 -134 14 -63 13 -168
29 -235 36 -131 13 -132 14 -189 96 -25 36 -25 41 -15 96 14 76 5 236 -16 275
-49 96 -127 145 -230 146 -57 0 -77 5 -110 26 -41 26 -123 63 -207 93 -38 14
-48 22 -48 40 0 31 -67 133 -118 178 -148 133 -362 141 -488 17 l-41 -40 -62
11 c-64 11 -95 7 -121 -15 -10 -9 -26 -11 -50 -6 l-35 8 55 17 c32 9 105 49
170 92 105 70 118 75 150 69 52 -11 108 -7 143 10 16 8 40 15 51 15 38 0 140
57 183 101 23 24 57 75 74 114 31 64 33 78 34 175 0 100 -2 109 -34 174 -19
39 -53 90 -76 115 -23 26 -47 56 -54 68 -13 26 -15 90 -2 97 18 11 -18 129
-49 161 -16 17 -35 46 -41 65 -39 114 -207 288 -366 379 -208 119 -421 160
-678 130z m276 -258 c81 -21 222 -85 279 -126 91 -67 153 -139 196 -229 l43
-91 -14 -65 c-8 -36 -14 -90 -15 -120 0 -30 -9 -79 -20 -107 -42 -112 -60
-207 -68 -369 -8 -145 -11 -164 -30 -184 -21 -23 -29 -50 -16 -50 4 0 13 8 20
18 12 16 13 15 14 -5 0 -13 5 -23 10 -23 26 0 5 -33 -45 -69 -87 -62 -375
-156 -375 -123 0 6 16 14 35 18 19 3 35 10 35 16 0 5 5 6 12 2 8 -5 9 -2 5 9
-5 13 -1 17 16 18 17 1 18 2 4 6 -10 3 -24 -1 -32 -7 -8 -6 -18 -9 -23 -6 -5
3 -23 1 -40 -4 -30 -8 -32 -7 -42 28 -5 20 -10 45 -10 55 0 9 -5 17 -11 17 -6
0 -8 -8 -5 -17 16 -59 17 -86 5 -94 -8 -5 -50 -9 -94 -10 -74 -2 -76 -3 -30
-9 46 -6 44 -7 -35 -10 -85 -3 -85 -3 -30 -10 75 -11 170 -12 170 -2 0 11 53
7 57 -5 9 -25 -243 -31 -370 -8 -129 23 -270 85 -354 156 -74 62 -144 196
-184 348 -15 60 -19 109 -19 255 0 176 1 183 32 276 17 52 54 132 81 178 96
160 294 301 482 345 39 9 79 18 90 21 40 10 202 -4 276 -23z m-2068 -319 c21
-23 47 -85 47 -112 0 -13 -10 -24 -27 -30 -16 -6 -36 -15 -45 -20 -43 -24 -48
-18 -68 85 -9 47 -8 51 18 72 33 28 54 29 75 5z m-127 -64 c11 -17 33 -131 28
-140 -5 -8 -71 -38 -84 -38 -14 0 -30 52 -30 99 0 48 14 71 50 84 23 8 28 8
36 -5z m1160 -111 c-55 -72 -70 -143 -71 -332 0 -78 5 -132 14 -155 30 -78 54
-127 78 -157 27 -38 18 -41 -35 -14 -63 32 -85 65 -97 145 -3 21 -8 42 -11 48
-13 20 -4 280 11 324 18 52 19 68 5 59 -5 -3 -10 -2 -10 3 0 6 6 12 14 15 8 3
24 24 37 46 21 39 34 47 72 50 16 1 15 -3 -7 -32z m-675 -25 c68 -44 83 -65
75 -106 -4 -20 -11 -38 -16 -41 -14 -9 -78 24 -99 51 -10 13 -22 20 -26 16 -4
-4 -5 4 -2 18 4 14 7 40 7 58 0 17 4 32 8 32 4 0 28 -13 53 -28z m2554 -80 c6
-4 30 -29 55 -56 39 -42 42 -47 20 -41 -14 4 -37 20 -52 36 -15 16 -34 29 -42
29 -21 0 -94 -78 -112 -118 -18 -43 -2 -63 45 -56 33 5 34 3 25 -34 -6 -22 -7
-22 -20 -4 -7 11 -27 22 -44 24 -26 4 -31 1 -39 -26 -38 -120 -39 -283 -2
-368 20 -48 42 -70 49 -50 2 7 8 12 13 12 6 0 7 -4 4 -10 -4 -6 2 -7 18 -1 18
7 24 6 24 -4 0 -8 -13 -17 -29 -20 -15 -4 -30 -11 -33 -16 -13 -21 -63 -9 -89
21 -34 41 -41 83 -39 230 1 69 3 159 3 202 1 76 1 76 43 116 23 22 53 56 67
75 36 52 105 82 135 59z m-2492 -336 c31 -29 85 -142 152 -320 l48 -128 -16
-52 c-15 -47 -91 -154 -110 -155 -5 -1 -5 4 -2 10 12 19 -54 147 -69 132 -3
-4 -6 1 -6 11 0 9 -4 15 -8 12 -16 -9 -108 206 -97 225 3 4 -20 -1 -52 -12
-32 -11 -84 -22 -115 -26 -32 -3 -58 -9 -58 -12 0 -3 6 -18 14 -33 8 -15 17
-42 21 -60 12 -58 46 -158 54 -158 4 0 15 -15 24 -32 9 -18 32 -53 51 -78 18
-25 31 -48 29 -52 -2 -5 8 -8 23 -8 15 0 24 -3 21 -7 -14 -14 -130 -2 -172 18
-56 26 -82 66 -145 219 -88 214 -110 334 -70 381 l19 24 1 -40 c0 -61 29 -100
83 -114 144 -36 283 11 349 117 27 43 27 102 0 120 -12 8 -18 20 -15 28 7 20
16 18 46 -10z m2498 -513 c36 -16 81 -44 101 -62 46 -40 98 -118 97 -145 0
-21 0 -21 -8 -1 -5 11 -23 33 -41 49 l-32 28 -62 -17 c-100 -28 -168 -77 -239
-175 -14 -19 -14 -16 2 13 19 34 19 37 3 37 -22 0 -137 78 -137 93 0 7 12 13
28 15 23 3 27 8 27 36 0 25 -5 35 -20 39 -31 8 -80 -9 -112 -40 -31 -29 -36
-20 -14 30 25 57 82 104 156 128 14 5 61 7 105 6 65 -3 93 -9 146 -34z m-1533
-27 l73 -43 -82 -6 c-89 -7 -116 -20 -86 -41 18 -14 11 -26 -25 -39 -10 -4
-18 -14 -18 -24 0 -15 -2 -16 -10 -3 -6 10 -10 11 -10 3 0 -7 -7 -13 -15 -13
-25 0 9 -57 37 -63 16 -4 15 -5 -6 -4 -24 2 -34 11 -55 50 -33 61 -84 94 -123
79 -39 -14 -35 -1 11 41 54 48 170 104 221 106 8 0 48 -19 88 -43z m-527 -66
c130 -28 152 -40 194 -106 30 -46 39 -71 43 -119 l4 -61 -68 7 c-38 4 -71 6
-72 4 -2 -2 9 -10 25 -19 l28 -16 -45 6 c-25 3 -88 17 -141 31 l-97 25 9 32
c12 41 11 102 -2 149 -7 27 -20 44 -45 59 -19 11 -32 23 -29 28 6 10 94 1 196
-20z m569 -105 c-7 -19 -7 -31 1 -41 6 -7 8 -23 5 -36 l-6 -23 11 23 c14 26
74 31 105 7 10 -8 30 -15 42 -15 13 0 37 -9 52 -20 58 -42 113 -60 182 -60 98
0 162 16 260 65 48 24 95 43 105 43 10 -1 36 2 58 7 22 5 42 9 45 9 25 5 137
52 142 60 19 28 19 -12 -1 -76 -26 -88 -29 -244 -6 -328 18 -66 20 -93 5 -70
-5 8 -22 15 -37 15 -20 0 -29 6 -34 25 -4 14 -7 18 -8 10 -1 -8 3 -31 9 -49
10 -37 5 -55 -10 -31 -7 11 -16 8 -50 -16 -23 -16 -61 -40 -85 -54 -24 -14
-51 -32 -62 -41 -10 -9 -29 -19 -43 -23 -82 -23 -88 -24 -117 -4 -54 36 -132
69 -193 80 -50 10 -60 15 -61 32 0 20 -1 20 -8 2 -6 -15 -20 -20 -72 -23 -35
-3 -72 -9 -81 -14 -11 -6 -18 -6 -18 0 0 5 -19 28 -42 51 l-41 42 -18 -23
c-14 -18 -21 -21 -30 -12 -16 16 -39 118 -39 176 0 26 -5 47 -11 47 -5 0 -8 4
-5 9 3 5 -1 12 -10 15 -8 3 -12 10 -9 16 3 5 4 10 0 10 -13 0 -27 -60 -26
-119 0 -75 21 -152 63 -235 24 -48 57 -137 58 -155 0 -2 -8 3 -17 10 -21 18
-87 160 -101 219 -6 25 -14 86 -18 135 -9 129 20 242 90 354 30 47 43 50 26 6z
m1803 -101 c106 -42 187 -83 187 -96 0 -5 -9 -4 -19 2 -11 5 -45 10 -76 10
-54 0 -58 -2 -119 -57 -41 -37 -76 -80 -95 -117 -17 -33 -31 -55 -31 -49 0 6
-21 18 -47 28 -75 28 -163 74 -163 85 0 22 30 81 60 119 35 42 115 91 170 102
19 4 36 7 38 8 1 0 44 -15 95 -35z m365 -185 c64 -32 106 -79 138 -154 17 -41
17 -137 0 -183 -11 -32 -12 -32 -27 -15 -9 10 -26 35 -38 55 -12 21 -37 49
-54 64 -18 14 -25 23 -17 18 8 -4 12 -4 8 0 -3 4 -8 7 -10 6 -1 -1 -34 12 -71
29 -69 31 -149 41 -162 21 -4 -6 -11 -8 -16 -5 -5 4 -9 1 -9 -6 0 -7 -3 -10
-6 -6 -4 3 -19 0 -34 -8 -26 -14 -27 -13 -22 12 3 18 1 24 -7 19 -6 -4 -11 -2
-11 3 0 6 4 11 8 11 4 0 8 9 9 20 1 11 9 27 17 36 9 9 21 25 27 36 9 18 9 18
-10 9 -22 -12 -47 -50 -43 -65 2 -4 -4 -19 -13 -32 -9 -13 -17 -41 -18 -62 -1
-20 -5 -39 -8 -42 -4 -3 -18 -30 -33 -60 l-27 -55 5 56 c2 31 18 90 36 132 72
174 234 243 388 166z m-3023 -9 c20 0 45 5 56 11 17 9 20 7 17 -7 -2 -12 9
-22 42 -34 25 -9 59 -22 75 -29 17 -7 69 -21 117 -32 68 -16 92 -18 110 -9
l23 11 -24 -20 c-32 -29 -64 -27 -226 14 -142 36 -265 85 -265 105 0 7 6 8 19
0 11 -5 36 -10 56 -10z m2243 -201 c27 -8 51 -23 63 -41 22 -30 109 -74 205
-105 52 -16 53 -17 36 -35 -9 -11 -30 -47 -47 -81 -29 -60 -31 -62 -82 -73
l-53 -12 0 33 c0 45 -23 60 -83 58 -62 -3 -75 -14 -79 -66 l-3 -42 -75 3
c-107 5 -150 -14 -150 -67 0 -17 -4 -22 -16 -17 -9 3 -40 6 -70 6 -68 0 -71
18 -7 44 64 27 105 65 167 160 48 74 96 170 96 195 0 5 5 22 10 36 7 18 15 25
28 21 9 -2 36 -10 60 -17z m773 -82 c31 -15 83 -54 117 -87 63 -61 82 -93 39
-65 -26 17 -50 16 -85 -4 -20 -11 -26 -10 -41 3 -25 23 -59 20 -93 -9 l-29
-25 -28 21 c-32 23 -79 20 -106 -8 -13 -13 -16 -11 -25 12 -25 67 3 164 54
186 40 17 138 5 197 -24z m-3383 -208 c98 -21 106 -56 17 -78 -167 -42 -465
-26 -465 25 0 17 33 34 95 49 63 16 288 18 353 4z m3332 -189 c5 -22 15 -59
21 -81 12 -49 3 -65 -34 -55 -28 7 -57 50 -76 115 -15 51 -7 61 46 61 29 0 33
-4 43 -40z m-4739 -44 c-6 -7 -39 -21 -74 -31 -90 -25 -287 -121 -287 -140 0
-9 12 -20 27 -26 14 -5 166 -20 337 -32 215 -15 292 -24 251 -27 -63 -5 -62
-6 30 -24 11 -2 108 -9 215 -15 246 -14 482 -30 540 -37 l45 -4 -50 14 c-27 8
-131 19 -230 26 -195 12 -442 37 -385 38 44 1 250 -12 490 -32 102 -8 277 -20
390 -26 249 -14 492 -37 408 -39 -32 0 -58 -5 -58 -11 0 -5 8 -10 19 -10 10 0
108 -7 217 -15 308 -23 949 -65 1154 -75 102 -5 226 -12 275 -16 63 -4 87 -3
80 4 -5 6 -28 13 -50 15 -72 8 197 -4 310 -14 61 -5 180 -12 265 -15 85 -4
189 -13 230 -19 l75 -13 -105 -2 c-58 -1 -100 -3 -95 -5 11 -4 520 -35 575
-35 51 0 30 10 -41 20 -80 11 217 3 401 -10 69 -5 217 -14 330 -20 307 -17
380 -2 520 109 56 44 399 265 360 232 -19 -16 -31 -33 -27 -38 5 -4 13 0 18 9
5 10 16 15 23 12 8 -3 17 -1 20 5 4 6 13 8 21 5 20 -8 185 105 185 127 0 12
-54 28 -100 29 -25 0 -90 7 -145 14 -94 14 -96 15 -25 10 41 -3 112 -7 156 -9
82 -3 134 -23 134 -50 0 -21 -628 -457 -699 -484 l-46 -19 -8 -108 c-4 -60 -9
-115 -12 -122 -2 -6 -20 -12 -39 -12 -27 0 -33 4 -31 18 2 9 6 61 9 115 l5 97
-107 0 c-59 0 -208 7 -332 15 -362 24 -687 44 -1275 80 -137 8 -311 20 -385
25 -74 5 -308 21 -520 35 -212 14 -547 36 -745 50 -198 13 -495 34 -660 45
-165 11 -390 27 -500 35 -456 34 -816 56 -1085 66 -157 5 -296 11 -310 12 -23
2 -25 -2 -28 -43 -2 -25 -1 -68 3 -96 l6 -52 67 -6 c37 -4 99 -11 137 -17 39
-6 117 -16 175 -24 l105 -13 -135 4 c-195 7 -399 23 -443 35 -20 5 -43 20 -51
32 -15 24 -31 244 -18 263 12 18 60 40 233 104 90 34 184 69 209 80 55 23 66
24 51 6z m3083 -212 c24 -9 19 -27 -14 -59 -29 -28 -30 -28 -106 -19 -43 5
-79 14 -81 21 -2 6 9 23 24 37 24 23 37 26 95 26 36 0 73 -3 82 -6z m-1941
-422 c59 -26 81 -60 74 -113 -6 -44 -35 -81 -100 -130 l-39 -28 29 -6 c57 -12
97 -39 117 -82 24 -49 52 -56 62 -17 4 15 22 63 41 108 19 44 43 103 54 131
26 63 37 77 58 70 10 -3 26 2 37 10 10 8 27 15 37 15 9 0 17 5 17 10 0 6 5 10
10 10 6 0 10 -9 10 -20 0 -11 4 -28 9 -38 6 -9 18 -71 28 -137 17 -112 20
-120 41 -123 15 -2 22 -9 18 -17 -3 -8 -1 -17 3 -20 5 -2 14 17 21 43 38 152
183 279 292 256 71 -15 96 -74 68 -159 -7 -21 -16 -32 -24 -29 -8 3 -16 -2
-20 -12 -6 -15 -9 -14 -26 6 -11 13 -20 34 -20 47 0 35 -33 29 -75 -12 -47
-47 -76 -107 -82 -169 -4 -43 -1 -56 18 -80 19 -24 27 -28 60 -23 20 3 64 23
97 46 59 40 88 53 64 29 -14 -14 -16 -48 -4 -48 5 0 18 10 30 23 16 17 27 57
47 176 32 186 37 201 64 194 13 -3 21 -1 21 7 0 7 7 10 15 7 8 -4 17 -2 20 3
10 17 21 11 31 -17 7 -20 6 -47 -3 -92 -7 -35 -11 -66 -9 -69 3 -2 26 16 53
40 93 86 173 147 186 142 7 -2 24 7 37 21 37 39 46 29 10 -11 -17 -20 -29 -39
-25 -42 3 -3 11 0 17 6 17 17 33 15 18 -3 -6 -8 -9 -19 -5 -25 9 -14 -13 -39
-90 -103 -33 -27 -79 -67 -103 -89 l-43 -39 97 -120 c53 -66 98 -118 101 -115
2 2 -1 13 -8 23 -13 22 -4 97 12 88 5 -4 9 -1 9 5 0 7 6 10 14 7 7 -3 18 -1
23 4 5 5 14 -5 22 -26 14 -39 41 -51 97 -42 44 7 96 44 92 65 -2 9 -46 38 -98
65 -111 56 -138 79 -146 122 -11 60 38 120 138 171 153 77 278 2 208 -126 -11
-19 -19 -29 -20 -21 0 11 -4 9 -15 -5 -8 -11 -15 -14 -15 -6 0 6 -7 12 -15 12
-10 0 -15 10 -15 30 0 20 -5 30 -15 30 -29 0 -96 -33 -107 -53 -13 -24 -4 -33
91 -80 34 -18 83 -50 107 -73 36 -33 44 -47 44 -76 0 -44 -33 -87 -94 -123
-76 -44 -219 -83 -201 -55 3 6 1 10 -5 10 -6 0 -29 9 -50 19 -22 11 -40 17
-40 14 0 -2 21 -31 46 -64 25 -32 43 -59 41 -59 -2 0 -28 18 -57 40 -56 42
-85 53 -57 22 27 -29 20 -35 -14 -12 -24 18 -39 21 -77 17 -42 -5 -44 -5 -19
5 15 7 27 15 27 19 0 5 -26 34 -58 66 -32 32 -76 79 -99 105 l-40 48 -18 -88
c-10 -48 -22 -94 -27 -102 -6 -11 -7 -8 -3 8 4 12 2 22 -3 22 -10 0 -27 -37
-35 -75 -3 -11 -5 -4 -6 16 -1 39 -24 70 -35 47 -3 -7 -4 17 -3 55 1 37 0 67
-3 67 -3 0 -30 -25 -60 -56 -62 -63 -120 -104 -149 -104 -35 0 -109 40 -140
75 -17 20 -36 56 -42 80 -10 41 -30 58 -43 37 -3 -5 2 -40 10 -78 17 -82 17
-94 3 -74 -8 11 -9 1 -6 -40 5 -53 5 -54 -8 -25 -8 17 -14 36 -15 44 0 10 -3
11 -14 2 -11 -9 -15 -7 -20 11 -5 19 -8 20 -15 8 -12 -18 -15 -12 -34 75 -16
67 -11 65 -113 44 -52 -10 -52 -10 -74 -69 -12 -33 -28 -60 -35 -60 -7 0 -19
-13 -27 -30 -15 -34 -28 -39 -28 -12 0 26 -11 34 -27 21 -17 -15 -16 -4 3 61
22 75 4 84 -56 25 -25 -24 -75 -63 -113 -88 -37 -24 -64 -46 -61 -50 4 -3 -20
-18 -52 -34 -33 -15 -63 -29 -68 -31 -5 -3 -6 0 -2 7 4 6 1 11 -8 11 -9 0 -18
-12 -22 -27 -9 -44 -12 -50 -13 -25 -1 12 -5 22 -11 22 -10 0 -18 -37 -23
-105 -3 -36 -4 -34 -11 23 -9 63 -21 80 -29 40 l-4 -23 -8 23 c-8 24 -15 24
-72 6 -17 -5 -17 -5 1 10 20 16 13 41 -10 32 -8 -3 -14 -1 -14 5 0 5 7 12 15
15 21 9 19 27 -2 20 -24 -8 14 23 54 45 27 15 29 19 31 90 1 41 5 91 8 112 5
30 3 37 -10 37 -15 0 -21 17 -16 49 1 8 -4 17 -10 21 -8 5 -1 12 18 21 35 15
39 27 48 121 l7 68 -59 -24 c-54 -22 -95 -25 -63 -5 11 7 11 11 1 21 -10 10
-23 9 -65 -6 -84 -30 -86 -29 -15 8 61 33 105 69 65 53 -10 -3 -17 -2 -17 3 0
21 161 89 261 110 68 14 190 5 242 -18z m-1418 -217 c9 -99 20 -232 25 -295 5
-63 18 -225 29 -360 12 -135 20 -272 20 -305 l-1 -60 -8 55 c-27 184 -101
1163 -87 1150 4 -3 13 -87 22 -185z m3903 93 c6 -40 16 -111 23 -158 10 -81
19 -100 46 -100 7 0 10 -7 7 -15 -4 -8 -2 -15 4 -15 5 0 17 21 27 48 27 70 57
113 116 167 78 70 145 98 221 93 53 -4 64 -9 85 -34 19 -23 22 -36 17 -64 -8
-47 -33 -92 -46 -84 -5 4 -14 1 -18 -6 -12 -19 -40 12 -40 44 0 72 -150 -25
-200 -129 -25 -51 -26 -122 -3 -147 24 -27 80 -23 127 10 57 39 57 52 2 52
-34 0 -46 4 -47 15 -5 70 -5 70 37 76 21 4 78 10 126 14 l87 7 -3 -33 c-2 -19
-15 -65 -29 -104 -14 -38 -36 -104 -48 -145 -16 -54 -24 -69 -29 -55 -8 23
-17 11 -36 -49 l-13 -41 0 48 c-1 26 -5 47 -11 47 -5 0 -10 -7 -10 -15 0 -8
-4 -15 -8 -15 -5 0 -6 21 -1 48 4 26 6 48 5 50 -2 1 -24 -9 -50 -23 -57 -30
-74 -31 -131 -4 -59 28 -103 81 -111 136 -5 37 -10 43 -30 43 -20 0 -23 -4
-18 -27 24 -136 25 -154 3 -123 -8 11 -9 -2 -5 -43 7 -63 -7 -71 -18 -11 -4
21 -12 34 -19 31 -7 -2 -17 5 -24 17 -7 12 -12 15 -13 9 0 -7 -4 -13 -8 -13
-5 0 -15 32 -22 71 l-12 71 -62 -6 c-105 -12 -105 -12 -142 -90 -19 -39 -34
-63 -34 -54 0 28 -25 10 -49 -35 -20 -39 -21 -40 -17 -12 5 33 -11 70 -21 47
-2 -6 -8 -10 -13 -7 -4 3 0 22 10 43 22 46 28 78 14 75 -6 -1 -11 11 -11 28 0
16 5 29 10 29 5 0 4 6 -2 14 -13 15 4 26 38 26 16 0 61 80 139 243 2 5 -11 6
-29 3 -19 -3 -68 -11 -110 -17 l-77 -11 -15 -62 c-9 -33 -33 -130 -54 -215
-27 -109 -39 -146 -43 -127 l-5 28 -22 -30 c-12 -17 -25 -42 -29 -56 -11 -46
-22 -28 -12 20 7 32 7 49 -1 57 -8 8 -11 8 -11 -1 0 -7 -5 -12 -10 -12 -6 0
-8 17 -4 43 7 52 53 295 61 321 5 17 1 18 -38 12 -125 -20 -135 -20 -121 -4 7
10 9 19 4 22 -12 7 -8 64 4 76 5 5 45 14 89 20 44 6 91 16 105 22 31 13 264
20 293 8 l22 -8 -24 -9 c-22 -9 -22 -10 -6 -17 17 -6 17 -7 -1 -21 -18 -13
-17 -14 16 -15 30 0 38 5 54 35 14 26 24 34 38 29 18 -5 84 13 103 28 18 16
22 7 33 -64z m1084 -38 c21 -11 44 -17 52 -14 8 3 17 1 20 -4 3 -6 -13 -13
-36 -17 -24 -4 -52 -14 -63 -21 -19 -14 -19 -14 5 -14 56 0 -6 -18 -84 -24
-160 -13 -174 -16 -179 -39 -3 -12 -9 -33 -13 -46 -7 -23 -6 -23 62 -21 38 2
82 2 98 1 28 -1 29 -2 10 -16 -19 -14 -18 -14 4 -15 33 0 27 -16 -10 -25 -28
-6 -30 -8 -13 -14 18 -7 17 -8 -5 -14 -14 -3 -61 -9 -105 -13 l-81 -7 -11 -36
c-7 -20 -14 -43 -17 -51 -5 -13 14 -15 148 -12 97 3 161 0 173 -7 15 -9 13
-10 -17 -11 -66 -1 -9 -20 65 -21 70 -2 63 -4 -53 -15 -60 -5 -79 -24 -25 -24
68 0 3 -9 -142 -21 -88 -7 -171 -17 -185 -22 -14 -6 -31 -9 -37 -8 -7 1 -14
-6 -14 -16 -1 -17 -2 -17 -6 0 -3 12 -15 17 -39 17 -31 0 -35 3 -29 20 3 11 2
20 -3 20 -5 0 -9 13 -9 30 0 21 6 30 20 32 26 4 63 107 44 123 -19 16 -9 73
14 80 20 7 30 25 43 77 5 22 2 27 -16 30 -16 2 -22 10 -23 31 0 15 3 27 7 27
4 0 8 8 8 18 0 33 64 51 189 51 63 1 117 3 119 6 13 13 101 3 134 -15z m-2633
-565 c33 -10 69 -31 88 -50 33 -33 34 -35 19 -63 -15 -30 -83 -77 -153 -108
l-38 -16 68 -18 c154 -39 181 -111 75 -204 -58 -50 -107 -76 -232 -122 -66
-25 -80 -33 -51 -29 23 3 0 -7 -55 -24 -100 -32 -125 -37 -100 -21 12 8 12 10
-5 9 -11 0 -38 -6 -59 -12 -31 -10 -42 -19 -52 -47 l-12 -35 -1 33 c-1 29 -3
32 -21 22 -11 -6 -22 -25 -25 -48 -17 -103 -25 -117 -20 -39 4 70 3 78 -12 75
-9 -2 -20 -14 -24 -28 l-6 -25 -7 27 c-5 15 -13 25 -19 23 -37 -11 -77 -13
-77 -5 0 6 9 10 21 10 33 0 16 24 -22 31 -19 4 -26 7 -17 8 22 1 34 21 19 31
-13 8 18 23 78 38 34 8 35 10 58 97 12 50 26 101 29 114 6 20 4 23 -11 18 -12
-5 -16 -3 -12 7 3 8 1 17 -6 20 -9 3 -8 8 3 15 13 10 13 12 0 20 -14 10 -6 15
49 33 8 2 27 39 43 82 l28 79 -37 -7 c-95 -16 -118 -17 -104 -8 17 12 6 32
-17 32 -11 0 -6 8 16 21 39 26 40 31 5 23 -23 -5 -26 -4 -16 7 7 7 59 23 115
35 90 20 125 23 273 20 126 -2 184 -8 224 -21z m793 -4 c2 -6 33 -6 78 -1 41
5 111 9 155 8 l80 0 -50 -13 c-48 -13 -49 -13 -15 -15 l35 -2 -30 -14 -30 -15
35 5 c122 17 368 28 395 18 27 -9 27 -11 7 -11 -14 -1 -21 -5 -16 -12 3 -6 17
-9 30 -6 45 8 24 -10 -28 -26 -43 -12 -47 -16 -24 -16 68 -2 4 -20 -112 -32
l-124 -13 -19 -37 c-10 -21 -19 -41 -19 -45 0 -3 37 -3 83 0 48 5 92 3 107 -3
25 -10 25 -10 2 -10 -29 -1 -19 -21 11 -22 20 -1 21 -2 2 -6 -11 -3 -31 -10
-45 -16 l-25 -10 25 -7 c18 -4 1 -9 -55 -14 -150 -13 -151 -13 -164 -54 -7
-20 -15 -42 -17 -49 -4 -8 45 -10 193 -8 109 2 181 1 161 -1 -71 -9 -36 -32
52 -35 43 -2 42 -2 -15 -9 -33 -4 -80 -10 -104 -15 -32 -6 -42 -5 -37 3 4 7
16 12 27 12 11 0 17 5 14 10 -3 6 -15 10 -26 10 -13 0 -18 4 -13 11 5 9 -21
10 -102 5 -60 -4 -124 -10 -143 -13 -33 -6 -34 -5 -27 23 4 16 8 33 9 39 1 5
-15 11 -36 13 -20 2 -35 7 -32 13 4 5 2 9 -2 9 -10 0 -33 -58 -33 -84 0 -10
-12 -21 -28 -27 -25 -8 -27 -14 -24 -44 5 -42 -8 -41 222 -15 96 11 206 19
245 18 39 -1 52 -3 30 -5 -177 -14 -383 -35 -395 -40 -20 -8 -92 -12 -107 -6
-7 3 -11 9 -8 13 3 5 -3 13 -12 19 -10 6 -12 11 -5 11 6 0 12 6 12 14 0 8 -6
16 -12 19 -7 2 3 9 22 15 30 10 38 19 50 60 18 57 18 68 3 65 -7 -2 -10 8 -8
25 2 15 4 32 4 37 1 6 14 15 29 21 19 7 33 24 44 52 15 39 15 42 -3 47 -15 5
-16 10 -8 31 9 24 8 25 -18 20 -16 -3 -60 -8 -99 -11 -67 -6 -71 -8 -83 -38
-7 -18 -39 -102 -71 -187 -32 -85 -66 -171 -74 -190 -27 -62 -17 -6 14 79 27
73 29 85 16 102 -9 13 -16 17 -21 10 -3 -6 -22 -10 -40 -8 -34 4 -34 4 -56
-61 -13 -40 -18 -67 -12 -71 20 -12 22 -47 5 -96 l-17 -50 340 -1 c187 -1 354
-6 370 -11 20 -6 -76 -8 -280 -5 -361 5 -694 -14 -913 -53 -269 -49 -298 -71
-45 -36 320 45 633 71 718 60 28 -4 154 -4 280 -1 127 2 228 2 225 0 -3 -3
-82 -8 -177 -12 -271 -10 -517 -38 -691 -77 -42 -9 -71 -5 -41 6 59 21 285 62
379 68 25 2 6 4 -42 5 -110 2 -423 -29 -680 -69 -109 -17 -212 -29 -230 -27
l-33 3 32 17 c38 22 200 63 303 78 139 20 325 40 375 40 80 0 92 7 109 58 27
79 15 132 -13 56 -7 -19 -15 -33 -18 -31 -5 5 63 221 108 344 13 35 21 65 18
68 -3 2 -34 0 -70 -5 -147 -22 -136 -22 -116 -6 17 13 17 15 2 24 -16 8 -16
11 -1 35 13 19 14 26 4 30 -24 9 35 24 142 37 58 7 110 16 115 20 6 5 21 10
35 13 14 2 28 5 32 6 3 0 8 -3 10 -8z m1088 -19 c22 -10 36 -26 38 -39 2 -13
8 -23 14 -23 13 0 2 -46 -18 -77 -8 -13 -20 -20 -28 -17 -9 3 -17 -3 -22 -18
l-7 -23 -9 24 c-7 19 -11 21 -22 11 -12 -9 -15 -6 -18 22 -3 32 -4 33 -46 30
-72 -4 -169 -59 -146 -82 5 -5 58 -27 117 -50 139 -52 221 -94 241 -122 20
-28 20 -67 1 -92 -8 -10 -12 -23 -9 -27 3 -5 -1 -9 -9 -9 -8 0 -20 -7 -27 -15
-11 -14 -4 -15 61 -9 41 3 79 7 86 9 7 2 15 0 18 -5 4 -6 -4 -10 -17 -10 -105
-1 -209 -21 -288 -55 -147 -63 -180 -78 -175 -84 10 -9 -109 -52 -155 -56 -25
-2 -92 -24 -149 -49 -122 -54 -150 -53 -36 1 43 20 74 38 68 40 -5 2 -81 -21
-168 -52 -88 -30 -164 -55 -169 -55 -18 1 36 29 77 40 20 6 59 20 85 32 26 12
50 21 54 20 3 -1 33 8 65 19 32 11 69 17 81 14 13 -3 21 -2 18 3 -3 5 9 9 27
9 34 0 155 40 302 101 l90 37 -57 3 c-32 2 -58 7 -58 11 0 5 -11 12 -24 15
-16 4 -55 -7 -117 -35 -52 -22 -137 -59 -189 -82 -52 -23 -113 -53 -135 -67
-49 -32 -104 -55 -112 -47 -3 3 28 22 68 42 41 19 81 39 89 44 8 5 94 44 190
87 292 129 345 158 335 186 -7 17 -28 27 -190 89 -114 44 -165 81 -165 119 0
36 26 74 74 108 121 87 285 125 366 84z m-1474 -19 c-4 -9 -1 -20 6 -24 10 -6
3 -36 -29 -126 -23 -65 -54 -154 -69 -198 -44 -128 -76 -206 -69 -165 4 19 16
60 27 91 26 73 22 101 -14 106 -16 2 -28 -1 -28 -7 0 -5 -7 -10 -16 -10 -27 0
-44 -27 -60 -99 -9 -38 -22 -78 -30 -88 -13 -16 -14 -15 -8 12 4 17 20 73 36
125 15 52 42 140 59 195 36 120 68 193 77 178 7 -11 93 4 108 20 12 12 16 8
10 -10z m-2344 -157 c12 -17 9 -64 -3 -72 -17 -10 -97 -6 -135 6 -29 10 -34
16 -34 44 0 18 3 36 7 40 10 10 157 -5 165 -18z m239 -16 c27 -15 26 -66 -2
-81 l-21 -11 21 -14 c25 -18 29 -72 6 -80 -8 -3 -47 -2 -87 3 l-73 8 -3 37
c-3 35 -2 37 30 40 l33 3 -32 18 c-28 15 -33 23 -33 52 l0 35 71 0 c39 0 79
-5 90 -10z m4692 -146 c35 -6 37 -8 37 -45 l0 -39 -64 0 c-35 0 -78 3 -95 6
-28 6 -31 10 -31 45 l0 39 58 0 c31 0 74 -3 95 -6z m-8 -122 c38 -7 40 -9 40
-42 0 -34 -2 -35 -40 -38 -22 -2 -64 -1 -92 3 l-53 6 0 40 0 39 53 -1 c28 0
70 -3 92 -7z m-5368 -113 c33 -12 134 -25 317 -39 76 -6 146 -15 155 -19 9 -5
75 -14 146 -20 182 -16 794 -61 829 -61 16 0 27 -3 23 -6 -5 -6 -168 3 -512
26 -206 14 -641 38 -787 44 l-128 5 -1 -42 c0 -33 -2 -38 -9 -21 -4 12 -15 24
-24 27 -9 4 -16 15 -16 26 0 13 -11 23 -35 31 -45 15 -55 7 -55 -41 0 -21 -5
-39 -10 -39 -7 0 -10 28 -8 77 3 70 5 79 27 89 19 10 26 9 42 -7 11 -11 32
-24 46 -30z m6623 13 c0 -11 -41 -39 -128 -87 -70 -38 -217 -119 -328 -181
-110 -61 -229 -122 -263 -134 -34 -13 -59 -25 -57 -28 8 -7 -21 -32 -38 -32
-9 0 -16 6 -16 13 0 10 -70 17 -292 30 -891 54 -1266 78 -1288 81 -72 9 91 4
385 -14 772 -47 871 -51 1016 -45 80 4 182 8 225 9 56 2 93 8 127 24 62 28
214 120 224 135 18 28 228 142 243 132 10 -6 126 51 165 81 19 14 19 16 3 28
-24 18 -23 29 2 16 11 -6 20 -18 20 -28z m-1475 -2 c22 -8 26 -15 23 -42 -3
-31 -5 -33 -48 -36 -25 -1 -65 1 -90 6 -36 6 -46 12 -48 30 -7 45 3 52 72 52
36 0 77 -4 91 -10z m253 -22 c20 -20 15 -66 -9 -73 -32 -10 -157 5 -170 21 -6
8 -8 25 -5 39 6 24 9 25 89 25 51 0 88 -5 95 -12z"/>
<path d="M3252 4588 c-1 -32 -6 -58 -11 -58 -5 0 -25 7 -44 15 -20 8 -58 15
-85 15 -53 0 -81 -20 -101 -73 -19 -50 -9 -315 15 -390 5 -16 8 -17 15 -6 6
10 9 6 9 -13 0 -16 4 -28 9 -28 5 0 12 -17 16 -37 13 -68 50 -120 125 -173 31
-22 45 -25 130 -25 59 0 104 5 118 13 44 25 185 17 317 -18 107 -29 130 -32
220 -28 161 8 232 53 300 191 32 65 38 88 47 188 17 197 -4 299 -74 352 -44
34 -98 42 -189 26 -41 -6 -87 -12 -104 -13 -16 -1 -33 -4 -36 -9 -10 -14 -190
-47 -292 -54 -113 -6 -234 7 -319 36 l-53 18 -6 64 -6 64 -1 -57z m63 -299 c6
-6 10 -24 10 -42 0 -30 3 -32 42 -38 60 -8 69 -23 10 -17 -51 6 -62 -1 -52
-32 4 -13 14 -20 28 -19 67 6 75 1 75 -42 1 -23 3 -44 6 -47 3 -3 1 -11 -5
-18 -7 -8 -7 -14 1 -19 5 -3 10 -16 10 -27 0 -19 -4 -20 -42 -14 -24 4 -65 7
-91 6 -59 -1 -97 20 -97 55 0 17 -5 25 -17 24 -11 0 -13 -3 -5 -6 18 -7 15
-53 -4 -53 -37 0 -52 19 -58 77 -4 32 -9 66 -12 76 -5 14 2 17 40 17 25 0 46
2 46 4 0 3 -4 16 -10 30 -5 15 -5 28 0 31 5 3 5 18 0 34 -4 16 -5 32 -2 36 10
9 115 -4 127 -16z m719 -8 c23 -9 24 -13 22 -81 -3 -62 -1 -70 13 -64 9 4 33
9 53 12 l37 4 0 -58 c-1 -33 -5 -64 -10 -71 -7 -7 -6 -14 1 -18 5 -3 10 -12
10 -19 0 -15 -99 -27 -262 -31 -99 -3 -108 -2 -114 17 -4 12 0 24 11 32 16 11
16 13 2 19 -12 5 -16 18 -14 54 l2 48 55 0 55 0 -2 77 -2 77 32 4 c61 7 86 7
111 -2z"/>
<path d="M207 2254 c-8 -9 -8 -101 1 -169 6 -45 10 -50 40 -59 18 -5 35 -6 38
-3 8 7 6 161 -2 192 -3 13 -13 25 -22 28 -10 3 -24 8 -33 11 -8 4 -18 3 -22 0z"/>
<path d="M1625 1494 c-11 -3 -30 -7 -42 -9 -22 -5 -24 -14 -50 -189 l-5 -38
63 35 c135 76 202 159 150 186 -23 13 -89 21 -116 15z"/>
<path d="M2469 1054 c-8 -3 -27 -34 -41 -70 l-26 -66 24 6 c52 13 191 67 223
87 31 19 33 22 17 31 -20 11 -171 20 -197 12z"/>
<path d="M2450 815 c-8 -2 -32 -6 -52 -10 l-37 -6 -32 -99 c-18 -55 -30 -103
-27 -105 8 -9 166 44 253 85 97 45 150 86 135 105 -19 23 -179 42 -240 30z"/>
<path d="M2191 655 c-16 -20 -22 -68 -10 -75 20 -13 1 -28 -53 -40 -62 -15
-94 -29 -64 -30 14 0 16 -3 7 -13 -19 -24 10 -50 55 -48 45 1 50 2 164 37 47
14 99 30 115 34 121 33 154 43 226 71 91 35 103 49 14 18 -32 -11 -64 -18 -71
-15 -7 3 -14 0 -17 -7 -2 -7 -16 -4 -40 11 -24 14 -37 17 -37 9 0 -7 -4 -6
-10 3 -6 9 -10 10 -10 3 0 -6 -9 -10 -20 -8 -11 2 -50 -5 -87 -16 -70 -20
-107 -25 -87 -11 10 7 34 65 34 83 0 12 -100 6 -109 -6z"/>
</g>
</svg>
