<?xml version="1.0" standalone="no"?>
<!DOCTYPE svg PUBLIC "-//W3C//DTD SVG 20010904//EN"
 "http://www.w3.org/TR/2001/REC-SVG-20010904/DTD/svg10.dtd">
<svg version="1.0" xmlns="http://www.w3.org/2000/svg"
 width="720.000000pt" height="544.000000pt" viewBox="0 0 720.000000 544.000000"
 preserveAspectRatio="xMidYMid meet">
<metadata>
Created by potrace 1.16, written by Peter Selinger 2001-2019
</metadata>
<g transform="translate(0.000000,544.000000) scale(0.100000,-0.100000)"
fill="#000000" stroke="none">
<path d="M3568 5341 c-161 -35 -264 -78 -388 -159 -83 -55 -260 -222 -260
-246 0 -8 12 -11 37 -8 l36 5 -6 -37 c-6 -40 11 -57 55 -55 23 1 23 1 -2 9
-24 8 -23 8 8 9 26 1 32 -3 32 -20 0 -20 -3 -21 -57 -14 -32 4 -62 11 -67 16
-6 5 -19 9 -31 9 -12 0 -27 6 -34 13 -10 10 -18 6 -40 -21 -36 -42 -51 -95
-44 -154 5 -46 5 -47 -61 -117 -82 -87 -106 -140 -113 -248 -5 -67 -2 -90 15
-135 11 -29 26 -82 33 -118 9 -48 21 -73 43 -97 44 -46 209 -132 279 -146 52
-10 62 -16 102 -63 l45 -53 -53 -15 c-77 -22 -156 -83 -202 -156 -22 -36 -29
-39 -82 -45 -124 -13 -106 -29 -164 135 -28 80 -53 155 -56 167 -3 13 5 60 17
105 24 87 29 193 11 211 -6 6 -11 21 -11 34 0 13 -4 23 -9 23 -5 0 -7 -10 -3
-22 l5 -21 -21 21 c-30 30 -73 50 -132 63 -36 8 -56 18 -67 36 -9 13 -51 48
-92 76 -42 28 -99 73 -127 99 -61 57 -208 148 -240 148 -66 0 -107 -51 -96
-120 6 -47 68 -104 152 -142 60 -27 90 -50 90 -70 0 -4 -6 -8 -13 -8 -21 0
-97 -70 -97 -89 0 -10 -12 -36 -26 -57 -15 -21 -42 -72 -61 -112 -31 -65 -34
-79 -29 -126 9 -67 32 -102 98 -146 42 -27 54 -41 56 -65 4 -42 49 -207 78
-288 32 -89 49 -121 77 -144 13 -10 39 -42 59 -72 62 -92 154 -141 266 -141
20 0 59 -7 86 -15 35 -11 96 -15 215 -15 188 1 237 9 266 43 11 13 36 27 55
30 19 4 45 9 58 13 18 5 22 2 22 -16 0 -68 79 -251 132 -307 17 -17 47 -35 67
-40 26 -6 36 -14 36 -28 0 -18 -8 -20 -69 -23 -54 -2 -71 0 -80 14 -17 23 -88
24 -110 1 -21 -21 -26 -21 -53 -2 -14 10 -57 18 -118 22 l-95 6 0 42 c0 56
-16 73 -80 85 -73 14 -152 -2 -179 -36 l-19 -24 -67 25 c-93 35 -244 62 -408
75 -140 11 -385 5 -445 -10 -31 -8 -33 -7 -39 21 -5 28 -7 29 -65 29 -59 0
-60 0 -55 -26 3 -19 -1 -28 -17 -35 -17 -8 -173 -52 -264 -76 -18 -4 -22 -1
-22 19 0 35 -18 48 -66 48 -67 0 -74 -6 -74 -60 l0 -49 -73 1 c-93 1 -134 -18
-139 -64 -2 -25 -9 -33 -33 -41 -16 -5 -93 -34 -170 -64 -77 -30 -178 -68
-225 -85 -133 -47 -253 -99 -277 -121 -25 -23 -28 -68 -14 -221 5 -64 11 -82
29 -96 12 -10 27 -20 32 -22 6 -2 19 -107 30 -233 24 -283 90 -1094 90 -1110
0 -7 -18 -20 -39 -30 -22 -10 -50 -28 -62 -41 -20 -21 -21 -30 -16 -96 5 -62
10 -76 32 -95 46 -40 110 -49 560 -78 1100 -71 3239 -223 3895 -277 231 -19
354 -22 952 -25 l686 -4 129 74 c241 139 508 298 522 312 9 9 16 43 19 93 l4
79 -37 31 -38 31 6 63 c12 116 46 571 62 818 31 493 32 499 64 529 27 25 29
32 35 141 12 208 12 209 -16 236 -29 30 -71 37 -326 58 -105 9 -182 11 -195 6
-22 -9 -22 -9 2 -9 36 -1 22 -9 -30 -16 -24 -3 -85 -19 -134 -34 -66 -20 -85
-30 -74 -37 38 -23 65 -103 40 -118 -5 -4 -7 2 -5 11 5 24 -18 52 -47 56 -16
3 -36 -6 -60 -27 -44 -37 -171 -88 -289 -116 -65 -15 -380 -60 -421 -60 -3 0
-6 -19 -5 -42 1 -41 3 -43 36 -49 22 -4 3 -7 -55 -8 l-90 -1 2 49 1 48 -146 7
c-167 8 -369 29 -489 52 -45 9 -86 13 -91 10 -6 -3 -17 0 -25 8 -8 8 -17 12
-21 9 -3 -4 -6 -2 -6 4 0 6 -26 20 -57 32 -68 25 -128 65 -156 103 -20 27 -20
28 -2 87 10 33 24 62 31 65 7 3 18 23 25 45 10 32 9 44 -1 56 -11 13 -8 15 16
15 33 0 22 16 -16 23 -14 2 3 5 38 6 38 0 62 -3 62 -10 0 -5 5 -7 12 -3 7 4 8
3 4 -5 -4 -6 -11 -9 -16 -6 -4 3 -10 2 -12 -2 -1 -5 -13 -15 -26 -23 -13 -8
-31 -34 -42 -57 l-19 -42 27 10 c27 10 27 10 -5 -21 -41 -41 -53 -93 -27 -122
56 -62 177 -117 334 -152 226 -50 367 -58 770 -44 275 9 477 51 593 124 44 27
57 41 57 60 0 27 -30 34 -49 10 -14 -17 -51 -28 -48 -14 2 12 -207 15 -318 5
-62 -6 -56 -3 60 23 179 41 276 70 304 92 21 16 21 22 0 20 -4 -1 -15 9 -25
21 -18 21 -18 21 0 7 10 -8 23 -15 30 -17 63 -15 64 -15 71 7 5 17 12 20 32
15 19 -4 31 1 53 25 24 26 29 28 33 13 3 -10 5 6 6 35 1 51 0 53 -34 68 -39
16 -147 19 -174 4 -12 -6 -30 -6 -51 0 -28 8 -194 37 -322 56 -33 5 -42 13
-72 63 -19 31 -44 65 -56 76 -14 13 -20 30 -20 61 0 23 -5 78 -11 120 -17 124
-63 195 -155 240 -48 23 -62 26 -117 20 -48 -5 -68 -2 -84 9 -12 8 -73 36
-135 61 -62 25 -119 48 -125 51 -7 3 -13 13 -13 22 0 57 -126 185 -232 236
-63 31 -82 35 -150 35 -93 0 -173 -27 -228 -76 l-37 -34 -43 15 c-23 8 -52 15
-64 15 -17 1 -13 7 24 38 24 20 63 56 86 79 l42 42 63 -5 c148 -14 362 93 418
209 31 65 54 200 46 277 -7 78 -39 134 -134 232 l-64 68 7 55 c9 79 -9 139
-55 184 -21 20 -48 59 -60 86 -22 50 -61 109 -89 133 -13 12 -13 13 0 6 8 -4
11 -3 7 1 -4 5 -15 10 -23 11 -9 1 -31 21 -50 43 -41 48 -180 141 -270 182
-126 57 -243 81 -419 85 -130 3 -176 0 -247 -15z m517 -222 c121 -27 278 -127
373 -240 45 -52 52 -67 52 -102 0 -41 0 -42 -14 -16 -7 14 -45 64 -85 111
-110 132 -240 211 -408 248 -83 18 -85 19 -28 14 33 -2 83 -10 110 -15z m-200
-9 c235 -34 463 -186 553 -370 36 -74 36 -76 36 -200 0 -94 -6 -150 -23 -225
-13 -55 -27 -158 -31 -230 -10 -151 -32 -301 -48 -331 -16 -30 -75 -80 -124
-105 -57 -29 -105 -46 -243 -85 -108 -30 -133 -34 -248 -34 -140 0 -256 14
-300 37 -16 8 -55 23 -86 33 -134 42 -279 168 -305 265 -60 216 -68 274 -70
485 -1 167 2 213 15 248 l17 42 -49 0 c-48 0 -64 12 -33 24 9 3 28 6 42 6 39
0 47 9 66 67 28 86 124 199 203 240 21 11 67 36 103 56 56 30 173 64 280 80
51 8 177 6 245 -3z m-1018 -432 c15 -7 30 -13 32 -15 3 -2 -9 -17 -25 -34
l-29 -30 -4 -157 c-3 -154 12 -388 29 -447 4 -16 11 -47 15 -68 l6 -38 -39 20
c-21 11 -43 25 -48 33 -6 7 -16 81 -24 163 -7 83 -16 175 -19 205 -4 33 -1 72
6 99 7 24 13 59 13 78 0 18 9 59 20 90 11 32 20 70 20 85 0 31 7 33 47 16z
m1893 -81 c0 -12 -7 -33 -16 -45 -14 -21 -14 -22 10 -22 17 0 36 -14 63 -46
21 -25 58 -68 82 -96 l44 -52 -6 -120 c-3 -67 -12 -143 -21 -171 -19 -61 -69
-124 -96 -122 -11 1 -20 2 -20 4 0 1 18 20 39 42 56 58 76 122 76 251 0 90 -3
110 -20 134 -11 16 -25 37 -31 48 -55 94 -129 90 -147 -9 -6 -31 -4 -33 33
-44 22 -7 40 -18 40 -25 0 -7 3 -20 6 -29 6 -14 -1 -15 -47 -13 l-53 3 -8 -40
c-9 -53 -10 -365 0 -365 4 0 28 11 55 24 53 26 59 21 20 -16 -36 -33 -105 -68
-137 -68 -23 0 -25 5 -31 63 -4 34 -3 142 2 239 7 165 7 179 -10 193 -10 9
-22 13 -28 9 -16 -10 -39 17 -38 45 2 23 2 24 6 4 5 -24 24 -28 72 -14 18 5
29 20 41 57 25 73 48 114 65 114 20 0 19 6 -5 30 -11 11 -20 29 -20 40 0 17 7
20 40 20 35 0 40 -3 40 -23z m-2678 -475 c65 -69 73 -88 54 -118 -9 -13 -28
-31 -41 -40 -24 -16 -27 -15 -47 2 -21 19 -68 114 -68 138 0 15 38 66 49 66 5
0 29 -22 53 -48z m445 33 c56 -24 70 -40 65 -76 -3 -23 -12 -34 -35 -44 -18
-7 -25 -14 -16 -17 15 -5 -74 -38 -103 -38 -13 0 -18 8 -18 26 0 15 -12 37
-28 54 l-28 28 27 30 c49 55 76 62 136 37z m-527 -172 c37 -70 40 -79 29 -103
-22 -41 -22 -43 -11 -36 6 3 26 -2 44 -12 18 -10 45 -18 59 -18 16 1 26 -4 26
-12 0 -23 -68 -8 -133 30 -47 27 -65 45 -88 87 l-29 54 22 43 c11 24 25 44 30
44 5 0 28 -35 51 -77z m618 -313 c44 -122 72 -227 72 -274 0 -28 -49 -131 -58
-121 -3 2 0 11 7 18 9 12 4 26 -25 68 -37 55 -94 169 -94 188 0 16 -26 14 -62
-5 -37 -19 -120 -45 -126 -39 -5 4 43 25 57 25 4 0 27 17 51 37 53 46 100 118
100 154 0 37 19 85 29 73 4 -5 27 -61 49 -124z m2176 -10 c61 -26 93 -47 141
-94 34 -34 67 -77 74 -96 l12 -35 -31 38 c-29 34 -35 37 -86 37 -99 0 -207
-62 -264 -150 -29 -45 -36 -50 -69 -50 -40 0 -141 45 -141 62 0 6 8 4 18 -5
26 -23 87 -47 121 -47 24 0 34 7 46 30 l16 31 -51 49 c-29 28 -61 50 -72 50
-19 0 -19 2 6 25 30 28 33 40 9 49 -21 8 -104 -3 -120 -16 -20 -16 -16 12 7
49 39 65 155 115 250 109 33 -2 89 -17 134 -36z m-1589 5 c22 -13 57 -33 78
-45 20 -11 37 -22 37 -24 0 -2 -36 -2 -80 1 -69 5 -80 4 -80 -10 0 -9 4 -18 9
-21 11 -7 -16 -66 -30 -66 -16 0 -39 -27 -31 -35 4 -4 -15 5 -41 18 -59 32
-131 44 -152 27 -12 -10 -15 -9 -15 4 0 19 69 97 113 128 36 26 93 47 127 47
14 1 43 -10 65 -24z m-1022 -126 c6 0 3 -4 -8 -9 -15 -6 -16 -9 -4 -9 16 -1
48 -63 70 -136 6 -22 32 -84 58 -138 39 -84 50 -99 74 -104 15 -3 26 -8 23
-10 -3 -3 -38 0 -78 7 -121 20 -179 75 -225 213 -38 117 -84 300 -78 315 4 10
28 -7 80 -57 41 -39 81 -71 88 -72z m1197 20 c0 -5 -6 -9 -14 -9 -27 0 -55
-48 -52 -90 2 -28 -1 -40 -10 -40 -7 0 -15 -4 -18 -9 -4 -5 3 -7 14 -4 19 5
19 4 5 -43 -20 -66 -18 -90 3 -34 9 25 21 51 25 58 10 15 47 16 47 1 0 -38 96
-64 126 -34 9 8 12 15 8 15 -4 0 -5 3 -1 6 3 3 19 -3 35 -14 38 -27 126 -62
157 -62 19 0 25 -5 26 -22 0 -23 0 -23 9 -2 7 17 21 23 67 29 96 12 177 49
277 126 l28 22 -13 -21 c-8 -12 -22 -25 -32 -28 -37 -12 -7 -16 60 -8 l68 9
-50 5 -50 6 45 12 c25 7 85 33 134 57 l89 45 -7 -67 c-12 -109 -5 -227 19
-348 6 -28 4 -30 -23 -31 -28 -2 -29 1 -46 73 -10 41 -20 72 -22 70 -2 -2 3
-37 12 -77 15 -67 15 -75 1 -100 -9 -15 -14 -30 -12 -34 3 -3 2 -4 -2 -1 -4 3
-23 -10 -42 -29 -20 -19 -76 -62 -125 -94 l-89 -60 -82 40 c-46 22 -112 45
-149 51 -52 9 -66 15 -66 28 0 10 -4 20 -9 23 -4 3 -6 -5 -4 -18 4 -21 1 -23
-55 -29 -33 -4 -85 -16 -117 -28 -55 -20 -57 -20 -77 -2 -12 10 -40 43 -63 74
-35 48 -43 54 -52 40 -16 -26 -38 1 -58 71 -12 43 -19 57 -26 47 -13 -21 -11
5 6 80 9 35 14 65 12 67 -2 2 -14 -25 -26 -61 -13 -36 -28 -65 -33 -65 -6 0
-8 7 -4 15 3 8 1 15 -4 15 -5 0 -11 -10 -13 -22 -3 -13 -3 6 0 42 7 89 27 186
51 240 34 77 122 164 122 119z m-456 -90 c21 -6 59 -29 84 -52 62 -58 115
-173 80 -174 -7 0 -45 -10 -83 -22 -40 -12 -103 -23 -145 -24 l-74 -2 -12 55
c-14 69 -22 87 -50 125 -20 28 -28 52 -25 82 2 21 163 29 225 12z m2236 -113
c163 -67 196 -92 87 -67 -21 5 -39 5 -43 0 -3 -5 -14 -9 -25 -9 -20 0 -95 -54
-132 -95 -10 -11 -27 -39 -38 -62 -16 -35 -23 -41 -37 -34 -63 33 -192 82
-201 77 -6 -4 -11 -1 -11 6 0 24 57 133 81 154 34 31 138 84 164 84 12 0 82
-24 155 -54z m333 -118 c48 -24 113 -90 139 -143 24 -45 38 -175 20 -175 -6 0
-19 15 -28 33 -55 106 -150 162 -274 162 -53 -1 -77 -7 -130 -34 -48 -25 -61
-29 -50 -15 8 11 19 22 23 25 5 3 10 21 13 40 3 19 7 40 9 47 3 8 0 10 -8 6
-6 -4 -3 3 8 15 21 24 63 49 105 62 37 11 129 -1 173 -23z m22 -242 c56 -27
79 -46 153 -129 50 -55 72 -98 35 -65 -30 25 -61 28 -87 7 -23 -18 -24 -18
-37 1 -22 30 -79 30 -109 0 l-20 -20 -20 20 c-22 22 -79 27 -112 9 -28 -15
-38 2 -38 64 0 54 19 98 52 121 35 25 123 20 183 -8z m-780 -26 c22 -13 53
-36 68 -51 26 -26 128 -71 190 -84 31 -6 32 -12 9 -80 l-17 -50 -70 -12 c-103
-18 -105 -17 -105 16 0 41 -20 52 -87 49 -42 -2 -58 -7 -60 -18 -1 -8 -4 -31
-8 -51 l-5 -36 -93 5 c-103 5 -127 -5 -127 -54 0 -22 -3 -24 -55 -24 -30 0
-55 4 -55 8 0 5 18 17 39 27 91 40 221 230 221 323 0 63 7 68 63 62 29 -4 70
-17 92 -30z m-200 -66 c33 22 32 8 -5 -68 -32 -67 -135 -188 -181 -211 -15 -8
-41 -14 -56 -14 -21 1 -23 3 -8 6 11 3 33 17 48 31 33 31 126 152 152 198 18
31 17 32 -4 55 -30 32 -26 43 4 13 25 -25 27 -25 50 -10z m884 -133 c15 -15
51 -109 51 -133 0 -2 -21 -3 -47 -3 l-47 1 -27 58 c-31 66 -29 83 9 89 15 2
30 5 35 6 4 0 16 -8 26 -18z m-3296 -54 c44 -19 47 -32 10 -51 -103 -52 -450
-52 -494 0 -18 22 0 35 78 56 90 24 347 21 406 -5z m-973 -50 c0 -2 -11 -18
-25 -37 -14 -19 -25 -40 -25 -47 0 -43 126 -98 298 -129 119 -21 371 -31 400
-15 35 19 26 31 -25 31 -25 0 -44 2 -42 4 2 2 81 6 174 9 177 6 198 4 80 -9
-38 -4 -59 -10 -46 -12 19 -3 21 -6 10 -13 -44 -28 328 5 465 41 85 23 199 71
210 89 4 6 12 11 18 11 18 0 -24 -41 -63 -60 -78 -40 -285 -89 -489 -115 -135
-17 -170 -32 -170 -70 0 -19 6 -24 33 -28 17 -2 -2 -5 -43 -5 -73 -2 -75 -1
-76 23 -3 49 -9 53 -91 59 -293 24 -471 50 -557 83 -50 20 -102 57 -117 84
-16 30 5 72 44 92 36 18 37 18 37 14z m4331 -103 c18 -76 26 -140 20 -147 -4
-4 -20 -3 -35 3 -30 11 -61 70 -72 137 -5 35 -4 42 12 45 38 8 68 -7 75 -38z
m-4815 -72 c-3 -5 -34 -17 -68 -27 -56 -15 -187 -71 -258 -110 -14 -7 -26 -21
-28 -29 -7 -32 20 -35 555 -73 52 -3 90 -10 87 -15 -3 -5 -12 -7 -20 -4 -8 3
-14 2 -14 -3 0 -14 287 -36 700 -55 166 -8 47 10 -165 26 -99 7 -169 14 -155
16 13 2 132 -3 265 -12 132 -9 312 -20 400 -26 292 -18 340 -22 400 -29 58 -8
59 -8 15 -10 -50 -1 -95 -21 -50 -21 29 0 407 -25 595 -39 72 -6 220 -15 330
-21 110 -6 210 -13 222 -15 12 -3 120 -9 240 -15 120 -5 254 -12 298 -15 54
-3 73 -2 60 4 -11 5 -45 11 -75 12 -33 1 -43 4 -26 6 23 4 476 -22 735 -42 94
-8 129 -24 51 -24 -30 0 -73 3 -95 8 -22 5 -107 11 -190 14 l-150 6 195 -19
c211 -20 760 -53 767 -46 2 2 -24 8 -59 14 -88 14 209 5 482 -13 361 -25 468
-28 552 -12 71 13 87 21 240 122 331 221 402 266 368 235 -23 -21 -28 -30 -15
-25 37 12 56 14 50 4 -13 -20 15 -7 81 40 114 79 119 102 26 108 -96 5 -265
23 -270 28 -7 7 32 6 182 -5 130 -9 176 -24 176 -54 0 -15 -104 -91 -450 -326
-118 -81 -233 -154 -255 -162 l-40 -16 -8 -108 c-4 -60 -9 -115 -12 -122 -2
-6 -19 -12 -38 -12 -31 0 -33 2 -31 28 2 15 5 66 7 115 l5 87 -112 0 c-61 0
-208 6 -326 15 -315 21 -662 44 -945 60 -137 8 -277 17 -310 20 -33 3 -141 10
-240 15 -99 5 -274 16 -390 25 -115 8 -381 26 -590 40 -508 34 -1191 81 -1455
100 -556 40 -1125 74 -1320 80 -118 3 -225 9 -237 12 -22 5 -23 3 -22 -68 1
-41 4 -87 8 -102 6 -27 10 -29 66 -32 33 -3 94 -9 135 -15 41 -6 122 -17 180
-24 l105 -14 -125 5 c-214 7 -413 22 -453 33 -54 16 -64 39 -71 172 -6 111 -6
119 14 135 20 17 471 194 479 187 1 -1 0 -7 -3 -12z m3088 -208 c23 -9 20 -27
-12 -57 -27 -26 -31 -27 -106 -20 -91 7 -106 23 -60 60 24 19 41 23 96 23 36
0 73 -3 82 -6z m-1936 -426 c32 -16 52 -34 65 -59 16 -33 16 -39 2 -71 -8 -20
-39 -58 -70 -85 -55 -50 -60 -63 -21 -63 36 0 83 -36 102 -79 29 -62 49 -54
78 32 9 27 37 98 63 158 42 101 49 110 70 106 13 -2 31 2 40 9 10 7 26 14 36
14 9 0 17 5 17 10 0 6 5 10 10 10 6 0 10 -9 10 -20 0 -11 4 -28 9 -38 5 -9 15
-55 21 -102 19 -132 27 -160 51 -160 15 0 19 -5 16 -15 -4 -8 -2 -17 2 -20 5
-2 14 16 20 41 38 150 176 276 285 260 75 -12 104 -65 80 -146 -9 -31 -19 -48
-26 -44 -5 4 -13 1 -17 -5 -13 -21 -40 0 -47 35 -8 45 -33 45 -79 -1 -47 -47
-76 -107 -82 -169 -4 -43 -1 -56 18 -80 19 -24 27 -28 60 -23 20 3 64 23 98
46 34 23 61 40 61 37 0 -3 -4 -16 -10 -30 -12 -34 8 -35 38 -3 16 17 26 57 46
174 28 167 42 209 62 192 9 -7 15 -5 22 7 6 10 16 15 26 11 9 -4 16 -2 16 3 0
18 15 10 26 -15 9 -18 8 -40 -2 -91 -8 -37 -13 -68 -11 -70 2 -2 41 29 87 69
102 87 143 117 162 117 8 0 23 9 33 20 10 11 23 20 29 20 5 0 -4 -15 -22 -33
-36 -37 -41 -53 -13 -37 27 14 36 13 22 -4 -6 -7 -9 -20 -6 -28 5 -14 -34 -56
-115 -122 -19 -16 -54 -46 -78 -68 l-43 -39 97 -120 c53 -66 99 -118 101 -115
2 2 -1 13 -8 23 -12 20 -4 102 8 89 3 -3 12 -1 20 5 7 6 13 8 13 4 0 -4 6 -3
13 3 10 9 16 4 26 -23 8 -23 21 -37 37 -41 59 -15 149 22 149 61 0 11 -23 30
-65 52 -134 73 -151 85 -167 118 -28 58 2 113 94 172 60 38 144 60 187 49 41
-10 76 -50 76 -86 0 -33 -27 -96 -37 -86 -3 3 -12 -2 -19 -12 -13 -16 -13 -16
-14 0 0 11 -5 15 -15 12 -11 -5 -15 1 -15 25 0 36 -11 38 -70 15 -41 -17 -69
-50 -53 -64 4 -4 41 -25 82 -46 41 -22 94 -57 118 -80 35 -33 43 -47 43 -77 0
-41 -42 -97 -93 -124 -77 -39 -229 -82 -204 -56 7 6 -84 53 -92 47 -2 -1 18
-30 44 -63 25 -34 44 -61 42 -61 -2 0 -28 18 -57 40 -57 43 -85 53 -55 20 26
-28 13 -34 -19 -9 -22 17 -36 20 -74 16 -42 -5 -44 -5 -19 5 15 7 27 15 27 20
0 4 -24 31 -53 60 -29 29 -74 77 -99 105 l-46 53 -10 -43 c-6 -23 -14 -66 -18
-95 -4 -29 -11 -55 -17 -59 -6 -4 -8 2 -5 15 4 12 3 22 -1 22 -10 0 -29 -39
-34 -70 -3 -19 -5 -16 -6 10 -1 19 -6 42 -11 50 -9 13 -11 13 -21 0 -8 -11 -9
4 -6 58 l4 74 -66 -65 c-69 -67 -127 -107 -155 -107 -29 0 -112 48 -140 80
-14 18 -31 52 -37 76 -12 48 -19 56 -36 46 -9 -5 -8 -28 3 -87 16 -96 16 -94
3 -75 -8 11 -9 1 -6 -40 l5 -55 -19 45 c-14 31 -22 41 -28 31 -6 -10 -11 -6
-19 15 -7 21 -11 24 -11 10 -2 -33 -14 -9 -31 62 -19 75 -17 75 -122 51 -46
-11 -47 -12 -69 -74 -14 -38 -28 -61 -35 -58 -6 2 -18 -10 -25 -26 -18 -39
-25 -39 -33 1 -6 30 -7 31 -21 12 -19 -25 -19 -10 1 56 11 38 13 55 5 58 -6 2
-8 9 -5 15 4 7 -17 -11 -47 -40 -30 -28 -85 -72 -124 -97 -38 -25 -63 -46 -55
-47 8 0 -16 -16 -54 -35 -76 -37 -80 -39 -71 -24 3 6 -1 10 -9 10 -9 0 -18
-12 -22 -27 -10 -46 -12 -49 -13 -19 -1 24 -3 27 -16 16 -10 -8 -15 -32 -16
-74 -1 -46 -3 -55 -9 -36 -4 14 -8 40 -9 58 -1 31 -21 48 -21 17 0 -8 -4 -15
-10 -15 -5 0 -10 7 -10 15 0 18 3 17 -38 6 -20 -6 -32 -6 -32 0 0 5 5 9 10 9
6 0 10 5 10 10 0 6 -9 10 -20 10 -23 0 -27 15 -5 24 21 8 19 29 -2 22 -24 -8
14 23 56 46 31 17 31 18 31 96 0 44 3 94 6 111 5 24 3 31 -10 31 -15 0 -21 22
-17 58 1 6 -4 12 -11 12 -7 0 1 10 19 21 26 16 34 30 42 72 17 89 19 118 7
113 -96 -38 -116 -44 -121 -36 -3 6 -1 10 4 10 6 0 11 7 11 15 0 20 -30 19
-90 -5 -75 -29 -74 -24 3 16 37 19 67 39 67 45 0 5 -4 7 -10 4 -21 -13 -9 13
13 27 36 24 155 69 221 84 87 20 204 12 264 -18z m-1419 -268 c6 -74 16 -184
21 -245 6 -60 19 -227 30 -370 11 -143 21 -281 23 -307 6 -73 -9 -47 -17 29
-35 362 -87 1044 -85 1107 2 47 16 -59 28 -214z m3891 213 c0 -4 7 -57 15
-118 9 -60 18 -129 21 -152 4 -33 9 -42 27 -45 15 -2 21 -9 19 -20 -6 -36 16
-16 33 30 53 140 200 262 317 262 65 0 95 -14 114 -52 14 -31 14 -37 -4 -83
-14 -34 -25 -49 -36 -47 -9 2 -16 -2 -16 -8 0 -6 -7 -6 -20 2 -12 8 -20 24
-20 40 0 71 -119 2 -192 -111 -51 -80 -32 -181 33 -181 44 0 129 47 129 72 0
4 -20 8 -45 8 -33 0 -45 4 -46 15 -4 67 -4 69 30 76 17 4 75 10 128 14 l95 7
-5 -33 c-3 -19 -18 -72 -35 -119 -16 -47 -38 -112 -47 -145 -14 -46 -20 -55
-26 -40 -6 17 -9 15 -23 -17 -9 -21 -16 -42 -16 -48 0 -5 -3 -10 -8 -10 -4 0
-6 18 -4 40 4 40 -12 56 -22 23 -3 -10 -4 6 -2 35 2 28 2 52 1 52 -1 0 -23
-11 -49 -25 -54 -29 -71 -30 -119 -10 -74 31 -127 97 -127 160 0 20 -5 25 -23
25 -23 0 -23 -2 -16 -47 4 -27 8 -64 8 -83 0 -29 -2 -32 -10 -15 -7 14 -8 1
-5 -45 4 -61 4 -63 -9 -35 -8 17 -14 35 -15 42 0 7 -6 10 -13 7 -8 -3 -18 5
-25 18 -6 13 -11 17 -11 11 -1 -7 -5 -13 -10 -13 -5 0 -12 21 -16 48 -14 99
-9 94 -84 87 -97 -10 -98 -11 -136 -83 -19 -37 -34 -61 -35 -54 -1 26 -21 10
-45 -35 -22 -41 -25 -43 -20 -18 5 32 -12 71 -22 48 -2 -7 -8 -13 -13 -13 -5
0 2 26 15 58 18 43 21 59 12 67 -16 13 -20 55 -6 55 8 0 8 4 -1 15 -10 12 -7
15 17 20 15 4 31 7 35 8 3 1 33 55 65 120 l59 117 -39 0 c-21 0 -69 -5 -107
-11 l-68 -12 -15 -56 c-9 -31 -25 -99 -38 -151 -38 -161 -58 -227 -58 -197 -1
41 -13 33 -44 -31 l-28 -57 6 51 c4 33 3 54 -4 59 -6 3 -11 1 -11 -4 0 -6 -5
-11 -11 -11 -7 0 -8 17 -4 48 7 52 53 286 62 316 6 20 15 20 -119 -1 -30 -4
-39 -3 -34 6 4 6 2 18 -4 26 -10 12 -10 18 -1 29 9 11 9 15 -1 19 -10 4 -10 8
3 21 10 11 47 20 105 28 49 6 95 16 102 21 15 11 232 20 276 11 28 -6 29 -7
11 -20 -17 -13 -17 -14 0 -20 15 -6 13 -9 -11 -20 l-29 -12 40 -1 c36 -1 42 3
60 35 14 27 23 34 40 30 20 -5 87 13 101 27 10 9 24 9 24 0z m1100 -102 c4 -7
19 -13 33 -15 45 -5 41 -14 -7 -21 -47 -7 -86 -35 -50 -35 15 0 16 -2 5 -9 -8
-5 -51 -12 -95 -15 -167 -13 -173 -15 -179 -44 -3 -15 -9 -35 -13 -45 -6 -17
-1 -18 57 -17 35 1 80 1 99 0 32 -1 33 -2 15 -12 -19 -12 -19 -12 5 -18 25 -7
25 -7 -10 -23 -26 -11 -30 -16 -15 -17 l20 -1 -20 -9 c-11 -4 -59 -11 -107
-15 l-86 -7 -12 -42 c-6 -22 -11 -45 -11 -50 1 -5 70 -8 154 -7 88 1 158 -3
167 -9 11 -7 7 -10 -20 -10 -64 -1 -10 -20 60 -21 70 -2 62 -4 -44 -14 -66 -7
-77 -19 -26 -28 20 -3 18 -5 -10 -6 -41 -3 -316 -30 -345 -34 -11 -2 -23 -15
-26 -28 -7 -23 -7 -23 -8 -2 -1 17 -8 22 -33 25 -22 2 -32 9 -35 23 -13 70
-12 73 11 79 18 4 27 18 39 58 11 39 12 56 3 63 -18 16 -8 73 15 80 20 7 30
25 43 78 5 22 3 27 -13 27 -24 0 -36 16 -20 26 8 5 8 8 0 13 -18 12 10 59 44
73 58 24 401 31 415 9z m-2641 -566 c33 -10 69 -31 89 -51 l34 -34 -19 -32
c-13 -23 -45 -46 -103 -77 -59 -32 -79 -47 -65 -49 61 -10 127 -35 154 -58 24
-20 31 -34 31 -62 0 -31 -8 -44 -53 -87 -60 -56 -109 -83 -241 -131 -60 -22
-77 -32 -51 -28 64 11 37 -2 -67 -30 -54 -15 -106 -29 -115 -32 -10 -2 0 4 22
15 35 18 36 20 10 14 -95 -20 -109 -27 -122 -68 l-11 -40 -1 38 c-1 35 -2 36
-21 25 -11 -7 -23 -28 -26 -48 -16 -99 -23 -114 -18 -37 4 71 3 78 -13 75 -9
-2 -20 -14 -24 -28 -6 -21 -7 -22 -8 -4 -1 11 -6 25 -13 32 -9 9 -3 12 27 12
22 0 60 7 85 16 25 9 108 34 184 55 134 38 300 98 293 106 -2 2 -34 -8 -70
-22 -38 -14 -67 -20 -67 -14 0 5 -4 8 -9 4 -5 -3 -13 -1 -16 5 -4 6 -16 8 -27
4 -11 -3 -30 -1 -43 6 -18 10 -37 7 -106 -14 -47 -14 -90 -26 -96 -26 -6 0 -3
15 8 37 24 47 26 81 4 63 -9 -8 -29 -10 -49 -7 -41 7 -51 -3 -60 -56 -5 -29
-4 -37 5 -32 7 5 10 3 7 -5 -4 -14 -20 -20 -97 -40 -30 -8 -40 -14 -31 -20 7
-4 9 -13 6 -19 -4 -6 -2 -11 4 -11 6 0 9 -4 6 -8 -3 -4 -22 -6 -43 -4 -33 4
-35 6 -15 13 24 9 30 29 10 29 -22 1 23 22 71 35 42 10 46 14 54 51 5 21 18
68 28 103 24 79 24 81 -3 82 -22 0 -22 1 -3 9 17 7 17 9 3 9 -10 1 -18 5 -18
10 0 5 8 12 18 16 16 7 15 8 -3 15 -20 8 -15 12 50 34 6 2 23 39 38 81 l27 78
-37 -7 c-53 -10 -122 -16 -100 -10 23 7 22 20 -4 27 -21 6 -21 7 7 32 l29 25
-30 -6 c-25 -5 -28 -4 -18 7 7 7 59 23 115 35 90 20 125 23 273 20 126 -2 184
-8 224 -21z m871 -4 c41 4 111 8 155 7 l80 0 -50 -13 c-43 -11 -46 -13 -20
-15 30 -2 30 -2 5 -10 -39 -12 40 -12 220 2 112 8 164 8 185 0 26 -9 27 -11 8
-11 -36 -1 -27 -21 10 -22 29 -1 27 -3 -23 -19 -45 -15 -50 -18 -26 -19 18 -1
26 -5 20 -10 -7 -7 -194 -31 -241 -31 -11 0 -53 -68 -53 -86 0 -4 39 -4 88 -1
48 4 96 2 107 -3 19 -8 19 -9 -3 -9 -29 -1 -19 -21 11 -22 20 -1 21 -2 2 -6
-11 -3 -31 -10 -45 -16 l-25 -10 25 -7 c18 -4 1 -9 -55 -14 -146 -12 -149 -14
-161 -49 -6 -18 -14 -40 -19 -49 -8 -21 3 -21 175 -9 58 4 130 4 160 0 45 -5
48 -6 18 -8 -80 -3 -26 -29 66 -32 24 -1 7 -5 -39 -9 -44 -4 -93 -11 -109 -15
-21 -6 -27 -5 -22 4 4 6 16 11 27 11 10 0 19 5 19 10 0 6 -12 10 -26 10 -15 0
-23 4 -19 11 5 7 -34 8 -134 3 l-140 -7 9 32 c8 28 6 33 -13 40 -12 5 -25 7
-29 4 -5 -2 -8 1 -8 6 0 6 -6 11 -14 11 -14 0 -36 -49 -36 -81 0 -21 -53 -52
-78 -47 -11 3 -4 8 19 16 31 11 38 19 52 66 21 64 21 70 3 63 -11 -4 -14 1
-12 21 2 15 -1 30 -6 33 -5 3 9 13 31 22 33 14 42 23 52 58 10 33 10 42 0 49
-8 4 -10 13 -7 19 4 6 2 11 -4 11 -6 0 -8 5 -4 11 4 8 -3 9 -22 6 -16 -3 -59
-9 -95 -12 l-67 -6 -62 -167 c-79 -208 -109 -281 -109 -262 0 8 7 33 15 55 9
22 23 65 33 96 l18 55 -49 1 c-30 1 -54 -4 -63 -13 -8 -8 -26 -52 -40 -97 -24
-79 -45 -124 -45 -101 0 6 25 85 56 175 30 90 60 179 66 196 6 18 9 35 7 38
-3 2 -34 0 -70 -5 -146 -22 -136 -22 -116 -7 15 13 16 16 2 27 -14 12 -14 15
2 32 15 16 15 21 3 28 -22 14 23 27 141 40 57 7 109 16 114 20 14 11 58 17 70
9 6 -3 44 -2 85 2z m1010 -19 c19 -9 37 -26 39 -37 2 -11 8 -23 14 -27 18 -11
-28 -99 -48 -91 -11 4 -18 -2 -22 -17 l-6 -24 -9 23 c-7 19 -11 21 -22 11 -12
-9 -15 -6 -18 22 -4 40 -20 45 -90 24 -65 -19 -118 -59 -102 -76 6 -6 59 -29
117 -50 134 -50 221 -93 241 -122 18 -25 21 -74 6 -83 -5 -3 -10 -15 -10 -26
0 -10 -6 -19 -12 -19 -7 0 -22 -8 -33 -16 -19 -15 -15 -15 45 -9 36 3 77 8 93
11 15 3 27 2 27 -3 0 -5 -48 -15 -107 -21 -94 -10 -125 -19 -236 -66 -70 -29
-128 -57 -128 -62 0 -5 -33 -21 -72 -36 -82 -32 -80 -32 -71 -17 9 16 -20 6
-156 -52 -131 -55 -162 -57 -44 -3 43 21 74 39 68 41 -5 2 -82 -21 -169 -52
-87 -30 -164 -55 -169 -55 -15 1 56 39 73 40 7 0 39 11 70 24 83 35 205 68
226 60 14 -6 16 -4 10 6 -6 10 -2 11 17 7 27 -7 172 40 323 104 l80 34 -45 3
c-24 2 -50 8 -57 13 -27 23 -82 11 -223 -51 -210 -90 -216 -93 -205 -83 6 5
46 25 90 45 387 175 435 200 435 223 0 18 -48 42 -165 84 -202 71 -239 126
-148 215 97 95 305 152 393 108z m-1493 -155 c-19 -56 -50 -145 -67 -197 -40
-117 -61 -172 -71 -184 -10 -11 4 41 36 138 14 43 24 81 21 83 -2 3 -7 -4 -11
-15 -5 -17 -10 -19 -37 -11 -17 4 -36 5 -42 1 -6 -4 -15 -7 -21 -7 -5 0 -17
-25 -26 -55 -9 -30 -24 -77 -33 -105 l-16 -50 5 45 c3 25 16 79 29 120 13 41
38 122 55 180 41 135 70 198 81 180 6 -10 14 -11 37 -2 48 19 67 19 82 -1 12
-16 9 -32 -22 -120z m-2079 80 c17 -12 15 -66 -3 -73 -9 -4 -49 -3 -90 1 l-75
7 0 37 c0 21 2 40 4 42 7 7 150 -5 164 -14z m-245 -101 c4 -6 6 -24 5 -41 -3
-28 -6 -30 -50 -33 -26 -2 -65 2 -87 8 -37 10 -41 14 -41 44 0 18 3 36 7 40
11 11 157 -5 166 -18z m238 -16 c23 -13 27 -68 4 -75 -47 -15 -51 -18 -30 -23
32 -7 45 -22 45 -54 0 -37 -14 -42 -102 -31 l-73 8 -3 38 -3 37 48 1 48 0 -45
17 c-41 16 -45 21 -48 55 l-3 37 71 0 c39 0 80 -5 91 -10z m-234 -90 c2 0 3
-19 3 -41 l0 -42 -82 7 c-44 4 -85 9 -90 12 -4 3 -8 20 -8 39 l0 34 58 3 c31
2 70 0 87 -4 16 -5 31 -8 32 -8z m4926 -56 c35 -6 37 -8 37 -45 l0 -39 -57 0
c-32 0 -75 3 -95 6 -35 6 -38 9 -38 39 0 17 3 35 7 38 8 9 96 9 146 1z m-19
-120 c51 -7 62 -20 52 -59 -6 -22 -12 -25 -50 -25 -24 0 -64 3 -90 6 -44 6
-46 8 -46 39 0 17 3 35 7 38 8 9 66 9 127 1z m-2409 -93 c-8 -24 -15 -47 -15
-50 0 -3 152 -7 338 -8 185 -1 353 -6 372 -10 21 -5 -105 -8 -310 -7 -365 2
-533 -5 -745 -31 -162 -20 -405 -69 -394 -80 2 -1 114 12 249 31 328 44 475
53 865 52 307 -1 318 -2 160 -9 -244 -12 -491 -37 -634 -64 -119 -24 -161 -26
-110 -7 42 16 244 53 336 62 75 8 65 8 -67 5 -165 -4 -395 -29 -654 -70 -88
-14 -176 -25 -195 -25 -31 0 -33 2 -21 14 42 40 366 102 635 121 168 12 159 9
173 68 7 29 12 64 13 77 l0 25 10 -24 c7 -18 5 -37 -6 -70z m-2981 24 c-17
-43 41 -59 291 -80 99 -8 196 -19 215 -24 19 -5 69 -12 110 -16 41 -3 116 -10
165 -15 50 -5 234 -19 410 -32 176 -13 310 -24 298 -26 -12 -2 -237 10 -500
27 -545 35 -633 40 -793 43 -113 3 -115 3 -118 -19 -5 -36 -40 -30 -50 9 -6
24 -16 34 -44 44 -34 11 -36 11 -42 -9 -3 -12 -6 -37 -6 -55 0 -20 -4 -31 -10
-27 -5 3 -10 41 -10 85 l0 78 38 15 c47 20 53 20 46 2z m6656 -26 c9 -15 1
-23 -52 -52 -35 -19 -186 -103 -336 -186 -151 -83 -299 -160 -330 -171 -31
-10 -56 -24 -55 -30 2 -5 -2 -10 -7 -10 -5 0 -9 -3 -9 -7 5 -33 -3 -53 -21
-53 -16 0 -20 7 -20 33 l0 33 -202 12 c-112 7 -309 19 -438 27 -129 8 -390 24
-580 35 -317 19 -413 27 -335 29 17 0 179 -8 360 -19 875 -52 877 -52 1056
-42 96 5 190 7 210 5 27 -4 56 4 112 30 75 35 217 121 217 132 0 4 -6 3 -12
-1 -7 -4 -11 -5 -8 -1 3 3 30 19 60 35 30 16 88 48 128 70 40 22 69 36 66 30
-14 -22 119 38 171 78 19 14 19 16 3 28 -22 16 -23 27 -3 20 9 -4 20 -15 25
-25z m-1480 -8 c21 -6 25 -13 25 -41 0 -34 -1 -35 -45 -38 -25 -1 -65 1 -90 6
-36 6 -46 12 -48 30 -7 45 3 52 70 51 35 -1 74 -4 88 -8z m258 -23 c20 -20 15
-66 -8 -73 -31 -10 -158 6 -171 21 -6 8 -8 25 -5 39 6 24 9 25 89 25 51 0 88
-5 95 -12z"/>
<path d="M4105 4478 c-49 -11 -103 -26 -120 -33 -81 -36 -324 -71 -414 -60
-99 11 -206 35 -292 65 -138 49 -197 38 -235 -44 -30 -64 -31 -130 -4 -266 11
-56 20 -108 20 -117 0 -8 15 -51 34 -94 34 -77 106 -172 157 -207 l24 -15 -24
26 c-29 32 -26 32 39 11 55 -18 104 -16 230 11 126 26 225 24 350 -9 143 -38
241 -34 337 15 127 64 177 161 194 376 11 124 10 136 -10 203 -16 51 -33 83
-59 111 -48 50 -100 57 -227 27z m41 -283 c1 -22 2 -58 3 -80 l1 -40 47 0 48
0 0 -75 0 -75 -55 -8 c-30 -5 -88 -11 -129 -13 l-74 -6 5 31 c2 17 1 31 -4 31
-4 0 -8 -11 -8 -25 0 -29 -36 -48 -79 -43 -25 3 -26 5 -28 90 l-2 87 61 3 61
3 1 75 1 75 55 6 c92 10 95 9 96 -36z m-762 29 c12 -5 16 -20 16 -59 0 -57 7
-65 58 -65 48 0 54 -12 59 -107 3 -50 2 -93 -3 -95 -5 -3 -53 -3 -106 -1 -87
5 -101 8 -123 31 -20 19 -25 21 -25 8 0 -26 -56 -21 -72 7 -18 33 -26 195 -10
202 6 2 12 0 12 -5 0 -5 9 -14 21 -20 31 -17 49 13 42 68 l-6 42 61 0 c33 0
67 -3 76 -6z"/>
<path d="M4285 3760 c-3 -5 -3 -10 2 -10 4 0 -8 -10 -27 -22 -19 -12 -40 -21
-46 -20 -7 1 -14 -4 -18 -13 -3 -8 -17 -15 -31 -15 -15 0 -24 -4 -20 -10 4 -6
-9 -10 -33 -10 -21 0 -61 -7 -88 -15 -27 -8 -51 -15 -53 -15 -2 0 -1 18 3 40
4 25 2 40 -4 40 -5 0 -10 -22 -10 -49 0 -37 -4 -51 -17 -57 -10 -4 -88 -9
-173 -10 -85 -2 -164 -3 -174 -3 -39 -2 0 -19 54 -24 36 -4 48 -3 35 3 -15 6
-7 9 32 9 53 1 81 -14 41 -22 -16 -3 -12 -5 12 -6 59 -2 201 18 216 30 8 6 14
9 14 5 0 -8 154 50 187 71 48 30 111 83 117 98 6 17 -9 21 -19 5z"/>
<path d="M204 2235 c-7 -29 5 -193 14 -199 4 -2 22 -7 40 -11 l32 -7 0 89 c0
113 -5 129 -42 142 -40 14 -37 15 -44 -14z"/>
<path d="M1625 1494 c-11 -3 -30 -7 -42 -9 -22 -5 -24 -14 -50 -189 l-5 -38
63 35 c135 76 202 159 150 186 -23 13 -89 21 -116 15z"/>
<path d="M2469 1053 c-15 -4 -74 -133 -61 -133 4 0 41 11 82 25 93 32 185 77
184 90 -2 19 -154 32 -205 18z"/>
<path d="M2440 813 c-78 -8 -76 -6 -111 -113 -18 -54 -31 -102 -28 -105 9 -8
185 53 272 94 97 47 133 76 117 96 -21 25 -145 39 -250 28z"/>
</g>
</svg>
