<?xml version="1.0" standalone="no"?>
<!DOCTYPE svg PUBLIC "-//W3C//DTD SVG 20010904//EN"
 "http://www.w3.org/TR/2001/REC-SVG-20010904/DTD/svg10.dtd">
<svg version="1.0" xmlns="http://www.w3.org/2000/svg"
 width="720.000000pt" height="544.000000pt" viewBox="0 0 720.000000 544.000000"
 preserveAspectRatio="xMidYMid meet">
<metadata>
Created by potrace 1.16, written by Peter Selinger 2001-2019
</metadata>
<g transform="translate(0.000000,544.000000) scale(0.100000,-0.100000)"
fill="#000000" stroke="none">
<path d="M3352 5375 c-145 -33 -278 -84 -374 -142 -135 -81 -278 -225 -333
-334 -14 -26 -29 -50 -35 -54 -5 -3 -10 -22 -10 -42 0 -25 -7 -42 -24 -58 -41
-38 -61 -150 -33 -186 15 -19 47 -32 47 -19 0 6 5 10 11 10 5 0 8 -4 4 -9 -3
-5 -1 -12 4 -16 19 -11 -1 -35 -30 -35 -23 0 -29 -4 -29 -22 0 -12 -18 -49
-39 -82 -71 -108 -84 -149 -78 -235 3 -42 14 -100 26 -130 33 -88 101 -180
153 -207 53 -28 193 -74 242 -80 40 -5 59 -14 89 -42 20 -20 37 -39 37 -42 0
-3 -16 -12 -34 -18 -46 -17 -122 -103 -152 -171 -20 -45 -23 -60 -14 -84 5
-17 10 -31 10 -32 0 -1 -24 -5 -52 -8 -29 -3 -109 -26 -176 -50 l-124 -45 -32
19 c-44 26 -131 33 -249 20 -100 -10 -142 -26 -197 -77 -14 -13 -42 -30 -63
-39 -100 -42 -256 -169 -308 -252 -12 -19 -29 -33 -40 -33 -14 0 -19 -7 -19
-29 0 -27 -4 -29 -67 -45 -38 -9 -103 -28 -145 -41 -42 -14 -79 -25 -82 -25
-3 0 -6 15 -8 33 -3 31 -4 32 -54 35 -65 4 -84 -13 -84 -74 0 -38 4 -46 24
-53 13 -5 26 -17 30 -26 5 -15 9 -14 27 9 20 25 54 47 101 65 16 6 33 3 56 -9
l33 -18 -68 -1 c-50 -1 -75 -6 -93 -19 -41 -31 -37 -48 17 -66 83 -27 263 -64
398 -81 71 -9 131 -18 133 -19 1 -2 -77 -7 -175 -10 -137 -6 -205 -4 -293 8
-139 19 -142 19 -110 1 44 -25 151 -55 254 -71 131 -19 392 -23 424 -6 18 11
34 11 77 1 44 -10 83 -9 216 6 247 26 397 69 473 136 30 26 37 38 34 60 -3 15
-1 26 4 23 4 -3 8 -20 8 -38 0 -61 -77 -111 -234 -151 -89 -23 -289 -54 -443
-70 l-63 -7 0 -38 c0 -38 1 -39 43 -43 23 -2 4 -4 -43 -5 l-85 -2 0 42 0 43
-135 7 c-278 15 -488 56 -567 111 -37 25 -223 98 -253 99 -8 0 -71 -23 -140
-51 -69 -29 -201 -81 -295 -116 -214 -80 -257 -99 -280 -125 -16 -18 -17 -31
-9 -157 l9 -138 32 -20 c21 -13 34 -30 37 -50 5 -28 107 -1288 106 -1311 0 -6
-18 -19 -39 -29 -22 -10 -50 -28 -62 -41 -19 -21 -21 -31 -17 -96 5 -62 9 -75
32 -95 53 -45 -13 -39 1456 -138 525 -36 1142 -79 1370 -95 875 -63 1780 -130
1886 -140 60 -5 354 -10 651 -10 l542 0 4 23 4 22 2 -22 c1 -22 5 -23 92 -23
l90 0 137 80 c424 247 508 298 519 321 7 13 13 54 13 91 0 64 -1 68 -35 96
l-36 29 25 319 c14 175 33 429 41 564 33 511 31 498 63 530 26 26 29 37 35
121 4 51 7 124 7 164 0 120 -10 124 -375 150 -121 8 -244 18 -272 21 l-53 5 0
43 c0 82 -10 107 -49 123 -40 17 -140 20 -168 4 -13 -6 -38 -5 -78 5 -176 41
-329 56 -625 61 -302 5 -487 -7 -632 -41 l-58 -13 0 32 c0 45 -23 60 -84 58
-59 -3 -76 -19 -76 -73 l0 -36 -82 3 c-97 5 -129 -7 -142 -53 -9 -30 -10 -30
-65 -26 -31 2 -57 6 -59 7 -2 2 2 21 8 44 9 33 19 44 60 67 33 18 62 45 89 84
47 67 116 218 126 278 6 36 10 42 32 42 15 0 39 14 60 35 25 25 44 35 67 35
17 0 45 9 63 19 27 17 37 18 67 9 31 -10 45 -8 94 12 195 80 306 147 324 196
9 27 19 35 45 40 75 14 173 122 173 191 0 22 10 43 30 67 17 18 36 52 44 73
19 54 36 170 35 235 l-1 53 -9 -55 c-37 -236 -53 -275 -130 -323 -40 -24 -143
-52 -113 -30 12 8 57 226 70 333 4 36 13 60 25 70 18 14 14 15 -43 10 -72 -6
-78 -7 -79 -17 -1 -18 -34 -43 -54 -43 -32 0 -51 25 -35 45 7 9 11 17 9 18 -5
4 -84 27 -93 27 -3 0 -6 -27 -6 -59 0 -32 -10 -90 -21 -127 -12 -38 -28 -94
-35 -124 -12 -49 -11 -56 3 -67 12 -9 13 -13 4 -13 -18 0 -78 67 -102 112 -12
23 -19 58 -19 90 0 61 25 272 41 351 20 96 65 136 53 47 -6 -44 -3 -55 20 -90
28 -42 99 -100 123 -100 7 0 18 11 25 24 11 26 34 40 49 30 12 -7 11 -41 -1
-49 -20 -13 2 -25 45 -25 73 0 195 56 179 81 -3 5 6 13 20 19 17 6 26 17 26
30 0 12 4 19 9 15 5 -3 11 5 13 17 5 33 25 32 32 -2 3 -17 4 -66 1 -108 -3
-52 -2 -69 4 -52 13 36 13 158 0 182 -9 16 -7 24 9 41 11 12 27 36 35 52 9 17
34 50 56 75 22 25 56 77 76 115 32 63 35 73 24 102 -7 21 -25 41 -50 55 -25
14 -42 32 -46 48 -8 35 -30 57 -70 71 -24 7 -39 22 -51 47 -23 49 -69 62 -136
39 -29 -10 -46 -12 -46 -5 0 14 67 181 92 232 31 61 50 135 43 167 -14 62
-102 92 -146 48 -20 -20 -79 -138 -79 -158 0 -5 -18 -49 -41 -97 -22 -47 -46
-106 -54 -129 -7 -24 -26 -60 -43 -81 -17 -22 -37 -57 -45 -78 -11 -32 -26
-47 -73 -76 -78 -47 -90 -73 -77 -165 5 -38 22 -98 36 -133 l25 -64 -23 -34
c-34 -50 -79 -336 -74 -468 l3 -59 -84 -36 -84 -36 -48 23 c-134 64 -310 49
-409 -36 -38 -33 -42 -34 -132 -35 -66 -2 -100 -7 -117 -18 -28 -18 -141 -36
-125 -20 6 5 37 28 70 50 66 45 212 185 220 211 4 14 18 17 69 16 56 -1 69 3
107 30 24 17 54 35 67 39 36 11 136 115 160 166 31 64 46 157 37 235 -14 129
-113 278 -220 329 -46 21 -82 90 -59 112 9 10 11 20 5 31 -4 9 -16 34 -26 54
-19 42 -83 97 -94 80 -3 -6 -19 -14 -35 -18 -21 -5 -27 -4 -22 5 4 6 14 11 23
11 13 0 13 3 3 15 -24 29 -48 13 -41 -28 1 -4 -10 -12 -23 -17 -13 -5 -27 -14
-31 -20 -5 -8 -11 -8 -21 1 -12 10 -13 8 -8 -7 4 -14 -2 -11 -21 10 -26 29
-26 29 -7 48 18 18 56 32 125 45 20 4 32 0 43 -13 13 -17 13 -17 3 8 -7 15
-39 51 -73 79 -126 108 -262 180 -413 220 -103 28 -366 35 -461 14z m319 -261
c37 -8 75 -21 85 -28 16 -13 16 -14 -5 -37 -13 -13 -30 -37 -38 -54 -17 -34
-10 -28 36 33 18 23 40 42 48 42 47 0 194 -117 252 -200 38 -55 41 -63 41
-128 0 -38 6 -90 14 -115 10 -32 11 -59 5 -84 -15 -70 -21 -217 -10 -278 5
-33 19 -104 31 -158 11 -55 20 -115 20 -135 1 -40 19 -72 40 -72 8 0 25 10 38
23 23 21 24 21 14 1 -16 -31 -139 -144 -202 -185 -59 -39 -220 -123 -224 -118
-1 2 -16 22 -33 44 -16 22 -35 54 -41 70 -7 22 -11 24 -11 10 0 -11 11 -40 24
-64 14 -24 19 -38 11 -31 -12 9 -28 8 -78 -10 -38 -13 -100 -24 -155 -27 -50
-3 -97 -9 -104 -14 -28 -17 6 -24 114 -23 105 1 142 9 237 47 3 1 6 -3 7 -8 3
-13 -80 -41 -197 -67 -164 -35 -360 -14 -489 52 -94 48 -141 85 -187 146 -61
79 -148 254 -181 361 -25 81 -27 102 -27 253 0 177 -1 169 80 374 5 14 4 17
-4 12 -7 -4 -12 -3 -12 2 0 6 7 13 16 16 8 3 12 2 9 -4 -3 -6 -3 -10 2 -10 4
0 25 24 46 54 116 162 329 298 508 325 79 12 231 4 320 -15z m1910 -215 c19
-19 21 -29 15 -76 -3 -30 -13 -71 -21 -90 -14 -33 -17 -35 -33 -21 -9 7 -34
23 -55 33 -21 11 -41 23 -43 27 -5 8 28 90 52 126 18 28 57 29 85 1z m113
-100 c33 -26 35 -83 6 -148 l-20 -44 -23 20 c-12 10 -34 27 -49 36 l-26 16 19
51 c10 28 19 59 19 70 0 27 39 27 74 -1z m-511 -71 c-7 -63 -7 -63 -54 -77
-23 -7 -49 -19 -57 -27 -16 -16 -16 -16 13 -32 20 -11 20 -11 -2 -12 -51 0
-71 89 -29 129 19 18 105 59 128 61 3 0 4 -19 1 -42z m-676 -25 c59 -40 64
-58 8 -24 -55 32 -87 28 -129 -19 -47 -52 -51 -71 -51 -225 1 -103 6 -146 23
-208 25 -87 52 -146 77 -167 15 -12 19 -11 34 8 16 22 91 43 91 26 0 -5 -19
-26 -42 -47 -37 -32 -49 -37 -83 -34 -33 3 -45 11 -71 45 -57 74 -92 186 -104
334 -7 80 -7 142 -2 157 5 15 15 44 21 66 8 26 29 55 59 82 61 56 95 57 169 6z
m99 -87 c32 -22 74 -127 81 -199 6 -69 -10 -184 -32 -226 -15 -30 -52 -71 -63
-71 -5 0 -17 7 -28 15 -18 15 -18 16 6 13 21 -3 29 6 54 57 56 111 46 267 -24
363 -16 23 -37 42 -45 42 -8 0 -15 5 -15 10 0 15 43 12 66 -4z m-1990 -156
c-32 -39 -41 -82 -40 -195 0 -105 19 -180 81 -324 27 -65 100 -149 140 -161
69 -22 57 -29 -18 -10 -104 27 -144 59 -180 145 -17 39 -41 113 -55 165 -21
80 -24 107 -18 173 6 70 5 77 -11 71 -24 -10 38 114 73 143 40 34 59 29 28 -7z
m2384 -661 c0 -5 -14 -28 -31 -49 -31 -38 -31 -42 -27 -117 4 -63 10 -90 34
-133 67 -124 205 -172 272 -94 26 30 40 27 20 -6 -28 -46 -306 -190 -367 -190
-28 0 -51 10 -51 23 0 6 3 8 6 5 9 -9 90 21 174 64 41 21 83 38 93 38 9 0 17
5 17 10 0 6 -12 10 -28 10 -47 0 -130 68 -164 133 -17 35 -21 37 -36 24 -29
-25 -154 -65 -188 -60 -18 3 -41 0 -52 -6 -17 -9 -20 -7 -25 17 -9 46 11 133
40 175 34 48 73 74 194 126 99 43 119 48 119 30z m-267 -27 c53 -24 55 -36 7
-40 -52 -4 -128 -42 -161 -80 -36 -41 -68 -107 -69 -140 0 -23 -41 -48 -64
-38 -6 2 -3 5 6 5 20 1 48 38 48 62 0 13 -13 19 -52 25 -67 9 -133 7 -157 -5
-25 -14 -16 -59 18 -89 21 -20 22 -22 4 -13 -77 38 -69 157 15 244 70 73 142
98 267 94 66 -2 103 -9 138 -25z m-505 -188 c-42 -115 -25 -304 38 -427 l15
-28 -24 15 c-29 19 -39 12 -31 -23 4 -18 -4 -11 -25 24 -37 61 -39 54 -6 -22
14 -32 18 -49 10 -38 -15 18 -17 17 -68 -31 -28 -28 -70 -63 -92 -79 -22 -16
-51 -39 -64 -52 -45 -41 -78 -48 -119 -28 -66 32 -156 55 -214 55 -48 0 -58 3
-59 18 -1 16 -2 16 -6 0 -3 -11 -14 -18 -28 -18 -12 0 -46 -7 -74 -17 l-52
-16 -32 29 c-62 58 -66 59 -77 29 -5 -14 -14 -24 -18 -21 -20 12 -53 99 -63
168 -14 93 -21 107 -44 88 -14 -12 -17 -28 -13 -96 4 -85 16 -116 123 -314 19
-35 32 -67 29 -70 -10 -9 -54 53 -94 135 -69 140 -91 267 -70 407 12 78 33
148 44 148 3 0 1 -11 -4 -25 -9 -23 -7 -25 16 -25 14 0 23 -3 21 -7 -3 -5 -1
-17 3 -28 7 -19 8 -18 20 7 12 26 39 37 74 30 13 -3 15 -6 7 -11 -15 -9 -4
-41 12 -36 7 2 25 6 40 9 17 4 25 11 21 18 -5 8 -1 9 12 3 57 -24 92 -34 117
-35 15 0 27 -6 27 -12 0 -10 2 -10 8 -1 4 7 32 17 61 23 65 12 120 36 189 84
30 20 57 34 61 32 3 -3 22 0 41 4 l35 9 -36 -2 -36 -3 51 58 c28 32 52 58 55
58 2 0 -3 -8 -12 -18 -21 -23 -22 -42 -2 -42 8 0 15 4 15 9 0 5 17 15 38 22
20 7 31 14 24 17 -16 5 36 34 105 56 29 10 56 22 59 27 16 26 12 -4 -8 -57z
m-1166 20 c84 -47 87 -51 42 -60 -42 -7 -124 -50 -124 -64 0 -5 5 -12 10 -15
15 -9 12 -41 -5 -59 -9 -8 -15 -19 -14 -23 4 -21 -2 -33 -13 -27 -8 5 -9 0 -5
-15 4 -18 -2 -15 -37 17 -24 22 -59 46 -80 53 -30 11 -35 17 -30 34 20 64 89
147 149 178 39 21 34 22 107 -19z m-257 -288 c60 -26 113 -76 147 -142 18 -34
30 -65 28 -67 -10 -9 -227 -87 -241 -87 -8 0 -20 -5 -25 -10 -7 -7 -17 3 -29
32 -46 103 -112 168 -177 173 -58 4 -40 23 54 54 51 17 111 38 133 46 51 18
68 18 110 1z m-433 -56 c88 -25 188 -145 188 -224 l0 -31 -68 -3 c-37 -2 -75
-5 -84 -8 -14 -4 -18 1 -18 20 0 72 -86 172 -177 206 -68 26 -122 23 -183 -9
-22 -11 -43 -21 -47 -21 -12 0 22 32 51 47 54 28 267 42 338 23z m-252 -115
c42 -40 47 -76 17 -128 -14 -23 -34 -50 -45 -61 -21 -18 -21 -18 -28 9 -4 18
-18 32 -40 41 -35 15 -58 11 -86 -14 -12 -10 -18 -11 -18 -4 0 21 -39 52 -65
52 -13 0 -33 -10 -45 -22 l-20 -22 0 21 c0 13 -8 24 -20 28 -11 3 -20 10 -20
14 0 6 86 59 148 90 35 19 102 30 150 27 31 -3 52 -12 72 -31z m1065 -202 c56
-149 120 -234 190 -252 38 -10 45 -15 45 -36 0 -24 -2 -25 -75 -25 -58 0 -77
4 -81 15 -8 21 -75 19 -112 -2 -28 -16 -32 -16 -49 -1 -13 12 -48 19 -118 25
l-100 8 -5 50 c-6 58 -32 78 -90 69 -32 -4 -30 -3 14 15 26 11 62 23 80 27 51
11 86 33 107 68 15 26 28 35 57 40 21 3 53 17 71 30 19 14 37 23 41 21 4 -2
15 -26 25 -52z m-865 -73 c11 -7 15 -29 15 -89 l0 -79 -25 13 c-14 7 -30 10
-36 8 -33 -12 -65 128 -34 147 19 12 61 12 80 0z m3321 -191 c261 -20 544 -74
556 -106 13 -32 -15 -35 -80 -9 -75 30 -187 57 -337 83 -163 28 -668 24 -834
-6 -66 -12 -121 -19 -123 -17 -7 6 22 13 132 31 201 32 466 42 686 24z m-79
-153 c182 -33 183 -87 1 -122 -207 -39 -508 7 -467 72 32 53 293 81 466 50z
m-4902 -37 c-8 -5 -40 -16 -70 -25 -50 -15 -189 -75 -250 -109 -35 -19 -37
-43 -4 -55 15 -6 165 -21 333 -33 219 -16 290 -24 251 -28 -30 -3 -46 -7 -35
-8 11 -1 29 -5 40 -7 26 -6 331 -30 575 -44 107 -6 206 -13 220 -16 l25 -4
-25 10 c-25 11 -147 24 -335 36 -60 3 -164 12 -230 20 l-120 13 105 -5 c58 -3
222 -14 365 -24 143 -10 352 -24 465 -30 254 -15 489 -37 408 -39 -86 -2 -70
-17 25 -24 132 -11 800 -55 1067 -72 135 -8 317 -19 405 -25 196 -13 208 -13
200 0 -3 5 -27 10 -52 10 -26 0 -44 3 -41 6 4 3 129 -2 280 -12 150 -10 262
-21 248 -24 -14 -4 -43 -5 -65 -4 l-40 4 35 -9 c32 -8 211 -23 611 -51 234
-16 318 -12 183 10 -85 13 243 3 474 -15 303 -24 470 -29 552 -16 77 12 71 9
275 148 130 89 339 223 317 204 -12 -10 -19 -21 -15 -24 5 -2 3 -2 -4 -1 -7 2
-15 -1 -19 -7 -10 -17 3 -21 28 -8 12 7 31 12 42 10 12 -2 16 1 11 10 -5 8 -4
10 3 5 20 -12 177 98 166 116 -4 7 -2 8 4 4 7 -4 12 -3 12 2 0 18 -55 31 -160
38 -58 3 -123 10 -145 15 -29 6 -16 7 45 3 47 -3 118 -7 159 -9 78 -4 125 -25
119 -52 -5 -25 -628 -457 -698 -484 -34 -13 -45 -22 -47 -40 -1 -13 -5 -68 -8
-121 l-7 -98 -38 0 c-31 0 -37 3 -35 18 2 9 6 60 9 113 l5 96 -182 6 c-100 3
-249 11 -332 16 -322 23 -682 46 -1340 86 -227 14 -1237 81 -1945 130 -201 14
-435 30 -520 35 -85 6 -175 12 -200 15 -70 8 -779 53 -925 60 -71 3 -202 8
-290 11 -88 3 -171 6 -185 7 -25 2 -25 2 -25 -85 0 -52 5 -92 12 -99 6 -6 49
-15 95 -19 130 -12 362 -40 373 -45 30 -13 -512 21 -567 36 -55 14 -65 38 -72
171 -6 110 -6 119 14 135 19 17 130 61 345 139 55 20 107 40 115 44 20 11 28
2 10 -11z m3861 -24 c-41 -47 -42 -91 -3 -128 42 -40 166 -97 269 -123 198
-50 328 -60 769 -56 339 3 643 81 712 182 30 45 28 73 -9 115 -17 19 -28 35
-24 35 15 0 85 -56 85 -69 0 -7 16 -31 35 -52 40 -44 48 -97 18 -120 -15 -11
-16 -11 -5 1 19 21 15 39 -17 75 l-28 32 -27 -33 c-71 -90 -285 -155 -642
-195 l-101 -11 1 -41 c1 -41 2 -42 41 -48 22 -3 -11 -6 -75 -6 -63 0 -103 2
-87 4 15 2 25 8 23 12 -3 4 -6 24 -8 44 l-2 37 -71 0 c-81 0 -349 24 -448 40
-207 33 -376 98 -442 171 -50 55 -43 94 25 144 46 34 48 32 11 -10z m-754
-191 c4 -10 -6 -27 -25 -47 l-31 -30 -77 9 c-43 5 -79 14 -81 21 -2 6 9 23 24
37 25 23 36 26 106 26 62 0 79 -3 84 -16z m-1949 -416 c58 -28 85 -74 71 -121
-5 -19 -33 -55 -69 -89 l-61 -57 42 -11 c46 -13 96 -58 105 -96 4 -14 14 -24
24 -24 13 0 25 20 44 73 15 39 46 116 69 170 37 86 45 97 63 93 11 -3 29 1 40
9 10 8 27 15 37 15 9 0 17 5 17 10 0 6 5 10 10 10 6 0 10 -9 10 -20 0 -11 4
-28 9 -38 6 -9 18 -71 28 -137 17 -110 20 -120 41 -123 15 -2 22 -11 23 -25 0
-12 9 4 19 35 35 112 105 199 194 239 45 20 91 25 101 9 3 -5 12 -7 19 -4 22
8 56 -44 56 -86 0 -53 -18 -100 -36 -93 -8 3 -14 0 -14 -6 0 -6 -4 -11 -9 -11
-18 0 -41 32 -41 56 0 36 -32 31 -75 -11 -47 -47 -73 -102 -81 -167 -5 -45 -3
-57 17 -82 19 -24 27 -28 60 -23 20 3 57 18 81 34 57 39 98 61 81 42 -7 -7
-13 -21 -13 -31 0 -16 2 -16 30 0 16 9 30 22 30 27 0 30 52 304 61 328 9 21
14 25 25 16 11 -9 15 -7 20 5 4 11 13 15 25 11 11 -4 19 -2 19 4 0 21 16 11
26 -16 7 -19 6 -49 -2 -93 -7 -36 -11 -66 -10 -67 1 -2 31 22 67 53 97 85 167
136 177 130 5 -3 20 6 32 19 37 39 46 29 10 -11 -17 -20 -29 -39 -25 -42 3 -3
11 0 17 6 17 17 33 15 18 -3 -6 -8 -9 -19 -5 -25 9 -14 -6 -31 -90 -103 -38
-33 -87 -75 -108 -94 l-38 -34 97 -120 c53 -66 99 -118 101 -115 2 2 -1 13 -8
23 -12 20 -4 102 8 89 3 -3 12 -1 20 5 7 6 13 8 13 4 0 -4 6 -3 13 3 10 9 16
4 26 -23 8 -23 21 -37 37 -41 59 -15 149 22 149 61 0 12 -30 33 -95 67 -112
59 -138 80 -146 123 -11 60 38 120 138 171 119 60 228 31 228 -61 0 -31 -27
-88 -39 -80 -5 3 -12 -3 -16 -13 -6 -16 -7 -16 -16 1 -6 9 -14 15 -20 12 -5
-4 -9 8 -9 24 0 38 -18 40 -80 9 -67 -34 -61 -52 35 -104 44 -23 99 -60 123
-81 35 -32 42 -45 42 -75 0 -64 -71 -125 -195 -168 -56 -19 -115 -27 -102 -13
7 6 -23 22 -73 38 -19 6 -16 -2 26 -56 50 -66 46 -68 -24 -11 -45 36 -69 37
-37 2 24 -26 11 -26 -26 1 -24 17 -39 20 -77 16 -42 -5 -44 -5 -19 5 25 11 38
38 18 38 -5 0 -49 44 -99 99 l-89 98 -12 -51 c-6 -28 -14 -70 -17 -93 -4 -24
-10 -43 -15 -43 -5 0 -6 7 -3 15 4 8 2 15 -3 15 -12 0 -33 -44 -34 -73 -1 -12
-5 -4 -8 18 -4 30 -10 40 -23 39 -16 -2 -18 8 -18 64 l0 66 -67 -65 c-112
-108 -132 -115 -212 -74 -71 36 -109 87 -123 168 -3 15 -6 16 -20 5 -16 -12
-16 -18 -3 -83 18 -83 18 -95 4 -75 -8 11 -9 1 -6 -40 l5 -55 -19 43 c-10 24
-23 41 -28 38 -5 -4 -13 3 -16 15 -6 17 -9 18 -16 8 -10 -16 -16 -4 -33 74
-13 58 -10 57 -112 36 -51 -10 -52 -10 -73 -69 -12 -33 -28 -60 -36 -60 -7 0
-19 -13 -27 -30 -17 -38 -24 -38 -32 2 -6 30 -7 31 -21 12 -19 -25 -19 -10 1
56 22 75 4 84 -56 25 -25 -24 -75 -63 -113 -88 -37 -24 -64 -46 -61 -50 4 -3
-22 -20 -57 -37 -69 -33 -73 -34 -64 -20 3 6 -1 10 -9 10 -9 0 -18 -12 -22
-27 -9 -44 -12 -50 -13 -25 -1 12 -5 22 -10 22 -12 0 -21 -37 -21 -94 0 -27
-3 -46 -7 -42 -8 7 -8 13 -11 79 -2 41 -18 50 -25 15 l-4 -23 -8 23 c-5 16
-13 21 -26 17 -11 -3 -29 -7 -41 -11 -22 -5 -22 -4 -4 10 20 16 12 41 -10 32
-8 -3 -14 -1 -14 5 0 5 7 12 15 15 21 8 19 25 -2 18 -25 -8 14 25 56 48 31 17
31 18 31 96 0 44 3 94 6 111 5 24 3 31 -10 31 -15 0 -21 17 -16 49 1 8 -4 17
-10 21 -8 5 -1 12 18 21 27 12 32 20 42 79 18 106 18 111 6 107 -93 -38 -116
-45 -121 -38 -3 5 1 11 7 14 10 3 10 7 1 17 -9 10 -21 10 -60 -3 -27 -9 -58
-19 -69 -22 -10 -3 11 10 48 29 61 32 102 65 64 50 -9 -3 -16 -1 -16 5 0 22
157 89 261 111 74 15 193 5 247 -22z m-1419 -273 c12 -132 25 -289 31 -350 15
-167 30 -367 38 -492 8 -120 -1 -156 -12 -50 -11 110 -35 378 -46 522 -6 77
-15 194 -20 260 -15 187 -23 361 -17 355 3 -3 15 -113 26 -245z m3891 217 c0
-5 6 -53 14 -108 8 -54 18 -122 21 -151 6 -43 10 -52 30 -57 16 -4 22 -11 19
-21 -4 -8 -2 -15 4 -15 5 0 17 21 27 48 38 100 126 195 222 239 45 21 66 24
115 21 53 -4 64 -8 84 -34 13 -16 24 -38 24 -49 -1 -33 -38 -107 -51 -99 -6 3
-15 1 -19 -6 -12 -19 -40 12 -40 44 0 30 -25 35 -68 12 -40 -20 -118 -108
-136 -151 -21 -49 -20 -114 1 -137 24 -27 80 -23 127 10 57 39 57 52 2 52 -34
0 -46 4 -47 15 -4 67 -4 69 30 76 17 4 74 10 126 14 l94 7 -3 -34 c-2 -18 -18
-71 -34 -118 -17 -47 -38 -112 -48 -145 -13 -44 -19 -54 -24 -40 -8 23 -17 11
-36 -49 l-13 -41 0 48 c-1 46 -15 63 -25 30 -3 -10 -4 6 -3 35 1 28 2 52 1 52
-1 0 -22 -11 -48 -25 -57 -30 -74 -31 -131 -4 -59 28 -103 81 -111 136 -5 36
-10 43 -29 43 -22 0 -22 0 -10 -77 13 -80 11 -98 -6 -73 -8 11 -9 -2 -5 -45 5
-57 4 -59 -9 -30 -8 17 -14 35 -15 42 0 7 -6 10 -13 7 -8 -3 -18 5 -25 18 -6
13 -11 17 -11 11 -1 -7 -5 -13 -10 -13 -5 0 -12 21 -16 48 -14 100 -10 95 -79
88 -105 -12 -105 -12 -142 -90 -19 -39 -34 -63 -34 -53 0 31 -19 18 -45 -30
-23 -42 -25 -44 -21 -18 5 33 -11 70 -21 48 -2 -7 -8 -13 -13 -13 -5 0 2 26
15 58 17 41 20 58 11 60 -15 3 -17 62 -2 62 6 0 4 5 -4 10 -13 9 -13 11 0 20
8 5 24 10 35 10 16 0 34 26 80 118 33 64 61 121 63 125 2 5 -11 6 -29 3 -19
-3 -68 -10 -110 -17 l-76 -11 -16 -57 c-8 -31 -32 -128 -53 -216 -29 -119 -40
-152 -44 -130 l-5 30 -22 -36 c-12 -19 -27 -46 -33 -60 -8 -19 -9 -14 -5 28 5
47 -7 81 -18 51 -2 -7 -7 -11 -10 -8 -7 6 12 135 41 280 22 109 22 108 -59 91
-72 -16 -95 -15 -80 3 7 8 8 17 3 20 -12 7 -8 64 5 77 5 5 47 14 93 20 47 6
93 15 104 21 25 13 260 20 289 8 l22 -9 -23 -7 c-21 -6 -21 -7 -5 -20 17 -12
16 -13 -7 -22 -24 -9 -23 -9 13 -14 35 -4 39 -1 59 33 17 31 26 37 52 37 44 0
96 13 96 23 0 5 5 9 10 9 6 0 10 -4 10 -8z m1105 -106 c10 -9 25 -14 35 -11
10 3 21 1 24 -4 4 -5 -13 -13 -38 -16 -25 -4 -53 -13 -63 -21 -17 -12 -16 -13
7 -14 55 -1 -5 -18 -84 -24 -167 -13 -173 -15 -179 -44 -3 -15 -9 -35 -13 -46
-6 -17 -2 -18 62 -16 38 2 82 2 98 1 28 -1 29 -2 10 -16 -19 -14 -18 -14 4
-15 33 0 27 -16 -10 -25 -28 -6 -30 -8 -13 -14 18 -7 17 -8 -5 -14 -14 -3 -62
-9 -107 -13 l-81 -7 -13 -46 c-7 -25 -12 -48 -11 -49 1 -2 71 -3 155 -3 86 1
159 -3 167 -9 11 -7 7 -10 -20 -10 -67 -1 -8 -20 65 -21 81 -2 71 -5 -38 -14
-42 -4 -75 -11 -71 -16 3 -5 17 -9 31 -9 15 0 24 -2 22 -4 -2 -2 -76 -10 -164
-16 -88 -7 -172 -18 -187 -25 -20 -10 -28 -10 -31 -1 -3 6 -9 0 -15 -14 -8
-18 -11 -20 -11 -7 -1 13 -10 17 -37 17 -27 0 -35 4 -31 14 3 8 3 17 -1 21 -4
3 -7 19 -8 35 -1 22 3 30 19 32 28 4 65 108 43 120 -8 4 -13 16 -11 26 2 9 4
25 4 34 1 9 10 20 22 23 20 7 30 24 43 77 5 22 2 27 -16 30 -22 3 -34 43 -16
54 4 3 8 13 8 24 0 29 55 44 185 51 177 9 250 5 270 -15z m-2646 -561 c33 -10
69 -31 88 -50 33 -33 34 -35 19 -63 -15 -30 -84 -79 -143 -102 -18 -7 -33 -16
-33 -20 0 -4 24 -12 54 -19 63 -14 115 -46 132 -80 18 -35 0 -75 -58 -125 -57
-50 -106 -76 -232 -123 -50 -19 -77 -32 -61 -29 17 2 39 8 50 12 11 4 17 4 13
-1 -4 -4 -53 -21 -110 -37 -136 -39 -148 -42 -113 -24 38 18 9 20 -50 2 -34
-10 -41 -17 -51 -51 l-12 -40 -1 37 c-1 28 -5 36 -15 32 -17 -7 -31 -41 -45
-114 -10 -54 -10 -53 -5 23 5 71 3 78 -13 75 -9 -2 -20 -14 -24 -28 l-6 -25
-8 27 c-7 29 -12 29 -77 11 -10 -2 -18 0 -18 5 0 12 49 22 110 22 26 0 63 6
81 14 19 8 108 35 199 61 162 46 295 93 287 102 -4 4 -76 -20 -107 -36 -23
-12 -125 3 -147 21 -9 7 -13 7 -13 -1 0 -7 -4 -10 -9 -7 -4 3 -40 -3 -80 -14
-88 -25 -99 -25 -78 -2 20 22 36 103 16 85 -7 -7 -34 -13 -60 -13 -47 0 -47 0
-51 -37 -3 -22 0 -41 6 -46 18 -12 -17 -32 -81 -47 -32 -8 -50 -15 -40 -18 21
-4 21 -9 3 -28 -8 -8 -27 -14 -43 -14 l-28 1 30 13 c27 11 28 13 11 23 -16 9
-15 11 11 21 15 6 43 15 62 20 34 8 35 10 58 97 12 50 26 101 29 114 6 20 4
23 -10 18 -11 -4 -15 -3 -10 4 4 6 1 15 -7 19 -10 7 -10 11 0 24 11 13 11 16
1 16 -20 0 -2 14 32 26 27 9 35 21 60 88 l28 79 -37 -7 c-69 -11 -118 -16
-105 -10 19 9 14 24 -10 34 -15 6 -17 9 -7 9 9 1 24 10 35 22 18 20 18 20 -11
13 -25 -5 -28 -4 -18 7 7 7 59 23 115 35 90 20 125 23 273 20 126 -2 184 -8
224 -21z m793 -3 c2 -5 37 -5 78 -1 41 4 111 8 155 7 l80 0 -50 -13 c-48 -13
-49 -13 -15 -15 l35 -2 -30 -14 -30 -14 35 5 c186 25 480 28 400 5 -24 -7 -24
-8 10 -16 l35 -8 -55 -17 c-44 -14 -49 -18 -26 -18 19 -1 26 -5 20 -10 -5 -5
-64 -15 -132 -22 l-123 -12 -20 -38 c-10 -21 -19 -41 -19 -45 0 -4 36 -4 80 0
44 3 92 3 107 -1 l28 -7 -25 -7 -25 -6 25 -11 c14 -6 20 -11 13 -11 -6 -1 -24
-6 -40 -12 l-28 -12 25 -7 c18 -5 6 -8 -45 -14 -171 -17 -159 -12 -177 -64
-10 -25 -16 -48 -14 -50 2 -2 66 1 143 5 76 5 163 6 193 2 45 -5 48 -6 18 -8
-21 0 -38 -5 -38 -10 0 -12 35 -20 90 -22 40 -2 38 -3 -20 -9 -36 -4 -83 -11
-104 -15 -29 -6 -37 -5 -32 3 4 7 16 12 27 12 11 0 17 5 14 10 -3 6 -15 10
-26 10 -12 0 -17 4 -13 11 5 9 -23 10 -107 4 -63 -4 -125 -8 -139 -9 -26 -1
-27 1 -16 47 6 26 5 27 -29 27 -22 0 -34 4 -30 10 3 6 0 10 -7 10 -15 0 -38
-53 -38 -86 0 -12 -11 -24 -28 -30 -25 -10 -28 -15 -24 -43 4 -30 21 -39 57
-31 49 10 354 39 405 38 74 -1 68 -2 -175 -24 -99 -9 -184 -20 -190 -24 -18
-13 -110 -6 -107 8 1 7 -5 15 -13 18 -12 5 -13 9 -3 21 9 11 9 16 -1 23 -9 5
-3 11 20 19 29 9 37 19 52 64 20 64 21 67 5 67 -7 0 -14 11 -14 25 -1 14 3 25
9 25 6 0 7 3 4 7 -4 4 5 12 21 18 19 8 33 26 45 55 15 40 15 42 -2 47 -13 3
-17 11 -13 30 4 23 2 25 -24 20 -16 -4 -59 -9 -95 -13 l-67 -6 -51 -137 c-97
-255 -116 -302 -119 -291 -2 5 12 55 32 109 26 73 31 99 21 94 -8 -3 -15 0
-15 7 0 9 -4 9 -12 2 -7 -5 -26 -10 -42 -10 -32 1 -39 -8 -62 -77 -12 -35 -14
-50 -5 -53 6 -2 11 -8 11 -13 0 -4 -6 -6 -14 -3 -10 4 -16 -5 -21 -25 -6 -29
-25 -53 -25 -33 0 9 108 333 129 385 6 15 7 27 3 27 -4 0 -36 -5 -72 -10 -143
-22 -137 -21 -116 -9 19 11 19 12 1 25 -18 13 -18 14 0 34 16 18 17 23 5 30
-22 14 23 27 141 40 57 7 109 16 114 20 6 5 21 10 35 13 14 2 28 5 32 6 3 0 8
-3 10 -7z m1088 -20 c19 -9 37 -26 39 -37 2 -11 8 -23 14 -27 17 -11 -28 -99
-47 -92 -9 3 -17 -3 -22 -18 l-7 -23 -9 24 c-7 19 -11 21 -22 11 -12 -9 -15
-6 -18 22 -4 41 -21 45 -92 23 -62 -20 -116 -59 -101 -74 6 -5 62 -30 126 -54
199 -77 249 -110 249 -166 0 -16 -4 -33 -10 -36 -5 -3 -10 -15 -10 -26 0 -10
-6 -19 -14 -19 -7 0 -19 -7 -26 -16 -12 -13 -7 -14 41 -9 30 3 69 8 87 11 19
3 32 1 32 -6 0 -5 -10 -10 -22 -10 -81 -1 -200 -22 -248 -43 -30 -14 -90 -40
-133 -57 -43 -18 -75 -35 -72 -38 3 -3 -20 -16 -50 -28 -83 -34 -99 -38 -90
-24 10 17 -15 8 -154 -51 -63 -27 -116 -47 -119 -44 -3 2 30 21 73 42 43 20
74 38 68 40 -5 2 -81 -21 -169 -52 -87 -30 -162 -54 -167 -52 -11 3 35 23 138
60 129 46 214 69 230 63 10 -4 14 -2 9 5 -4 8 1 9 15 4 23 -7 225 61 341 114
l65 30 -55 1 c-30 0 -63 7 -73 14 -13 10 -27 12 -45 6 -28 -9 -194 -79 -296
-124 -33 -14 -61 -24 -63 -22 -6 6 12 15 142 71 185 79 372 173 378 189 9 22
-15 42 -80 66 -212 77 -247 95 -264 134 -25 54 26 121 130 173 127 62 235 78
301 45z m-1475 -22 c-4 -12 -2 -20 5 -20 16 0 11 -20 -62 -230 -78 -225 -111
-308 -102 -259 3 19 16 67 29 105 13 39 20 73 15 79 -11 14 -60 18 -60 5 0 -6
-7 -10 -16 -10 -27 0 -44 -27 -60 -99 -9 -38 -22 -78 -29 -88 -12 -15 -12 -12
-4 27 5 25 21 81 35 125 14 44 39 125 55 180 40 130 68 193 79 176 6 -11 15
-11 46 -1 22 7 46 16 54 21 22 11 22 11 15 -11z m-2107 -46 c17 -5 22 -14 22
-40 0 -44 -12 -48 -105 -39 l-75 7 0 39 0 39 68 0 c37 0 77 -3 90 -6z m-236
-108 c12 -17 9 -64 -3 -72 -17 -10 -97 -6 -135 6 -29 10 -34 16 -34 44 0 18 3
36 7 40 10 10 157 -5 165 -18z m247 -20 c21 -25 9 -69 -19 -77 -14 -4 -20 -7
-13 -8 37 -3 61 -85 28 -97 -8 -3 -47 -2 -87 3 l-73 8 -3 38 c-3 34 -1 37 22
37 33 0 33 13 1 28 -20 9 -25 19 -25 47 l0 35 79 0 c56 0 82 -4 90 -14z m4684
-142 c35 -6 37 -8 37 -45 l0 -39 -64 0 c-35 0 -78 3 -95 6 -28 6 -31 10 -31
45 l0 39 58 0 c31 0 74 -3 95 -6z m-8 -122 c38 -7 40 -9 40 -42 0 -31 -3 -35
-30 -38 -16 -2 -58 -1 -92 3 l-63 7 0 39 0 39 53 -1 c28 0 70 -3 92 -7z
m-2411 -59 c-4 -16 -12 -42 -19 -58 l-12 -30 336 -1 c185 -1 351 -5 369 -10
21 -6 -97 -9 -315 -9 -358 0 -569 -7 -708 -25 -166 -21 -434 -77 -380 -79 11
-1 106 10 210 24 319 43 741 73 729 53 -2 -3 98 -5 223 -3 227 4 227 4 68 -5
-248 -14 -488 -39 -624 -65 -69 -14 -127 -23 -129 -20 -15 15 266 71 393 78
28 2 10 4 -40 5 -139 3 -470 -32 -752 -79 -68 -11 -140 -19 -160 -17 l-38 3
32 17 c77 43 407 102 633 115 140 8 144 9 160 77 7 31 17 56 22 56 5 0 5 -12
2 -27z m-2991 -12 c-4 -14 3 -24 24 -34 38 -20 67 -25 275 -42 98 -8 188 -19
200 -25 23 -9 281 -32 768 -67 135 -9 237 -19 227 -21 -10 -2 -96 1 -190 7
-804 53 -1204 74 -1219 65 -4 -3 -8 -20 -8 -37 0 -18 -4 -27 -8 -21 -4 6 -15
13 -24 17 -11 4 -18 17 -18 31 0 18 -9 27 -37 39 -46 18 -53 11 -53 -52 0 -70
-18 -35 -21 40 -3 76 2 86 45 105 41 18 45 17 39 -5z m6657 -21 c11 -21 6 -24
-145 -105 -49 -27 -189 -103 -310 -170 -121 -67 -231 -126 -245 -130 -50 -14
-90 -38 -90 -51 0 -8 -6 -14 -12 -14 -10 0 -10 -2 -1 -8 8 -5 9 -13 3 -22 -9
-13 -10 -13 -10 0 0 13 -1 13 -10 0 -7 -11 -10 -6 -10 21 l0 36 -132 7 c-73 3
-198 11 -278 16 -80 6 -370 24 -645 40 -275 17 -509 32 -520 34 -52 9 78 4
380 -14 786 -47 863 -51 1015 -45 85 3 175 8 198 11 31 3 42 2 37 -7 -5 -7 -1
-9 11 -6 11 4 33 9 49 13 65 15 279 139 269 156 -4 6 -2 8 4 4 5 -3 12 -3 14
2 4 9 121 78 197 116 29 15 50 23 46 17 -3 -6 -3 -11 0 -11 10 0 137 68 160
86 19 14 19 16 3 28 -10 7 -18 16 -18 19 0 12 31 -6 40 -23z m-1466 -13 c12
-9 17 -23 14 -42 -3 -28 -6 -30 -53 -33 -79 -4 -129 9 -133 37 -7 45 3 51 81
51 44 0 80 -5 91 -13z m244 -19 c7 -7 12 -24 12 -39 0 -36 -21 -42 -111 -33
-62 6 -72 10 -79 30 -18 46 -5 54 84 54 50 0 87 -5 94 -12z"/>
<path d="M3800 4584 c-30 -8 -79 -26 -109 -39 -65 -30 -71 -31 -71 -3 0 28
-13 15 -15 -15 -3 -43 -205 -131 -372 -163 -82 -15 -264 -16 -279 -2 -3 3 -11
50 -19 104 l-14 99 6 -97 5 -97 -64 6 c-62 5 -66 4 -99 -25 -33 -30 -34 -32
-33 -104 1 -77 30 -201 45 -192 5 3 12 -3 16 -13 3 -10 14 -37 24 -60 11 -23
19 -44 19 -48 0 -3 18 -35 40 -71 21 -35 34 -62 27 -59 -7 4 13 -16 43 -44 71
-65 122 -85 199 -78 l59 5 36 -58 c20 -32 44 -61 53 -65 12 -4 9 3 -10 22 -28
30 -36 50 -15 37 8 -5 9 -2 5 9 -4 11 -1 17 9 17 8 0 13 -4 10 -8 -3 -5 1 -9
9 -9 19 0 19 16 1 40 -13 16 -15 16 -30 2 -14 -14 -16 -14 -16 -2 0 9 6 17 13
20 6 2 9 7 6 11 -3 3 -14 0 -23 -7 -15 -11 -17 -17 -7 -35 6 -12 9 -22 7 -22
-3 0 -12 13 -20 29 l-15 28 67 31 c105 48 139 53 315 51 131 -2 173 1 222 15
220 66 299 205 261 464 -39 267 -128 369 -286 326z m-12 -305 c3 -23 -2 -27
-50 -42 -29 -9 -37 -13 -18 -10 75 14 85 11 88 -25 3 -27 7 -32 20 -27 9 4 32
12 51 17 39 11 54 -2 48 -39 -2 -13 0 -23 4 -23 5 0 9 -11 9 -25 0 -17 -6 -25
-17 -25 -10 0 -25 -5 -33 -11 -11 -7 -7 -9 16 -5 17 2 38 0 45 -5 21 -13 -7
-36 -53 -44 -37 -7 -38 -7 -38 24 0 17 -4 31 -10 31 -5 0 -8 -17 -7 -37 2 -35
0 -38 -43 -53 -86 -32 -101 -33 -108 -8 l-6 23 -6 -24 c-4 -18 -16 -27 -39
-34 -46 -11 -61 -3 -61 33 0 16 -4 30 -10 30 -14 0 -13 33 2 48 9 9 8 12 -5
12 -23 0 -22 37 1 44 9 3 34 8 55 12 30 5 37 10 31 23 -8 20 -24 89 -27 115
-2 16 10 23 53 37 76 24 104 21 108 -12z m-710 -149 c2 -14 7 -34 12 -45 5
-11 10 -29 12 -40 3 -18 10 -20 55 -17 l51 4 15 -54 c25 -88 27 -107 18 -113
-24 -14 -216 -26 -264 -16 -10 2 -25 17 -33 33 -15 29 -44 115 -44 131 0 4 21
7 48 7 41 1 45 2 30 14 -10 7 -18 23 -18 35 0 12 -5 30 -12 40 -21 34 6 52 71
49 51 -3 56 -5 59 -28z"/>
<path d="M4070 3903 c-31 -30 -46 -51 -35 -47 15 5 11 -1 -12 -24 -17 -16 -29
-33 -26 -36 4 -3 0 -6 -9 -6 -8 0 -23 -9 -33 -20 -17 -19 -110 -76 -149 -93
-19 -7 -19 -8 2 -23 20 -14 25 -12 74 20 72 49 100 68 118 86 9 8 30 26 48 39
35 26 42 44 15 35 -15 -5 -15 -4 -3 4 8 6 17 9 21 6 14 -8 59 58 59 87 0 16
-3 28 -7 27 -5 0 -33 -25 -63 -55z"/>
<path d="M206 2244 c-8 -20 -7 -106 2 -163 6 -40 10 -46 41 -53 18 -5 35 -7
38 -4 7 7 4 162 -3 192 -4 14 -18 27 -36 33 -38 14 -35 14 -42 -5z"/>
<path d="M1630 1493 c-73 -10 -67 2 -96 -192 l-6 -44 62 34 c85 47 170 124
170 154 0 14 -8 28 -17 33 -23 12 -81 19 -113 15z"/>
<path d="M2469 1054 c-8 -3 -27 -34 -41 -70 l-26 -66 24 6 c52 13 191 67 223
87 31 19 33 22 17 31 -20 11 -171 20 -197 12z"/>
<path d="M2450 815 c-8 -2 -31 -6 -51 -9 -36 -6 -36 -7 -69 -107 -18 -55 -30
-102 -28 -105 3 -2 52 11 110 30 179 58 309 136 276 164 -27 21 -180 39 -238
27z"/>
</g>
</svg>
