<?xml version="1.0" standalone="no"?>
<!DOCTYPE svg PUBLIC "-//W3C//DTD SVG 20010904//EN"
 "http://www.w3.org/TR/2001/REC-SVG-20010904/DTD/svg10.dtd">
<svg version="1.0" xmlns="http://www.w3.org/2000/svg"
 width="720.000000pt" height="544.000000pt" viewBox="0 0 720.000000 544.000000"
 preserveAspectRatio="xMidYMid meet">
<metadata>
Created by potrace 1.16, written by Peter Selinger 2001-2019
</metadata>
<g transform="translate(0.000000,544.000000) scale(0.100000,-0.100000)"
fill="#000000" stroke="none">
<path d="M3150 5208 c-104 -21 -222 -63 -325 -116 -100 -52 -121 -68 -230
-177 -109 -108 -126 -129 -168 -216 -26 -53 -47 -110 -47 -128 0 -29 2 -30 20
-19 16 10 22 10 28 1 5 -7 36 -16 70 -19 34 -4 59 -11 56 -16 -3 -5 -12 -7
-19 -4 -7 2 -34 -2 -61 -10 -65 -19 -94 -18 -94 4 -1 14 -5 12 -24 -9 -16 -18
-25 -45 -30 -85 -7 -65 2 -81 57 -100 36 -12 41 -31 14 -48 -15 -9 -21 -7 -33
9 -13 18 -14 17 -8 -11 5 -25 -5 -52 -47 -133 l-52 -102 6 -83 c13 -185 106
-318 262 -373 22 -8 81 -23 130 -34 81 -18 105 -29 198 -90 5 -4 0 -16 -11
-27 -30 -30 -64 -100 -60 -125 2 -18 -4 -24 -42 -34 l-45 -12 49 2 c64 2 72
-18 14 -34 l-43 -12 48 -11 c27 -6 45 -14 41 -18 -4 -5 2 -8 14 -8 26 0 27 4
7 24 -31 31 2 23 43 -11 46 -38 52 -53 23 -53 -11 0 -27 -3 -35 -6 -15 -6 -15
-7 -1 -18 24 -17 4 -62 -32 -70 -15 -4 -48 -24 -73 -44 -69 -57 -80 -65 -80
-59 0 3 7 13 16 21 14 15 14 16 -6 16 -12 0 -24 9 -29 23 -8 19 -43 69 -81
115 -6 6 -21 12 -33 12 -12 0 -33 7 -45 15 -45 32 -174 62 -292 68 -67 4 -103
2 -85 -2 17 -5 57 -9 90 -10 68 -2 189 -25 223 -43 13 -6 40 -38 62 -70 21
-32 41 -52 43 -45 4 8 6 7 6 -3 0 -19 -19 -44 -41 -53 -10 -3 -18 -13 -18 -21
0 -9 -6 -13 -14 -10 -25 9 -116 10 -116 1 0 -20 -28 15 -33 41 -3 15 -22 53
-42 84 -46 74 -109 107 -217 115 -79 6 -115 -2 -203 -44 -27 -13 -67 -28 -89
-34 -21 -6 -48 -19 -60 -31 -11 -11 -51 -37 -87 -59 -37 -21 -79 -53 -93 -70
-25 -29 -28 -43 -31 -114 -1 -29 -3 -30 -111 -57 -60 -16 -119 -31 -132 -34
-19 -6 -22 -3 -22 24 0 34 -13 42 -74 42 -53 0 -66 -13 -66 -67 l0 -43 -74 1
c-92 1 -133 -17 -138 -62 -3 -33 39 -15 -448 -199 -200 -76 -242 -95 -264
-119 -17 -19 -18 -33 -11 -148 4 -70 11 -135 15 -143 5 -9 20 -22 34 -29 31
-17 25 32 81 -661 25 -311 48 -597 51 -635 l6 -71 -40 -18 c-23 -10 -51 -29
-63 -42 -19 -21 -21 -31 -17 -93 10 -141 -11 -136 818 -191 168 -11 368 -25
445 -30 77 -6 374 -26 660 -45 806 -55 2091 -149 2560 -187 218 -18 360 -22
873 -25 l612 -4 0 30 c0 34 -16 50 -23 24 -3 -10 -5 0 -6 22 l-1 41 -377 23
c-208 12 -551 33 -763 47 -212 13 -398 24 -415 25 -16 0 -25 3 -18 5 11 5 363
-14 983 -52 233 -14 423 -14 600 1 41 4 50 3 35 -5 -48 -24 74 4 133 31 91 41
213 119 205 132 -3 5 -1 7 5 3 5 -3 12 -3 14 2 3 7 73 49 206 123 18 11 30 14
26 8 -14 -23 118 36 171 77 19 14 19 16 3 28 -24 18 -23 29 1 17 40 -22 32
-39 -32 -75 -34 -18 -184 -101 -333 -184 -150 -82 -294 -158 -320 -168 -67
-24 -80 -40 -83 -101 l-2 -53 76 0 77 0 157 91 c433 253 492 290 501 315 6 14
10 54 10 89 0 61 -2 65 -36 93 l-36 30 16 188 c25 303 35 447 60 832 l24 362
30 28 c28 26 30 32 36 142 12 204 12 208 -14 235 -30 32 -75 39 -345 59 -121
9 -248 19 -282 22 l-63 6 0 74 0 75 -37 15 c-40 17 -142 20 -171 5 -12 -6 -37
-5 -77 5 -104 24 -235 43 -370 54 -71 6 -140 13 -151 15 -12 3 -40 29 -63 58
l-41 54 16 63 c11 44 14 83 10 124 -3 34 -10 95 -14 136 -8 88 -30 131 -90
177 -52 39 -140 60 -190 45 -32 -10 -37 -9 -54 14 -33 41 -210 120 -310 138
-37 7 -38 8 -38 49 0 80 -95 193 -208 249 -150 74 -363 35 -436 -80 -22 -35
-26 -37 -107 -48 -46 -7 -85 -12 -86 -11 -1 1 27 32 62 70 59 62 67 67 106 67
32 0 53 9 98 41 31 22 77 53 102 68 111 69 162 282 108 456 -18 58 -30 76 -89
135 -37 37 -92 81 -121 96 -55 30 -105 94 -81 102 35 11 -14 110 -79 157 -27
20 -56 49 -65 63 -18 31 -83 83 -169 135 -77 47 -208 95 -310 113 -88 16 -330
17 -405 2z m273 -262 c135 -26 244 -83 345 -180 67 -64 82 -92 82 -153 0 -27
5 -64 11 -83 6 -20 12 -115 13 -216 1 -167 0 -177 -12 -127 -13 60 -59 152
-97 195 -38 43 -86 68 -133 68 -53 0 -178 -48 -263 -100 -106 -66 -229 -126
-316 -153 -100 -32 -236 -53 -285 -43 -31 6 -38 12 -47 44 l-11 37 5 -37 4
-38 -63 0 c-48 0 -69 -5 -89 -20 -47 -37 -44 -138 8 -268 10 -24 20 -41 23
-38 7 8 52 -80 52 -103 0 -11 4 -23 10 -26 6 -3 7 1 4 9 -14 36 7 12 39 -46
43 -76 97 -130 157 -157 70 -32 111 -27 213 25 137 70 157 76 322 84 124 6
164 12 230 34 98 33 179 87 220 144 29 42 30 48 36 185 3 78 6 132 7 120 1
-13 15 -64 31 -115 38 -120 47 -163 32 -154 -6 4 -11 0 -11 -11 0 -10 -9 -29
-20 -43 -21 -27 -26 -45 -10 -35 25 15 6 -16 -26 -45 -20 -17 -34 -33 -31 -36
9 -10 88 76 81 88 -4 7 -3 8 4 4 7 -4 17 3 24 18 9 20 14 23 25 15 7 -6 22 -9
33 -6 20 5 20 5 1 -21 -23 -32 -87 -93 -157 -150 -53 -43 -197 -132 -214 -132
-19 0 -10 16 20 33 17 10 30 22 30 28 0 5 6 9 14 9 8 0 34 18 57 40 46 42 46
52 1 21 -15 -10 -53 -33 -84 -51 -31 -19 -55 -37 -52 -42 3 -4 0 -8 -5 -8 -10
0 -27 17 -80 80 -12 14 -8 3 9 -25 30 -49 30 -49 9 -57 -12 -5 -36 -15 -53
-23 -17 -8 -58 -21 -91 -29 -54 -12 -56 -14 -23 -15 20 -1 38 -5 40 -11 2 -5
43 4 91 20 99 34 97 33 97 21 0 -11 -145 -65 -235 -88 -84 -21 -262 -23 -345
-4 -261 62 -446 277 -534 621 -31 119 -39 322 -14 343 8 6 23 44 33 82 39 155
220 366 387 451 64 33 147 63 200 73 69 14 220 12 301 -3z m849 -337 c20 -10
39 -23 43 -29 8 -14 4 -13 -35 7 -88 43 -144 -2 -171 -139 -35 -175 29 -411
130 -481 23 -16 25 -15 38 3 8 11 18 18 23 15 4 -3 10 2 14 10 3 8 12 12 19 9
8 -3 32 2 53 11 37 15 37 15 20 -4 -30 -33 -136 -101 -157 -101 -29 0 -90 34
-120 67 -37 39 -67 102 -83 175 -19 84 -29 279 -16 298 5 8 10 11 10 5 1 -5 9
16 20 48 41 130 103 160 212 106z m122 -103 c53 -54 76 -128 76 -246 0 -130
-34 -237 -69 -215 -8 4 -5 15 8 34 50 71 54 229 8 323 -15 29 -45 72 -66 96
-39 40 -39 42 -16 42 14 0 38 -14 59 -34z m-1980 -283 c-30 -71 -36 -108 -31
-183 17 -204 115 -387 242 -447 27 -13 42 -21 32 -18 -10 3 -40 5 -67 5 -37 0
-58 7 -96 33 -43 29 -52 41 -89 132 -55 133 -79 232 -72 301 3 29 1 56 -4 59
-5 4 -9 12 -9 18 0 7 4 6 10 -3 8 -12 10 -11 10 8 0 28 45 118 62 125 26 11
28 6 12 -30z m1144 -89 c2 -13 -5 -24 -20 -32 -21 -10 -20 -10 10 -5 31 5 32
5 32 -30 0 -37 13 -56 26 -36 3 6 22 18 41 26 40 16 68 3 60 -29 -3 -10 -1
-21 4 -24 5 -3 9 -16 9 -30 0 -13 6 -33 13 -45 10 -17 9 -22 -8 -35 -11 -8
-31 -18 -45 -21 -14 -3 -28 -10 -31 -15 -3 -5 -36 -20 -74 -34 -52 -19 -71
-22 -81 -13 -11 9 -14 8 -14 -4 0 -11 -14 -18 -44 -22 -51 -8 -70 0 -63 25 2
10 -4 25 -15 34 -11 10 -17 23 -14 31 2 7 -1 19 -9 25 -23 19 -6 39 51 57 30
9 54 23 54 30 0 7 -4 13 -10 13 -5 0 -10 11 -10 25 0 13 -5 36 -12 50 -14 32
-7 40 63 65 64 23 83 22 87 -6z m-669 -231 c16 -51 31 -77 31 -55 0 7 16 12
39 12 36 0 40 -3 60 -45 12 -25 21 -56 21 -70 0 -14 5 -25 10 -25 6 0 10 -9
10 -20 0 -16 -7 -20 -38 -20 -21 0 -42 -4 -47 -9 -6 -6 -48 -10 -95 -11 -121
-2 -120 -2 -120 19 0 11 -4 21 -8 23 -13 5 -51 103 -43 111 4 4 22 9 39 10 46
3 41 27 -5 27 -35 1 -37 2 -19 15 10 8 24 16 30 18 8 3 7 8 -1 18 -19 19 -16
47 5 52 9 3 39 4 66 4 l49 -2 16 -52z m1714 -71 c36 -17 86 -50 113 -73 74
-69 132 -172 63 -115 -31 27 -59 34 -59 16 0 -5 -9 -10 -19 -10 -50 0 -181
-119 -232 -210 -12 -22 -26 -40 -31 -40 -4 0 4 16 17 36 14 20 25 42 25 49 0
6 -32 29 -72 51 -39 21 -84 51 -101 65 -23 21 -40 26 -78 26 -41 0 -49 -3 -49
-18 0 -40 51 -110 110 -151 14 -9 20 -17 13 -17 -7 -1 -37 23 -68 52 -46 42
-58 60 -65 97 -23 117 34 212 150 253 69 25 80 26 151 22 46 -2 87 -13 132
-33z m-559 -249 c-4 -10 -9 -49 -11 -88 -11 -174 84 -366 216 -435 20 -11 32
-19 26 -20 -5 0 -24 9 -41 19 -29 18 -59 25 -93 22 -11 -1 -11 -4 0 -18 10
-14 8 -13 -11 2 -32 27 -69 70 -102 119 -16 23 -28 37 -28 33 0 -17 70 -117
111 -157 26 -26 35 -38 21 -31 -13 7 -30 10 -38 7 -9 -4 -14 2 -14 17 -1 18
-2 19 -10 6 -5 -8 -41 -49 -79 -90 -39 -41 -71 -79 -71 -86 0 -16 -100 -75
-127 -75 -13 0 -42 4 -66 10 -49 13 -237 20 -237 10 0 -5 -7 -8 -15 -8 -9 0
-33 -9 -54 -20 -38 -19 -39 -19 -77 1 -34 17 -39 18 -42 4 -11 -50 -73 38
-108 153 -19 59 -19 67 -4 141 8 43 23 85 32 94 21 21 29 22 22 2 -5 -11 1
-15 17 -15 19 0 21 2 9 10 -28 18 1 23 35 7 59 -28 135 -22 218 16 97 45 162
100 237 196 63 81 80 99 60 60 -15 -27 -5 -36 17 -17 10 9 32 22 48 31 17 8
44 27 60 41 17 14 36 26 42 26 7 0 20 11 29 25 19 29 40 34 28 8z m898 -74
c73 -25 195 -84 221 -107 25 -22 21 -35 -5 -18 -40 24 -77 28 -114 10 -55 -26
-149 -125 -184 -195 l-19 -37 -115 57 c-63 31 -115 61 -115 67 -1 21 48 119
76 152 37 43 120 91 160 91 18 1 61 -9 95 -20z m-1760 -220 c-53 -81 -68 -153
-32 -154 18 -1 15 -21 -5 -42 -10 -10 -15 -36 -15 -84 0 -63 5 -79 46 -164 26
-52 55 -103 65 -114 25 -27 50 -89 38 -96 -5 -4 -9 -2 -9 4 0 5 -18 31 -39 59
-86 108 -126 226 -126 372 0 97 2 110 31 170 29 62 61 106 71 97 2 -3 -9 -24
-25 -48z m2191 -32 c54 -32 93 -77 120 -136 16 -37 19 -59 14 -130 -8 -131
-28 -157 -62 -80 -42 93 -155 152 -283 148 -87 -3 -153 -41 -184 -106 -43 -91
-57 -59 -28 63 27 116 52 165 107 213 53 48 101 61 199 57 56 -2 82 -9 117
-29z m-3329 -158 c36 -43 35 -91 -3 -130 -33 -33 -52 -36 -72 -13 -25 30 -68
44 -136 44 -82 0 -159 25 -142 47 17 20 94 52 179 73 130 33 129 33 174 -21z
m2533 12 c24 -7 44 -19 47 -29 8 -24 91 -73 199 -118 49 -20 91 -43 94 -50 3
-7 -12 -34 -34 -60 -21 -26 -50 -72 -65 -103 -15 -31 -26 -47 -23 -36 8 35
-10 49 -63 48 -60 -1 -72 -7 -72 -38 0 -13 -4 -35 -9 -48 -9 -23 -12 -24 -83
-19 -90 5 -135 -12 -140 -55 -3 -27 -5 -28 -48 -24 -25 1 -46 4 -48 5 -1 2 2
24 7 50 6 35 18 56 43 79 19 18 46 52 61 77 32 56 77 225 77 292 0 27 3 47 8
45 4 -3 26 -10 49 -16z m-2923 -140 c3 -5 -9 -15 -27 -21 -23 -9 -27 -14 -15
-17 9 -2 30 3 47 11 16 9 41 16 56 16 21 0 25 -5 25 -30 0 -37 10 -38 38 -5
30 34 60 36 125 8 41 -18 47 -28 18 -36 -11 -2 -21 -15 -23 -28 -2 -20 -10
-25 -40 -27 -20 -2 -50 4 -67 12 -16 9 -52 16 -80 16 -63 0 -81 7 -81 32 0 17
-5 19 -45 12 -47 -7 -61 6 -27 25 13 8 14 11 2 11 -18 2 48 28 72 29 9 1 19
-3 22 -8z m3699 -41 c60 -29 210 -163 162 -145 -11 4 -32 12 -47 18 -22 9 -31
8 -47 -7 -19 -18 -22 -18 -56 -2 -40 19 -68 14 -102 -17 -21 -19 -24 -19 -41
-4 -24 22 -90 22 -114 0 -23 -21 -28 -16 -34 43 -15 140 117 194 279 114z
m-3129 -71 c28 -13 36 -35 36 -106 0 -49 -2 -53 -24 -53 -14 0 -36 4 -50 10
-34 13 -33 4 5 -31 17 -16 26 -29 20 -29 -23 0 -64 35 -77 66 -12 27 -11 38 7
85 27 70 38 78 83 58z m893 -1 c6 -7 18 -35 29 -61 10 -27 36 -69 57 -93 l39
-44 -38 0 c-23 0 -42 -6 -50 -17 -12 -17 -15 -17 -44 -1 -20 11 -65 20 -126
24 l-94 7 0 50 c0 56 -16 76 -62 77 -16 0 -28 5 -28 10 0 11 80 14 80 3 0 -5
5 -15 10 -23 8 -12 13 -11 33 8 13 12 54 31 92 42 37 11 70 22 73 25 9 8 19 6
29 -7z m-1329 -44 c32 -22 28 -43 -25 -112 -42 -53 -52 -61 -78 -59 -25 2 -30
6 -29 27 2 23 38 117 57 148 11 17 48 15 75 -4z m4192 -178 c162 -30 214 -47
218 -71 3 -15 -1 -17 -30 -12 -18 3 -59 14 -92 26 -86 31 -288 71 -354 71 -32
0 -66 6 -76 13 -26 19 168 3 334 -27z m-4857 5 c-35 -29 -40 -68 -12 -97 56
-60 328 -114 571 -114 123 0 140 2 157 19 20 20 20 20 -32 24 -43 3 -38 4 28
6 76 3 163 17 121 20 -19 1 -19 2 2 21 22 21 57 17 48 -6 -3 -9 7 -14 32 -16
52 -5 22 -15 -73 -24 -44 -4 -69 -10 -56 -12 19 -3 21 -6 10 -13 -19 -12 163
-11 276 1 198 23 399 89 444 147 12 14 21 20 21 13 0 -7 -17 -30 -39 -50 -31
-30 -58 -42 -147 -68 -142 -41 -236 -59 -397 -77 -72 -9 -138 -17 -144 -20 -7
-2 -13 -20 -13 -39 0 -33 2 -35 38 -39 20 -2 1 -4 -43 -5 l-80 -2 -3 37 c-1
20 -7 40 -13 44 -6 4 -70 10 -143 13 -303 16 -518 66 -580 135 -27 30 -25 79
5 102 31 24 51 24 22 0z m4163 -91 c6 -19 15 -56 18 -82 7 -48 7 -48 -22 -48
-36 0 -55 20 -81 89 -25 66 -16 84 38 79 31 -3 37 -8 47 -38z m-4622 -59 c-5
-5 -39 -18 -75 -29 -98 -30 -279 -119 -279 -137 0 -9 11 -20 25 -25 23 -9 514
-49 605 -50 29 -1 32 -2 17 -11 -9 -5 -21 -8 -26 -4 -5 3 -12 1 -16 -5 -3 -5
2 -10 13 -10 10 0 65 -4 123 -10 110 -10 576 -40 719 -45 l85 -3 -70 8 c-83 9
-432 39 -490 41 -28 1 -33 3 -15 6 14 3 138 -2 275 -11 138 -9 327 -21 420
-26 94 -6 231 -16 305 -23 127 -11 132 -12 81 -19 -30 -5 -56 -10 -58 -12 -2
-2 41 -6 94 -10 54 -3 163 -11 243 -16 80 -5 244 -16 365 -24 121 -9 261 -18
310 -21 50 -3 155 -10 235 -15 294 -20 522 -31 527 -26 8 8 -31 14 -157 25
l-115 9 110 -4 c253 -11 861 -56 870 -66 7 -7 0 -8 -20 -4 -38 8 -387 27 -392
22 -10 -10 329 -35 815 -60 113 -6 123 -2 32 13 -68 11 238 4 410 -9 331 -26
527 -33 613 -22 82 11 94 15 170 66 290 195 487 322 457 297 -35 -31 -35 -40
1 -21 13 7 19 7 19 0 0 -5 5 -10 12 -10 23 0 178 113 178 130 0 16 -37 23
-184 36 -82 7 -154 18 -160 24 -8 8 -7 10 4 6 8 -3 82 -10 164 -15 149 -10
196 -23 196 -55 0 -22 -629 -460 -700 -487 l-45 -17 -8 -108 c-4 -60 -9 -115
-12 -122 -2 -6 -20 -12 -39 -12 -27 0 -33 4 -31 18 2 9 6 61 9 115 l5 97 -107
0 c-59 0 -210 7 -337 15 -126 8 -333 22 -460 30 -126 8 -414 26 -640 40 -225
13 -444 27 -485 30 -41 3 -376 25 -745 50 -656 44 -1186 81 -1615 111 -733 51
-965 65 -1220 74 -157 6 -296 11 -310 13 -24 2 -25 -1 -28 -58 -1 -33 1 -78 6
-100 l8 -40 89 -6 c91 -7 348 -36 375 -43 21 -6 -206 3 -380 15 -79 5 -161 14
-182 20 -58 15 -66 37 -70 177 -3 115 -2 124 17 135 30 18 469 185 474 181 3
-3 0 -8 -5 -13z m3853 -29 c-107 -112 93 -231 480 -287 195 -28 732 -22 893
10 201 40 299 77 367 141 44 41 44 81 2 129 -17 19 -27 35 -22 35 17 0 83 -62
83 -79 0 -9 16 -32 35 -51 26 -25 35 -42 35 -66 0 -18 -4 -35 -9 -38 -5 -4 -7
3 -4 14 6 23 -12 49 -42 60 -15 6 -29 -1 -59 -27 -84 -76 -278 -134 -546 -163
-195 -21 -177 -15 -176 -63 1 -40 3 -42 36 -48 19 -4 -12 -6 -70 -7 -58 0 -97
2 -87 5 14 4 17 14 16 47 l-3 43 -140 7 c-313 14 -558 58 -698 125 -87 42
-158 104 -158 139 0 26 38 82 63 92 33 13 33 12 4 -18z m-763 -178 c24 -9 20
-27 -13 -58 -29 -28 -31 -28 -107 -20 -45 5 -79 14 -81 21 -3 7 8 24 23 38 23
22 36 25 95 25 37 0 74 -3 83 -6z m-1936 -426 c99 -49 99 -123 0 -212 -58 -53
-63 -66 -24 -66 36 0 83 -36 102 -79 30 -64 47 -55 83 44 12 33 41 104 64 158
37 88 44 98 64 94 13 -2 31 2 40 9 10 7 26 14 36 14 9 0 17 5 17 10 0 6 5 10
10 10 6 0 10 -10 10 -23 0 -13 4 -27 9 -32 4 -6 14 -50 20 -100 19 -134 28
-165 51 -165 14 0 20 -7 21 -22 0 -13 9 3 19 34 36 116 115 209 206 244 85 32
168 -11 166 -86 -1 -44 -22 -101 -34 -94 -6 4 -13 1 -17 -5 -13 -21 -40 0 -47
35 -8 45 -33 45 -79 -1 -47 -47 -76 -107 -82 -169 -4 -43 -1 -56 18 -80 19
-24 27 -28 60 -23 20 3 64 23 98 46 34 23 61 40 61 37 0 -3 -4 -16 -10 -30 -7
-20 -6 -26 4 -26 23 0 56 46 61 86 9 75 45 259 56 287 9 21 14 25 25 16 11 -9
15 -7 20 5 4 11 13 15 25 11 11 -4 19 -2 19 4 0 19 15 12 26 -14 9 -18 9 -41
-1 -92 -7 -37 -12 -69 -11 -70 1 -1 31 23 66 54 102 86 170 136 177 129 4 -3
22 8 40 26 18 17 33 27 33 22 0 -6 -13 -23 -30 -39 -34 -33 -40 -51 -11 -35
27 14 36 13 22 -4 -6 -7 -9 -20 -6 -28 5 -14 -27 -48 -120 -127 -22 -19 -57
-49 -78 -68 l-38 -34 97 -120 c53 -66 99 -118 101 -115 2 2 -1 13 -8 23 -12
20 -4 102 8 89 3 -3 12 -1 20 5 7 6 13 8 13 4 0 -4 6 -3 13 3 10 9 16 4 26
-23 8 -23 21 -37 37 -41 58 -15 149 22 149 61 0 12 -30 33 -94 66 -108 56
-124 69 -141 110 -25 59 19 125 119 178 128 68 241 43 241 -54 0 -29 -28 -90
-37 -81 -3 3 -12 -2 -19 -12 -13 -16 -13 -16 -14 0 0 11 -5 15 -15 12 -11 -5
-15 1 -15 25 0 36 -11 38 -70 15 -39 -16 -66 -46 -56 -62 3 -5 40 -26 82 -48
43 -21 97 -57 121 -80 35 -33 43 -47 43 -77 0 -41 -42 -97 -93 -124 -77 -39
-229 -82 -204 -56 7 6 -84 53 -92 47 -2 -1 19 -31 45 -65 50 -65 47 -67 -24
-12 -47 36 -75 44 -49 15 27 -29 20 -35 -14 -12 -24 18 -39 21 -77 17 -42 -5
-44 -5 -19 5 15 7 27 16 27 21 0 5 -24 32 -53 60 -29 29 -74 75 -99 104 l-45
52 -17 -75 c-9 -41 -16 -83 -16 -94 0 -10 -5 -22 -11 -26 -8 -4 -9 0 -4 15 3
11 2 21 -3 21 -10 0 -27 -37 -35 -75 -3 -13 -5 -8 -6 12 -2 50 -10 66 -28 51
-14 -11 -15 -5 -11 55 2 37 2 67 0 67 -3 0 -40 -33 -83 -74 -91 -88 -120 -98
-190 -67 -59 26 -106 79 -121 137 -9 32 -17 44 -31 44 -15 0 -17 -5 -12 -37 4
-21 11 -54 16 -73 12 -46 11 -53 -3 -44 -8 5 -10 -7 -5 -47 5 -52 5 -53 -8
-24 -8 17 -14 36 -15 44 0 10 -3 11 -14 2 -11 -10 -16 -6 -24 16 -8 20 -11 23
-11 9 -2 -34 -15 -6 -31 62 -18 75 -17 75 -122 51 -45 -10 -47 -12 -68 -70
-12 -32 -28 -59 -35 -59 -7 0 -19 -13 -27 -30 -17 -38 -24 -38 -32 2 -6 30 -7
31 -21 12 -19 -25 -19 -10 1 56 11 38 13 55 5 58 -6 2 -8 9 -5 15 4 7 -17 -11
-47 -40 -30 -28 -85 -72 -122 -96 -38 -25 -64 -46 -57 -49 6 -2 -18 -18 -54
-35 -36 -17 -66 -27 -66 -22 0 22 -30 6 -36 -18 -9 -44 -12 -50 -13 -25 -1 14
-6 22 -13 20 -8 -3 -15 -30 -18 -69 l-5 -64 -9 58 c-5 31 -12 57 -17 57 -5 0
-9 -7 -9 -15 0 -8 -4 -15 -10 -15 -5 0 -10 7 -10 15 0 18 3 17 -38 6 -20 -6
-32 -6 -32 0 0 5 5 9 10 9 6 0 10 5 10 10 0 6 -12 10 -27 10 l-27 0 22 16 c26
18 29 39 5 30 -24 -8 14 23 56 46 30 17 31 19 31 90 0 40 3 90 6 111 5 30 4
37 -10 37 -15 0 -21 16 -18 53 1 9 -4 17 -11 17 -6 0 2 9 20 21 25 16 34 31
42 70 6 28 11 65 11 84 l0 34 -57 -24 c-32 -13 -62 -20 -67 -17 -6 3 -5 7 2
10 20 6 14 32 -8 32 -10 0 -43 -9 -71 -20 -72 -29 -71 -19 2 15 55 27 107 65
65 49 -24 -9 -19 11 7 28 36 24 152 67 219 83 90 20 206 13 266 -17z m-1423
-213 c8 -99 22 -261 30 -360 13 -153 21 -261 48 -617 2 -27 1 -48 -3 -48 -4 0
-10 33 -14 73 -3 39 -10 115 -16 167 -20 205 -70 880 -70 948 0 68 10 -1 25
-163z m3899 123 c4 -24 14 -94 21 -156 16 -125 19 -134 43 -130 11 2 16 -3 14
-14 -6 -36 16 -16 33 30 26 68 55 111 114 165 88 82 197 117 275 87 31 -11 59
-63 51 -93 -16 -56 -28 -77 -46 -77 -11 0 -19 -5 -19 -10 0 -6 -8 -5 -20 2
-12 8 -20 24 -20 40 0 52 -68 30 -142 -48 -96 -98 -105 -244 -17 -244 44 0
129 47 129 72 0 4 -20 8 -45 8 -33 0 -45 4 -46 15 -4 67 -4 69 30 76 17 4 75
10 127 14 l94 7 0 -35 c0 -20 -4 -38 -9 -41 -9 -6 -17 -29 -67 -191 -20 -67
-29 -85 -35 -70 -6 17 -9 15 -23 -17 -9 -21 -16 -44 -16 -53 0 -8 -4 -15 -10
-15 -6 0 -7 18 -3 45 4 31 2 45 -6 45 -6 0 -11 -7 -11 -16 0 -8 -4 -13 -9 -10
-4 3 -5 25 -1 48 5 24 7 44 6 45 -1 1 -28 -11 -60 -26 l-58 -29 -46 20 c-81
35 -132 98 -132 163 0 19 -5 25 -23 25 -22 0 -23 -2 -16 -52 12 -82 11 -116
-2 -98 -8 11 -9 -1 -5 -43 7 -62 -7 -72 -18 -13 -4 23 -11 33 -20 30 -7 -3
-18 5 -24 18 -6 13 -11 17 -11 11 -1 -7 -5 -13 -10 -13 -5 0 -12 21 -16 48
-14 99 -8 94 -89 86 -39 -4 -78 -10 -86 -14 -9 -5 -29 -36 -45 -69 -16 -34
-31 -57 -35 -52 -9 15 -25 0 -49 -44 -20 -37 -21 -38 -16 -10 5 32 -12 71 -22
48 -2 -7 -8 -13 -13 -13 -5 0 2 26 15 58 20 49 21 58 9 65 -12 7 -13 12 -3 23
9 11 9 14 -1 14 -10 0 -10 3 -1 14 9 11 9 16 0 21 -15 10 8 25 37 25 20 0 37
30 142 242 2 4 -9 6 -25 3 -15 -2 -65 -9 -109 -16 l-81 -11 -16 -57 c-8 -31
-25 -99 -37 -151 -38 -163 -58 -229 -60 -195 -1 29 -1 29 -16 10 -9 -11 -25
-38 -36 -60 l-19 -40 6 47 c7 51 -1 80 -16 57 -18 -30 -19 4 -4 97 9 55 22
124 30 154 7 30 16 70 19 89 l6 34 -40 -7 c-22 -3 -59 -9 -82 -13 -35 -5 -40
-4 -35 9 3 9 1 20 -5 26 -8 8 -8 15 1 26 9 11 9 15 -1 19 -10 4 -10 8 2 20 9
10 47 21 95 27 44 6 91 16 105 22 32 13 263 20 293 9 l22 -9 -25 -10 -25 -9
24 -8 25 -8 -30 -12 -29 -12 38 -4 c35 -5 39 -3 59 33 16 28 26 37 40 32 18
-5 84 13 103 28 17 15 22 8 29 -34z m1094 -67 c2 -6 19 -11 38 -11 49 0 42
-18 -11 -26 -48 -7 -66 -21 -45 -34 17 -11 -8 -17 -95 -25 -175 -14 -172 -14
-178 -43 -3 -15 -9 -35 -13 -45 -6 -17 -1 -19 62 -17 38 1 83 2 99 1 28 -2 29
-2 10 -13 -19 -12 -19 -12 5 -18 25 -7 25 -7 -10 -23 -26 -11 -30 -16 -15 -17
l20 -1 -20 -9 c-11 -4 -59 -11 -107 -15 l-86 -7 -13 -47 c-7 -25 -12 -48 -11
-49 1 -2 71 -3 155 -3 86 1 159 -3 167 -9 12 -8 9 -10 -13 -10 -16 0 -26 -4
-22 -10 3 -5 36 -10 73 -11 82 -1 72 -5 -31 -14 -42 -4 -75 -11 -71 -16 3 -5
17 -9 31 -9 15 0 24 -2 22 -4 -2 -2 -76 -10 -164 -16 -88 -7 -172 -18 -187
-25 -20 -10 -28 -10 -31 -1 -3 6 -9 0 -15 -14 -8 -18 -11 -20 -11 -7 -1 12 -9
17 -30 17 -23 0 -30 6 -36 28 -16 57 -14 71 8 74 27 4 63 106 44 123 -19 16
-9 73 14 80 20 7 30 25 43 77 5 22 2 27 -16 30 -16 2 -22 10 -21 28 2 78 42
98 197 99 60 1 112 4 115 7 10 10 145 -3 149 -15z m-2639 -566 c33 -10 69 -31
88 -50 33 -33 33 -35 19 -63 -16 -31 -65 -67 -133 -96 -42 -19 -56 -36 -30
-36 33 0 119 -33 147 -56 23 -20 30 -34 30 -62 0 -31 -8 -44 -53 -87 -60 -56
-108 -82 -241 -132 -61 -22 -78 -32 -51 -27 63 9 38 -2 -67 -30 -54 -15 -106
-29 -115 -32 -10 -2 0 4 22 15 l40 20 -35 -6 c-76 -13 -103 -28 -116 -64 l-12
-34 -1 33 c-1 30 -3 31 -21 20 -11 -7 -23 -28 -26 -48 -16 -100 -24 -114 -19
-37 4 70 3 78 -12 75 -9 -2 -20 -14 -24 -28 -6 -23 -9 -21 -13 13 -2 12 -18
13 -71 3 -23 -5 -27 -4 -17 6 7 7 42 14 80 16 37 2 87 11 112 19 25 8 107 33
183 54 140 40 302 98 294 105 -2 2 -35 -7 -72 -21 -61 -22 -74 -23 -109 -13
-23 6 -46 15 -53 20 -6 5 -47 -1 -101 -17 -50 -14 -95 -25 -100 -25 -6 0 -1
17 9 37 10 21 19 46 18 58 0 11 -3 14 -6 8 -3 -8 -25 -13 -59 -13 -49 0 -54
-2 -54 -22 0 -13 -3 -34 -7 -47 -5 -18 -3 -22 7 -16 8 5 11 3 8 -5 -4 -14 -19
-20 -98 -41 -35 -9 -41 -13 -26 -19 13 -4 16 -9 8 -14 -6 -3 -9 -12 -6 -19 3
-10 -5 -12 -33 -9 -33 4 -35 6 -15 13 24 9 30 29 10 29 -22 1 23 22 71 35 42
10 46 14 54 51 5 21 18 68 28 103 23 77 23 81 2 81 -15 0 -16 2 -3 10 13 8 12
10 -2 10 -23 0 -23 19 -1 27 15 6 14 7 -3 14 -20 7 -21 7 36 28 20 7 31 25 53
86 l27 78 -37 -7 c-53 -10 -122 -16 -100 -10 23 7 22 21 -3 29 -19 6 -18 8 8
31 l27 24 -30 -6 c-29 -6 -29 -5 -10 9 11 8 63 24 115 36 123 26 402 24 489
-4z m866 -4 c39 4 108 8 155 8 l85 -1 -50 -13 c-43 -11 -46 -13 -20 -15 26 -1
27 -3 10 -10 -29 -13 31 -12 210 1 104 8 161 8 185 1 26 -7 29 -10 13 -11 -36
-2 -27 -21 10 -22 29 -1 27 -3 -23 -19 -42 -14 -48 -19 -27 -19 15 -1 27 -5
27 -10 0 -5 -59 -14 -130 -21 l-131 -13 -19 -38 c-11 -21 -20 -41 -20 -45 0
-4 39 -4 88 -1 48 4 96 2 107 -3 19 -8 19 -9 -3 -9 -29 -1 -19 -21 11 -22 20
-1 21 -2 2 -6 -11 -3 -31 -10 -45 -16 l-25 -10 25 -7 c18 -5 2 -9 -55 -14
-144 -12 -142 -12 -165 -63 -11 -25 -18 -48 -16 -50 2 -2 69 0 148 5 79 5 164
6 188 2 39 -6 40 -8 13 -9 -18 0 -33 -5 -33 -10 0 -12 36 -20 95 -22 40 -2 35
-3 -30 -9 -44 -4 -93 -11 -109 -15 -21 -6 -27 -5 -22 4 4 6 16 11 27 11 11 0
17 5 14 10 -3 6 -15 10 -26 10 -12 0 -17 5 -14 10 5 8 -37 9 -134 4 l-140 -7
8 31 c11 36 7 42 -31 42 -17 0 -27 4 -23 10 3 6 0 10 -8 10 -15 0 -37 -48 -37
-81 0 -10 -13 -25 -31 -34 -23 -12 -28 -19 -20 -29 13 -16 4 -26 -22 -26 -17
0 -18 2 -6 16 10 13 10 17 -1 24 -10 6 -4 11 20 17 29 8 36 16 51 58 22 63 23
79 5 72 -15 -6 -17 27 -2 51 5 8 1 10 -11 7 -10 -3 1 4 24 15 34 17 45 28 54
61 10 33 10 42 0 49 -8 4 -10 13 -7 19 4 6 2 11 -4 11 -6 0 -8 5 -4 11 4 8 -3
9 -22 6 -16 -3 -59 -9 -95 -12 l-67 -6 -62 -167 c-79 -208 -109 -281 -109
-262 0 8 7 33 15 55 28 73 53 159 49 164 -3 2 -5 -2 -5 -9 0 -9 -12 -11 -44
-8 -24 3 -48 3 -54 -1 -16 -10 -38 -62 -56 -134 -10 -37 -22 -70 -27 -73 -15
-9 -11 9 52 192 81 237 79 228 43 221 -16 -3 -49 -9 -74 -12 -25 -3 -58 -8
-75 -11 -28 -5 -29 -4 -12 10 18 14 18 15 -3 26 l-21 11 23 19 c19 17 21 21 8
29 -22 15 21 28 141 41 57 7 109 16 114 20 14 11 58 17 70 9 6 -3 42 -3 80 2z
m1015 -19 c19 -9 37 -26 39 -37 2 -11 8 -23 14 -27 17 -11 -28 -99 -47 -92 -9
3 -17 -3 -21 -15 -3 -12 -11 -19 -16 -15 -5 3 -7 9 -4 14 3 5 1 11 -4 14 -5 4
-13 1 -18 -6 -5 -9 -10 -1 -13 22 -6 44 -27 48 -103 20 -71 -27 -106 -54 -91
-70 6 -6 59 -29 117 -50 134 -50 221 -93 241 -122 18 -25 21 -74 6 -83 -5 -3
-10 -15 -10 -26 0 -10 -6 -19 -12 -19 -7 0 -22 -8 -33 -16 -19 -15 -15 -15 45
-9 36 3 77 8 93 11 15 3 27 1 27 -4 0 -5 -48 -14 -107 -20 -94 -10 -124 -18
-236 -66 -70 -29 -127 -57 -125 -61 2 -4 -23 -17 -55 -30 -85 -35 -101 -39
-92 -25 9 15 -18 8 -85 -22 -25 -11 -61 -26 -80 -33 -19 -7 -52 -20 -72 -29
-70 -30 -39 -5 38 30 42 20 74 38 71 40 -2 3 -80 -20 -172 -51 -92 -31 -169
-54 -171 -52 -3 3 16 13 43 22 26 10 73 28 103 40 80 33 206 66 224 59 9 -3
16 -2 16 4 0 6 8 8 18 6 18 -5 248 75 342 119 l55 26 -40 0 c-22 0 -59 6 -81
15 -41 15 -41 15 -160 -35 -171 -73 -226 -97 -254 -114 -61 -37 -143 -76 -153
-72 -13 4 154 86 412 203 212 97 271 129 271 150 0 16 -41 37 -195 95 -116 45
-165 80 -165 121 0 61 89 132 225 180 93 32 164 36 215 10z m-1471 -14 c-1 -7
1 -21 6 -31 5 -11 -12 -70 -48 -170 -30 -83 -60 -170 -67 -192 -22 -69 -49
-131 -50 -111 0 10 11 50 25 88 14 38 25 73 25 77 0 4 -24 9 -52 10 -64 2 -69
-3 -98 -120 -11 -45 -22 -85 -25 -87 -13 -14 -1 46 35 173 77 270 115 369 130
345 7 -12 15 -11 46 3 27 13 39 15 44 7 5 -8 9 -7 13 4 8 19 19 21 16 4z
m-2099 -64 c6 -6 10 -24 8 -40 -4 -35 -22 -39 -115 -29 l-63 7 0 37 c0 21 2
40 4 42 9 9 156 -7 166 -17z m-247 -98 c4 -6 6 -24 5 -41 -3 -25 -8 -31 -33
-35 l-30 -5 33 -14 c29 -12 32 -18 32 -54 l0 -40 -82 7 c-44 4 -85 9 -90 12
-4 3 -8 21 -8 40 0 34 0 34 45 34 57 0 58 16 3 27 -37 7 -43 12 -46 37 -6 54
0 58 85 50 43 -4 81 -12 86 -18z m245 -18 c22 -22 14 -67 -13 -80 l-25 -11 23
-11 c27 -14 37 -73 13 -82 -9 -3 -48 -2 -88 3 l-73 8 -3 37 -3 37 48 3 48 3
-45 15 c-42 14 -45 18 -48 53 l-3 37 78 0 c48 0 84 -5 91 -12z m4685 -144 c35
-6 37 -8 37 -45 l0 -39 -57 0 c-32 0 -75 3 -95 6 -35 6 -38 9 -38 39 0 17 3
35 7 38 8 9 96 9 146 1z m-2428 -213 c-8 -25 -15 -47 -15 -50 0 -3 152 -7 338
-8 185 -1 351 -5 367 -11 19 -6 -72 -7 -260 -4 -302 5 -575 -7 -795 -34 -134
-17 -355 -60 -380 -75 -10 -6 -5 -7 15 -4 319 52 792 96 910 84 33 -3 161 -5
285 -3 237 2 231 1 -80 -16 -222 -13 -384 -31 -525 -60 -95 -19 -133 -20 -84
-2 48 18 254 55 348 62 l96 7 -105 1 c-148 2 -413 -24 -690 -68 -102 -17 -203
-30 -225 -30 -38 1 -39 2 -20 16 57 43 349 97 669 123 60 5 112 13 116 18 11
13 30 88 31 124 l1 34 9 -30 c6 -21 4 -43 -6 -74z m2415 91 c43 -7 45 -8 45
-42 0 -31 -3 -35 -30 -38 -16 -2 -58 -1 -92 3 l-63 7 0 39 0 39 48 -1 c26 0
67 -4 92 -7z m-5396 -67 c-17 -43 41 -58 293 -80 95 -8 189 -18 210 -24 21 -5
72 -12 113 -16 41 -3 116 -10 165 -15 50 -5 236 -19 415 -32 179 -13 315 -24
303 -26 -13 -2 -168 6 -345 17 -532 34 -806 50 -943 53 -128 3 -130 3 -133
-19 -5 -34 -39 -30 -47 6 -3 17 -16 33 -31 40 -50 23 -64 10 -64 -57 0 -64
-18 -21 -21 49 -3 76 2 86 45 105 40 17 47 17 40 -1z m5171 -34 c26 -5 30 -10
30 -41 0 -35 0 -35 -50 -38 -79 -4 -129 9 -133 37 -7 43 4 51 65 50 32 -1 72
-4 88 -8z m264 -25 c7 -8 11 -27 9 -43 l-3 -28 -84 2 c-96 3 -118 15 -107 57
6 25 8 26 90 26 61 0 87 -4 95 -14z"/>
<path d="M205 2158 c2 -60 7 -113 11 -118 5 -4 24 -11 42 -15 l32 -7 0 89 c0
116 -4 128 -50 145 l-37 15 2 -109z"/>
<path d="M1625 1494 c-11 -3 -30 -7 -42 -9 -22 -5 -24 -14 -50 -189 l-5 -38
63 35 c133 75 202 159 152 185 -23 12 -92 21 -118 16z"/>
<path d="M2469 1053 c-15 -4 -74 -133 -61 -133 4 0 41 11 82 25 93 32 185 77
184 90 -2 19 -154 32 -205 18z"/>
<path d="M2435 813 c-71 -9 -70 -7 -106 -112 -18 -55 -31 -102 -28 -106 10 -9
215 62 288 100 87 46 116 72 101 90 -21 25 -159 40 -255 28z"/>
</g>
</svg>
