<?xml version="1.0" standalone="no"?>
<!DOCTYPE svg PUBLIC "-//W3C//DTD SVG 20010904//EN"
 "http://www.w3.org/TR/2001/REC-SVG-20010904/DTD/svg10.dtd">
<svg version="1.0" xmlns="http://www.w3.org/2000/svg"
 width="720.000000pt" height="544.000000pt" viewBox="0 0 720.000000 544.000000"
 preserveAspectRatio="xMidYMid meet">
<metadata>
Created by potrace 1.16, written by Peter Selinger 2001-2019
</metadata>
<g transform="translate(0.000000,544.000000) scale(0.100000,-0.100000)"
fill="#000000" stroke="none">
<path d="M3245 5321 c-60 -16 -146 -43 -189 -61 -155 -65 -330 -204 -416 -330
-75 -111 -112 -209 -77 -207 31 1 45 -4 51 -19 14 -36 -53 -63 -71 -29 -8 13
-12 13 -31 -5 -19 -18 -24 -35 -36 -119 -2 -14 2 -34 9 -45 7 -12 13 -46 13
-76 0 -48 -7 -65 -51 -140 -44 -72 -52 -93 -55 -145 -8 -119 32 -233 111 -321
37 -40 65 -59 131 -88 46 -20 108 -41 138 -47 29 -6 62 -13 73 -15 11 -2 40
-23 65 -45 40 -36 43 -42 27 -51 -10 -5 -33 -22 -51 -38 l-32 -29 -45 21 c-54
24 -240 44 -266 29 -14 -8 -4 -10 42 -11 128 -1 283 -44 298 -84 6 -15 1 -16
-38 -10 -29 4 -45 3 -45 -4 0 -11 15 -17 71 -26 21 -4 43 -14 50 -23 13 -15 9
-16 -41 -10 l-55 6 30 -25 c17 -13 29 -31 27 -39 -2 -8 3 -15 10 -15 27 0 -9
-19 -42 -22 -40 -3 -43 -17 -9 -36 21 -12 10 -13 -81 -9 -157 8 -153 4 -154
119 -1 103 -7 118 -56 138 -17 7 -30 18 -30 26 0 7 -9 16 -21 19 -23 8 -39 42
-39 86 0 17 -13 49 -30 74 -16 24 -30 50 -30 57 0 11 -2 11 -9 0 -6 -11 -14
-6 -31 18 -13 18 -44 57 -71 87 -56 64 -62 90 -50 218 4 50 5 98 2 107 -3 9
-34 35 -68 57 -35 22 -63 45 -63 50 0 5 -11 12 -24 15 -30 7 -56 32 -56 53 0
11 10 6 31 -16 17 -18 33 -30 36 -27 7 6 -35 66 -47 66 -4 0 -11 11 -14 25 -4
14 -13 25 -21 25 -7 0 -17 9 -20 20 -3 11 -10 20 -15 20 -20 0 -60 87 -60 131
0 32 -12 68 -45 134 -25 50 -45 97 -45 106 0 9 -6 22 -14 28 -18 15 -66 4 -66
-15 0 -8 -4 -14 -8 -14 -11 0 -52 -39 -52 -49 0 -5 9 -11 20 -14 23 -6 28 -48
7 -66 -11 -8 -13 -38 -11 -123 2 -62 5 -124 6 -137 3 -21 -3 -26 -34 -34 -53
-13 -238 -189 -237 -226 l0 -26 16 23 c8 12 22 22 29 22 8 0 22 16 31 37 10
20 25 41 34 46 22 14 49 2 49 -22 0 -11 4 -22 8 -25 5 -3 7 16 4 42 -3 38 0
50 16 65 16 14 25 16 40 8 29 -15 92 -97 92 -119 0 -21 -89 -82 -120 -82 -34
0 -34 -37 -1 -77 32 -39 42 -64 16 -43 -8 7 -15 9 -15 4 0 -5 -11 4 -26 19
-14 15 -22 32 -18 39 7 10 -9 10 -65 -4 -23 -5 -61 -44 -61 -62 0 -16 214
-236 230 -236 10 0 18 -19 36 -87 35 -132 183 -386 256 -438 23 -16 65 -51 93
-76 67 -59 123 -81 200 -77 55 3 62 1 83 -24 30 -35 111 -60 295 -89 108 -17
146 -20 170 -12 44 15 234 7 278 -11 29 -12 38 -23 52 -68 33 -105 149 -262
215 -291 25 -11 22 -12 -38 -15 -49 -2 -67 1 -76 12 -12 17 -104 23 -104 7 0
-18 -33 -21 -57 -6 -15 10 -60 19 -121 23 l-97 7 -5 49 c-4 37 -11 52 -29 65
-24 15 -24 15 -14 -3 8 -14 5 -27 -12 -57 -21 -37 -97 -98 -122 -99 -7 0 -30
-19 -52 -43 -22 -23 -60 -53 -85 -66 -84 -42 -328 -92 -566 -117 -70 -7 -80
-14 -80 -56 0 -24 4 -27 38 -31 20 -2 1 -4 -43 -5 l-80 -2 -3 37 c-1 20 -7 40
-12 43 -5 3 -92 11 -192 18 -283 19 -465 64 -538 132 -27 25 -114 80 -127 80
-2 0 -1 -9 2 -20 4 -11 2 -20 -4 -20 -6 0 -11 16 -11 35 0 31 -3 35 -25 35
-39 0 -29 18 15 25 54 9 105 -2 90 -20 -9 -11 -5 -18 16 -31 25 -17 27 -17 40
0 11 15 10 22 -3 42 -16 26 -33 29 -123 25 -64 -4 -78 -12 -82 -52 -3 -33 37
-15 -448 -199 -200 -76 -242 -95 -264 -119 -17 -19 -18 -33 -11 -148 4 -70 11
-135 15 -143 5 -9 20 -22 34 -29 31 -17 25 32 81 -661 25 -311 48 -597 51
-635 l6 -71 -40 -18 c-23 -10 -51 -29 -63 -42 -19 -21 -21 -31 -17 -96 9 -119
32 -130 323 -153 105 -8 327 -24 495 -35 628 -42 1777 -121 2110 -145 978 -71
1717 -126 1816 -135 60 -5 354 -10 652 -10 l542 0 0 58 0 58 -377 23 c-208 12
-551 33 -763 47 -212 13 -398 24 -415 25 -16 1 -23 3 -14 6 14 3 352 -15 974
-53 237 -14 421 -14 605 1 42 3 49 2 30 -5 -19 -7 -13 -8 25 -4 27 3 78 19
113 35 91 41 213 119 205 132 -3 5 -1 7 5 3 5 -3 12 -3 14 2 3 7 76 51 205
123 18 10 33 13 35 8 3 -10 126 48 163 77 19 14 19 16 3 28 -24 18 -23 29 1
17 40 -22 32 -39 -32 -75 -34 -18 -185 -102 -335 -185 -150 -82 -300 -160
-332 -172 -33 -12 -57 -25 -54 -30 3 -5 1 -9 -4 -9 -5 0 -10 -25 -11 -55 l-2
-55 77 0 76 0 157 91 c433 253 492 290 501 315 6 14 10 54 10 89 0 61 -2 65
-35 93 l-36 29 26 324 c14 178 36 489 49 692 l24 367 30 28 c28 26 30 32 36
142 12 204 12 208 -14 235 -30 32 -75 39 -345 59 -121 9 -246 19 -277 22 l-58
6 0 53 c0 75 -12 101 -54 115 -43 14 -138 15 -163 2 -12 -7 -44 -4 -103 8 -86
18 -254 44 -367 55 -60 7 -63 8 -110 65 l-50 58 13 73 c10 56 11 100 3 179
-12 127 -38 178 -113 225 -44 27 -58 30 -131 31 -70 0 -84 3 -104 23 -24 24
-188 104 -255 123 -49 14 -56 22 -56 66 0 69 -107 190 -211 240 -95 45 -174
57 -251 37 -72 -18 -115 -43 -156 -89 -28 -32 -32 -33 -120 -38 -51 -3 -98
-11 -106 -17 -16 -13 -116 -41 -115 -32 0 3 37 33 82 66 45 34 104 88 132 122
50 61 50 61 105 62 45 1 64 7 105 34 27 19 69 46 93 61 55 35 124 128 146 200
28 87 20 233 -16 306 -31 62 -104 140 -178 191 -56 38 -100 110 -82 132 15 17
-42 115 -79 136 -15 8 -36 30 -46 47 -26 46 -137 141 -231 198 -153 91 -296
126 -516 126 -110 -1 -149 -5 -241 -29z m370 -251 c43 -11 80 -22 83 -25 3 -2
-9 -20 -27 -40 -30 -34 -71 -106 -71 -122 1 -4 12 12 25 37 13 25 39 63 57 84
l35 40 69 -39 c68 -38 172 -132 210 -190 29 -44 39 -177 34 -465 l-2 -135 -22
85 c-29 109 -64 177 -115 223 -36 32 -48 37 -91 37 -60 0 -142 -30 -298 -109
-202 -102 -408 -160 -520 -147 -93 11 -198 19 -226 18 -40 -2 -73 -36 -81 -83
-11 -67 35 -244 80 -303 13 -17 39 -65 58 -107 58 -128 143 -193 252 -192 49
0 77 8 150 41 126 57 152 62 310 62 156 0 234 14 322 57 128 63 182 161 184
332 l1 86 29 -110 c16 -60 29 -125 29 -143 0 -36 -24 -92 -40 -92 -6 0 -15
-11 -22 -25 -6 -13 -15 -22 -19 -19 -5 3 -9 -2 -9 -10 0 -9 -3 -16 -8 -16 -4
0 -23 -14 -42 -32 -19 -17 -51 -41 -70 -53 -19 -11 -53 -32 -75 -45 -22 -14
-44 -25 -50 -26 -5 0 -14 -2 -19 -2 -5 -1 -1 -11 8 -21 15 -17 20 -17 44 -5
15 7 41 25 57 40 17 14 43 33 60 41 60 32 135 107 161 160 27 57 44 68 44 28
0 -30 14 -31 60 -4 29 17 23 9 -30 -46 -68 -69 -175 -146 -297 -211 l-72 -39
-36 35 c-19 19 -43 51 -52 72 -9 21 -19 36 -21 33 -2 -2 6 -25 18 -50 12 -25
21 -47 19 -49 -9 -8 -168 -56 -204 -62 -22 -4 -48 -8 -59 -10 -28 -5 -118 17
-134 33 -8 8 -28 17 -44 20 -20 4 -27 10 -24 20 3 8 1 11 -4 8 -6 -3 -10 -18
-10 -33 0 -15 4 -22 8 -17 9 13 32 17 32 6 0 -5 20 -19 45 -31 39 -19 64 -22
167 -23 86 0 123 3 126 11 2 7 8 10 12 7 5 -3 35 3 67 14 32 11 61 17 66 14
13 -8 -66 -41 -154 -63 -209 -54 -400 -39 -564 43 -53 26 -151 109 -179 150
-108 160 -137 226 -182 410 -40 166 -27 319 42 487 81 199 307 400 519 461 89
26 287 25 390 -1z m801 -365 c18 -13 16 -14 -20 -15 -31 0 -45 -7 -72 -35 -46
-49 -58 -100 -59 -245 0 -105 4 -137 24 -200 20 -62 74 -170 86 -170 1 0 16 7
31 15 16 8 40 15 53 15 24 0 24 0 5 -22 -15 -18 -11 -17 19 6 58 43 55 24 -4
-23 -58 -46 -83 -50 -146 -22 -60 28 -114 134 -137 271 -13 78 -9 231 7 263 8
18 23 51 32 74 21 49 51 81 91 93 44 13 68 12 90 -5z m139 -121 c13 -14 35
-47 47 -73 20 -40 23 -61 22 -166 0 -99 -4 -128 -21 -165 -26 -57 -52 -81 -81
-74 -21 6 -20 7 10 28 59 39 72 78 73 201 0 104 -1 112 -29 155 -37 58 -76
100 -93 100 -8 0 -11 5 -8 10 12 19 56 10 80 -16z m-1975 -167 c0 -2 -11 -27
-25 -55 -22 -45 -25 -65 -25 -158 0 -92 4 -118 31 -198 37 -112 76 -176 143
-238 59 -56 45 -64 -42 -23 -29 13 -55 24 -57 24 -15 1 -63 32 -80 52 -17 19
-14 19 13 -4 49 -40 55 -33 22 23 -17 28 -42 88 -57 133 -24 71 -27 97 -27
194 1 62 -2 110 -6 108 -4 -3 6 24 23 59 16 35 39 69 51 74 22 11 36 14 36 9z
m1134 -153 c3 -9 6 -27 6 -40 0 -13 5 -24 11 -24 6 0 9 -12 7 -27 -3 -25 0
-28 22 -24 14 2 41 5 60 5 28 1 35 -3 36 -19 1 -11 5 -28 9 -38 4 -9 5 -25 3
-35 -3 -10 1 -23 9 -30 25 -24 23 -26 -102 -77 -49 -20 -122 -38 -137 -33 -7
3 -18 -1 -25 -7 -7 -7 -29 -16 -49 -20 -40 -7 -58 6 -48 37 2 9 0 19 -6 23 -5
3 -10 17 -10 31 0 13 -4 24 -9 24 -5 0 -11 9 -14 21 -4 16 2 24 30 36 20 8 47
13 61 10 20 -4 23 -2 17 17 -24 83 -35 130 -30 135 8 7 125 49 141 50 7 1 15
-6 18 -15z m-1514 -44 c40 -40 16 -129 -41 -149 -18 -6 -53 -11 -78 -10 l-46
0 30 14 c17 7 41 18 55 23 24 10 23 11 -12 11 -27 1 -45 9 -72 36 -66 64 -40
91 87 94 45 1 61 -3 77 -19z m815 -129 c3 -10 5 -23 4 -27 -6 -27 15 -44 53
-44 26 0 37 -4 32 -11 -3 -6 -19 -9 -35 -7 -19 3 -29 0 -29 -8 0 -15 17 -28
22 -16 1 5 22 6 46 4 35 -3 42 -8 42 -26 0 -12 5 -27 11 -33 6 -6 9 -21 7 -34
-2 -13 3 -29 11 -35 8 -6 12 -18 8 -27 -6 -15 -28 -18 -229 -31 -55 -3 -69 8
-88 69 -7 22 -16 48 -21 57 -16 31 -10 38 31 38 39 0 52 12 29 26 -6 3 -9 19
-7 35 3 17 -1 30 -9 33 -19 8 -16 44 5 49 9 3 38 5 64 6 38 1 48 -3 53 -18z
m-724 -238 c121 -126 148 -165 157 -229 10 -76 -7 -139 -53 -190 -33 -37 -35
-38 -29 -12 4 20 1 30 -15 40 -12 7 -21 16 -21 20 0 12 -33 47 -40 43 -4 -2
-15 19 -25 46 -10 28 -21 46 -25 40 -4 -8 -13 -5 -25 9 -10 11 -14 20 -10 20
5 0 0 6 -10 14 -11 8 -25 12 -32 9 -9 -4 -12 4 -9 26 3 29 2 30 -13 18 -9 -8
-26 -18 -39 -22 -33 -10 -42 22 -11 43 45 30 89 83 110 133 12 27 24 49 28 49
4 0 32 -26 62 -57z m2332 -28 c32 -8 76 -24 98 -36 91 -46 190 -165 188 -223
-2 -30 -2 -30 -6 -4 -2 15 -17 38 -33 51 -28 24 -30 24 -77 10 -99 -30 -169
-82 -229 -169 -27 -40 -47 -59 -62 -60 -20 -1 -20 -1 -2 3 11 2 29 22 40 43
l20 38 -65 37 c-36 20 -78 50 -93 67 -19 19 -44 33 -70 38 -36 6 -41 5 -46
-14 -8 -30 39 -120 82 -157 20 -17 28 -26 16 -21 -36 19 -92 89 -105 131 -10
33 -10 53 0 98 17 73 65 125 146 158 70 28 118 31 198 10z m-2834 -92 c14 -35
61 -62 118 -70 29 -4 40 -9 31 -14 -10 -7 -9 -9 5 -9 10 0 17 -8 17 -20 0 -27
21 -67 62 -117 18 -22 51 -64 73 -93 22 -29 59 -65 82 -80 56 -36 41 -50 -53
-50 -64 0 -76 3 -104 26 -47 40 -114 132 -160 220 -23 44 -48 86 -55 94 -20
23 -39 71 -40 108 -2 39 9 41 24 5z m2390 -138 c-50 -113 -35 -253 48 -444 5
-10 2 -12 -7 -6 -9 5 -11 4 -6 -4 4 -6 11 -9 15 -6 5 2 16 -4 26 -15 10 -11
13 -20 7 -20 -6 0 -12 6 -15 13 -3 9 -9 9 -27 -1 -29 -18 -46 -1 -90 83 -17
33 -28 49 -24 35 4 -14 17 -47 31 -73 13 -26 21 -53 17 -59 -4 -6 -3 -9 2 -6
5 3 18 -6 28 -21 19 -26 19 -26 0 -10 -32 26 -67 9 -174 -89 -57 -51 -114 -95
-129 -99 -16 -4 -49 2 -91 17 -39 14 -98 25 -147 28 -70 4 -82 7 -91 26 l-11
21 0 -21 c-1 -15 -10 -24 -28 -29 -16 -3 -43 -14 -61 -22 -32 -15 -34 -15 -60
9 -15 14 -37 31 -49 37 -19 10 -22 8 -25 -12 -5 -35 -21 -24 -50 34 -30 62
-45 135 -43 207 2 43 0 48 -12 37 -7 -8 -20 -12 -27 -9 -19 7 -29 -69 -17
-133 14 -70 63 -185 105 -242 19 -25 41 -64 50 -86 l17 -39 -26 24 c-41 38
-101 134 -125 198 -36 94 -53 221 -40 308 10 73 39 151 47 127 2 -7 -1 -21 -7
-32 -10 -19 -8 -21 20 -21 28 0 30 -2 24 -27 -5 -24 -2 -22 18 12 16 26 31 40
44 39 38 -2 100 -13 132 -25 20 -7 64 -10 107 -7 105 7 200 54 302 150 43 40
87 80 98 88 19 15 19 15 1 -14 -10 -15 -14 -27 -9 -24 57 26 83 44 79 54 -3 8
1 11 10 7 8 -3 14 1 14 8 0 11 2 11 8 2 6 -10 20 -5 55 17 26 17 51 30 56 30
5 0 14 7 21 15 24 29 29 14 9 -30z m833 -119 c85 -31 201 -91 217 -110 16 -19
12 -20 -26 -5 -51 19 -87 13 -139 -24 -53 -39 -134 -121 -134 -136 0 -5 -4
-21 -10 -35 l-9 -25 -113 55 c-62 31 -115 58 -117 60 -11 10 58 129 92 161 41
36 129 83 159 83 10 0 46 -11 80 -24z m428 -232 c60 -33 113 -100 131 -167 12
-44 5 -139 -12 -185 l-11 -27 -16 22 c-9 12 -27 39 -40 60 -13 21 -40 50 -62
65 -69 50 -215 73 -280 44 -42 -19 -108 -86 -126 -129 -16 -39 -18 -40 -22
-17 -14 83 83 312 125 296 8 -3 12 -2 9 3 -9 13 29 41 76 57 68 22 164 13 228
-22z m-730 -217 c33 -30 82 -58 155 -88 59 -24 109 -50 112 -56 3 -7 -11 -31
-29 -53 -19 -22 -40 -57 -46 -79 -14 -44 -25 -55 -64 -65 -26 -6 -28 -4 -28
23 0 40 -22 54 -82 52 -61 -1 -69 -7 -73 -56 -2 -20 -6 -40 -9 -43 -4 -3 -47
-6 -97 -6 -83 -1 -92 -3 -110 -25 -10 -13 -19 -32 -19 -42 0 -16 -6 -17 -52
-12 -29 3 -54 7 -56 8 -1 1 1 23 4 49 6 42 11 49 45 66 82 42 183 222 204 363
l7 45 45 -19 c25 -11 67 -39 93 -62z m712 -89 c54 -25 189 -141 177 -152 -4
-4 -20 1 -37 11 -30 17 -31 17 -62 -6 -29 -21 -33 -21 -49 -7 -26 24 -71 20
-101 -9 l-27 -25 -18 20 c-22 24 -81 27 -111 5 -12 -8 -24 -11 -28 -8 -3 3 -6
37 -6 74 0 65 1 68 37 99 35 31 39 32 103 28 41 -3 88 -15 122 -30z m-4758
-447 c-5 -5 -40 -19 -79 -30 -97 -30 -275 -118 -275 -137 0 -25 45 -34 258
-49 114 -8 248 -18 299 -21 51 -4 90 -10 88 -14 -2 -4 -28 -5 -57 -2 -84 7
-51 -6 43 -18 80 -10 608 -45 819 -54 l95 -5 -80 9 c-44 6 -174 18 -290 29
-115 10 -196 19 -180 20 32 1 426 -22 645 -39 74 -6 164 -11 200 -11 86 -1
282 -26 220 -28 -51 -1 -95 -21 -48 -21 25 0 734 -47 1068 -70 85 -6 236 -15
335 -20 99 -5 223 -12 275 -16 107 -7 116 5 12 17 -113 13 131 1 458 -22 162
-12 300 -26 305 -31 7 -7 3 -8 -10 -4 -24 7 -415 29 -421 24 -4 -5 481 -43
749 -59 181 -11 260 -8 140 6 -32 4 -62 8 -68 10 -22 8 357 -8 616 -26 320
-22 384 -23 482 -8 61 9 84 19 152 65 296 198 485 320 455 295 -39 -34 -39
-35 8 -22 20 6 30 6 27 0 -14 -21 18 -6 86 44 41 30 73 59 71 66 -1 7 2 10 8
6 5 -3 10 -2 10 3 0 19 -57 31 -194 41 -80 5 -143 15 -150 21 -8 9 -6 11 9 7
11 -4 85 -11 165 -17 144 -10 190 -24 190 -54 0 -22 -629 -460 -700 -487 l-45
-17 -7 -108 c-4 -60 -10 -114 -13 -121 -2 -7 -20 -13 -39 -13 -27 0 -33 4 -31
18 2 9 6 61 9 115 l5 97 -107 0 c-59 0 -210 7 -337 15 -603 40 -922 60 -1420
90 -225 14 -1315 86 -1795 120 -118 8 -377 26 -575 40 -198 14 -522 36 -720
50 -198 14 -496 30 -663 35 -166 6 -308 11 -315 13 -15 3 -21 -100 -10 -156
l8 -39 60 -3 c33 -3 94 -9 135 -15 41 -6 122 -17 180 -25 l105 -13 -125 4
c-216 9 -414 23 -453 34 -20 6 -43 21 -51 33 -14 23 -29 218 -20 254 6 23 45
42 229 111 72 27 159 60 195 74 63 24 83 27 64 9z m5624 -38 c7 -7 18 -13 23
-13 5 0 9 -10 9 -21 0 -12 16 -37 35 -56 26 -26 35 -42 35 -68 0 -19 -4 -36
-9 -39 -4 -3 -6 5 -4 18 4 16 -4 30 -27 49 l-31 27 -30 -35 c-52 -59 -198
-116 -379 -149 -69 -13 -322 -46 -353 -46 -5 0 -7 -19 -5 -42 3 -40 5 -43 38
-49 19 -4 -12 -6 -70 -7 -58 0 -97 2 -87 5 14 4 17 13 15 47 l-3 43 -140 7
c-422 20 -718 94 -819 206 -20 22 -36 47 -36 56 0 29 31 74 62 90 l32 17 -27
-32 c-114 -136 157 -264 637 -302 82 -7 179 -8 231 -4 50 4 135 7 190 6 271
-6 599 72 685 164 38 40 34 94 -10 141 -35 37 -35 37 -5 18 17 -10 36 -24 43
-31z m-2534 -169 c24 -9 20 -27 -13 -58 -29 -28 -31 -28 -107 -20 -45 5 -79
14 -81 21 -3 7 8 24 23 38 23 22 36 25 95 25 37 0 74 -3 83 -6z m-1941 -422
c60 -27 81 -60 74 -115 -5 -36 -15 -51 -66 -98 -61 -56 -66 -69 -27 -69 36 0
83 -36 102 -79 30 -64 47 -55 83 44 12 33 41 104 64 158 37 88 44 98 64 94 13
-2 31 2 40 9 10 7 26 14 36 14 9 0 17 5 17 10 0 6 5 10 10 10 6 0 10 -10 10
-23 0 -13 4 -27 9 -32 4 -6 14 -50 20 -100 19 -136 28 -165 52 -165 15 0 19
-5 16 -15 -4 -8 -2 -17 2 -20 5 -2 14 16 20 41 38 150 176 276 285 260 75 -12
104 -65 80 -146 -9 -31 -19 -48 -26 -44 -5 4 -13 1 -17 -5 -13 -21 -40 0 -47
35 -8 45 -33 45 -79 -1 -47 -47 -76 -107 -82 -169 -4 -43 -1 -56 18 -80 19
-24 27 -28 59 -23 21 3 62 21 91 41 64 43 72 44 59 11 -12 -33 8 -34 38 -2 16
17 27 57 47 174 29 175 39 203 66 196 11 -3 19 0 19 7 0 7 8 9 20 5 11 -4 20
-2 20 4 0 19 15 11 27 -14 9 -20 8 -40 -3 -92 -7 -37 -13 -68 -11 -69 1 -2 32
22 67 53 100 85 165 133 182 133 8 0 23 9 33 20 10 11 22 20 28 20 5 0 -5 -16
-22 -35 -36 -41 -39 -50 -12 -35 27 14 36 13 22 -4 -6 -7 -9 -20 -6 -28 5 -14
-34 -56 -115 -122 -19 -16 -54 -46 -78 -68 l-43 -39 97 -120 c53 -66 99 -118
101 -115 2 2 -1 13 -8 23 -12 20 -4 102 8 89 3 -3 12 -1 20 5 7 6 13 8 13 4 0
-4 6 -3 13 3 10 9 16 4 26 -23 8 -23 21 -37 37 -41 58 -15 149 22 149 61 0 12
-31 34 -100 70 -101 52 -145 94 -145 137 0 103 222 224 318 174 36 -18 52 -43
52 -80 0 -31 -20 -76 -33 -76 -5 0 -16 -8 -23 -17 -13 -17 -13 -17 -14 -1 0
11 -5 15 -15 12 -11 -5 -15 1 -15 25 0 36 -11 38 -70 15 -41 -17 -69 -50 -53
-64 4 -4 41 -25 82 -46 41 -22 94 -57 118 -80 35 -33 43 -47 43 -77 0 -41 -42
-97 -93 -124 -77 -39 -229 -82 -204 -56 7 6 -84 53 -92 47 -2 -1 18 -30 44
-63 25 -34 44 -61 42 -61 -2 0 -28 18 -57 40 -56 42 -85 53 -57 22 27 -29 20
-35 -14 -12 -24 18 -39 21 -77 17 -42 -5 -44 -5 -19 5 15 7 27 16 27 21 0 5
-24 32 -53 60 -29 29 -74 75 -99 104 l-45 52 -17 -75 c-9 -41 -16 -83 -16 -94
0 -10 -5 -22 -12 -26 -8 -5 -9 0 -6 14 4 12 3 22 -2 22 -8 0 -25 -40 -33 -75
-3 -11 -5 -5 -6 15 -1 19 -6 42 -11 50 -9 13 -11 13 -21 0 -8 -11 -9 4 -6 58
l4 74 -71 -70 c-69 -68 -119 -102 -150 -102 -9 0 -41 12 -72 27 -61 29 -96 72
-108 135 -7 41 -16 51 -34 39 -10 -6 -9 -25 3 -87 18 -93 18 -93 4 -74 -8 11
-9 1 -6 -40 5 -53 5 -54 -8 -25 -8 17 -14 36 -15 43 0 6 -4 12 -10 12 -5 0
-10 -6 -10 -12 -1 -7 -7 1 -15 17 -10 22 -14 25 -14 11 -2 -32 -12 -11 -30 61
-19 76 -17 75 -123 52 -45 -10 -47 -12 -68 -70 -12 -32 -28 -59 -35 -59 -7 0
-19 -13 -27 -30 -17 -38 -24 -38 -32 2 -6 30 -7 31 -21 12 -19 -25 -19 -10 1
56 11 38 13 55 5 58 -6 2 -8 9 -5 15 4 7 -17 -11 -47 -40 -30 -28 -85 -72
-124 -97 -38 -25 -63 -46 -55 -47 8 0 -16 -16 -54 -35 -76 -37 -80 -39 -71
-24 3 6 -1 10 -9 10 -9 0 -18 -12 -22 -27 -9 -44 -12 -50 -13 -25 -1 14 -6 22
-13 20 -8 -3 -15 -31 -18 -74 l-6 -69 -8 63 c-9 63 -21 80 -29 40 l-4 -23 -8
23 c-4 12 -8 22 -9 22 -1 0 -16 -4 -34 -9 -20 -6 -32 -6 -32 0 0 5 5 9 10 9 6
0 10 5 10 10 0 6 -12 10 -27 10 l-27 0 22 16 c26 18 29 39 5 30 -24 -8 14 23
56 46 30 17 31 19 31 90 0 40 3 90 6 111 5 30 4 37 -10 37 -15 0 -21 16 -18
53 1 9 -4 17 -11 17 -6 0 2 10 20 21 26 16 34 30 42 72 17 89 19 118 7 113
-96 -38 -116 -44 -121 -36 -3 6 -1 10 4 10 6 0 11 7 11 15 0 21 -30 19 -91 -5
-72 -29 -71 -19 2 15 55 27 107 65 65 49 -24 -9 -19 11 7 28 36 24 155 69 221
84 81 18 200 12 259 -14z m-1394 -512 c22 -261 43 -522 46 -580 4 -58 8 -116
11 -128 3 -13 1 -21 -4 -18 -10 6 -12 21 -46 416 -24 267 -56 713 -56 769 0
13 2 22 5 20 2 -3 22 -218 44 -479z m3871 453 c0 -4 7 -57 15 -118 9 -60 18
-129 21 -152 4 -33 9 -42 27 -45 15 -2 21 -9 19 -20 -6 -36 16 -16 33 30 66
175 260 301 389 252 31 -11 59 -63 51 -93 -16 -56 -28 -77 -46 -77 -11 0 -19
-5 -19 -10 0 -6 -8 -5 -20 2 -12 8 -20 24 -20 40 0 71 -119 2 -192 -111 -51
-80 -32 -181 33 -181 44 0 129 47 129 72 0 4 -20 8 -44 8 -48 0 -55 9 -48 61
4 29 4 29 180 45 l73 7 -5 -34 c-2 -19 -13 -59 -24 -89 -11 -30 -33 -95 -48
-145 -20 -65 -29 -84 -34 -70 -7 19 -7 19 -17 0 -6 -11 -14 -35 -18 -52 -10
-50 -26 -39 -18 12 4 29 2 45 -5 45 -6 0 -13 -8 -16 -17 -3 -10 -4 6 -2 35 2
28 2 52 1 52 -1 0 -23 -11 -49 -25 -54 -29 -71 -30 -119 -10 -74 31 -127 97
-127 160 0 20 -5 25 -23 25 -23 0 -23 -2 -16 -47 4 -27 8 -61 8 -78 1 -24 -1
-27 -10 -15 -8 11 -9 0 -6 -42 6 -63 -7 -79 -17 -23 -4 22 -11 32 -20 29 -7
-3 -18 5 -24 18 -6 13 -11 17 -11 11 -1 -7 -5 -13 -10 -13 -5 0 -12 21 -16 48
-14 100 -9 95 -84 87 -36 -3 -74 -9 -84 -11 -9 -3 -33 -36 -52 -72 -19 -37
-34 -61 -35 -54 -1 26 -21 10 -45 -35 -22 -41 -25 -43 -20 -18 5 32 -12 71
-22 48 -2 -7 -8 -13 -13 -13 -5 0 2 26 15 58 19 46 21 58 9 60 -17 4 -18 14
-2 30 9 9 9 12 -1 12 -10 0 -11 3 -2 14 9 11 9 16 0 21 -15 10 8 25 37 25 17
0 33 24 80 118 32 64 60 120 62 124 3 7 -25 5 -144 -14 l-71 -10 -16 -57 c-8
-31 -25 -99 -37 -151 -38 -163 -58 -229 -60 -195 -1 29 -1 29 -16 10 -9 -11
-25 -38 -36 -60 l-19 -40 6 47 c7 51 -1 80 -16 57 -18 -30 -19 4 -4 97 9 55
22 124 30 154 7 30 16 70 19 89 l6 34 -40 -7 c-22 -3 -59 -9 -82 -13 -37 -5
-41 -4 -34 12 4 11 2 22 -6 26 -9 6 -9 11 1 22 9 12 9 16 -1 20 -10 4 -10 8 3
21 10 11 47 20 105 28 49 6 95 16 102 21 15 12 232 20 276 11 27 -6 28 -8 12
-19 -12 -10 -14 -15 -5 -20 8 -6 4 -12 -12 -21 -23 -13 -23 -13 16 -14 36 0
42 4 60 36 14 27 23 34 40 30 20 -5 87 13 101 27 10 9 24 9 24 0z m1098 -102
c2 -6 19 -11 38 -11 49 0 42 -18 -11 -25 -47 -8 -84 -34 -49 -36 40 -1 -22
-17 -92 -23 -178 -16 -171 -15 -177 -44 -3 -15 -9 -35 -13 -46 -6 -17 -2 -18
62 -16 83 3 134 0 117 -7 -19 -7 -16 -21 5 -26 12 -2 8 -8 -18 -19 -26 -12
-30 -17 -15 -18 l20 -1 -20 -9 c-11 -4 -59 -11 -107 -15 l-86 -7 -12 -42 c-6
-22 -11 -45 -11 -50 1 -5 70 -8 154 -7 88 1 158 -3 167 -9 11 -7 7 -10 -20
-10 -66 -1 -9 -20 65 -21 70 -2 63 -4 -53 -15 -60 -5 -79 -24 -25 -24 15 0 24
-2 22 -4 -2 -2 -76 -10 -164 -16 -88 -7 -172 -18 -187 -25 -20 -10 -28 -10
-31 -1 -3 6 -9 0 -15 -14 -8 -18 -11 -20 -11 -7 -1 12 -9 17 -30 17 -23 0 -30
6 -36 28 -16 57 -14 70 9 76 18 4 27 18 39 58 11 39 12 56 3 63 -18 16 -8 73
15 80 20 7 30 25 43 78 5 22 3 27 -13 27 -27 0 -29 8 -19 56 12 58 50 72 197
73 63 1 117 4 120 7 10 10 135 -3 139 -15z m-2641 -565 c150 -48 148 -127 -5
-200 -59 -28 -78 -46 -49 -46 33 0 119 -33 147 -56 23 -20 30 -34 30 -62 0
-31 -8 -44 -53 -87 -60 -56 -108 -82 -241 -132 -61 -22 -78 -32 -51 -27 63 9
38 -2 -67 -30 -54 -15 -106 -29 -115 -32 -10 -2 0 4 22 15 l40 20 -35 -6 c-80
-14 -104 -28 -117 -69 l-11 -39 -1 38 c-1 35 -2 36 -21 25 -12 -7 -23 -22 -25
-33 -2 -11 -8 -45 -14 -75 -10 -54 -10 -54 -6 23 4 70 3 78 -12 75 -9 -2 -20
-14 -24 -28 -6 -22 -9 -21 -13 9 -2 18 -12 20 -51 11 -22 -5 -41 -7 -44 -5 -9
9 49 24 105 26 32 2 77 9 99 17 22 8 103 32 179 53 133 38 300 98 293 106 -2
2 -34 -8 -70 -21 -60 -22 -67 -22 -68 -8 0 10 -3 12 -5 5 -4 -8 -13 -9 -29 -3
-12 5 -26 6 -29 3 -3 -4 -16 -1 -29 6 -18 10 -37 7 -110 -14 -104 -30 -115
-31 -94 -7 20 22 36 103 16 85 -7 -7 -32 -13 -55 -13 -48 0 -49 -1 -58 -53 -5
-29 -4 -37 5 -32 7 5 10 3 7 -5 -4 -14 -19 -20 -98 -41 -35 -9 -41 -13 -26
-19 13 -4 16 -9 8 -14 -6 -3 -9 -12 -6 -19 3 -10 -5 -12 -33 -9 -33 4 -35 6
-15 13 24 9 30 29 10 29 -22 1 23 22 70 34 l45 12 24 89 c12 50 25 100 29 113
5 17 2 22 -12 22 -16 0 -17 2 -4 10 13 8 12 10 -2 10 -23 0 -23 19 -1 27 15 6
14 7 -3 14 -20 7 -21 7 36 28 20 7 31 25 53 86 l27 78 -37 -7 c-53 -10 -122
-16 -100 -10 23 7 22 21 -3 29 -19 6 -18 8 8 31 l27 24 -30 -6 c-29 -6 -29 -5
-10 9 11 8 63 24 115 36 80 17 123 20 265 17 123 -2 184 -8 222 -20z m868 -5
c39 4 108 8 155 8 l85 -1 -50 -13 c-43 -11 -46 -13 -20 -15 26 -1 27 -3 10
-10 -29 -13 52 -12 217 1 137 11 243 5 188 -11 -24 -7 -24 -8 10 -16 l35 -8
-55 -17 c-41 -13 -48 -18 -27 -18 15 -1 27 -5 27 -10 0 -5 -59 -14 -130 -21
l-131 -13 -19 -38 c-11 -21 -20 -41 -20 -45 0 -4 39 -4 88 -1 48 4 96 2 107
-3 19 -8 19 -9 -3 -9 -29 -1 -19 -21 11 -22 20 -1 21 -2 2 -6 -11 -3 -31 -10
-45 -16 l-25 -10 25 -7 c18 -5 2 -9 -55 -14 -154 -13 -149 -11 -167 -64 -10
-25 -16 -48 -14 -50 2 -2 67 1 144 5 77 5 162 6 189 2 37 -5 40 -7 16 -8 -18
0 -33 -5 -33 -10 0 -12 36 -20 100 -22 50 -2 48 -3 -25 -9 -44 -4 -95 -11
-114 -15 -25 -6 -32 -5 -27 3 4 7 16 12 27 12 11 0 17 5 14 10 -3 6 -15 10
-26 10 -12 0 -17 4 -14 11 5 7 -34 8 -134 3 l-140 -7 8 31 c11 35 6 42 -26 42
-12 0 -23 5 -23 10 0 6 -6 10 -14 10 -14 0 -36 -49 -36 -81 0 -10 -13 -25 -31
-34 -23 -12 -28 -19 -20 -29 13 -16 4 -26 -22 -26 -17 0 -18 2 -6 16 10 13 10
17 -1 24 -10 6 -4 11 20 17 29 8 36 16 52 62 17 51 16 77 -2 66 -10 -6 -7 35
4 53 5 8 1 10 -11 7 -10 -3 1 4 24 15 34 17 45 28 54 61 10 33 10 42 0 49 -8
4 -10 13 -7 19 4 6 2 11 -4 11 -6 0 -8 5 -4 11 4 8 -3 9 -22 6 -16 -3 -59 -9
-95 -12 l-67 -6 -62 -167 c-83 -220 -113 -289 -104 -242 3 19 12 46 19 60 7
14 18 44 25 68 6 24 13 49 16 56 3 9 -9 12 -43 12 -63 -1 -77 -17 -109 -125
-24 -79 -44 -122 -44 -94 0 6 27 91 61 189 81 237 79 228 43 221 -16 -3 -49
-9 -74 -12 -25 -3 -58 -8 -75 -11 -28 -5 -29 -4 -12 10 18 14 18 15 -3 26
l-21 11 23 19 c19 17 21 21 8 29 -22 15 21 28 141 41 57 7 109 16 114 20 14
11 58 17 70 9 6 -3 42 -3 80 2z m1015 -19 c25 -12 36 -25 38 -45 2 -15 8 -25
13 -22 15 10 10 -13 -11 -55 -13 -25 -25 -37 -34 -34 -9 3 -17 -3 -22 -18 l-7
-23 -9 24 c-7 19 -11 21 -22 11 -12 -9 -15 -6 -18 22 -4 41 -21 45 -92 23 -66
-21 -116 -58 -100 -75 6 -6 59 -29 117 -50 134 -50 221 -93 241 -122 18 -25
21 -74 6 -83 -5 -3 -10 -15 -10 -26 0 -10 -6 -19 -12 -19 -7 0 -22 -8 -33 -16
-19 -15 -15 -15 45 -9 36 3 77 8 93 11 15 3 27 1 27 -4 0 -5 -48 -14 -107 -20
-93 -11 -126 -20 -236 -66 -70 -29 -127 -57 -127 -62 1 -4 -31 -20 -72 -36
-83 -32 -81 -31 -73 -18 9 15 4 13 -117 -36 -159 -64 -158 -64 -158 -58 0 3
34 21 76 40 42 20 74 38 71 40 -3 3 -80 -20 -172 -51 -91 -31 -169 -55 -171
-52 -3 3 16 13 43 22 26 10 68 27 93 37 48 21 181 59 216 62 11 2 25 6 32 10
7 4 17 4 22 1 12 -8 153 39 295 98 83 35 95 42 70 45 -16 1 -53 9 -80 17 l-50
15 -175 -75 c-95 -41 -175 -73 -177 -71 -3 3 49 27 287 136 164 74 220 106
220 125 0 18 -48 42 -165 84 -202 71 -239 126 -148 215 99 96 304 153 393 108z
m-1513 -216 c-30 -83 -67 -187 -82 -231 -28 -83 -49 -122 -35 -64 4 19 17 61
29 93 23 64 25 77 14 75 -5 -1 -10 0 -13 1 -3 1 -24 3 -47 3 -50 2 -52 -2 -83
-125 -11 -45 -22 -84 -25 -86 -14 -14 -2 57 25 144 17 55 44 144 61 199 41
132 68 193 79 175 7 -11 15 -10 48 3 30 12 42 13 51 4 7 -7 12 -7 11 -2 -6 28
3 25 12 -4 8 -29 2 -53 -45 -185z m-2057 138 c6 -6 10 -24 8 -40 -4 -35 -22
-39 -115 -29 l-63 7 0 37 c0 21 2 40 4 42 9 9 156 -7 166 -17z m-247 -98 c4
-6 6 -24 5 -41 -3 -25 -8 -31 -30 -33 -37 -4 -36 -18 2 -25 28 -6 30 -10 30
-48 l0 -42 -82 7 c-44 4 -85 9 -90 12 -4 3 -8 21 -8 40 l0 34 50 0 c28 0 50 5
50 10 0 6 -6 10 -12 10 -7 0 -30 5 -50 11 -34 9 -38 13 -38 43 0 18 3 36 7 40
11 11 157 -5 166 -18z m235 -12 c17 -5 22 -14 22 -41 0 -29 -4 -36 -32 -45
l-33 -12 33 -8 c28 -8 32 -12 32 -44 0 -44 -11 -48 -102 -37 l-73 8 -3 38 -3
37 48 1 48 0 -45 17 c-41 16 -45 21 -48 55 l-3 37 68 0 c37 0 78 -3 91 -6z
m4686 -150 c46 -7 46 -7 46 -45 l0 -39 -64 0 c-35 0 -78 3 -95 6 -27 6 -31 11
-31 39 0 17 3 35 7 38 8 9 76 9 137 1z m264 -14 l52 0 0 -40 0 -41 -87 3 c-85
3 -87 4 -96 31 -15 45 -3 61 41 53 20 -3 61 -6 90 -6z m-268 -108 c43 -7 45
-8 45 -42 0 -31 -3 -35 -30 -38 -16 -2 -58 -1 -92 3 l-63 7 0 39 0 39 48 -1
c26 0 67 -4 92 -7z m-5397 -71 c-11 -42 67 -61 307 -76 52 -3 131 -13 175 -20
44 -8 100 -16 125 -19 79 -8 309 -27 545 -46 302 -25 112 -18 -400 14 -214 14
-453 26 -530 28 -139 3 -140 3 -143 -19 -5 -36 -40 -30 -50 9 -6 24 -16 34
-44 44 -43 15 -48 8 -48 -59 0 -29 -3 -38 -10 -31 -6 6 -10 43 -8 85 3 74 3
74 38 91 44 23 49 22 43 -1z m5191 -34 c12 -9 17 -23 14 -42 -3 -28 -6 -30
-53 -33 -79 -4 -129 9 -133 37 -7 45 3 51 81 51 44 0 80 -5 91 -13z m245 -21
c7 -8 11 -27 9 -43 l-3 -28 -84 2 c-96 3 -118 15 -107 57 6 25 8 26 90 26 61
0 87 -4 95 -14z m-1761 -34 c18 -4 -146 -7 -365 -7 -393 0 -549 -9 -768 -40
-104 -16 -329 -64 -323 -70 2 -2 118 12 258 31 286 39 488 56 635 53 55 -1
204 -2 330 -1 l230 0 -170 -8 c-259 -14 -493 -38 -633 -65 -147 -29 -139 -28
-126 -15 14 14 243 60 348 69 l91 8 -95 1 c-144 2 -386 -23 -683 -69 -108 -16
-212 -29 -230 -27 l-32 3 31 17 c96 52 436 106 809 128 159 9 637 4 693 -8z"/>
<path d="M204 2158 c3 -61 8 -114 13 -118 4 -4 22 -11 39 -14 28 -6 32 -4 37
21 5 27 -6 180 -14 187 -2 2 -21 11 -42 19 l-37 16 4 -111z"/>
<path d="M1625 1494 c-11 -3 -30 -7 -42 -9 -22 -5 -24 -14 -50 -189 l-5 -39
62 34 c85 47 170 124 170 154 0 14 -8 29 -19 34 -23 13 -89 21 -116 15z"/>
<path d="M2469 1054 c-8 -3 -27 -34 -41 -70 l-26 -66 24 6 c52 13 191 67 223
87 22 13 30 24 24 30 -11 11 -177 21 -204 13z"/>
<path d="M2435 813 c-71 -9 -70 -7 -106 -112 -18 -55 -31 -102 -28 -106 9 -9
180 50 271 94 98 47 134 76 118 96 -21 25 -159 40 -255 28z"/>
<path d="M1542 2868 c-7 -7 -12 -22 -12 -35 0 -16 -6 -23 -19 -23 -30 0 -176
-39 -225 -60 l-46 -19 -6 27 c-10 49 -13 52 -41 51 -15 0 -22 -3 -15 -6 20 -8
3 -23 -27 -23 -23 0 -30 -5 -34 -27 -6 -33 1 -53 19 -53 8 0 14 -7 14 -16 0
-9 3 -14 8 -12 4 2 32 15 62 30 64 31 91 37 97 22 2 -7 -16 -14 -45 -18 -31
-4 -56 -14 -68 -27 -18 -20 -18 -21 0 -34 10 -8 37 -16 59 -20 23 -4 92 -20
152 -36 134 -35 369 -55 454 -39 30 5 83 10 120 10 82 0 233 23 286 43 63 24
173 57 190 57 8 0 15 3 15 8 0 4 20 16 45 27 42 18 43 20 28 38 -16 17 -16 17
3 11 10 -4 22 -12 26 -18 5 -7 8 -7 8 2 0 33 -170 82 -357 103 -125 14 -510
13 -546 0 -26 -10 -27 -9 -27 19 0 30 -1 30 -53 30 -29 0 -58 -5 -65 -12z
m581 -151 c44 -19 47 -32 10 -51 -100 -51 -452 -50 -494 1 -17 20 -1 32 73 54
84 25 351 22 411 -4z"/>
<path d="M2680 2794 c-26 -10 -38 -23 -46 -50 -10 -32 -10 -35 6 -31 10 2 24
1 31 -4 10 -6 7 -9 -10 -9 -19 0 -22 -4 -18 -22 6 -22 5 -22 -8 -4 -13 17 -41
14 -30 -4 3 -4 -3 -6 -13 -3 -11 2 -26 -3 -35 -11 -8 -9 -23 -16 -32 -16 -10
0 -13 -5 -9 -12 4 -7 3 -8 -4 -4 -11 6 -148 -51 -140 -59 6 -6 102 22 170 49
80 32 87 32 58 1 -27 -29 -108 -57 -244 -85 -115 -23 -130 -24 -96 -5 25 14
25 14 -10 10 -19 -3 -75 -10 -125 -17 -84 -12 -87 -13 -45 -18 44 -5 44 -6
-26 -13 -91 -10 -127 -20 -132 -37 -4 -11 23 -12 149 -7 309 12 559 91 559
175 0 24 7 31 46 47 45 18 84 56 84 80 0 8 -8 11 -19 8 -11 -3 -28 0 -38 6
-17 10 -17 10 2 11 11 0 28 7 38 14 16 12 16 14 1 20 -21 8 -23 8 -64 -10z"/>
<path d="M1130 2538 c28 -29 147 -70 255 -90 40 -7 154 -12 265 -13 178 0 195
2 198 18 3 14 -4 17 -51 17 -64 0 -388 35 -467 50 -30 6 -84 15 -120 19 -36 5
-74 12 -85 16 -17 7 -16 4 5 -17z"/>
</g>
</svg>
