<?xml version="1.0" standalone="no"?>
<!DOCTYPE svg PUBLIC "-//W3C//DTD SVG 20010904//EN"
 "http://www.w3.org/TR/2001/REC-SVG-20010904/DTD/svg10.dtd">
<svg version="1.0" xmlns="http://www.w3.org/2000/svg"
 width="720.000000pt" height="544.000000pt" viewBox="0 0 720.000000 544.000000"
 preserveAspectRatio="xMidYMid meet">
<metadata>
Created by potrace 1.16, written by Peter Selinger 2001-2019
</metadata>
<g transform="translate(0.000000,544.000000) scale(0.100000,-0.100000)"
fill="#000000" stroke="none">
<path d="M1932 5380 c-51 -31 -64 -72 -48 -150 9 -44 20 -68 36 -80 13 -10 18
-19 12 -21 -7 -3 -5 -28 7 -79 10 -41 21 -97 25 -124 l8 -49 -35 22 c-21 13
-51 21 -77 21 -37 0 -48 -5 -70 -32 -17 -20 -46 -38 -75 -47 -40 -13 -50 -22
-59 -48 -8 -22 -27 -44 -61 -66 -79 -51 -77 -67 39 -300 54 -110 108 -204 125
-221 l30 -29 -20 -49 c-10 -27 -19 -58 -19 -69 0 -31 68 -233 117 -349 45
-106 77 -151 124 -175 16 -9 30 -28 37 -52 27 -91 126 -163 228 -167 53 -3 57
-5 80 -44 29 -49 59 -64 254 -132 147 -50 197 -59 218 -38 9 9 25 7 71 -7 40
-12 77 -16 112 -13 38 4 60 1 77 -10 13 -8 40 -18 60 -21 26 -5 38 -12 40 -26
8 -45 58 -154 97 -215 50 -77 82 -108 121 -119 22 -5 30 -14 32 -34 l3 -27
-74 0 c-57 0 -76 4 -81 15 -6 17 -106 22 -106 6 0 -18 -33 -21 -58 -5 -16 11
-57 18 -123 21 -98 6 -99 6 -100 32 0 26 -17 75 -18 55 -1 -6 -16 -31 -33 -55
-18 -24 -33 -48 -33 -54 0 -5 -19 -13 -42 -17 -51 -8 -79 -23 -115 -58 -61
-61 -255 -117 -519 -151 -96 -12 -180 -26 -186 -31 -7 -6 -13 -23 -13 -39 0
-24 4 -28 33 -32 17 -2 -2 -4 -43 -5 l-75 -2 -2 36 c-1 20 -3 38 -5 40 -2 2
-89 10 -193 19 -250 20 -347 36 -455 76 -122 45 -155 126 -68 170 39 20 39 20
29 0 -6 -11 -16 -23 -21 -26 -15 -9 -12 -48 6 -74 31 -43 175 -88 359 -110
115 -14 345 -15 345 -1 0 6 7 10 16 10 8 0 12 5 9 10 -3 5 -34 10 -67 10 -117
0 -52 7 112 13 103 3 150 2 125 -3 -22 -5 -60 -10 -85 -11 -25 -1 -36 -4 -26
-6 15 -4 16 -7 5 -15 -21 -15 281 -2 378 16 107 20 211 51 273 82 84 42 73 52
-25 23 -82 -24 -241 -40 -428 -43 -111 -1 -173 0 -137 4 153 16 428 85 535
134 47 22 89 56 69 56 -5 0 -3 4 4 9 34 21 -176 81 -358 102 -123 15 -466 15
-528 1 -42 -10 -43 -10 -49 19 -6 29 -7 30 -62 27 -53 -3 -56 -5 -59 -30 -2
-21 -10 -30 -30 -34 -15 -4 -72 -20 -127 -36 -154 -45 -145 -44 -145 -16 0 35
-18 48 -66 48 -67 0 -74 -6 -74 -61 l0 -48 -73 1 c-93 1 -134 -18 -139 -64 -2
-25 -9 -33 -33 -41 -29 -9 -240 -89 -520 -198 -72 -28 -141 -61 -154 -74 -24
-23 -24 -24 -15 -162 l9 -138 32 -20 c25 -16 33 -29 37 -60 3 -22 26 -294 51
-605 25 -311 48 -597 51 -636 l6 -71 -32 -13 c-18 -7 -46 -24 -61 -38 -24 -20
-29 -31 -29 -70 0 -95 10 -121 49 -141 62 -31 109 -37 546 -66 557 -36 1747
-118 2190 -150 947 -69 1455 -107 1695 -127 231 -19 353 -22 957 -25 l692 -4
128 74 c255 147 508 299 522 312 9 9 16 43 19 93 l4 79 -37 31 -38 30 11 124
c16 171 48 617 71 966 l19 292 30 28 c28 26 30 32 36 142 12 207 12 209 -15
236 -30 30 -77 38 -335 59 -194 15 -224 14 -224 -11 0 -8 -10 -14 -23 -14 -12
0 -59 -12 -104 -28 l-81 -27 24 -24 c30 -29 40 -66 25 -94 -8 -16 -10 -17 -6
-3 8 28 -20 66 -46 61 -16 -3 -19 0 -14 13 3 9 -8 0 -25 -20 -61 -74 -262
-141 -515 -172 -71 -9 -151 -19 -176 -22 l-46 -5 1 -42 c1 -40 3 -42 36 -48
20 -4 -7 -7 -65 -7 -55 0 -94 2 -87 5 15 6 16 59 1 69 -8 4 -7 9 2 15 9 5 -13
9 -56 9 -162 1 -467 30 -622 59 -29 6 -59 8 -67 5 -8 -3 -17 -1 -21 5 -3 6 0
11 7 11 7 1 -14 12 -47 26 -93 38 -160 83 -179 119 -16 29 -16 38 -6 72 7 21
21 49 30 63 50 71 53 120 8 120 -10 0 -18 5 -18 11 0 5 5 7 12 3 7 -4 8 -3 4
5 -6 9 -11 9 -22 0 -8 -7 -14 -7 -14 -1 0 5 7 13 16 16 26 10 142 7 149 -4 3
-6 -1 -10 -10 -10 -9 0 -14 -4 -11 -8 2 -4 -9 -14 -25 -21 -16 -7 -29 -20 -29
-28 0 -9 -10 -31 -21 -50 -20 -32 -20 -34 -3 -24 10 6 37 18 59 26 l39 16 -23
-25 c-13 -13 -29 -22 -36 -20 -20 8 -55 -45 -55 -82 0 -46 31 -79 115 -121 83
-43 122 -54 288 -88 159 -32 364 -49 477 -41 47 4 159 8 250 10 228 4 445 47
556 111 49 29 67 49 71 81 4 27 -8 25 -68 -12 -37 -23 -37 -23 -31 -2 3 13 1
19 -5 15 -33 -21 -541 -52 -522 -32 3 2 43 11 89 20 47 9 128 27 180 40 52 13
126 31 164 40 38 9 84 22 103 30 31 13 33 16 22 37 -11 22 -10 22 6 6 17 -16
20 -16 56 3 21 10 49 19 63 19 13 0 38 11 54 25 16 13 32 22 36 18 3 -3 6 9 6
29 0 37 -19 61 -59 73 -32 10 -127 8 -148 -3 -12 -6 -56 -2 -128 13 -60 12
-164 28 -230 35 l-120 13 -58 61 c-58 61 -58 61 -50 106 4 25 7 96 5 159 -2
88 -7 122 -22 151 -31 61 -67 97 -126 126 -48 23 -63 26 -119 21 -51 -5 -64
-3 -69 9 -6 16 -166 95 -251 124 -47 16 -50 19 -56 58 -11 85 -121 205 -239
261 -47 22 -68 26 -150 26 -106 0 -154 -17 -218 -79 -32 -30 -36 -31 -125 -32
-61 -1 -102 -6 -122 -16 -16 -8 -47 -18 -68 -22 -21 -4 -45 -10 -53 -13 -33
-12 -10 16 38 47 79 51 164 126 209 182 l40 52 56 -3 c48 -2 62 2 107 31 28
18 68 42 90 53 51 26 123 112 148 177 25 66 34 187 19 256 -23 110 -93 209
-189 271 -57 36 -97 105 -71 122 22 13 -45 138 -81 151 -18 6 -34 23 -45 49
-32 69 -174 184 -310 249 -261 126 -574 129 -875 9 -200 -80 -382 -242 -481
-428 -18 -36 -32 -75 -31 -87 2 -14 -8 -33 -27 -53 -40 -41 -62 -132 -38 -159
26 -28 9 -153 -25 -189 -66 -71 -92 -185 -69 -305 28 -144 86 -222 205 -277
89 -42 179 -71 217 -71 15 0 38 -15 62 -41 21 -22 37 -42 35 -44 -11 -11 -80
-55 -86 -55 -4 0 -40 14 -81 30 -71 29 -158 51 -264 66 -67 9 -79 25 -72 88 6
53 4 59 -80 281 -40 107 -87 196 -112 212 -29 19 -29 24 1 84 27 53 46 138 46
207 0 41 -4 49 -54 96 -41 38 -58 62 -66 96 -7 25 -23 65 -36 90 -13 25 -35
92 -50 148 -14 57 -32 119 -40 138 -8 18 -14 47 -14 63 0 37 -44 158 -67 183
-21 23 -40 23 -81 -2z m1773 -265 c100 -28 102 -30 61 -75 -33 -36 -87 -129
-86 -147 1 -4 14 17 30 47 15 30 44 73 63 95 l35 40 57 -30 c69 -36 164 -120
208 -184 29 -41 33 -56 40 -146 10 -125 10 -148 2 -316 -7 -123 -5 -147 20
-273 32 -164 31 -167 -59 -258 -66 -69 -84 -83 -148 -125 -24 -15 -44 -31 -46
-35 -2 -5 -10 -8 -17 -8 -8 0 -25 -5 -39 -12 -20 -9 -23 -14 -15 -25 18 -21
34 -16 102 32 36 25 69 45 73 45 13 0 127 110 121 116 -3 3 8 18 24 33 16 16
29 37 30 47 1 12 5 6 11 -13 12 -36 18 -39 51 -22 12 6 -5 -17 -38 -51 -66
-68 -154 -129 -276 -193 l-80 -41 -25 29 c-13 17 -33 47 -44 68 -11 20 -22 37
-25 37 -7 0 17 -51 39 -85 12 -18 14 -25 5 -18 -12 10 -35 7 -115 -12 -67 -17
-127 -25 -186 -25 l-86 0 -55 50 c-36 33 -60 48 -71 44 -19 -7 -20 -18 -5 -45
10 -20 11 -20 32 -2 11 10 17 12 13 5 -4 -7 0 -15 11 -19 16 -6 15 -8 -7 -14
l-25 -7 25 -1 c24 -2 75 -31 54 -31 -6 0 -15 5 -22 12 -9 9 -12 9 -12 0 0 -14
1 -14 100 -16 41 -1 84 -6 94 -11 12 -5 17 -5 13 1 -3 6 15 9 45 8 58 -2 119
10 166 32 18 9 41 13 50 9 24 -10 -40 -37 -158 -65 -178 -44 -368 -30 -516 35
-223 98 -402 431 -404 746 0 155 52 326 139 453 47 68 142 168 156 162 6 -2
17 4 23 15 30 47 205 135 316 159 61 14 282 4 351 -15z m-1826 -232 c32 -26
58 -163 31 -163 -5 0 -10 4 -10 9 0 6 -16 3 -36 -5 -33 -14 -38 -14 -52 0 -9
9 -17 40 -20 74 -4 55 -2 60 23 80 33 27 37 27 64 5z m-120 -81 c5 -10 13 -42
17 -70 6 -50 6 -51 -27 -71 -19 -12 -42 -21 -52 -21 -22 0 -37 38 -37 91 0 66
73 119 99 71z m2746 -83 c5 -5 -4 -9 -24 -9 -43 0 -89 -47 -114 -116 -50 -134
-25 -378 52 -502 21 -34 33 -44 64 -48 39 -7 48 -18 21 -28 -113 -43 -215 118
-230 362 -5 84 -3 119 9 163 19 63 58 138 86 163 37 33 109 41 136 15z m-2198
-96 c7 -19 -5 -77 -20 -94 -6 -8 -11 -13 -10 -11 1 2 -22 23 -50 46 -44 35
-52 48 -55 80 -6 67 1 69 69 29 33 -20 63 -43 66 -50z m320 -203 c-30 -62 -32
-70 -30 -170 2 -89 6 -117 33 -188 45 -124 76 -179 130 -233 58 -58 45 -63
-48 -18 -40 20 -59 34 -52 39 9 5 9 9 1 14 -16 10 -90 170 -101 219 -5 23 -10
61 -10 85 0 31 -4 42 -15 42 -19 0 -19 24 -1 53 7 12 16 43 20 70 8 62 39 123
74 141 15 8 28 13 29 12 1 -1 -13 -31 -30 -66z m-310 -192 c24 -39 72 -157
139 -341 l25 -68 -20 -62 c-22 -65 -65 -137 -81 -137 -6 0 -10 12 -11 28 0 22
-2 24 -8 8 -6 -15 -12 -7 -33 40 -14 33 -29 70 -33 83 -5 16 -10 20 -15 11 -4
-7 -18 14 -34 56 -22 53 -24 69 -14 75 10 7 9 12 -4 26 -17 16 -18 16 -18 0 0
-29 -18 -19 -31 17 -12 34 -13 35 -41 20 -16 -8 -70 -21 -121 -28 -83 -12 -89
-14 -65 -24 29 -12 51 -65 41 -101 -2 -10 0 -22 6 -25 6 -4 11 -14 11 -22 0
-8 24 -63 52 -122 29 -59 53 -111 53 -117 0 -5 7 -13 15 -17 8 -4 -8 -7 -36
-7 -42 -1 -59 5 -93 29 -23 17 -50 45 -61 63 -21 34 -103 238 -139 345 -28 83
-28 192 0 192 5 0 9 -12 9 -26 0 -36 36 -91 71 -109 52 -27 137 -30 203 -6 88
31 130 63 166 126 32 56 32 57 17 96 -15 37 -14 39 4 39 11 0 29 -17 46 -42z
m2335 -419 c104 -22 190 -78 266 -175 42 -54 41 -69 -3 -39 -28 18 -44 22 -73
18 -87 -12 -191 -89 -254 -185 -22 -34 -38 -48 -52 -47 -20 2 -20 2 -1 6 27 5
70 83 53 95 -7 4 -18 8 -24 8 -12 0 -109 64 -132 87 -16 16 -54 26 -79 21 -14
-3 -17 -12 -15 -38 3 -46 48 -109 97 -137 44 -25 41 -32 -4 -9 -70 37 -118
126 -107 199 15 94 82 164 186 191 69 18 77 19 142 5z m-343 -118 c11 -7 8
-12 -11 -25 -14 -9 -39 -45 -54 -79 -27 -58 -29 -70 -29 -182 1 -105 4 -129
28 -194 18 -50 22 -69 12 -61 -12 10 -15 10 -15 -1 0 -11 -3 -11 -11 1 -9 12
-10 11 -6 -7 3 -13 1 -23 -3 -23 -10 0 -60 98 -61 119 0 10 -2 11 -5 4 -3 -7
11 -49 30 -95 22 -52 29 -75 17 -61 -12 15 -22 18 -32 12 -8 -5 -10 -9 -6 -9
5 0 -6 -12 -25 -27 -49 -41 -109 -96 -127 -115 -8 -10 -19 -18 -24 -18 -5 0
-20 -9 -34 -20 -30 -24 -73 -26 -112 -5 -54 27 -116 45 -183 51 -54 6 -68 11
-76 28 -10 21 -11 21 -11 1 -1 -17 -14 -24 -71 -39 -65 -16 -71 -16 -86 -1
-45 45 -84 54 -84 20 0 -8 -6 -12 -14 -9 -20 8 -54 90 -67 164 -7 36 -19 78
-27 95 l-15 30 -14 -40 c-11 -32 -12 -52 -3 -100 12 -63 66 -193 108 -259 30
-48 46 -99 30 -94 -18 6 -105 163 -128 232 -41 121 -33 368 15 415 13 14 15
14 15 -1 0 -9 10 -19 23 -21 19 -4 18 -4 -5 -6 -16 0 -28 -5 -28 -10 0 -5 8
-8 18 -7 12 1 18 -8 20 -27 4 -29 4 -29 24 12 l20 41 63 -4 c35 -3 74 -11 87
-20 13 -8 47 -20 76 -26 28 -7 52 -17 52 -23 0 -6 6 -4 13 5 6 9 32 19 57 22
70 11 197 78 285 153 48 41 73 57 63 41 l-18 -27 31 11 c17 6 33 17 36 24 3 8
9 11 14 8 5 -3 9 0 9 6 0 6 5 8 10 5 6 -3 10 -2 10 3 0 9 48 32 75 36 25 5 82
36 99 55 17 19 17 21 2 27 -10 4 -44 4 -77 1 -32 -3 -59 -3 -59 -1 0 18 154
31 179 15z m-1609 -41 c114 -28 189 -59 207 -86 8 -14 14 -27 11 -29 -3 -3
-27 6 -54 20 -60 30 -69 31 -50 4 8 -12 12 -27 9 -35 -3 -9 13 -17 57 -26 40
-8 65 -19 71 -30 9 -17 7 -18 -18 -12 -15 4 -38 11 -50 15 -13 5 -23 7 -23 5
0 -9 81 -86 90 -86 6 0 10 -9 10 -20 0 -11 -1 -20 -3 -20 -13 0 -138 30 -146
35 -6 3 -11 0 -11 -9 0 -8 6 -17 13 -20 19 -8 -75 5 -103 14 -14 4 -47 14 -73
20 -38 10 -47 16 -41 29 3 9 9 49 12 89 4 58 1 80 -13 106 -10 19 -23 32 -29
30 -6 -2 -18 1 -26 6 -13 9 -13 11 -1 19 17 11 59 6 161 -19z m2352 -194 c85
-31 201 -91 217 -110 12 -15 10 -15 -22 -1 -63 26 -117 15 -161 -34 -11 -12
-25 -21 -31 -21 -20 0 -82 -74 -95 -114 -6 -20 -17 -36 -23 -36 -20 0 -217
101 -217 111 0 27 64 131 97 158 38 31 122 69 155 70 10 1 46 -10 80 -23z
m-2675 -187 c6 -6 32 -10 57 -8 39 4 46 1 46 -13 0 -10 7 -18 15 -18 8 0 70
-22 138 -50 68 -27 134 -50 145 -50 12 0 22 -4 22 -10 0 -21 -70 -8 -205 36
-154 51 -201 72 -229 103 -19 21 -9 30 11 10z m3080 -20 c52 -25 98 -76 129
-143 26 -57 31 -121 13 -192 -11 -43 -12 -44 -30 -28 -11 9 -19 23 -19 31 0
28 -95 110 -153 132 -96 35 -149 37 -211 7 -43 -21 -130 -96 -111 -96 2 0 -5
-18 -16 -40 -12 -22 -23 -40 -26 -40 -12 0 8 110 34 183 37 107 104 173 213
208 38 12 130 1 177 -22z m-802 -181 c38 -14 61 -30 70 -48 15 -28 158 -105
243 -131 46 -13 52 -27 23 -53 -16 -15 -34 -50 -61 -122 -6 -15 -22 -23 -64
-30 l-56 -11 0 32 c0 43 -20 57 -81 57 -60 0 -71 -8 -74 -59 -1 -21 -3 -41 -4
-44 0 -3 -38 -4 -83 -2 -96 5 -128 -7 -143 -52 -10 -29 -12 -30 -67 -27 -64 3
-67 8 -43 64 9 22 25 40 45 48 82 34 182 193 220 348 6 29 13 52 15 52 2 0 29
-10 60 -22z m806 -130 c60 -27 192 -147 171 -155 -7 -3 -24 3 -39 12 -24 16
-27 16 -55 -5 -27 -20 -31 -20 -47 -6 -26 24 -74 20 -100 -8 -23 -24 -23 -25
-44 -5 -24 22 -71 25 -109 5 -15 -8 -29 -12 -32 -8 -3 3 -6 34 -6 70 0 60 2
66 35 99 35 35 37 36 104 31 42 -3 88 -14 122 -30z m-3338 -221 c20 -9 37 -21
37 -27 0 -6 -21 -21 -47 -33 -44 -20 -64 -22 -233 -22 -145 0 -191 3 -214 15
-58 30 -38 53 64 76 81 19 343 13 393 -9z m-1459 -226 c-5 -5 -40 -19 -79 -30
-99 -30 -275 -118 -275 -136 0 -9 12 -20 26 -25 22 -9 202 -25 532 -47 51 -3
90 -9 87 -12 -3 -3 -45 -5 -93 -4 -48 0 -67 -1 -42 -3 25 -2 82 -9 127 -14 96
-12 686 -50 753 -49 l45 1 -55 9 c-30 4 -140 13 -245 21 -104 7 -176 14 -160
16 17 2 136 -3 265 -12 129 -8 321 -20 425 -26 228 -14 463 -37 388 -39 -92
-2 -66 -18 40 -25 56 -4 194 -13 307 -21 431 -31 842 -57 1015 -65 99 -4 223
-11 275 -15 110 -9 116 3 8 15 -108 13 150 2 387 -16 105 -7 224 -14 265 -14
41 -1 102 -7 135 -14 l60 -14 -90 -2 c-49 -1 -85 -3 -80 -5 17 -7 597 -37 602
-32 3 3 -17 8 -44 12 -26 3 -55 8 -63 10 -28 6 335 -6 450 -15 612 -48 667
-42 845 87 93 68 434 287 397 256 -42 -36 -41 -46 4 -27 20 8 33 10 29 5 -13
-22 14 -9 81 38 84 59 101 78 86 93 -6 6 -82 17 -168 24 -86 7 -159 16 -162
19 -7 7 31 6 182 -5 128 -9 176 -24 176 -54 0 -22 -629 -460 -700 -487 l-45
-17 -7 -108 c-4 -60 -10 -114 -13 -121 -2 -7 -19 -13 -38 -13 -31 0 -33 2 -31
28 2 15 5 66 7 115 l5 87 -111 0 c-62 0 -213 7 -337 15 -285 19 -637 42 -850
55 -91 6 -235 15 -320 20 -85 6 -231 15 -325 20 -93 6 -264 17 -380 25 -115 8
-381 26 -590 40 -209 14 -576 39 -815 55 -239 17 -502 35 -585 40 -82 5 -206
14 -275 20 -69 5 -201 15 -295 20 -93 6 -226 15 -295 20 -132 10 -270 16 -565
26 -99 3 -184 7 -190 7 -13 2 -18 -106 -8 -157 l8 -38 60 -4 c33 -2 94 -9 135
-14 41 -6 122 -17 180 -25 l105 -13 -135 4 c-206 8 -401 23 -443 35 -57 16
-65 37 -69 177 -3 115 -2 124 17 135 22 13 188 78 340 133 55 20 107 40 115
44 18 10 28 3 14 -9z m3094 -209 c20 -7 14 -26 -17 -56 -28 -27 -30 -28 -107
-19 -46 5 -79 13 -81 20 -3 7 8 24 23 38 25 24 35 26 99 24 38 -1 76 -4 83 -7z
m-1940 -424 c32 -16 52 -34 65 -59 16 -33 16 -39 2 -71 -8 -20 -39 -58 -70
-85 -55 -50 -60 -63 -21 -63 36 0 83 -36 102 -79 11 -22 25 -41 32 -41 10 0
62 95 62 115 0 3 21 55 47 116 42 101 49 110 70 106 13 -2 31 2 40 9 10 7 26
14 36 14 9 0 17 5 17 10 0 6 5 10 10 10 6 0 10 -9 10 -20 0 -11 4 -28 9 -38 5
-9 15 -55 21 -102 19 -132 27 -160 51 -160 15 0 19 -5 16 -15 -4 -8 -2 -17 2
-20 5 -2 14 17 21 43 27 108 114 213 205 248 86 32 169 -10 167 -86 -1 -48
-22 -102 -37 -96 -7 2 -16 -2 -19 -10 -5 -14 -8 -14 -21 0 -8 8 -18 29 -21 45
-9 42 -34 40 -79 -4 -47 -47 -76 -107 -82 -169 -4 -43 -1 -56 18 -80 19 -24
27 -28 60 -23 20 3 64 23 98 46 34 23 61 40 61 37 0 -3 -4 -16 -10 -30 -12
-32 1 -33 34 -3 22 19 28 41 51 174 27 167 41 209 61 192 9 -7 15 -5 22 7 6
10 16 15 26 11 9 -4 16 -2 16 3 0 19 15 10 27 -15 9 -20 8 -40 -3 -92 -7 -37
-13 -68 -11 -69 1 -2 32 22 67 53 103 88 168 135 178 129 5 -3 20 6 32 19 13
14 28 25 34 25 5 0 -4 -15 -22 -33 -36 -37 -41 -53 -13 -37 27 14 36 13 22 -4
-6 -7 -9 -20 -6 -28 5 -14 -34 -56 -115 -122 -19 -16 -54 -46 -78 -68 l-43
-39 97 -120 c53 -66 99 -118 101 -115 2 2 -1 13 -8 23 -12 20 -4 102 8 89 3
-3 12 -1 20 5 7 6 13 8 13 4 0 -4 6 -3 13 3 10 9 16 4 26 -23 8 -23 21 -37 37
-41 58 -15 149 22 149 61 0 12 -30 33 -95 66 -111 58 -139 82 -146 130 -7 45
24 92 96 142 60 40 148 65 194 53 41 -10 76 -50 76 -86 0 -33 -27 -96 -37 -86
-3 3 -12 -2 -19 -12 -8 -10 -13 -12 -14 -4 0 6 -7 12 -15 12 -10 0 -15 10 -15
30 0 35 -11 37 -70 14 -41 -17 -69 -50 -53 -64 4 -4 41 -25 82 -46 41 -22 94
-57 118 -80 35 -33 43 -47 43 -77 0 -57 -63 -116 -167 -156 -74 -28 -147 -42
-130 -24 7 6 -84 53 -92 47 -2 -1 18 -30 44 -63 25 -34 44 -61 42 -61 -2 0
-28 18 -57 40 -57 43 -85 53 -55 20 26 -28 13 -34 -19 -9 -22 17 -36 20 -74
16 -42 -5 -44 -5 -19 5 15 7 27 15 27 20 0 4 -24 31 -53 60 -29 29 -73 76 -98
105 l-46 51 -11 -46 c-6 -26 -14 -68 -18 -95 -3 -26 -11 -50 -17 -54 -6 -4 -8
2 -5 15 4 12 3 22 -2 22 -8 0 -25 -40 -33 -75 -3 -11 -5 -5 -6 15 -1 19 -6 42
-11 50 -9 13 -11 13 -21 0 -8 -11 -9 4 -6 58 l4 74 -66 -65 c-68 -66 -127
-107 -153 -107 -32 0 -107 41 -137 75 -17 20 -36 56 -42 80 -13 51 -22 61 -37
42 -7 -9 -6 -35 4 -87 17 -89 17 -89 3 -70 -8 11 -9 1 -6 -40 l5 -55 -16 38
c-9 23 -20 36 -28 33 -7 -3 -17 7 -23 22 -7 20 -10 22 -10 8 -2 -33 -14 -9
-31 61 -22 92 -38 93 -42 1 -2 -40 -7 -72 -12 -70 -6 1 -10 14 -11 30 -5 109
-1 101 -42 95 -21 -3 -41 -8 -44 -12 -4 -3 1 -30 11 -59 20 -60 8 -81 -15 -26
-12 29 -18 34 -29 25 -8 -7 -17 -23 -20 -36 -4 -14 -13 -25 -20 -25 -8 0 -20
-13 -28 -30 -17 -38 -24 -38 -32 2 -6 30 -7 31 -21 12 -14 -18 -14 -18 -14 6
0 14 6 42 13 63 8 21 10 40 5 43 -5 3 -6 11 -3 17 4 7 -17 -11 -47 -40 -30
-28 -85 -72 -124 -97 -38 -25 -63 -46 -55 -47 8 0 -16 -16 -54 -35 -76 -37
-80 -39 -71 -24 3 6 -1 10 -9 10 -9 0 -18 -12 -22 -27 -10 -46 -12 -49 -13
-19 -1 24 -3 27 -16 16 -10 -8 -15 -31 -15 -71 0 -33 -4 -59 -10 -59 -5 0 -9
8 -8 18 3 43 -3 92 -12 92 -5 0 -10 -7 -10 -15 0 -8 -4 -15 -10 -15 -5 0 -10
7 -10 15 0 18 3 17 -38 6 -20 -6 -32 -6 -32 0 0 5 5 9 10 9 6 0 10 5 10 10 0
6 -9 10 -20 10 -20 0 -20 1 -3 27 18 26 17 27 -2 20 -19 -7 -19 -6 1 10 12 10
36 26 54 35 39 22 38 52 -2 56 -34 4 -68 46 -68 84 0 39 40 78 80 78 16 0 30
5 30 10 0 6 -7 10 -15 10 -14 0 -20 24 -16 58 1 6 -4 12 -11 12 -7 0 1 10 19
21 26 16 34 30 42 72 17 89 19 118 7 113 -96 -38 -116 -44 -121 -36 -3 6 -1
10 4 10 6 0 11 7 11 15 0 20 -19 19 -87 -5 -79 -28 -79 -25 0 16 37 19 67 39
67 45 0 5 -4 7 -10 4 -21 -13 -9 13 13 27 36 24 155 69 221 84 87 20 204 12
264 -18z m-1419 -268 c33 -377 60 -707 66 -820 4 -58 8 -116 11 -128 3 -13 1
-21 -4 -18 -5 3 -12 34 -15 68 -21 215 -29 305 -51 588 -29 372 -40 557 -33
550 3 -3 14 -111 26 -240z m3891 213 c0 -4 7 -57 15 -118 9 -60 18 -129 21
-152 4 -33 9 -42 27 -45 15 -2 21 -9 19 -20 -6 -36 16 -16 33 30 53 140 200
262 317 262 65 0 95 -14 114 -52 14 -31 14 -37 -4 -83 -14 -34 -25 -49 -36
-47 -9 2 -16 -2 -16 -8 0 -6 -7 -6 -20 2 -12 8 -20 24 -20 40 0 71 -119 2
-192 -111 -51 -80 -32 -181 33 -181 44 0 129 47 129 72 0 4 -20 8 -45 8 -33 0
-45 4 -46 15 -4 67 -4 69 30 76 17 4 75 10 128 14 l95 7 -5 -33 c-3 -19 -18
-72 -35 -119 -16 -47 -38 -112 -47 -145 -14 -45 -20 -55 -25 -40 -7 19 -7 19
-17 0 -6 -11 -14 -35 -18 -53 -9 -45 -24 -31 -18 18 6 40 -10 57 -21 23 -3
-10 -4 6 -2 35 2 28 1 52 -1 52 -2 0 -21 -11 -43 -25 -48 -30 -73 -33 -121
-12 -77 34 -129 99 -129 162 0 20 -5 25 -23 25 -23 0 -24 -1 -15 -57 4 -32 10
-68 13 -80 6 -27 -11 -31 -19 -5 -3 9 -4 -9 -1 -40 4 -63 -9 -79 -19 -23 -4
22 -11 32 -20 29 -7 -3 -18 5 -24 18 -6 13 -11 17 -11 11 -1 -7 -5 -13 -10
-13 -5 0 -12 21 -16 48 -14 100 -8 95 -89 87 -39 -4 -78 -11 -86 -15 -9 -5
-29 -36 -45 -69 -16 -34 -31 -57 -35 -52 -9 15 -25 0 -49 -44 -21 -38 -22 -39
-17 -10 5 33 -11 71 -21 48 -2 -7 -8 -13 -13 -13 -5 0 2 26 15 58 18 43 21 59
12 67 -16 13 -20 55 -6 55 8 0 8 4 0 14 -13 15 4 26 38 26 16 0 41 43 139 242
2 4 -9 6 -25 3 -15 -2 -65 -9 -110 -16 -46 -6 -83 -14 -84 -18 -3 -36 -107
-418 -108 -396 -2 29 -2 29 -17 10 -9 -11 -25 -38 -36 -60 l-19 -40 6 47 c7
51 -1 80 -16 57 -4 -7 -10 -11 -13 -8 -7 7 10 125 35 239 11 52 22 106 25 119
6 26 18 26 -118 4 -37 -5 -41 -4 -34 12 4 11 2 22 -6 26 -9 6 -9 11 1 22 9 12
9 16 -1 20 -10 4 -10 8 3 21 10 11 47 20 105 28 49 6 95 16 102 21 15 11 232
20 276 11 28 -6 29 -7 11 -20 -17 -13 -17 -14 0 -20 15 -6 13 -9 -11 -19 l-29
-12 38 -4 c35 -5 39 -3 59 33 16 28 26 37 40 32 18 -5 84 13 103 28 11 10 25
10 25 1z m1106 -108 c9 -9 25 -14 35 -12 11 3 21 1 24 -3 3 -5 -15 -12 -39
-15 -48 -8 -85 -34 -50 -36 40 -1 -22 -17 -92 -23 -172 -16 -172 -16 -177 -39
-3 -12 -9 -32 -13 -45 -7 -23 -5 -23 57 -22 35 1 80 1 99 0 32 -1 33 -2 15
-12 -19 -12 -19 -12 5 -18 25 -7 25 -7 -10 -23 -26 -11 -30 -16 -15 -17 l20
-1 -20 -9 c-11 -4 -59 -11 -107 -15 l-86 -7 -12 -42 c-6 -22 -11 -45 -11 -50
1 -5 70 -8 154 -7 88 1 158 -3 167 -9 11 -7 7 -10 -20 -10 -64 -1 -10 -20 60
-21 64 -2 60 -3 -47 -15 -54 -6 -74 -24 -26 -24 14 0 24 -2 22 -4 -2 -2 -76
-10 -164 -16 -88 -7 -172 -18 -187 -25 -20 -10 -28 -10 -31 -1 -3 6 -9 0 -15
-14 -7 -17 -11 -19 -11 -8 -1 11 -11 18 -33 20 -22 2 -32 9 -35 23 -13 70 -12
73 11 79 18 4 27 18 39 58 11 39 12 56 3 63 -18 16 -8 73 15 80 20 7 30 25 43
78 5 22 3 27 -13 27 -24 0 -36 16 -20 26 8 5 8 8 0 13 -19 12 11 58 49 74 24
11 71 16 149 16 63 1 117 4 120 7 13 13 130 -4 147 -21z m-4645 -191 c7 -9 12
-31 11 -50 -3 -37 0 -39 27 -22 44 27 68 -20 31 -60 -16 -17 -32 -22 -73 -22
-29 0 -69 4 -90 9 -30 7 -45 5 -67 -7 -27 -16 -31 -16 -46 -1 -15 16 -15 18 5
38 12 12 32 21 46 21 29 0 31 7 9 31 -21 23 -11 49 18 49 31 0 45 -11 57 -43
14 -36 32 -26 24 13 -10 54 18 80 48 44z m353 -94 c22 -39 42 -70 45 -70 3 0
24 32 46 70 22 39 46 70 53 70 9 0 12 -28 12 -105 0 -63 -4 -105 -10 -105 -6
0 -10 35 -10 85 0 47 -3 85 -7 85 -5 0 -22 -26 -39 -58 -17 -31 -37 -58 -45
-59 -8 -2 -29 23 -49 59 l-35 61 -3 -122 -3 -121 -72 6 c-97 8 -97 8 -97 50
l0 37 70 -7 c64 -6 70 -5 70 13 0 15 -11 20 -70 27 -39 5 -72 14 -73 19 -1 6
29 11 71 13 52 2 72 7 72 16 0 10 -21 16 -70 21 l-70 7 0 35 0 35 70 -4 c39
-2 70 0 70 5 0 4 8 7 18 7 11 0 31 -25 56 -70z m-409 -93 c28 0 64 4 80 8 21
4 36 1 50 -9 20 -16 20 -16 -2 -35 -13 -11 -23 -28 -23 -39 0 -15 -5 -18 -26
-14 -18 3 -30 0 -36 -12 -11 -20 -32 -21 -52 -1 -13 13 -40 20 -98 24 -12 1
-10 49 3 73 8 15 16 18 32 12 12 -4 45 -7 72 -7z m2054 -182 c33 -10 69 -31
88 -50 33 -33 34 -35 19 -64 -16 -30 -57 -59 -141 -100 -38 -19 -45 -25 -30
-28 127 -26 185 -64 185 -121 0 -30 -8 -44 -50 -83 -56 -55 -115 -87 -245
-136 -61 -23 -77 -32 -50 -27 63 9 38 -2 -67 -30 -54 -15 -106 -29 -115 -32
-10 -2 0 4 22 15 35 18 36 20 10 14 -95 -20 -109 -27 -122 -68 l-11 -40 -1 38
c-1 35 -2 36 -21 25 -11 -7 -22 -28 -25 -48 -3 -19 -10 -53 -15 -75 -8 -32 -8
-25 -5 38 4 71 3 78 -13 75 -9 -2 -19 -14 -21 -28 l-4 -25 -7 25 c-7 26 -14
27 -75 16 -28 -5 -29 -5 -11 9 13 9 42 15 80 15 34 0 81 7 106 16 25 9 108 34
184 55 134 38 300 98 293 106 -2 2 -34 -8 -72 -22 -60 -23 -69 -24 -84 -11
-10 9 -26 13 -39 9 -12 -3 -28 0 -36 6 -10 9 -36 5 -107 -14 -52 -14 -97 -25
-100 -25 -4 0 2 17 12 37 19 38 28 92 10 64 -7 -10 -21 -12 -55 -8 -51 7 -50
8 -61 -56 -5 -29 -3 -37 6 -32 7 5 10 3 7 -5 -4 -14 -19 -20 -98 -41 -37 -10
-42 -13 -25 -20 11 -4 14 -8 6 -8 -7 -1 -11 -7 -7 -16 4 -12 -3 -15 -32 -15
l-37 1 30 13 c27 11 28 13 11 23 -16 9 -15 11 11 21 15 6 43 15 62 20 34 8 35
10 58 97 12 50 25 100 29 113 5 18 2 22 -17 23 -23 0 -23 1 -4 9 17 7 17 9 3
9 -10 1 -18 5 -18 10 0 5 8 12 18 16 16 7 15 8 -3 15 -21 8 -22 8 35 29 20 7
31 25 53 86 l27 78 -37 -7 c-21 -4 -56 -10 -78 -13 -37 -5 -38 -4 -21 9 18 14
18 15 -5 21 l-24 7 30 25 c33 27 31 30 -12 15 l-28 -10 24 18 c13 9 67 27 120
39 83 19 119 22 266 19 126 -2 184 -8 224 -21z m871 -4 c41 4 111 8 155 7 l80
0 -50 -13 c-43 -11 -46 -13 -20 -15 26 -1 27 -3 10 -10 -30 -13 60 -12 210 1
71 6 145 8 172 3 32 -5 40 -9 26 -12 -34 -5 -27 -22 10 -23 29 -1 27 -3 -23
-19 -45 -15 -50 -19 -26 -19 19 -1 26 -5 20 -10 -5 -5 -64 -15 -132 -22 l-123
-12 -20 -38 c-10 -21 -19 -41 -19 -45 0 -4 39 -4 88 -1 48 4 96 2 107 -3 19
-8 19 -9 -3 -9 -29 -1 -19 -21 11 -22 20 -1 21 -2 2 -6 -11 -3 -31 -10 -45
-16 l-25 -10 25 -7 c18 -4 1 -9 -55 -14 -153 -13 -149 -11 -167 -64 -10 -25
-16 -48 -14 -50 2 -2 66 1 143 5 76 5 163 6 193 2 45 -5 48 -6 18 -8 -80 -3
-26 -29 66 -32 24 -1 7 -5 -39 -9 -44 -4 -93 -11 -109 -15 -21 -6 -27 -5 -22
4 4 6 16 11 27 11 11 0 17 5 14 10 -3 6 -15 10 -26 10 -12 0 -17 4 -13 11 5 8
-29 9 -122 4 -71 -4 -133 -8 -139 -9 -5 0 -9 4 -8 9 9 60 9 60 -25 63 -18 2
-30 8 -27 13 4 5 0 9 -8 9 -15 0 -37 -48 -37 -82 0 -20 -61 -53 -83 -45 -7 3
3 9 22 14 30 8 37 16 52 58 22 63 23 79 5 72 -16 -6 -17 28 -1 52 5 10 4 12
-3 7 -7 -4 -12 -4 -12 -1 0 3 16 13 35 20 27 12 37 24 46 56 10 33 10 42 0 49
-8 4 -10 13 -7 19 4 6 2 11 -4 11 -6 0 -8 5 -4 11 4 8 -3 9 -22 5 -16 -3 -59
-8 -95 -12 l-67 -6 -83 -219 c-46 -120 -85 -214 -87 -210 -2 5 7 35 18 67 12
33 27 78 35 102 l13 43 -58 -2 -58 -2 -33 -101 c-31 -94 -49 -135 -49 -109 0
6 27 91 61 189 81 237 79 228 43 220 -28 -5 -73 -12 -144 -22 -32 -4 -33 -3
-17 10 18 14 18 15 0 24 -17 10 -17 11 2 32 16 18 17 23 5 30 -22 14 23 27
141 40 57 7 109 16 114 20 14 11 58 17 70 9 6 -3 44 -2 85 2z m1010 -19 c19
-9 37 -26 39 -37 2 -11 8 -23 14 -27 17 -11 -28 -99 -47 -92 -9 3 -17 -3 -22
-18 l-7 -23 -9 24 c-7 19 -11 21 -22 11 -12 -9 -15 -6 -18 22 -4 41 -21 45
-92 23 -66 -21 -116 -58 -100 -75 6 -6 59 -29 117 -50 134 -50 221 -93 241
-122 18 -25 21 -74 6 -83 -5 -3 -10 -14 -10 -23 0 -10 -14 -23 -32 -31 -45
-20 -24 -24 68 -12 72 9 95 8 83 -3 -2 -2 -51 -9 -109 -15 -90 -10 -123 -19
-233 -65 -70 -29 -127 -57 -127 -62 2 -12 -142 -65 -161 -59 -15 5 -57 -10
-221 -79 -69 -29 -39 -5 38 30 42 20 74 38 71 41 -3 2 -79 -20 -169 -51 -156
-53 -201 -66 -168 -47 61 36 342 124 365 115 14 -6 16 -4 10 6 -6 10 -2 11 17
7 27 -7 172 40 323 104 l80 34 -45 3 c-24 2 -49 7 -55 11 -34 27 -64 19 -236
-54 -96 -41 -178 -75 -184 -75 -10 0 27 18 295 140 164 74 220 106 220 125 0
18 -48 42 -165 84 -158 56 -206 95 -191 155 9 38 68 90 142 127 117 58 229 74
294 41z m-1471 -14 c-1 -7 1 -20 5 -29 4 -9 -8 -58 -28 -115 -19 -54 -55 -160
-81 -234 -26 -74 -51 -139 -55 -144 -11 -11 3 44 29 118 12 33 18 63 14 67 -5
3 -25 10 -45 13 -46 8 -71 -15 -87 -82 -7 -26 -18 -67 -26 -92 -11 -37 -13
-40 -14 -18 -1 15 13 72 29 125 17 54 44 143 61 198 39 129 68 193 79 176 6
-11 15 -11 46 -1 22 7 46 16 54 21 21 11 21 11 19 -3z m-2099 -64 c6 -6 10
-24 8 -40 -4 -35 -22 -39 -115 -29 l-63 7 0 37 c0 21 2 40 4 42 9 9 156 -7
166 -17z m-247 -98 c4 -6 6 -24 5 -41 -3 -29 -5 -30 -55 -33 -79 -5 -117 8
-121 42 -7 54 0 58 86 51 42 -4 80 -13 85 -19z m235 -12 c17 -5 22 -14 22 -40
0 -22 -6 -36 -15 -39 -47 -15 -51 -18 -30 -23 32 -7 45 -22 45 -54 0 -37 -14
-42 -102 -31 l-73 8 -3 38 -3 37 48 1 48 0 -45 17 c-41 16 -45 21 -48 55 l-3
37 68 0 c37 0 78 -3 91 -6z m-231 -94 c2 0 3 -19 3 -41 l0 -42 -82 7 c-44 4
-85 9 -90 12 -4 3 -8 20 -8 39 l0 34 58 3 c31 2 70 0 87 -4 16 -5 31 -8 32 -8z
m4926 -56 c35 -6 37 -8 37 -45 l0 -39 -64 0 c-35 0 -78 3 -95 6 -27 6 -31 11
-31 39 0 17 3 35 7 38 8 9 96 9 146 1z m-13 -122 c43 -7 45 -8 45 -42 0 -31
-3 -35 -30 -38 -16 -2 -58 -1 -92 3 l-63 7 0 39 0 39 48 -1 c26 0 67 -4 92 -7z
m-5396 -67 c-17 -43 41 -58 296 -80 97 -8 189 -19 205 -24 31 -10 277 -33 545
-52 85 -5 196 -14 245 -19 89 -9 89 -9 -30 -5 -66 3 -192 9 -280 15 -424 27
-641 39 -765 42 -133 3 -135 3 -138 -19 -5 -36 -40 -30 -50 9 -6 24 -16 34
-44 44 -34 11 -36 11 -42 -9 -3 -12 -6 -38 -6 -56 0 -63 -19 -19 -21 50 -3 76
2 86 45 105 40 17 47 17 40 -1z m6656 -26 c9 -15 1 -23 -52 -52 -35 -19 -185
-102 -334 -185 -149 -82 -299 -160 -333 -172 -33 -13 -62 -27 -62 -31 -1 -5
-3 -13 -4 -19 -1 -5 -3 -19 -4 -30 -1 -13 -8 -20 -21 -20 -16 0 -20 7 -20 35
l0 35 -52 0 c-29 0 -147 7 -263 14 -115 8 -419 27 -675 43 -256 15 -446 29
-423 31 23 2 158 -4 300 -13 673 -41 794 -46 948 -40 88 3 174 8 190 11 25 3
27 2 10 -6 -14 -7 -6 -8 30 -4 28 4 82 21 120 39 70 32 215 120 215 131 0 3
-6 2 -12 -2 -7 -4 -11 -5 -8 -1 3 3 30 19 60 35 30 16 87 48 127 70 40 22 73
36 75 30 3 -9 126 49 163 78 19 14 19 16 3 28 -22 16 -23 27 -3 20 9 -4 20
-15 25 -25z m-1480 -8 c21 -6 25 -13 25 -41 0 -34 -1 -35 -45 -38 -25 -1 -65
1 -90 6 -36 6 -46 12 -48 30 -7 45 3 52 70 51 35 -1 74 -4 88 -8z m258 -23
c20 -20 15 -66 -8 -73 -31 -10 -158 6 -171 21 -6 8 -8 25 -5 39 6 24 9 25 89
25 51 0 88 -5 95 -12z m-1756 -36 c15 -4 -153 -7 -375 -7 -246 -1 -452 -6
-532 -14 -173 -16 -368 -46 -468 -71 -84 -21 -118 -36 -57 -26 126 22 505 68
619 75 75 5 285 9 466 9 304 -1 317 -2 165 -9 -247 -13 -490 -37 -630 -65
-145 -28 -137 -27 -124 -14 14 14 241 59 348 70 82 8 75 8 -59 5 -175 -5 -352
-23 -628 -66 -110 -16 -213 -29 -230 -27 l-32 4 46 22 c114 54 425 99 864 126
94 6 597 -4 627 -12z"/>
<path d="M3782 4575 c-40 -14 -103 -40 -140 -59 -221 -111 -381 -156 -554
-156 -57 0 -108 4 -114 8 -6 4 -16 27 -22 52 l-11 45 5 -45 4 -45 -76 0 c-72
0 -78 -2 -98 -28 -18 -25 -21 -42 -20 -120 1 -77 6 -107 33 -182 58 -161 161
-307 239 -338 95 -38 134 -33 300 38 86 36 157 45 287 37 216 -14 385 54 453
184 6 11 18 57 27 103 15 70 15 97 6 179 -19 158 -68 274 -135 320 -50 34
-101 36 -184 7z m10 -282 c7 -26 -1 -43 -20 -44 -10 -1 -6 -4 8 -8 19 -5 26
-14 28 -39 2 -18 4 -32 5 -32 1 0 24 7 51 15 27 8 53 15 57 15 15 0 15 -35 0
-54 -9 -11 -11 -16 -5 -13 15 9 38 -19 31 -37 -4 -9 -21 -20 -39 -25 l-33 -10
40 2 c30 2 40 -2 43 -15 3 -17 -7 -24 -65 -42 -16 -5 -23 -2 -26 11 -4 14 -5
13 -6 -4 0 -13 -2 -23 -4 -23 -1 0 -33 -9 -71 -20 -51 -14 -73 -17 -83 -9 -10
9 -13 8 -13 -3 0 -10 -14 -18 -41 -22 -48 -8 -59 -2 -59 29 0 13 -4 27 -10 30
-20 12 -10 41 18 52 l27 11 -31 -5 c-23 -4 -33 -1 -38 12 -3 9 -4 21 -1 26 8
13 84 31 96 23 8 -4 9 6 4 35 -4 26 -3 47 4 55 9 11 7 15 -10 19 -14 4 -20 12
-17 28 2 17 16 26 58 40 71 23 97 23 102 2z m-702 -166 c0 -18 4 -37 9 -42 5
-6 11 -21 13 -35 3 -23 7 -25 58 -25 53 0 55 -1 55 -27 -1 -16 3 -28 7 -28 13
0 9 -48 -4 -53 -8 -3 -6 -6 4 -6 10 -1 22 -10 28 -20 8 -16 6 -21 -10 -26 -11
-4 -33 -5 -48 -4 -15 1 -34 -1 -42 -5 -8 -3 -55 -5 -105 -4 l-90 3 -3 28 c-2
15 -8 27 -13 27 -5 0 -9 14 -9 30 0 17 -4 30 -10 30 -5 0 -10 9 -10 20 0 17 7
20 41 20 32 0 39 3 32 13 -16 20 -22 57 -10 57 7 0 4 5 -5 11 -10 5 -18 21
-18 34 0 26 14 31 88 34 41 1 42 0 42 -32z"/>
<path d="M205 2239 c-8 -24 4 -197 14 -203 3 -2 21 -7 39 -11 l32 -7 0 89 c0
113 -5 129 -42 142 -39 14 -36 15 -43 -10z"/>
<path d="M1607 1490 c-44 -8 -44 -8 -49 -40 -2 -20 2 -26 20 -28 30 -5 28 -22
-3 -22 -24 0 -25 -3 -25 -54 0 -30 4 -57 8 -60 10 -6 63 20 77 38 6 7 24 20
41 29 17 9 37 23 45 33 13 16 11 17 -29 12 -37 -5 -41 -4 -31 9 8 9 26 13 53
11 39 -3 41 -2 44 28 3 30 0 32 -42 43 -49 12 -53 12 -109 1z"/>
<path d="M2469 1054 c-9 -3 -28 -34 -42 -70 l-26 -66 25 6 c52 13 191 67 223
87 22 13 30 24 24 30 -11 11 -177 21 -204 13z"/>
<path d="M2440 813 c-78 -8 -76 -6 -111 -113 -18 -54 -31 -102 -28 -104 9 -9
182 50 269 92 100 48 136 77 120 97 -21 25 -145 39 -250 28z"/>
<path d="M2684 2796 c-34 -15 -53 -59 -34 -81 8 -9 8 -14 0 -17 -13 -4 7 -58
22 -58 34 0 132 80 116 95 -2 1 -32 10 -68 18 l-65 16 60 -3 c33 -1 66 -5 73
-10 7 -4 12 -1 12 9 0 9 -4 14 -9 11 -5 -3 -11 3 -14 14 -6 24 -46 26 -93 6z"/>
</g>
</svg>
