<?xml version="1.0" standalone="no"?>
<!DOCTYPE svg PUBLIC "-//W3C//DTD SVG 20010904//EN"
 "http://www.w3.org/TR/2001/REC-SVG-20010904/DTD/svg10.dtd">
<svg version="1.0" xmlns="http://www.w3.org/2000/svg"
 width="720.000000pt" height="544.000000pt" viewBox="0 0 720.000000 544.000000"
 preserveAspectRatio="xMidYMid meet">
<metadata>
Created by potrace 1.16, written by Peter Selinger 2001-2019
</metadata>
<g transform="translate(0.000000,544.000000) scale(0.100000,-0.100000)"
fill="#000000" stroke="none">
<path d="M3470 5390 c-212 -30 -443 -138 -589 -274 -101 -96 -211 -260 -211
-316 0 -18 -8 -34 -21 -43 -37 -26 -66 -155 -39 -172 13 -8 13 -96 0 -129 -5
-14 -24 -42 -43 -63 -51 -56 -69 -100 -75 -173 -12 -174 79 -346 217 -408 70
-31 199 -72 228 -72 13 0 30 -11 40 -26 l17 -26 -56 -49 c-75 -65 -112 -129
-105 -179 l5 -38 -53 5 c-58 6 -259 -36 -303 -64 -21 -13 -26 -12 -48 2 -40
26 -180 39 -279 27 -95 -13 -122 -24 -197 -85 -29 -24 -74 -53 -100 -66 -96
-46 -288 -252 -288 -308 0 -11 -9 -32 -20 -46 -11 -14 -20 -34 -20 -46 0 -14
-8 -22 -27 -26 -16 -4 -81 -22 -146 -41 -64 -19 -119 -34 -122 -34 -3 0 -5 10
-5 23 0 34 -19 47 -66 47 -54 0 -74 -20 -74 -71 0 -30 -4 -39 -17 -39 -18 0
-12 -10 9 -14 31 -7 68 -26 68 -37 0 -6 9 0 21 15 25 31 89 66 121 66 13 0 32
-7 42 -15 18 -14 14 -15 -48 -15 -58 0 -70 -3 -91 -25 -14 -13 -25 -29 -25
-35 0 -16 65 -41 150 -56 41 -7 109 -20 150 -29 41 -8 157 -18 258 -22 154 -5
182 -4 180 8 -4 20 42 23 77 5 17 -9 26 -16 21 -16 -6 0 -1 -7 10 -15 10 -8
42 -15 69 -16 50 -1 50 -1 15 -10 -19 -5 -111 -11 -205 -13 -123 -2 -142 -2
-70 3 55 4 89 8 75 10 l-25 3 25 9 c15 5 -82 7 -245 4 -238 -4 -285 -2 -390
15 -142 24 -146 24 -120 4 31 -23 161 -60 275 -79 135 -21 396 -24 427 -5 18
11 30 11 76 0 101 -24 482 31 612 89 22 10 58 33 79 51 30 27 36 38 31 57 -4
16 -2 22 5 18 5 -3 10 -19 10 -34 0 -32 -36 -69 -95 -100 -80 -41 -336 -92
-577 -116 l-68 -7 0 -38 c0 -38 0 -39 43 -43 23 -2 4 -4 -43 -5 l-85 -2 0 42
0 43 -140 7 c-284 15 -464 52 -575 118 -36 21 -76 41 -90 45 -14 4 -51 18 -83
32 l-59 24 -146 -60 c-81 -33 -223 -89 -317 -125 -304 -115 -280 -91 -270
-271 7 -131 8 -136 34 -155 14 -11 32 -25 38 -30 7 -6 13 -32 13 -57 0 -25 20
-287 44 -582 25 -295 48 -574 51 -622 l7 -85 -40 -18 c-23 -10 -51 -29 -63
-42 -20 -21 -21 -30 -15 -96 5 -61 10 -77 31 -95 50 -44 30 -42 1305 -128
1199 -81 3086 -217 3402 -245 64 -5 359 -10 656 -10 l541 0 4 23 4 22 2 -22
c1 -22 5 -23 92 -23 l91 0 157 91 c433 253 492 290 501 315 6 14 10 54 10 89
0 61 -1 65 -36 94 l-37 29 7 69 c13 145 46 579 61 813 34 534 30 496 63 529
26 27 29 37 35 122 4 51 7 124 7 164 0 120 -10 124 -375 150 -121 8 -244 18
-272 21 l-53 5 0 43 c0 76 -10 106 -43 122 -33 18 -146 21 -175 5 -12 -6 -37
-5 -77 5 -174 41 -329 56 -622 61 -298 5 -490 -7 -639 -42 l-54 -12 0 32 c0
45 -23 60 -84 58 -50 -2 -83 -24 -70 -45 3 -5 3 -21 -1 -37 l-6 -28 -78 5
c-93 5 -141 -13 -141 -53 0 -32 -8 -35 -67 -28 l-50 5 10 35 c6 19 20 39 31
43 41 16 105 70 136 115 45 65 98 177 114 237 12 48 16 53 54 66 22 7 48 24
56 38 13 19 25 24 57 24 22 0 50 7 62 15 18 12 31 12 61 4 33 -9 49 -7 115 16
130 46 274 119 303 153 14 17 49 41 78 52 28 11 62 27 75 36 26 17 78 94 90
135 4 13 21 46 38 72 36 58 87 264 86 347 -1 53 -2 52 -14 -30 -13 -84 -35
-183 -56 -250 -21 -66 -95 -127 -165 -135 l-35 -5 20 28 c11 15 25 58 31 97 6
39 18 95 27 125 9 30 17 65 19 78 1 13 10 29 20 37 15 10 5 12 -62 12 -43 0
-105 6 -136 13 -78 18 -82 14 -104 -98 -1 -8 -6 -17 -10 -20 -4 -4 -4 1 -1 10
3 10 2 20 -3 23 -6 4 -10 16 -11 28 -1 12 -7 -3 -14 -32 -13 -53 -19 -67 -52
-138 -8 -17 -13 -37 -10 -45 3 -7 6 -3 6 10 1 24 8 27 31 12 13 -8 13 -10 -2
-10 -15 0 -16 -4 -8 -25 13 -34 0 -31 -36 8 -48 51 -68 116 -60 201 3 39 13
93 21 120 8 27 13 52 10 54 -13 14 -26 -22 -46 -128 -12 -63 -23 -120 -25
-127 -3 -12 -54 -37 -108 -54 -23 -7 -44 -2 -110 27 -142 64 -282 54 -385 -25
-44 -34 -51 -36 -143 -42 -71 -4 -103 -10 -116 -22 -13 -12 -36 -17 -75 -17
-70 0 -68 13 11 58 60 35 168 132 215 194 26 34 30 36 62 27 41 -12 100 2 136
30 13 10 47 30 74 44 64 32 129 102 163 175 31 69 41 184 22 273 -22 103 -101
215 -188 266 -58 35 -86 92 -67 137 12 27 -31 100 -82 143 -24 20 -43 42 -43
49 0 22 -69 93 -145 149 -118 88 -256 150 -400 181 -87 19 -279 26 -365 14z
m288 -279 c45 -13 82 -26 82 -30 0 -3 -18 -33 -40 -66 -22 -33 -40 -64 -40
-69 0 -6 19 20 42 57 24 37 49 67 57 67 24 0 126 -60 177 -104 28 -24 69 -72
92 -107 40 -58 42 -66 42 -133 0 -39 4 -86 10 -105 6 -23 5 -63 -6 -134 -19
-122 -14 -240 15 -381 28 -131 27 -139 -14 -179 -19 -19 -35 -41 -35 -51 0 -9
-7 -16 -16 -16 -8 0 -12 -5 -9 -10 4 -7 12 -7 24 0 10 5 22 6 26 2 5 -4 5 -1
0 7 -5 9 -3 18 6 25 8 6 22 21 31 34 l16 23 6 -26 c7 -29 17 -31 54 -9 15 9
-15 -25 -66 -75 -82 -81 -106 -97 -214 -151 -67 -33 -128 -60 -135 -60 -28 0
-10 16 45 39 31 14 67 35 79 48 12 13 27 23 34 23 7 0 21 9 33 20 12 12 35 32
51 45 22 17 27 27 19 35 -8 8 -20 6 -45 -9 -19 -12 -30 -21 -25 -21 12 0 -50
-44 -99 -71 -22 -12 -47 -27 -55 -34 -8 -7 -26 -15 -40 -17 -14 -2 -24 -9 -22
-16 5 -26 -20 1 -35 35 -17 41 -29 39 -13 -2 13 -33 9 -38 -49 -54 -74 -21
-83 -23 -188 -28 -80 -4 -100 -8 -96 -19 8 -20 199 -17 283 4 58 15 65 20 64
41 l-1 23 18 -23 c10 -13 15 -27 11 -31 -4 -3 -45 -18 -92 -33 -103 -33 -294
-45 -406 -26 -152 27 -307 115 -378 214 -112 158 -196 417 -196 600 0 153 65
337 163 465 42 56 134 142 151 142 6 0 24 13 41 29 41 40 159 98 248 122 99
26 277 22 395 -10z m815 -417 c31 -19 57 -38 57 -40 0 -7 -44 7 -50 16 -15 21
-49 29 -78 19 -60 -21 -80 -81 -97 -294 -7 -86 51 -319 84 -340 4 -2 20 3 35
11 34 17 76 19 76 3 0 -8 5 -7 15 1 9 7 18 10 21 8 10 -10 -49 -49 -65 -43 -8
3 -12 3 -8 -1 15 -15 -17 -34 -56 -34 -34 0 -46 6 -69 33 -64 74 -95 176 -104
339 -6 104 -5 125 15 186 34 109 85 165 156 171 6 1 36 -15 68 -35z m-1900
-241 c-24 -42 -28 -61 -31 -156 -5 -137 14 -224 79 -357 37 -76 70 -115 124
-144 18 -10 22 -15 10 -12 -11 2 -33 7 -49 11 -95 21 -180 165 -217 368 -6 34
-16 68 -22 75 -8 11 -7 16 6 23 12 7 17 23 17 60 0 71 35 148 74 165 17 7 32
13 33 14 2 0 -10 -21 -24 -47z m2118 -714 l87 -41 78 36 79 35 3 -24 c2 -14
-8 -40 -22 -62 -21 -31 -26 -49 -26 -102 0 -95 17 -137 82 -207 73 -78 94 -84
167 -47 78 39 80 39 42 4 -39 -37 -110 -74 -238 -125 -103 -40 -130 -43 -159
-20 -10 8 -14 13 -8 10 16 -8 77 11 163 51 81 38 84 40 103 42 7 0 -10 16 -38
34 -60 40 -122 103 -130 135 -7 26 -8 26 -37 7 -22 -14 -196 -49 -205 -40 -3
2 -13 0 -23 -6 -17 -9 -19 -5 -19 40 0 27 8 69 19 93 19 44 102 128 127 128 7
0 16 4 19 10 9 14 -126 6 -156 -10 -71 -38 -132 -113 -145 -179 -7 -32 -35
-56 -57 -47 -7 2 -4 5 6 5 10 1 22 13 27 27 16 41 12 54 -14 54 -14 0 -27 4
-30 8 -7 12 -135 5 -151 -8 -16 -14 -8 -48 19 -79 l21 -24 -23 14 c-21 13 -42
63 -42 102 0 27 38 98 74 135 58 62 135 90 246 91 68 1 83 -3 161 -40z m-1777
-68 c5 -8 36 -28 138 -87 29 -17 22 -27 -33 -45 -49 -16 -60 -14 -37 9 20 20
0 13 -42 -14 -43 -29 -49 -41 -24 -51 11 -4 13 -13 9 -34 -4 -15 -1 -38 6 -51
7 -14 -10 -2 -43 28 -69 65 -155 89 -120 34 6 -10 8 -22 3 -24 -11 -7 -21 17
-21 51 0 31 28 73 94 140 53 54 61 59 70 44z m1263 -107 c-38 -103 -26 -301
28 -439 7 -16 6 -18 -6 -7 -16 14 -33 16 -24 2 3 -5 1 -10 -5 -10 -7 0 -9 -8
-4 -22 14 -49 -10 -5 -42 74 -37 92 -45 94 -14 3 11 -32 20 -62 20 -66 0 -13
-41 -50 -115 -104 -22 -16 -51 -40 -64 -52 -32 -31 -81 -60 -106 -64 -11 -2
-58 12 -105 30 -47 18 -112 36 -145 38 -38 3 -65 11 -72 21 -11 13 -13 13 -13
1 0 -10 -13 -15 -44 -16 -24 -1 -60 -8 -78 -16 -34 -15 -35 -14 -76 29 -47 51
-59 54 -68 19 -3 -14 -10 -25 -14 -25 -17 0 -61 122 -68 192 -6 65 -9 73 -27
70 -27 -5 -35 -20 -35 -68 0 -63 26 -138 97 -282 36 -73 63 -135 60 -138 -10
-11 -85 116 -116 195 -42 110 -55 187 -48 294 6 99 27 178 58 217 l20 25 -18
-39 c-14 -30 -15 -40 -5 -43 6 -3 10 -9 6 -14 -3 -5 -1 -9 5 -9 5 0 12 6 14
13 3 6 6 -4 7 -23 l2 -35 14 33 c12 27 19 32 49 32 22 0 44 -8 58 -20 22 -21
54 -23 50 -2 -4 16 -3 15 48 -8 24 -11 57 -20 72 -20 16 0 30 -7 34 -16 4 -10
8 -12 13 -5 3 7 34 16 69 22 92 14 215 75 279 137 54 53 83 75 77 60 -4 -9 -1
-19 5 -23 6 -3 9 -1 8 6 -2 8 8 14 24 14 29 1 43 10 43 28 0 6 17 16 37 22 20
5 40 13 44 18 4 4 17 7 29 7 12 0 30 6 41 14 10 8 20 13 21 12 2 -1 -7 -29
-20 -62z m-1434 -163 c62 -27 124 -106 141 -181 8 -33 -5 -52 -40 -55 -16 -1
-54 -9 -84 -17 -30 -9 -73 -19 -95 -23 -22 -3 -48 -8 -57 -11 -13 -4 -18 0
-18 16 0 36 -49 127 -86 159 -20 18 -51 33 -75 37 -22 4 -38 12 -36 17 6 19
208 74 279 76 14 1 46 -8 71 -18z m-428 -45 c22 -9 51 -27 64 -39 27 -25 66
-107 76 -161 l7 -36 -76 -1 c-101 -2 -98 -1 -106 -24 -5 -15 -10 -5 -20 39
-15 75 -50 127 -108 166 -55 36 -95 44 -178 37 -35 -4 -64 -4 -64 -2 0 11 50
30 95 36 86 13 265 4 310 -15z m-337 -90 c38 -21 62 -66 62 -119 0 -40 -5 -54
-29 -78 -37 -37 -52 -36 -73 1 -19 33 -24 34 -83 20 -34 -8 -44 -6 -68 11 -24
18 -38 20 -82 14 -66 -8 -78 6 -39 47 34 35 84 62 174 94 75 26 106 28 138 10z
m-241 -208 c31 -29 29 -50 -8 -93 -35 -40 -61 -44 -104 -15 -16 11 -45 20 -63
20 -39 0 -50 21 -31 57 26 49 97 56 93 9 -2 -22 6 -20 46 14 19 17 36 30 39
30 3 0 15 -10 28 -22z m157 -29 c35 -28 33 -49 -11 -92 -40 -40 -59 -45 -102
-22 -44 22 -44 39 3 89 47 51 70 56 110 25z m1184 9 c6 -7 20 -42 32 -78 44
-134 124 -251 179 -265 40 -10 52 -24 40 -46 -8 -16 -21 -19 -83 -19 -56 0
-75 4 -80 15 -4 10 -19 15 -49 15 -27 0 -49 -6 -57 -15 -16 -19 -39 -19 -60 0
-10 9 -50 17 -113 21 l-97 7 0 36 c0 72 -45 95 -180 92 -46 -1 -59 -5 -78 -27
l-23 -27 -92 28 c-139 42 -161 55 -165 90 -3 30 -2 31 38 27 32 -3 48 1 78 24
25 19 32 22 22 9 -8 -11 -22 -24 -30 -30 -26 -17 106 -23 190 -9 41 8 125 20
185 29 105 14 111 17 140 49 21 25 42 36 70 41 22 3 56 15 75 25 42 23 45 23
58 8z m-858 -83 c9 -11 11 -33 6 -78 -4 -34 -8 -70 -9 -79 -1 -15 -6 -15 -44
7 -45 25 -49 22 -33 -19 14 -39 1 -31 -16 9 -19 47 -19 139 2 159 20 20 78 21
94 1z m-595 -47 c14 -6 25 -16 25 -22 0 -5 -12 -45 -27 -88 -26 -72 -30 -78
-56 -78 -15 0 -30 6 -33 13 -9 24 25 161 43 175 20 15 17 15 48 0z m148 -22
c27 -21 20 -49 -29 -112 -42 -55 -44 -59 -24 -62 12 -2 28 4 36 15 14 17 14
16 4 -4 -11 -24 -44 -37 -81 -31 -32 4 -35 48 -8 117 35 88 61 108 102 77z
m3762 -206 c262 -20 550 -74 562 -107 13 -32 -15 -35 -80 -9 -75 30 -187 57
-337 83 -86 15 -160 18 -405 17 -263 0 -315 -3 -424 -22 -68 -12 -126 -20
-128 -18 -12 12 203 45 358 55 185 12 299 12 454 1z m-69 -155 c181 -32 179
-86 -3 -121 -207 -39 -508 7 -467 72 33 54 288 80 470 49z m-4906 -36 c-8 -5
-40 -16 -70 -25 -50 -15 -189 -75 -250 -109 -35 -19 -37 -43 -5 -55 14 -5 153
-19 308 -30 324 -23 353 -26 277 -29 -89 -3 -39 -18 100 -30 69 -6 213 -15
320 -21 107 -6 242 -15 300 -20 58 -6 125 -9 150 -8 40 1 38 2 -20 9 -36 4
-150 14 -255 23 -104 9 -235 20 -290 25 l-100 10 120 -4 c66 -3 174 -9 240
-14 66 -6 203 -15 305 -21 274 -15 486 -30 565 -39 l70 -8 -57 -2 c-31 0 -60
-5 -63 -11 -3 -5 3 -10 14 -10 11 0 217 -13 458 -30 666 -45 877 -59 1003 -64
124 -6 257 -15 305 -21 17 -2 24 -1 18 2 -7 2 -13 9 -13 15 0 13 175 5 490
-22 143 -13 175 -17 95 -14 -272 12 -280 13 -250 4 36 -10 722 -60 821 -60 60
0 51 10 -18 20 -79 13 263 1 482 -16 302 -23 467 -28 549 -15 65 10 86 19 159
69 174 118 456 302 433 282 -14 -12 -18 -20 -10 -21 8 0 24 -2 37 -5 16 -3 21
0 16 8 -4 7 -3 8 4 4 17 -10 182 102 182 123 0 17 -58 30 -160 37 -58 3 -123
10 -145 15 -29 6 -16 7 45 3 47 -3 118 -7 159 -9 75 -4 121 -23 121 -50 0 -7
-17 -25 -37 -40 -21 -14 -87 -61 -148 -103 -283 -200 -472 -325 -514 -341 -35
-14 -46 -24 -48 -42 -1 -13 -5 -68 -8 -121 l-7 -98 -38 0 c-31 0 -37 3 -35 18
2 9 6 61 9 115 l5 97 -112 0 c-61 0 -206 7 -322 14 -265 19 -456 31 -865 56
-179 11 -431 27 -560 35 -375 23 -1067 70 -2230 150 -278 20 -667 46 -865 60
-198 14 -490 30 -650 36 -159 6 -301 11 -315 12 -25 2 -25 2 -25 -85 0 -52 5
-92 12 -99 6 -6 49 -15 95 -19 104 -10 348 -39 368 -45 20 -5 -211 4 -385 16
-162 10 -210 21 -229 52 -8 13 -16 68 -20 139 -6 110 -6 119 14 135 19 17 130
61 345 139 55 20 107 40 115 44 20 11 28 2 10 -11z m3861 -24 c-41 -47 -42
-91 -3 -128 41 -40 165 -96 266 -122 205 -52 327 -61 771 -57 340 3 644 81
713 182 30 45 28 73 -9 115 -36 41 -27 46 15 10 16 -14 33 -25 38 -25 4 0 8
-7 8 -16 0 -9 16 -34 35 -55 40 -44 48 -97 18 -120 -15 -11 -16 -11 -5 1 19
21 15 39 -17 75 l-28 32 -27 -33 c-69 -87 -268 -150 -593 -189 -70 -8 -134
-15 -141 -15 -9 0 -12 -13 -10 -42 3 -42 4 -43 43 -49 22 -3 -11 -6 -75 -6
-63 0 -103 2 -87 4 15 2 25 8 23 12 -3 4 -6 24 -8 44 l-2 37 -67 0 c-168 0
-443 32 -606 71 -159 38 -324 138 -323 197 1 27 23 60 60 87 46 34 48 32 11
-10z m-767 -181 c23 -9 20 -27 -12 -57 -28 -27 -31 -27 -107 -20 -44 5 -80 13
-82 20 -2 6 9 23 24 37 24 23 37 26 95 26 36 0 73 -3 82 -6z m-1936 -426 c58
-28 85 -74 71 -121 -5 -19 -33 -55 -69 -89 l-61 -57 42 -11 c46 -13 96 -58
105 -96 12 -46 40 -29 64 39 30 82 101 249 113 265 6 7 17 10 26 7 10 -3 26 2
37 10 10 8 27 15 37 15 9 0 17 5 17 10 0 6 5 10 10 10 6 0 10 -9 10 -20 0 -11
4 -28 9 -38 6 -9 18 -71 28 -137 17 -110 20 -120 41 -123 15 -2 22 -11 23 -25
0 -12 9 4 19 35 35 112 105 199 194 239 45 20 91 25 101 9 3 -5 12 -7 19 -4
22 8 56 -44 56 -86 0 -53 -18 -100 -36 -93 -8 3 -14 0 -14 -6 0 -6 -4 -11 -9
-11 -18 0 -41 32 -41 56 0 36 -32 31 -75 -11 -47 -47 -76 -107 -82 -169 -4
-43 -1 -56 18 -80 19 -24 27 -28 60 -23 20 3 57 18 81 34 57 39 98 61 81 42
-15 -16 -17 -49 -3 -49 6 0 10 4 10 9 0 5 8 12 18 16 16 4 23 32 45 165 30
176 42 216 63 199 11 -9 15 -7 20 5 4 11 13 15 25 11 11 -4 19 -2 19 4 0 21
16 11 26 -16 7 -19 6 -49 -2 -93 -7 -36 -11 -66 -10 -68 2 -1 41 31 87 71 101
88 146 120 157 113 5 -3 20 6 32 19 37 39 46 29 10 -11 -17 -20 -29 -39 -25
-42 3 -3 11 0 17 6 17 17 33 15 18 -3 -6 -8 -9 -19 -5 -25 9 -14 -13 -39 -90
-103 -33 -27 -79 -67 -103 -89 l-43 -39 97 -120 c53 -66 99 -118 101 -115 2 2
-1 13 -8 23 -12 20 -4 102 8 89 3 -3 12 -1 20 5 7 6 13 8 13 4 0 -4 6 -3 13 3
10 9 16 4 26 -23 8 -23 21 -37 37 -41 58 -15 149 22 149 61 0 12 -30 33 -94
66 -108 56 -124 69 -141 110 -25 59 19 125 119 178 128 68 241 43 241 -54 0
-31 -27 -88 -39 -80 -5 3 -12 -3 -16 -13 -6 -16 -7 -16 -16 1 -6 9 -14 15 -20
12 -5 -4 -9 8 -9 24 0 38 -18 40 -80 9 -67 -34 -61 -52 35 -104 44 -23 99 -60
123 -81 35 -32 42 -45 42 -75 0 -64 -71 -125 -195 -168 -56 -19 -115 -27 -102
-13 7 6 -66 43 -85 43 -5 0 12 -28 38 -62 50 -65 46 -67 -24 -10 -45 36 -69
37 -37 2 24 -26 11 -26 -26 1 -24 17 -39 20 -77 16 -42 -5 -44 -5 -19 5 25 11
38 38 18 38 -5 0 -49 44 -99 99 l-89 98 -12 -51 c-6 -28 -14 -70 -17 -93 -4
-24 -10 -43 -15 -43 -5 0 -6 7 -3 15 4 8 2 15 -3 15 -12 0 -33 -44 -34 -73 -1
-12 -5 -4 -8 18 -4 30 -10 40 -23 39 -16 -2 -18 8 -18 64 l0 66 -67 -65 c-115
-111 -132 -116 -223 -68 -61 32 -93 75 -107 143 -7 33 -10 35 -25 24 -16 -12
-16 -18 -3 -83 18 -83 18 -95 4 -75 -8 11 -9 1 -6 -40 l5 -55 -19 44 c-11 24
-22 41 -26 37 -4 -4 -13 4 -20 16 -11 20 -12 21 -13 4 0 -34 -13 -8 -30 62
-18 75 -11 72 -117 51 l-51 -10 -23 -64 c-14 -40 -27 -61 -34 -58 -7 2 -19 -9
-26 -26 -18 -39 -25 -39 -33 1 -6 30 -7 31 -21 12 -19 -25 -19 -10 1 56 22 75
4 84 -56 25 -25 -24 -75 -63 -113 -88 -37 -24 -65 -46 -62 -49 3 -3 -20 -18
-52 -34 -76 -38 -77 -38 -69 -25 4 6 1 11 -8 11 -9 0 -18 -12 -22 -27 -9 -44
-12 -50 -13 -25 -1 12 -5 22 -10 22 -12 0 -21 -37 -21 -93 0 -30 -4 -46 -10
-42 -5 3 -10 31 -10 61 0 30 -4 54 -10 54 -5 0 -10 -10 -10 -22 -1 -23 -1 -23
-16 -3 -8 11 -18 19 -22 19 -4 -1 -20 -4 -37 -8 -28 -6 -29 -5 -11 8 20 16 12
41 -10 32 -8 -3 -14 -1 -14 5 0 5 7 12 15 15 21 8 19 25 -2 18 -25 -8 14 25
56 48 31 17 31 18 31 96 0 44 3 94 6 111 5 24 3 31 -10 31 -15 0 -21 17 -16
49 1 8 -4 17 -10 21 -8 5 -1 12 18 21 27 12 32 20 42 79 18 106 18 111 6 107
-93 -38 -116 -45 -121 -38 -3 5 1 11 7 14 10 3 10 7 1 17 -9 10 -21 10 -60 -3
-27 -9 -58 -19 -69 -22 -10 -3 11 10 48 29 61 32 102 65 64 50 -9 -3 -16 -1
-16 5 0 22 157 89 261 111 74 15 193 5 247 -22z m-1418 -273 c61 -714 78 -955
69 -955 -9 0 -29 201 -59 585 -6 77 -15 194 -20 260 -15 187 -23 361 -17 355
3 -3 15 -113 27 -245z m3890 217 c0 -5 6 -53 14 -108 8 -54 18 -122 21 -151 6
-43 10 -52 30 -57 16 -4 22 -11 19 -21 -4 -8 -2 -15 4 -15 5 0 17 21 27 48 38
100 126 195 222 239 45 21 66 24 115 21 53 -4 64 -8 84 -34 13 -16 24 -38 24
-49 -1 -33 -38 -107 -51 -99 -6 3 -15 1 -19 -6 -12 -19 -40 12 -40 44 0 30
-25 35 -68 12 -40 -20 -118 -108 -136 -151 -21 -49 -20 -114 1 -137 24 -27 80
-23 127 10 56 38 58 54 8 51 -50 -4 -53 -1 -55 47 -2 36 0 39 31 45 18 4 75
10 127 14 l94 7 -3 -34 c-2 -18 -18 -71 -34 -118 -17 -47 -38 -112 -48 -145
-13 -44 -19 -54 -24 -40 -8 23 -17 11 -36 -49 l-13 -41 0 48 c-1 26 -5 47 -11
47 -5 0 -10 -7 -10 -16 0 -8 -4 -13 -9 -10 -4 3 -5 25 -1 48 5 24 7 44 6 46
-2 1 -24 -9 -50 -23 -54 -29 -71 -30 -119 -10 -74 31 -127 97 -127 160 0 20
-5 25 -23 25 l-24 0 12 -80 c10 -72 7 -101 -9 -67 -3 6 -4 -15 -1 -47 6 -62
-2 -67 -21 -13 -6 18 -15 31 -20 30 -5 -1 -14 8 -21 20 -7 12 -12 16 -13 10 0
-7 -4 -13 -9 -13 -5 0 -12 21 -16 48 -14 100 -10 95 -79 88 -105 -12 -105 -12
-142 -90 -19 -39 -34 -63 -34 -53 0 31 -19 18 -45 -30 -23 -42 -25 -44 -21
-18 5 33 -11 70 -21 48 -2 -7 -8 -13 -13 -13 -5 0 2 27 16 60 28 69 29 74 11
67 -10 -4 -14 4 -14 24 0 16 5 29 11 29 6 0 4 5 -4 10 -13 9 -13 11 0 20 8 5
24 10 35 10 16 0 34 26 80 118 33 64 61 121 63 125 2 5 -11 6 -29 3 -19 -3
-68 -10 -109 -16 l-75 -12 -17 -57 c-8 -31 -33 -128 -54 -216 -29 -119 -40
-152 -44 -130 l-5 30 -22 -36 c-12 -19 -27 -46 -33 -60 -8 -19 -9 -14 -4 27 3
33 2 54 -5 59 -6 3 -11 1 -11 -4 0 -6 -5 -11 -10 -11 -6 0 -8 17 -5 43 5 36
48 266 60 321 3 16 -1 18 -33 13 -144 -22 -138 -21 -124 -5 7 10 9 19 4 22
-12 7 -8 64 5 77 5 5 47 14 93 20 47 6 93 15 104 21 25 13 260 20 289 8 l22
-9 -23 -7 c-21 -6 -21 -7 -5 -20 17 -12 16 -13 -7 -22 -24 -9 -23 -9 13 -14
35 -4 39 -1 58 32 17 29 27 37 52 37 47 2 97 14 97 24 0 5 5 9 10 9 6 0 10 -4
10 -8z m1105 -106 c10 -9 25 -14 35 -11 10 3 21 1 24 -4 4 -5 -13 -13 -38 -16
-25 -4 -53 -13 -63 -21 -17 -12 -16 -13 7 -14 55 -1 -5 -18 -84 -24 -167 -13
-173 -15 -179 -44 -3 -15 -9 -35 -13 -46 -6 -17 -2 -18 62 -16 38 2 82 2 98 1
28 -1 29 -2 10 -16 -19 -14 -18 -14 4 -15 33 0 27 -16 -10 -25 -28 -6 -30 -8
-13 -14 18 -7 17 -8 -5 -14 -14 -3 -62 -9 -107 -13 l-81 -7 -13 -46 c-7 -25
-12 -48 -11 -49 1 -2 71 -3 155 -3 86 1 159 -3 167 -9 11 -7 7 -10 -20 -10
-66 -1 -9 -20 65 -21 70 -2 63 -4 -53 -15 -60 -5 -79 -24 -25 -24 15 0 24 -2
22 -4 -2 -2 -76 -10 -164 -16 -88 -7 -172 -18 -187 -25 -20 -10 -28 -10 -31
-1 -3 6 -9 0 -15 -14 -8 -18 -11 -20 -11 -7 -1 13 -10 17 -37 17 -27 0 -35 4
-31 14 3 8 3 17 -1 21 -4 3 -7 19 -8 35 -1 22 3 30 19 32 28 4 65 108 43 120
-8 4 -13 16 -11 26 2 9 4 25 4 34 1 9 10 20 22 23 20 7 30 24 43 77 5 22 2 27
-16 30 -22 3 -34 43 -16 54 4 3 8 13 8 24 0 29 55 44 185 51 177 9 250 5 270
-15z m-2646 -561 c33 -10 69 -31 88 -50 33 -33 34 -35 19 -63 -15 -30 -84 -79
-143 -102 -18 -7 -33 -16 -33 -20 0 -4 24 -12 54 -19 63 -14 115 -46 132 -80
18 -35 0 -75 -58 -125 -57 -50 -106 -76 -232 -123 -77 -29 -83 -37 -11 -16 11
3 17 3 14 -1 -6 -6 -206 -66 -219 -66 -3 0 2 5 10 10 12 8 12 10 -5 9 -11 0
-38 -6 -60 -13 -34 -10 -41 -17 -51 -51 l-12 -40 -1 37 c-1 28 -5 36 -15 32
-17 -7 -31 -41 -45 -114 -10 -54 -10 -53 -5 23 5 71 3 78 -13 75 -9 -2 -20
-14 -24 -28 l-6 -25 -8 27 c-7 29 -12 29 -77 11 -27 -7 -22 14 5 21 12 4 51 8
87 10 36 1 103 15 150 30 47 15 99 32 115 36 114 31 183 53 240 76 69 28 85
45 19 20 -22 -8 -48 -17 -59 -22 -37 -14 -50 -14 -86 1 -20 8 -40 11 -43 7 -4
-3 -12 0 -17 8 -8 11 -12 12 -16 2 -2 -6 -8 -10 -12 -8 -4 3 -41 -4 -82 -14
-91 -24 -96 -24 -77 -2 20 22 36 103 17 85 -7 -7 -34 -13 -60 -13 -47 0 -47 0
-51 -37 -3 -22 0 -41 6 -46 18 -12 -17 -32 -81 -47 -45 -10 -53 -14 -38 -20
18 -7 19 -8 3 -15 -10 -4 -15 -11 -12 -16 3 -5 -10 -9 -28 -8 -30 0 -31 1 -10
9 24 10 30 30 10 30 -22 1 23 22 71 35 42 10 46 14 54 51 5 21 18 70 29 107
l19 69 -22 19 c-18 15 -20 21 -9 34 10 12 10 15 0 15 -20 0 -2 14 32 26 27 9
35 21 60 88 l28 79 -37 -7 c-95 -16 -118 -17 -104 -8 16 12 6 32 -17 33 -13 0
-14 2 -2 6 8 3 23 15 35 25 20 19 20 19 -10 12 -25 -5 -28 -4 -18 7 7 7 59 23
115 35 90 20 125 23 273 20 126 -2 184 -8 224 -21z m793 -3 c2 -5 37 -5 78 -1
41 4 111 8 155 7 l80 0 -50 -13 c-48 -13 -49 -13 -15 -14 l35 -2 -30 -14 -30
-14 30 4 c101 13 360 26 392 20 36 -7 36 -8 13 -15 -24 -7 -24 -8 10 -16 l35
-8 -55 -17 c-44 -14 -49 -18 -26 -18 19 -1 26 -5 20 -10 -5 -5 -64 -15 -132
-22 l-123 -12 -20 -38 c-10 -21 -19 -41 -19 -45 0 -4 36 -4 80 0 44 3 92 3
107 -1 l28 -7 -25 -7 -25 -6 25 -11 c14 -6 20 -11 13 -11 -6 -1 -24 -6 -40
-12 l-28 -12 25 -7 c18 -4 4 -8 -50 -14 -157 -14 -156 -14 -169 -54 -7 -21
-15 -42 -17 -49 -4 -8 45 -10 193 -8 109 2 181 1 161 -1 -71 -9 -36 -32 52
-35 37 -2 33 -3 -25 -9 -38 -4 -85 -11 -104 -15 -25 -6 -32 -5 -27 3 4 7 16
12 27 12 11 0 17 5 14 10 -3 6 -15 10 -26 10 -12 0 -17 4 -13 11 5 9 -23 10
-107 4 -63 -4 -125 -8 -139 -9 -26 -1 -27 1 -16 47 6 26 5 27 -29 27 -22 0
-34 4 -30 10 3 6 0 10 -7 10 -15 0 -38 -53 -38 -86 0 -12 -11 -24 -28 -30 -25
-10 -28 -15 -24 -43 3 -22 10 -31 23 -31 11 0 19 -4 19 -9 0 -6 -12 -9 -27 -7
-16 1 -27 8 -25 14 1 7 -5 15 -13 18 -12 5 -13 9 -3 21 9 11 9 16 -1 23 -9 5
-3 11 20 19 29 9 37 19 52 64 20 64 21 67 5 67 -7 0 -14 11 -14 25 -1 14 3 25
9 25 6 0 7 3 4 7 -4 4 5 12 21 18 19 8 33 26 45 55 15 40 15 42 -2 47 -13 3
-17 11 -13 30 4 23 2 25 -24 20 -16 -4 -59 -9 -95 -13 l-67 -6 -61 -162 c-34
-88 -71 -187 -84 -219 -34 -90 -32 -47 3 50 35 99 32 108 -34 108 l-44 0 -23
-64 c-16 -46 -19 -66 -11 -69 7 -2 12 -8 12 -13 0 -4 -6 -6 -14 -3 -10 4 -16
-5 -21 -25 -6 -29 -25 -53 -25 -33 0 10 100 312 122 369 6 18 10 35 7 37 -3 3
-34 1 -70 -4 -147 -22 -136 -22 -116 -6 17 13 17 15 2 24 -16 8 -16 11 -1 35
13 19 14 26 4 30 -24 9 35 24 142 37 58 7 110 16 115 20 6 5 21 10 35 13 14 2
28 5 32 6 3 0 8 -3 10 -7z m1088 -20 c19 -9 37 -26 39 -37 2 -11 8 -23 14 -27
17 -11 -28 -99 -47 -92 -9 3 -17 -3 -22 -18 l-7 -23 -9 24 c-7 19 -11 21 -22
11 -12 -9 -15 -6 -18 22 -3 32 -4 33 -46 31 -48 -2 -147 -51 -147 -72 0 -10
47 -33 132 -67 146 -57 217 -95 233 -124 14 -26 12 -62 -5 -84 -8 -10 -12 -23
-9 -27 3 -5 -1 -9 -9 -9 -8 0 -20 -7 -27 -16 -12 -13 -7 -14 41 -9 30 3 69 8
87 11 19 3 32 1 32 -6 0 -5 -8 -10 -17 -10 -87 -2 -205 -22 -253 -43 -30 -14
-90 -40 -133 -57 -43 -18 -75 -35 -72 -38 3 -3 -20 -16 -50 -28 -83 -34 -99
-38 -90 -24 10 17 -15 8 -154 -51 -63 -27 -116 -47 -119 -44 -3 2 30 21 73 42
43 20 74 38 68 40 -5 2 -81 -21 -168 -52 -149 -52 -200 -66 -165 -46 57 33
344 125 365 117 10 -4 14 -2 9 5 -4 8 1 9 15 4 23 -7 225 61 341 114 l65 30
-55 1 c-30 0 -63 7 -73 14 -13 10 -27 12 -45 6 -28 -9 -194 -79 -296 -124 -33
-14 -61 -24 -63 -22 -5 4 18 15 172 83 186 82 342 161 348 176 9 23 -14 42
-80 67 -146 53 -190 71 -221 90 -110 67 -34 180 170 251 96 33 167 37 218 11z
m-1474 -19 c-4 -9 -1 -20 5 -24 8 -5 6 -24 -9 -70 -25 -78 -124 -359 -146
-414 l-16 -40 6 36 c3 19 16 67 29 105 13 39 20 73 15 79 -11 14 -60 18 -60 5
0 -6 -7 -10 -16 -10 -27 0 -44 -27 -60 -99 -9 -38 -22 -78 -30 -88 -23 -29
-17 -6 87 332 40 131 68 193 79 176 6 -11 15 -11 46 -1 22 7 46 16 54 21 22
11 23 11 16 -8z m-2108 -49 c17 -5 22 -14 22 -40 0 -44 -12 -48 -105 -39 l-75
7 0 39 0 39 68 0 c37 0 77 -3 90 -6z m-240 -99 c15 -5 16 -71 1 -81 -17 -10
-97 -6 -135 6 -29 10 -34 16 -34 44 0 18 3 36 7 40 7 6 133 -1 161 -9z m251
-29 c21 -25 9 -69 -19 -77 -24 -6 -24 -7 -5 -14 27 -11 35 -24 35 -58 0 -36
-15 -41 -102 -30 l-73 8 -3 37 c-3 35 -2 37 30 40 l33 3 -32 18 c-28 15 -33
23 -33 52 l0 35 79 0 c56 0 82 -4 90 -14z m4675 -142 c46 -7 46 -7 46 -45 l0
-39 -64 0 c-35 0 -78 3 -95 6 -27 6 -31 11 -31 39 0 17 3 35 7 38 8 9 76 9
137 1z m1 -122 c38 -7 40 -9 40 -42 0 -31 -3 -35 -30 -38 -16 -2 -58 -1 -92 3
l-63 7 0 39 0 39 53 -1 c28 0 70 -3 92 -7z m-2411 -59 c-4 -16 -12 -42 -19
-58 l-12 -30 336 -1 c185 -1 351 -5 369 -10 21 -6 -97 -9 -315 -9 -358 0 -569
-7 -708 -25 -171 -21 -434 -77 -377 -79 13 -1 123 12 245 28 250 33 453 52
575 53 139 0 102 -8 -60 -15 -167 -7 -398 -33 -654 -73 -91 -14 -179 -24 -197
-22 l-32 3 32 17 c77 43 390 99 628 114 146 9 149 10 165 78 7 31 17 56 22 56
5 0 5 -12 2 -27z m-2991 -12 c-4 -14 3 -24 24 -34 40 -21 67 -25 271 -42 101
-8 191 -19 200 -24 18 -9 247 -30 612 -56 293 -21 413 -32 365 -33 -22 -1
-105 3 -185 8 -630 43 -1187 73 -1202 64 -4 -3 -8 -20 -8 -37 0 -18 -4 -27 -8
-21 -4 6 -15 13 -24 17 -10 4 -18 17 -18 30 0 19 -9 27 -39 39 -46 18 -51 13
-51 -55 0 -69 -18 -29 -21 46 -3 73 9 97 49 100 12 1 22 5 22 9 0 4 4 8 9 8 5
0 7 -9 4 -19z m6657 -21 c11 -21 25 -12 -255 -165 -88 -48 -214 -118 -280
-155 -67 -37 -143 -75 -170 -85 -64 -24 -81 -39 -89 -78 -5 -23 -9 -28 -15
-18 -7 11 -9 11 -14 0 -3 -8 -6 2 -6 22 l-1 35 -202 12 c-710 42 -1344 81
-1378 86 -74 10 93 3 380 -14 713 -44 867 -51 1030 -45 91 3 180 8 198 11 23
4 32 2 27 -6 -8 -13 28 -6 99 21 73 27 238 128 230 141 -4 6 -3 8 4 4 5 -3 12
-3 14 2 4 9 121 78 197 116 29 15 50 23 46 17 -3 -6 -3 -11 0 -11 10 0 137 68
160 86 19 14 19 16 3 28 -22 16 -23 27 -3 20 9 -4 20 -15 25 -24z m-1466 -13
c12 -9 17 -23 14 -42 -3 -28 -6 -30 -48 -33 -25 -1 -65 1 -90 6 -36 6 -46 12
-48 30 -7 46 3 52 81 52 44 0 80 -5 91 -13z m244 -19 c7 -7 12 -24 12 -39 0
-36 -23 -43 -111 -34 -62 6 -71 10 -79 31 -18 46 -5 54 84 54 50 0 87 -5 94
-12z m-2232 -67 c-4 -6 87 -8 226 -6 l233 4 -227 -14 c-280 -16 -407 -30 -568
-61 -144 -28 -137 -27 -124 -15 9 9 147 41 258 61 33 5 88 10 123 10 49 0 63
3 63 15 0 8 5 15 11 15 5 0 8 -4 5 -9z"/>
<path d="M3835 4569 c-33 -11 -94 -37 -135 -56 -183 -87 -271 -118 -399 -140
-107 -18 -255 -13 -278 9 -7 7 -17 45 -22 83 l-10 70 5 -75 4 -76 -69 4 c-64
4 -72 2 -95 -21 -59 -59 -55 -169 12 -352 40 -107 100 -214 111 -196 4 6 12 1
20 -12 13 -21 13 -21 -4 -7 -16 13 -18 13 -13 0 2 -8 28 -34 56 -57 41 -33 62
-43 107 -48 75 -10 119 -1 215 41 90 39 184 58 245 50 22 -4 87 -7 145 -7 199
-1 339 71 394 203 25 58 37 200 25 287 -21 158 -66 256 -132 296 -53 31 -100
32 -182 4z m15 -279 c6 -11 9 -24 6 -29 -3 -4 0 -23 6 -42 6 -19 13 -40 15
-48 2 -9 7 -10 16 -3 6 5 31 13 55 17 40 6 42 6 42 -18 0 -19 -7 -28 -27 -35
l-28 -10 33 -1 c25 -1 32 -5 32 -21 0 -22 -34 -40 -75 -40 -20 0 -24 -6 -27
-37 -3 -36 -5 -37 -63 -55 -75 -22 -85 -22 -86 0 0 13 -2 12 -9 -5 -9 -22 -16
-24 -77 -27 -12 -1 -20 10 -25 34 -15 62 -15 63 27 76 l40 13 -45 -2 c-39 -2
-45 1 -48 20 -3 17 4 23 30 29 18 4 41 8 50 9 26 2 32 13 18 30 -10 12 -10 21
-2 39 9 20 8 25 -4 30 -10 4 -14 16 -12 33 3 23 11 29 63 44 80 22 83 22 95
-1z m-705 -143 c4 -13 5 -27 4 -33 -1 -5 1 -16 4 -24 3 -8 7 -26 9 -39 3 -24
6 -25 59 -22 55 2 57 1 62 -26 3 -15 11 -50 17 -76 7 -27 9 -51 5 -55 -3 -3
-23 -7 -44 -8 -21 0 -44 -4 -50 -8 -13 -9 -197 1 -213 10 -5 4 -8 14 -5 23 2
9 -2 22 -10 29 -16 16 -17 42 0 42 6 0 4 5 -5 11 -10 5 -18 19 -18 29 0 17 7
20 41 20 35 0 40 2 30 14 -7 8 -13 25 -15 38 -1 13 -6 36 -11 52 -10 37 4 46
77 46 52 0 58 -2 63 -23z"/>
<path d="M207 2253 c-9 -8 -8 -113 1 -172 6 -40 10 -46 41 -53 18 -5 35 -7 38
-4 7 7 4 162 -3 192 -4 14 -18 27 -36 33 -37 13 -33 13 -41 4z"/>
<path d="M1630 1493 c-73 -10 -67 2 -96 -192 l-6 -44 62 34 c85 47 170 124
170 154 0 14 -8 28 -17 33 -23 12 -81 19 -113 15z"/>
<path d="M2469 1054 c-8 -3 -27 -34 -41 -70 l-26 -66 24 6 c52 13 191 67 223
87 31 19 33 22 17 31 -20 11 -171 20 -197 12z"/>
<path d="M2450 815 c-8 -2 -32 -6 -52 -10 -37 -6 -37 -6 -69 -105 -18 -55 -31
-102 -28 -104 9 -10 172 45 264 89 99 46 145 85 122 103 -24 21 -182 38 -237
27z"/>
<path d="M5493 5068 c-12 -13 -44 -63 -73 -112 -28 -49 -60 -102 -70 -117 -11
-14 -29 -46 -40 -70 -11 -24 -34 -64 -50 -89 -16 -25 -41 -68 -54 -97 -18 -39
-34 -57 -64 -72 -88 -45 -109 -128 -52 -212 16 -24 30 -56 30 -70 0 -15 7 -32
15 -39 8 -7 15 -20 15 -29 0 -38 34 -109 68 -144 58 -59 193 -86 280 -56 31
11 31 12 30 72 -3 178 7 203 50 126 18 -31 28 -40 43 -36 10 3 19 1 19 -4 0
-5 -4 -9 -10 -9 -5 0 -10 -7 -10 -15 0 -8 3 -15 6 -15 12 0 33 35 34 54 0 15
3 16 14 7 12 -10 16 -8 21 11 4 13 35 50 69 84 70 70 111 133 121 186 7 35 4
39 -59 102 -36 35 -66 69 -66 74 0 5 -18 17 -41 27 -22 10 -51 32 -64 48 -18
24 -35 32 -91 43 -41 7 -70 9 -72 3 -2 -5 -8 -9 -13 -9 -9 0 75 115 92 125 23
15 62 112 63 158 1 41 -3 52 -27 73 -36 31 -86 32 -114 2z m138 -407 c18 -19
29 -40 29 -58 0 -44 -19 -102 -41 -124 -20 -20 -20 -20 -69 8 -28 15 -50 33
-50 39 0 30 45 136 63 149 29 20 34 19 68 -14z m119 -83 c28 -30 34 -61 21
-99 -15 -44 -14 -46 10 -15 11 14 27 26 34 26 48 0 61 -89 20 -138 -32 -38
-55 -44 -80 -19 -17 17 -17 19 -2 14 16 -6 16 -5 1 18 -13 19 -13 28 -3 47
l12 23 -25 -23 c-19 -17 -32 -21 -51 -17 -47 12 -51 26 -28 114 12 44 21 83
21 86 0 15 52 2 70 -17z m-518 -118 c-4 -76 -11 -94 -28 -79 -8 6 -18 8 -22 4
-4 -4 -1 -10 6 -12 10 -4 10 -8 1 -19 -14 -17 -60 -18 -78 -1 -11 10 -11 8 -2
-10 19 -37 12 -50 -9 -18 -23 34 -25 79 -7 114 14 29 93 73 122 69 17 -3 20
-9 17 -48z"/>
</g>
</svg>
