<?xml version="1.0" standalone="no"?>
<!DOCTYPE svg PUBLIC "-//W3C//DTD SVG 20010904//EN"
 "http://www.w3.org/TR/2001/REC-SVG-20010904/DTD/svg10.dtd">
<svg version="1.0" xmlns="http://www.w3.org/2000/svg"
 width="720.000000pt" height="544.000000pt" viewBox="0 0 720.000000 544.000000"
 preserveAspectRatio="xMidYMid meet">
<metadata>
Created by potrace 1.16, written by Peter Selinger 2001-2019
</metadata>
<g transform="translate(0.000000,544.000000) scale(0.100000,-0.100000)"
fill="#000000" stroke="none">
<path d="M3725 5364 c-11 -2 -45 -9 -75 -15 -83 -17 -223 -66 -288 -101 -102
-56 -145 -90 -280 -225 -128 -128 -162 -175 -162 -226 0 -62 -32 -131 -87
-186 -30 -30 -62 -71 -72 -90 -40 -79 -50 -265 -21 -363 25 -86 116 -170 265
-243 79 -39 96 -53 137 -107 l46 -62 -50 -13 c-64 -17 -123 -52 -184 -111
l-50 -47 -180 3 -180 4 -22 47 c-13 25 -65 97 -117 159 -52 62 -95 118 -95
126 0 16 -243 266 -259 266 -7 0 -35 23 -62 51 -27 28 -49 46 -49 40 0 -5 25
-31 56 -58 31 -26 77 -67 103 -91 44 -41 45 -42 18 -39 -19 2 -34 14 -47 35
-11 18 -27 32 -35 32 -8 0 -15 4 -15 9 0 5 -9 7 -20 4 -23 -6 -115 66 -125 97
-4 11 -10 20 -15 20 -5 0 0 -16 11 -35 l21 -35 -31 11 c-17 6 -31 17 -31 25 0
9 -11 14 -27 14 -46 0 -72 11 -79 32 -5 16 -13 19 -52 16 -52 -3 -50 1 -37
-91 5 -40 12 -52 36 -65 16 -10 29 -24 29 -32 0 -9 20 -33 45 -53 42 -35 73
-82 89 -133 5 -16 2 -23 -13 -27 -13 -3 -19 -13 -18 -30 2 -16 7 -23 16 -19 8
3 20 -3 27 -13 14 -18 14 -18 15 1 0 10 3 13 6 7 2 -7 -2 -22 -10 -33 -14 -20
-15 -19 -64 21 -46 37 -54 49 -83 135 -18 52 -29 101 -26 109 10 27 -66 -11
-94 -47 -14 -18 -43 -50 -65 -73 -35 -35 -40 -46 -39 -86 0 -39 8 -56 45 -105
48 -63 99 -94 193 -118 49 -12 53 -16 86 -78 69 -127 211 -315 256 -338 16 -8
62 -36 103 -62 106 -69 213 -95 237 -57 10 16 44 9 84 -17 70 -46 407 -84 455
-50 12 8 65 16 132 20 l112 6 6 -37 c20 -126 90 -274 146 -310 54 -35 69 -51
69 -78 0 -24 -2 -25 -66 -25 -49 0 -70 4 -78 15 -16 23 -89 24 -110 2 -21 -21
-26 -21 -53 -2 -13 9 -60 18 -120 22 l-98 8 2 38 c4 58 -9 74 -72 87 -74 15
-156 -1 -184 -36 l-20 -25 -73 26 c-95 34 -172 52 -283 64 -121 14 -456 23
-430 12 14 -6 -9 -10 -72 -12 -92 -4 -92 -4 -95 21 -3 28 -36 38 -95 32 -29
-4 -33 -8 -33 -33 0 -25 -5 -30 -42 -39 -137 -35 -193 -52 -218 -65 -31 -16
-40 -12 -40 20 0 32 -20 45 -70 45 -57 0 -70 -12 -70 -67 l0 -43 -75 0 c-94 0
-132 -17 -137 -61 -3 -33 39 -15 -448 -199 -200 -76 -242 -95 -264 -119 -17
-19 -18 -33 -12 -148 8 -133 18 -166 55 -178 14 -4 21 -18 25 -48 6 -48 106
-1273 106 -1298 0 -9 -18 -24 -39 -34 -22 -10 -50 -28 -62 -41 -19 -21 -21
-31 -17 -96 5 -62 9 -75 32 -95 47 -40 92 -46 571 -78 513 -34 1998 -136 2255
-155 909 -67 1386 -102 1620 -122 230 -19 355 -22 958 -25 l693 -4 277 162
c152 89 300 177 328 194 56 36 64 54 64 151 0 48 -3 55 -35 82 l-36 29 26 324
c14 178 36 490 49 693 l24 369 28 22 c25 20 29 31 35 101 4 44 8 120 8 170 1
82 -1 92 -21 111 -13 11 -31 23 -41 27 -11 3 -130 15 -265 26 -136 11 -275 23
-309 26 l-63 6 0 43 c0 81 -10 106 -49 122 -39 17 -140 20 -168 5 -12 -7 -55
-2 -133 14 -63 13 -171 29 -240 36 -112 11 -127 15 -149 38 -47 50 -52 64 -42
111 6 24 11 93 11 152 0 88 -4 115 -20 146 -43 86 -172 156 -245 133 -29 -8
-38 -5 -81 23 -27 17 -92 50 -144 72 l-95 40 -19 54 c-42 114 -210 240 -316
238 l-45 -1 40 -8 c105 -22 190 -70 248 -143 41 -51 57 -80 57 -104 -1 -11 -6
-6 -15 14 -20 48 -53 60 -135 52 -37 -4 -83 -15 -100 -24 -48 -25 -116 -91
-145 -141 -15 -25 -33 -44 -43 -44 -16 1 -16 1 1 11 9 5 26 27 36 48 l19 37
-58 40 c-33 21 -60 42 -60 46 0 4 16 10 35 14 19 3 35 10 35 15 0 5 7 6 15 3
8 -4 15 -2 15 3 0 19 -36 42 -80 52 -47 10 -95 -3 -132 -36 -17 -15 -18 -15
-18 3 0 22 100 118 138 132 15 6 50 14 77 19 l50 8 -54 3 c-52 3 -56 1 -131
-56 l-78 -60 -47 10 c-25 5 -45 13 -43 18 6 16 119 101 153 115 44 19 50 19
70 -2 11 -10 19 -12 23 -6 4 6 40 13 81 17 41 4 98 16 127 27 112 42 210 169
246 318 25 105 23 143 -11 215 -37 77 -158 206 -193 206 -22 0 -21 -2 13 -33
20 -17 42 -40 49 -50 12 -17 11 -18 -13 -12 -43 11 -75 -3 -107 -47 -17 -22
-30 -45 -30 -49 0 -4 17 -11 38 -15 40 -7 65 -22 57 -34 -3 -4 -25 -11 -50
-15 -26 -3 -49 -13 -52 -21 -3 -7 -8 -12 -12 -9 -5 2 -15 -27 -24 -64 -20 -81
-22 -246 -5 -303 l12 -39 48 6 c40 6 48 4 48 -9 0 -21 -26 -33 -75 -36 -66 -4
-74 -1 -91 33 -34 64 -29 307 9 453 11 43 116 219 140 235 9 7 -37 44 -71 56
-13 5 7 9 53 10 45 1 77 -2 81 -9 9 -15 34 48 34 86 0 17 -9 49 -19 71 -16 37
-24 42 -70 53 -28 6 -71 9 -94 6 -36 -5 -45 -3 -51 11 -11 29 12 45 67 45 39
0 57 -5 75 -22 21 -20 24 -20 19 -5 -4 10 -7 24 -7 31 0 8 -13 29 -30 47 -16
19 -30 37 -30 41 0 4 -27 41 -61 83 -38 47 -67 74 -77 73 -10 -2 -16 3 -15 9
5 21 -117 111 -212 157 -105 52 -163 72 -260 92 -70 14 -332 27 -370 18z m286
-260 c157 -36 294 -121 395 -247 76 -94 86 -112 109 -191 16 -55 16 -64 0
-155 -23 -132 -45 -219 -66 -266 -18 -41 -33 -133 -44 -285 -4 -47 -11 -104
-17 -128 -7 -29 -7 -46 0 -55 14 -17 -8 -65 -44 -98 -45 -39 -137 -71 -364
-125 -151 -35 -393 -11 -551 55 -38 16 -102 51 -141 78 -122 83 -168 152 -219
333 -32 111 -33 121 -33 295 0 159 3 188 22 245 29 84 65 151 130 244 l52 76
-29 -6 c-51 -10 -45 14 8 30 27 8 73 33 101 55 107 85 248 144 385 162 81 10
219 3 306 -17z m-1038 -361 c3 -15 -1 -40 -9 -54 -7 -15 -10 -30 -6 -33 4 -4
-1 -12 -10 -17 -17 -9 -28 -54 -48 -186 -14 -100 -13 -187 5 -301 18 -114 32
-160 54 -186 15 -18 15 -18 -9 -6 -50 27 -83 56 -103 95 -20 36 -22 55 -21
190 1 189 29 349 68 395 7 8 16 32 19 54 7 42 33 89 46 81 5 -2 11 -17 14 -32z
m-1313 -694 c19 -35 40 -112 40 -148 0 -36 -32 -81 -57 -81 -50 0 -75 180 -31
227 26 28 34 29 48 2z m576 -73 c29 -29 34 -41 34 -79 0 -29 -6 -49 -17 -58
-15 -13 -16 -11 -11 13 5 26 3 27 -21 21 -14 -3 -40 -12 -58 -20 -18 -7 -36
-13 -40 -13 -9 0 -16 137 -8 158 2 7 22 12 46 12 33 0 47 -6 75 -34z m124
-153 c25 -31 63 -77 85 -103 22 -27 55 -77 72 -113 30 -58 32 -68 23 -108 -19
-87 -22 -99 -38 -111 -9 -7 -13 -8 -9 -2 3 6 -14 27 -38 47 -24 20 -70 68
-101 107 -44 53 -62 68 -78 65 -12 -2 -25 -4 -29 -4 -5 -1 -6 -9 -3 -19 5 -15
-1 -18 -34 -19 l-41 -2 43 48 c54 61 92 154 89 221 -1 28 2 50 6 50 5 -1 28
-26 53 -57z m875 -112 c3 -5 33 -28 66 -50 l61 -41 -62 0 c-55 0 -64 -3 -86
-29 -13 -16 -44 -38 -69 -50 -25 -12 -43 -26 -40 -31 3 -6 2 -10 -4 -10 -5 0
-11 3 -13 8 -1 4 -18 19 -36 35 -36 29 -98 37 -120 15 -17 -17 -15 -2 4 27 17
25 100 92 149 118 33 18 140 23 150 8z m-1400 -90 c8 -26 99 -101 123 -101 19
0 30 -9 102 -84 19 -20 37 -36 40 -36 4 0 15 -18 26 -40 19 -39 44 -57 64 -45
5 3 10 -2 10 -13 0 -21 31 -53 74 -74 l29 -15 -52 -7 c-44 -6 -61 -3 -109 19
-70 32 -95 55 -184 170 -67 85 -156 245 -138 245 5 0 11 -8 15 -19z m1585 -30
c0 -5 -11 -12 -24 -15 -13 -3 -38 -22 -55 -42 -25 -28 -30 -39 -20 -50 9 -11
8 -14 -7 -14 -14 0 -12 -4 9 -15 15 -8 34 -12 42 -9 18 7 57 -14 50 -27 -4 -5
3 -9 13 -9 11 0 34 -3 51 -6 28 -6 31 -4 24 12 -4 11 15 -1 44 -28 107 -98
283 -105 444 -16 43 23 79 35 109 36 46 2 111 23 168 54 18 10 41 18 51 18 10
0 22 7 25 16 15 38 15 2 0 -82 -16 -87 -15 -298 1 -350 6 -19 3 -20 -25 -16
-36 5 -45 21 -55 106 -4 31 -10 55 -12 52 -7 -7 18 -177 29 -198 11 -22 4 -23
-16 -3 -13 13 -15 13 -21 -5 -3 -11 -11 -20 -17 -20 -6 0 -31 -15 -57 -34 -69
-51 -152 -97 -165 -93 -6 2 -22 -1 -36 -8 -23 -12 -31 -10 -81 19 -64 39 -160
76 -193 76 -14 0 -27 9 -34 23 -8 17 -11 18 -11 5 -1 -14 -10 -18 -39 -18 -21
0 -64 -5 -96 -11 -43 -8 -61 -7 -72 1 -7 7 -11 16 -8 21 3 5 0 9 -5 9 -6 0
-11 6 -11 13 0 8 -12 19 -26 25 -21 10 -28 9 -41 -4 -9 -8 -19 -12 -23 -7 -13
15 -40 117 -49 187 -15 107 -45 110 -57 5 -8 -73 15 -165 72 -290 25 -55 43
-103 40 -106 -3 -3 -1 -14 5 -24 8 -15 6 -17 -6 -13 -18 7 -88 148 -106 214
-7 25 -13 106 -13 180 -1 141 13 214 57 305 33 69 147 174 147 136z m-515 -46
c53 -21 116 -124 128 -210 l6 -40 -52 -2 c-29 -2 -92 -6 -142 -10 -49 -5 -104
-7 -121 -5 -31 3 -31 3 -37 74 -8 94 -40 158 -86 173 -40 13 -51 31 -24 39 34
10 295 -5 328 -19z m2263 -180 c59 -25 118 -55 132 -66 l25 -20 -25 8 c-14 4
-47 8 -75 8 -40 -1 -61 -8 -105 -37 -65 -42 -130 -111 -130 -137 0 -36 -3 -36
-139 31 -54 26 -78 33 -83 25 -5 -8 -8 -6 -8 6 0 10 13 44 30 77 32 63 103
127 152 137 16 3 28 9 28 14 0 19 98 -3 198 -46z m309 -147 c49 -23 103 -82
134 -145 18 -37 21 -57 17 -126 -2 -45 -9 -91 -15 -101 -10 -18 -16 -12 -56
51 -49 76 -88 111 -158 142 -51 23 -174 37 -163 19 5 -7 1 -9 -9 -5 -9 3 -36
-5 -61 -18 -26 -14 -46 -23 -46 -20 0 12 24 55 32 55 4 0 8 13 8 30 0 21 8 35
25 46 14 9 23 19 21 22 -3 3 -12 -1 -21 -8 -8 -7 -15 -8 -15 -3 0 13 105 75
143 82 47 11 116 2 164 -21z m-739 -232 c15 -8 40 -28 55 -46 27 -30 121 -79
181 -94 25 -6 27 -9 14 -24 -7 -9 -24 -37 -37 -62 -32 -61 -39 -66 -93 -78
-47 -9 -48 -9 -48 15 0 23 -2 24 -72 20 -67 -3 -71 -5 -75 -28 -2 -13 -10 -29
-18 -35 -22 -16 -18 -22 10 -16 16 3 25 0 25 -9 0 -7 -3 -10 -6 -6 -13 12 -62
-23 -68 -49 -16 -60 109 -136 269 -164 39 -6 88 -20 110 -29 22 -10 61 -24 88
-31 26 -7 50 -17 53 -21 8 -14 -228 -10 -351 6 -122 15 -206 37 -225 60 -15
18 -46 20 -53 3 -21 -57 112 -137 309 -187 189 -47 337 -58 746 -53 327 4 620
73 708 167 38 40 34 94 -10 142 -26 27 -28 32 -10 20 14 -10 37 -25 52 -35 16
-9 28 -26 28 -36 0 -10 16 -34 35 -53 26 -26 35 -42 35 -68 0 -19 -4 -36 -9
-39 -4 -3 -6 5 -4 18 4 16 -4 30 -27 49 l-31 27 -30 -35 c-52 -59 -198 -116
-379 -149 -69 -13 -322 -46 -353 -46 -5 0 -7 -19 -5 -42 3 -40 5 -43 38 -49
19 -4 -12 -6 -70 -7 -58 0 -97 2 -87 5 14 4 17 14 16 47 l-3 43 -145 7 c-169
8 -377 31 -472 52 -37 8 -77 16 -90 17 -13 2 -72 26 -131 55 -88 42 -113 60
-134 92 -16 24 -24 48 -21 60 4 16 -5 27 -37 49 -23 16 -48 37 -55 45 -14 17
-50 13 -62 -6 -8 -13 -141 2 -136 16 7 23 52 33 119 27 l67 -6 -6 25 c-3 14
-10 28 -15 31 -5 3 2 15 16 26 14 11 22 24 18 28 -4 3 -2 5 3 3 18 -5 50 26
74 73 26 53 120 173 128 165 11 -10 -52 -121 -90 -159 -37 -37 -37 -38 -8 -23
53 28 126 156 140 246 5 40 10 46 36 51 49 11 65 10 93 -5z m712 -53 c35 -15
80 -49 123 -91 68 -68 87 -97 42 -68 -31 20 -54 20 -83 0 -21 -15 -25 -15 -41
0 -26 24 -71 20 -101 -9 l-27 -25 -18 20 c-24 27 -88 27 -114 1 -23 -23 -26
-16 -30 70 -2 51 1 60 29 92 46 53 117 56 220 10z m-3372 -204 c174 -37 42
-101 -208 -101 -130 1 -211 14 -231 39 -18 21 0 34 78 54 79 21 283 25 361 8z
m611 -24 c-3 -3 -18 -6 -32 -7 -31 -3 -32 -4 -12 -24 8 -9 15 -26 15 -39 0
-111 -177 -177 -605 -225 -106 -12 -135 -26 -135 -66 0 -18 7 -24 33 -27 17
-2 -3 -5 -45 -5 l-78 -2 0 40 c0 30 -4 40 -16 40 -49 0 -372 33 -449 45 -163
28 -267 72 -296 127 -15 27 11 80 47 97 36 16 37 15 8 -29 -23 -34 -25 -44
-16 -65 22 -48 157 -95 350 -120 139 -18 343 -20 360 -3 21 21 13 28 -35 28
-25 0 -44 2 -42 4 2 2 78 6 169 9 172 6 193 4 75 -9 -40 -4 -59 -10 -45 -12
23 -4 24 -5 5 -13 -35 -14 147 -10 268 6 196 26 350 80 412 145 25 26 26 30
13 57 -12 24 -19 28 -48 25 -32 -2 -33 -2 -16 11 17 13 127 24 115 12z m2725
-204 c9 -38 18 -76 22 -85 10 -25 -50 -21 -74 5 -23 24 -64 127 -56 140 3 5
25 9 49 9 l43 0 16 -69z m-4748 -9 c-3 -5 -34 -17 -68 -27 -86 -23 -288 -123
-288 -141 0 -30 27 -34 557 -71 51 -3 90 -10 87 -14 -2 -5 -24 -6 -47 -4 -29
4 -36 2 -22 -4 24 -10 218 -28 460 -41 99 -6 239 -15 310 -20 147 -11 237 -11
135 0 -36 4 -132 13 -215 19 -82 7 -154 14 -160 16 -22 11 830 -39 940 -54
l60 -8 -47 -2 c-47 -1 -80 -21 -36 -21 13 0 115 -7 228 -15 113 -8 347 -24
520 -35 173 -11 338 -22 365 -25 28 -3 142 -10 255 -15 113 -5 248 -12 300
-15 61 -3 86 -2 70 4 -14 5 -43 9 -64 10 -22 1 -36 4 -33 8 9 8 676 -35 802
-52 l100 -14 -105 4 c-58 3 -166 9 -240 14 -158 12 -238 12 -130 0 177 -18
797 -60 865 -58 30 1 19 5 -40 14 -76 12 -70 13 105 8 102 -2 303 -13 448 -24
443 -32 514 -26 632 54 276 187 403 267 412 261 6 -4 8 -3 5 3 -4 6 12 23 36
37 l42 27 -35 -30 c-33 -29 -33 -42 0 -21 9 5 19 5 27 -2 10 -8 29 0 76 32 69
48 107 80 107 91 0 16 -63 28 -194 38 -80 5 -143 15 -150 21 -8 9 -6 11 9 6
11 -3 85 -10 164 -15 144 -10 191 -24 191 -55 0 -22 -624 -456 -698 -485 l-47
-19 -7 -108 c-4 -60 -10 -114 -13 -121 -2 -7 -20 -13 -39 -13 -27 0 -33 4 -31
18 2 9 6 61 9 115 l5 97 -118 0 c-65 0 -174 4 -242 10 -68 5 -203 14 -299 20
-170 9 -642 39 -965 60 -88 5 -203 13 -255 15 -52 3 -189 13 -305 21 -115 8
-545 37 -955 64 -410 28 -806 55 -880 60 -74 5 -236 16 -360 25 -124 9 -385
27 -580 40 -287 20 -788 44 -957 45 l-33 0 1 -67 c1 -38 4 -81 8 -97 6 -26 9
-28 66 -32 33 -2 96 -9 140 -15 44 -6 125 -17 180 -24 l100 -14 -130 5 c-215
9 -408 23 -448 34 -57 17 -65 38 -69 178 -3 115 -2 124 17 135 22 13 188 78
340 133 55 20 107 40 115 44 17 10 25 6 16 -8z m3088 -208 c24 -9 20 -27 -13
-58 -28 -27 -30 -28 -107 -19 -43 4 -79 13 -81 20 -2 6 9 23 24 37 24 23 37
26 95 26 36 0 73 -3 82 -6z m-1936 -426 c99 -49 99 -123 0 -212 -58 -53 -63
-66 -24 -66 36 0 83 -36 102 -79 30 -64 47 -55 83 44 12 33 41 104 64 158 37
88 44 98 64 94 13 -2 31 2 40 9 10 7 26 14 36 14 9 0 17 5 17 10 0 6 5 10 10
10 6 0 10 -10 10 -23 0 -13 4 -27 9 -32 4 -6 14 -50 20 -100 19 -136 28 -165
52 -165 15 0 19 -5 16 -15 -4 -8 -2 -17 2 -20 5 -2 14 17 21 43 38 152 183
279 292 256 71 -15 96 -74 68 -159 -7 -21 -16 -32 -24 -29 -8 3 -16 -2 -20
-11 -5 -15 -8 -15 -21 -1 -8 8 -18 29 -21 45 -9 42 -34 40 -79 -4 -47 -47 -76
-107 -82 -169 -4 -43 -1 -56 18 -80 19 -24 27 -28 60 -23 20 3 64 23 98 46 34
23 61 40 61 37 0 -3 -4 -16 -10 -30 -12 -32 1 -33 34 -3 22 19 29 41 51 174
29 175 39 203 66 196 11 -3 19 0 19 7 0 7 8 9 20 5 11 -4 20 -2 20 4 0 19 15
11 27 -14 9 -20 8 -40 -3 -92 -7 -37 -13 -68 -11 -69 1 -2 32 22 67 53 100 85
165 133 182 133 8 0 23 9 33 20 10 11 23 20 29 20 5 0 -4 -15 -22 -33 -36 -37
-41 -53 -13 -37 27 14 36 13 22 -4 -6 -7 -9 -20 -6 -28 5 -14 -27 -48 -120
-127 -22 -19 -57 -49 -78 -68 l-38 -34 97 -120 c53 -66 99 -118 101 -115 2 2
-1 13 -8 23 -12 20 -4 102 8 89 3 -3 12 -1 20 5 7 6 13 8 13 4 0 -4 6 -3 13 3
10 9 16 4 26 -23 8 -23 21 -37 37 -41 58 -15 149 22 149 61 0 12 -30 33 -95
66 -111 58 -138 81 -146 124 -11 60 38 120 138 171 119 60 228 31 228 -61 0
-29 -28 -90 -37 -81 -3 3 -12 -2 -19 -12 -13 -16 -13 -16 -14 0 0 11 -5 15
-15 12 -11 -5 -15 1 -15 25 0 36 -11 38 -70 15 -41 -17 -69 -50 -53 -64 4 -4
41 -25 82 -46 41 -22 94 -57 118 -80 35 -33 43 -47 43 -77 0 -41 -42 -97 -93
-124 -77 -39 -229 -82 -204 -56 7 6 -84 53 -92 47 -2 -1 18 -30 44 -63 25 -34
44 -61 42 -61 -2 0 -28 18 -57 40 -57 43 -85 53 -55 20 26 -28 13 -34 -19 -9
-22 17 -36 20 -74 16 -42 -5 -44 -5 -19 5 33 14 35 31 4 51 -12 8 -56 53 -97
100 l-75 85 -12 -41 c-7 -23 -15 -65 -19 -94 -3 -29 -11 -56 -17 -60 -6 -4 -8
2 -5 15 4 12 3 22 -2 22 -8 0 -25 -40 -33 -75 -3 -11 -5 -5 -6 15 -1 19 -6 42
-11 50 -9 13 -11 13 -21 0 -8 -11 -9 4 -6 58 l4 74 -71 -70 c-68 -67 -119
-102 -149 -102 -31 0 -106 42 -135 75 -28 31 -52 88 -52 123 0 14 -9 15 -26 4
-12 -7 -7 -65 12 -136 5 -23 4 -27 -6 -21 -10 6 -12 -3 -7 -46 5 -52 5 -53 -8
-24 -8 17 -14 36 -15 43 0 6 -4 12 -10 12 -5 0 -10 -6 -11 -12 0 -7 -7 1 -14
17 -10 22 -14 25 -15 11 0 -33 -11 -11 -29 61 -20 76 -18 76 -123 52 -45 -10
-47 -12 -68 -70 -12 -32 -28 -59 -35 -59 -7 0 -19 -13 -27 -30 -17 -38 -24
-38 -32 2 -6 30 -7 31 -21 12 -19 -25 -19 -10 1 56 11 38 13 55 5 58 -6 2 -8
9 -5 15 4 7 -17 -11 -47 -40 -30 -28 -85 -72 -124 -97 -38 -25 -63 -46 -55
-47 8 0 -16 -16 -54 -35 -76 -37 -80 -39 -71 -24 3 6 -1 10 -9 10 -9 0 -18
-12 -22 -27 -9 -44 -12 -50 -13 -25 -1 14 -6 22 -13 20 -8 -3 -15 -31 -18 -74
l-6 -69 -8 63 c-9 63 -21 80 -29 40 l-4 -23 -8 23 c-4 12 -8 22 -9 22 -1 0
-16 -4 -34 -9 -20 -6 -32 -6 -32 0 0 5 5 9 10 9 24 0 7 20 -17 21 l-28 0 23
16 c26 18 29 38 5 29 -24 -8 14 23 56 46 30 17 31 19 31 90 0 40 3 90 6 111 5
30 4 37 -10 37 -15 0 -21 16 -18 53 1 9 -4 17 -11 17 -6 0 2 10 20 21 26 16
34 30 42 72 17 89 19 118 7 113 -96 -38 -116 -44 -121 -36 -3 6 -1 10 4 10 6
0 11 7 11 15 0 20 -19 19 -87 -5 -31 -11 -58 -18 -60 -17 -1 2 24 16 58 32 57
28 109 68 67 52 -26 -9 -22 8 5 25 36 24 155 69 221 84 87 20 204 12 264 -18z
m-1423 -213 c9 -99 20 -236 26 -305 5 -69 16 -199 24 -290 8 -91 17 -214 20
-275 3 -60 8 -121 11 -135 3 -16 2 -21 -4 -15 -11 12 -25 144 -52 480 -11 138
-24 302 -30 365 -14 173 -23 366 -17 360 4 -3 13 -87 22 -185z m3899 123 c4
-24 14 -94 22 -157 7 -63 16 -116 18 -118 2 -3 12 -6 23 -7 10 -2 17 -10 15
-20 -6 -35 16 -14 33 32 66 175 260 301 389 252 33 -12 58 -62 50 -97 -12 -50
-33 -83 -49 -77 -8 4 -15 1 -15 -5 0 -8 -6 -7 -20 1 -12 8 -20 24 -20 40 0 71
-119 2 -192 -111 -51 -80 -32 -181 33 -181 44 0 129 47 129 72 0 4 -20 8 -44
8 -48 0 -55 9 -48 62 4 29 13 31 171 44 l84 7 -6 -34 c-2 -19 -14 -59 -25 -89
-11 -30 -33 -95 -48 -145 -20 -65 -29 -84 -34 -70 -7 19 -7 19 -17 0 -6 -11
-14 -35 -18 -53 -9 -44 -20 -32 -16 18 3 40 -13 55 -23 23 -3 -10 -4 6 -2 35
2 28 2 52 1 52 -1 0 -23 -11 -49 -25 -54 -29 -71 -30 -119 -10 -74 31 -127 97
-127 160 0 19 -5 25 -23 25 -22 0 -23 -2 -16 -52 4 -29 8 -66 8 -83 0 -26 -2
-28 -10 -10 -7 14 -8 3 -5 -38 5 -59 -7 -70 -19 -17 -4 17 -11 27 -19 24 -7
-3 -18 5 -24 18 -6 13 -11 17 -11 11 -1 -7 -5 -13 -10 -13 -5 0 -12 21 -16 48
-14 99 -9 94 -84 87 -97 -10 -98 -11 -136 -83 -19 -37 -34 -61 -35 -54 -1 26
-21 10 -45 -35 -22 -41 -25 -43 -20 -18 5 32 -12 71 -22 48 -2 -7 -8 -13 -13
-13 -5 0 2 26 15 58 18 44 20 58 10 60 -14 3 -15 38 -2 59 4 6 2 15 -4 19 -15
9 8 24 37 24 17 0 33 24 80 118 32 64 60 120 62 124 3 7 -25 5 -144 -14 l-71
-10 -16 -57 c-8 -31 -25 -99 -37 -151 -38 -163 -58 -229 -60 -195 -1 29 -1 29
-16 10 -9 -11 -25 -38 -36 -60 l-19 -40 5 45 c3 25 2 52 -4 60 -6 10 -10 11
-10 3 0 -7 -5 -13 -10 -13 -6 0 -8 17 -4 43 7 52 53 295 61 321 6 20 15 20
-119 -1 -37 -5 -41 -4 -34 12 4 11 2 22 -6 26 -9 6 -9 11 1 22 9 12 9 16 -1
20 -10 4 -10 8 3 21 10 11 47 20 105 28 49 6 95 16 102 21 15 11 232 20 276
11 27 -6 28 -8 12 -19 -12 -10 -14 -15 -5 -20 8 -6 4 -12 -12 -21 -23 -13 -23
-13 16 -14 36 0 42 4 60 36 14 27 23 34 40 30 20 -5 87 13 101 27 15 14 22 6
28 -35z m1094 -67 c2 -6 19 -11 38 -11 49 0 42 -18 -11 -25 -47 -8 -84 -34
-49 -36 67 -2 -173 -39 -257 -39 -4 0 -9 -12 -12 -27 -3 -16 -9 -36 -13 -46
-6 -17 -1 -19 57 -17 35 1 80 2 99 1 32 -1 33 -3 15 -13 -19 -12 -19 -12 5
-18 25 -7 25 -7 -10 -23 -26 -11 -30 -16 -15 -17 44 -3 -27 -20 -110 -26 l-83
-7 -12 -41 c-6 -23 -10 -45 -8 -50 2 -5 68 -8 148 -8 80 1 154 -3 165 -8 17
-7 14 -9 -15 -9 -65 -2 -9 -21 65 -22 81 -2 71 -5 -38 -14 -42 -4 -75 -11 -71
-16 3 -5 17 -9 31 -9 15 0 24 -2 22 -4 -2 -2 -76 -10 -164 -16 -88 -7 -172
-18 -187 -25 -20 -10 -28 -10 -28 -2 0 17 -17 -4 -23 -28 -4 -18 -5 -18 -6 3
-1 17 -7 22 -30 22 -23 0 -30 6 -36 28 -16 57 -14 71 8 74 27 4 63 106 44 123
-19 16 -9 73 14 80 20 7 30 25 43 77 5 22 2 27 -16 30 -16 2 -22 10 -21 28 2
79 42 98 202 99 63 1 117 4 120 7 10 10 135 -3 139 -15z m-2639 -566 c33 -10
69 -31 88 -50 33 -33 33 -35 19 -63 -16 -31 -65 -67 -133 -96 -42 -19 -56 -36
-30 -36 33 0 119 -33 147 -56 23 -20 30 -34 30 -62 0 -31 -8 -44 -53 -87 -60
-56 -108 -82 -241 -132 -61 -22 -78 -32 -51 -27 63 9 38 -2 -67 -30 -54 -15
-106 -29 -115 -32 -10 -2 0 4 22 15 35 18 36 20 10 14 -95 -20 -109 -27 -122
-68 l-11 -40 -1 38 c-1 35 -2 36 -21 25 -11 -7 -23 -28 -26 -48 -16 -99 -23
-114 -18 -37 4 71 3 78 -13 75 -9 -2 -20 -14 -23 -28 l-6 -25 -7 28 c-8 29 -5
28 -82 11 -20 -5 -20 -5 -1 10 13 11 41 16 80 16 34 0 81 7 106 16 25 9 108
34 184 55 133 38 300 98 293 106 -2 2 -34 -8 -70 -21 -59 -21 -67 -22 -67 -8
0 14 -2 14 -9 3 -6 -10 -10 -10 -16 -1 -4 7 -17 9 -32 5 -14 -3 -31 -1 -39 5
-10 9 -35 5 -103 -14 -108 -31 -120 -32 -98 -8 8 9 18 35 21 57 3 22 3 34 0
28 -3 -8 -25 -13 -54 -13 -55 0 -55 0 -64 -53 -5 -29 -4 -37 5 -32 7 5 10 3 7
-6 -5 -14 -18 -20 -98 -41 -26 -7 -38 -13 -27 -15 19 -5 23 -23 5 -23 -9 0 -8
-4 2 -10 11 -7 3 -10 -30 -9 -37 0 -41 2 -22 9 24 10 30 30 10 30 -22 1 23 22
70 34 l45 12 24 89 c12 50 25 100 29 113 5 17 2 22 -12 22 -16 0 -17 2 -4 10
13 8 12 10 -2 10 -10 0 -18 4 -18 10 0 5 8 14 18 19 16 10 16 10 -2 11 -25 0
-13 12 26 26 27 9 35 21 60 88 l28 79 -37 -7 c-21 -4 -56 -10 -78 -13 -37 -5
-39 -4 -21 10 19 14 19 15 -2 22 l-23 7 26 20 c32 25 27 32 -11 18 l-29 -10
24 18 c13 9 67 27 120 39 83 19 119 22 266 19 126 -2 184 -8 224 -21z m866 -4
c39 4 108 8 155 8 l85 -1 -50 -13 c-43 -11 -46 -13 -20 -15 26 -1 27 -3 10
-10 -29 -13 49 -12 219 1 97 8 152 8 176 1 27 -8 29 -10 12 -11 -32 -1 -17
-21 16 -22 20 -1 13 -5 -28 -19 -42 -14 -49 -18 -27 -19 15 -1 27 -5 27 -10 0
-5 -59 -14 -130 -21 l-131 -13 -19 -38 c-11 -21 -20 -41 -20 -45 0 -4 39 -4
88 -1 48 4 96 2 107 -3 19 -8 19 -9 -3 -9 -29 -1 -19 -21 11 -22 20 -1 21 -2
2 -6 -11 -3 -31 -10 -45 -16 l-25 -10 25 -7 c18 -5 2 -9 -55 -14 -131 -11
-155 -16 -155 -32 0 -8 -7 -29 -16 -45 -8 -17 -13 -33 -11 -35 3 -3 67 -1 143
4 77 5 162 6 189 2 37 -6 42 -8 18 -9 -18 0 -33 -5 -33 -10 0 -12 36 -20 95
-22 40 -2 35 -3 -30 -9 -44 -4 -92 -11 -107 -15 -18 -5 -28 -3 -28 4 0 6 11
11 25 11 14 0 25 5 25 10 0 6 -12 10 -26 10 -15 0 -23 4 -19 11 5 7 -34 8
-134 3 l-140 -7 9 32 c8 28 6 33 -13 40 -12 5 -25 7 -29 4 -5 -2 -8 1 -8 6 0
6 -6 11 -14 11 -14 0 -36 -49 -36 -81 0 -21 -53 -52 -78 -46 -11 2 -5 7 17 13
29 8 37 17 52 59 22 62 23 79 6 72 -10 -4 -14 4 -14 24 0 16 4 29 9 29 5 0 7
4 4 9 -3 5 7 14 23 19 23 8 33 20 42 52 10 34 10 43 0 50 -8 4 -10 13 -7 19 4
6 2 11 -4 11 -6 0 -8 5 -4 11 4 8 -3 9 -22 6 -16 -3 -59 -9 -95 -12 l-67 -6
-62 -167 c-83 -220 -113 -289 -104 -242 3 19 12 46 19 60 7 14 18 44 25 68 6
24 13 49 16 56 3 9 -9 12 -43 12 -63 -1 -77 -17 -109 -125 -24 -79 -44 -122
-44 -94 0 6 27 91 61 189 81 237 79 228 43 220 -28 -5 -73 -12 -144 -22 -32
-4 -33 -3 -17 10 18 14 18 15 -3 26 l-21 11 23 19 c19 17 21 21 8 29 -22 15
22 28 141 41 57 6 108 15 114 20 14 11 58 17 70 9 6 -3 42 -3 80 2z m1015 -19
c25 -12 36 -25 38 -45 2 -16 8 -25 14 -21 7 5 9 -2 4 -21 -10 -40 -36 -75 -51
-69 -8 3 -16 -4 -21 -18 l-7 -23 -9 24 c-7 19 -11 21 -22 11 -12 -9 -15 -6
-18 22 -3 32 -4 33 -44 31 -41 -2 -136 -42 -149 -64 -12 -18 7 -28 118 -69
134 -50 221 -93 241 -122 18 -25 21 -74 6 -83 -5 -3 -10 -14 -10 -23 0 -10
-14 -23 -32 -31 -45 -20 -24 -24 68 -12 44 5 83 6 87 2 4 -4 -43 -13 -105 -19
-101 -10 -127 -17 -242 -66 -71 -30 -132 -59 -135 -65 -6 -9 -124 -61 -138
-61 -3 0 -1 5 2 10 9 15 4 13 -117 -36 -159 -64 -158 -64 -158 -58 0 3 34 21
76 40 42 20 74 37 71 40 -2 2 -79 -21 -171 -52 -92 -31 -170 -54 -172 -51 -3
3 21 15 53 26 32 12 81 30 108 40 100 38 191 62 208 55 10 -3 17 -1 17 6 0 6
8 9 18 6 19 -6 183 48 312 103 91 39 95 43 43 40 -23 -2 -47 2 -55 8 -35 28
-65 23 -193 -33 -70 -30 -129 -53 -131 -51 -3 2 71 39 163 81 198 91 253 122
253 141 0 18 -48 42 -165 84 -156 55 -206 95 -192 153 9 36 72 93 136 124 132
63 235 79 301 46z m-1470 -37 c9 -17 4 -41 -25 -126 -21 -57 -57 -162 -82
-234 -25 -71 -49 -134 -53 -139 -11 -11 3 44 29 118 25 70 25 72 6 74 -99 9
-106 4 -129 -98 -9 -37 -20 -78 -25 -91 -25 -61 -8 25 29 156 77 270 115 369
130 345 7 -12 13 -12 40 1 44 20 67 19 80 -6z m-2099 -42 c6 -6 9 -23 7 -39
-4 -35 -22 -39 -115 -29 l-63 7 0 37 c0 21 2 40 4 42 9 9 157 -8 167 -18z
m-248 -97 c4 -6 6 -24 5 -41 -3 -28 -6 -30 -48 -33 -25 -2 -63 1 -85 5 -34 8
-40 13 -43 37 -7 54 0 58 86 51 42 -4 80 -13 85 -19z m235 -12 c17 -5 22 -14
22 -40 0 -22 -6 -36 -15 -39 -47 -15 -51 -18 -30 -23 32 -7 45 -22 45 -54 0
-37 -12 -41 -101 -31 l-74 8 -3 38 -3 37 48 1 48 0 -45 17 c-41 16 -45 21 -48
55 l-3 37 68 0 c37 0 78 -3 91 -6z m235 -26 c25 -13 19 -60 -10 -73 -13 -5
-23 -12 -23 -15 0 -3 10 -10 23 -15 26 -12 36 -63 15 -76 -12 -8 -92 -4 -146
7 -19 4 -23 10 -20 37 3 32 4 32 61 35 31 2 57 6 57 10 0 5 -27 14 -60 21 -58
13 -60 15 -60 46 0 17 2 34 5 37 9 8 137 -3 158 -14z m-479 -64 c11 -4 16 -19
16 -47 l0 -40 -82 7 c-44 4 -85 9 -90 12 -4 3 -8 21 -8 40 l0 34 74 0 c41 0
81 -3 90 -6z m4930 -60 c46 -7 46 -7 46 -45 l0 -39 -57 0 c-32 0 -75 3 -95 6
-35 6 -38 9 -38 39 0 17 3 35 7 38 8 9 76 9 137 1z m-4 -122 c43 -7 45 -8 45
-42 0 -31 -3 -35 -30 -38 -16 -2 -58 -1 -92 3 l-63 7 0 39 0 39 48 -1 c26 0
67 -4 92 -7z m-5396 -67 c-17 -43 42 -59 291 -80 99 -8 194 -19 211 -24 16 -5
70 -12 120 -15 49 -4 96 -9 104 -11 8 -2 119 -12 245 -21 345 -24 418 -31 360
-33 -28 0 -183 8 -345 19 -428 28 -628 39 -775 42 -128 3 -130 3 -133 -19 -5
-36 -40 -30 -50 9 -6 24 -16 34 -44 44 -43 15 -48 8 -48 -59 0 -29 -3 -38 -10
-31 -6 6 -10 43 -8 85 3 74 3 74 38 91 43 22 51 22 44 3z m6656 -26 c9 -15 1
-23 -52 -52 -35 -19 -186 -103 -336 -186 -150 -82 -300 -160 -332 -172 -33
-12 -57 -25 -54 -30 3 -5 0 -9 -5 -9 -6 0 -10 -3 -10 -7 1 -5 1 -24 0 -43 -1
-24 -4 -31 -10 -21 -5 7 -14 10 -20 7 -7 -5 -11 6 -11 31 l0 39 -292 18 c-795
48 -1086 66 -1123 70 -60 7 208 -3 390 -14 619 -37 711 -41 840 -35 77 3 163
8 190 10 38 4 45 2 30 -5 -50 -25 85 4 145 31 94 43 211 119 204 131 -4 6 -2
8 4 4 5 -3 12 -3 14 2 3 7 76 51 205 123 18 10 33 13 35 8 3 -10 126 48 163
77 19 14 19 16 3 28 -22 16 -23 27 -3 20 9 -4 20 -15 25 -25z m-1466 -12 c12
-9 17 -23 14 -42 -3 -28 -6 -30 -53 -33 -79 -4 -129 9 -133 37 -7 45 3 51 81
51 44 0 80 -5 91 -13z m244 -20 c7 -5 12 -24 10 -41 l-3 -31 -84 2 c-95 3
-118 15 -107 56 4 16 14 27 29 29 41 6 142 -4 155 -15z m-1758 -36 c19 -4
-104 -6 -275 -3 -447 6 -853 -26 -1091 -87 -76 -20 -112 -36 -58 -26 91 16
489 66 603 75 73 6 184 10 245 9 61 -1 212 -2 336 -1 l225 0 -165 -8 c-251
-14 -491 -39 -629 -65 -119 -24 -161 -26 -110 -7 44 17 246 53 336 61 l88 8
-91 2 c-118 1 -443 -31 -685 -69 -105 -17 -207 -30 -227 -30 -35 1 -36 1 -17
16 69 52 428 111 815 134 162 10 646 3 700 -9z"/>
<path d="M3105 4496 c-17 -24 -33 -42 -37 -39 -5 2 -8 -6 -9 -19 0 -13 -2 -36
-4 -53 -4 -48 14 -224 32 -295 29 -122 142 -319 176 -307 7 2 29 -2 50 -10 33
-14 48 -13 140 2 155 27 231 23 371 -19 235 -71 408 -34 501 107 68 103 104
347 71 476 -19 73 -25 83 -80 123 -52 37 -107 37 -268 -1 -195 -46 -266 -55
-407 -48 -124 5 -221 27 -276 61 -30 19 -105 44 -150 51 -22 3 -49 8 -60 10
-15 3 -28 -7 -50 -39z m266 -237 c22 -11 32 -40 19 -53 -13 -13 16 -46 42 -46
10 0 18 -4 18 -8 0 -4 -16 -6 -35 -4 -19 2 -35 0 -35 -6 0 -5 22 -12 48 -16
39 -5 51 -11 60 -31 8 -16 8 -26 1 -31 -7 -4 -7 -10 0 -18 5 -6 9 -36 8 -66
l-2 -55 -62 2 c-33 2 -99 13 -145 27 -77 22 -84 26 -95 57 -7 19 -12 55 -12
82 -1 40 2 47 18 47 10 0 24 -7 31 -15 15 -18 30 -19 30 -2 0 6 -17 20 -38 29
l-37 18 38 -4 37 -5 0 61 0 60 48 -7 c26 -4 54 -11 63 -16z m763 -64 c0 -16 4
-33 10 -37 7 -5 3 -8 -8 -8 -15 0 -16 -3 -6 -15 7 -8 9 -16 4 -17 -5 -1 15 -4
45 -7 80 -9 79 -31 -1 -32 l-63 -1 60 -12 c55 -10 60 -13 63 -38 3 -21 -1 -28
-15 -29 -10 0 -13 -3 -5 -6 18 -7 15 -33 -4 -33 -14 0 -14 -3 -4 -15 10 -12
10 -19 2 -27 -13 -13 -151 -26 -273 -27 -101 -1 -98 -6 -89 114 l5 70 58 -3
c57 -4 57 -4 56 25 0 21 -2 24 -7 10 -7 -15 -10 -16 -26 -4 -18 13 -17 15 12
28 35 15 34 15 23 44 -5 11 -4 28 1 38 8 15 20 17 86 15 l77 -3 -1 -30z"/>
<path d="M3927 3658 l6 -57 -104 0 c-57 0 -126 -4 -154 -7 l-50 -7 63 -13
c162 -33 366 -4 520 75 47 24 56 36 15 20 -15 -5 -38 -9 -52 -7 -15 2 -26 -2
-26 -9 0 -6 -3 -15 -7 -19 -5 -4 -8 -2 -8 4 0 11 -9 11 -114 -9 -63 -12 -75
-6 -76 36 0 11 -5 27 -10 35 -6 9 -7 -5 -3 -42z"/>
<path d="M204 2235 c-7 -29 5 -193 14 -199 4 -2 22 -7 40 -11 l32 -7 0 89 c0
113 -5 129 -42 142 -40 14 -37 15 -44 -14z"/>
<path d="M1630 1494 c-74 -13 -67 1 -96 -193 l-6 -44 62 34 c91 51 170 124
170 159 0 19 -6 30 -17 34 -32 9 -88 14 -113 10z"/>
<path d="M2474 1054 c-15 -4 -29 -24 -47 -70 l-26 -66 25 6 c52 13 191 67 223
87 22 13 30 24 24 30 -11 11 -165 21 -199 13z"/>
<path d="M2435 813 c-71 -9 -70 -7 -106 -112 -18 -55 -31 -102 -28 -105 9 -9
184 51 272 93 97 47 133 76 117 96 -21 25 -159 40 -255 28z"/>
</g>
</svg>
