<?xml version="1.0" standalone="no"?>
<!DOCTYPE svg PUBLIC "-//W3C//DTD SVG 20010904//EN"
 "http://www.w3.org/TR/2001/REC-SVG-20010904/DTD/svg10.dtd">
<svg version="1.0" xmlns="http://www.w3.org/2000/svg"
 width="720.000000pt" height="544.000000pt" viewBox="0 0 720.000000 544.000000"
 preserveAspectRatio="xMidYMid meet">
<metadata>
Created by potrace 1.16, written by Peter Selinger 2001-2019
</metadata>
<g transform="translate(0.000000,544.000000) scale(0.100000,-0.100000)"
fill="#000000" stroke="none">
<path d="M3473 5380 c-243 -34 -477 -152 -639 -322 -68 -71 -165 -213 -163
-237 3 -36 -2 -52 -29 -79 -33 -34 -61 -137 -43 -155 15 -15 14 -122 0 -150
-7 -12 -24 -36 -39 -54 -103 -118 -88 -353 31 -504 33 -42 175 -119 220 -119
15 0 31 -4 34 -10 3 -5 25 -10 48 -10 37 -1 47 -6 84 -49 l43 -49 -26 -6 c-15
-4 -41 -18 -58 -31 l-31 -24 -60 21 c-75 25 -261 68 -297 68 -34 0 -52 31 -45
77 7 44 -13 119 -67 251 -71 172 -94 216 -125 246 l-29 28 24 41 c42 73 62
155 54 221 -6 55 -10 63 -54 103 -39 35 -51 54 -63 100 -8 32 -21 68 -29 81
-8 12 -28 75 -45 140 -17 64 -37 130 -45 146 -8 16 -14 37 -14 47 0 35 -52
181 -71 200 -40 40 -119 8 -135 -56 -8 -30 11 -137 32 -179 8 -16 14 -39 14
-50 0 -12 11 -64 25 -116 13 -52 23 -96 21 -97 -1 -2 -18 8 -36 22 -56 41
-150 25 -163 -27 -5 -17 -14 -23 -37 -24 -42 -2 -83 -33 -95 -72 -5 -18 -15
-32 -23 -32 -8 0 -30 -16 -49 -35 -33 -33 -35 -39 -29 -77 6 -34 55 -145 103
-233 7 -11 25 -50 41 -86 16 -37 46 -84 65 -106 26 -28 33 -43 26 -53 -5 -8
-14 -32 -19 -52 -13 -48 11 -157 69 -312 62 -164 104 -239 151 -265 23 -13 40
-30 40 -40 0 -26 54 -105 92 -134 49 -38 111 -57 161 -51 41 5 43 4 62 -33 16
-29 35 -45 85 -70 88 -43 295 -105 350 -104 25 0 59 0 75 0 91 1 204 -8 228
-18 16 -6 38 -11 51 -11 18 0 25 -10 39 -57 28 -90 85 -198 131 -248 34 -35
49 -45 75 -45 29 0 32 -2 29 -27 -3 -27 -5 -28 -72 -31 -55 -2 -71 0 -80 14
-17 22 -89 23 -111 0 -20 -20 -34 -20 -55 -1 -11 10 -49 17 -113 22 -92 6 -97
7 -97 28 0 53 -12 84 -39 94 -79 30 -197 16 -216 -27 -11 -25 -10 -25 -95 6
-168 61 -522 89 -795 63 -84 -8 -106 -2 -98 27 4 16 -3 18 -49 17 -51 0 -76
-14 -63 -35 9 -14 -49 -40 -126 -56 -39 -8 -92 -23 -119 -33 -53 -20 -60 -19
-60 14 0 32 -19 45 -65 45 -54 0 -73 -16 -77 -65 l-3 -40 -80 -5 c-98 -7 -123
-19 -127 -62 -3 -31 -4 -32 -198 -105 -415 -155 -489 -186 -511 -209 -21 -22
-21 -28 -14 -159 7 -127 8 -136 32 -154 13 -11 29 -21 34 -23 6 -2 23 -152 40
-358 16 -195 40 -491 54 -656 14 -166 25 -310 25 -321 0 -14 -11 -25 -31 -34
-18 -7 -45 -23 -60 -37 -24 -20 -29 -31 -29 -70 0 -90 10 -122 43 -139 65 -33
99 -37 557 -68 124 -8 392 -26 595 -40 204 -14 600 -41 880 -60 281 -19 571
-39 645 -45 74 -6 290 -22 480 -35 937 -68 1180 -87 1355 -102 146 -12 351
-17 881 -20 l691 -4 119 68 c457 264 526 308 540 340 22 50 18 135 -7 167 -11
14 -27 26 -35 26 -18 0 -18 10 1 217 9 92 31 397 50 677 l34 509 29 28 c27 26
30 37 36 116 3 49 7 121 7 161 3 124 -3 127 -354 157 -118 10 -185 12 -195 5
-14 -8 -13 -9 8 -10 14 0 32 -5 40 -10 11 -7 -4 -10 -50 -10 -59 0 -192 -32
-214 -51 -5 -4 1 -23 13 -42 24 -40 27 -66 8 -91 -12 -16 -13 -13 -9 19 3 27
1 36 -7 31 -7 -4 -23 -1 -36 8 -21 14 -24 14 -36 0 -47 -56 -206 -119 -376
-149 -80 -14 -320 -45 -351 -45 -9 0 -12 -13 -10 -42 3 -39 6 -44 33 -49 17
-4 -13 -7 -65 -7 -52 0 -87 2 -77 5 12 3 16 10 12 21 -4 10 -9 29 -12 43 l-5
26 -131 6 c-170 9 -424 35 -508 52 -37 8 -75 11 -87 8 -13 -3 -28 3 -41 16
-11 11 -37 28 -58 36 -65 27 -132 75 -154 111 -21 34 -21 36 -4 86 9 29 30 72
47 96 30 43 30 46 13 59 -11 7 -27 13 -36 13 -21 0 -33 16 -19 25 5 3 10 1 10
-4 0 -6 14 -11 30 -11 38 0 39 17 3 23 -16 2 5 5 45 6 44 0 72 -3 72 -9 0 -6
-7 -13 -15 -16 -8 -4 -13 -10 -10 -14 3 -4 -1 -7 -9 -6 -7 0 -30 -23 -49 -52
-36 -52 -34 -61 6 -41 l22 10 -21 -18 c-65 -58 -64 -118 3 -169 137 -104 548
-189 823 -169 58 4 148 7 200 6 257 -6 572 64 667 147 38 33 14 76 -27 48 -32
-23 -62 -37 -68 -32 -3 3 0 6 6 6 7 0 12 5 12 11 0 7 -57 9 -187 6 l-188 -4
105 23 c58 13 116 26 129 29 39 9 143 46 169 59 l24 12 -27 32 c-35 42 -22 41
16 -1 17 -17 27 -24 23 -14 -4 12 -2 16 8 12 24 -9 68 12 62 30 -5 11 -2 14
10 9 9 -3 16 -11 16 -18 0 -6 7 -2 16 9 8 11 17 19 20 17 2 -2 16 6 29 16 17
13 25 30 25 50 0 24 -6 33 -36 47 -39 18 -142 22 -171 7 -12 -7 -57 -2 -140
14 -68 13 -173 30 -235 37 l-112 14 -48 54 c-48 54 -49 54 -41 104 12 77 5
252 -13 293 -23 56 -60 99 -112 129 -40 24 -58 28 -125 28 -50 0 -80 4 -85 12
-10 15 -201 106 -260 124 -39 11 -43 15 -37 37 13 51 -78 176 -172 235 -60 38
-154 67 -216 67 -88 0 -184 -40 -234 -98 -20 -23 -26 -25 -108 -23 -72 2 -92
-1 -122 -19 -20 -12 -41 -19 -48 -16 -7 2 -29 1 -49 -4 -20 -4 -36 -5 -36 -1
0 4 35 30 78 56 42 27 113 85 157 129 79 79 80 79 135 80 103 2 282 126 340
236 56 105 52 279 -9 397 -24 48 -119 146 -163 169 -38 20 -72 87 -58 115 16
29 -29 124 -69 147 -17 9 -38 34 -47 55 -51 113 -297 269 -509 322 -111 28
-289 40 -392 25z m193 -260 c32 -6 87 -20 121 -32 l62 -21 -33 -41 c-53 -67
-54 -75 0 -18 l49 54 63 -41 c82 -53 153 -121 192 -180 26 -41 30 -57 30 -115
0 -37 5 -88 12 -113 9 -36 8 -60 -2 -112 -22 -104 -18 -277 10 -414 24 -118
24 -119 4 -154 -23 -43 -111 -133 -130 -133 -7 0 -19 -8 -26 -18 -21 -28 -121
-107 -132 -105 -6 1 -22 -6 -36 -17 l-25 -20 27 0 c25 0 116 43 128 60 3 4 24
18 47 29 37 20 92 73 146 140 19 24 39 20 31 -7 -4 -10 -2 -13 3 -7 4 6 22 16
38 23 27 12 25 8 -20 -39 -86 -89 -340 -241 -379 -226 -19 8 -76 96 -76 120 0
9 -4 17 -10 17 -10 0 -1 -29 25 -80 l16 -30 -30 0 c-16 0 -42 -5 -58 -11 -52
-21 -164 -36 -236 -32 -52 3 -68 2 -57 -6 8 -6 47 -11 86 -11 38 0 74 -4 80
-9 10 -9 127 3 147 16 7 4 17 8 23 9 6 1 27 5 45 8 31 6 32 6 16 -7 -24 -20
-166 -54 -273 -67 -202 -22 -415 38 -533 152 -174 169 -289 530 -247 776 29
167 96 302 210 420 109 114 243 195 385 233 75 20 217 24 307 9z m-1747 -270
c11 0 27 -47 34 -100 l5 -35 -45 0 c-34 0 -49 -5 -63 -23 -24 -29 -30 -18 -37
66 -7 81 4 108 50 120 26 7 33 5 39 -10 4 -10 12 -18 17 -18z m-142 -52 c6 -7
13 -42 16 -78 l5 -65 -46 -22 c-25 -12 -48 -21 -49 -19 -2 2 -9 31 -15 64 -10
53 -9 64 6 87 15 22 45 42 67 44 4 1 11 -5 16 -11z m2769 -103 c18 -14 17 -14
-11 -9 -68 13 -126 -78 -144 -221 -25 -205 45 -455 128 -455 25 0 28 -18 5
-27 -30 -11 -92 17 -127 57 -52 61 -79 164 -85 324 l-5 131 41 85 c28 60 50
92 73 108 39 25 96 29 125 7z m-2294 -36 c69 -45 89 -72 78 -110 -17 -60 -28
-63 -74 -19 -22 22 -49 42 -58 45 -14 5 -15 11 -6 36 5 16 7 41 4 54 -8 32 -3
31 56 -6z m2398 -59 c10 -5 27 -25 39 -45 62 -105 69 -285 15 -392 -26 -53
-32 -58 -64 -61 -31 -2 -33 -1 -15 10 30 18 41 30 66 79 20 38 23 59 24 149
l0 105 -45 73 c-37 60 -49 72 -67 68 -13 -2 -23 -1 -23 1 0 3 36 20 48 22 2 1
12 -3 22 -9z m-1988 -167 c-24 -51 -27 -71 -28 -168 -2 -106 20 -238 43 -254
7 -6 32 -63 36 -86 5 -23 50 -86 83 -114 35 -31 35 -31 9 -31 -29 0 -105 40
-105 54 0 6 -9 19 -19 30 -31 34 -93 214 -98 286 -4 43 -11 69 -21 78 -14 11
-14 13 0 25 9 6 18 33 21 60 4 46 4 47 -14 31 -11 -9 -19 -13 -19 -7 0 13 35
45 42 38 3 -3 9 10 12 29 6 32 54 86 76 86 5 0 -3 -26 -18 -57z m-358 -205
c26 -24 126 -248 166 -373 22 -69 22 -73 6 -127 -11 -39 -29 -70 -58 -100 -24
-25 -42 -42 -41 -40 1 3 -22 53 -52 112 -30 59 -55 111 -55 117 0 6 -12 22
-27 37 -17 17 -26 36 -25 56 0 17 -3 28 -8 25 -5 -3 -12 4 -15 16 -5 14 -12
18 -23 14 -32 -13 -117 -33 -169 -40 -51 -7 -53 -8 -47 -33 4 -15 10 -31 15
-37 4 -5 8 -14 8 -20 0 -12 63 -138 72 -145 3 -3 12 -23 19 -45 7 -22 21 -52
31 -67 11 -14 19 -31 19 -37 0 -7 7 -14 16 -18 13 -5 13 -7 2 -14 -9 -6 -4 -9
15 -9 15 0 27 -5 27 -11 0 -23 -115 -5 -159 24 -50 33 -63 52 -113 168 -91
213 -124 360 -95 427 l14 34 6 -54 c8 -67 44 -102 126 -120 49 -11 52 -13 31
-20 -14 -4 5 -5 44 -2 72 5 156 34 178 62 12 14 10 14 -12 2 -20 -10 -16 -3
16 31 23 24 48 55 58 69 20 30 21 80 1 106 -30 39 -11 47 29 12z m2459 -473
c98 -47 220 -177 204 -217 -4 -8 -6 -7 -6 4 -1 9 -15 27 -32 39 -25 17 -39 20
-75 15 -94 -12 -198 -87 -258 -183 -14 -24 -28 -43 -31 -43 -8 0 8 34 27 59
23 30 23 41 -1 41 -26 0 -87 38 -124 78 -25 26 -38 32 -73 32 -25 0 -44 -5
-47 -12 -11 -26 -6 36 5 74 14 47 81 110 141 132 68 25 198 16 270 -19z
m-2047 -135 c185 -46 188 -48 231 -148 l14 -34 -40 7 -40 7 35 -39 c20 -21 40
-37 45 -35 5 1 9 -7 9 -18 0 -18 -7 -20 -59 -20 -33 0 -71 4 -85 10 -16 6 -26
6 -26 0 0 -13 -105 -6 -158 10 -33 10 -41 17 -36 29 4 9 9 44 12 78 5 75 -24
149 -64 159 -13 3 -24 10 -24 15 0 17 67 9 186 -21z m1564 -14 c0 -2 -10 -25
-22 -52 -20 -43 -23 -65 -22 -174 0 -107 4 -135 25 -197 21 -61 23 -70 8 -57
-16 14 -18 14 -28 -4 -6 -11 -7 -22 -4 -26 3 -3 3 -6 0 -6 -4 0 -16 23 -28 50
-12 28 -24 49 -26 46 -2 -2 3 -21 12 -42 12 -30 13 -43 5 -59 -18 -31 -191
-171 -235 -189 -21 -9 -42 -21 -45 -27 -4 -5 -33 3 -72 20 -72 33 -130 49
-196 54 -24 2 -48 10 -53 18 -7 11 -9 11 -9 -3 0 -14 -9 -18 -39 -18 -21 0
-53 -6 -71 -14 -30 -12 -34 -11 -58 10 -25 25 -66 31 -91 15 -21 -14 -50 47
-71 149 -10 47 -21 93 -25 103 -20 48 -51 -28 -40 -98 9 -62 49 -167 91 -242
42 -74 67 -133 56 -133 -11 0 -78 108 -107 172 -57 125 -70 314 -30 438 20 60
35 85 35 57 0 -11 8 -17 21 -17 20 0 21 -4 16 -47 l-6 -48 21 48 c18 41 25 48
42 43 12 -3 32 -6 46 -6 14 0 21 -4 15 -8 -5 -4 -16 -15 -24 -25 -13 -17 -11
-17 30 -11 24 4 48 10 52 14 4 4 31 -1 60 -11 29 -10 60 -18 69 -19 12 0 16
-6 12 -17 -5 -16 -4 -16 5 -2 6 9 28 20 48 23 119 21 235 81 336 174 37 34 47
40 34 20 -10 -16 -13 -28 -8 -28 14 0 99 42 186 90 66 37 85 45 85 36z m828
-182 c101 -41 172 -81 172 -95 0 -6 -7 -6 -17 -1 -44 22 -141 24 -128 2 3 -4
-12 -15 -33 -23 -45 -18 -108 -86 -129 -140 -16 -40 -15 -40 -88 -13 -49 18
-155 78 -155 88 0 5 11 30 24 56 46 90 145 160 229 161 22 1 74 -14 125 -35z
m323 -164 c77 -22 171 -132 185 -217 7 -47 -2 -140 -16 -163 -8 -12 -14 -10
-34 15 -13 16 -22 34 -19 39 4 5 1 6 -4 3 -11 -7 -27 19 -25 39 1 6 -8 19 -20
30 -21 18 -22 18 -8 0 10 -13 3 -11 -24 8 -40 27 -152 66 -190 66 -50 0 -100
-24 -147 -69 -27 -26 -52 -45 -55 -42 -3 3 -4 1 -3 -4 5 -18 -23 -87 -32 -78
-12 12 19 137 51 209 59 131 205 202 341 164z m-2974 -28 c21 3 47 9 58 13 20
8 20 8 1 -13 -22 -26 -24 -24 34 -42 25 -7 50 -16 55 -20 8 -5 80 -28 215 -70
23 -7 24 -8 5 -16 -40 -16 -370 87 -426 133 -35 30 -39 50 -4 27 16 -10 38
-15 62 -12z m2233 -192 c22 -11 44 -29 50 -40 12 -22 138 -89 218 -115 29 -10
52 -22 52 -27 0 -6 -13 -25 -30 -44 -16 -18 -32 -49 -36 -68 -3 -20 -11 -39
-18 -44 -9 -8 -94 -32 -110 -32 -3 0 -6 15 -6 33 0 45 -15 57 -76 57 -54 0
-88 -19 -78 -43 3 -8 1 -24 -4 -37 -9 -23 -13 -24 -84 -21 -93 3 -136 -14
-145 -61 -6 -30 -6 -30 -57 -23 -28 3 -51 7 -52 8 -1 1 0 15 3 31 4 20 15 32
38 42 50 20 88 57 134 127 44 68 111 223 111 257 0 27 38 27 90 0z m771 -102
c52 -24 195 -145 184 -156 -3 -3 -23 1 -44 8 -35 11 -43 11 -65 -3 -21 -14
-26 -14 -36 -2 -20 24 -77 19 -102 -10 -19 -22 -24 -23 -37 -11 -9 7 -26 17
-39 21 -26 8 -92 -12 -92 -28 0 -8 -3 -8 -11 0 -6 6 -11 37 -12 70 -2 49 2 66
23 96 14 20 32 39 40 41 39 12 138 -1 191 -26z m-3338 -221 c20 -9 37 -21 37
-27 0 -6 -21 -21 -47 -32 -87 -39 -421 -37 -469 3 -21 18 -5 37 44 53 77 24
81 25 242 22 118 -2 164 -6 193 -19z m-1000 -84 c-29 -19 -30 -56 -2 -84 65
-65 319 -119 560 -119 157 0 236 38 85 42 -39 0 8 5 104 9 184 8 232 6 106 -6
-83 -8 -97 -19 -38 -29 60 -10 149 -7 282 9 146 17 250 42 346 85 66 29 68 29
42 6 -51 -46 -267 -100 -523 -132 -77 -9 -146 -22 -152 -27 -7 -5 -13 -22 -13
-37 0 -16 6 -31 13 -33 6 -3 -4 -6 -23 -6 -19 -1 -45 -4 -57 -7 -21 -6 -23 -3
-23 34 0 40 0 40 -42 45 -24 3 -56 7 -73 10 -16 3 -86 11 -155 17 -69 7 -172
20 -230 31 -221 39 -331 136 -227 199 36 22 53 15 20 -7z m4299 -123 c24 -93
23 -110 -6 -110 -28 0 -73 49 -82 88 -3 15 -9 37 -14 48 -12 30 7 46 50 42 34
-3 35 -5 52 -68z m-4751 -14 c-6 -7 -39 -21 -72 -30 -33 -10 -112 -42 -175
-72 -166 -80 -156 -97 67 -114 79 -5 219 -15 311 -22 92 -7 165 -16 162 -20
-3 -4 -26 -9 -52 -9 l-47 -1 55 -9 c75 -11 748 -52 763 -46 23 9 -18 16 -136
22 -65 4 -116 9 -113 12 4 5 119 -1 556 -28 235 -15 452 -36 385 -38 -57 -2
-101 -20 -50 -21 17 0 122 -7 235 -15 488 -36 792 -56 1030 -70 140 -8 302
-18 359 -22 88 -5 104 -4 99 8 -7 17 33 16 312 -6 102 -8 224 -15 270 -15 99
0 162 -9 154 -21 -7 -11 -67 -11 -119 0 -46 10 -363 25 -354 17 8 -9 352 -33
859 -62 118 -6 143 2 48 16 -69 10 222 2 402 -11 470 -33 656 -31 734 8 56 29
156 107 145 114 -8 4 -6 16 5 38 9 17 18 31 20 31 3 0 11 3 20 6 22 8 21 -24
-1 -49 -21 -23 51 18 160 92 40 26 92 61 117 76 41 25 43 26 25 5 l-20 -23 25
7 c14 4 35 8 46 10 27 4 85 38 142 84 48 38 45 55 -12 71 l-31 9 33 1 c32 1
77 -30 70 -49 -8 -25 -623 -446 -700 -480 l-46 -20 -6 -83 c-3 -45 -7 -98 -9
-117 -2 -32 -5 -35 -37 -38 l-35 -3 6 88 c4 48 4 100 2 114 l-5 26 -176 6
c-170 5 -602 30 -727 42 -64 6 -553 36 -975 60 -140 8 -280 17 -310 20 -30 3
-356 26 -725 50 -1058 71 -1396 94 -1605 110 -389 30 -970 64 -1176 69 -116 3
-217 6 -225 8 -11 2 -15 -12 -17 -59 -4 -75 13 -144 32 -137 7 3 51 0 97 -7
46 -6 145 -19 219 -29 l135 -18 -125 4 c-201 8 -402 24 -442 35 -57 15 -66 37
-70 171 -4 141 -4 141 122 186 47 17 148 56 225 86 155 60 162 62 146 42z
m3096 -222 c4 -10 -5 -27 -24 -45 -29 -30 -30 -30 -108 -22 -44 5 -80 13 -82
20 -2 6 9 23 24 37 25 23 36 26 106 26 62 0 79 -3 84 -16z m-1959 -409 c109
-44 108 -139 -2 -230 -47 -40 -50 -55 -14 -55 34 0 87 -42 105 -82 20 -45 49
-51 59 -12 4 15 21 61 39 103 91 219 87 211 121 211 13 0 39 9 59 20 33 19 36
19 41 3 3 -10 9 -27 14 -38 4 -11 17 -76 27 -145 18 -120 20 -125 42 -122 17
1 22 -2 18 -13 -4 -8 -2 -17 2 -20 5 -2 14 16 20 41 38 151 176 276 285 259
49 -9 65 -20 82 -61 16 -37 0 -112 -25 -122 -9 -3 -20 -12 -24 -19 -12 -19
-32 4 -42 45 -9 43 -35 42 -80 -3 -104 -104 -114 -275 -16 -275 15 0 57 18 94
40 36 22 68 40 71 40 2 0 1 -13 -4 -30 -10 -36 -4 -37 32 -5 23 19 30 37 39
97 14 99 48 268 55 279 3 5 10 7 15 3 5 -3 16 0 24 6 8 6 19 9 24 6 5 -4 12
-2 16 4 25 41 44 -31 28 -109 -7 -35 -11 -66 -9 -68 2 -2 32 21 67 53 91 81
167 137 177 130 5 -3 20 6 32 19 13 14 28 25 34 25 5 0 -5 -16 -24 -35 -18
-19 -30 -38 -27 -42 4 -4 13 -1 19 5 19 19 30 14 18 -8 -6 -11 -8 -25 -5 -30
3 -5 -36 -44 -86 -87 -51 -43 -105 -90 -121 -105 l-30 -28 53 -67 c83 -106
141 -174 146 -170 2 2 -1 16 -6 31 -11 28 -4 89 10 81 4 -3 10 -1 14 4 3 6 12
8 20 4 9 -3 15 1 16 8 0 8 7 -3 15 -23 21 -49 58 -62 118 -42 49 17 81 46 73
67 -3 8 -36 29 -74 47 -102 49 -141 76 -159 112 -33 64 15 136 129 195 40 21
67 27 115 27 58 1 66 -2 88 -27 13 -16 24 -41 24 -57 0 -32 -32 -94 -43 -84
-4 4 -9 0 -13 -9 -5 -13 -8 -13 -25 4 -10 10 -19 28 -19 39 0 26 -22 26 -76 0
-77 -38 -70 -57 45 -113 89 -44 151 -106 151 -151 0 -74 -105 -148 -259 -181
-23 -5 -31 -4 -27 4 4 6 0 11 -9 11 -9 0 -34 9 -56 21 -23 11 -43 19 -45 16
-2 -2 11 -21 29 -43 53 -64 60 -74 50 -74 -5 0 -28 16 -52 36 -23 20 -45 34
-48 30 -4 -3 -1 -12 5 -18 23 -23 12 -29 -14 -9 -15 12 -42 21 -63 22 -20 0
-30 3 -23 6 21 8 14 22 -41 76 -29 29 -73 75 -98 104 l-46 52 -13 -57 c-23
-105 -31 -132 -36 -132 -4 0 -4 7 0 15 3 8 2 15 -3 15 -9 0 -28 -36 -34 -65
-3 -12 -5 -7 -6 13 0 17 -5 32 -11 32 -5 0 -11 8 -11 18 -1 16 -2 16 -6 0 -2
-10 -9 -18 -14 -18 -11 0 -11 33 0 83 5 20 6 39 2 42 -4 2 -32 -21 -62 -51
-57 -58 -126 -104 -155 -104 -31 0 -102 40 -133 75 -26 31 -51 88 -51 122 0 6
-9 9 -20 6 -23 -6 -24 -16 -5 -103 7 -36 12 -67 9 -69 -2 -2 -4 1 -4 8 0 7 -4
10 -9 7 -4 -3 -5 -25 -1 -48 11 -56 6 -58 -14 -6 -13 31 -20 38 -26 28 -7 -11
-10 -7 -15 13 -4 15 -11 27 -17 27 -5 0 -6 -4 -3 -10 3 -5 2 -10 -3 -10 -5 0
-12 14 -16 32 -17 86 -27 109 -44 104 -9 -2 -42 -10 -73 -16 l-57 -11 -22 -59
c-12 -33 -26 -57 -31 -54 -5 3 -16 -11 -26 -30 -21 -44 -29 -45 -37 -4 -6 30
-7 31 -21 12 -18 -24 -18 -11 0 50 8 27 15 53 15 58 0 20 -39 5 -71 -28 -18
-20 -67 -57 -106 -83 -40 -27 -69 -51 -66 -55 4 -4 0 -4 -9 -1 -10 4 -25 -2
-38 -15 -11 -11 -26 -18 -32 -14 -7 4 -8 3 -4 -4 7 -12 -3 -15 -41 -12 -16 1
-24 -6 -29 -25 -4 -18 -9 -23 -14 -15 -16 27 -30 -4 -30 -66 0 -38 -4 -64 -11
-64 -5 0 -9 12 -8 28 7 86 -9 129 -24 67 -5 -19 -5 -19 -12 3 -7 20 -12 22
-44 16 -33 -6 -34 -5 -17 8 21 17 7 34 -19 24 -23 -8 -18 8 7 23 22 14 22 14
3 21 -17 6 -14 10 23 29 24 12 45 27 47 34 2 7 6 58 8 115 4 82 2 102 -9 102
-8 0 -11 6 -8 15 4 8 2 15 -3 15 -19 0 -6 54 15 63 21 10 31 43 46 150 5 35 3
38 -17 31 -12 -3 -34 -13 -49 -20 -15 -8 -37 -14 -49 -14 -18 0 -19 2 -9 15
20 24 -13 29 -67 11 -25 -9 -48 -14 -51 -12 -2 3 14 10 36 17 46 14 114 64 75
56 -46 -10 -21 13 50 47 65 31 148 58 217 70 48 9 165 -2 208 -19z m-1409
-275 c38 -410 58 -669 65 -835 13 -306 -38 216 -84 860 -21 290 -9 274 19 -25z
m3895 173 c4 -27 13 -97 21 -156 16 -122 18 -127 46 -127 10 0 18 -3 17 -7 -2
-5 2 -9 7 -9 6 -1 15 15 21 35 16 56 57 113 120 169 119 107 276 123 313 34
16 -39 2 -93 -28 -109 -13 -6 -27 -17 -31 -24 -12 -18 -40 13 -40 45 0 73
-143 -17 -200 -126 -27 -51 -27 -129 0 -153 11 -10 33 -18 49 -17 30 1 96 37
120 66 12 14 9 16 -37 16 l-50 0 -4 40 c-4 47 -5 47 113 60 133 15 139 15 135
-18 -2 -15 -18 -68 -34 -117 -17 -50 -36 -111 -42 -137 -8 -31 -17 -45 -25
-42 -8 4 -19 -13 -31 -48 l-18 -53 -6 42 c-6 39 -20 71 -20 45 0 -7 -4 -12 -9
-12 -4 0 -5 18 -1 40 4 22 5 42 2 44 -2 3 -24 -6 -49 -19 -54 -31 -76 -31
-132 -2 -58 30 -100 82 -109 137 -8 45 -18 56 -40 42 -9 -6 -10 -21 -2 -62 5
-29 10 -64 10 -79 0 -21 -2 -23 -11 -11 -8 11 -9 -1 -5 -45 5 -57 4 -59 -9
-30 -8 17 -14 35 -15 42 0 7 -6 10 -14 7 -9 -3 -17 3 -21 17 -5 15 -9 18 -15
9 -10 -16 -17 -4 -25 45 -14 86 -13 85 -50 85 -19 0 -57 -5 -86 -11 -50 -11
-52 -12 -81 -76 -17 -36 -34 -60 -37 -54 -9 14 -25 2 -43 -33 l-15 -29 -6 33
c-5 24 -11 31 -23 26 -12 -5 -14 -1 -8 17 3 12 13 34 20 49 18 35 18 48 -2 48
-13 0 -14 3 -5 14 9 11 9 15 -1 20 -11 5 -11 7 0 12 10 4 10 9 2 19 -9 11 -4
16 27 25 36 10 41 16 94 128 31 64 55 118 54 120 -3 3 -207 -27 -211 -31 -3
-3 -38 -137 -89 -347 -17 -66 -37 -106 -27 -53 l5 28 -25 -26 c-13 -14 -30
-41 -36 -60 l-12 -34 5 45 c2 25 0 52 -5 60 -7 10 -10 11 -10 3 0 -7 -4 -13
-9 -13 -12 0 -3 69 29 235 16 77 26 142 24 144 -2 2 -29 -1 -60 -8 -57 -11
-121 -14 -96 -4 14 5 17 33 3 33 -5 0 -8 15 -6 33 3 40 27 54 114 62 37 3 77
11 91 17 28 12 225 20 279 11 32 -5 33 -7 16 -19 -10 -8 -13 -14 -7 -14 7 0
12 -4 12 -10 0 -5 -6 -10 -14 -10 -8 0 -18 -4 -21 -10 -4 -6 9 -10 32 -10 32
1 41 6 58 33 17 27 26 31 52 29 17 -2 34 1 38 7 3 6 17 11 31 11 13 0 24 5 24
10 0 6 4 10 9 10 4 0 11 -21 15 -47z m1066 -58 c14 -8 42 -14 63 -15 50 0 47
-17 -5 -25 -45 -8 -67 -23 -61 -42 3 -7 -21 -13 -69 -17 -186 -16 -186 -16
-191 -39 -3 -12 -9 -32 -12 -44 -7 -23 -6 -23 91 -23 80 -1 95 -3 79 -12 -19
-12 -19 -12 5 -19 25 -6 25 -7 -8 -19 -21 -8 -30 -15 -22 -20 18 -11 -9 -18
-104 -26 l-86 -7 -13 -46 -13 -46 155 -3 c86 -1 160 -7 165 -12 7 -7 0 -10
-19 -11 -57 -1 5 -17 75 -20 l65 -2 -90 -9 c-94 -9 -140 -28 -70 -28 80 0 24
-9 -130 -20 -88 -7 -172 -18 -187 -25 -20 -10 -28 -10 -32 -1 -2 6 -8 1 -11
-11 -8 -26 -25 -31 -25 -8 0 10 -10 15 -32 15 -25 0 -29 3 -20 12 9 9 9 15 0
25 -21 26 -19 61 4 65 27 4 65 107 45 123 -17 14 -9 62 12 77 21 15 36 42 45
81 5 23 3 27 -15 27 -16 0 -20 5 -16 20 3 11 1 23 -4 26 -5 3 -2 12 6 20 8 9
13 20 10 25 -13 21 64 36 195 38 74 1 136 4 139 6 9 10 57 4 81 -10z m-4335
-543 c38 -7 40 -9 40 -42 0 -34 -1 -35 -45 -38 -25 -1 -65 1 -90 6 -36 6 -46
12 -48 30 -6 42 4 52 55 51 26 0 66 -3 88 -7z m1664 -13 c78 -14 131 -38 160
-75 19 -24 19 -28 6 -54 -18 -35 -52 -60 -130 -96 -44 -20 -55 -28 -40 -31
128 -26 185 -64 185 -121 0 -68 -122 -159 -303 -223 -69 -25 -70 -32 -2 -12
11 3 17 2 13 -1 -6 -7 -201 -66 -216 -66 -4 0 0 5 8 11 11 7 4 8 -25 3 -67
-11 -84 -21 -94 -56 -9 -32 -9 -32 -10 -5 -2 59 -50 16 -52 -48 0 -22 -5 -51
-10 -65 -6 -17 -7 1 -4 53 4 70 3 78 -12 75 -9 -2 -20 -14 -23 -28 l-6 -25 -7
26 c-6 24 -9 26 -52 19 -25 -4 -45 -3 -45 1 0 8 41 15 130 23 25 3 110 25 188
50 79 25 151 46 160 46 10 0 24 5 32 10 11 8 9 9 -10 5 -17 -4 -32 0 -47 14
-11 11 -24 17 -27 14 -3 -4 -6 1 -6 10 0 14 -11 13 -87 -9 -92 -25 -115 -29
-98 -16 10 6 35 77 35 98 0 4 -5 3 -12 -4 -15 -15 -54 -16 -63 -2 -13 21 -34
9 -40 -22 -4 -18 -9 -41 -12 -52 -3 -13 -1 -16 7 -11 8 5 11 1 8 -10 -3 -17
-60 -42 -133 -59 -28 -6 -28 -5 -12 8 11 8 36 18 58 21 41 7 59 27 59 66 0 12
9 53 21 91 l20 70 -23 19 c-19 17 -20 22 -8 30 12 7 12 11 2 17 -9 6 -1 13 25
24 35 13 40 21 66 93 l27 78 -37 -7 c-117 -19 -119 -19 -99 -3 19 14 19 15 -2
22 l-23 7 26 20 c31 24 28 32 -9 19 -14 -6 -26 -8 -26 -6 0 12 65 35 140 49
46 9 86 18 88 21 10 10 277 5 341 -6z m936 -19 c44 5 114 9 155 8 l75 0 -50
-13 c-42 -11 -45 -13 -20 -14 l30 -2 -30 -15 c-30 -14 -30 -14 21 -10 261 23
382 28 400 18 17 -10 17 -11 2 -12 -29 0 -20 -20 10 -21 20 -1 15 -4 -21 -14
-61 -17 -70 -25 -26 -25 72 -1 1 -19 -117 -31 -65 -6 -122 -14 -126 -18 -4 -3
-14 -24 -23 -45 l-17 -39 79 6 c43 3 92 3 108 -1 30 -6 30 -6 5 -12 l-25 -7
25 -11 c22 -9 22 -11 5 -12 -11 0 -27 -5 -35 -10 -13 -9 -13 -11 0 -20 12 -8
10 -10 -9 -10 -56 0 -201 -23 -201 -32 0 -5 -8 -26 -19 -48 l-18 -38 201 3
c110 2 188 1 171 -1 -62 -11 -49 -24 25 -24 89 0 84 -12 -8 -21 -37 -4 -82
-10 -99 -14 -22 -5 -33 -4 -33 4 0 6 11 11 24 11 14 0 28 5 31 10 4 6 -8 10
-30 10 -22 0 -34 4 -30 10 5 7 -37 8 -129 4 -75 -4 -136 -5 -136 -2 0 3 7 25
15 48 8 24 13 45 10 48 -3 3 -5 1 -5 -5 0 -5 -10 -9 -22 -8 -13 1 -29 -3 -37
-9 -11 -8 -13 -8 -7 2 4 7 2 12 -6 12 -13 0 -48 -72 -48 -98 0 -6 -4 -12 -9
-12 -10 0 -3 29 19 85 9 23 8 32 -2 40 -7 5 -14 22 -15 37 -1 21 5 29 31 42
23 11 39 29 50 56 20 50 20 50 -3 50 -14 0 -18 5 -14 19 3 14 18 20 56 25 51
7 124 33 116 41 -3 2 -23 -2 -44 -10 -22 -7 -101 -21 -175 -30 -74 -10 -135
-18 -136 -19 -1 0 -27 -68 -59 -151 -98 -253 -114 -291 -114 -274 -1 10 15 58
34 108 39 101 41 113 20 105 -9 -4 -15 0 -15 7 -1 9 -4 8 -11 -4 -7 -13 -14
-15 -23 -8 -6 5 -21 9 -31 7 -15 -2 -27 -25 -52 -96 -30 -88 -43 -115 -43 -94
0 6 25 84 56 174 74 219 73 214 43 207 -13 -3 -49 -9 -79 -12 -30 -3 -66 -8
-80 -11 -23 -4 -24 -3 -7 10 18 14 18 15 0 24 -17 10 -17 11 0 30 10 10 15 26
12 35 -7 18 6 21 140 37 50 6 99 15 110 20 30 14 59 17 70 9 6 -4 46 -3 90 1z
m1005 -19 c30 -16 35 -23 33 -52 -3 -32 -2 -33 12 -15 15 20 15 20 15 0 0 -28
-36 -90 -50 -86 -7 1 -18 -5 -26 -15 -13 -17 -13 -17 -14 0 0 14 -5 17 -19 12
-16 -5 -20 0 -23 22 -3 26 -5 28 -47 25 -51 -3 -146 -50 -146 -71 0 -10 50
-35 140 -70 210 -84 243 -109 230 -177 -3 -19 -5 -37 -5 -40 1 -4 -14 -16 -32
-27 -44 -27 -23 -33 64 -17 61 11 90 9 77 -4 -2 -3 -52 -9 -110 -14 -70 -7
-119 -17 -145 -30 -22 -11 -79 -36 -128 -56 -50 -20 -92 -39 -95 -44 -11 -14
-89 -44 -100 -38 -10 6 -209 -67 -274 -101 -16 -8 -31 -12 -34 -9 -3 3 29 22
72 41 42 20 75 38 73 40 -2 2 -78 -20 -168 -50 -91 -30 -169 -55 -175 -55 -5
0 4 9 20 20 17 11 37 20 45 20 8 0 83 22 167 50 83 27 158 48 165 45 16 -6
280 83 360 121 50 24 51 25 16 19 -42 -6 -118 8 -128 25 -5 9 -18 6 -46 -8
-22 -11 -50 -23 -64 -27 -14 -4 -65 -25 -113 -47 -49 -22 -90 -38 -92 -36 -2
2 73 39 168 82 209 94 297 142 297 161 0 18 -31 34 -166 85 -177 66 -211 100
-180 175 29 70 224 163 341 165 31 0 64 -7 85 -19z m-1466 -43 c8 -5 0 -38
-25 -110 -20 -57 -51 -146 -69 -198 -18 -52 -40 -115 -49 -140 -26 -73 -23
-22 3 60 13 41 21 81 19 88 -6 14 -63 17 -63 2 0 -5 -11 -10 -25 -10 -26 0
-26 0 -65 -152 -7 -27 -16 -48 -21 -48 -4 0 -2 21 6 48 7 26 23 83 35 127 34
123 80 265 102 314 15 34 22 41 28 30 8 -12 14 -11 39 4 21 12 32 14 37 6 4
-8 10 -6 18 7 10 18 10 18 14 -1 3 -11 9 -23 16 -27z m-2116 -144 c19 -6 23
-12 20 -43 -3 -33 -6 -36 -38 -41 -37 -5 -33 -13 13 -24 25 -6 28 -10 25 -44
-3 -35 -5 -37 -43 -40 -22 -1 -60 1 -85 6 -43 7 -45 9 -48 45 -3 36 -3 37 32
37 45 0 47 17 4 28 -29 7 -33 13 -36 45 l-3 37 68 0 c37 0 78 -3 91 -6z m4695
-150 c35 -6 37 -8 37 -45 l0 -39 -57 0 c-32 0 -75 3 -95 6 -35 6 -38 9 -38 39
0 17 3 35 7 38 8 9 96 9 146 1z m278 -14 c27 0 29 -3 29 -40 l0 -40 -72 0
c-104 0 -118 6 -118 44 0 18 3 36 8 40 4 5 34 5 66 2 32 -3 72 -6 87 -6z
m-248 -119 c5 -5 7 -21 5 -37 -3 -26 -7 -29 -43 -32 -22 -2 -64 -1 -92 3 -52
6 -53 7 -53 39 0 18 3 36 8 40 9 10 164 -2 175 -13z m-5449 -80 c24 -26 79
-38 236 -51 74 -5 159 -12 189 -15 30 -2 57 -8 60 -13 3 -5 71 -15 151 -21
206 -17 668 -50 715 -52 24 -1 31 -3 17 -6 -20 -4 -207 6 -687 37 -82 5 -224
12 -315 15 -91 3 -191 8 -222 11 l-58 5 0 -28 c0 -19 -3 -24 -9 -15 -4 7 -14
12 -22 10 -8 -2 -15 7 -17 20 -3 22 -15 29 -69 46 -22 7 -23 5 -23 -49 0 -35
-4 -54 -10 -50 -14 9 -13 148 2 163 17 17 42 15 62 -7z m5434 -27 c17 -5 22
-14 22 -39 0 -41 -23 -48 -113 -39 -72 7 -92 21 -83 58 6 25 9 26 79 26 39 0
82 -3 95 -6z m-1750 -42 c18 -4 -144 -7 -360 -7 -460 0 -729 -20 -933 -68 -11
-3 -53 -13 -93 -22 -81 -19 -94 -31 -16 -16 27 6 72 12 99 15 95 10 230 26
308 36 191 25 231 29 370 35 98 5 147 4 147 -3 0 -7 81 -9 243 -7 l242 4 -230
-14 c-325 -19 -584 -49 -700 -82 -13 -3 -17 -2 -10 5 12 12 169 47 283 63 45
6 82 14 82 17 0 16 -390 -22 -738 -74 -95 -14 -185 -24 -200 -22 l-27 3 32 18
c96 52 446 107 808 127 173 9 639 4 693 -8z m952 -292 c85 -5 270 -17 410 -27
140 -9 372 -17 515 -17 143 -1 224 -4 180 -7 l-80 -5 67 -2 c83 -2 207 14 254
34 20 8 39 13 41 10 3 -3 -7 -10 -23 -16 -97 -36 -114 -43 -114 -50 0 -13 -44
-20 -51 -9 -4 6 -54 12 -120 14 -207 6 -1376 82 -1289 84 31 0 125 -3 210 -9z"/>
<path d="M3662 4549 l-2 -56 -67 -30 c-180 -80 -371 -121 -507 -108 -66 6 -79
10 -86 28 -6 15 -9 17 -9 6 -1 -14 -11 -16 -71 -11 -49 3 -74 1 -86 -8 -88
-74 -42 -350 93 -552 55 -81 96 -113 171 -129 66 -14 128 -5 201 28 103 47
145 53 331 52 189 0 248 9 339 55 67 34 127 106 148 175 21 71 23 242 4 331
-13 61 -54 154 -83 191 -24 30 -83 59 -119 59 -39 0 -143 -31 -201 -61 -20
-10 -39 -19 -42 -19 -3 0 -7 24 -9 53 l-3 52 -2 -56z m171 -281 c7 -24 -7 -38
-38 -38 -11 0 -27 -5 -35 -11 -11 -8 -8 -9 15 -4 17 3 37 8 46 11 12 3 19 -4
23 -22 4 -14 5 -29 2 -31 -3 -3 0 -11 7 -18 9 -10 14 -10 22 1 5 7 26 16 46
19 31 6 37 4 42 -14 6 -24 -10 -36 -65 -46 -27 -5 -35 -11 -31 -22 4 -9 8 -11
12 -4 4 6 28 14 54 17 43 6 47 5 47 -15 0 -14 -11 -26 -32 -36 l-33 -14 38 5
c33 6 37 4 37 -15 0 -21 -10 -28 -67 -45 -18 -6 -23 -3 -24 11 0 15 -2 14 -9
-4 -5 -13 -21 -25 -37 -29 -15 -3 -43 -10 -61 -16 -18 -5 -41 -8 -51 -5 -10 2
-26 -2 -36 -9 -10 -8 -34 -14 -52 -14 -27 0 -33 4 -33 21 0 13 8 23 23 27 20
6 20 7 -8 12 -21 4 -30 11 -30 25 0 14 13 23 55 37 30 9 39 14 20 11 -65 -12
-85 -10 -85 12 0 14 12 23 51 35 l50 15 -10 33 c-7 25 -6 36 3 41 10 6 9 10
-3 14 -9 4 -16 17 -16 31 0 19 7 27 33 35 88 27 123 27 130 -1z m-709 -184
c10 -4 16 -18 16 -36 l0 -30 55 4 c30 1 55 0 55 -4 0 -3 3 -13 6 -22 4 -10 1
-16 -9 -16 -9 0 -19 -5 -23 -12 -4 -6 -3 -8 4 -5 17 11 42 -3 42 -24 0 -10 -8
-23 -17 -28 -15 -9 -14 -10 10 -11 20 0 27 -5 27 -20 0 -15 -7 -20 -27 -21
-16 0 -39 -3 -53 -5 -62 -10 -111 -12 -161 -6 -45 6 -54 10 -54 27 0 11 -5 25
-11 30 -18 16 -25 45 -11 45 7 0 4 5 -5 11 -10 5 -18 19 -18 29 0 17 7 20 41
20 32 0 39 3 31 13 -5 6 -12 21 -14 32 -2 17 4 21 42 26 25 3 48 7 52 7 3 1
13 -1 22 -4z"/>
<path d="M207 2228 c-3 -18 -3 -69 1 -113 7 -79 7 -79 40 -89 18 -5 35 -7 38
-4 8 9 8 149 0 185 -5 23 -15 34 -38 42 -17 6 -32 11 -33 11 -2 0 -5 -15 -8
-32z"/>
<path d="M1607 1490 c-20 -4 -39 -9 -41 -11 -6 -5 -36 -178 -36 -202 0 -16 8
-14 60 15 34 18 83 53 111 76 83 73 87 103 14 121 -48 12 -53 12 -108 1z"/>
<path d="M2470 1051 c-14 -3 -26 -15 -28 -26 -2 -11 -12 -39 -22 -62 -11 -24
-16 -43 -12 -43 4 0 41 11 82 25 93 32 185 77 184 90 -2 20 -144 31 -204 16z"/>
<path d="M2415 811 l-50 -6 -37 -108 -37 -107 27 6 c125 31 322 115 356 153
29 32 14 48 -57 60 -66 11 -117 12 -202 2z"/>
</g>
</svg>
