<?xml version="1.0" standalone="no"?>
<!DOCTYPE svg PUBLIC "-//W3C//DTD SVG 20010904//EN"
 "http://www.w3.org/TR/2001/REC-SVG-20010904/DTD/svg10.dtd">
<svg version="1.0" xmlns="http://www.w3.org/2000/svg"
 width="720.000000pt" height="544.000000pt" viewBox="0 0 720.000000 544.000000"
 preserveAspectRatio="xMidYMid meet">
<metadata>
Created by potrace 1.16, written by Peter Selinger 2001-2019
</metadata>
<g transform="translate(0.000000,544.000000) scale(0.100000,-0.100000)"
fill="#000000" stroke="none">
<path d="M4822 5333 c-7 -60 -17 -122 -22 -139 -6 -17 -10 -66 -10 -110 0 -54
-6 -98 -20 -137 -11 -31 -20 -64 -20 -74 0 -10 -25 -43 -57 -75 -52 -52 -56
-60 -56 -101 1 -53 71 -190 135 -261 40 -46 40 -47 22 -68 -17 -18 -19 -37
-18 -197 1 -97 5 -209 8 -248 l7 -73 -71 -34 -71 -34 -42 23 c-63 34 -139 48
-227 42 -92 -6 -152 -30 -212 -85 -39 -36 -49 -40 -117 -46 -41 -3 -102 -18
-137 -32 -35 -14 -74 -24 -87 -22 -21 3 -20 4 8 20 32 17 193 176 208 205 17
32 40 43 92 43 48 0 59 5 142 64 69 50 99 79 130 128 54 83 65 124 66 228 0
80 -3 94 -35 163 -44 92 -93 147 -179 203 -69 44 -94 83 -88 136 5 40 -30 90
-124 182 -158 152 -287 226 -482 276 -112 29 -369 29 -491 0 -261 -62 -483
-205 -615 -397 -57 -83 -99 -174 -99 -217 0 -31 -6 -45 -26 -61 -35 -28 -46
-130 -19 -171 26 -40 13 -123 -31 -186 -18 -27 -38 -66 -44 -86 -31 -114 15
-298 98 -394 45 -51 150 -102 276 -135 91 -23 115 -33 141 -60 32 -32 175
-113 201 -113 22 0 16 -26 -8 -38 -38 -19 -51 -18 -90 6 -20 13 -56 26 -79 30
l-42 7 28 33 c15 17 22 32 17 32 -6 0 -25 -18 -42 -40 l-32 -40 -91 1 c-89 1
-307 -18 -316 -27 -11 -10 9 -11 74 -2 88 12 293 6 323 -10 12 -7 22 -22 22
-33 0 -19 -1 -19 -22 -5 -12 9 -34 16 -48 16 -22 -1 -23 -2 -9 -13 9 -7 14
-18 12 -24 -3 -9 9 -13 44 -13 26 0 55 -5 63 -10 23 -14 -26 -28 -71 -20 -21
4 -36 3 -33 -1 3 -5 11 -9 18 -9 8 0 19 -7 26 -15 10 -13 9 -15 -10 -15 -18 0
-20 -3 -11 -14 8 -10 5 -19 -14 -40 -13 -14 -29 -26 -35 -26 -5 0 -10 -6 -10
-14 0 -17 -23 -27 -71 -33 -45 -5 -53 5 -68 87 -21 107 -37 138 -80 150 -45
12 -61 13 -61 1 0 -5 -26 6 -58 25 -31 19 -94 46 -140 61 -74 23 -94 25 -190
21 -110 -6 -139 -14 -233 -71 -43 -26 -249 -241 -249 -260 0 -7 -14 -31 -30
-54 -17 -22 -48 -81 -70 -131 -32 -73 -40 -101 -40 -151 0 -47 3 -61 15 -61
10 0 15 16 17 63 3 58 5 62 28 65 25 3 25 3 20 -64 l-5 -67 -65 -19 c-116 -34
-110 -34 -110 0 0 34 -13 42 -69 42 -49 0 -61 -14 -61 -72 0 -41 3 -48 19 -48
11 0 21 -6 24 -12 3 -9 21 -4 63 18 74 39 111 49 111 29 0 -9 -16 -16 -46 -21
-70 -10 -115 -48 -81 -69 33 -20 391 -84 590 -105 63 -7 120 -13 125 -14 6 -2
-46 -7 -115 -12 -168 -12 -360 -7 -514 15 -147 20 -160 10 -38 -32 129 -44
264 -58 537 -56 390 3 606 32 760 104 86 40 120 73 112 112 -5 26 -4 26 9 8
20 -27 18 -39 -12 -75 -60 -70 -241 -125 -539 -161 l-185 -23 0 -37 c0 -36 2
-38 38 -42 20 -2 0 -4 -45 -5 -76 -2 -81 -1 -76 18 3 11 3 30 -1 43 -5 23 -9
24 -150 30 -289 14 -482 55 -570 122 -18 14 -59 34 -91 45 -32 11 -78 31 -101
44 -29 16 -44 20 -44 12 0 -11 -96 -50 -540 -221 -80 -31 -156 -66 -169 -78
-23 -22 -23 -24 -17 -157 6 -125 9 -137 31 -156 13 -12 29 -24 35 -26 9 -3 52
-479 116 -1274 l6 -80 -40 -18 c-23 -10 -51 -29 -63 -42 -20 -21 -21 -30 -16
-96 5 -62 10 -76 32 -95 46 -40 99 -47 560 -78 558 -36 1871 -127 2335 -160
1078 -78 1718 -126 1816 -135 61 -5 396 -10 747 -10 l637 0 127 73 c241 139
508 298 522 312 9 9 16 43 19 93 l4 79 -37 31 -38 31 6 63 c12 116 46 571 62
818 31 493 32 499 64 529 27 25 29 32 35 141 12 207 12 209 -15 235 -31 32
-80 40 -354 60 -351 26 -325 21 -326 58 -1 18 -1 36 1 42 1 5 -1 24 -5 43 -5
26 -14 37 -40 48 -38 16 -147 19 -173 5 -11 -6 -47 -2 -102 10 -204 44 -330
54 -680 54 -301 0 -348 -3 -463 -23 -70 -12 -132 -22 -137 -22 -6 0 -10 13
-10 28 0 15 -5 33 -12 40 -13 13 -106 16 -124 4 -7 -4 -14 -27 -17 -52 -3 -25
-6 -45 -6 -45 -1 0 -43 0 -95 0 -102 0 -136 -15 -136 -59 0 -20 -4 -21 -92
-18 -51 2 -99 5 -105 7 -8 3 -13 22 -13 46 0 38 5 47 60 98 33 31 75 83 95
116 42 71 85 200 85 255 0 35 5 43 42 70 29 21 53 30 80 30 21 0 53 7 69 16
19 9 41 13 60 9 38 -9 108 15 241 81 101 51 161 97 200 155 9 14 34 31 57 37
86 26 143 110 145 214 1 40 7 64 20 79 41 48 49 101 43 283 -6 204 -19 278
-58 327 l-28 36 30 94 c17 52 44 136 61 188 42 132 30 175 -56 205 -21 7 -45
27 -59 47 -20 30 -28 34 -65 33 -38 -1 -42 2 -52 31 -8 25 -18 34 -42 39 -55
11 -81 6 -115 -20 -19 -14 -37 -23 -40 -20 -3 3 0 68 7 143 18 187 22 276 11
241 -5 -14 -12 -58 -16 -97 -4 -39 -10 -69 -14 -67 -4 3 -4 31 0 63 4 32 8 73
8 91 l1 32 -73 0 -73 0 -12 -107z m-1403 -268 c35 -9 67 -18 72 -20 4 -3 -10
-33 -31 -67 -22 -34 -40 -66 -40 -71 0 -6 17 18 39 54 50 82 63 84 166 22 82
-49 191 -163 199 -207 20 -111 28 -208 30 -357 l1 -176 -16 58 c-24 89 -75
185 -117 219 -70 58 -145 50 -302 -30 -252 -131 -322 -162 -415 -185 -102 -26
-205 -31 -336 -17 -90 10 -126 0 -146 -44 -15 -30 -15 -45 -6 -112 11 -74 51
-197 61 -188 2 3 -3 26 -12 52 -9 26 -14 49 -12 51 2 2 16 -33 32 -79 30 -90
69 -158 148 -257 62 -77 105 -101 182 -101 47 0 69 7 137 44 119 64 168 76
321 76 189 0 309 36 401 121 69 63 88 121 88 264 0 86 2 109 8 80 4 -22 19
-80 33 -130 30 -103 34 -153 17 -181 -11 -17 -11 -17 -5 5 4 14 2 21 -4 17 -5
-3 -13 -22 -16 -41 -7 -37 -32 -57 -45 -36 -12 19 -81 -56 -81 -90 0 -11 -4
-18 -9 -15 -5 3 -20 -3 -34 -14 -14 -11 -30 -20 -37 -20 -6 0 -9 -4 -5 -9 3
-5 -5 -13 -17 -17 -13 -4 -26 -11 -29 -16 -3 -5 -24 -12 -47 -15 -43 -6 -52 2
-73 66 -8 22 -8 21 -4 -8 3 -19 11 -47 19 -62 17 -34 12 -39 -30 -39 -18 0
-36 -4 -39 -10 -3 -5 -28 -12 -56 -16 -38 -5 -47 -9 -39 -19 8 -9 7 -15 -2
-18 -7 -3 -4 -6 7 -6 31 -1 140 29 143 40 2 5 8 7 13 4 14 -9 135 55 174 92
19 18 38 33 43 33 4 0 20 12 35 26 21 18 26 28 18 37 -7 10 -2 20 19 40 16 15
31 23 34 18 4 -5 -6 -18 -21 -29 -16 -11 -24 -24 -20 -29 7 -7 52 36 91 87 28
37 50 47 75 34 l24 -12 -49 -52 c-112 -120 -358 -262 -534 -307 -268 -68 -502
-25 -662 123 -92 85 -206 295 -249 457 -24 93 -29 132 -29 229 0 101 -2 118
-17 128 -17 9 -16 12 9 33 24 20 68 123 68 159 0 26 141 202 212 264 104 91
255 166 358 177 90 10 250 6 309 -8z m1725 -30 c15 -14 26 -35 26 -50 0 -43
-22 -116 -36 -122 -23 -9 -114 29 -114 47 0 24 30 123 42 138 17 19 53 14 82
-13z m130 -76 c28 -22 33 -51 16 -109 -18 -63 -23 -66 -69 -45 -48 21 -56 40
-40 97 22 84 43 97 93 57z m-1044 -249 c22 -11 40 -23 40 -26 0 -3 -19 -2 -43
1 -38 6 -46 3 -71 -22 -93 -91 -100 -275 -18 -486 37 -95 67 -127 118 -123 39
4 52 21 29 39 -6 5 1 6 14 3 30 -6 51 9 51 36 0 10 13 36 30 56 55 69 75 175
48 252 -14 42 -57 107 -92 139 -28 27 -34 51 -12 51 23 0 64 -46 98 -111 31
-61 33 -69 32 -169 0 -86 -4 -114 -21 -153 -12 -26 -29 -50 -37 -53 -8 -3 -33
-30 -56 -60 -83 -110 -169 -113 -239 -8 -46 70 -71 146 -83 259 -19 168 20
319 95 373 39 27 66 28 117 2z m1134 -392 c21 -74 37 -317 27 -401 -9 -66 -17
-84 -64 -140 -25 -29 -112 -68 -150 -66 -15 1 -17 3 -6 6 24 6 29 46 29 238 0
129 3 175 13 178 6 3 -4 3 -23 -1 -45 -9 -139 -9 -215 1 -33 4 -54 4 -47 1 8
-4 10 -10 3 -17 -5 -7 -11 -68 -15 -137 -3 -69 -8 -142 -12 -164 -5 -28 -3
-37 5 -32 6 4 11 1 11 -8 0 -23 -5 -20 -51 21 -66 60 -69 70 -75 295 -5 182
-3 207 13 240 14 30 21 36 33 27 11 -8 12 -12 3 -16 -16 -6 -17 -44 -2 -75 5
-13 33 -39 61 -58 45 -31 59 -35 129 -39 100 -4 182 25 247 86 47 45 49 54 27
143 l-7 25 25 -27 c14 -15 32 -51 41 -80z m-2972 20 c-49 -82 -32 -277 38
-425 21 -46 45 -90 52 -99 34 -41 92 -91 131 -111 l42 -23 -50 6 c-104 13
-176 64 -218 155 -29 63 -67 209 -67 255 0 34 -15 53 -23 32 -3 -7 -6 -1 -6
15 -1 18 4 27 14 27 17 0 21 26 4 32 -8 3 -4 27 10 75 16 52 29 77 49 92 37
27 49 11 24 -31z m1146 -105 c2 -18 6 -33 10 -34 38 -6 78 -3 84 5 4 6 8 1 8
-11 0 -13 -3 -22 -7 -22 -16 3 -73 -14 -73 -21 0 -15 39 -18 51 -4 6 8 26 14
44 14 33 0 33 0 40 -60 4 -33 11 -60 16 -60 5 0 9 -11 9 -23 0 -22 -33 -47
-62 -47 -6 0 -34 -11 -62 -24 -63 -30 -160 -58 -205 -60 -32 -1 -34 1 -48 49
-7 28 -19 60 -25 72 -16 33 -5 49 46 64 25 7 46 19 46 26 0 15 -21 17 -35 4
-6 -4 -22 -11 -37 -15 -22 -5 -25 -3 -21 14 5 18 35 27 68 20 6 -1 7 2 3 6 -4
4 -3 13 3 21 9 9 8 17 -1 28 -22 26 -7 48 50 71 74 30 94 28 98 -13z m-719
-149 c27 -6 31 -11 31 -38 1 -33 24 -74 34 -58 3 6 22 12 41 14 29 3 35 1 35
-14 0 -17 -19 -23 -62 -19 -22 3 -23 -18 -4 -45 12 -15 17 -17 27 -6 11 10 9
12 -6 12 -20 1 -20 1 0 16 11 8 31 14 45 12 24 -3 28 -11 45 -90 3 -15 12 -34
21 -42 8 -9 13 -20 10 -25 -14 -22 -277 -39 -293 -19 -12 15 -47 118 -58 166
-6 30 -5 32 20 32 25 0 26 1 19 49 -6 49 -6 50 22 54 16 2 32 5 35 6 4 0 21
-2 38 -5z m1706 -266 c52 -13 97 -37 91 -47 -3 -5 -24 -11 -47 -15 -50 -8
-126 -46 -156 -78 -24 -25 -62 -104 -63 -129 0 -8 -6 -23 -12 -32 -11 -15 -12
-10 -10 30 l4 48 -97 0 c-108 0 -123 -9 -111 -68 6 -32 6 -32 -9 -9 -47 65
-23 155 61 232 90 81 207 104 349 68z m295 -1 c0 -7 -9 -31 -21 -52 -39 -76
-6 -217 70 -295 78 -81 145 -87 222 -22 44 37 34 11 -13 -35 -88 -84 -369
-202 -392 -164 -4 6 0 11 11 11 20 0 252 111 253 121 0 4 -14 12 -30 19 -33
14 -117 90 -141 129 l-15 24 -66 -27 c-70 -27 -194 -57 -203 -48 -3 3 -5 28
-5 56 1 104 48 180 137 221 32 15 81 37 108 50 57 27 85 31 85 12z m-720 -123
c0 -3 -6 -12 -14 -20 -8 -8 -24 -40 -36 -71 -52 -137 -31 -307 52 -432 12 -19
17 -32 10 -27 -13 8 -56 -17 -45 -27 3 -4 4 -7 1 -7 -7 0 -60 88 -82 138 -11
23 -21 40 -23 38 -2 -2 12 -40 33 -85 l36 -80 -30 -38 c-17 -21 -66 -73 -109
-115 -97 -93 -134 -107 -216 -83 -28 9 -94 19 -144 22 -57 4 -93 10 -93 17 0
6 -5 3 -11 -6 -5 -10 -19 -18 -29 -18 -10 0 -39 -11 -63 -23 l-44 -24 -32 29
c-36 32 -54 32 -59 0 -3 -18 -6 -20 -17 -9 -38 39 -80 154 -91 252 -5 39 -10
59 -12 45 -2 -14 -11 -33 -19 -42 -23 -25 -28 -92 -10 -130 57 -124 92 -191
128 -246 46 -70 45 -95 -1 -41 -42 49 -114 192 -140 277 -19 62 -22 90 -18
176 5 122 11 136 42 104 13 -13 25 -30 28 -38 3 -10 10 -4 24 18 21 36 49 47
94 38 17 -3 30 -2 30 3 0 5 21 2 48 -6 86 -27 213 1 318 69 27 18 82 65 122
105 39 40 72 68 72 62 0 -5 10 -1 22 11 19 18 38 25 60 21 4 0 13 9 19 20 7
14 14 18 18 10 5 -7 14 -5 29 9 11 11 33 20 47 20 25 0 75 42 75 63 0 6 -25 8
-66 4 -69 -7 -79 0 -22 13 40 10 118 12 118 4z m-2010 -204 c76 -17 153 -52
189 -84 58 -54 84 -140 65 -213 -8 -28 -35 -29 -132 -8 -37 8 -80 16 -97 17
-29 3 -30 5 -36 63 -4 49 -12 69 -43 110 -48 62 -62 69 -41 19 l16 -39 -45 44
-44 43 -71 -4 c-73 -5 -107 3 -74 17 41 17 171 43 218 44 28 0 70 -4 95 -9z
m-343 -181 c72 -14 113 -53 113 -107 0 -23 -4 -44 -10 -47 -5 -3 -10 -15 -10
-25 0 -17 -56 -70 -73 -70 -17 0 -5 18 16 24 46 14 -52 38 -173 43 -63 3 -117
7 -119 9 -3 2 8 17 23 33 17 18 23 30 16 33 -7 2 4 12 24 23 42 23 47 40 11
33 -34 -7 -31 2 17 40 45 36 40 36 165 11z m314 -255 c4 -2 10 -21 14 -41 6
-32 8 -35 19 -21 11 15 43 22 90 19 16 -1 16 -3 5 -17 -7 -8 -31 -25 -53 -36
-23 -11 -48 -26 -56 -33 -8 -7 -29 -15 -47 -18 -27 -5 -36 -2 -54 21 -17 22
-20 36 -15 75 3 26 8 52 12 58 6 10 67 5 85 -7z m-481 -14 c0 -12 -12 -43 -26
-71 -14 -28 -31 -88 -39 -134 -16 -101 -29 -127 -58 -123 -30 4 -32 39 -8 129
12 40 21 88 21 105 0 73 30 112 88 113 16 1 22 -5 22 -19z m131 10 c37 -20 16
-125 -30 -150 -23 -12 -101 -14 -101 -2 1 23 32 138 42 149 13 16 62 17 89 3z
m173 -70 c28 -10 70 -70 80 -112 l6 -28 -135 0 -135 0 35 48 c69 94 76 102
100 102 13 0 35 -4 49 -10z m1105 -1 c26 -9 38 -23 57 -68 47 -106 79 -162
112 -199 l33 -36 -27 -23 c-32 -27 -33 -27 -62 -7 -15 10 -55 18 -117 21 l-95
6 0 43 c0 72 -32 89 -156 82 -68 -3 -79 -6 -100 -31 l-24 -28 -70 25 c-82 30
-233 61 -340 71 -41 4 -85 11 -98 16 -19 8 -21 12 -12 29 17 32 64 56 153 80
l80 22 40 -22 c34 -20 58 -23 192 -28 146 -5 155 -4 180 17 19 14 43 21 74 22
25 1 57 5 71 9 37 12 73 11 109 -1z m-1365 -105 c12 -5 16 -20 16 -63 0 -60
-13 -80 -70 -111 -34 -18 -41 -1 -30 68 18 108 32 126 84 106z m495 -157 c19
-7 36 -17 38 -24 6 -17 -42 -39 -112 -52 -73 -14 -261 -14 -227 -1 12 5 22 14
22 20 0 5 17 10 38 10 21 0 47 6 58 14 19 14 19 15 -1 22 -19 8 -18 9 5 15 40
11 142 9 179 -4z m3501 -37 c249 -18 545 -71 578 -104 11 -10 11 -15 0 -24
-10 -8 -39 -2 -113 23 -117 40 -271 69 -451 86 -211 19 -628 0 -794 -37 -16
-3 -21 -2 -15 4 14 13 226 44 360 52 171 11 278 11 435 0z m-54 -155 c96 -17
137 -37 132 -63 -16 -81 -512 -98 -590 -20 -25 25 -20 39 23 60 74 37 289 48
435 23z m-4902 -34 c-5 -5 -40 -19 -79 -30 -99 -30 -275 -118 -275 -136 0 -9
12 -20 26 -25 22 -9 202 -25 531 -47 51 -3 90 -9 88 -13 -3 -4 -26 -5 -52 -2
-81 8 -43 -5 47 -17 85 -12 698 -52 755 -50 60 3 -58 17 -200 24 -77 5 -192
14 -255 21 l-115 13 115 -5 c63 -2 207 -11 320 -19 113 -7 288 -19 390 -25
296 -17 464 -34 408 -40 -54 -7 -76 -20 -32 -20 16 0 155 -9 309 -20 154 -11
395 -27 535 -35 140 -8 273 -17 295 -20 22 -3 136 -10 255 -15 118 -6 249 -12
290 -15 48 -4 68 -2 55 4 -11 4 -76 12 -145 17 -69 4 -117 9 -108 11 38 9 964
-58 946 -68 -7 -3 -38 -3 -68 1 -73 11 -172 11 -145 1 21 -9 235 -25 539 -42
185 -10 255 -7 139 6 -32 4 -62 8 -68 10 -21 8 351 -7 545 -22 262 -20 540
-22 597 -5 23 7 77 36 119 65 207 141 475 314 444 286 -23 -20 -28 -28 -15
-24 37 12 56 14 50 4 -13 -20 15 -7 81 40 114 79 119 102 26 108 -146 8 -266
23 -276 33 -8 8 -7 10 4 6 8 -3 82 -10 164 -15 149 -10 196 -23 196 -55 0 -22
-630 -460 -700 -487 l-45 -17 -8 -108 c-4 -60 -9 -115 -12 -122 -2 -6 -19 -12
-38 -12 -31 0 -33 2 -31 28 2 15 5 66 7 115 l5 87 -119 0 c-65 0 -210 7 -321
14 -112 8 -284 20 -383 26 -99 6 -317 20 -485 31 -168 10 -417 26 -555 34
-137 8 -344 21 -460 30 -115 8 -347 23 -515 34 -168 11 -336 23 -375 26 -38 3
-270 19 -515 35 -245 17 -508 35 -585 40 -77 6 -234 17 -350 25 -115 8 -309
21 -430 30 -120 8 -356 20 -523 25 -167 6 -308 11 -315 13 -15 3 -21 -101 -10
-157 l8 -38 60 -4 c33 -2 94 -9 135 -14 41 -6 122 -17 180 -25 l105 -13 -125
4 c-216 9 -414 23 -453 34 -57 17 -65 38 -69 177 -4 143 -10 133 121 181 47
18 149 56 226 86 131 50 162 58 139 37z m3852 -32 c-60 -71 -19 -134 132 -199
204 -88 456 -114 962 -98 322 9 569 73 655 168 31 34 26 92 -10 131 -22 24
-25 29 -9 21 11 -6 26 -18 34 -26 7 -9 19 -16 26 -16 8 0 14 -10 14 -22 0 -12
16 -36 35 -54 27 -25 35 -39 35 -67 0 -20 -4 -38 -9 -41 -4 -3 -6 5 -4 17 3
14 -6 32 -23 50 l-26 29 -42 -41 c-83 -81 -277 -141 -556 -171 -52 -6 -114
-13 -138 -16 l-43 -5 3 -42 c3 -39 5 -42 38 -48 22 -4 3 -7 -55 -8 l-90 -1 2
50 1 50 -66 0 c-80 0 -274 15 -392 30 -271 35 -477 117 -525 210 -19 36 -8 67
35 103 42 36 48 34 16 -4z m-762 -175 c24 -9 20 -27 -13 -58 -27 -26 -31 -27
-105 -20 -91 8 -106 24 -60 61 24 19 41 23 96 23 36 0 73 -3 82 -6z m-1936
-426 c32 -16 52 -34 65 -59 16 -33 16 -39 2 -71 -8 -20 -39 -58 -70 -85 -55
-50 -60 -63 -21 -63 36 0 83 -36 102 -79 29 -62 49 -54 78 32 9 27 37 98 63
158 42 101 49 110 70 106 13 -2 31 2 40 9 10 7 26 14 36 14 9 0 17 5 17 10 0
6 5 10 10 10 6 0 10 -9 10 -20 0 -11 4 -28 9 -38 5 -9 15 -55 21 -102 19 -132
27 -160 51 -160 15 0 19 -5 16 -15 -4 -8 -2 -17 2 -20 5 -2 14 16 20 41 38
150 176 276 285 260 75 -12 104 -65 80 -146 -9 -31 -19 -48 -26 -44 -5 4 -13
1 -17 -5 -13 -21 -40 0 -47 35 -8 45 -33 45 -79 -1 -47 -47 -76 -107 -82 -169
-4 -43 -1 -56 18 -80 19 -24 27 -28 60 -23 20 3 64 23 98 46 34 23 61 40 61
37 0 -3 -4 -16 -10 -30 -12 -34 8 -35 38 -3 16 17 26 57 46 174 28 167 42 209
62 192 9 -7 15 -5 22 7 6 10 16 15 26 11 9 -4 16 -2 16 3 0 18 15 10 26 -15 9
-18 8 -40 -2 -91 -8 -37 -13 -68 -11 -70 2 -2 41 29 87 69 104 89 147 120 158
113 5 -3 20 6 32 19 13 14 28 25 34 25 5 0 -4 -15 -22 -33 -36 -37 -41 -53
-13 -37 27 14 36 13 22 -4 -6 -7 -9 -20 -6 -28 5 -14 -34 -56 -115 -122 -19
-16 -54 -46 -78 -68 l-43 -39 97 -120 c53 -66 99 -118 101 -115 2 2 -1 13 -8
23 -12 20 -4 102 8 89 3 -3 12 -1 20 5 7 6 13 8 13 4 0 -4 6 -3 13 3 10 9 16
4 26 -23 8 -23 21 -37 37 -41 58 -15 149 22 149 61 0 12 -30 33 -95 66 -111
58 -138 81 -146 124 -11 60 38 120 138 171 119 60 228 31 228 -61 0 -29 -28
-90 -37 -81 -3 3 -12 -2 -19 -12 -13 -16 -13 -16 -14 0 0 11 -5 15 -15 12 -11
-5 -15 1 -15 25 0 36 -11 38 -70 15 -41 -17 -69 -50 -53 -64 4 -4 41 -25 82
-46 41 -22 94 -57 118 -80 35 -33 43 -47 43 -77 0 -41 -42 -97 -93 -124 -77
-39 -229 -82 -204 -56 7 6 -84 53 -92 47 -2 -1 18 -30 44 -63 25 -34 44 -61
42 -61 -2 0 -28 18 -57 40 -57 43 -85 53 -55 20 26 -28 13 -34 -19 -9 -22 17
-36 20 -74 16 -42 -5 -44 -5 -19 5 33 14 35 31 4 51 -12 8 -56 53 -97 100
l-75 85 -12 -41 c-7 -23 -15 -65 -19 -94 -3 -29 -11 -56 -17 -60 -6 -4 -8 2
-5 15 4 12 3 22 -2 22 -8 0 -25 -40 -33 -75 -3 -11 -5 -5 -6 15 -1 19 -6 42
-11 50 -9 13 -11 13 -21 0 -8 -11 -9 4 -6 58 l4 74 -66 -65 c-68 -66 -127
-107 -153 -107 -25 0 -102 38 -130 63 -21 19 -44 69 -64 136 -4 13 -7 13 -19
0 -12 -12 -12 -25 1 -89 17 -89 17 -89 3 -70 -8 11 -9 1 -6 -40 l5 -55 -19 45
c-14 31 -22 41 -28 31 -6 -10 -11 -6 -19 15 -7 21 -11 24 -11 10 -2 -33 -14
-9 -31 62 -19 75 -17 75 -122 51 -46 -11 -47 -12 -69 -74 -14 -38 -28 -61 -35
-58 -6 2 -18 -10 -25 -26 -18 -39 -25 -39 -33 1 -6 30 -7 31 -21 12 -19 -25
-19 -10 1 56 11 38 13 55 5 58 -6 2 -8 9 -5 15 4 7 -17 -11 -47 -40 -30 -28
-85 -72 -124 -97 -38 -25 -63 -46 -55 -47 8 0 -16 -16 -54 -35 -76 -37 -80
-39 -71 -24 3 6 -1 10 -9 10 -9 0 -18 -12 -22 -27 -10 -46 -12 -49 -13 -19 -1
24 -3 27 -16 16 -10 -8 -15 -33 -16 -74 l-2 -61 -10 58 c-11 59 -22 73 -30 35
l-4 -23 -8 23 c-4 12 -8 22 -9 22 -1 0 -16 -4 -34 -9 -20 -6 -32 -6 -32 0 0 5
5 9 10 9 6 0 10 5 10 10 0 6 -9 10 -20 10 -25 0 -25 9 -2 26 14 11 15 15 3 23
-11 7 -4 14 28 30 23 12 44 27 46 34 2 7 5 58 8 115 3 81 1 102 -10 102 -12 0
-18 25 -14 58 1 6 -4 12 -11 12 -7 0 1 9 19 21 25 16 34 31 42 70 6 28 11 65
11 84 l0 34 -57 -24 c-32 -13 -62 -20 -67 -17 -6 3 -5 7 2 10 20 6 14 32 -8
32 -10 0 -42 -9 -70 -20 -75 -29 -74 -24 3 16 37 19 67 39 67 45 0 5 -4 7 -10
4 -21 -13 -9 13 13 27 36 24 155 69 221 84 87 20 204 12 264 -18z m-1419 -263
c6 -77 16 -192 21 -254 19 -217 39 -466 45 -571 3 -58 8 -116 11 -130 4 -16 2
-21 -4 -15 -5 6 -15 60 -21 120 -27 264 -82 997 -80 1059 2 52 16 -54 28 -209z
m3891 208 c0 -4 7 -57 15 -118 9 -60 18 -129 21 -152 4 -33 9 -42 27 -45 15
-2 21 -9 19 -20 -6 -36 16 -16 33 30 53 140 200 262 317 262 65 0 95 -14 114
-52 14 -31 14 -37 -3 -83 -14 -36 -24 -49 -36 -47 -9 2 -17 -2 -17 -8 0 -6 -7
-6 -20 2 -12 8 -20 24 -20 40 0 71 -119 2 -192 -111 -51 -80 -32 -181 33 -181
44 0 129 47 129 72 0 4 -20 8 -45 8 -33 0 -45 4 -46 15 -4 67 -4 69 30 76 17
4 75 10 128 14 l95 7 -5 -33 c-3 -19 -18 -72 -35 -119 -16 -47 -38 -112 -47
-145 -14 -46 -20 -55 -26 -40 -6 17 -9 15 -23 -17 -9 -21 -16 -44 -16 -53 0
-8 -4 -15 -9 -15 -5 0 -6 20 -3 45 5 45 -11 64 -22 28 -3 -10 -4 6 -2 35 2 28
2 52 1 52 -1 0 -23 -11 -49 -25 -54 -29 -71 -30 -119 -10 -74 31 -127 97 -127
160 0 20 -5 25 -23 25 -23 0 -24 -1 -15 -62 4 -35 11 -71 14 -80 3 -10 1 -18
-5 -18 -5 0 -12 8 -15 18 -3 9 -4 -9 -1 -40 4 -63 -9 -79 -19 -23 -4 22 -11
32 -20 29 -7 -3 -18 5 -24 18 -6 13 -11 17 -11 11 -1 -7 -5 -13 -10 -13 -5 0
-12 21 -16 48 -14 100 -9 95 -84 87 -36 -3 -74 -9 -84 -11 -9 -3 -33 -36 -52
-72 -19 -37 -34 -61 -35 -54 -1 26 -21 10 -45 -35 -22 -41 -25 -43 -20 -18 5
32 -12 71 -22 48 -2 -7 -8 -13 -13 -13 -5 0 2 26 15 58 18 43 21 59 12 67 -16
13 -20 55 -6 55 8 0 8 4 0 14 -13 15 4 26 38 26 16 0 41 43 139 242 2 4 -9 6
-25 3 -15 -2 -65 -9 -109 -16 l-81 -11 -16 -57 c-8 -31 -25 -99 -37 -151 -36
-153 -58 -228 -59 -197 -1 41 -13 33 -44 -31 l-28 -57 6 51 c4 33 3 54 -4 59
-6 3 -11 1 -11 -4 0 -6 -5 -11 -11 -11 -7 0 -9 15 -4 43 8 57 55 297 62 321 6
20 15 20 -119 -1 -35 -5 -40 -4 -35 9 3 9 1 20 -5 26 -8 8 -8 15 1 26 9 11 9
15 -1 19 -10 4 -10 8 3 21 10 11 47 20 105 28 49 6 95 16 101 21 17 12 256 19
285 8 l23 -9 -24 -9 c-22 -9 -23 -10 -5 -17 18 -7 17 -8 -6 -21 -25 -14 -25
-14 15 -15 36 0 42 4 59 35 14 26 24 34 38 29 18 -5 84 13 103 28 11 10 25 10
25 1z m1100 -102 c4 -7 19 -13 33 -15 42 -4 42 -13 0 -20 -56 -10 -73 -16 -73
-27 0 -5 8 -9 18 -10 38 -1 -26 -17 -94 -23 -178 -16 -171 -15 -177 -44 -3
-15 -9 -35 -13 -45 -6 -17 -1 -18 57 -17 35 1 80 1 99 0 32 -1 33 -2 15 -12
-19 -12 -19 -12 5 -19 25 -6 25 -7 -8 -19 -21 -8 -30 -15 -22 -20 18 -11 -9
-18 -103 -26 l-85 -7 -12 -41 c-6 -22 -11 -45 -11 -50 1 -5 70 -8 154 -7 88 1
158 -3 167 -9 11 -7 7 -10 -20 -10 -64 -1 -10 -20 60 -21 70 -2 62 -4 -44 -14
-66 -7 -77 -19 -26 -28 20 -3 18 -5 -10 -6 -41 -3 -316 -30 -344 -34 -11 -2
-23 -12 -27 -23 -6 -16 -8 -16 -8 -2 -1 11 -11 18 -33 20 -22 2 -32 9 -35 23
-13 70 -12 74 10 77 16 2 25 16 38 58 13 41 14 57 6 65 -19 16 -9 73 14 80 20
7 30 25 43 78 5 22 3 27 -13 27 -24 0 -36 16 -20 26 8 4 7 9 -2 16 -11 7 -11
11 -1 15 6 2 12 13 12 23 0 29 55 44 190 51 160 8 251 4 260 -10z m-2641 -566
c33 -10 69 -31 89 -51 l34 -34 -19 -32 c-13 -23 -45 -46 -103 -77 -59 -32 -79
-47 -65 -49 61 -10 127 -35 154 -58 24 -20 31 -34 31 -62 0 -31 -8 -44 -53
-87 -60 -56 -109 -83 -241 -131 -60 -22 -77 -32 -51 -28 64 11 37 -2 -67 -30
-54 -15 -106 -29 -115 -32 -10 -2 0 4 22 15 35 18 36 20 10 14 -95 -20 -109
-27 -122 -68 l-11 -40 -1 38 c-1 35 -2 36 -21 25 -11 -7 -23 -28 -26 -48 -16
-99 -23 -114 -18 -37 5 72 3 78 -13 75 -10 -2 -20 -14 -22 -28 l-4 -25 -7 25
c-7 26 -14 27 -75 16 -28 -5 -29 -5 -11 9 13 9 42 15 80 15 34 0 81 7 106 16
25 9 108 34 184 55 134 38 300 98 293 106 -2 2 -34 -8 -70 -22 -38 -14 -67
-20 -67 -14 0 5 -4 8 -9 4 -5 -3 -13 -1 -16 5 -4 6 -16 8 -27 4 -11 -3 -31 -1
-43 6 -19 10 -37 8 -108 -14 -47 -14 -89 -26 -95 -26 -5 0 -1 17 9 37 19 38
28 92 10 64 -6 -10 -20 -12 -47 -8 -22 4 -44 3 -50 -1 -15 -10 -28 -96 -13
-86 7 4 10 1 7 -7 -3 -8 -33 -22 -68 -31 -65 -18 -86 -28 -57 -28 9 0 17 -5
17 -11 0 -5 -4 -7 -10 -4 -5 3 -10 1 -10 -4 0 -6 5 -11 11 -11 5 0 8 -4 5 -8
-3 -4 -22 -6 -43 -4 -33 4 -35 6 -15 13 24 9 30 29 10 29 -22 1 23 22 70 34
l45 12 24 89 c12 50 25 100 29 113 5 18 2 22 -17 23 -23 0 -23 1 -4 9 17 7 17
9 3 9 -10 1 -18 5 -18 10 0 5 8 12 18 16 16 7 15 8 -3 15 -20 8 -15 12 50 34
6 2 23 39 38 81 l27 78 -37 -7 c-53 -10 -122 -16 -100 -10 23 7 22 20 -4 27
-21 6 -21 7 7 32 l29 25 -30 -6 c-29 -6 -29 -5 -10 9 11 8 63 24 115 36 123
26 402 24 489 -4z m871 -4 c41 4 111 8 155 7 l80 0 -50 -13 c-43 -11 -46 -13
-20 -15 30 -2 30 -2 5 -10 -39 -12 40 -12 215 1 104 8 161 8 185 1 26 -7 29
-10 13 -11 -36 -2 -27 -21 10 -22 29 -1 27 -3 -23 -19 -42 -14 -49 -18 -27
-19 57 -2 24 -19 -50 -25 -187 -16 -182 -15 -204 -57 -10 -21 -19 -41 -19 -45
0 -4 39 -4 88 -1 48 4 96 2 107 -3 19 -8 19 -9 -3 -9 -29 -1 -19 -21 11 -22
20 -1 21 -2 2 -6 -11 -3 -31 -10 -45 -16 l-25 -10 25 -7 c18 -5 2 -9 -55 -14
-147 -13 -149 -14 -161 -49 -6 -18 -14 -40 -19 -49 -8 -21 3 -21 175 -9 58 4
130 4 160 0 45 -5 48 -6 18 -8 -80 -3 -26 -29 66 -32 24 -1 7 -5 -39 -9 -44
-4 -93 -11 -109 -15 -21 -6 -27 -5 -22 4 4 6 16 11 27 11 10 0 19 5 19 10 0 6
-12 10 -26 10 -14 0 -23 4 -19 10 7 11 -44 12 -178 2 -49 -4 -90 -6 -92 -4 -2
2 1 17 5 33 8 26 6 31 -13 38 -12 5 -25 7 -29 4 -5 -2 -8 1 -8 6 0 6 -6 11
-14 11 -14 0 -36 -49 -36 -81 0 -21 -53 -52 -78 -46 -11 2 -5 7 17 13 29 8 37
17 52 59 22 63 23 79 5 72 -15 -6 -17 27 -2 51 5 8 1 10 -11 7 -10 -3 1 4 24
15 34 17 45 28 54 61 10 33 10 42 0 49 -8 4 -10 13 -7 19 4 6 2 11 -4 11 -6 0
-8 5 -4 11 4 8 -3 9 -22 6 -16 -3 -59 -9 -95 -12 l-67 -6 -62 -167 c-79 -208
-109 -281 -109 -262 0 8 7 33 15 55 9 22 23 65 33 96 l18 56 -56 0 -56 -1 -22
-55 c-13 -30 -23 -62 -23 -70 -1 -20 -38 -100 -39 -84 -1 7 24 86 55 175 79
232 78 228 73 233 -3 2 -34 0 -70 -5 -146 -22 -136 -22 -116 -7 15 13 16 16 2
27 -14 12 -14 15 2 32 15 16 15 21 3 28 -22 14 23 27 141 40 57 7 109 16 114
20 14 11 58 17 70 9 6 -3 44 -2 85 2z m1010 -19 c19 -9 37 -26 39 -37 2 -11 8
-23 14 -27 18 -11 -28 -99 -48 -92 -10 4 -18 -2 -23 -17 l-9 -23 -6 24 c-5 19
-9 21 -21 11 -12 -10 -15 -7 -18 21 -4 41 -21 45 -92 23 -66 -21 -116 -58
-100 -75 6 -6 59 -29 117 -50 134 -50 221 -93 241 -122 18 -25 21 -74 6 -83
-5 -3 -10 -15 -10 -26 0 -10 -6 -19 -12 -19 -7 0 -22 -8 -33 -16 -19 -15 -15
-15 45 -9 36 3 77 8 93 11 15 3 27 1 27 -4 0 -5 -48 -14 -107 -20 -93 -11
-126 -20 -236 -66 -70 -29 -127 -57 -127 -62 1 -4 -31 -20 -72 -36 -83 -32
-81 -32 -72 -17 9 16 -20 6 -156 -52 -130 -55 -163 -58 -46 -3 43 19 75 38 72
41 -3 3 -80 -21 -171 -52 -91 -32 -168 -55 -171 -52 -3 3 16 13 43 22 26 10
73 28 103 40 95 39 199 67 221 60 16 -5 19 -4 14 5 -6 10 -2 11 16 7 26 -7
178 42 324 104 l80 34 -50 6 c-27 3 -64 12 -82 18 -24 10 -37 10 -54 1 -12 -7
-79 -36 -148 -65 -69 -29 -144 -61 -166 -70 -71 -30 -23 0 60 37 387 175 435
200 435 223 0 18 -48 42 -165 84 -202 71 -239 126 -148 215 99 96 304 153 393
108z m-1488 -21 c2 6 9 0 16 -13 12 -21 9 -37 -22 -124 -19 -54 -49 -142 -67
-194 -39 -116 -60 -172 -70 -184 -10 -12 5 47 30 118 12 33 21 62 21 66 0 4
-20 7 -45 6 -25 -1 -45 2 -45 6 0 4 -3 8 -8 8 -11 0 -32 -54 -53 -137 -11 -42
-21 -79 -24 -81 -14 -14 -1 52 31 161 82 281 119 381 133 358 9 -13 57 -6 67
11 3 5 11 5 19 -2 9 -8 14 -8 17 1z m-2081 -58 c6 -6 9 -23 7 -39 -4 -35 -22
-39 -115 -29 l-63 7 0 37 c0 21 2 40 4 42 9 9 157 -8 167 -18z m-248 -97 c4
-6 6 -24 5 -41 -3 -28 -6 -30 -50 -33 -26 -2 -65 2 -87 8 -37 10 -41 14 -41
44 0 18 3 36 7 40 11 11 157 -5 166 -18z m235 -12 c17 -5 22 -14 22 -40 0 -29
-5 -36 -32 -48 -25 -11 -28 -15 -12 -15 28 -1 44 -20 44 -53 0 -37 -15 -42
-102 -31 l-73 8 -3 38 -3 37 48 1 48 0 -45 17 c-41 16 -45 21 -48 55 l-3 37
68 0 c37 0 78 -3 91 -6z m-244 -90 c11 -4 16 -19 16 -47 l0 -40 -82 7 c-44 4
-85 9 -90 12 -4 3 -8 21 -8 40 l0 34 74 0 c41 0 81 -3 90 -6z m4939 -60 c35
-6 37 -8 37 -45 l0 -39 -57 0 c-32 0 -75 3 -95 6 -35 6 -38 9 -38 39 0 17 3
35 7 38 8 9 96 9 146 1z m-25 -121 c57 -6 68 -17 58 -58 -6 -22 -12 -25 -50
-25 -24 0 -64 3 -90 6 -44 6 -46 8 -46 39 0 17 3 35 7 38 8 9 52 9 121 0z
m-2406 -99 l-18 -49 340 -2 c188 -1 357 -6 376 -11 23 -6 -49 -8 -215 -5 -428
9 -865 -21 -1114 -77 -92 -20 -161 -45 -96 -35 133 22 503 67 614 74 75 5 287
9 471 9 l335 -1 -235 -13 c-267 -14 -450 -34 -594 -64 -95 -19 -135 -20 -85
-2 42 16 244 53 336 62 75 8 65 8 -67 5 -168 -5 -410 -30 -656 -70 -85 -14
-171 -25 -192 -25 -31 0 -34 2 -22 14 41 40 376 103 635 121 154 10 151 9 169
62 9 26 16 60 17 77 l1 31 9 -26 c7 -20 5 -39 -9 -75z m-2979 27 c-11 -42 67
-61 307 -76 52 -3 131 -13 175 -20 109 -19 228 -31 625 -60 328 -25 409 -32
365 -34 -22 0 -103 4 -180 9 -372 26 -945 59 -1070 62 -139 3 -140 3 -143 -19
-5 -35 -41 -30 -48 6 -5 22 -15 33 -43 44 -42 17 -49 10 -50 -57 -1 -66 -19
-28 -22 45 -3 76 2 86 45 105 41 18 45 17 39 -5z m6657 -22 c9 -15 1 -23 -52
-52 -35 -19 -186 -103 -336 -186 -151 -83 -299 -160 -330 -171 -31 -10 -56
-24 -55 -30 2 -5 -2 -10 -7 -10 -5 0 -9 -3 -9 -7 1 -5 1 -19 0 -33 -1 -20 -3
-22 -11 -10 -9 13 -11 13 -20 0 -7 -11 -10 -6 -10 20 l0 36 -287 17 c-1055 64
-1270 78 -1283 81 -35 8 64 5 375 -14 834 -50 891 -53 1069 -42 94 5 185 8
202 5 22 -3 53 5 105 29 74 35 219 123 219 134 0 3 -6 2 -12 -2 -7 -4 -11 -5
-8 -1 3 3 30 19 60 35 30 16 88 48 128 70 40 22 69 36 66 30 -14 -22 119 38
171 78 19 14 19 16 3 28 -22 16 -23 27 -3 20 9 -4 20 -15 25 -25z m-1480 -8
c21 -6 25 -13 25 -41 0 -34 -1 -35 -45 -38 -25 -1 -65 1 -90 6 -36 6 -46 12
-48 30 -7 45 3 52 70 51 35 -1 74 -4 88 -8z m258 -23 c20 -20 15 -66 -8 -73
-31 -10 -158 6 -171 21 -6 8 -8 25 -5 39 6 24 9 25 89 25 51 0 88 -5 95 -12z"/>
<path d="M204 2235 c-7 -29 5 -193 14 -199 4 -2 22 -7 40 -11 l32 -7 0 89 c0
113 -5 129 -42 142 -40 14 -37 15 -44 -14z"/>
<path d="M1625 1494 c-11 -3 -30 -7 -42 -9 -22 -5 -24 -14 -50 -189 l-5 -38
63 35 c135 76 202 159 150 186 -23 13 -89 21 -116 15z"/>
<path d="M2469 1053 c-15 -4 -74 -133 -61 -133 4 0 41 11 82 25 93 32 185 77
184 90 -2 19 -154 32 -205 18z"/>
<path d="M2440 813 c-78 -8 -76 -6 -111 -113 -18 -54 -31 -102 -28 -105 9 -8
185 53 272 94 97 47 133 76 117 96 -21 25 -145 39 -250 28z"/>
</g>
</svg>
