<?xml version="1.0" standalone="no"?>
<!DOCTYPE svg PUBLIC "-//W3C//DTD SVG 20010904//EN"
 "http://www.w3.org/TR/2001/REC-SVG-20010904/DTD/svg10.dtd">
<svg version="1.0" xmlns="http://www.w3.org/2000/svg"
 width="720.000000pt" height="544.000000pt" viewBox="0 0 720.000000 544.000000"
 preserveAspectRatio="xMidYMid meet">
<metadata>
Created by potrace 1.16, written by Peter Selinger 2001-2019
</metadata>
<g transform="translate(0.000000,544.000000) scale(0.100000,-0.100000)"
fill="#000000" stroke="none">
<path d="M3195 5180 c-356 -35 -663 -238 -814 -538 -20 -40 -31 -75 -29 -96 1
-24 -7 -47 -27 -75 -37 -54 -45 -128 -20 -175 16 -29 17 -42 8 -99 -7 -38 -22
-81 -37 -103 -62 -95 -63 -184 -4 -342 56 -149 147 -215 371 -266 85 -20 101
-20 87 -3 -126 150 -199 284 -241 442 -34 128 -34 319 0 458 21 88 30 105 86
180 114 151 255 267 392 322 133 54 371 61 486 14 l28 -12 -25 -26 c-24 -25
-87 -141 -86 -158 1 -4 15 19 33 53 42 79 77 124 97 124 36 0 168 -91 238
-164 l72 -76 0 -64 c0 -36 5 -77 11 -93 7 -17 12 -99 13 -204 l1 -176 -18 66
c-23 83 -78 178 -124 214 -29 22 -47 27 -89 27 -83 0 -213 -52 -354 -142 -83
-52 -231 -113 -339 -139 -72 -18 -104 -20 -210 -14 -153 7 -182 1 -197 -45
-11 -32 -4 -98 15 -145 5 -11 21 -54 36 -95 51 -140 70 -172 153 -252 90 -88
144 -117 217 -118 42 0 60 7 110 40 104 69 150 82 330 90 166 7 207 16 310 67
129 64 177 161 170 341 l-4 77 15 -40 c44 -116 70 -240 52 -251 -16 -10 -38
-63 -29 -69 6 -3 18 11 27 30 l17 36 22 -23 c39 -41 21 -65 -150 -198 -159
-124 -363 -215 -508 -226 -45 -4 -84 -7 -87 -7 -33 -4 -280 33 -302 45 -10 5
-18 5 -18 0 0 -5 18 -16 40 -25 29 -11 40 -21 40 -36 0 -25 -5 -25 -60 -6 -23
8 -46 13 -50 10 -4 -3 -22 2 -39 11 -43 21 -41 57 4 82 20 11 19 11 -2 12 -17
0 -27 -11 -43 -46 -11 -26 -20 -55 -20 -65 0 -10 -12 -30 -27 -44 l-28 -25 31
0 c16 0 40 -9 52 -20 12 -11 27 -21 34 -22 7 0 -7 -4 -32 -8 -41 -6 -39 -7 28
-8 61 -2 72 -5 72 -19 0 -10 7 -27 15 -37 21 -28 19 -32 -21 -34 -55 -4 -110
-36 -122 -71 -12 -34 -34 -59 -73 -83 l-27 -17 -5 35 c-8 46 -110 164 -142
164 -39 0 -85 -12 -85 -22 0 -6 17 -25 37 -44 35 -32 36 -36 27 -71 l-9 -38
-62 0 c-35 0 -65 5 -67 10 -3 6 -5 2 -5 -8 -2 -32 23 -44 102 -51 42 -4 77
-12 77 -18 0 -6 -7 -8 -15 -4 -8 3 -46 8 -83 12 -37 4 -72 11 -79 16 -7 5 -16
7 -21 5 -23 -15 -35 14 -38 87 -2 58 -8 84 -24 106 -26 37 -70 71 -81 65 -4
-3 -37 9 -71 26 -72 37 -127 42 -243 21 -38 -7 -98 -16 -133 -19 -49 -4 -65
-10 -73 -26 -8 -14 -8 -18 0 -13 28 18 230 39 283 30 75 -12 110 -94 71 -163
-21 -36 -37 -38 -78 -11 -23 15 -40 19 -71 14 -31 -4 -52 -1 -82 15 -23 12
-54 22 -69 22 -17 1 -21 3 -10 6 18 5 24 23 6 23 -6 0 -19 -5 -31 -11 -30 -16
-71 -3 -65 21 7 27 -7 25 -30 -3 -10 -12 -44 -44 -75 -70 -38 -33 -62 -63 -73
-91 -15 -40 -15 -46 0 -81 18 -45 14 -65 -13 -65 -11 0 -54 -11 -96 -25 -94
-31 -96 -31 -96 -2 0 34 -19 47 -66 47 -67 0 -74 -6 -74 -61 l0 -48 -73 1
c-93 1 -134 -18 -139 -64 -2 -25 -9 -33 -33 -41 -29 -9 -240 -89 -520 -198
-72 -28 -141 -61 -154 -74 -24 -23 -24 -24 -15 -162 l9 -138 32 -20 c25 -16
33 -29 37 -60 3 -22 26 -294 51 -605 25 -311 48 -597 51 -635 l6 -71 -40 -18
c-23 -10 -51 -29 -63 -42 -19 -21 -21 -31 -17 -96 9 -119 32 -130 323 -153
105 -8 296 -22 425 -30 674 -45 2041 -139 2385 -165 143 -11 539 -40 880 -65
341 -25 670 -49 731 -55 60 -5 397 -10 747 -10 l638 0 127 73 c254 147 507
299 521 312 9 9 16 43 19 93 l4 79 -37 30 -38 31 12 129 c16 187 48 625 70
961 l19 292 30 28 c28 26 30 32 36 142 12 204 12 208 -14 235 -30 32 -75 40
-350 60 -124 9 -249 18 -277 22 l-53 5 0 57 c0 80 -15 103 -75 118 -37 10 -63
10 -100 2 -70 -14 -67 -15 -188 10 -104 20 -378 51 -457 51 -32 0 -44 8 -90
55 -46 50 -51 59 -43 83 4 15 7 84 5 154 -1 98 -6 136 -21 171 -35 81 -135
139 -234 136 -39 -2 -52 2 -75 24 -34 33 -155 89 -255 118 l-77 23 0 40 c0 59
-33 117 -109 188 -70 67 -128 100 -213 122 -101 25 -239 -18 -314 -99 -40 -43
-44 -45 -100 -45 -33 0 -69 -3 -81 -6 -35 -10 -26 7 33 59 46 40 60 47 97 47
47 0 74 14 163 86 79 63 108 99 141 170 51 112 37 295 -31 402 -29 46 -114
113 -178 141 -56 24 -82 59 -76 101 7 47 -38 118 -128 203 -107 100 -194 155
-334 210 -164 65 -303 84 -485 67z m929 -516 c3 -9 6 -27 6 -41 0 -15 3 -24 6
-20 3 3 32 -5 63 -19 61 -27 94 -51 44 -32 -24 9 -41 9 -71 0 -84 -25 -118
-118 -109 -299 5 -98 6 -105 53 -194 55 -104 93 -141 124 -121 11 7 37 12 57
12 l38 -1 -40 -35 c-40 -36 -133 -84 -161 -84 -12 0 -13 4 -4 20 7 13 21 20
43 21 31 1 31 1 -12 16 -72 25 -113 78 -145 183 -26 84 -28 100 -24 223 4 141
18 191 73 263 24 32 24 33 5 39 -11 3 -20 11 -20 16 0 5 -9 9 -20 9 -32 0 -23
14 23 37 51 26 63 28 71 7z m296 -303 c39 -132 23 -277 -38 -343 -31 -33 -38
-34 -52 -8 -8 16 -8 18 4 14 33 -13 94 186 80 264 -9 48 -17 64 -76 140 -42
54 -47 66 -36 79 11 14 18 10 55 -32 31 -33 48 -65 63 -114z m-2016 -102 c-40
-44 -64 -224 -45 -335 22 -125 97 -273 173 -340 18 -16 40 -38 48 -49 14 -17
13 -18 -15 -11 -141 35 -208 131 -252 361 -17 91 -13 166 16 266 12 41 15 72
10 80 -5 8 -9 22 -9 32 0 14 8 17 44 15 40 -3 43 -5 30 -19z m1102 -137 c6 -4
15 -32 20 -62 10 -58 22 -67 59 -43 11 7 31 13 46 13 21 0 28 -6 32 -27 15
-72 19 -90 29 -110 12 -25 -3 -53 -29 -53 -8 0 -47 -16 -85 -35 -39 -19 -87
-37 -107 -41 -20 -3 -51 -12 -69 -21 -41 -18 -62 -11 -62 21 0 14 -9 40 -20
58 -23 38 -26 64 -7 71 7 3 5 6 -5 6 -10 1 -18 6 -18 11 0 9 30 13 91 13 l26
-1 -15 47 c-8 25 -19 54 -23 63 -21 42 -6 58 76 84 49 15 48 15 61 6z m-671
-223 c9 -27 -2 -37 -45 -42 -30 -3 -28 -4 13 -5 32 -1 47 -6 47 -15 0 -10 14
-14 46 -13 37 1 49 -3 64 -24 11 -14 22 -37 25 -52 4 -15 16 -39 27 -54 34
-43 16 -56 -103 -75 -126 -21 -171 -14 -194 31 -24 46 -54 150 -44 151 5 1 14
3 19 4 6 1 15 3 21 4 6 0 9 8 6 16 -4 8 -1 17 5 21 7 4 5 10 -6 16 -16 9 -22
39 -9 51 3 4 32 7 64 7 50 0 59 -3 64 -21z m1699 -89 c69 -23 128 -64 184
-125 43 -45 79 -112 68 -123 -3 -3 -6 0 -6 6 0 6 -16 23 -36 38 -33 25 -37 26
-46 11 -5 -9 -16 -17 -24 -17 -54 0 -173 -98 -229 -188 -14 -24 -29 -41 -32
-38 -4 3 1 14 9 23 38 44 33 58 -40 108 -38 25 -80 57 -92 70 -19 21 -33 25
-77 25 -61 0 -63 -5 -33 -72 20 -46 50 -83 90 -111 13 -9 19 -17 12 -17 -20 0
-92 71 -113 111 -12 25 -19 59 -19 97 0 83 30 137 100 179 93 56 170 63 284
23z m-517 -288 c-25 -145 28 -320 126 -422 25 -25 33 -38 20 -32 -12 7 -24 16
-27 21 -4 5 -15 7 -26 4 -16 -4 -18 -9 -9 -24 5 -10 7 -19 3 -19 -13 0 -75 74
-105 125 -16 28 -29 46 -29 40 0 -17 70 -127 103 -165 18 -19 28 -31 23 -27
-5 4 -15 2 -23 -5 -10 -8 -17 -8 -25 0 -9 9 -9 12 0 12 7 0 12 6 12 13 0 6
-36 -26 -80 -73 -44 -46 -80 -86 -80 -88 0 -3 -13 -18 -30 -33 -41 -40 -97
-62 -140 -54 -19 3 -82 8 -140 11 -58 3 -106 10 -108 15 -6 14 -22 10 -22 -5
0 -16 -100 -52 -109 -38 -3 5 -18 12 -33 16 -21 5 -30 1 -42 -15 -19 -27 -28
-21 -60 45 -34 69 -56 154 -56 214 0 47 18 102 33 102 4 0 7 9 7 20 0 11 5 29
12 39 11 18 13 18 50 -12 52 -42 136 -49 203 -18 67 31 153 101 240 193 43 46
82 82 87 80 5 -1 7 2 3 7 -3 6 5 15 17 22 21 11 22 11 10 -4 -12 -14 -11 -16
7 -14 11 0 17 5 14 10 -7 12 29 36 46 29 9 -3 12 -1 7 6 -5 8 0 12 13 12 12 0
21 3 21 8 0 4 18 15 40 26 21 10 41 25 45 34 11 30 12 6 2 -56z m881 -68 c99
-34 202 -86 227 -114 l20 -23 -22 12 c-31 16 -89 14 -126 -5 -18 -9 -58 -37
-89 -61 -54 -43 -70 -69 -101 -163 -4 -12 -6 -11 -6 2 -1 11 -26 30 -68 51
-55 28 -146 75 -161 83 -7 4 52 111 82 147 31 39 63 61 121 84 41 16 37 16
123 -13z m-1742 -165 c-40 -32 -62 -87 -54 -139 3 -25 4 -67 1 -95 -10 -110
29 -230 115 -348 45 -63 31 -75 -20 -17 -51 57 -70 95 -99 195 -28 98 -32 278
-7 335 19 45 67 102 79 94 5 -3 -1 -14 -15 -25z m2149 -53 c65 -31 97 -65 136
-150 32 -68 32 -69 20 -144 -6 -42 -14 -78 -17 -81 -8 -8 -44 37 -44 54 0 7
-20 33 -44 58 -31 32 -60 50 -99 63 -31 9 -53 22 -50 27 3 6 -21 8 -63 5 -38
-2 -69 -9 -72 -16 -2 -6 -9 -9 -16 -6 -7 3 -21 -4 -31 -16 -10 -11 -23 -20
-29 -20 -11 0 -99 -121 -92 -127 2 -2 21 5 42 16 60 32 64 25 8 -13 -52 -35
-138 -128 -168 -181 -13 -22 -16 -24 -13 -8 4 19 1 21 -32 17 -60 -9 -81 -14
-80 -22 5 -29 -2 -32 -69 -26 -58 6 -74 3 -110 -15 -23 -12 -42 -24 -42 -26 0
-3 15 2 32 11 52 27 198 22 198 -7 0 -6 -4 -8 -8 -5 -13 8 -49 -28 -56 -56 -5
-24 -3 -28 14 -28 11 0 20 -6 20 -13 0 -19 47 -51 111 -77 30 -12 69 -28 87
-36 18 -8 39 -14 46 -14 8 0 19 -7 26 -15 7 -9 29 -15 50 -15 21 0 74 -7 117
-15 44 -9 153 -17 252 -20 l175 -4 12 -40 c6 -22 9 -43 6 -46 -3 -3 2 -5 11
-5 10 0 17 -4 17 -10 0 -6 32 -11 73 -11 l72 -1 -55 -9 c-61 -10 -339 -14
-348 -5 -3 3 36 6 86 6 l91 0 -15 44 -15 45 -88 -6 c-101 -7 -444 13 -482 28
-14 5 -61 9 -105 7 -69 -3 -76 -5 -54 -15 14 -6 20 -12 13 -12 -20 -1 -100 37
-154 73 -52 35 -79 37 -79 7 0 -36 87 -96 196 -136 156 -57 519 -105 689 -91
44 4 159 8 255 10 245 5 450 47 572 119 62 36 80 60 82 106 0 33 -6 47 -34 77
l-35 37 52 -34 c29 -19 52 -41 52 -50 1 -10 17 -33 36 -52 27 -27 35 -43 35
-70 0 -20 -4 -38 -9 -41 -5 -4 -7 3 -4 13 5 21 -20 66 -43 75 -10 4 -25 -5
-40 -23 -73 -87 -269 -147 -599 -186 -71 -8 -133 -15 -136 -15 -3 0 -6 -19 -5
-42 1 -42 2 -43 41 -49 27 -4 9 -7 -55 -8 l-95 -1 1 49 1 48 -150 7 c-305 14
-535 56 -687 128 -101 47 -160 100 -160 141 0 17 -10 28 -35 40 -19 9 -35 20
-35 24 -1 5 -10 19 -21 32 -19 23 -20 23 -39 6 -16 -15 -30 -16 -85 -10 -45 4
-65 11 -65 20 0 25 38 37 94 30 58 -8 74 2 57 33 -8 14 -5 28 10 56 19 36 19
37 0 27 -11 -6 -22 -24 -26 -41 -4 -16 -10 -30 -15 -30 -4 0 -4 16 0 36 5 22
28 56 62 92 67 71 114 176 130 294 6 46 13 85 14 87 6 7 60 -34 99 -76 32 -35
62 -53 150 -89 155 -64 141 -63 149 -7 3 26 18 84 33 128 30 90 82 155 155
193 61 31 155 30 223 -2z m-3397 -284 c2 -13 -4 -34 -12 -47 -20 -31 -20 -41
-1 -25 16 13 20 3 7 -16 -8 -11 -96 -17 -124 -8 -20 6 -23 35 -7 65 29 55 131
78 137 31z m3401 -19 c55 -27 181 -136 169 -148 -3 -4 -18 1 -33 11 -25 16
-27 16 -50 -6 -22 -21 -25 -21 -47 -6 -31 22 -81 20 -103 -4 -22 -24 -38 -25
-56 -4 -16 19 -84 12 -110 -12 -23 -21 -31 -6 -31 60 -1 135 110 181 261 109z
m-3074 -66 c11 -74 4 -99 -32 -111 -44 -15 -49 -23 -28 -46 15 -16 15 -20 3
-20 -20 0 -55 40 -63 73 -9 34 12 117 33 135 9 6 30 12 48 12 31 0 33 -2 39
-43z m-606 -15 l23 -19 -19 -39 c-11 -21 -25 -58 -33 -81 -13 -43 -36 -56 -46
-28 -4 8 -12 15 -20 15 -17 0 -37 37 -28 51 3 6 12 8 19 5 13 -5 25 40 25 96
0 43 24 43 79 0z m1132 -8 c54 -16 98 -54 98 -84 0 -8 -13 -33 -29 -55 -17
-22 -33 -48 -36 -57 -4 -11 -16 -18 -30 -18 -36 0 -103 -30 -109 -49 -13 -41
-157 -103 -305 -131 -58 -11 -378 -50 -411 -50 -16 0 -19 -7 -19 -39 0 -39 1
-40 38 -44 20 -2 1 -4 -43 -5 l-80 -2 -2 36 c-1 20 -4 38 -6 41 -3 2 -67 9
-143 14 -180 12 -333 34 -446 63 -93 25 -128 43 -160 87 -25 33 -11 72 34 95
l32 17 -17 -24 c-29 -40 -30 -50 -10 -77 38 -53 142 -90 333 -117 135 -19 356
-20 400 -1 l32 13 -32 7 c-18 3 -55 6 -83 6 -28 0 -48 2 -46 4 2 2 81 6 174 9
94 3 157 2 140 -3 -16 -4 -51 -8 -76 -9 -32 -1 -49 -6 -53 -16 -14 -38 396 -4
544 45 56 19 184 80 177 85 -1 1 -65 -11 -142 -28 -129 -27 -159 -30 -370 -33
-126 -1 -221 0 -210 3 11 3 24 9 29 13 4 5 23 6 40 3 69 -11 431 70 541 121
57 27 101 69 90 86 -9 15 58 80 83 80 13 1 11 4 -8 15 l-25 14 26 1 c14 0 50
-7 80 -16z m345 -40 c14 -31 36 -71 49 -89 30 -39 31 -43 3 -66 -26 -23 -36
-24 -59 -4 -11 11 -48 18 -115 23 -96 7 -99 8 -101 32 -4 34 13 53 77 85 30
15 68 38 83 51 16 13 31 24 33 24 3 0 16 -25 30 -56z m-1325 24 c27 -30 24
-44 -15 -83 -19 -19 -37 -43 -41 -54 -5 -16 -12 -18 -48 -14 -23 3 -43 7 -45
8 -1 1 9 24 23 50 14 26 25 58 25 71 0 44 69 60 101 22z m4149 -184 c150 -24
245 -48 268 -67 11 -9 11 -13 -3 -23 -13 -10 -34 -5 -109 21 -99 36 -271 71
-399 81 -43 4 -80 11 -84 17 -9 14 152 0 327 -29z m-681 -67 c8 -10 41 -140
41 -163 0 -6 -36 -5 -54 2 -21 8 -89 130 -81 144 17 27 76 37 94 17z m-4585
-86 c-5 -5 -40 -19 -79 -30 -99 -30 -275 -118 -275 -136 0 -9 12 -20 26 -25
22 -9 202 -25 532 -47 51 -3 90 -9 87 -12 -3 -3 -45 -5 -93 -4 l-87 1 80 -8
c44 -4 130 -13 190 -19 115 -11 368 -27 565 -35 171 -7 64 9 -165 25 -104 8
-176 15 -160 17 17 2 136 -3 265 -12 129 -8 321 -20 425 -26 213 -13 461 -37
400 -39 -48 -2 -87 -21 -43 -21 15 0 153 -9 305 -20 461 -33 897 -61 1088 -70
99 -5 223 -12 275 -16 107 -8 116 5 12 17 -135 16 193 -2 706 -37 87 -6 114
-24 35 -24 -25 0 -44 -2 -42 -4 4 -5 203 -17 489 -31 116 -6 122 0 15 14 -104
13 256 3 485 -14 327 -25 469 -29 550 -15 90 15 107 23 235 112 154 108 424
282 387 251 -18 -15 -32 -30 -32 -33 0 -3 16 -5 35 -4 24 1 58 18 105 50 88
60 108 80 92 96 -6 6 -82 17 -168 24 -86 7 -159 16 -162 19 -7 7 31 6 182 -5
129 -9 176 -24 176 -54 0 -7 -37 -39 -82 -71 -46 -32 -117 -83 -158 -112 -200
-143 -420 -288 -460 -303 l-45 -18 -7 -108 c-4 -60 -10 -114 -13 -121 -2 -7
-19 -13 -38 -13 -31 0 -33 2 -31 28 2 15 5 66 7 115 l5 87 -112 0 c-61 0 -208
6 -326 15 -439 29 -1096 71 -1425 90 -143 8 -285 17 -315 20 -30 3 -260 19
-510 35 -527 35 -1272 85 -1475 100 -77 6 -270 19 -430 30 -159 11 -387 27
-505 35 -118 8 -351 20 -518 25 -167 6 -308 11 -315 13 -15 3 -21 -101 -10
-157 l8 -38 60 -4 c57 -4 89 -8 320 -39 l100 -14 -125 5 c-226 9 -414 24 -453
34 -57 17 -65 38 -69 178 -3 115 -2 124 17 135 22 13 188 78 340 133 55 20
107 40 115 44 18 10 28 3 14 -9z m3094 -209 c20 -7 14 -26 -17 -56 -28 -27
-30 -28 -107 -19 -46 5 -79 13 -81 20 -3 7 8 24 23 38 25 24 35 26 99 24 38
-1 76 -4 83 -7z m-1940 -424 c32 -16 52 -34 65 -59 16 -33 16 -39 2 -71 -8
-20 -39 -58 -70 -85 -55 -50 -60 -63 -21 -63 36 0 83 -36 102 -79 27 -59 47
-53 74 22 13 34 43 111 68 170 42 99 48 108 69 104 13 -2 31 2 40 9 10 7 26
14 36 14 9 0 17 5 17 10 0 6 5 10 10 10 6 0 10 -9 10 -20 0 -11 4 -28 9 -38 5
-9 15 -55 21 -102 19 -132 27 -160 51 -160 15 0 19 -5 16 -15 -4 -8 -2 -17 2
-20 5 -2 14 17 21 43 27 108 114 213 205 248 86 32 169 -10 167 -86 -1 -48
-22 -102 -37 -96 -7 2 -16 -2 -19 -10 -5 -14 -8 -14 -21 0 -8 8 -18 29 -21 45
-9 42 -34 40 -79 -4 -47 -47 -76 -107 -82 -169 -4 -43 -1 -56 18 -80 19 -24
27 -28 60 -23 20 3 64 23 98 46 34 23 61 40 61 37 0 -3 -4 -16 -10 -30 -12
-32 1 -33 34 -3 22 19 28 41 51 174 27 167 41 209 61 192 9 -7 15 -5 22 7 6
10 16 15 26 11 9 -4 16 -2 16 3 0 19 15 10 27 -15 9 -20 8 -40 -3 -92 -7 -37
-13 -68 -11 -69 1 -2 32 22 67 53 103 88 168 135 178 129 5 -3 20 6 32 19 13
14 28 25 34 25 5 0 -4 -15 -22 -33 -36 -37 -41 -53 -13 -37 27 14 36 13 22 -4
-6 -7 -9 -20 -6 -28 5 -14 -34 -56 -115 -122 -19 -16 -54 -46 -78 -68 l-43
-39 97 -120 c53 -66 99 -118 101 -115 2 2 -1 13 -8 23 -12 20 -4 102 8 89 3
-3 12 -1 20 5 7 6 13 8 13 4 0 -4 6 -3 13 3 10 9 16 4 26 -23 8 -23 21 -37 37
-41 58 -15 149 22 149 61 0 12 -30 33 -95 66 -111 58 -139 83 -146 130 -6 44
21 89 81 132 137 97 285 83 285 -28 0 -29 -28 -90 -37 -81 -3 3 -12 -2 -19
-12 -8 -10 -13 -12 -14 -4 0 6 -7 12 -15 12 -10 0 -15 10 -15 30 0 35 -11 37
-70 14 -41 -17 -69 -50 -53 -64 4 -4 41 -25 82 -46 41 -22 94 -57 118 -80 36
-34 43 -47 43 -79 0 -57 -61 -113 -167 -153 -74 -29 -147 -43 -130 -25 7 6
-84 53 -92 47 -2 -1 18 -30 44 -63 25 -34 44 -61 42 -61 -2 0 -28 18 -57 40
-57 43 -85 53 -55 20 26 -28 13 -34 -19 -9 -22 17 -36 20 -74 16 -42 -5 -44
-5 -19 5 15 7 27 15 27 20 0 4 -24 31 -53 60 -29 29 -73 76 -98 105 l-46 51
-11 -46 c-6 -26 -14 -68 -18 -95 -3 -26 -11 -50 -17 -54 -6 -4 -8 2 -5 15 4
12 3 22 -2 22 -8 0 -25 -40 -33 -75 -3 -11 -5 -5 -6 15 -1 19 -6 42 -11 50 -9
13 -11 13 -21 0 -8 -11 -9 4 -6 58 l4 74 -71 -70 c-114 -112 -129 -117 -209
-82 -58 26 -104 78 -118 135 -13 51 -22 61 -37 42 -8 -9 -7 -33 3 -82 18 -83
18 -95 4 -75 -8 11 -9 1 -6 -40 l5 -55 -16 38 c-9 23 -20 36 -28 33 -7 -3 -17
7 -23 22 -7 20 -10 22 -10 8 -2 -33 -14 -9 -31 61 -22 92 -40 94 -40 4 0 -39
-4 -71 -9 -71 -5 0 -13 29 -16 65 l-7 64 -32 -5 c-57 -10 -57 -9 -41 -61 18
-57 18 -63 5 -63 -5 0 -10 6 -10 13 0 7 -6 22 -14 32 -13 19 -15 18 -32 -18
-10 -20 -23 -37 -30 -37 -7 0 -18 -13 -26 -30 -17 -38 -24 -38 -32 2 -6 30 -7
31 -21 12 -14 -19 -14 -19 -15 2 0 12 7 40 14 62 9 26 11 44 5 47 -5 4 -6 12
-3 18 4 7 -17 -11 -47 -40 -30 -28 -85 -72 -124 -97 -38 -25 -63 -46 -55 -47
8 0 -16 -16 -54 -35 -76 -37 -80 -39 -71 -24 3 6 -1 10 -9 10 -9 0 -18 -12
-22 -27 -10 -46 -12 -49 -13 -19 -1 24 -3 27 -16 16 -10 -8 -15 -31 -15 -71 0
-33 -4 -59 -10 -59 -5 0 -9 8 -8 18 3 43 -3 92 -12 92 -5 0 -10 -7 -10 -15 0
-8 -4 -15 -10 -15 -5 0 -10 7 -10 15 0 18 3 17 -38 6 -20 -6 -32 -6 -32 0 0 5
5 9 10 9 6 0 10 5 10 10 0 6 -9 10 -20 10 -20 0 -20 1 -3 27 18 26 17 27 -2
20 -19 -7 -19 -6 1 10 12 10 36 26 54 35 39 22 38 52 -2 56 -34 4 -68 46 -68
84 0 39 40 78 80 78 16 0 30 5 30 10 0 6 -7 10 -15 10 -14 0 -20 24 -16 58 1
6 -4 12 -11 12 -7 0 1 10 19 21 26 16 34 30 42 72 17 89 19 118 7 113 -96 -38
-116 -44 -121 -36 -3 6 -1 10 4 10 6 0 11 7 11 15 0 20 -19 19 -87 -5 -79 -28
-79 -25 0 16 37 19 67 39 67 45 0 5 -4 7 -10 4 -21 -13 -9 13 13 27 36 24 155
69 221 84 87 20 204 12 264 -18z m-1423 -213 c9 -99 20 -236 26 -305 5 -69 16
-199 24 -290 8 -91 17 -214 20 -275 3 -60 8 -121 11 -135 4 -16 2 -21 -4 -15
-12 12 -24 132 -57 535 -39 481 -51 679 -40 669 2 -3 11 -86 20 -184z m3895
158 c0 -4 7 -57 15 -118 9 -60 18 -129 21 -152 4 -33 9 -42 27 -45 15 -2 21
-9 19 -20 -6 -36 16 -16 33 30 53 140 200 262 317 262 65 0 95 -14 114 -52 14
-31 14 -37 -4 -83 -14 -34 -25 -49 -36 -47 -9 2 -16 -2 -16 -8 0 -6 -7 -6 -20
2 -12 8 -20 24 -20 40 0 70 -120 2 -189 -106 -53 -85 -37 -186 30 -186 44 0
129 47 129 72 0 4 -20 8 -45 8 -33 0 -45 4 -46 15 -4 67 -4 69 30 76 17 4 75
10 128 14 l95 7 -5 -33 c-3 -19 -18 -72 -35 -119 -16 -47 -38 -112 -47 -145
-14 -46 -20 -55 -26 -40 -6 17 -9 15 -23 -17 -9 -21 -16 -45 -16 -53 0 -9 -4
-14 -9 -11 -5 3 -7 24 -4 46 4 26 2 40 -6 40 -6 0 -11 -7 -11 -16 0 -8 -4 -13
-9 -10 -4 3 -5 25 -1 48 5 24 7 44 5 46 -2 2 -22 -8 -44 -22 -49 -31 -74 -34
-122 -13 -77 34 -129 99 -129 162 0 20 -5 25 -23 25 -23 0 -24 -1 -15 -57 4
-32 10 -68 13 -80 6 -27 -11 -31 -19 -5 -3 9 -3 -11 -1 -46 5 -66 -8 -78 -19
-18 -4 23 -11 33 -20 30 -7 -3 -18 5 -24 18 -6 13 -11 17 -11 11 -1 -7 -5 -13
-10 -13 -5 0 -12 21 -16 48 -14 100 -8 95 -89 87 -39 -4 -78 -11 -86 -15 -9
-5 -29 -36 -45 -69 -16 -34 -31 -57 -35 -52 -9 15 -25 0 -49 -44 -20 -37 -21
-38 -16 -10 5 32 -12 71 -22 48 -2 -7 -8 -13 -13 -13 -5 0 2 26 15 58 18 43
21 59 12 67 -16 13 -20 55 -6 55 8 0 8 4 0 14 -13 15 4 26 38 26 16 0 41 43
139 242 2 4 -9 6 -25 3 -15 -2 -65 -9 -109 -16 l-81 -11 -16 -57 c-8 -31 -25
-99 -37 -151 -36 -153 -58 -228 -59 -197 -1 41 -13 33 -44 -31 l-29 -57 6 45
c3 25 2 52 -4 60 -6 10 -10 11 -10 3 0 -7 -5 -13 -10 -13 -6 0 -8 16 -4 43 6
41 49 269 60 316 6 26 18 26 -117 5 -39 -7 -41 -6 -34 15 3 11 2 21 -3 21 -13
0 -10 56 4 70 6 6 51 16 100 22 49 6 95 16 102 21 15 11 232 20 276 11 28 -6
29 -7 11 -20 -17 -13 -17 -14 0 -20 15 -6 13 -9 -11 -20 l-29 -12 40 -1 c36
-1 42 3 59 34 14 26 24 34 38 29 18 -5 84 13 103 28 11 10 25 10 25 1z m1106
-107 c9 -10 25 -15 35 -13 11 3 21 1 24 -3 3 -5 -15 -12 -39 -15 -48 -8 -85
-34 -50 -36 40 -1 -22 -17 -92 -23 -172 -16 -172 -16 -177 -39 -3 -12 -9 -32
-13 -45 -7 -23 -5 -23 57 -22 35 1 80 1 99 0 32 -1 33 -2 15 -12 -19 -12 -19
-12 5 -18 25 -7 25 -7 -10 -23 -26 -11 -30 -16 -15 -17 l20 -1 -20 -9 c-11 -4
-59 -11 -107 -15 l-86 -7 -13 -47 c-7 -25 -12 -48 -11 -50 1 -2 71 -3 155 -2
88 1 158 -3 167 -9 11 -7 7 -10 -20 -10 -66 -1 -9 -20 65 -21 39 -1 54 -4 35
-6 -111 -10 -140 -15 -140 -24 0 -5 12 -9 27 -9 14 0 24 -2 22 -4 -2 -2 -76
-10 -164 -16 -88 -7 -172 -18 -187 -25 -20 -10 -28 -10 -32 -1 -2 6 -8 0 -12
-13 -7 -23 -8 -23 -14 -6 -4 13 -16 19 -35 20 -20 0 -29 6 -32 20 -13 69 -12
73 11 79 18 4 27 18 39 58 11 39 12 56 3 63 -18 16 -8 73 15 80 20 7 30 25 43
78 5 22 3 27 -13 27 -24 0 -36 16 -20 26 8 5 8 8 0 13 -18 12 10 59 44 73 32
13 225 27 337 23 47 -2 72 -7 84 -19z m-4292 -286 c22 -39 42 -70 45 -70 3 0
24 32 46 70 22 39 46 70 53 70 9 0 12 -28 12 -105 0 -63 -4 -105 -10 -105 -6
0 -10 35 -10 85 0 47 -3 85 -7 85 -5 0 -22 -26 -39 -58 -17 -31 -37 -58 -45
-60 -8 -1 -26 19 -42 47 -15 28 -32 53 -37 56 -6 4 -10 -38 -10 -109 l0 -116
-72 6 c-98 8 -98 8 -98 50 l0 37 69 -7 c55 -5 70 -3 75 9 7 19 2 22 -73 29
-70 8 -84 12 -76 27 4 5 40 9 81 9 100 0 97 22 -4 33 l-72 9 0 35 0 35 70 -4
c39 -2 70 0 70 5 0 4 8 7 18 7 11 0 31 -25 56 -70z m1645 -275 c33 -10 69 -31
88 -50 33 -33 33 -35 19 -63 -16 -31 -65 -67 -133 -96 -42 -19 -56 -36 -30
-36 33 0 119 -33 147 -56 23 -20 30 -34 30 -62 0 -31 -8 -44 -53 -87 -60 -56
-108 -82 -241 -132 -61 -22 -78 -32 -51 -27 63 9 38 -2 -67 -30 -54 -15 -106
-29 -115 -32 -10 -2 0 4 22 15 35 18 36 20 10 14 -95 -20 -109 -27 -122 -68
l-11 -40 -1 38 c-1 35 -2 36 -21 25 -11 -7 -23 -28 -26 -48 -16 -99 -23 -114
-18 -37 5 72 3 78 -13 75 -10 -2 -20 -14 -22 -28 l-4 -25 -7 25 c-7 26 -14 27
-75 16 -28 -5 -29 -5 -11 9 13 9 42 15 80 15 34 0 81 7 106 16 25 9 108 34
184 55 134 38 300 98 293 106 -2 2 -34 -8 -70 -22 -38 -14 -67 -20 -67 -14 0
5 -4 8 -9 4 -5 -3 -12 -1 -16 5 -3 5 -17 7 -31 4 -13 -3 -30 -1 -38 5 -11 9
-32 7 -92 -10 -44 -12 -89 -24 -101 -26 l-22 -5 20 38 c19 39 28 94 10 65 -7
-10 -21 -12 -55 -8 -51 7 -50 8 -61 -56 -5 -29 -3 -37 6 -32 7 5 10 3 7 -5 -4
-14 -20 -20 -97 -40 -25 -7 -40 -15 -35 -18 5 -4 10 -15 10 -24 1 -14 -6 -18
-35 -17 -31 0 -33 1 -13 9 24 10 30 30 10 30 -22 1 23 22 70 34 l45 12 24 89
c12 50 25 100 29 113 5 18 2 22 -17 23 -23 0 -23 1 -4 9 17 7 17 9 3 9 -10 1
-18 4 -18 7 0 4 8 13 18 20 16 13 16 13 -2 14 -25 0 -13 12 26 26 27 9 35 21
60 88 l28 79 -37 -7 c-21 -4 -56 -10 -78 -13 -37 -5 -38 -4 -21 9 18 14 18 15
-5 21 l-24 7 30 25 c33 27 31 30 -12 15 l-28 -10 24 18 c13 9 67 27 120 39 83
19 119 22 266 19 126 -2 184 -8 224 -21z m871 -4 c41 4 111 8 155 7 l80 0 -50
-13 c-43 -11 -46 -13 -20 -15 26 -1 27 -3 10 -10 -30 -13 60 -12 210 1 71 6
145 8 172 3 32 -5 40 -9 26 -12 -35 -5 -27 -22 10 -23 29 -1 27 -3 -23 -19
-45 -15 -50 -18 -26 -19 68 -2 4 -20 -112 -32 l-123 -12 -20 -38 c-10 -21 -19
-41 -19 -45 0 -4 39 -4 88 -1 48 4 96 2 107 -3 19 -8 19 -9 -3 -9 -29 -1 -19
-21 11 -22 20 -1 21 -2 2 -6 -11 -3 -31 -10 -45 -16 l-25 -10 25 -7 c18 -4 1
-9 -55 -14 -153 -13 -149 -11 -167 -64 -10 -25 -16 -48 -14 -50 2 -2 66 1 143
5 76 5 163 6 193 2 45 -5 48 -6 18 -8 -21 0 -38 -5 -38 -10 0 -12 36 -20 95
-22 43 -2 40 -3 -25 -9 -41 -4 -90 -11 -109 -15 -25 -6 -32 -5 -27 3 4 7 16
12 27 12 10 0 19 5 19 10 0 6 -12 10 -26 10 -16 0 -23 4 -18 11 5 8 -29 9
-122 4 -71 -4 -133 -8 -139 -9 -5 0 -9 4 -8 9 9 60 9 60 -25 63 -18 2 -30 8
-27 13 4 5 0 9 -8 9 -15 0 -37 -48 -37 -82 0 -20 -61 -53 -83 -45 -7 3 3 9 22
14 30 8 37 16 52 58 22 63 23 79 5 72 -11 -4 -14 1 -11 21 2 15 4 29 5 32 2 3
2 8 1 12 0 3 13 11 29 16 22 8 32 21 41 52 10 34 10 43 0 50 -8 4 -10 13 -7
19 4 6 2 11 -4 11 -6 0 -8 5 -4 11 4 8 -3 9 -22 6 -16 -3 -59 -9 -95 -12 l-67
-6 -62 -167 c-83 -220 -113 -289 -104 -242 3 19 12 46 19 60 7 14 17 41 23 60
5 19 13 42 16 51 6 14 -2 16 -53 16 l-60 0 -32 -101 c-29 -93 -49 -137 -49
-109 0 6 27 91 61 189 81 237 79 228 43 221 -16 -3 -49 -9 -74 -12 -25 -3 -58
-8 -75 -11 -27 -4 -28 -4 -12 9 15 13 16 16 2 27 -14 12 -14 15 2 32 15 16 15
21 3 28 -22 14 23 27 141 40 57 7 109 16 114 20 14 11 58 17 70 9 6 -3 44 -2
85 2z m1010 -19 c19 -9 37 -26 39 -37 2 -11 8 -23 14 -27 17 -11 -28 -99 -47
-92 -9 3 -17 -3 -22 -18 l-7 -23 -9 24 c-7 19 -11 21 -22 11 -12 -9 -15 -6
-18 22 -4 40 -20 45 -90 24 -65 -19 -118 -59 -102 -76 6 -6 59 -29 117 -50
134 -50 221 -93 241 -122 18 -25 21 -74 6 -83 -5 -3 -10 -14 -10 -23 0 -10
-14 -23 -32 -31 -45 -20 -24 -24 68 -12 44 5 83 6 87 2 4 -4 -43 -13 -105 -20
-100 -10 -127 -17 -241 -65 -70 -29 -127 -57 -125 -61 2 -4 -23 -17 -55 -30
-85 -35 -101 -39 -92 -25 9 15 -18 8 -85 -22 -25 -11 -61 -26 -80 -33 -19 -7
-52 -20 -72 -29 -70 -30 -39 -5 38 30 42 20 74 38 71 41 -3 2 -79 -20 -169
-51 -90 -31 -168 -56 -173 -56 -18 1 19 18 115 53 158 57 231 78 252 71 15 -4
18 -3 13 6 -6 10 -1 11 17 7 27 -7 171 40 323 104 l80 34 -50 6 c-27 3 -64 12
-82 18 -24 10 -37 10 -54 1 -12 -7 -79 -36 -148 -65 -69 -29 -144 -61 -166
-70 -71 -30 -23 0 60 37 387 175 435 200 435 223 0 18 -48 42 -165 84 -158 56
-206 95 -191 155 9 38 68 90 142 127 117 58 229 74 294 41z m-1471 -14 c-1 -7
1 -20 5 -29 4 -9 -8 -58 -28 -115 -19 -54 -49 -142 -66 -194 -39 -114 -61
-172 -71 -184 -10 -12 5 47 30 118 12 33 18 63 14 67 -5 3 -25 10 -45 13 -50
9 -72 -17 -92 -104 -9 -37 -20 -78 -25 -91 l-10 -24 0 23 c-1 22 41 172 96
347 31 100 64 174 70 158 6 -17 22 -16 57 2 21 11 31 12 36 4 5 -7 9 -5 13 5
8 19 19 21 16 4z m-2098 -65 c6 -6 9 -23 7 -39 -4 -35 -22 -39 -115 -29 l-63
7 0 37 c0 21 2 40 4 42 9 9 157 -8 167 -18z m-248 -97 c4 -6 6 -24 5 -41 -3
-29 -5 -30 -55 -33 -79 -5 -117 8 -121 42 -7 54 0 58 86 51 42 -4 80 -13 85
-19z m235 -12 c17 -5 22 -14 22 -40 0 -22 -6 -36 -15 -39 -47 -15 -51 -18 -30
-23 32 -7 45 -22 45 -54 0 -37 -14 -42 -102 -31 l-73 8 -3 38 -3 37 48 1 48 0
-45 17 c-41 16 -45 21 -48 55 l-3 37 68 0 c37 0 78 -3 91 -6z m-231 -94 c2 0
3 -19 3 -41 l0 -42 -82 7 c-44 4 -85 9 -90 12 -4 3 -8 20 -8 39 l0 34 58 3
c31 2 70 0 87 -4 16 -5 31 -8 32 -8z m4926 -56 c35 -6 37 -8 37 -45 l0 -39
-57 0 c-32 0 -75 3 -95 6 -35 6 -38 9 -38 39 0 17 3 35 7 38 8 9 96 9 146 1z
m-13 -122 c43 -7 45 -8 45 -42 0 -31 -3 -35 -30 -38 -16 -2 -58 -1 -92 3 l-63
7 0 39 0 39 48 -1 c26 0 67 -4 92 -7z m-5396 -67 c-17 -43 41 -58 293 -80 95
-8 189 -18 210 -24 42 -11 292 -35 543 -52 91 -6 201 -15 245 -19 74 -8 71 -9
-35 -4 -63 2 -185 8 -270 14 -420 27 -647 39 -770 42 -133 3 -135 3 -138 -19
-5 -36 -40 -30 -50 9 -6 24 -16 34 -44 44 -34 11 -36 11 -42 -9 -3 -12 -6 -38
-6 -56 0 -63 -19 -19 -21 50 -3 76 2 86 45 105 40 17 47 17 40 -1z m6656 -24
c9 -18 3 -24 -52 -54 -35 -19 -184 -102 -333 -185 -148 -82 -298 -160 -332
-172 -35 -12 -60 -26 -57 -31 3 -5 0 -9 -5 -9 -6 0 -10 -3 -10 -8 5 -32 -3
-52 -21 -52 -16 0 -20 7 -20 33 l0 33 -292 17 c-161 10 -506 31 -767 48 -261
16 -489 30 -505 30 -22 1 -25 3 -10 6 12 2 178 -5 370 -17 192 -11 466 -27
609 -36 233 -14 501 -13 615 1 28 4 31 3 15 -5 -14 -7 -5 -8 30 -4 76 9 305
124 331 165 5 8 3 9 -7 4 -8 -5 -12 -6 -9 -2 3 3 30 19 60 35 30 16 87 48 127
70 40 22 73 36 75 30 3 -9 126 49 163 78 20 15 20 15 1 30 -17 12 -17 14 -3
14 9 0 21 -9 27 -19z m-1480 -10 c21 -6 25 -13 25 -41 0 -34 -1 -35 -45 -38
-25 -1 -65 1 -90 6 -36 6 -46 12 -48 30 -7 45 3 52 70 51 35 -1 74 -4 88 -8z
m258 -23 c20 -20 15 -66 -8 -73 -31 -10 -158 6 -171 21 -6 8 -8 25 -5 39 6 24
9 25 89 25 51 0 88 -5 95 -12z m-1760 -36 c18 -4 -148 -7 -370 -7 -250 -1
-452 -6 -533 -13 -174 -18 -368 -47 -468 -72 -84 -21 -118 -36 -57 -26 126 22
505 68 619 75 75 5 285 9 466 9 304 -1 317 -2 165 -9 -247 -13 -490 -37 -630
-65 -144 -28 -137 -27 -125 -15 21 19 263 65 395 74 25 2 4 4 -46 5 -117 2
-442 -30 -687 -68 -105 -17 -207 -30 -226 -30 -34 1 -35 1 -16 16 73 55 424
110 890 138 91 6 585 -4 623 -12z"/>
<path d="M2674 2799 c-26 -7 -33 -15 -36 -41 -4 -23 0 -37 11 -45 9 -7 11 -13
4 -13 -14 0 6 -60 20 -60 32 0 117 74 117 103 0 13 -5 17 -15 13 -8 -3 -15 -1
-15 4 0 6 10 10 22 10 20 0 21 1 3 20 -19 21 -58 25 -111 9z"/>
<path d="M205 2239 c-8 -24 4 -197 14 -203 3 -2 21 -7 39 -11 l32 -7 0 89 c0
113 -5 129 -42 142 -39 14 -36 15 -43 -10z"/>
<path d="M1607 1490 c-44 -8 -44 -8 -49 -40 -2 -20 2 -26 20 -28 30 -5 28 -22
-3 -22 -24 0 -25 -3 -25 -54 0 -30 4 -57 8 -60 10 -6 63 20 77 38 6 7 24 20
41 29 17 9 37 23 45 33 13 16 11 17 -31 11 -41 -5 -43 -4 -25 9 11 8 35 14 55
12 33 -3 35 -1 38 28 3 30 0 32 -42 43 -49 12 -53 12 -109 1z"/>
<path d="M2469 1054 c-9 -3 -28 -34 -42 -70 l-26 -66 25 6 c52 13 191 67 223
87 22 13 30 24 24 30 -11 11 -177 21 -204 13z"/>
<path d="M2440 813 c-78 -8 -76 -6 -111 -113 -18 -54 -31 -102 -28 -104 9 -9
182 50 269 92 100 48 136 77 120 97 -21 25 -145 39 -250 28z"/>
</g>
</svg>
