<?xml version="1.0" standalone="no"?>
<!DOCTYPE svg PUBLIC "-//W3C//DTD SVG 20010904//EN"
 "http://www.w3.org/TR/2001/REC-SVG-20010904/DTD/svg10.dtd">
<svg version="1.0" xmlns="http://www.w3.org/2000/svg"
 width="720.000000pt" height="544.000000pt" viewBox="0 0 720.000000 544.000000"
 preserveAspectRatio="xMidYMid meet">
<metadata>
Created by potrace 1.16, written by Peter Selinger 2001-2019
</metadata>
<g transform="translate(0.000000,544.000000) scale(0.100000,-0.100000)"
fill="#000000" stroke="none">
<path d="M3810 5424 c-165 -24 -319 -79 -432 -155 -90 -61 -217 -172 -213
-186 5 -16 -24 -51 -55 -66 -36 -18 -92 -125 -77 -148 8 -13 7 -27 -6 -56 -9
-21 -19 -48 -22 -61 -4 -12 -23 -31 -45 -42 -42 -21 -86 -72 -119 -138 -43
-84 -43 -261 -1 -360 15 -34 42 -70 77 -102 58 -53 171 -124 216 -135 18 -5
33 -20 47 -49 11 -23 36 -61 55 -83 l34 -40 -69 -1 c-130 0 -255 -83 -319
-211 -35 -69 -37 -84 -15 -136 l15 -37 -28 7 c-15 4 -39 7 -53 6 -38 -2 -282
-97 -307 -119 -20 -18 -26 -19 -60 -6 -51 18 -98 17 -207 -2 -127 -23 -168
-39 -225 -90 -27 -24 -67 -51 -88 -60 -92 -39 -257 -188 -293 -266 -19 -40
-26 -48 -49 -47 -17 1 -20 3 -9 6 16 4 16 6 4 19 -23 22 -39 17 -34 -11 3 -14
0 -29 -6 -33 -9 -6 -160 -49 -273 -79 -19 -4 -23 -1 -23 19 0 35 -18 48 -70
48 -57 0 -70 -12 -70 -67 l0 -42 -73 1 c-94 1 -137 -19 -137 -63 0 -16 -6 -31
-12 -34 -7 -2 -62 -23 -123 -46 -525 -198 -559 -212 -585 -244 -10 -12 -11
-43 -4 -153 l9 -137 32 -20 c21 -13 34 -30 37 -50 5 -30 107 -1290 106 -1311
0 -6 -18 -19 -39 -29 -22 -10 -50 -28 -62 -41 -19 -21 -21 -31 -17 -93 6 -80
16 -97 73 -122 45 -19 114 -26 680 -64 343 -24 613 -42 1390 -95 634 -43 2123
-153 2400 -177 141 -12 347 -17 793 -20 l602 -4 0 58 0 59 -292 17 c-161 10
-507 31 -768 48 -261 16 -488 29 -505 30 -16 1 -22 3 -13 6 9 2 254 -10 545
-28 515 -31 872 -40 1023 -26 54 6 71 5 60 -3 -29 -21 63 2 130 32 73 33 206
113 217 131 17 27 240 147 260 140 12 -4 109 44 148 73 19 14 19 16 3 28 -24
18 -23 29 1 17 48 -26 35 -38 -182 -157 -117 -64 -267 -147 -334 -185 -67 -37
-149 -78 -183 -90 -46 -16 -60 -26 -60 -42 0 -14 -5 -18 -20 -14 -11 3 -20 1
-20 -4 0 -5 7 -9 15 -9 8 0 15 -7 15 -16 0 -10 -6 -14 -15 -10 -11 4 -15 -2
-15 -24 l0 -30 91 0 91 0 192 112 c408 238 457 269 467 294 5 14 9 54 9 89 0
61 -2 65 -36 93 l-36 30 16 188 c17 197 46 604 70 978 l14 219 28 22 c25 20
29 31 35 101 4 44 8 120 8 170 1 140 1 141 -359 169 -107 8 -221 15 -253 15
-63 0 -97 12 -97 35 0 11 -10 8 -42 -10 -24 -14 -51 -27 -60 -31 -22 -8 -23
-18 -3 -34 8 -7 15 -20 15 -29 0 -10 16 -32 35 -51 26 -25 35 -42 34 -64 0
-17 -3 -24 -6 -16 -3 8 -18 29 -33 46 l-27 31 -27 -33 c-50 -62 -202 -125
-386 -158 -69 -13 -322 -46 -353 -46 -5 0 -7 -19 -5 -42 3 -42 4 -43 43 -49
22 -4 -10 -6 -75 -6 -63 0 -105 2 -92 4 20 4 23 10 21 47 l-3 42 -200 12
c-304 19 -469 48 -616 111 -91 39 -180 111 -180 147 0 31 37 82 72 100 l33 16
-31 -33 c-79 -85 -37 -149 141 -217 157 -59 372 -94 598 -95 434 -3 591 11
801 69 93 26 195 85 217 125 11 22 5 84 -11 94 -5 3 -30 0 -57 -5 -88 -20
-193 -36 -186 -29 5 4 46 17 92 29 47 12 97 28 113 36 15 8 31 15 35 17 5 1 7
5 6 8 -1 4 16 10 39 13 23 4 54 14 70 24 24 14 28 23 28 60 0 40 -2 44 -37 58
-32 14 -92 15 -193 3 -8 -1 -76 10 -150 24 -196 37 -323 47 -594 47 -240 0
-417 -14 -558 -43 l-68 -15 0 32 c0 45 -16 56 -82 56 -54 0 -59 -2 -68 -26 -6
-14 -10 -37 -10 -52 l0 -27 -94 0 c-78 0 -97 -3 -115 -19 -12 -11 -21 -27 -21
-38 0 -14 -8 -18 -40 -18 -22 0 -40 2 -40 5 0 2 17 13 38 24 93 48 228 226
246 324 7 35 9 37 44 37 44 0 120 33 128 55 4 10 19 15 48 15 23 0 51 7 64 15
16 12 34 14 71 9 55 -7 73 -3 252 67 128 50 183 88 195 134 4 17 15 24 43 29
20 3 58 19 84 36 54 36 93 106 104 185 4 31 13 55 25 63 28 20 54 80 66 152
19 112 35 328 28 383 -13 102 -21 73 -22 -82 -2 -170 -23 -337 -50 -395 -20
-41 -87 -88 -149 -105 -47 -13 -69 -13 -39 -1 18 7 21 18 23 72 2 58 9 129 29
288 4 30 11 60 15 67 6 9 -9 11 -60 6 -60 -5 -103 0 -194 22 -26 7 -26 6 -39
-72 -7 -43 -13 -86 -13 -95 -1 -10 -4 -18 -8 -18 -6 0 -12 -27 -25 -113 -4
-23 -1 -43 6 -52 9 -11 10 -18 1 -28 -6 -8 -7 -18 -3 -22 4 -5 1 -5 -6 0 -10
5 -11 10 -3 18 15 15 14 27 -4 27 -8 0 -15 -5 -15 -12 0 -22 -53 37 -72 81
-18 39 -19 56 -13 147 4 68 3 104 -3 104 -17 0 -26 -149 -14 -210 7 -30 8 -57
4 -61 -4 -3 -43 -18 -86 -33 l-79 -28 -71 33 c-130 61 -289 50 -389 -26 -44
-34 -50 -35 -85 -26 -48 14 -105 14 -119 0 -7 -7 -23 -8 -45 -3 -18 4 -41 6
-52 5 -34 -5 -7 16 29 22 66 11 214 85 298 150 37 28 38 29 64 12 34 -22 92
-23 168 -3 33 9 71 19 85 22 51 11 151 87 187 142 20 30 32 58 28 62 -4 4 -10
1 -12 -6 -10 -27 -70 -97 -96 -112 -24 -13 -28 -13 -43 2 -16 16 -16 17 2 12
44 -12 150 141 138 202 -3 18 -1 34 5 38 28 17 2 166 -35 207 -19 21 -2 34 25
19 25 -13 51 -96 51 -162 0 -29 4 -48 11 -48 9 0 10 21 6 72 -7 85 -53 188
-115 259 -38 44 -61 112 -41 124 26 17 -7 167 -41 185 -9 5 -23 30 -29 56 -25
99 -159 265 -295 366 -132 98 -279 159 -482 198 -119 23 -160 23 -294 4z m290
-263 c69 -19 232 -93 273 -125 16 -12 12 -19 -50 -82 -38 -38 -77 -85 -87
-104 -25 -45 -18 -39 38 37 25 35 65 77 88 94 l43 31 61 -65 c68 -72 126 -167
145 -238 11 -39 10 -59 -5 -127 -10 -45 -15 -90 -11 -101 3 -11 -5 -44 -19
-78 -55 -130 -82 -251 -101 -446 -5 -47 -13 -76 -29 -95 -54 -67 -53 -67 -28
-53 12 6 22 16 22 22 0 6 5 7 10 4 6 -3 10 -17 10 -31 0 -18 5 -24 23 -24 33
0 -81 -74 -163 -105 -66 -25 -250 -75 -277 -75 -19 0 -11 25 8 25 66 3 141 37
133 60 -5 11 -13 11 -52 -1 -26 -7 -64 -14 -84 -14 -35 0 -38 3 -39 28 -1 15
-5 38 -10 52 -6 17 -7 6 -3 -34 l6 -59 -161 5 c-123 3 -161 2 -161 -8 0 -15
96 -33 214 -41 76 -5 91 -4 101 11 12 15 13 15 18 -4 7 -29 -24 -34 -162 -26
-235 13 -430 86 -552 206 -36 36 -78 88 -91 115 -37 72 -77 243 -84 354 -7
106 9 285 33 370 35 129 128 271 234 360 66 55 209 141 209 125 0 -4 -15 -23
-33 -43 -32 -35 -98 -174 -97 -203 1 -7 11 12 24 42 58 140 114 211 184 234
120 40 286 42 422 7z m-1000 -405 c0 -2 -18 -23 -40 -46 -41 -42 -78 -135 -66
-166 3 -7 2 -14 -3 -14 -10 0 -10 -5 -12 -137 -1 -166 27 -292 75 -332 28 -23
17 -32 -19 -17 -34 14 -112 86 -94 86 5 0 4 11 -1 26 -18 46 -28 187 -20 279
6 74 4 92 -8 101 -12 9 -10 13 12 27 14 10 26 24 26 31 0 7 16 45 35 84 29 58
41 72 63 75 45 7 52 7 52 3z m1850 -246 c13 -9 13 -11 0 -20 -13 -8 -12 -10 3
-10 20 0 77 -54 77 -73 0 -6 -15 5 -33 25 -36 40 -81 57 -106 41 -26 -16 -81
-103 -74 -118 3 -8 23 -20 44 -26 21 -7 39 -14 39 -15 0 -2 -8 -19 -17 -39
-14 -30 -19 -33 -32 -21 -20 17 -56 26 -70 17 -41 -26 -63 -329 -29 -403 9
-21 24 -38 32 -38 9 0 16 -4 16 -10 0 -5 -13 -10 -29 -10 -37 0 -87 55 -98
107 -13 61 -7 223 12 295 12 50 14 72 6 87 -16 28 2 67 33 75 15 4 36 23 50
45 51 81 130 121 176 91z m-1680 -734 c44 -15 157 -99 141 -104 -6 -2 -18 2
-26 8 -23 19 -152 1 -194 -26 -1 -2 9 -19 24 -38 22 -29 24 -36 11 -36 -9 0
-18 1 -19 3 -4 2 -109 -84 -140 -115 -10 -10 -15 -18 -11 -18 3 0 -4 -9 -17
-19 -22 -18 -23 -22 -11 -43 8 -13 -17 10 -55 50 -42 46 -77 74 -90 75 -13 1
-23 3 -23 4 0 2 13 29 29 61 28 56 113 146 161 172 71 38 158 49 220 26z
m1555 -118 c77 -19 126 -58 74 -58 -41 0 -128 -31 -168 -60 -29 -21 -50 -50
-73 -99 -30 -63 -60 -92 -77 -75 -3 3 5 7 18 11 16 4 21 11 18 24 -3 11 -1 17
4 13 17 -10 9 16 -12 37 -13 13 -28 19 -42 15 -12 -3 -40 -1 -61 4 -40 9 -72
0 -88 -24 -19 -28 -5 36 17 81 63 125 214 175 390 131z m325 -7 c0 -6 -10 -17
-22 -25 -44 -31 -62 -158 -34 -239 22 -59 66 -116 110 -141 63 -36 97 -39 150
-12 25 13 46 20 46 16 0 -25 -120 -85 -275 -139 -91 -32 -148 -38 -175 -21
-12 8 -10 9 10 8 14 0 81 20 150 46 69 26 132 50 140 53 10 4 4 8 -16 13 -58
13 -137 84 -163 148 -9 22 -17 29 -25 23 -32 -27 -126 -54 -193 -56 l-73 -2 0
47 c0 49 32 124 73 169 24 26 99 63 197 97 71 25 100 29 100 15z m-1774 -84
c-32 -42 -32 -47 0 -47 24 0 24 -1 10 -22 -25 -35 -19 -46 7 -14 22 27 24 28
66 15 24 -7 39 -15 32 -17 -6 -2 -2 -11 11 -23 21 -17 22 -18 4 -19 -11 0 -17
-3 -13 -6 8 -8 47 6 47 17 0 6 -4 8 -9 5 -5 -3 -11 1 -14 9 -5 11 -1 12 18 5
16 -6 25 -6 25 0 0 6 16 -8 36 -30 38 -42 105 -72 187 -84 55 -8 186 9 237 31
20 9 63 16 100 16 l65 0 -55 6 c-40 4 -51 9 -40 15 8 5 26 16 39 25 23 15 24
15 12 -7 -11 -20 -10 -22 16 -22 30 0 161 31 206 49 32 12 31 17 13 -90 -22
-128 -27 -208 -18 -278 6 -46 6 -60 -2 -50 -14 18 -34 18 -45 0 -7 -10 -11 -1
-15 30 -4 24 -11 69 -16 99 l-9 55 4 -55 c2 -30 7 -86 10 -125 3 -38 2 -62 -2
-53 -7 15 -24 8 -132 -52 -68 -37 -139 -71 -157 -75 -19 -3 -34 -10 -34 -16 0
-5 -24 9 -54 31 -58 44 -177 99 -213 100 -18 0 -23 6 -24 28 -2 23 -2 24 -6 5
-4 -21 -10 -23 -79 -23 -42 0 -83 -4 -93 -10 -15 -8 -25 1 -61 50 -24 33 -47
60 -51 60 -4 0 -11 -9 -14 -20 -3 -11 -10 -20 -14 -20 -12 0 -33 78 -39 145
-2 33 -11 72 -18 86 -7 15 -10 30 -6 34 4 5 2 5 -5 1 -17 -10 -33 -72 -33
-132 0 -62 33 -190 65 -253 13 -26 26 -64 30 -84 11 -57 -12 -46 -42 21 -83
188 -85 408 -5 592 23 54 78 130 93 130 5 0 -1 -15 -15 -33z m-510 -168 c24
-11 59 -38 78 -59 33 -36 86 -128 86 -148 0 -10 -241 -112 -264 -112 -9 0 -27
24 -42 55 -15 30 -51 78 -80 105 -48 46 -57 50 -101 50 -41 0 -45 2 -33 14 15
15 273 114 299 115 8 1 34 -8 57 -20z m-420 -114 c49 -20 131 -108 143 -153
21 -80 24 -95 15 -90 -14 9 -157 -21 -166 -35 -5 -7 -8 -2 -8 15 0 41 -14 69
-61 122 -85 94 -204 122 -305 71 -60 -30 -62 -31 -38 -4 32 35 89 59 171 70
43 6 80 13 82 15 11 10 135 2 167 -11z m-322 -119 c45 -19 66 -52 66 -103 0
-35 -6 -50 -36 -83 l-36 -40 -22 33 c-26 38 -73 48 -112 22 -13 -8 -24 -11
-24 -5 0 19 -40 50 -65 50 -14 0 -34 -9 -45 -20 -15 -15 -20 -16 -20 -6 0 8
-9 21 -21 29 -20 15 -20 15 8 35 120 85 235 118 307 88z m1108 -127 c21 -126
96 -259 146 -259 21 0 25 -10 38 -102 l6 -48 -75 0 c-57 0 -76 4 -81 15 -4 11
-20 15 -55 15 -34 0 -51 -4 -55 -15 -7 -19 -35 -19 -56 0 -11 10 -49 17 -113
22 l-97 6 0 42 c0 68 -22 80 -142 80 -86 0 -101 -3 -113 -19 -8 -10 -16 -23
-17 -28 -2 -5 -34 1 -72 13 -58 19 -66 25 -51 33 10 6 33 23 50 38 30 26 37
27 92 22 53 -6 77 -1 209 41 170 53 190 64 210 110 11 28 22 36 66 49 29 9 60
20 68 26 24 16 34 6 42 -41z m-871 -169 c16 -9 19 -22 19 -91 l0 -79 -24 15
c-14 9 -33 15 -43 13 -14 -2 -22 9 -35 49 -20 58 -16 80 16 93 29 12 44 12 67
0z m-432 -68 c11 -20 -16 -69 -67 -124 -25 -27 -65 -37 -76 -19 -5 7 38 118
57 149 13 19 75 15 86 -6z m3696 -122 c162 -11 421 -50 513 -78 37 -12 58 -24
60 -35 5 -25 -21 -22 -139 17 -57 19 -165 44 -239 57 -122 21 -165 23 -440 22
-294 0 -366 -5 -535 -39 -19 -4 -26 -3 -20 3 13 13 210 42 350 52 159 12 280
12 450 1z m-4475 -14 c0 -3 -11 -17 -25 -32 -14 -15 -25 -37 -25 -50 0 -74
229 -139 525 -151 130 -5 152 -4 163 10 8 9 21 13 29 10 11 -4 14 -2 9 5 -4 7
-31 12 -63 12 -31 0 -54 2 -52 4 2 2 87 6 189 9 163 4 175 3 100 -6 -47 -6
-74 -13 -61 -15 19 -3 21 -6 10 -13 -23 -15 148 -10 282 7 193 25 338 73 402
132 27 26 37 20 14 -9 -45 -58 -249 -122 -494 -154 -164 -21 -227 -43 -231
-78 -3 -22 1 -26 30 -30 18 -2 -2 -5 -44 -5 l-78 -2 0 28 c0 15 -4 32 -8 39
-5 7 -63 16 -157 23 -411 29 -614 100 -593 206 4 20 78 77 78 60z m4464 -151
c33 -9 66 -21 73 -27 22 -18 15 -45 -14 -56 -77 -30 -126 -36 -288 -37 -140 0
-179 3 -223 18 -56 20 -81 49 -63 71 42 51 367 70 515 31z m-4950 -24 c-5 -5
-39 -18 -75 -29 -95 -29 -279 -120 -279 -138 0 -8 11 -19 26 -24 23 -9 518
-50 602 -50 19 0 33 -3 29 -6 -3 -3 -23 -6 -44 -6 -33 0 -35 -2 -15 -9 30 -11
188 -25 437 -39 110 -6 247 -15 305 -20 58 -5 106 -7 108 -5 6 5 -129 25 -243
35 l-110 9 115 -5 c276 -12 724 -41 835 -53 68 -8 69 -8 18 -10 -28 0 -54 -5
-57 -9 -5 -9 115 -19 614 -52 168 -11 400 -27 515 -35 116 -8 266 -17 335 -20
69 -3 168 -8 220 -11 107 -8 116 5 12 17 -50 6 -39 7 48 3 149 -5 542 -32 645
-44 69 -8 61 -8 -55 -4 -74 2 -166 7 -205 11 -38 3 -67 3 -64 -1 12 -13 894
-75 906 -63 3 3 -23 9 -56 13 -34 4 -60 8 -58 10 7 7 462 -15 682 -32 127 -9
256 -14 325 -10 101 5 122 9 175 36 33 16 83 47 110 67 70 52 473 318 455 300
-8 -8 -38 -30 -67 -50 -50 -33 -57 -47 -25 -47 9 0 12 3 9 7 -9 9 24 32 46 33
12 0 16 -4 10 -12 -4 -8 3 -7 17 3 14 9 39 24 55 34 45 28 115 85 115 94 0 18
-54 29 -170 36 -122 8 -214 23 -145 24 17 0 88 -4 159 -9 128 -9 176 -24 176
-53 0 -23 -628 -460 -700 -488 l-45 -17 -7 -108 c-4 -60 -10 -114 -13 -121 -2
-7 -19 -13 -38 -13 -31 0 -33 2 -31 28 2 15 5 66 7 115 l5 87 -117 0 c-64 0
-175 4 -247 10 -71 5 -203 14 -294 20 -293 17 -1291 79 -1445 90 -82 6 -418
28 -745 50 -728 49 -1263 86 -1670 115 -658 47 -1147 74 -1392 75 l-38 0 1
-67 c1 -38 4 -79 8 -93 8 -27 10 -28 186 -49 55 -7 145 -19 200 -26 l100 -13
-135 4 c-206 8 -401 23 -443 35 -20 5 -43 20 -51 32 -14 23 -29 218 -20 254 6
24 46 43 234 113 74 28 162 61 195 74 59 22 78 25 59 7z m3084 -207 c30 -8 28
-25 -7 -58 -28 -27 -30 -28 -107 -19 -46 5 -79 13 -81 20 -3 7 8 24 23 38 23
21 36 25 88 25 34 0 71 -3 84 -6z m-1930 -426 c58 -28 85 -74 71 -121 -5 -19
-32 -54 -68 -88 -61 -56 -66 -69 -27 -69 36 0 83 -36 102 -79 30 -64 47 -55
83 44 12 33 41 104 64 158 37 88 44 98 64 94 13 -2 31 2 40 9 10 7 26 14 36
14 9 0 17 5 17 10 0 6 5 10 10 10 6 0 10 -9 10 -20 0 -11 4 -28 9 -38 6 -9 18
-71 28 -137 17 -110 20 -120 41 -123 15 -2 22 -11 23 -25 0 -12 9 4 19 35 24
77 60 137 111 182 105 96 211 99 258 8 17 -31 -12 -134 -34 -126 -8 4 -15 1
-15 -5 0 -6 -4 -11 -9 -11 -18 0 -41 32 -41 56 0 36 -32 31 -75 -11 -47 -47
-76 -107 -82 -169 -4 -43 -1 -56 18 -80 19 -24 27 -28 59 -23 21 3 62 21 91
41 64 43 72 44 59 11 -12 -31 1 -32 34 -2 21 18 29 39 41 117 41 249 45 263
71 253 9 -3 19 -1 23 4 3 5 17 13 31 16 40 10 52 -27 34 -110 -7 -37 -12 -68
-10 -70 2 -2 25 16 52 40 92 82 178 147 194 147 9 0 25 9 35 20 10 11 23 20
29 20 5 0 -4 -15 -22 -33 -36 -37 -41 -53 -13 -37 30 15 36 12 17 -9 -13 -15
-14 -20 -4 -24 13 -5 -38 -61 -112 -121 -19 -16 -54 -46 -78 -68 l-43 -39 97
-120 c53 -66 99 -118 101 -115 2 2 -1 13 -8 23 -12 20 -4 102 8 89 3 -3 12 -1
20 5 7 6 13 8 13 4 0 -4 6 -3 13 3 10 9 16 4 26 -23 8 -23 21 -37 37 -41 58
-15 149 22 149 61 0 12 -30 33 -95 66 -111 58 -138 81 -146 124 -11 60 38 120
138 171 119 60 228 31 228 -61 0 -29 -28 -90 -37 -81 -3 3 -12 -2 -19 -12 -8
-10 -13 -12 -14 -4 0 6 -7 12 -15 12 -10 0 -15 10 -15 30 0 35 -11 37 -70 14
-39 -16 -66 -46 -56 -62 3 -5 40 -26 82 -48 106 -53 164 -109 164 -157 0 -64
-61 -117 -186 -162 -64 -23 -126 -34 -111 -18 7 6 -84 53 -92 47 -2 -1 18 -30
44 -63 25 -34 44 -61 42 -61 -2 0 -27 18 -57 40 -29 22 -56 38 -59 35 -2 -3 1
-11 7 -17 24 -24 11 -29 -19 -8 -24 18 -39 21 -77 17 -42 -5 -44 -5 -19 5 15
7 27 15 27 20 0 4 -24 31 -53 60 -29 29 -74 76 -99 105 l-45 52 -17 -75 c-9
-41 -16 -83 -16 -94 0 -11 -4 -20 -10 -20 -5 0 -7 7 -4 15 4 8 2 15 -3 15 -12
0 -31 -37 -36 -70 -4 -21 -4 -20 -6 7 -2 51 -10 66 -28 51 -14 -11 -15 -5 -11
55 2 37 1 67 -2 67 -3 0 -32 -27 -65 -61 -58 -58 -119 -99 -148 -99 -17 0 -96
35 -118 52 -26 21 -50 65 -63 113 -10 41 -13 44 -28 33 -16 -12 -16 -19 -3
-88 18 -89 18 -89 4 -70 -8 11 -9 1 -6 -40 5 -53 5 -54 -8 -25 -8 17 -14 36
-15 44 0 10 -3 11 -14 2 -11 -9 -15 -7 -20 11 -5 18 -8 20 -15 9 -7 -11 -13 0
-25 40 -8 30 -16 63 -18 74 -4 22 -15 22 -104 4 -52 -10 -52 -10 -74 -69 -12
-33 -28 -60 -35 -60 -7 0 -19 -13 -27 -30 -17 -38 -24 -38 -32 2 -6 30 -7 31
-21 12 -19 -25 -19 -10 1 56 11 38 13 55 5 58 -6 2 -8 9 -5 15 4 7 -17 -11
-47 -40 -30 -29 -84 -72 -121 -96 -37 -24 -65 -46 -62 -49 2 -3 -21 -18 -53
-34 -76 -38 -77 -38 -69 -25 4 6 1 11 -8 11 -9 0 -18 -12 -22 -27 -9 -44 -12
-50 -13 -25 -1 12 -5 22 -10 22 -12 0 -21 -37 -21 -87 0 -24 -5 -43 -11 -43
-5 0 -8 4 -5 9 8 13 -5 101 -15 101 -4 0 -10 -10 -12 -22 l-4 -23 -8 23 c-4
12 -8 22 -9 22 -1 0 -16 -4 -34 -9 -20 -6 -32 -6 -32 0 0 5 5 9 10 9 6 0 10 5
10 10 0 6 -9 10 -20 10 -23 0 -27 15 -5 24 21 8 19 29 -2 22 -10 -3 -4 5 12
19 17 14 35 25 41 25 24 0 32 29 36 133 4 85 2 107 -9 107 -13 0 -18 17 -15
53 1 9 -4 17 -11 17 -6 0 2 10 20 21 26 16 34 30 42 72 17 89 19 118 7 113
-96 -38 -116 -44 -121 -36 -3 6 -1 10 4 10 6 0 11 7 11 15 0 20 -19 19 -87 -5
-31 -11 -58 -18 -60 -17 -1 2 24 16 58 32 57 28 109 68 67 52 -10 -3 -18 -2
-18 3 0 21 161 89 261 110 74 15 193 5 247 -22z m-1423 -213 c9 -99 20 -234
25 -300 5 -66 16 -194 24 -285 8 -91 17 -214 21 -275 3 -60 9 -123 12 -140 3
-19 2 -26 -4 -20 -14 14 -28 157 -82 845 -15 191 -24 366 -17 360 3 -3 12 -87
21 -185z m3899 123 c4 -24 14 -94 22 -157 13 -109 22 -130 51 -131 7 0 10 -7
7 -15 -4 -8 -2 -15 4 -15 5 0 17 21 27 48 38 100 126 195 222 239 45 21 66 24
115 21 53 -4 64 -9 85 -34 19 -23 22 -36 17 -64 -9 -52 -32 -90 -49 -84 -8 4
-15 1 -15 -5 0 -8 -6 -7 -20 1 -12 8 -20 24 -20 40 0 53 -68 30 -143 -48 -71
-74 -100 -182 -60 -226 24 -27 80 -23 127 10 57 39 57 52 2 52 -34 0 -46 4
-47 15 -5 70 -5 69 37 76 21 4 78 10 127 14 l87 7 0 -34 c0 -19 -4 -38 -9 -43
-5 -6 -28 -70 -52 -144 -31 -97 -45 -129 -50 -115 -6 16 -9 14 -23 -18 -9 -21
-16 -45 -16 -53 0 -9 -4 -14 -9 -11 -5 3 -7 24 -4 46 6 40 -10 57 -21 23 -3
-10 -4 6 -2 35 2 28 2 52 1 52 -1 0 -23 -11 -49 -25 -58 -31 -78 -31 -135 -2
-58 30 -101 84 -108 136 -5 34 -9 41 -28 41 -21 0 -21 -3 -14 -47 4 -27 8 -61
8 -78 1 -24 -1 -27 -10 -15 -8 11 -9 0 -6 -43 6 -59 -6 -70 -18 -16 -4 16 -12
28 -18 26 -7 -2 -17 5 -24 17 -7 12 -12 15 -13 9 0 -7 -4 -13 -9 -13 -5 0 -12
21 -16 48 -14 100 -10 95 -79 88 -105 -12 -105 -12 -142 -90 -19 -39 -34 -63
-34 -53 0 31 -19 18 -45 -30 -22 -41 -25 -43 -20 -18 6 38 -10 68 -24 45 -21
-31 -18 -2 4 50 17 40 20 56 11 58 -15 3 -17 62 -3 62 5 0 4 6 -3 14 -9 12 -6
16 24 21 35 7 44 20 154 247 2 4 -9 6 -25 3 -15 -2 -65 -9 -109 -16 l-81 -11
-15 -57 c-9 -31 -33 -128 -54 -216 -29 -119 -40 -152 -44 -130 l-5 30 -22 -36
c-12 -19 -27 -46 -33 -60 -8 -19 -9 -14 -4 27 3 33 2 54 -5 59 -6 3 -11 1 -11
-4 0 -6 -5 -11 -10 -11 -6 0 -8 17 -4 43 7 52 53 295 61 321 6 20 -1 20 -121
0 -33 -6 -38 -5 -33 8 3 9 3 19 -1 23 -12 12 -10 64 3 75 7 6 53 16 101 22 49
6 95 16 102 21 15 11 232 20 276 11 28 -6 29 -7 11 -20 -17 -13 -17 -14 0 -20
15 -6 13 -9 -11 -20 l-29 -12 40 -1 c36 -1 42 3 59 34 14 26 24 34 38 29 18
-5 84 13 103 28 17 15 22 8 29 -34z m1101 -72 c10 -9 25 -14 35 -11 10 3 21 2
24 -4 3 -5 -13 -12 -36 -16 -24 -4 -52 -14 -63 -21 -19 -14 -19 -14 5 -15 47
-1 -10 -16 -86 -23 -178 -16 -171 -15 -177 -44 -3 -15 -9 -35 -13 -45 -6 -17
-1 -19 62 -17 38 1 82 2 98 1 28 -1 29 -2 10 -16 -19 -14 -18 -14 4 -15 33 0
27 -16 -10 -25 -28 -6 -30 -8 -14 -14 30 -11 3 -18 -102 -26 l-90 -7 -13 -47
c-7 -25 -12 -48 -11 -50 1 -2 71 -3 155 -2 88 1 158 -3 167 -9 12 -8 9 -10
-13 -10 -16 0 -26 -4 -22 -10 3 -5 39 -11 78 -12 40 0 56 -3 37 -5 -111 -10
-140 -15 -140 -24 0 -5 12 -9 27 -9 14 0 24 -2 22 -4 -2 -2 -76 -10 -164 -16
-88 -7 -172 -18 -187 -25 -20 -10 -28 -10 -31 -1 -3 6 -9 0 -15 -14 -8 -18
-11 -20 -11 -7 -1 12 -9 17 -30 17 -23 0 -30 6 -36 28 -16 57 -14 71 8 74 27
4 63 106 44 123 -19 16 -9 73 14 80 20 7 30 25 42 76 6 22 3 28 -16 33 -15 3
-22 13 -23 31 -1 14 2 25 7 25 5 0 9 8 9 18 0 33 64 51 184 51 60 1 112 4 115
7 13 13 140 -3 156 -20z m-4360 -535 c25 -5 31 -12 33 -39 4 -42 -9 -46 -103
-37 -68 6 -76 9 -81 31 -11 44 0 54 63 53 32 -1 72 -4 88 -8z m1714 -26 c33
-10 69 -31 88 -50 33 -33 33 -35 19 -63 -16 -31 -62 -65 -141 -102 -38 -18
-45 -25 -30 -27 124 -24 185 -64 185 -121 0 -31 -8 -44 -53 -87 -58 -55 -128
-92 -252 -137 -62 -22 -71 -27 -40 -23 50 6 41 2 -70 -31 -114 -33 -138 -38
-100 -20 38 19 9 20 -50 2 -34 -10 -41 -17 -51 -51 l-12 -40 -1 37 c-2 68 -50
17 -52 -55 -1 -18 -5 -43 -10 -57 -6 -16 -7 2 -3 53 4 71 3 78 -13 75 -9 -2
-20 -14 -23 -28 -5 -22 -7 -23 -13 -7 -14 36 -8 45 36 50 50 5 389 106 482
143 70 28 85 45 19 21 -102 -37 -109 -38 -148 -22 -20 8 -36 13 -36 10 0 -3
-9 -1 -20 5 -14 8 -20 8 -20 0 0 -6 -4 -9 -9 -6 -4 3 -40 -3 -80 -14 -88 -25
-99 -25 -79 -2 9 9 19 31 22 48 l7 31 -58 -5 c-32 -2 -58 -5 -59 -6 -1 0 -4
-20 -8 -44 -5 -32 -3 -42 5 -36 7 4 10 2 7 -7 -2 -7 -36 -23 -74 -35 -38 -12
-60 -22 -50 -23 11 -1 17 -4 13 -7 -3 -4 -19 -3 -34 1 -26 6 -26 7 -9 17 11 6
40 16 64 22 l45 12 24 89 c12 50 25 100 29 113 5 18 2 22 -17 23 -23 0 -23 1
-4 9 17 7 17 9 3 9 -10 1 -18 5 -18 11 0 5 8 14 18 19 16 10 16 10 -2 11 -25
0 -13 12 26 26 27 9 35 21 60 88 l28 79 -37 -7 c-53 -10 -122 -16 -100 -10 25
8 21 21 -10 29 l-26 6 31 19 c39 24 41 32 5 24 -27 -6 -27 -6 -8 9 11 8 63 24
115 36 123 26 402 24 489 -4z m871 -4 c41 4 111 8 155 7 l80 0 -50 -13 c-43
-11 -46 -13 -20 -15 26 -1 27 -3 10 -10 -30 -13 60 -12 210 1 71 6 145 8 172
3 32 -5 40 -9 25 -12 -30 -5 -18 -22 16 -23 20 -1 13 -5 -28 -19 -42 -14 -49
-18 -27 -19 15 -1 27 -5 27 -10 0 -5 -59 -14 -130 -21 l-131 -13 -19 -38 c-11
-21 -20 -41 -20 -45 0 -3 37 -3 83 0 48 5 92 3 107 -3 25 -10 25 -10 2 -10
-29 -1 -19 -21 11 -22 20 -1 21 -2 2 -6 -11 -3 -31 -10 -45 -16 l-25 -10 25
-7 c18 -4 4 -8 -50 -14 -135 -12 -160 -17 -160 -33 0 -8 -7 -28 -16 -44 -8
-17 -13 -33 -11 -36 3 -3 72 0 154 5 81 6 166 7 188 2 39 -7 39 -8 8 -9 -18 0
-33 -5 -33 -11 0 -15 46 -23 100 -18 27 3 47 2 45 -2 -3 -4 -40 -10 -82 -13
-43 -3 -91 -9 -107 -13 -21 -5 -27 -4 -22 5 4 6 16 11 27 11 11 0 17 5 14 10
-3 6 -15 10 -26 10 -12 0 -17 5 -14 10 5 8 -37 9 -134 4 l-140 -7 9 32 c10 35
8 37 -47 43 -25 4 -34 0 -42 -19 -6 -13 -11 -32 -11 -43 0 -11 -12 -25 -27
-32 -20 -10 -27 -20 -25 -36 3 -17 -2 -22 -19 -22 -18 0 -20 2 -8 16 10 13 10
17 0 24 -9 5 -3 11 21 19 30 10 37 19 51 65 21 64 21 70 3 63 -16 -6 -17 28
-1 52 6 10 4 12 -6 7 -8 -4 -5 0 5 8 11 9 27 16 36 16 11 0 21 14 28 39 16 51
15 61 -4 61 -14 0 -14 3 -4 15 9 11 9 15 1 15 -7 0 -9 5 -5 11 4 8 -3 9 -22 5
-16 -3 -59 -8 -95 -12 l-67 -6 -51 -137 c-98 -258 -116 -302 -120 -290 -2 6 8
41 23 78 14 36 27 75 29 86 1 11 6 25 9 30 4 7 -12 10 -48 8 -38 -1 -53 1 -48
9 4 6 3 8 -3 5 -6 -4 -25 -53 -43 -109 -18 -57 -37 -107 -43 -113 -7 -7 -8 -4
-4 7 3 9 11 36 17 60 7 24 32 102 57 173 63 180 62 178 27 172 -16 -3 -49 -9
-74 -12 -25 -3 -58 -8 -75 -11 -29 -5 -29 -4 -10 11 19 15 19 16 -3 22 l-23 6
23 24 c19 20 20 26 8 33 -22 14 23 27 141 40 57 7 109 16 114 20 14 11 58 17
70 9 6 -3 44 -2 85 2z m1010 -19 c22 -10 36 -26 38 -39 2 -13 8 -23 14 -23 13
0 2 -46 -18 -77 -8 -13 -20 -20 -28 -17 -9 3 -17 -3 -22 -18 l-7 -23 -9 24
c-7 19 -11 21 -22 11 -12 -9 -15 -6 -18 22 -4 41 -21 45 -92 23 -62 -20 -116
-59 -101 -74 6 -5 62 -30 126 -54 199 -77 249 -110 249 -166 0 -16 -4 -33 -10
-36 -5 -3 -10 -14 -10 -23 0 -10 -14 -23 -32 -31 -44 -20 -26 -23 67 -12 44 4
84 5 88 1 4 -3 -43 -12 -105 -18 -80 -8 -129 -18 -168 -35 -30 -14 -90 -40
-133 -57 -43 -18 -75 -35 -72 -38 5 -6 -82 -45 -128 -57 -20 -5 -20 -5 3 10
l25 16 -25 -7 c-34 -9 -216 -81 -252 -100 -17 -9 -32 -13 -36 -10 -3 3 30 22
72 42 43 19 76 37 74 40 -3 2 -79 -21 -169 -51 -90 -30 -168 -54 -174 -52 -5
2 13 12 40 21 28 10 77 28 110 41 93 36 206 67 244 67 35 0 250 74 351 121
l55 25 -48 1 c-26 1 -61 8 -77 16 -29 15 -34 14 -124 -25 -52 -22 -97 -40
-100 -40 -2 0 -39 -16 -81 -36 -43 -19 -79 -33 -81 -31 -4 4 84 46 226 108
147 65 275 134 278 151 4 20 -26 36 -193 99 -116 45 -165 80 -165 121 0 62 93
135 233 183 85 29 159 32 207 7z m-1477 -18 c-3 -9 0 -20 7 -24 11 -7 5 -33
-27 -127 -23 -65 -53 -154 -68 -198 -35 -101 -57 -158 -66 -169 -9 -11 3 39
30 123 12 35 19 66 17 68 -10 10 -66 13 -66 4 0 -6 -5 -11 -11 -11 -5 0 -7 5
-4 10 3 6 -2 10 -11 10 -10 0 -15 -3 -11 -6 3 -4 0 -12 -7 -20 -8 -7 -24 -55
-37 -106 -14 -55 -25 -84 -27 -70 -3 22 8 62 89 327 41 132 68 193 79 175 7
-11 14 -11 42 1 18 7 38 13 45 11 6 -1 14 2 18 8 10 16 15 12 8 -6z m-2095
-57 c17 -12 15 -66 -3 -73 -9 -4 -49 -3 -90 1 l-75 7 0 37 c0 21 2 40 4 42 7
7 150 -5 164 -14z m-245 -101 c4 -6 6 -24 5 -41 -3 -25 -9 -31 -40 -38 -25 -6
-52 -4 -85 5 -41 12 -48 17 -51 42 -7 54 0 58 86 51 42 -4 80 -13 85 -19z
m246 -20 c20 -24 10 -70 -16 -74 -13 -2 -23 -7 -23 -10 0 -4 10 -12 23 -17 28
-13 37 -72 12 -81 -9 -4 -49 -3 -88 2 l-72 9 -3 37 c-3 36 -2 37 35 40 l38 3
-37 17 c-34 15 -38 21 -38 52 l0 36 79 0 c56 0 82 -4 90 -14z m-251 -88 c7 -7
12 -28 12 -46 l0 -35 -81 6 c-44 4 -84 9 -90 12 -5 4 -9 22 -9 41 l0 34 78 0
c47 0 83 -5 90 -12z m4942 -57 c20 -5 26 -14 28 -44 l3 -37 -58 0 c-32 0 -75
3 -95 6 -35 6 -38 9 -38 39 0 17 3 35 7 38 8 9 120 7 153 -2z m-20 -119 c43
-7 45 -8 45 -42 0 -34 -2 -35 -40 -38 -22 -2 -64 -1 -92 3 l-53 6 0 40 0 39
48 -1 c26 0 67 -4 92 -7z m-2400 -42 c0 -5 -8 -31 -18 -57 l-18 -48 340 -2
c188 0 357 -6 376 -11 24 -6 -55 -8 -240 -4 -403 7 -787 -18 -1040 -69 -231
-46 -188 -50 113 -9 267 36 581 60 657 49 30 -4 154 -6 275 -4 l220 4 -165 -9
c-258 -15 -494 -39 -630 -66 -145 -28 -137 -27 -124 -14 15 15 247 60 354 69
l95 8 -100 1 c-142 2 -406 -24 -689 -69 -105 -16 -206 -29 -225 -29 -34 1 -35
1 -16 16 58 43 381 103 650 121 135 8 139 10 155 77 7 31 17 56 22 56 4 0 8
-4 8 -10z m-2996 -25 c-17 -43 42 -59 297 -80 102 -9 201 -20 220 -25 31 -9
216 -26 689 -64 96 -7 154 -14 129 -15 -26 0 -217 10 -425 24 -209 13 -440 27
-514 30 -74 3 -177 8 -227 11 l-93 5 0 -26 c0 -39 -37 -34 -47 6 -7 24 -17 34
-45 44 -34 11 -37 11 -42 -9 -3 -12 -6 -37 -6 -55 0 -25 -3 -32 -10 -25 -6 6
-10 43 -8 85 3 74 3 74 38 91 43 22 51 22 44 3z m5181 -35 c22 -8 26 -15 23
-42 -3 -32 -5 -33 -53 -36 -79 -4 -129 9 -133 37 -7 44 3 51 72 51 36 0 77 -4
91 -10z m253 -22 c7 -7 12 -24 12 -39 0 -36 -23 -43 -111 -34 -62 6 -71 10
-79 31 -18 46 -5 54 84 54 50 0 87 -5 94 -12z"/>
<path d="M3415 4630 c-4 -33 -8 -60 -8 -60 -1 0 -26 9 -55 20 -69 27 -104 25
-140 -5 -46 -39 -64 -96 -70 -218 -5 -118 5 -187 44 -315 31 -98 62 -135 151
-178 53 -26 66 -28 148 -25 250 11 272 9 390 -34 103 -36 117 -39 225 -39 100
-1 122 2 168 23 139 62 229 264 220 490 -4 90 -8 114 -29 151 -40 72 -66 85
-167 85 -48 0 -109 -3 -135 -7 l-49 -8 6 33 6 32 -13 -35 c-13 -34 -16 -35
-93 -48 -43 -8 -140 -14 -214 -14 -142 0 -230 16 -333 61 l-48 21 7 65 c4 36
4 65 1 65 -3 0 -8 -27 -12 -60z m-10 -283 c11 -3 32 -8 47 -11 27 -6 28 -8 27
-74 0 -37 0 -71 0 -77 1 -5 17 -11 37 -12 20 -1 43 -4 50 -7 17 -7 19 -46 2
-46 -9 0 -9 -3 0 -12 19 -19 14 -49 -10 -56 l-22 -5 23 -9 c34 -12 23 -43 -14
-42 -50 2 -125 15 -164 27 -30 10 -36 17 -39 45 -2 17 -7 32 -11 32 -4 0 -6
-13 -3 -30 5 -33 -3 -36 -41 -19 -22 10 -24 17 -26 91 l-1 81 40 -6 c40 -5 40
-5 40 29 0 20 5 34 12 34 9 0 9 3 0 12 -13 13 -16 50 -5 61 4 4 14 5 22 3 9
-2 25 -7 36 -9z m803 -99 c3 -21 -1 -28 -15 -28 -17 -1 -17 -1 0 -11 15 -9 17
-18 12 -48 l-6 -38 55 5 c55 4 56 4 56 -22 0 -22 -4 -26 -32 -27 -32 -2 -32
-2 -5 -6 64 -10 40 -60 -31 -66 l-47 -3 53 -2 c44 -2 52 -5 52 -21 0 -22 -19
-31 -66 -31 -25 0 -34 4 -35 18 -1 16 -2 16 -6 0 -6 -23 -33 -29 -105 -26 -43
2 -58 7 -58 18 0 12 -2 12 -9 2 -5 -9 -24 -12 -52 -10 -37 2 -45 7 -47 26 -3
20 1 22 40 23 l43 2 -40 6 c-35 5 -40 10 -43 34 l-3 29 55 -3 c31 -1 59 0 63
4 3 4 -22 7 -56 7 -59 0 -62 1 -59 23 3 19 10 22 52 25 32 2 52 -1 57 -10 6
-8 9 5 9 33 0 25 3 49 7 53 4 4 6 23 4 42 l-3 35 79 -3 c77 -3 78 -3 81 -30z"/>
<path d="M201 2197 c0 -40 4 -92 7 -117 6 -39 11 -45 40 -54 18 -5 35 -6 39
-2 8 8 6 147 -2 187 -4 19 -17 31 -46 42 l-39 15 1 -71z"/>
<path d="M1625 1494 c-11 -3 -30 -7 -42 -9 -22 -5 -24 -14 -50 -189 l-5 -39
62 34 c85 47 170 124 170 154 0 14 -8 28 -17 33 -23 12 -92 21 -118 16z"/>
<path d="M2469 1054 c-8 -3 -27 -34 -41 -70 l-26 -66 24 6 c52 13 191 67 223
87 22 13 30 24 24 30 -11 11 -177 21 -204 13z"/>
<path d="M2450 815 c-8 -2 -31 -6 -51 -10 -36 -5 -37 -6 -70 -105 -18 -55 -30
-102 -28 -105 9 -8 169 45 253 84 102 47 153 88 134 107 -22 22 -180 41 -238
29z"/>
<path d="M5418 5360 c-30 -23 -50 -70 -68 -155 -7 -33 -24 -93 -37 -134 -13
-41 -26 -99 -30 -130 -3 -31 -14 -67 -23 -81 -10 -14 -26 -51 -35 -83 -12 -44
-25 -64 -52 -85 -97 -74 -96 -72 -94 -146 1 -56 7 -79 40 -144 22 -42 51 -92
65 -111 24 -32 25 -36 9 -53 -19 -22 -10 -36 12 -18 10 8 15 9 15 1 0 -6 13
-11 29 -11 32 0 90 -39 59 -40 -23 0 -23 -5 3 -40 18 -24 20 -33 11 -60 -11
-30 -10 -32 26 -47 53 -22 161 -30 173 -12 5 8 9 53 9 102 0 69 3 87 14 87 8
0 18 -9 21 -20 3 -11 11 -20 16 -20 5 0 9 -6 9 -13 0 -7 5 -18 12 -25 9 -9 17
-4 35 20 27 38 31 18 8 -39 -21 -51 -13 -51 21 -1 19 29 28 55 27 81 0 36 17
51 32 27 3 -5 11 -10 17 -10 6 0 4 8 -5 18 -16 17 -13 25 34 118 51 100 55
110 104 241 26 70 27 74 11 99 -10 14 -33 35 -52 46 -19 11 -43 37 -52 57 -14
29 -26 39 -67 52 -34 11 -55 24 -65 43 -9 16 -29 31 -52 38 -31 9 -43 8 -83
-12 -25 -12 -48 -20 -51 -18 -4 4 29 137 71 288 17 63 20 133 5 161 -11 20
-60 49 -83 49 -8 0 -26 -9 -39 -20z m187 -474 c21 -9 35 -22 36 -33 4 -74 -16
-167 -34 -160 -94 39 -117 52 -117 62 0 19 29 97 46 122 17 27 23 28 69 9z
m145 -96 c11 -11 20 -33 20 -51 0 -42 -20 -119 -32 -119 -5 0 -30 12 -54 26
-32 19 -43 31 -39 42 3 8 10 36 16 60 5 25 12 49 15 54 10 15 54 8 74 -12z"/>
</g>
</svg>
