<?xml version="1.0" standalone="no"?>
<!DOCTYPE svg PUBLIC "-//W3C//DTD SVG 20010904//EN"
 "http://www.w3.org/TR/2001/REC-SVG-20010904/DTD/svg10.dtd">
<svg version="1.0" xmlns="http://www.w3.org/2000/svg"
 width="720.000000pt" height="544.000000pt" viewBox="0 0 720.000000 544.000000"
 preserveAspectRatio="xMidYMid meet">
<metadata>
Created by potrace 1.16, written by Peter Selinger 2001-2019
</metadata>
<g transform="translate(0.000000,544.000000) scale(0.100000,-0.100000)"
fill="#000000" stroke="none">
<path d="M3840 5358 c-78 -11 -246 -66 -328 -107 -57 -29 -192 -129 -221 -165
-8 -10 -32 -26 -53 -37 -45 -23 -98 -99 -98 -139 0 -41 -41 -93 -91 -117 -61
-28 -128 -105 -175 -200 -38 -75 -39 -82 -39 -178 0 -90 3 -105 28 -153 35
-67 84 -121 173 -192 63 -51 79 -58 131 -64 57 -6 59 -7 83 -54 25 -46 137
-167 236 -253 l51 -44 -70 0 c-80 0 -97 -14 -97 -78 0 -30 4 -40 20 -44 11 -3
17 -9 14 -14 -3 -5 5 -13 18 -18 l23 -9 -25 -5 c-14 -3 -43 -9 -65 -13 -36 -7
-38 -8 -12 -12 23 -3 27 -7 21 -20 -4 -9 -22 -61 -40 -114 -18 -53 -38 -105
-44 -115 -8 -13 -10 -14 -7 -2 3 9 1 22 -4 30 -7 12 -9 11 -9 -2 0 -18 -27
-45 -36 -37 -9 9 65 299 90 353 35 77 69 112 119 121 l42 7 -50 12 c-27 6 -69
21 -92 33 -34 18 -59 22 -128 22 -73 0 -95 -4 -149 -29 -106 -48 -174 -123
-212 -234 -13 -40 -19 -46 -51 -52 -21 -4 -40 -2 -47 5 -6 6 -25 75 -43 153
-50 219 -51 194 7 257 57 61 85 109 95 160 5 29 0 44 -29 88 -45 67 -58 153
-45 289 5 54 11 111 14 128 3 16 7 55 9 85 3 30 10 90 16 132 10 70 9 80 -9
117 -23 44 -59 59 -104 42 -53 -20 -84 -134 -93 -344 -3 -73 -8 -138 -10 -146
-3 -9 -20 1 -54 33 -56 53 -87 58 -150 26 -22 -11 -57 -20 -78 -20 -25 0 -50
-9 -72 -25 -19 -14 -38 -25 -43 -25 -23 0 -79 -35 -97 -61 -20 -26 -20 -35
-10 -157 7 -93 20 -163 45 -252 l36 -124 -24 -20 c-58 -50 -59 -145 -6 -385
33 -148 57 -212 96 -253 14 -14 42 -59 62 -100 44 -89 96 -128 201 -152 68
-16 113 -11 100 11 -3 4 22 11 55 14 33 3 78 12 100 19 22 7 46 14 53 16 7 2
10 8 7 14 -4 6 7 10 27 10 132 2 236 19 266 43 9 7 11 6 6 -6 -3 -8 -20 -22
-37 -30 -41 -19 -267 -64 -372 -73 -62 -6 -73 -9 -50 -15 48 -11 131 -10 162
2 23 8 253 59 271 59 2 0 19 16 37 35 17 20 46 39 62 44 l31 9 11 -55 c22
-112 99 -237 160 -263 26 -10 51 -51 51 -81 0 -16 -122 -10 -134 6 -16 22 -69
22 -110 0 -33 -18 -36 -18 -54 -2 -14 13 -46 20 -118 25 -98 7 -99 7 -96 32 8
74 -29 100 -147 100 -81 0 -111 -12 -111 -46 0 -18 2 -18 -77 12 -155 59 -529
96 -753 75 -66 -6 -126 -12 -133 -14 -6 -1 -13 9 -15 22 -3 20 -8 22 -34 17
-17 -3 -43 -6 -59 -6 -22 0 -29 -5 -29 -19 0 -15 -16 -23 -82 -40 -46 -12
-108 -31 -139 -41 -71 -25 -79 -25 -79 3 0 34 -19 47 -70 47 -57 0 -70 -12
-70 -67 l0 -42 -74 0 c-93 1 -133 -17 -138 -62 -3 -29 -8 -32 -143 -83 -531
-202 -549 -210 -575 -241 -10 -12 -11 -43 -4 -153 l9 -137 32 -20 c21 -13 34
-30 37 -50 3 -16 26 -291 51 -610 25 -319 49 -609 52 -645 l5 -66 -40 -18
c-23 -10 -51 -29 -63 -42 -20 -21 -21 -30 -16 -95 11 -135 13 -136 597 -174
270 -18 977 -66 1480 -100 821 -57 2344 -169 2535 -187 66 -6 390 -13 719 -15
487 -3 601 -2 607 9 7 10 9 10 9 1 0 -10 25 -13 91 -13 l91 0 217 127 c119 69
241 141 271 158 30 17 80 47 111 67 62 39 69 56 69 154 0 48 -3 55 -36 83
l-37 29 7 69 c14 152 38 465 65 878 l30 435 29 29 c26 27 29 37 35 122 4 51 7
124 7 164 0 119 -10 123 -360 150 -174 13 -379 19 -307 8 43 -7 32 -20 -22
-26 -28 -3 -64 -13 -81 -22 l-31 -16 36 -41 c24 -29 35 -51 34 -72 0 -21 -3
-26 -7 -15 -4 9 -18 29 -31 46 l-24 29 -46 -45 c-90 -90 -293 -146 -669 -186
l-63 -7 3 -42 c3 -40 4 -41 43 -47 22 -4 -10 -6 -75 -6 -63 0 -105 2 -92 4 19
4 22 11 22 47 l0 43 -172 7 c-175 7 -328 24 -470 51 -43 8 -84 12 -93 9 -8 -4
-15 -1 -15 5 0 6 -37 28 -82 50 -138 66 -187 134 -147 201 16 26 47 50 64 50
4 0 -3 -13 -15 -29 -11 -17 -21 -46 -22 -67 -2 -46 15 -60 140 -120 149 -71
378 -113 637 -117 301 -4 522 9 658 37 197 40 323 101 345 166 18 50 -10 49
-83 -5 -46 -33 -63 -41 -37 -15 13 12 22 24 20 26 -2 2 -28 -3 -58 -11 -30 -8
-84 -18 -120 -21 -36 -4 -69 -10 -75 -14 -5 -4 -83 -11 -173 -15 -189 -8 -218
-14 -214 -41 2 -10 4 -25 4 -32 1 -13 20 -19 73 -25 17 -1 -17 -6 -75 -10 -58
-4 -141 -3 -185 2 l-80 8 98 2 98 1 -16 29 c-23 45 -53 61 -112 61 -66 0 -274
27 -305 40 -16 6 -1 7 47 2 108 -11 268 -8 395 6 63 8 156 18 205 22 113 11
136 16 147 32 6 10 8 10 8 -1 0 -9 4 -10 13 -3 6 5 39 15 72 22 33 7 100 28
149 48 l89 35 -29 24 -29 23 33 -11 c53 -18 105 5 117 54 6 22 3 27 -19 33
-44 11 -23 29 38 32 36 2 68 -3 89 -12 l32 -16 -24 20 c-30 26 -130 32 -170
10 -10 -4 -61 2 -126 16 -60 13 -162 28 -225 34 -99 9 -117 14 -133 33 -46 57
-49 64 -38 104 6 21 11 80 11 132 0 74 -4 104 -20 135 -23 48 -81 111 -122
132 -41 21 -120 29 -147 15 -19 -11 -29 -8 -69 18 -26 16 -87 45 -137 65 -76
29 -91 38 -99 63 -14 43 -61 107 -108 148 -47 40 -151 95 -182 95 -31 0 -13 9
49 25 152 40 239 130 281 293 20 78 18 192 -5 192 -3 0 -6 -42 -6 -92 0 -87
-3 -98 -38 -173 -37 -77 -71 -125 -90 -125 -5 0 6 17 23 37 18 20 44 61 57 91
l24 55 -21 21 c-26 28 -27 76 -2 76 10 0 23 -5 30 -12 9 -9 12 0 12 43 0 47
-5 63 -31 98 -16 23 -35 41 -42 38 -12 -3 -24 -87 -12 -87 3 0 14 6 25 12 29
18 47 -3 34 -39 -8 -24 -15 -28 -44 -27 l-35 1 -30 -91 c-31 -96 -82 -213 -96
-222 -33 -20 16 -33 52 -14 25 14 25 -2 -1 -18 -35 -21 -124 -52 -153 -52
l-28 0 30 38 c42 52 136 245 157 321 18 64 18 64 -4 79 -12 8 -22 23 -22 34 0
16 5 19 25 16 14 -3 28 -2 30 3 14 22 22 104 13 137 -7 25 -7 37 0 40 6 2 0
19 -14 39 -13 20 -24 39 -24 43 0 11 49 22 60 15 13 -8 13 -47 0 -79 -6 -17
-6 -27 1 -32 6 -3 19 -25 29 -48 18 -43 70 -99 70 -77 0 7 -13 30 -30 51 -55
70 -68 146 -27 173 19 13 22 23 21 76 -1 48 -7 69 -28 101 -14 22 -26 53 -26
70 0 105 -158 340 -310 461 -122 96 -325 182 -504 214 -96 16 -262 18 -366 3z
m80 -197 c0 -4 -26 -11 -57 -14 -78 -8 -167 -40 -230 -82 -72 -47 -184 -155
-224 -215 -19 -27 -38 -51 -44 -53 -18 -7 -95 32 -95 47 0 13 9 14 43 10 l42
-6 51 74 c46 67 60 78 160 137 62 37 141 74 184 87 76 23 170 31 170 15z m360
-66 c47 -15 108 -39 135 -52 81 -41 199 -129 254 -189 62 -67 133 -208 157
-311 15 -63 20 -73 39 -73 22 0 45 -17 45 -33 0 -5 -13 -7 -29 -5 l-29 4 -4
-100 c-3 -56 -12 -119 -21 -141 -8 -22 -35 -94 -60 -160 -60 -162 -87 -218
-142 -299 -37 -54 -44 -70 -34 -78 11 -7 11 -8 -1 -6 -8 2 -29 -7 -45 -18 -91
-64 -230 -104 -391 -111 -172 -8 -349 30 -513 111 -135 65 -310 215 -368 314
-27 46 -25 66 4 39 17 -15 18 -13 19 16 2 49 11 109 43 293 16 93 35 243 42
332 l12 164 45 60 c80 107 227 209 323 224 35 6 36 5 43 -32 4 -22 13 -104 21
-184 11 -132 13 -138 14 -64 0 44 -6 129 -14 189 -9 59 -13 110 -11 113 14 13
185 31 276 28 80 -3 125 -10 190 -31z m-1118 -304 c20 -7 24 -17 26 -58 3 -71
24 -127 50 -131 24 -4 33 -22 25 -51 -5 -19 -15 -23 -60 -21 -5 1 -11 -19 -14
-42 -27 -183 -58 -285 -106 -345 l-33 -42 30 -18 c35 -20 41 -40 8 -22 -67 36
-166 124 -154 136 2 3 20 -3 40 -11 46 -19 62 -13 85 33 27 51 40 104 51 196
6 44 13 92 16 107 6 25 3 27 -37 35 -35 7 -45 13 -47 31 -3 19 1 22 32 23 20
1 42 2 49 3 8 1 12 20 11 59 -2 89 -42 120 -97 77 -14 -11 -29 -20 -34 -20 -4
0 14 16 41 35 51 36 77 42 118 26z m-711 -341 c16 -9 19 -22 19 -91 0 -78 0
-80 -21 -68 -17 8 -32 8 -61 -1 -22 -6 -41 -10 -43 -8 -4 4 -9 87 -7 124 3 45
65 69 113 44z m-147 -46 c11 -30 7 -134 -6 -138 -36 -11 -75 -14 -88 -6 -8 5
-15 32 -18 68 -4 53 -2 61 19 76 30 21 85 21 93 0z m397 -879 c30 -144 36
-210 20 -219 -5 -3 -12 -18 -16 -33 -6 -27 -71 -103 -86 -103 -5 0 -6 10 -3
23 15 63 12 123 -7 154 -28 45 -41 94 -29 109 8 8 4 13 -15 18 -14 4 -25 10
-25 15 0 5 9 7 20 4 23 -6 28 18 7 39 -8 7 -12 19 -9 26 2 8 -15 5 -55 -10
-45 -17 -79 -22 -150 -22 -60 0 -93 -3 -93 -10 0 -20 39 -161 59 -216 11 -30
20 -69 21 -87 0 -40 20 -84 33 -76 5 3 7 0 5 -8 -3 -8 2 -19 11 -26 14 -11 14
-12 1 -13 -28 0 -134 31 -158 46 -12 8 -33 31 -46 52 -27 43 -80 251 -94 367
-10 79 -4 178 11 203 13 20 27 3 27 -34 0 -104 121 -175 269 -157 106 12 185
65 197 131 3 20 13 48 22 61 15 25 15 25 34 -35 11 -32 33 -122 49 -199z m636
185 c23 -10 43 -23 43 -28 0 -5 -18 -17 -40 -28 -22 -10 -40 -22 -40 -26 0 -5
-8 -8 -17 -8 -10 0 -24 -4 -32 -9 -12 -8 -12 -12 -2 -24 10 -13 8 -20 -11 -41
-59 -67 -99 -106 -109 -106 -6 0 -9 -7 -5 -15 8 -23 -8 -18 -33 9 -50 54 -144
72 -205 41 -15 -8 -30 -15 -32 -15 -10 0 33 91 64 133 92 128 277 180 419 117z
m1510 -91 c32 -12 77 -35 100 -51 75 -51 163 -178 123 -178 -5 0 -10 9 -10 19
0 11 -15 31 -32 44 -31 23 -38 24 -109 17 -42 -5 -90 -15 -107 -24 -40 -21
-113 -94 -137 -139 -16 -31 -25 -37 -50 -36 l-30 2 28 4 c21 3 33 15 49 49
l22 44 -22 20 c-27 26 -28 40 -2 47 14 4 19 11 15 23 -3 9 1 23 10 30 24 20
19 26 -36 43 -56 19 -159 23 -159 7 0 -5 -7 -10 -15 -10 -48 0 61 88 123 100
78 16 179 11 239 -11z m-1239 -181 c103 -114 320 -164 450 -103 47 22 68 25
161 25 108 0 131 -7 145 -40 3 -8 4 -4 3 10 -1 14 -9 28 -17 32 -12 5 -11 7 3
7 10 1 15 6 12 11 -3 6 5 10 19 10 14 0 31 9 39 21 15 20 15 20 21 -8 3 -15 8
-80 11 -143 3 -63 9 -128 12 -144 5 -26 3 -28 -16 -23 -11 3 -21 1 -21 -4 0
-5 -4 -9 -10 -9 -5 0 -10 8 -10 17 0 27 -22 144 -26 140 -3 -2 0 -37 6 -77 8
-55 7 -76 -1 -84 -9 -8 -10 -7 -4 4 8 13 7 13 -8 1 -9 -7 -17 -17 -17 -21 0
-22 -133 -153 -188 -186 -62 -37 -80 -37 -131 -5 -44 28 -67 36 -168 61 -34 9
-43 15 -44 33 l0 22 -9 -22 c-8 -20 -17 -23 -68 -23 -32 0 -84 -7 -115 -15
-100 -26 -103 -25 -193 71 -62 65 -83 82 -87 70 -4 -9 -11 -16 -16 -16 -11 0
-18 18 -37 87 -13 50 -12 57 16 147 29 95 64 175 78 177 4 0 18 2 32 3 14 2
50 0 80 -4 30 -4 57 -6 59 -4 2 2 -2 11 -10 21 -27 33 12 2 49 -39z m-622 -27
c51 -23 108 -90 128 -149 21 -60 21 -59 -16 -54 -19 2 -72 -9 -126 -27 -51
-17 -106 -31 -122 -31 -25 0 -31 5 -39 38 -6 20 -24 64 -41 97 -16 33 -30 74
-30 92 0 28 4 34 33 42 57 16 168 12 213 -8z m2145 -60 c71 -24 185 -76 192
-87 3 -5 -21 -8 -53 -6 -43 3 -68 -1 -96 -16 -43 -22 -125 -106 -149 -152
l-15 -29 -62 25 c-35 14 -79 33 -99 44 -27 15 -38 17 -47 8 -9 -9 -10 -4 -3
18 22 76 73 144 135 177 76 41 120 45 197 18z m351 -131 c44 -13 137 -101 163
-155 23 -49 29 -108 21 -179 -5 -36 -11 -53 -19 -50 -7 3 -32 34 -56 69 -24
35 -50 66 -58 69 -8 3 -12 10 -9 15 3 5 -4 11 -15 14 -13 4 -18 10 -13 18 4 7
3 10 -4 5 -6 -3 -30 4 -54 16 -28 15 -66 24 -110 26 -59 4 -72 1 -127 -28 -57
-31 -87 -64 -123 -140 -4 -8 -5 3 -1 25 3 22 15 58 26 80 27 55 86 135 100
135 6 0 1 -10 -10 -22 -11 -13 -25 -38 -31 -55 -12 -37 -7 -44 8 -10 6 12 20
38 31 57 12 19 20 37 18 40 -1 3 21 22 51 43 48 33 60 37 114 37 34 0 77 -5
98 -10z m-972 -316 c15 -47 13 -54 -37 -129 -71 -106 -167 -195 -194 -179 -4
2 22 33 56 69 34 36 69 79 77 96 9 17 19 30 24 29 5 0 12 17 16 39 4 22 12 49
17 60 6 11 11 39 12 63 1 48 -2 53 29 -48z m178 50 c37 6 98 -21 139 -61 13
-14 57 -40 98 -59 l73 -34 -23 -49 c-25 -51 -30 -54 -117 -66 l-48 -7 0 35 c0
44 -9 50 -76 50 -66 0 -84 -14 -84 -64 l0 -38 -82 2 c-99 2 -145 -16 -150 -60
-2 -16 -6 -27 -10 -25 -5 1 -24 2 -43 2 l-35 0 54 55 c65 64 131 160 152 216
7 23 14 63 14 90 l0 49 53 -21 c33 -13 64 -19 85 -15z m778 -5 c42 -16 77 -41
132 -94 47 -44 73 -76 68 -83 -5 -9 -14 -7 -33 8 -26 20 -27 20 -58 2 -31 -19
-32 -19 -54 -1 -33 27 -55 24 -96 -12 -28 -25 -36 -28 -41 -16 -3 8 -19 21
-35 27 -24 10 -35 9 -69 -7 -21 -11 -42 -18 -45 -15 -3 3 -5 32 -5 65 0 62 23
116 58 137 29 17 119 11 178 -11z m-3343 -232 c44 -19 46 -27 10 -49 -93 -54
-450 -55 -494 -2 -18 22 0 35 78 56 90 24 347 21 406 -5z m-991 -80 c-26 -28
-28 -69 -5 -92 59 -60 317 -114 540 -115 64 0 114 4 118 10 3 6 15 10 26 10
11 0 17 5 14 10 -3 6 -31 10 -62 10 -31 0 -54 2 -52 4 2 2 90 6 194 9 176 5
183 4 100 -7 -84 -11 -88 -12 -66 -25 35 -19 245 -9 380 19 99 20 264 78 306
106 32 23 40 16 14 -12 -60 -64 -207 -105 -535 -148 -139 -18 -184 -35 -184
-70 0 -20 6 -25 33 -29 17 -2 -3 -5 -45 -5 l-78 -2 0 28 c0 15 -4 32 -8 38 -4
7 -72 17 -162 24 -345 27 -544 81 -583 157 -19 36 -7 67 35 93 39 24 49 18 20
-13z m4480 -66 c11 -10 57 -155 51 -163 -8 -14 -50 -8 -65 10 -19 22 -68 122
-68 138 0 28 57 38 82 15z m-172 -58 c7 -32 16 -71 21 -87 11 -37 8 -40 -33
-32 -36 7 -54 32 -83 115 -18 52 -11 61 47 61 37 0 37 0 48 -57z m-4769 -17
c-6 -7 -39 -21 -74 -31 -34 -10 -113 -42 -174 -71 -166 -79 -154 -97 75 -114
370 -27 465 -35 445 -38 -13 -2 -23 -7 -23 -12 0 -11 60 -18 270 -30 102 -6
243 -15 314 -20 71 -6 147 -10 170 -9 40 1 40 1 9 9 -17 4 -118 13 -225 21
-106 7 -184 15 -174 17 17 4 138 -3 691 -38 88 -6 225 -16 305 -23 122 -10
136 -13 88 -17 -60 -5 -91 -20 -43 -20 15 0 121 -7 234 -15 113 -8 348 -24
521 -35 173 -11 376 -25 450 -30 74 -5 196 -12 270 -15 74 -3 169 -7 210 -10
73 -5 74 -5 40 9 -45 19 -42 19 195 2 110 -8 256 -17 325 -21 170 -8 228 -14
236 -27 7 -11 -4 -10 -200 8 -44 4 -67 3 -63 -3 6 -10 44 -13 377 -33 91 -5
210 -12 265 -16 105 -7 124 2 33 16 -78 12 261 1 492 -15 346 -25 460 -28 545
-15 71 11 89 18 164 68 211 143 453 300 422 274 -19 -16 -32 -34 -30 -41 3 -8
11 -5 26 9 12 11 35 21 50 22 47 3 189 100 177 120 -4 7 -2 8 4 4 7 -4 12 -3
12 2 0 18 -56 31 -166 37 -109 7 -210 22 -154 24 14 0 85 -4 159 -9 133 -9
181 -23 181 -54 0 -22 -624 -456 -698 -485 l-47 -19 -7 -108 c-4 -60 -10 -114
-13 -121 -6 -17 -76 -17 -71 -1 3 7 7 59 10 116 l6 102 -117 0 c-65 0 -212 7
-328 15 -281 19 -635 42 -940 60 -334 20 -524 32 -870 56 -159 10 -492 33
-740 49 -247 16 -578 39 -735 50 -1399 98 -1657 114 -2014 125 -98 3 -184 7
-190 8 -15 3 -14 -169 0 -183 6 -6 107 -22 225 -35 118 -14 223 -27 234 -29
29 -6 -228 4 -385 15 -157 11 -205 22 -224 52 -14 23 -29 218 -20 254 7 25 39
40 239 115 88 32 180 67 205 78 55 23 66 24 51 6z m3083 -212 c24 -9 20 -27
-13 -58 -28 -27 -30 -28 -107 -19 -46 5 -79 13 -81 20 -3 7 8 24 23 38 23 22
36 25 95 25 37 0 74 -3 83 -6z m-1936 -426 c63 -31 89 -81 69 -130 -8 -19 -40
-57 -71 -84 -56 -51 -61 -64 -22 -64 36 0 83 -36 102 -79 27 -59 47 -53 74 22
31 85 101 249 113 265 6 7 19 11 28 9 10 -3 26 1 36 9 10 7 26 14 36 14 9 0
17 5 17 10 0 6 5 10 10 10 6 0 10 -9 10 -20 0 -11 4 -28 9 -38 6 -9 18 -71 28
-137 17 -110 20 -120 41 -123 15 -2 22 -11 23 -25 0 -12 9 4 19 35 36 117 113
209 203 243 88 33 171 -8 169 -85 -1 -44 -22 -101 -34 -94 -6 4 -13 1 -17 -5
-13 -21 -40 0 -47 35 -8 45 -33 45 -79 -1 -47 -47 -76 -107 -82 -169 -4 -43
-1 -56 18 -80 19 -24 27 -28 59 -23 21 3 62 21 91 41 64 43 72 44 59 11 -11
-29 -7 -30 29 -9 27 16 29 25 54 173 32 190 38 211 66 204 13 -3 21 -1 21 7 0
7 8 9 20 5 11 -4 20 -2 20 4 0 19 15 12 26 -14 9 -18 8 -40 -2 -91 -8 -37 -13
-69 -11 -71 2 -2 42 30 88 70 99 86 142 117 161 117 8 0 23 9 33 20 10 11 22
20 28 20 5 0 -5 -16 -22 -35 -36 -41 -39 -50 -12 -35 27 14 36 13 21 -5 -6 -8
-9 -19 -5 -25 9 -14 -13 -39 -90 -103 -33 -27 -79 -67 -103 -89 l-43 -39 78
-96 c108 -133 122 -149 123 -140 0 4 -5 15 -11 26 -12 18 -4 99 8 87 3 -3 12
-1 20 5 7 6 13 8 13 4 0 -4 6 -3 13 3 10 9 16 4 26 -23 8 -23 21 -37 37 -41
58 -15 149 22 149 61 0 12 -30 33 -94 66 -108 56 -124 69 -141 110 -25 59 19
125 119 178 128 68 241 43 241 -54 0 -29 -28 -90 -37 -81 -3 3 -12 -2 -19 -12
-8 -10 -13 -12 -14 -4 0 6 -7 12 -15 12 -10 0 -15 10 -15 30 0 37 -18 39 -80
8 -66 -34 -60 -52 34 -101 44 -23 99 -60 123 -83 35 -33 43 -47 43 -77 0 -64
-72 -125 -196 -167 -57 -19 -114 -27 -101 -13 7 6 -84 53 -92 47 -2 -1 18 -30
44 -63 25 -34 44 -61 42 -61 -2 0 -28 18 -57 40 -56 42 -85 53 -57 22 27 -29
20 -35 -14 -12 -24 18 -39 21 -77 17 -42 -5 -44 -5 -19 5 15 7 27 15 27 18 0
4 -28 36 -63 71 -35 35 -79 83 -99 107 l-35 42 -18 -87 c-10 -49 -22 -95 -27
-103 -6 -11 -7 -8 -3 8 4 12 2 22 -3 22 -12 0 -31 -39 -35 -75 -3 -25 -4 -23
-6 10 -1 22 -6 47 -11 55 -9 13 -11 13 -21 0 -8 -11 -9 4 -6 58 l4 74 -71 -71
c-39 -39 -75 -71 -79 -71 -5 0 -15 -7 -23 -15 -22 -22 -58 -19 -113 10 -60 30
-98 74 -113 131 -11 40 -29 56 -42 36 -2 -4 2 -41 10 -82 17 -89 17 -89 3 -70
-8 11 -9 1 -6 -40 5 -53 5 -54 -8 -25 -8 17 -14 36 -15 44 0 10 -3 11 -14 2
-12 -10 -16 -8 -21 10 -5 16 -9 18 -15 9 -8 -13 -10 -8 -38 100 -10 39 -12 39
-108 19 -52 -10 -52 -10 -74 -69 -12 -33 -28 -60 -35 -60 -7 0 -19 -13 -27
-30 -17 -38 -24 -38 -32 2 -6 30 -7 31 -21 12 -19 -25 -19 -10 1 56 11 38 13
55 5 58 -6 2 -8 9 -5 15 4 7 -17 -11 -47 -40 -30 -29 -84 -72 -121 -96 -37
-24 -65 -46 -62 -49 2 -3 -21 -18 -53 -34 -76 -38 -77 -38 -69 -25 4 6 1 11
-8 11 -9 0 -18 -12 -22 -27 -9 -44 -12 -50 -13 -25 -1 12 -5 22 -10 22 -12 0
-21 -37 -21 -87 0 -24 -5 -43 -11 -43 -5 0 -7 5 -4 10 8 13 -5 100 -15 100 -5
0 -11 -10 -13 -22 l-4 -23 -8 23 c-8 24 -15 24 -72 6 -16 -5 -16 -4 2 11 17
13 18 17 5 25 -8 5 -18 6 -22 4 -4 -3 -8 0 -8 6 0 6 7 13 15 16 21 9 19 27 -2
20 -24 -8 14 23 54 45 27 15 29 19 31 90 1 41 5 91 8 112 5 30 3 37 -10 37
-15 0 -21 16 -18 53 1 9 -4 17 -11 17 -6 0 2 10 20 21 32 20 43 51 56 157 3
29 1 32 -17 26 -12 -4 -33 -13 -48 -20 -32 -16 -83 -20 -58 -4 12 7 12 12 2
22 -10 10 -23 9 -65 -6 -84 -30 -86 -29 -15 8 61 33 105 69 65 53 -25 -9 -21
8 6 25 36 24 152 67 219 83 90 20 206 13 266 -17z m-1423 -211 c9 -98 20 -233
25 -300 5 -67 16 -198 24 -292 8 -93 17 -217 21 -275 3 -58 9 -118 12 -134 3
-17 1 -26 -5 -23 -5 4 -12 35 -16 69 -37 362 -94 1149 -83 1138 3 -3 13 -85
22 -183z m3903 91 c6 -40 16 -111 23 -158 10 -81 19 -100 46 -100 7 0 10 -7 7
-15 -4 -8 -2 -15 4 -15 5 0 17 21 27 48 38 100 126 195 222 239 45 21 66 24
115 21 53 -4 64 -9 85 -34 19 -23 22 -36 17 -64 -9 -52 -32 -90 -49 -84 -8 4
-15 1 -15 -5 0 -8 -6 -7 -20 1 -12 8 -20 24 -20 40 0 53 -68 30 -143 -48 -71
-74 -100 -182 -60 -226 24 -27 80 -23 127 10 57 39 57 52 2 52 -34 0 -46 4
-47 15 -5 70 -5 69 37 76 21 4 78 10 126 14 l87 7 -3 -34 c-3 -18 -18 -71 -34
-118 -16 -47 -38 -112 -47 -145 -14 -44 -20 -54 -25 -40 -8 23 -17 11 -36 -49
l-13 -41 0 48 c-1 46 -15 64 -24 30 -3 -10 -5 5 -6 34 l-1 51 -46 -24 c-52
-28 -69 -29 -117 -9 -74 31 -127 97 -127 160 0 20 -5 25 -23 25 l-24 0 12 -80
c6 -44 8 -80 4 -80 -4 0 -10 8 -13 18 -3 9 -3 -11 -1 -46 5 -66 -8 -77 -19
-16 -4 21 -12 34 -19 31 -7 -2 -17 5 -24 17 -7 12 -12 15 -13 9 0 -7 -4 -13
-9 -13 -5 0 -12 21 -16 48 -14 100 -10 95 -79 88 -105 -12 -105 -12 -142 -90
-19 -39 -34 -63 -34 -53 0 31 -19 18 -45 -30 -23 -42 -25 -44 -21 -18 5 33
-11 70 -21 48 -2 -7 -8 -13 -13 -13 -5 0 2 27 16 60 28 69 29 74 11 67 -10 -4
-14 4 -14 24 0 16 5 29 10 29 5 0 4 6 -2 14 -13 15 4 26 38 26 13 0 35 34 77
118 32 64 60 120 62 123 1 4 -8 5 -20 3 -13 -1 -62 -8 -109 -14 l-86 -12 -15
-56 c-9 -31 -33 -129 -54 -217 -29 -119 -40 -152 -44 -130 l-5 30 -22 -36
c-12 -19 -27 -46 -33 -60 -8 -19 -9 -14 -4 27 3 33 2 54 -5 59 -6 3 -11 1 -11
-4 0 -6 -5 -11 -10 -11 -6 0 -8 17 -4 43 7 52 53 295 61 321 6 20 -1 20 -121
0 -34 -6 -38 -5 -33 9 3 9 2 19 -2 22 -11 6 -7 63 6 76 5 5 47 14 93 20 47 6
93 15 104 21 21 11 260 21 290 12 19 -6 19 -7 1 -20 -17 -13 -17 -14 0 -20 15
-6 13 -9 -11 -19 l-29 -12 38 -4 c35 -5 39 -2 58 31 17 29 27 37 52 37 47 2
97 14 97 24 0 5 4 9 9 9 4 0 13 -33 19 -72z m1097 -42 c10 -9 25 -14 35 -11
10 3 21 1 24 -4 4 -5 -13 -13 -38 -16 -25 -4 -53 -13 -63 -21 -17 -12 -16 -13
7 -14 19 0 21 -3 10 -9 -8 -5 -71 -14 -139 -20 -69 -6 -125 -13 -126 -14 -7
-17 -25 -75 -25 -81 0 -4 28 -7 63 -6 34 1 77 1 96 1 33 -1 34 -2 15 -16 -19
-14 -18 -14 4 -15 33 0 27 -16 -10 -25 -28 -6 -30 -8 -13 -14 18 -7 17 -8 -5
-14 -14 -3 -62 -9 -107 -13 l-81 -7 -13 -46 c-7 -25 -12 -48 -11 -49 1 -2 71
-3 155 -3 86 1 159 -3 167 -9 12 -8 9 -10 -13 -10 -16 0 -26 -4 -22 -10 3 -5
36 -11 73 -11 66 -2 62 -3 -45 -15 -54 -6 -74 -24 -26 -24 14 0 24 -2 22 -4
-2 -2 -76 -10 -164 -16 -88 -7 -172 -18 -187 -25 -20 -10 -28 -10 -32 -1 -2 6
-8 1 -11 -11 -8 -26 -25 -31 -25 -8 0 9 -9 15 -24 15 -25 0 -36 19 -41 72 -2
21 2 28 18 30 27 4 65 107 45 123 -20 16 -10 73 13 80 20 7 30 25 43 77 5 22
2 27 -16 30 -22 3 -34 43 -16 54 4 3 8 13 8 23 0 32 65 50 184 50 60 1 112 4
115 7 13 13 140 -3 156 -20z m-4360 -535 c26 -5 30 -10 30 -41 0 -33 -2 -35
-35 -38 -19 -2 -58 -1 -87 3 -55 7 -71 24 -58 65 5 17 15 20 63 19 31 -1 71
-4 87 -8z m1714 -26 c33 -10 69 -31 88 -50 33 -33 33 -35 19 -63 -16 -31 -62
-65 -141 -102 -38 -18 -45 -25 -30 -27 124 -24 185 -64 185 -121 0 -31 -8 -44
-53 -87 -60 -56 -108 -82 -241 -132 -61 -22 -78 -32 -51 -27 78 12 32 -4 -150
-52 -16 -4 -17 -3 -5 5 13 9 12 11 -5 10 -11 0 -38 -6 -60 -13 -34 -10 -41
-17 -51 -51 l-12 -40 -1 37 c-2 68 -50 17 -52 -55 -1 -18 -5 -43 -10 -57 -6
-16 -7 2 -3 53 4 71 3 78 -13 75 -9 -2 -20 -14 -24 -28 l-6 -25 -7 27 c-5 15
-13 25 -19 23 -7 -2 -28 -6 -47 -9 l-35 -6 24 19 c17 13 32 16 50 12 14 -4 43
-4 66 0 63 12 405 115 479 145 70 28 87 45 20 20 -22 -8 -48 -17 -59 -22 -38
-14 -50 -14 -87 1 -21 8 -38 12 -38 9 0 -4 -7 0 -17 7 -13 11 -17 11 -20 1 -3
-6 -8 -10 -12 -8 -4 3 -41 -4 -82 -14 -41 -11 -77 -20 -80 -20 -4 0 2 17 12
37 28 55 26 59 -37 56 -31 -1 -57 -3 -59 -5 -1 -2 -5 -22 -9 -46 -5 -32 -3
-42 5 -36 7 4 10 1 7 -7 -3 -8 -33 -22 -68 -31 -65 -18 -86 -28 -57 -28 9 0
17 -5 17 -11 0 -6 -7 -8 -16 -5 -14 5 -15 4 -4 -9 11 -13 7 -15 -26 -14 -34 0
-36 2 -16 9 24 10 30 30 10 30 -22 1 23 22 70 34 l45 12 24 89 c12 50 25 100
29 113 5 16 2 22 -11 22 -9 0 -14 4 -11 9 4 5 0 12 -6 14 -10 4 -9 8 2 16 13
10 13 12 0 20 -13 9 -13 11 0 15 66 23 65 23 93 101 l27 78 -37 -7 c-21 -4
-56 -9 -78 -12 -34 -4 -37 -3 -21 7 18 11 17 12 -10 25 -16 7 -22 13 -13 13 9
1 24 10 35 22 18 20 18 20 -11 13 -25 -5 -28 -4 -18 7 7 7 59 23 115 35 90 20
125 23 273 20 126 -2 184 -8 224 -21z m866 -4 c39 4 108 8 155 7 l85 0 -50
-13 c-48 -13 -49 -13 -15 -15 29 -1 32 -3 15 -10 -30 -13 32 -12 210 2 109 8
158 8 180 0 26 -9 27 -11 7 -11 -32 -1 -17 -21 16 -22 20 0 13 -5 -28 -19 -45
-15 -50 -19 -26 -19 19 -1 26 -5 20 -10 -5 -5 -64 -15 -132 -22 l-123 -12 -20
-38 c-10 -21 -19 -41 -19 -45 0 -4 35 -4 78 0 42 3 91 2 107 -3 26 -8 27 -9 7
-10 -29 -1 -19 -21 11 -22 20 -1 21 -2 2 -6 -11 -3 -31 -10 -45 -16 l-25 -10
25 -7 c18 -5 6 -8 -45 -14 -169 -16 -161 -14 -174 -54 -7 -20 -15 -42 -17 -49
-4 -9 43 -11 188 -8 106 2 178 1 161 -1 -18 -3 -33 -9 -33 -14 0 -11 74 -23
97 -16 10 3 24 2 31 -3 9 -5 -16 -11 -65 -14 -43 -3 -91 -9 -108 -12 l-30 -5
28 13 c29 14 27 27 -5 27 -12 0 -16 4 -12 11 6 10 -94 8 -253 -5 -10 0 -17 4
-16 9 9 60 9 60 -25 63 -18 2 -30 8 -27 13 4 5 0 9 -7 9 -14 0 -38 -53 -38
-83 0 -9 -12 -22 -27 -29 -17 -8 -28 -21 -28 -33 0 -12 -8 -21 -20 -23 -17 -4
-18 -2 -5 13 11 13 11 18 1 25 -9 5 -3 11 21 19 30 10 37 19 51 65 20 64 21
66 4 66 -14 0 -16 27 -4 48 6 8 2 10 -10 7 -10 -3 0 3 22 14 39 19 64 55 65
94 0 9 -6 17 -14 17 -8 0 -12 9 -10 26 2 22 -1 25 -24 20 -15 -3 -57 -8 -93
-12 l-66 -6 -52 -137 c-106 -277 -116 -303 -119 -288 -2 8 7 38 19 68 11 30
27 72 33 94 l13 41 -55 -3 c-32 -1 -59 -8 -64 -15 -19 -30 -40 -111 -31 -117
20 -12 22 -47 5 -96 l-17 -50 340 -2 c190 0 353 -5 370 -11 20 -7 -52 -8 -225
-5 -374 8 -773 -15 -1000 -58 -82 -15 -231 -51 -228 -55 2 -1 119 12 259 31
312 42 636 67 699 55 25 -5 144 -7 265 -5 l220 4 -165 -9 c-257 -15 -493 -39
-629 -65 -119 -24 -161 -26 -110 -7 48 18 256 55 354 63 81 6 68 7 -70 4 -180
-5 -404 -28 -673 -71 -89 -14 -177 -24 -195 -22 l-32 3 31 17 c82 45 496 116
689 119 28 0 59 4 69 8 29 11 63 141 37 141 -5 0 -12 -13 -16 -30 -4 -16 -11
-32 -16 -36 -14 -8 -4 28 58 211 74 217 72 209 37 201 -28 -5 -73 -12 -144
-22 -32 -4 -33 -3 -17 10 18 14 18 15 0 24 -17 10 -17 11 2 32 16 18 17 23 5
30 -22 14 19 25 140 40 58 7 110 16 115 20 14 11 58 17 70 9 6 -3 42 -3 80 2z
m1015 -19 c22 -10 36 -26 38 -39 2 -13 8 -23 14 -23 13 0 2 -44 -18 -75 -9
-13 -22 -21 -29 -19 -8 3 -16 -4 -21 -18 l-7 -23 -9 24 c-7 19 -11 21 -22 11
-12 -9 -15 -6 -18 22 -3 32 -4 33 -44 31 -41 -2 -136 -42 -149 -64 -11 -17 4
-27 126 -73 196 -74 249 -109 249 -165 0 -16 -4 -33 -10 -36 -5 -3 -10 -15
-10 -26 0 -10 -6 -19 -12 -19 -7 0 -22 -8 -33 -16 -18 -14 -15 -15 50 -9 39 3
80 8 93 11 12 2 22 0 22 -4 0 -5 -48 -14 -108 -20 -74 -8 -124 -19 -162 -36
-30 -13 -90 -39 -133 -56 -43 -18 -75 -35 -72 -38 5 -6 -82 -45 -128 -57 -20
-5 -20 -4 3 9 14 9 22 15 19 16 -12 0 -116 -39 -208 -79 -52 -23 -97 -39 -99
-36 -3 3 30 21 74 41 43 21 74 39 69 41 -6 2 -82 -22 -169 -52 -149 -52 -201
-66 -166 -46 62 36 371 134 395 125 16 -6 237 70 337 115 l63 30 -45 0 c-26 1
-51 6 -58 13 -7 7 -12 9 -12 5 0 -4 -9 -3 -20 3 -16 8 -53 -4 -197 -65 -98
-42 -198 -88 -223 -102 -78 -45 -121 -64 -133 -60 -13 4 167 94 376 186 148
66 262 121 290 143 11 8 16 20 12 30 -7 17 -28 27 -190 89 -114 44 -165 81
-165 119 0 67 89 138 235 186 85 28 158 30 205 6z m-1475 -12 c-3 -5 0 -18 6
-28 9 -15 4 -40 -29 -133 -22 -63 -52 -150 -68 -194 -15 -44 -38 -107 -51
-140 -30 -76 -22 -22 13 84 14 40 23 76 20 78 -10 10 -66 13 -66 4 0 -6 -5
-11 -11 -11 -5 0 -7 5 -4 10 3 6 -2 10 -11 10 -10 0 -15 -3 -11 -6 3 -4 0 -12
-7 -20 -8 -7 -21 -46 -31 -86 -20 -82 -34 -116 -35 -82 0 12 14 66 30 120 17
55 44 144 61 199 38 122 68 192 77 178 7 -11 93 4 108 20 11 10 16 9 9 -3z
m-2347 -163 c15 -12 16 -63 0 -73 -19 -12 -105 -8 -138 6 -25 10 -30 18 -30
45 0 17 3 35 7 38 9 10 146 -4 161 -16z m250 -19 c20 -20 15 -69 -8 -75 -11
-3 -20 -8 -20 -12 0 -3 9 -12 20 -19 25 -15 28 -70 4 -79 -8 -3 -48 -2 -87 3
l-72 9 -3 37 c-3 35 -2 37 30 40 l33 3 -32 18 c-28 15 -33 23 -33 52 l0 35 78
0 c47 0 83 -5 90 -12z m4692 -147 c20 -5 26 -14 28 -44 l3 -37 -64 0 c-36 0
-79 3 -96 6 -27 6 -31 11 -31 39 0 17 3 35 7 38 8 9 120 7 153 -2z m-15 -119
c38 -7 40 -9 40 -42 0 -34 -2 -35 -40 -38 -22 -2 -64 -1 -92 3 l-53 6 0 40 0
39 53 -1 c28 0 70 -3 92 -7z m-5404 -65 c-16 -20 14 -43 69 -56 25 -5 126 -17
225 -25 99 -9 196 -20 215 -25 40 -11 286 -35 530 -51 250 -17 480 -37 435
-39 -22 0 -101 3 -175 9 -232 16 -769 49 -905 55 -71 3 -172 8 -222 10 l-93 5
0 -33 c0 -21 -3 -27 -9 -19 -4 7 -14 12 -21 10 -8 -2 -16 9 -19 25 -5 22 -15
32 -43 42 -34 11 -37 11 -42 -9 -3 -12 -6 -37 -6 -55 0 -25 -3 -32 -10 -25 -6
6 -10 43 -8 85 3 74 3 74 38 91 42 21 56 23 41 5z m6659 -27 c9 -16 -1 -24
-68 -61 -42 -23 -192 -106 -333 -185 -140 -78 -283 -152 -317 -164 -37 -14
-64 -30 -67 -41 -3 -10 -12 -16 -20 -13 -8 4 -15 -3 -18 -18 -3 -19 -5 -17 -6
7 l-1 31 -292 17 c-161 10 -507 31 -768 48 -261 16 -488 30 -505 30 -21 1 -24
3 -9 6 12 2 178 -5 370 -17 803 -48 883 -51 1014 -46 74 4 162 9 195 12 45 4
56 2 45 -6 -29 -21 62 1 130 32 76 34 214 118 206 126 -11 11 240 146 254 137
10 -6 126 51 165 81 19 14 19 16 3 28 -22 16 -23 27 -3 20 9 -4 20 -15 25 -24z
m-1485 -9 c26 -5 30 -10 30 -41 0 -34 -1 -35 -45 -38 -25 -1 -65 1 -90 6 -36
6 -46 12 -48 30 -7 44 3 52 65 51 32 -1 72 -4 88 -8z m263 -23 c7 -7 12 -24
12 -39 0 -36 -23 -43 -111 -34 -62 6 -71 10 -79 31 -18 46 -5 54 84 54 50 0
87 -5 94 -12z"/>
<path d="M3813 4617 c-6 -43 -13 -80 -15 -82 -2 -2 -39 14 -82 36 -132 66
-203 51 -272 -57 -98 -153 -118 -355 -50 -507 28 -64 70 -106 145 -146 90 -48
162 -63 326 -72 83 -4 165 -12 183 -17 45 -15 192 -94 192 -104 0 -5 -7 -22
-15 -38 -13 -26 -20 -29 -88 -35 -73 -7 -133 -3 -214 16 -24 5 -46 8 -50 7 -5
-2 -45 8 -90 22 -75 23 -83 27 -83 50 1 14 7 36 15 50 16 29 18 40 7 40 -4 0
-16 -22 -27 -49 -10 -27 -23 -47 -29 -45 -6 2 -18 -1 -26 -6 -13 -9 -13 -11 0
-20 8 -6 26 -13 40 -15 14 -3 43 -14 65 -25 92 -43 271 -82 373 -80 87 2 322
64 322 85 0 8 -50 -6 -79 -21 -35 -18 -51 -17 -68 4 -13 16 -14 15 -10 -5 4
-20 1 -23 -24 -23 -33 0 -33 1 -17 47 l12 33 80 -2 c63 -1 91 3 126 19 67 30
145 98 169 146 14 28 21 35 21 22 1 -28 65 99 95 189 19 58 25 95 25 166 0 92
0 92 -35 127 l-34 34 -93 -1 c-51 -1 -92 2 -92 6 1 5 5 25 8 44 l6 35 -15 -40
c-9 -22 -19 -43 -23 -47 -5 -5 -58 -8 -119 -9 -115 0 -229 20 -328 59 -69 27
-224 103 -230 111 -2 4 0 38 6 74 6 37 9 75 7 84 -2 10 -8 -17 -15 -60z m-48
-311 c62 -21 70 -27 68 -47 -5 -53 -16 -100 -24 -105 -5 -3 -9 -13 -9 -22 0
-13 9 -17 40 -17 22 -1 47 -8 56 -16 17 -17 9 -49 -12 -49 -11 0 -12 -4 -2
-19 9 -15 9 -23 -2 -36 -8 -10 -14 -27 -15 -39 0 -18 -5 -21 -35 -19 -19 1
-39 8 -45 15 -5 8 -23 15 -39 16 -38 3 -136 48 -136 62 0 7 -8 9 -19 5 -10 -3
-30 -1 -45 5 -26 9 -27 12 -20 57 4 27 10 49 14 51 3 1 4 16 2 32 -4 29 -3 30
32 30 24 0 42 -7 53 -20 23 -27 33 -25 33 5 0 20 -5 25 -24 25 -38 0 -76 18
-76 36 0 17 0 17 94 -3 28 -6 29 -5 22 29 -6 32 -1 48 13 48 3 0 38 -11 76
-24z m785 -181 c13 -8 13 -52 0 -60 -5 -3 -10 -19 -10 -35 0 -16 -4 -32 -10
-35 -22 -13 -8 -25 30 -25 36 0 40 -2 40 -25 0 -14 -4 -25 -9 -25 -5 0 -12
-14 -16 -31 -4 -17 -13 -33 -20 -35 -7 -3 -11 -14 -8 -25 5 -19 2 -20 -95 -15
-55 3 -107 9 -116 12 -18 7 -21 29 -6 39 13 8 13 25 0 25 -6 0 -15 -11 -20
-25 -8 -20 -16 -25 -44 -25 -38 0 -55 15 -37 33 6 6 11 21 11 34 0 13 7 26 16
30 11 4 12 8 4 13 -9 6 -9 13 -1 29 13 23 35 26 75 11 37 -14 53 -4 54 33 0
17 7 36 14 42 7 6 12 24 10 44 l-3 34 66 -6 c36 -4 70 -9 75 -12z"/>
<path d="M207 2253 c-9 -8 -8 -101 1 -167 6 -46 10 -50 41 -58 18 -5 35 -7 38
-4 7 7 4 162 -3 192 -4 14 -18 27 -36 33 -37 13 -33 13 -41 4z"/>
<path d="M1625 1493 c-11 -2 -29 -6 -41 -8 -21 -5 -25 -21 -50 -184 l-6 -44
62 34 c91 50 170 124 170 159 0 26 -4 29 -50 39 -28 6 -54 10 -58 10 -4 -1
-16 -3 -27 -6z"/>
<path d="M2469 1054 c-8 -3 -27 -34 -41 -70 l-26 -66 24 6 c52 13 191 67 223
87 31 19 33 22 17 31 -20 11 -171 20 -197 12z"/>
<path d="M2450 815 c-8 -2 -32 -6 -52 -10 l-38 -6 -31 -100 c-17 -55 -29 -102
-26 -105 8 -8 184 54 269 95 94 45 137 81 115 99 -24 21 -182 38 -237 27z"/>
</g>
</svg>
