<?xml version="1.0" standalone="no"?>
<!DOCTYPE svg PUBLIC "-//W3C//DTD SVG 20010904//EN"
 "http://www.w3.org/TR/2001/REC-SVG-20010904/DTD/svg10.dtd">
<svg version="1.0" xmlns="http://www.w3.org/2000/svg"
 width="720.000000pt" height="544.000000pt" viewBox="0 0 720.000000 544.000000"
 preserveAspectRatio="xMidYMid meet">
<metadata>
Created by potrace 1.16, written by Peter Selinger 2001-2019
</metadata>
<g transform="translate(0.000000,544.000000) scale(0.100000,-0.100000)"
fill="#000000" stroke="none">
<path d="M2976 5219 c-160 -23 -354 -103 -476 -197 -94 -71 -220 -207 -268
-288 -49 -81 -92 -202 -92 -254 0 -24 -7 -43 -20 -55 -16 -15 -20 -31 -20 -85
0 -45 5 -71 14 -79 7 -6 16 -38 19 -70 6 -53 3 -67 -26 -128 -56 -119 -48
-255 24 -378 77 -135 169 -184 374 -201 71 -5 97 -12 127 -32 21 -13 38 -27
38 -29 0 -3 -9 -17 -20 -33 -17 -24 -27 -28 -97 -33 -104 -7 -230 -34 -270
-57 l-32 -19 -62 32 c-61 31 -66 32 -183 31 -159 -1 -226 -15 -285 -58 -25
-19 -92 -61 -147 -94 -83 -50 -117 -78 -187 -156 -48 -52 -89 -106 -91 -118
-3 -13 -7 -54 -9 -91 -2 -46 -8 -71 -18 -78 -23 -14 -28 -11 -37 24 -8 30 -11
32 -61 35 -66 4 -81 -8 -81 -64 l0 -44 -75 0 c-94 0 -132 -17 -137 -61 -3 -29
-8 -32 -143 -83 -529 -201 -544 -208 -569 -235 -17 -19 -18 -32 -12 -148 8
-133 18 -166 55 -178 13 -4 22 -18 25 -38 3 -18 26 -293 51 -612 25 -319 49
-610 52 -646 l6 -66 -33 -13 c-18 -7 -46 -24 -61 -38 -31 -26 -35 -53 -22
-147 6 -45 8 -48 57 -71 60 -27 49 -26 1351 -114 883 -60 1904 -132 2395 -170
140 -10 383 -28 540 -40 157 -11 335 -25 396 -30 60 -6 397 -10 748 -10 l638
0 157 91 c427 250 487 288 499 314 7 14 12 55 12 90 0 61 -2 65 -36 93 l-35
29 21 259 c11 143 34 454 50 692 l29 432 29 29 c26 27 29 37 35 122 4 51 7
124 7 164 0 120 -7 123 -380 150 -118 8 -239 18 -267 21 l-53 5 0 43 c0 82
-10 107 -47 123 -42 17 -143 19 -173 3 -12 -6 -29 -9 -37 -6 -57 22 -323 63
-465 72 -57 4 -108 9 -113 13 -6 3 -36 33 -67 66 l-57 60 15 95 c18 118 10
215 -22 279 -14 27 -24 64 -24 91 -1 147 -164 264 -299 216 -38 -14 -46 -14
-60 -2 -54 48 -321 113 -391 95 -11 -3 -16 10 -21 53 -7 67 -36 111 -107 163
-79 58 -144 79 -252 79 -85 1 -101 -2 -153 -27 -38 -19 -69 -44 -93 -75 -32
-42 -39 -46 -82 -49 -26 -1 -72 -9 -102 -17 -30 -8 -56 -13 -57 -12 -1 1 15
23 36 48 21 26 44 60 51 77 11 28 17 31 55 31 33 0 51 7 86 35 24 20 65 51 91
71 53 40 103 113 125 181 31 103 10 253 -50 355 -35 61 -118 135 -181 163 -64
28 -110 78 -102 111 5 17 -5 36 -36 75 -24 29 -52 57 -63 63 -11 6 -45 34 -76
62 -91 82 -251 157 -402 189 -75 16 -273 18 -371 4z m269 -275 c104 -26 217
-88 290 -157 58 -56 65 -66 65 -102 1 -22 10 -65 22 -95 15 -40 23 -91 28
-190 4 -74 10 -151 14 -170 6 -32 6 -33 -5 -10 -97 211 -146 264 -247 262 -71
-2 -124 -31 -402 -219 -51 -35 -133 -73 -235 -110 -59 -22 -95 -27 -227 -32
-133 -6 -160 -9 -177 -25 -34 -31 -43 -84 -26 -148 17 -68 80 -201 102 -220 9
-7 5 5 -10 27 -15 22 -27 44 -27 49 0 6 16 -14 35 -43 19 -30 32 -58 29 -63
-3 -4 0 -8 5 -8 6 0 11 -5 11 -12 0 -7 9 -21 20 -33 11 -11 34 -40 51 -64 17
-24 39 -46 50 -48 10 -3 19 -9 19 -13 0 -11 80 -57 105 -61 29 -4 106 11 135
26 14 8 62 38 108 68 92 61 127 72 284 87 242 24 392 122 428 283 10 45 3 159
-15 243 -6 28 66 -146 88 -214 11 -34 -1 -71 -41 -132 -9 -14 -17 -36 -17 -50
0 -14 -3 -25 -6 -25 -4 0 -16 -8 -26 -18 -11 -9 -23 -14 -26 -10 -4 3 -7 2 -7
-3 0 -14 -51 -74 -62 -74 -5 0 -14 -5 -21 -10 -47 -39 -62 -50 -78 -55 -24 -8
-24 -21 -2 -34 13 -7 28 -2 61 22 96 69 228 221 216 250 -3 9 3 24 15 36 25
25 31 26 31 6 0 -8 5 -15 11 -15 16 0 52 21 67 39 34 41 -5 -19 -50 -76 -72
-91 -188 -196 -300 -269 -182 -120 -347 -174 -538 -174 -182 0 -285 40 -402
154 -127 125 -214 270 -269 447 -27 89 -32 120 -32 209 0 164 49 318 145 457
44 65 179 194 242 232 166 100 382 132 571 85z m729 -228 c17 -6 15 -9 -15
-24 -20 -10 -44 -35 -59 -62 -23 -42 -25 -54 -24 -170 1 -120 3 -129 38 -215
21 -49 55 -113 77 -142 41 -54 53 -58 92 -25 9 8 37 18 62 22 45 7 45 7 28
-13 -64 -72 -86 -87 -128 -87 -37 0 -48 6 -96 53 -94 91 -139 216 -139 393 0
119 18 190 61 239 25 28 59 45 79 40 3 -1 14 -5 24 -9z m170 -104 c61 -56 106
-185 106 -306 0 -118 -18 -160 -70 -163 -28 -1 -30 0 -11 5 35 11 54 70 54
172 1 76 -3 92 -31 149 -34 66 -82 129 -114 147 -10 5 -15 13 -11 18 10 10 54
-2 77 -22z m-784 -462 c0 -10 -8 -21 -17 -23 -13 -4 -12 -5 5 -6 12 0 25 -8
28 -16 4 -8 10 -13 14 -10 5 3 6 -4 3 -15 -7 -25 3 -25 56 1 41 19 45 20 60 4
15 -15 14 -18 -7 -35 l-23 -19 28 2 c22 2 29 -3 31 -20 2 -14 -2 -23 -10 -24
-7 0 -3 -4 10 -9 35 -15 26 -38 -25 -63 -27 -12 -50 -25 -53 -29 -6 -8 -114
-58 -133 -62 -7 -2 -29 -11 -50 -20 -47 -21 -72 -17 -72 9 0 11 -8 26 -18 34
-11 8 -17 21 -14 32 3 10 -1 20 -9 23 -8 3 -14 14 -14 24 0 14 14 24 48 37 26
10 49 19 50 21 2 1 -4 17 -15 35 -13 24 -15 33 -5 36 6 3 12 9 12 14 0 4 -6 6
-14 3 -14 -5 -36 23 -36 44 0 6 33 24 72 40 76 32 98 30 98 -8z m-1161 -2 c-8
-14 -13 -57 -12 -116 1 -107 29 -198 98 -318 41 -72 105 -154 121 -154 5 -1
23 -12 39 -25 l30 -25 -37 0 c-50 0 -79 12 -117 50 -51 52 -87 111 -131 216
-35 85 -42 113 -47 196 -6 105 10 178 45 197 23 13 26 7 11 -21z m489 -245 c2
-12 10 -27 18 -33 8 -7 14 -23 14 -36 0 -32 10 -35 60 -18 40 14 45 14 56 -1
7 -9 10 -23 8 -30 -3 -7 2 -15 10 -18 9 -4 16 -18 16 -32 0 -23 -4 -25 -40
-25 -32 0 -38 -3 -33 -16 4 -11 8 -12 13 -4 9 14 85 9 84 -5 -2 -21 -99 -55
-177 -61 -29 -2 -64 -7 -79 -10 -24 -5 -30 -1 -57 47 -40 69 -48 99 -30 110
10 6 11 9 2 9 -16 0 -17 26 -3 35 13 8 42 -14 34 -26 -3 -5 3 -9 12 -9 16 0
16 1 1 18 -10 10 -17 26 -17 35 0 9 -4 19 -10 22 -5 3 -10 17 -10 29 0 19 8
25 43 34 60 14 81 11 85 -15z m1785 -21 c80 -40 149 -105 165 -158 13 -44 8
-60 -7 -20 -6 14 -18 26 -27 26 -27 0 -99 -65 -154 -139 l-50 -68 -116 57
c-63 32 -122 64 -132 73 -22 19 -75 26 -89 12 -27 -27 31 -122 102 -166 36
-22 26 -25 -14 -4 -43 22 -97 90 -111 140 -19 69 -9 146 24 186 62 75 130 100
252 96 79 -2 100 -7 157 -35z m-593 -247 c-16 -67 -11 -117 18 -200 48 -133
89 -195 177 -263 l30 -24 -35 21 c-33 19 -37 19 -48 3 -10 -14 -11 -13 -2 5 9
19 8 22 -5 17 -20 -8 -19 -32 1 -58 9 -12 -21 17 -67 64 -72 74 -79 79 -49 36
18 -27 59 -75 90 -106 33 -33 47 -52 33 -46 -12 6 -23 14 -23 19 0 4 -5 7 -11
7 -6 0 -9 -7 -5 -15 3 -8 1 -15 -5 -15 -7 0 -9 10 -5 24 4 16 1 26 -8 29 -16
6 -28 -16 -20 -36 3 -8 -2 -20 -11 -27 -13 -11 -15 -10 -9 6 8 27 -56 -49 -91
-109 -17 -28 -51 -65 -75 -83 -38 -26 -52 -31 -85 -27 -63 8 -207 8 -236 0
-21 -5 -28 -2 -38 16 -11 22 -11 22 -7 -3 4 -22 -2 -28 -43 -47 -53 -25 -78
-24 -121 7 l-30 21 0 -23 c0 -46 -16 -52 -43 -17 -71 94 -109 242 -83 328 8
30 20 47 35 53 17 6 22 14 18 28 -7 26 -1 25 35 -5 24 -21 40 -25 90 -25 88 0
174 48 275 154 43 44 81 80 85 79 9 -3 78 26 78 32 0 3 -16 -2 -37 -10 -20 -8
-38 -13 -41 -11 -6 7 26 51 38 52 6 1 15 2 20 3 6 0 31 23 58 49 26 26 71 65
100 86 28 21 52 43 52 49 0 5 2 8 4 6 3 -3 1 -22 -4 -44z m978 -30 c109 -27
202 -63 202 -77 0 -5 -10 -6 -22 -2 -43 15 -71 7 -100 -28 -30 -35 -128 -221
-128 -243 0 -18 -250 71 -265 94 -8 14 26 123 50 160 25 39 78 92 110 109 29
16 45 15 153 -13z m455 -255 c84 -31 129 -90 147 -191 12 -62 7 -185 -8 -244
l-7 -26 -28 41 c-15 23 -27 45 -27 49 0 33 -134 80 -230 81 -99 0 -169 -40
-212 -124 -32 -62 -41 -34 -36 111 3 108 7 135 27 175 58 121 233 181 374 128z
m-2645 -30 c38 -24 42 -33 6 -20 -30 12 -108 12 -144 0 -14 -4 -19 -8 -12 -9
7 -1 11 -5 7 -10 -3 -5 -1 -12 5 -16 6 -4 8 -10 5 -15 -9 -14 52 -22 118 -16
66 6 48 -6 -27 -19 -38 -6 -38 -7 -16 -18 31 -16 37 -37 11 -37 -18 0 -21 -6
-21 -44 l0 -43 -56 -7 c-65 -7 -74 -4 -74 31 0 32 -47 127 -77 155 -12 12 -40
24 -60 28 l-38 7 29 12 c38 15 185 38 256 40 39 1 65 -5 88 -19z m396 -17
c-49 -64 -73 -173 -39 -173 19 0 19 -14 0 -30 -21 -17 -30 -97 -15 -139 21
-61 101 -191 157 -255 57 -66 62 -76 36 -76 -14 0 -15 2 -5 9 10 6 6 11 -16
19 -37 13 -96 97 -155 220 -35 72 -42 99 -46 160 -5 104 30 223 82 280 32 34
33 26 1 -15z m-888 -1 c74 -38 144 -146 144 -219 0 -21 -5 -23 -47 -24 -27 0
-73 -1 -103 -1 -30 -1 -58 -6 -61 -11 -4 -5 -12 15 -19 46 -15 74 -56 128
-121 161 -62 30 -142 35 -209 11 -53 -19 -55 -19 -40 -1 50 61 363 87 456 38z
m-379 -102 c35 -21 54 -69 46 -113 -3 -15 -20 -43 -38 -64 l-33 -38 -21 26
c-11 15 -34 29 -51 32 -32 7 -83 -10 -74 -24 10 -17 -4 -8 -36 21 -35 33 -65
39 -74 14 -8 -21 -50 -14 -54 9 -5 25 21 51 92 94 108 66 184 80 243 43z
m2680 -6 c25 -4 50 -18 73 -43 31 -33 48 -40 160 -69 69 -17 136 -33 150 -34
24 -3 25 -6 28 -87 l3 -84 -36 -37 c-20 -21 -37 -43 -38 -51 -2 -8 -8 -27 -15
-44 -12 -29 -14 -30 -78 -29 l-66 0 6 -27 c3 -18 0 -29 -9 -33 -8 -3 -15 -10
-15 -15 0 -6 7 -8 15 -5 8 4 15 2 15 -4 0 -12 -29 -24 -41 -16 -5 3 -9 -2 -10
-10 -1 -9 -2 -25 -2 -36 -2 -33 68 -87 156 -120 45 -17 91 -35 102 -40 31 -14
94 -28 155 -35 30 -3 98 -13 150 -22 52 -9 142 -16 200 -17 109 -2 135 -8 126
-31 -3 -8 0 -15 5 -17 5 -2 11 -13 12 -26 1 -14 8 -22 20 -22 10 0 15 -4 12
-10 -4 -6 23 -10 72 -11 l78 -1 -55 -9 c-59 -10 -389 -13 -398 -4 -3 3 45 5
106 5 l112 0 -6 33 c-3 17 -7 38 -7 45 0 15 19 14 -237 16 -291 4 -599 49
-673 99 -36 25 -57 17 -51 -20 10 -65 143 -136 333 -178 210 -46 300 -52 727
-47 332 4 627 77 711 176 31 38 27 86 -13 128 -15 15 -23 28 -18 28 16 0 84
-64 84 -79 0 -8 16 -29 35 -48 26 -25 35 -42 34 -66 0 -27 -2 -29 -9 -12 -5
11 -18 31 -28 44 l-19 23 -51 -45 c-96 -86 -277 -137 -630 -177 l-103 -12 3
-42 c3 -38 5 -41 38 -47 19 -4 -23 -6 -95 -6 -71 0 -109 2 -82 4 43 4 47 6 42
26 -3 12 -7 32 -8 45 -1 20 -6 22 -67 22 -78 0 -272 16 -390 31 -263 35 -479
120 -524 207 -8 15 -12 39 -10 52 3 20 -4 31 -39 56 -32 23 -45 42 -52 70 -10
38 -11 39 -62 44 -28 3 -55 9 -59 13 -4 4 -7 44 -7 88 0 80 1 81 41 122 22 23
49 61 61 84 28 56 58 172 66 256 5 51 10 67 20 63 8 -3 31 -8 52 -12z m-2464
-106 c14 -18 31 -53 39 -78 l15 -45 109 -7 c60 -4 125 -12 144 -18 19 -5 67
-12 106 -15 39 -3 107 -10 150 -16 43 -6 103 -8 132 -4 38 5 52 3 48 -4 -4 -6
-19 -11 -34 -12 l-27 -1 28 -10 c24 -8 32 -7 51 11 12 12 36 21 52 21 16 0 47
9 69 20 l39 20 34 -33 c18 -17 52 -67 75 -111 23 -43 57 -95 75 -116 17 -21
32 -40 32 -43 0 -14 -35 -15 -50 -2 -11 10 -50 17 -116 22 -96 8 -99 9 -102
33 -6 51 -12 51 -54 0 -32 -39 -58 -58 -102 -75 -32 -13 -73 -37 -90 -54 -78
-75 -319 -138 -643 -167 l-73 -6 0 -38 c0 -38 1 -39 43 -43 23 -2 2 -4 -46 -5
-56 -1 -86 2 -82 8 3 5 3 25 0 44 l-7 33 -116 7 c-299 17 -481 50 -572 105
-75 44 -89 85 -44 126 38 35 54 31 20 -4 -21 -22 -27 -36 -23 -53 20 -80 295
-148 596 -148 83 0 152 4 155 9 3 5 64 6 135 3 147 -6 282 8 420 44 97 26 255
93 234 101 -6 2 -49 -5 -95 -16 -135 -33 -227 -50 -323 -60 -49 -5 -126 -16
-170 -24 -116 -21 -207 -29 -200 -17 3 6 27 10 53 10 l47 0 -29 15 c-15 8 -46
15 -67 15 -21 0 -41 5 -44 10 -4 6 13 10 44 10 29 0 51 5 51 11 0 5 4 8 9 4 5
-3 13 -1 16 5 4 7 30 8 70 4 47 -5 89 -1 167 16 119 26 298 78 314 91 7 6 23
12 35 14 27 5 62 42 53 56 -3 5 3 6 13 2 13 -4 15 -3 8 5 -16 18 -142 62 -178
62 -49 1 -16 15 78 35 44 9 82 19 85 22 7 7 -119 -3 -150 -13 l-25 -8 28 26
c15 15 24 29 19 32 -36 22 -379 50 -385 31 -2 -5 -7 10 -11 34 -9 56 -28 93
-79 149 -42 45 -42 45 -10 28 18 -9 43 -31 56 -48z m-315 -100 c21 -21 13 -52
-23 -87 -22 -21 -35 -44 -35 -60 -1 -23 -2 -24 -11 -8 -5 9 -30 27 -54 40 -49
25 -49 25 17 85 48 42 83 53 106 30z m3647 -62 c66 -33 176 -128 163 -141 -3
-3 -22 2 -42 11 -35 17 -37 17 -65 -3 -24 -18 -30 -19 -42 -8 -30 30 -65 28
-101 -4 -35 -30 -35 -30 -53 -11 -22 25 -81 27 -106 4 -27 -25 -39 -8 -39 56
0 52 4 64 30 94 36 40 54 46 130 41 36 -3 77 -15 125 -39z m-3325 -11 c9 -11
10 -36 5 -92 -6 -61 -10 -74 -19 -62 -6 8 -18 13 -28 11 -9 -2 -26 7 -37 19
-12 13 -21 17 -21 10 0 -7 -5 -9 -11 -5 -15 9 -5 78 15 109 19 29 75 35 96 10z
m-455 -75 c27 0 23 -32 -9 -88 -41 -68 -68 -95 -93 -90 -23 5 -22 37 6 108 22
58 46 84 69 75 8 -3 20 -5 27 -5z m4310 -187 c199 -28 325 -62 325 -87 0 -27
-16 -26 -112 9 -109 39 -224 63 -351 74 -48 5 -93 13 -100 20 -14 14 61 9 238
-16z m-604 -105 c6 -24 15 -56 20 -72 13 -43 11 -56 -10 -56 -37 0 -52 13 -87
76 -42 75 -36 94 27 94 36 0 39 -2 50 -42z m-4600 -52 c-6 -7 -39 -21 -73 -31
-89 -25 -288 -122 -288 -140 0 -9 11 -20 26 -25 20 -8 460 -46 598 -51 l31 -2
-35 -6 -35 -7 40 -12 c22 -6 198 -21 390 -32 193 -12 368 -24 390 -27 23 -3
36 -2 32 3 -5 5 -18 10 -30 11 -303 31 -115 28 403 -7 91 -7 199 -15 240 -19
73 -8 74 -8 20 -10 -116 -3 -77 -18 77 -29 405 -30 1148 -78 1328 -86 61 -3
146 -8 191 -12 56 -5 83 -3 88 5 5 7 -8 11 -41 12 -26 1 -36 4 -22 6 14 2 182
-7 374 -21 192 -15 362 -26 379 -27 24 0 27 -2 12 -8 -10 -4 -46 -4 -80 0 -94
11 -322 22 -315 15 9 -10 748 -65 883 -66 45 0 21 14 -37 22 -84 11 301 -2
498 -17 283 -22 464 -27 544 -16 65 8 82 16 158 68 134 91 148 100 323 215 91
60 152 98 136 86 -16 -13 -38 -30 -50 -40 -32 -25 -13 -32 25 -9 19 12 36 16
39 11 9 -15 190 109 190 131 0 16 -62 28 -174 35 -66 4 -131 10 -145 14 l-26
8 25 1 c14 0 84 -4 157 -9 133 -9 183 -24 183 -55 0 -22 -631 -459 -700 -486
l-45 -17 -7 -108 c-4 -60 -10 -114 -13 -121 -2 -7 -20 -13 -39 -13 -27 0 -33
4 -31 18 2 9 6 61 9 115 l5 97 -112 0 c-61 0 -211 7 -332 15 -121 8 -362 24
-535 35 -173 11 -387 24 -475 30 -88 6 -268 17 -400 25 -218 13 -1150 75
-1875 125 -157 11 -388 26 -515 35 -126 8 -252 17 -280 20 -92 10 -778 54
-925 59 -250 10 -444 18 -470 19 -23 2 -25 -2 -28 -43 -2 -25 -1 -68 3 -97 l6
-51 62 -6 c34 -4 96 -11 137 -17 41 -6 122 -17 180 -24 l105 -13 -135 4 c-205
8 -401 23 -443 35 -20 5 -43 20 -51 32 -17 27 -29 235 -15 260 14 24 44 38
230 107 90 34 184 69 209 80 55 23 66 24 51 6z m3096 -222 c3 -9 -6 -27 -23
-45 -30 -31 -51 -35 -138 -23 -59 9 -69 28 -30 60 25 20 40 23 107 24 61 0 79
-3 84 -16z m-1954 -412 c60 -27 81 -60 74 -115 -5 -36 -15 -51 -67 -99 -33
-31 -57 -58 -53 -61 4 -3 23 -8 41 -12 38 -8 89 -56 98 -92 9 -33 42 -30 50 5
4 15 10 32 14 37 4 6 11 21 15 35 4 14 28 74 53 133 41 95 49 107 68 103 11
-3 29 1 40 9 10 8 27 15 36 15 9 0 18 6 21 13 3 7 7 5 12 -8 4 -11 11 -29 15
-40 5 -11 17 -75 26 -142 17 -117 19 -123 41 -123 17 0 23 -6 24 -22 0 -13 9
3 19 34 35 112 105 199 194 239 45 20 91 25 101 9 3 -5 12 -7 19 -4 19 7 59
-52 58 -87 -1 -47 -21 -99 -36 -93 -8 3 -16 -2 -20 -12 -6 -15 -9 -14 -26 6
-11 13 -20 34 -20 47 0 35 -33 29 -75 -12 -47 -47 -76 -107 -82 -169 -4 -43
-1 -56 18 -80 19 -24 27 -28 60 -23 20 3 57 18 81 34 57 39 98 61 81 42 -14
-14 -18 -49 -5 -49 4 1 17 9 28 18 18 15 26 47 48 175 32 189 38 207 65 200
13 -3 21 -1 21 7 0 7 7 10 15 7 8 -4 17 -2 20 3 10 17 25 11 25 -9 0 -11 4
-21 9 -23 6 -2 4 -31 -5 -72 -8 -38 -12 -71 -10 -74 3 -2 26 16 53 40 83 78
175 147 187 142 7 -3 23 7 36 21 37 39 46 29 10 -11 -17 -20 -29 -39 -25 -42
3 -3 11 0 17 6 17 17 33 15 19 -2 -6 -7 -9 -20 -6 -28 6 -15 -25 -46 -145
-148 -36 -30 -71 -60 -78 -67 -11 -11 3 -34 83 -134 54 -66 99 -118 102 -115
2 2 -1 13 -8 23 -13 22 -4 97 12 88 5 -4 9 -1 9 5 0 7 6 10 14 7 7 -3 18 -1
23 4 5 5 14 -5 22 -26 8 -23 20 -37 37 -41 36 -9 94 2 124 24 45 34 33 52 -72
107 -114 59 -136 77 -144 120 -11 60 38 120 138 171 119 60 228 31 228 -61 0
-31 -27 -88 -39 -80 -5 3 -12 -3 -16 -13 -6 -16 -7 -16 -16 1 -6 9 -14 15 -20
12 -5 -4 -9 8 -9 24 0 21 -5 31 -15 31 -29 0 -96 -33 -107 -53 -13 -24 -4 -33
91 -80 34 -18 83 -50 107 -73 36 -33 44 -47 44 -76 0 -65 -72 -126 -196 -168
-57 -19 -114 -27 -101 -13 7 6 -84 53 -92 47 -2 -1 18 -31 44 -65 49 -63 41
-65 -29 -10 -36 29 -65 36 -38 9 24 -24 11 -29 -18 -8 -24 17 -39 20 -77 15
-40 -4 -44 -3 -23 5 13 6 26 13 28 15 4 4 -191 224 -195 220 -2 -1 -11 -43
-22 -94 -10 -50 -22 -95 -26 -99 -4 -4 -4 3 -1 16 4 12 3 22 -2 22 -12 0 -32
-45 -34 -78 0 -16 -3 -9 -7 18 -5 36 -10 45 -25 43 -16 -1 -18 5 -14 63 2 35
1 64 -2 64 -3 0 -24 -19 -45 -41 -63 -66 -135 -119 -160 -119 -38 0 -111 38
-144 76 -17 19 -37 55 -43 80 -11 40 -29 56 -42 36 -2 -4 2 -41 10 -82 17 -89
17 -89 3 -70 -8 11 -9 0 -5 -40 l5 -55 -16 38 c-10 22 -21 36 -29 33 -6 -2
-14 4 -17 15 -3 11 -11 17 -19 14 -11 -5 -18 11 -29 62 -16 76 -10 74 -115 52
-51 -10 -52 -10 -73 -69 -12 -33 -28 -60 -35 -60 -8 0 -22 -17 -32 -37 -9 -21
-18 -33 -20 -28 -1 6 -5 23 -9 39 -6 27 -7 27 -20 10 -19 -25 -18 -14 1 53 13
46 14 57 3 64 -10 6 -28 -5 -59 -36 -25 -24 -76 -64 -115 -89 -38 -26 -63 -46
-55 -46 8 -1 -16 -16 -55 -35 -79 -39 -78 -39 -70 -25 3 6 -1 10 -9 10 -9 0
-18 -12 -22 -27 -9 -44 -12 -50 -13 -25 -1 12 -5 22 -10 22 -14 0 -21 -28 -21
-86 0 -34 -4 -53 -10 -49 -5 3 -10 31 -10 61 0 54 -15 74 -23 32 l-4 -23 -8
23 c-8 24 -15 24 -72 6 -17 -5 -17 -5 1 10 23 18 13 36 -17 29 l-22 -5 23 20
c26 23 29 37 6 28 -30 -11 -2 14 36 34 44 22 46 29 54 168 3 66 1 82 -10 82
-14 0 -18 17 -15 53 1 9 -4 17 -11 17 -7 0 0 9 16 19 40 27 45 37 52 120 l7
72 -24 -10 c-13 -5 -41 -16 -61 -25 -21 -9 -39 -12 -43 -7 -3 5 1 11 7 14 10
4 11 7 1 18 -11 11 -24 9 -75 -9 -33 -12 -63 -21 -64 -19 -2 2 28 19 66 37 39
19 70 38 70 43 0 5 -7 7 -15 3 -8 -3 -15 -1 -15 4 0 21 175 94 263 110 76 13
188 5 240 -18z m-1418 -215 c8 -98 20 -231 25 -295 5 -64 16 -196 24 -292 19
-226 29 -454 16 -386 -23 126 -101 1170 -86 1156 3 -3 12 -86 21 -183z m3899
121 c4 -24 14 -94 21 -156 8 -62 17 -118 20 -123 4 -5 15 -9 25 -9 13 0 17 -5
14 -15 -4 -8 -2 -15 2 -15 5 0 24 34 43 75 57 128 195 235 303 235 66 0 96
-14 115 -55 16 -33 16 -37 -3 -82 -14 -34 -25 -47 -37 -45 -9 2 -17 -2 -17 -8
0 -5 -4 -10 -10 -10 -5 0 -10 7 -10 16 0 8 -4 12 -10 9 -6 -4 -10 7 -10 24 0
21 -5 31 -15 31 -53 0 -149 -80 -185 -155 -25 -51 -26 -122 -3 -147 24 -27 80
-23 127 10 57 39 57 52 2 52 -34 0 -46 4 -47 15 -5 70 -5 70 37 77 21 3 78 9
126 13 l87 8 -4 -34 c-2 -19 -17 -74 -34 -124 -17 -49 -39 -117 -50 -150 -12
-37 -20 -51 -20 -35 -1 34 -18 15 -35 -41 l-14 -44 -1 48 c-1 26 -5 47 -11 47
-5 0 -10 -7 -10 -15 0 -8 -5 -15 -10 -15 -6 0 -8 11 -5 25 3 14 7 36 10 50 3
14 4 25 2 25 -2 0 -25 -11 -51 -25 -58 -31 -78 -31 -135 -2 -58 30 -101 84
-108 136 -5 35 -9 41 -29 41 -20 0 -23 -4 -18 -27 24 -136 25 -154 3 -123 -8
11 -9 -2 -5 -43 6 -60 -6 -72 -17 -17 -4 16 -13 30 -20 30 -8 0 -19 10 -25 23
-6 12 -11 16 -11 10 -1 -7 -5 -13 -9 -13 -5 0 -14 32 -21 70 -15 80 -16 80
-125 58 l-58 -11 -34 -71 c-19 -39 -34 -63 -34 -54 0 29 -27 10 -50 -35 -19
-39 -20 -40 -16 -12 5 33 -11 70 -21 48 -2 -7 -8 -13 -13 -13 -5 0 2 27 16 60
28 69 28 71 11 64 -10 -3 -14 4 -14 26 0 16 5 30 10 30 5 0 4 6 -3 14 -9 12
-5 16 24 21 33 7 38 13 93 124 31 64 59 119 61 123 2 4 -9 6 -25 3 -15 -2 -64
-9 -108 -15 l-81 -12 -17 -61 c-9 -34 -33 -131 -54 -216 -27 -109 -39 -146
-43 -127 l-5 28 -22 -30 c-12 -17 -25 -42 -29 -56 -10 -41 -23 -30 -13 12 10
43 2 83 -12 61 -26 -42 -15 49 35 305 l14 68 -42 -6 c-94 -15 -131 -18 -117
-8 11 8 12 14 4 24 -12 16 -10 65 3 78 6 6 51 16 100 22 49 6 95 16 102 21 16
12 256 19 285 7 l22 -8 -24 -9 c-22 -9 -23 -10 -5 -17 18 -7 17 -8 -6 -21 -25
-14 -25 -14 15 -15 36 0 43 4 58 33 15 27 25 34 50 34 47 2 97 14 97 24 0 5 4
9 9 9 5 0 12 -19 15 -42z m1085 -67 c5 -7 22 -14 39 -15 46 -2 49 -14 6 -21
-22 -4 -50 -12 -63 -18 l-23 -12 23 -6 c22 -5 23 -6 4 -12 -11 -3 -51 -8 -90
-12 -169 -14 -173 -15 -178 -38 -3 -12 -9 -33 -13 -45 -7 -24 -6 -24 62 -22
38 1 83 2 99 1 28 -2 29 -2 10 -13 -19 -12 -19 -12 5 -18 25 -7 25 -7 -10 -23
-19 -8 -29 -16 -22 -16 7 -1 11 -5 8 -10 -4 -5 -48 -12 -100 -16 l-94 -7 -13
-47 c-7 -25 -12 -48 -11 -50 1 -2 71 -3 155 -2 88 1 158 -3 167 -9 11 -7 7
-10 -20 -10 -67 -1 -8 -20 65 -21 81 -2 71 -5 -37 -14 -76 -7 -110 -25 -46
-25 73 0 12 -9 -137 -20 -88 -7 -172 -18 -187 -25 -20 -10 -28 -10 -31 -1 -3
6 -9 0 -15 -14 -8 -18 -11 -20 -11 -7 -1 13 -10 17 -37 17 -27 0 -35 4 -31 14
3 8 3 17 -1 21 -4 3 -7 19 -8 35 -1 22 3 30 19 32 27 4 65 107 44 123 -7 5
-12 16 -11 23 1 6 2 21 3 31 0 11 10 23 22 26 20 7 30 24 43 78 5 22 3 27 -12
27 -28 0 -30 6 -19 54 14 61 48 74 191 75 60 1 112 4 115 7 11 11 132 -2 140
-15z m-2630 -566 c33 -10 69 -31 88 -50 33 -33 34 -35 18 -65 -17 -32 -68 -69
-144 -102 l-46 -21 68 -17 c75 -19 115 -43 135 -83 17 -35 -1 -70 -64 -125
-53 -47 -98 -70 -227 -118 -59 -22 -78 -32 -52 -28 61 10 38 -2 -50 -26 -119
-33 -123 -34 -105 -21 13 9 12 11 -5 10 -11 0 -38 -6 -60 -13 -34 -10 -41 -17
-51 -51 l-12 -40 -1 38 c-1 34 -3 37 -21 27 -11 -6 -21 -25 -25 -48 -3 -20
-10 -55 -15 -77 -7 -32 -8 -24 -4 38 5 72 3 78 -13 75 -10 -2 -19 -13 -21 -26
-4 -27 -22 -19 -22 9 0 20 -8 20 -72 2 -10 -2 -18 0 -18 5 0 10 45 19 105 21
41 2 49 4 135 30 41 12 120 36 175 53 161 48 165 49 165 59 0 5 -12 3 -26 -3
-20 -9 -30 -9 -45 0 -10 7 -34 12 -53 12 -19 0 -37 6 -39 13 -3 6 -6 3 -6 -8
-1 -13 -4 -16 -9 -8 -5 9 -25 7 -77 -8 -72 -20 -109 -25 -89 -11 6 4 15 18 18
32 18 63 20 59 -18 53 -21 -3 -42 -1 -49 6 -11 8 -16 6 -25 -12 -18 -37 -23
-75 -10 -79 23 -8 -3 -26 -54 -38 -64 -15 -93 -29 -63 -30 20 -1 20 -1 1 -15
-11 -8 -14 -15 -8 -15 7 0 12 -4 12 -8 0 -4 -17 -6 -37 -4 -33 4 -35 6 -15 13
24 9 30 29 10 29 -22 1 23 22 70 34 l45 12 24 89 c12 50 26 101 29 114 6 20 4
23 -11 18 -12 -5 -16 -3 -12 7 3 8 1 17 -6 19 -9 3 -8 8 2 20 11 14 11 17 0
18 -8 0 4 9 25 19 36 16 42 26 68 95 l28 78 -37 -7 c-95 -16 -118 -17 -104 -8
16 12 6 32 -17 33 -13 0 -14 2 -2 6 8 3 23 15 35 25 20 19 20 19 -10 12 -25
-5 -28 -4 -18 7 7 7 59 23 115 35 90 20 125 23 273 20 126 -2 184 -8 224 -21z
m793 -4 c2 -6 33 -6 78 -1 41 5 111 9 155 8 l80 0 -50 -13 -50 -12 35 -5 35
-4 -35 -12 -35 -12 35 5 c19 2 116 9 215 16 135 9 186 9 200 1 19 -11 18 -11
-5 -12 -22 -1 -23 -2 -7 -11 10 -6 25 -8 33 -5 8 3 14 2 14 -3 0 -5 -24 -15
-52 -24 -51 -15 -51 -15 -18 -16 70 -3 5 -20 -121 -32 l-126 -12 -16 -45 -17
-45 80 7 c44 3 92 3 107 -1 l28 -7 -25 -7 -25 -6 25 -11 c14 -6 20 -11 13 -11
-6 -1 -24 -6 -40 -12 l-28 -12 25 -7 c18 -4 4 -8 -50 -14 -157 -14 -156 -14
-169 -54 -7 -21 -15 -42 -17 -49 -4 -8 45 -10 193 -8 109 2 181 1 161 -1 -71
-9 -36 -32 52 -35 43 -2 42 -2 -15 -9 -33 -4 -80 -10 -104 -15 -32 -6 -42 -5
-37 3 4 7 16 12 27 12 11 0 17 5 14 10 -3 6 -15 10 -26 10 -13 0 -18 4 -13 11
5 9 -21 10 -102 5 -60 -4 -124 -10 -143 -13 -33 -6 -34 -5 -27 23 4 16 8 33 9
39 1 5 -13 11 -31 13 -18 2 -30 8 -27 13 4 5 0 9 -7 9 -14 0 -38 -53 -38 -84
0 -10 -12 -21 -27 -27 -23 -8 -28 -15 -27 -41 1 -26 6 -33 27 -39 14 -4 28 -5
30 -2 9 9 345 43 412 41 39 -1 52 -3 30 -5 -185 -15 -383 -35 -395 -41 -8 -3
-41 -6 -72 -7 -43 0 -54 2 -47 11 7 9 5 16 -8 23 -10 6 -12 11 -5 11 6 0 12 6
12 14 0 8 -6 16 -12 19 -7 2 3 9 22 15 30 10 38 19 50 60 18 57 18 68 3 65 -9
-2 -11 27 -4 55 1 1 1 5 0 9 0 3 13 12 28 18 19 8 34 26 45 53 15 39 15 42 -2
47 -12 4 -16 13 -12 31 4 22 2 25 -14 21 -11 -3 -53 -8 -94 -12 l-75 -6 -23
-57 c-12 -31 -50 -131 -84 -221 -34 -91 -64 -159 -66 -152 -2 7 7 43 21 80 34
90 40 121 25 122 -7 1 -32 2 -55 3 l-41 1 -22 -64 c-19 -53 -21 -64 -9 -72 10
-6 10 -9 2 -9 -7 0 -21 -17 -32 -37 -11 -21 -20 -33 -21 -26 0 11 82 261 117
355 10 26 15 49 13 51 -3 3 -32 1 -65 -4 -138 -20 -142 -20 -122 -5 18 14 18
15 0 24 -17 10 -17 11 2 32 16 18 17 23 5 30 -22 14 20 26 140 40 58 6 110 15
115 20 6 4 21 10 35 13 14 2 28 5 32 6 3 0 8 -3 10 -8z m1088 -19 c19 -9 37
-26 39 -37 2 -11 8 -23 14 -27 17 -11 -28 -99 -47 -92 -9 3 -17 -3 -22 -18
l-7 -23 -9 24 c-7 19 -11 21 -22 11 -12 -9 -15 -6 -18 22 -3 32 -4 33 -46 31
-49 -2 -147 -51 -147 -73 0 -10 41 -30 120 -61 202 -77 255 -112 255 -168 0
-16 -4 -33 -10 -36 -5 -3 -10 -15 -10 -26 0 -10 -6 -19 -14 -19 -7 0 -19 -7
-27 -16 -11 -14 -6 -15 52 -9 35 3 74 8 86 11 12 2 25 0 28 -6 4 -6 -6 -10
-22 -11 -128 -3 -191 -17 -325 -74 -76 -32 -135 -61 -132 -64 5 -5 -66 -36
-119 -51 -18 -6 -25 -5 -21 2 9 15 -22 4 -155 -53 -131 -56 -164 -58 -45 -3
43 21 74 39 68 41 -6 2 -82 -21 -169 -52 -88 -30 -164 -55 -169 -55 -18 1 36
29 77 40 20 6 59 20 85 32 26 12 50 21 55 20 4 -1 35 7 68 19 34 11 68 18 75
15 8 -3 14 -2 14 2 0 4 15 7 33 8 36 1 230 68 328 113 l64 30 -57 0 c-32 1
-58 5 -58 10 0 21 -47 17 -115 -10 -122 -49 -318 -138 -355 -162 -41 -27 -99
-52 -105 -45 -7 6 147 82 388 192 217 99 297 141 297 156 0 18 -32 39 -102 65
-213 80 -258 107 -258 157 0 61 87 132 221 178 97 34 168 38 219 12z m-1475
-22 c-4 -11 -2 -20 4 -20 6 0 11 -6 11 -12 0 -14 -116 -350 -156 -453 -30 -78
-30 -57 0 42 31 103 36 124 25 117 -5 -3 -9 0 -9 5 0 14 -37 14 -45 1 -3 -5
-17 -10 -30 -10 -20 0 -27 -8 -40 -52 -8 -28 -15 -58 -15 -67 0 -23 -23 -81
-33 -81 -4 0 -5 10 -1 23 4 12 11 36 15 52 4 17 26 91 49 165 23 74 47 156 55
181 19 68 45 115 55 99 6 -10 15 -10 46 0 22 7 46 16 54 21 22 11 22 11 15
-11z m-2347 -153 c7 -6 12 -24 10 -41 -3 -30 -4 -31 -62 -34 -82 -4 -116 11
-116 53 0 17 3 35 7 38 9 10 146 -4 161 -16z m246 -13 c25 -10 22 -74 -4 -81
-11 -3 -20 -8 -20 -12 0 -3 9 -12 20 -19 25 -15 28 -70 4 -79 -8 -3 -48 -2
-87 3 l-72 9 -3 38 c-3 35 -2 37 27 37 39 0 40 12 1 27 -26 10 -30 16 -30 47
l0 36 74 0 c41 0 81 -3 90 -6z m4680 -150 c46 -7 46 -7 46 -45 l0 -39 -64 0
c-35 0 -78 3 -95 6 -27 6 -31 11 -31 39 0 17 3 35 7 38 8 9 76 9 137 1z m257
-14 l59 0 0 -40 0 -40 -76 0 c-90 0 -114 10 -114 49 0 36 9 44 44 37 16 -3 55
-6 87 -6z m-218 -119 c5 -5 7 -21 5 -37 -3 -26 -7 -29 -43 -32 -22 -2 -64 -1
-92 3 -52 6 -53 7 -53 39 0 18 3 36 8 40 9 10 164 -2 175 -13z m-5447 -54
c-17 -13 -17 -14 6 -29 41 -27 94 -37 293 -53 104 -9 194 -20 200 -24 9 -8
166 -22 785 -70 129 -10 217 -19 195 -20 -22 0 -206 10 -410 23 -366 25 -640
40 -867 51 l-118 5 -1 -43 c0 -36 -2 -39 -10 -19 -5 13 -13 20 -19 17 -6 -4
-13 7 -17 25 -6 32 -33 50 -74 50 -16 0 -19 -7 -19 -45 0 -25 -5 -45 -10 -45
-7 0 -10 29 -8 77 l3 78 35 17 c42 20 61 23 36 5z m6664 -28 c12 -21 24 -13
-255 -164 -99 -54 -229 -126 -290 -160 -60 -34 -138 -73 -172 -85 -35 -12 -60
-26 -58 -31 7 -10 -36 -16 -55 -8 -8 4 -145 15 -305 24 -159 9 -501 30 -760
46 -258 16 -483 29 -500 30 -16 1 -23 3 -14 6 9 2 173 -5 365 -17 687 -41 880
-50 964 -49 47 0 92 -2 101 -6 9 -3 45 -4 80 -2 l64 3 -75 4 -75 3 95 7 c52 3
96 3 98 0 5 -11 85 5 135 28 63 28 214 120 224 135 8 12 111 76 182 112 18 9
46 18 62 20 29 4 125 51 164 81 19 14 19 16 3 28 -22 16 -23 27 -3 20 9 -4 20
-15 25 -25z m-1467 -14 c13 -6 17 -16 15 -39 -3 -29 -6 -31 -48 -34 -25 -1
-65 1 -90 6 -36 6 -46 12 -48 30 -7 49 3 55 81 49 39 -3 80 -9 90 -12z m245
-17 c20 -20 15 -66 -9 -73 -32 -10 -157 5 -170 21 -6 8 -8 25 -5 39 6 24 9 25
89 25 51 0 88 -5 95 -12z m-1764 -36 c22 -4 -129 -7 -335 -7 -408 0 -530 -6
-749 -34 -130 -17 -376 -68 -368 -76 2 -2 120 12 263 31 312 41 613 65 675 54
24 -4 152 -7 284 -5 235 3 237 3 76 -5 -308 -16 -533 -40 -699 -75 -41 -8 -76
-13 -79 -10 -14 14 257 69 388 78 25 2 6 4 -43 5 -112 2 -425 -29 -680 -69
-108 -16 -212 -29 -230 -27 l-32 3 32 17 c96 53 445 108 808 128 169 9 623 4
689 -8z"/>
<path d="M2692 2799 c-21 -6 -36 -19 -42 -35 -15 -37 -13 -57 5 -50 8 3 15 2
15 -3 0 -5 -12 -12 -27 -16 -16 -3 -51 -24 -78 -45 -28 -22 -62 -43 -75 -49
-22 -8 -22 -10 -5 -10 11 -1 36 4 55 9 19 6 48 13 64 16 43 7 48 13 42 43 -6
23 -5 24 5 6 7 -11 13 -22 15 -24 2 -2 22 4 44 14 66 30 105 121 61 145 -23
12 -34 12 -79 -1z"/>
<path d="M201 2193 c0 -38 4 -88 7 -113 6 -39 11 -45 40 -54 18 -5 35 -6 39
-3 8 8 7 148 -2 187 -6 26 -42 50 -76 50 -5 0 -9 -30 -8 -67z"/>
<path d="M1625 1493 c-11 -2 -29 -6 -41 -8 -21 -5 -25 -21 -50 -184 l-6 -44
62 34 c91 50 170 124 170 159 0 24 -5 29 -44 39 -46 11 -56 12 -91 4z"/>
<path d="M2470 1054 c-8 -3 -27 -34 -42 -70 l-27 -66 25 6 c52 13 191 67 223
87 31 19 33 22 17 31 -20 11 -171 20 -196 12z"/>
<path d="M2450 815 c-8 -2 -32 -6 -52 -10 l-37 -6 -32 -99 c-18 -55 -30 -103
-27 -105 9 -10 170 46 263 90 94 45 131 75 122 98 -9 24 -172 45 -237 32z"/>
</g>
</svg>
