<?xml version="1.0" standalone="no"?>
<!DOCTYPE svg PUBLIC "-//W3C//DTD SVG 20010904//EN"
 "http://www.w3.org/TR/2001/REC-SVG-20010904/DTD/svg10.dtd">
<svg version="1.0" xmlns="http://www.w3.org/2000/svg"
 width="720.000000pt" height="544.000000pt" viewBox="0 0 720.000000 544.000000"
 preserveAspectRatio="xMidYMid meet">
<metadata>
Created by potrace 1.16, written by Peter Selinger 2001-2019
</metadata>
<g transform="translate(0.000000,544.000000) scale(0.100000,-0.100000)"
fill="#000000" stroke="none">
<path d="M3658 5395 c-135 -23 -286 -84 -417 -169 -77 -49 -179 -148 -219
-211 -15 -22 -43 -60 -63 -85 -53 -64 -69 -111 -69 -194 l0 -72 -84 -92 c-71
-78 -86 -100 -95 -143 -23 -106 -10 -210 42 -322 36 -80 88 -126 203 -180 54
-26 106 -51 114 -56 8 -4 39 -37 69 -72 30 -35 86 -86 125 -113 39 -26 72 -49
74 -51 2 -1 -35 -8 -82 -15 -48 -7 -86 -16 -86 -21 0 -5 5 -9 12 -9 6 0 8 -3
5 -7 -4 -3 -2 -12 3 -18 8 -9 1 -18 -25 -34 -19 -11 -35 -27 -35 -35 0 -17
-60 -66 -80 -66 -8 0 -9 -4 -3 -12 6 -7 12 -20 16 -29 3 -9 -23 12 -57 47 -41
43 -72 66 -94 70 -17 4 -32 8 -32 11 0 2 9 21 19 41 36 70 144 153 226 173
l30 7 -28 1 c-65 2 -194 -91 -244 -177 -23 -39 -25 -48 -16 -88 9 -40 9 -44
-6 -38 -38 18 -121 14 -228 -9 l-112 -24 -74 53 c-73 54 -252 139 -295 142
-31 1 -19 -14 18 -21 56 -12 235 -104 281 -145 26 -23 54 -59 62 -80 21 -52
31 -142 18 -172 -5 -14 -10 -19 -10 -12 -1 6 -11 12 -24 12 -34 0 -96 35 -121
68 -11 15 -31 39 -43 52 -13 13 -23 34 -23 46 0 12 -18 58 -41 102 -39 76 -43
81 -97 105 -32 13 -82 28 -112 32 -44 6 -51 10 -35 16 33 15 -93 -1 -138 -17
-23 -8 -48 -21 -57 -28 -8 -8 -33 -19 -56 -25 -22 -6 -59 -24 -81 -40 -44 -32
-167 -184 -183 -227 -17 -44 -2 -174 24 -202 32 -36 76 -55 120 -54 23 1 46
-4 56 -13 9 -8 30 -18 47 -21 43 -8 90 35 106 97 l12 47 75 -49 c104 -69 153
-93 249 -124 73 -24 96 -27 204 -25 73 2 142 -3 172 -10 44 -11 70 -10 205 9
158 23 202 37 219 70 7 12 27 21 58 25 26 4 69 18 95 32 26 13 49 20 51 16 3
-4 19 -50 36 -102 38 -114 79 -178 137 -213 33 -20 44 -34 49 -61 4 -19 4 -39
0 -45 -3 -6 -38 -11 -77 -11 -56 0 -74 4 -83 17 -17 23 -86 23 -109 0 -21 -21
-26 -21 -53 -2 -14 10 -57 18 -118 22 l-95 6 0 42 c0 56 -16 73 -80 85 -86 16
-178 -8 -192 -51 -2 -7 -33 -1 -91 20 -154 54 -235 65 -507 65 -135 1 -271 -2
-302 -6 l-56 -8 -7 30 c-6 29 -9 30 -61 30 -40 0 -56 -4 -61 -15 -8 -22 -1
-26 37 -18 29 5 31 7 15 14 -17 7 -17 8 6 8 43 1 31 -27 -15 -35 -22 -3 -47
-10 -56 -15 -12 -8 -105 -33 -267 -76 -19 -4 -23 -1 -23 19 0 35 -18 48 -70
48 -57 0 -70 -12 -70 -66 l0 -43 -73 1 c-93 1 -134 -18 -139 -64 -2 -25 -9
-33 -33 -41 -16 -5 -111 -41 -210 -79 -519 -199 -485 -180 -484 -272 1 -134
14 -217 34 -232 50 -36 55 -44 55 -91 0 -25 20 -292 45 -592 25 -300 48 -580
51 -621 l6 -76 -40 -18 c-23 -10 -51 -29 -63 -42 -19 -21 -21 -31 -17 -96 9
-119 32 -130 323 -153 105 -8 327 -24 495 -35 646 -43 1780 -121 2110 -145
912 -67 1317 -97 1560 -117 223 -18 361 -22 873 -25 l607 -4 0 35 c0 37 -15
49 -23 18 -3 -9 -5 1 -6 24 l-1 40 -202 13 c-112 6 -275 16 -363 21 -625 38
-834 51 -860 54 -45 7 218 -3 400 -14 697 -42 780 -44 1030 -25 44 4 55 2 40
-5 -49 -24 74 4 133 31 91 41 213 119 205 132 -3 5 -1 7 5 3 5 -3 12 -3 14 2
1 4 41 30 88 56 166 95 167 96 155 75 -9 -14 60 16 123 54 57 34 61 41 35 56
-10 5 -15 12 -11 16 3 4 16 -3 28 -15 12 -12 18 -26 14 -30 -5 -5 -119 -69
-254 -143 -135 -73 -281 -154 -325 -179 -44 -25 -102 -53 -130 -63 -68 -25
-80 -40 -84 -102 l-2 -53 75 0 c76 0 76 0 199 70 339 195 523 309 534 331 7
13 13 54 13 91 0 64 -1 68 -36 96 l-36 30 16 188 c18 213 37 485 65 908 l19
289 28 22 c25 20 29 31 35 101 4 44 8 120 8 170 1 142 0 142 -374 169 -121 8
-244 18 -272 21 l-53 5 0 74 c0 71 -1 75 -27 89 -46 23 -124 29 -169 13 -37
-12 -52 -11 -155 10 -359 72 -902 76 -1201 9 l-58 -13 0 32 c0 44 -21 59 -81
57 -61 -1 -69 -6 -69 -40 0 -66 -2 -67 -106 -67 -89 0 -97 -2 -115 -24 -11
-13 -18 -30 -15 -38 4 -10 -9 -13 -54 -13 -65 0 -80 14 -26 24 23 5 55 27 103
74 100 96 157 185 178 277 l11 50 54 7 c30 3 65 16 82 28 27 20 42 22 147 22
85 0 136 5 191 20 115 30 232 79 263 110 15 15 43 32 62 37 33 9 39 7 36 -11
-2 -15 25 -7 64 18 59 39 114 94 135 134 10 19 27 43 38 53 25 23 55 106 77
212 29 140 28 139 60 149 17 5 39 13 50 17 17 8 16 9 -7 6 -35 -5 -36 7 -2 30
21 13 30 14 45 5 16 -10 23 -8 44 10 57 49 101 128 73 128 -7 0 -22 -19 -33
-42 -17 -36 -25 -44 -52 -46 -41 -4 -43 12 -12 94 17 45 25 55 40 51 30 -8 22
15 -14 44 l-32 26 3 -37 c5 -47 -28 -125 -55 -132 -35 -9 -63 9 -63 40 0 36
-8 44 -30 30 -14 -9 -22 -8 -36 3 -16 13 -17 12 -12 -8 5 -19 2 -23 -15 -23
-12 1 -33 8 -47 16 l-25 15 33 -5 c41 -7 42 11 2 46 -29 25 -29 25 -43 5 -17
-27 -29 -18 -67 49 -18 30 -34 54 -36 52 -2 -2 -4 -50 -5 -106 -2 -80 -5 -98
-14 -84 -15 23 -8 232 9 232 6 0 29 -32 50 -70 22 -39 42 -70 45 -70 3 0 23
31 44 69 39 68 39 68 83 69 42 0 46 -2 61 -33 12 -25 20 -32 31 -26 17 9 50 3
72 -13 12 -9 12 -7 -1 14 -9 13 -30 28 -46 32 -47 12 -57 31 -38 67 56 109 4
217 -95 198 -85 -18 -393 -230 -406 -281 -3 -13 -27 -33 -61 -51 -56 -31 -107
-95 -82 -104 6 -2 15 3 19 10 28 47 66 89 82 89 10 0 18 -4 18 -9 0 -5 14 -12
30 -16 38 -8 39 -33 4 -100 -22 -41 -25 -54 -16 -77 6 -15 8 -28 6 -28 -12 0
-101 54 -117 71 -10 10 -21 19 -25 19 -7 0 -25 -78 -55 -241 l-10 -57 -89 -22
-88 -22 -35 26 c-74 56 -133 76 -231 76 -108 0 -169 -16 -224 -60 -39 -31 -42
-32 -110 -25 -54 5 -76 4 -93 -7 -20 -13 -111 -17 -123 -5 -3 2 16 10 41 16
27 7 96 46 172 97 165 111 152 105 202 88 42 -14 46 -14 145 21 117 42 191 93
228 157 27 46 73 176 65 184 -2 3 -19 -31 -36 -74 -39 -97 -76 -152 -101 -152
-25 0 -50 10 -50 21 0 5 9 4 20 -3 24 -15 32 -6 91 110 64 128 65 195 4 297
-20 32 -33 60 -31 63 3 2 17 5 31 5 25 0 25 0 9 26 -37 56 -124 147 -143 148
-11 1 -25 -4 -31 -12 -9 -11 -2 -17 32 -33 45 -20 86 -58 74 -69 -3 -4 -22 1
-42 11 -33 15 -38 16 -61 1 -23 -15 -83 -100 -83 -117 0 -4 6 -5 14 -2 29 11
56 -15 56 -54 0 -20 -4 -32 -8 -25 -12 19 -62 35 -62 20 0 -9 -3 -8 -9 1 -10
17 -14 1 -31 -112 -13 -89 -6 -209 16 -261 20 -48 39 -64 74 -60 18 3 28 0 25
-5 -4 -6 -2 -10 4 -10 5 0 13 5 16 10 3 6 1 10 -4 10 -6 0 -11 7 -11 15 0 20
29 19 37 -1 8 -23 -25 -46 -58 -42 -19 3 -25 0 -22 -9 9 -24 -53 -15 -86 12
-64 55 -75 85 -75 224 0 69 2 164 5 210 4 74 7 85 26 92 11 4 33 28 49 54 16
26 44 65 63 86 18 21 28 39 22 39 -6 0 -17 13 -25 29 -20 37 -6 51 54 51 50 0
70 13 70 45 0 36 -31 119 -55 145 -13 14 -33 45 -45 70 -62 124 -224 281 -359
350 -86 43 -225 89 -319 105 -101 18 -278 18 -384 0z m237 -239 c96 -17 224
-63 311 -112 81 -45 193 -164 235 -250 30 -61 31 -68 24 -137 -5 -39 -9 -97
-10 -127 0 -30 -11 -82 -23 -116 -29 -83 -50 -237 -51 -371 -1 -61 -5 -123
-10 -136 -5 -14 -7 -28 -4 -31 4 -3 0 -6 -9 -6 -8 0 -23 -9 -34 -21 -10 -12
-35 -30 -54 -40 -42 -23 -110 -82 -110 -96 0 -6 -9 -13 -20 -16 -11 -3 -20
-10 -20 -16 0 -7 9 -7 30 0 17 6 30 15 30 20 0 5 15 15 33 22 18 8 60 37 94
66 61 50 83 61 83 41 0 -6 9 -14 21 -18 18 -7 9 -15 -63 -64 -105 -70 -105
-70 -213 -106 -153 -51 -146 -51 -178 11 -15 30 -27 64 -27 75 0 12 -5 22 -11
22 -11 0 -9 -7 21 -100 13 -37 15 -57 8 -61 -6 -4 -70 -10 -142 -14 -152 -8
-230 2 -360 46 -141 47 -200 83 -275 169 -69 77 -80 101 -130 268 -28 93 -47
355 -31 441 20 113 58 221 96 279 101 150 191 230 336 299 183 87 295 107 453
79z m-955 -416 c0 -15 9 -22 31 -27 l30 -6 -29 -31 c-15 -17 -44 -62 -63 -100
l-34 -70 0 -160 c0 -138 3 -171 22 -231 26 -82 74 -160 106 -170 l22 -8 -22
-4 c-33 -6 -97 31 -139 83 -32 38 -40 58 -50 122 -15 91 -17 213 -5 298 10 65
58 173 94 212 18 19 19 26 9 42 -8 13 -9 27 -2 45 11 30 30 33 30 5z m2299
-865 c6 -3 20 -28 32 -55 16 -38 32 -56 76 -83 55 -35 55 -36 24 -35 -18 1
-37 -5 -42 -13 -7 -12 -9 -12 -10 1 -1 23 -17 -18 -24 -64 -4 -23 -10 -35 -14
-28 -9 15 -34 -53 -33 -90 0 -16 -3 -28 -8 -28 -5 0 -7 -8 -3 -17 3 -10 -6 -2
-21 17 -61 79 -70 200 -26 355 11 39 20 75 20 80 1 6 5 0 10 -11 5 -12 13 -25
19 -29z m552 -98 c0 -8 -7 -52 -23 -147 -15 -92 -58 -178 -117 -233 -51 -48
-75 -57 -85 -34 -5 10 -7 10 -12 0 -3 -7 -12 -13 -20 -13 -24 0 -7 68 31 125
18 28 41 68 50 90 10 22 21 48 26 57 5 10 9 23 9 30 0 15 32 38 75 54 22 8 30
18 31 35 0 30 12 51 26 47 5 -2 9 -7 9 -11z m-965 -92 c40 -17 104 -61 104
-73 0 -4 -30 -8 -68 -8 -110 -2 -191 -59 -232 -165 -13 -33 -23 -45 -41 -46
l-24 -3 23 12 c22 11 29 42 14 64 -9 15 -100 34 -157 34 -35 0 -45 -4 -50 -21
-13 -39 -16 -11 -5 32 14 53 70 129 112 154 60 35 110 45 199 41 47 -3 103
-12 125 -21z m314 -58 c0 -7 -6 -19 -12 -26 -10 -11 -10 -13 0 -7 22 13 12 -5
-17 -30 -72 -60 -61 -257 18 -328 24 -22 28 -38 7 -30 -21 8 -62 75 -77 123
-7 23 -15 38 -18 34 -3 -4 -11 -9 -16 -10 -6 -1 -40 -8 -75 -15 -36 -8 -92
-13 -125 -12 l-60 2 3 49 c4 59 23 100 72 156 40 45 55 52 190 86 92 23 110
25 110 8z m-3093 -112 c35 -15 35 -16 30 -61 -5 -50 -38 -94 -71 -94 -11 0
-34 14 -52 31 l-32 31 -8 -23 c-10 -30 -6 -81 6 -93 6 -6 10 -21 10 -34 0 -15
4 -21 12 -16 7 5 8 3 3 -5 -20 -34 -105 -46 -105 -15 0 20 -19 17 -54 -9 -17
-13 -41 -29 -53 -36 -19 -9 -22 -9 -17 3 3 7 -2 30 -10 51 -9 21 -16 46 -16
56 0 22 28 39 64 39 20 0 27 -7 35 -32 8 -29 9 -30 10 -8 1 13 14 38 30 55 45
46 26 63 -72 67 -42 2 -77 5 -77 7 0 11 62 50 119 73 78 32 189 38 248 13z
m2300 -77 c-9 -40 -19 -100 -22 -133 -6 -58 7 -191 21 -229 6 -16 4 -17 -11
-9 -10 6 -26 8 -36 6 -13 -4 -20 4 -28 34 -6 21 -11 47 -11 57 0 11 -3 16 -6
13 -6 -6 9 -104 23 -146 4 -13 3 -13 -5 -2 -8 10 -13 11 -23 2 -40 -33 -211
-139 -255 -157 l-50 -21 -68 40 c-38 22 -103 51 -144 63 -63 18 -78 26 -83 45
-7 23 -7 23 -8 -4 -1 -24 -4 -27 -25 -21 -12 3 -51 0 -84 -6 l-62 -11 -42 45
c-40 44 -42 45 -55 26 -8 -11 -17 -20 -21 -20 -15 0 -52 115 -52 162 0 32 -9
58 -34 97 -16 25 -26 -11 -26 -99 0 -90 19 -159 72 -265 14 -27 29 -66 32 -85
7 -34 6 -34 -9 -15 -27 33 -61 106 -85 180 -41 131 -26 355 30 466 20 39 40
58 40 40 0 -6 9 -11 20 -11 11 0 20 -5 20 -10 0 -6 11 -8 25 -4 20 5 31 0 50
-20 19 -20 30 -25 54 -20 23 5 37 0 68 -25 21 -17 64 -39 95 -50 50 -17 69
-19 140 -11 46 5 101 15 124 23 61 22 159 73 173 91 15 18 36 22 25 5 -11 -18
69 -3 161 30 44 16 82 27 84 25 2 -1 -4 -36 -12 -76z m-2099 -63 c40 -75 41
-81 28 -107 -7 -14 -16 -42 -20 -62 -5 -27 -14 -40 -32 -47 -14 -5 -29 -7 -34
-4 -5 3 -11 -1 -13 -7 -3 -7 -6 -4 -6 7 -1 12 -6 26 -12 32 -7 7 -7 22 1 52
10 38 13 41 45 41 41 0 65 9 65 24 -1 14 -35 56 -47 56 -10 0 -24 26 -41 79
l-11 34 25 -24 c14 -13 38 -46 52 -74z m610 46 c75 -39 142 -128 159 -212 5
-27 3 -29 -26 -29 -17 0 -69 -10 -114 -21 -45 -12 -104 -22 -131 -23 l-49 -1
-17 63 c-19 68 -55 115 -123 158 -21 14 -35 28 -33 33 3 4 27 11 53 15 26 4
75 13 108 20 84 20 130 19 173 -3z m-1202 -143 c-3 -33 -1 -50 10 -58 10 -9
14 -35 14 -96 0 -81 -1 -84 -23 -84 -39 0 -47 18 -47 106 0 59 -4 85 -14 94
-12 9 -17 4 -26 -32 -7 -23 -10 -62 -7 -85 3 -32 1 -43 -9 -43 -11 0 -14 17
-14 65 0 54 6 77 31 128 18 34 39 67 48 74 26 20 44 -12 37 -69z m366 -154
c24 -9 71 -29 104 -45 34 -16 67 -29 73 -29 7 0 31 -11 54 -24 23 -12 60 -24
81 -25 67 -3 79 -20 16 -22 l-55 -2 55 -7 c52 -6 50 -7 -31 -8 -111 -2 -173
16 -277 84 -45 30 -89 54 -97 54 -7 0 -17 5 -20 11 -4 6 -17 14 -29 19 -41 17
81 11 126 -6z m105 -409 c58 -24 36 -50 -60 -71 -69 -15 -291 -18 -322 -4 -17
7 -14 9 13 9 18 1 42 6 54 12 18 10 40 13 106 18 36 2 27 31 -10 31 -42 0 -28
12 25 21 54 10 152 1 194 -16z m3503 -36 c162 -11 300 -30 429 -58 108 -24
141 -37 141 -55 0 -23 -24 -25 -68 -6 -51 23 -214 64 -347 87 -81 14 -158 17
-410 17 -304 -1 -342 -4 -530 -40 -20 -4 -27 -3 -20 4 6 5 60 17 122 26 225
34 445 42 683 25z m-2966 -45 c25 -97 -166 -172 -558 -219 -149 -18 -186 -32
-186 -71 0 -18 6 -24 33 -27 17 -2 -3 -5 -45 -5 l-78 -2 0 28 c0 48 -8 51
-161 62 -365 25 -568 81 -598 163 -10 28 5 73 27 81 9 3 23 9 31 12 9 4 6 -5
-7 -21 -29 -37 -28 -56 6 -88 67 -64 324 -117 567 -117 82 0 99 3 117 20 l22
20 -59 0 c-119 0 -45 7 125 12 158 5 167 5 90 -5 -47 -6 -73 -13 -57 -15 15
-2 25 -8 22 -13 -17 -26 318 4 450 41 102 29 142 46 198 88 44 31 48 38 43 64
-7 36 9 28 18 -8z m2955 -118 c61 -17 87 -37 78 -60 -21 -55 -337 -87 -496
-51 -63 15 -111 43 -111 65 0 24 73 49 185 64 61 9 292 -4 344 -18z m693 -14
c-3 -10 -12 -22 -20 -27 -11 -9 -10 -14 7 -29 12 -11 21 -26 21 -34 0 -8 16
-30 35 -49 26 -26 35 -42 34 -66 0 -18 -3 -25 -6 -17 -9 24 -45 60 -54 54 -5
-3 -9 1 -9 8 0 7 -14 -4 -30 -24 -49 -59 -199 -120 -375 -151 -71 -13 -326
-46 -356 -47 -3 0 -6 -19 -5 -42 1 -41 3 -43 36 -49 19 -4 -14 -6 -75 -6 -60
0 -100 2 -87 4 20 4 23 10 21 47 l-3 42 -205 12 c-267 15 -489 55 -601 107
-100 47 -121 60 -152 92 -41 42 -42 83 -2 124 40 42 63 54 78 39 8 -8 7 -10
-5 -5 -24 9 -69 -49 -69 -89 0 -121 360 -234 760 -238 422 -5 663 17 837 75
91 31 169 83 189 126 15 31 15 37 0 67 -14 31 -46 47 -46 24 0 -5 -6 -7 -14
-4 -7 3 -57 -2 -111 -11 -54 -8 -100 -14 -102 -11 -3 3 103 31 240 62 4 1 14
2 22 3 8 0 15 6 15 11 0 6 -12 8 -27 4 -20 -4 -24 -3 -14 4 8 6 29 10 47 10
26 0 31 -3 26 -16z m-5648 -11 c-5 -5 -39 -18 -75 -29 -98 -30 -279 -119 -279
-137 0 -31 31 -35 568 -72 51 -3 88 -9 81 -13 -6 -4 -30 -5 -53 -3 -22 3 -38
3 -35 -1 13 -14 393 -45 874 -70 89 -5 89 -5 25 5 -36 5 -130 16 -210 24 -143
14 -144 14 -35 9 246 -11 737 -42 830 -53 61 -7 64 -8 25 -10 -25 -1 -54 -6
-65 -11 -17 -7 -16 -9 10 -9 16 -1 190 -12 385 -26 643 -44 823 -56 1010 -65
102 -5 228 -12 280 -16 110 -8 116 4 8 16 -137 14 11 11 237 -5 116 -9 285
-20 377 -25 93 -5 176 -14 185 -19 23 -14 -67 -15 -152 -2 -77 12 -281 24
-273 16 11 -12 894 -72 905 -62 2 3 -22 8 -54 12 -32 3 -65 8 -73 10 -36 9
378 -8 622 -26 308 -22 386 -23 477 -8 77 13 114 30 196 91 148 108 445 297
445 282 0 -8 -4 -13 -9 -10 -5 3 -19 -3 -32 -13 l-23 -19 26 3 c15 2 32 6 39
11 8 4 9 3 5 -4 -11 -18 1 -14 47 15 58 37 127 93 127 102 0 18 -60 30 -194
40 -76 5 -144 15 -150 21 -8 8 -7 10 4 6 8 -3 82 -10 164 -15 149 -10 196 -23
196 -55 0 -22 -629 -460 -700 -487 l-45 -17 -7 -108 c-4 -60 -10 -114 -13
-121 -2 -7 -20 -13 -39 -13 -27 0 -33 4 -31 18 2 9 6 61 9 115 l5 97 -113 0
c-62 0 -169 4 -237 10 -68 5 -203 14 -299 19 -237 14 -958 59 -1045 66 -38 3
-146 10 -240 15 -93 5 -334 21 -535 34 -201 14 -471 32 -600 41 -129 8 -296
20 -370 25 -74 5 -234 17 -355 25 -121 8 -380 26 -575 40 -832 58 -1065 72
-1350 81 -107 3 -203 8 -214 11 -17 5 -18 -1 -14 -86 2 -50 8 -95 14 -100 5
-5 90 -19 189 -31 341 -40 303 -47 -110 -19 -162 10 -210 21 -229 52 -14 23
-29 218 -20 254 6 23 45 42 234 113 74 28 162 62 195 75 58 22 79 24 59 6z
m3090 -207 c23 -9 20 -27 -12 -57 -28 -27 -31 -27 -107 -20 -47 5 -80 13 -82
20 -3 7 8 24 23 38 23 22 36 25 95 25 37 0 74 -3 83 -6z m-1938 -425 c101 -50
102 -123 2 -213 -58 -53 -63 -66 -24 -66 36 0 83 -36 102 -79 30 -64 47 -55
83 44 12 33 41 104 64 158 37 88 44 98 64 94 13 -2 31 2 40 9 10 7 26 14 36
14 9 0 17 5 17 10 0 6 5 10 10 10 6 0 10 -10 10 -23 0 -13 4 -27 9 -32 4 -6
14 -50 20 -100 19 -134 28 -165 51 -165 14 0 20 -7 21 -22 0 -13 9 3 19 34 35
112 105 199 194 239 50 22 76 24 121 5 38 -16 58 -47 57 -88 -1 -43 -22 -99
-34 -92 -6 4 -13 1 -17 -5 -13 -21 -40 0 -47 35 -8 45 -33 45 -79 -1 -47 -47
-76 -107 -82 -169 -4 -43 -1 -56 18 -80 19 -24 27 -28 60 -23 20 3 64 23 98
46 34 23 61 40 61 37 0 -3 -4 -16 -10 -30 -12 -32 0 -33 35 -3 17 15 27 35 30
62 8 73 44 260 56 286 7 19 16 25 30 22 11 -3 19 0 19 7 0 7 8 9 20 5 11 -4
20 -2 20 4 0 19 15 12 26 -14 11 -22 7 -65 -11 -144 -6 -23 -5 -22 32 8 161
132 199 161 213 161 9 0 27 11 40 25 36 38 37 20 1 -21 -18 -20 -30 -39 -26
-42 3 -3 11 0 17 6 17 17 33 15 19 -2 -6 -7 -9 -20 -6 -28 5 -14 -27 -48 -120
-127 -22 -19 -57 -49 -78 -68 l-38 -34 97 -120 c53 -66 99 -118 101 -115 2 2
-1 13 -8 23 -12 20 -4 102 8 89 3 -3 12 -1 20 5 7 6 13 8 13 4 0 -4 6 -3 13 3
10 9 16 4 26 -23 8 -23 21 -37 37 -41 58 -15 149 22 149 61 0 12 -30 33 -95
66 -111 58 -138 81 -146 124 -11 60 38 120 138 171 119 60 228 31 228 -61 0
-29 -28 -90 -37 -81 -3 3 -12 -2 -19 -12 -13 -16 -13 -16 -14 0 0 11 -5 15
-15 12 -11 -5 -15 1 -15 25 0 36 -11 38 -70 15 -39 -16 -66 -46 -56 -62 3 -5
40 -26 82 -48 43 -21 97 -57 121 -80 35 -33 43 -47 43 -77 0 -41 -42 -97 -93
-124 -81 -41 -218 -79 -204 -55 3 4 -18 17 -45 29 l-50 23 17 -28 c10 -15 31
-44 47 -64 16 -21 28 -38 26 -38 -3 0 -29 18 -58 40 -57 43 -85 53 -55 20 26
-28 13 -34 -19 -9 -22 17 -36 20 -74 16 -42 -5 -44 -5 -19 5 15 7 27 16 27 21
0 5 -24 32 -53 60 -29 29 -74 75 -99 104 l-45 52 -11 -52 c-7 -29 -15 -71 -18
-95 -4 -23 -11 -45 -16 -48 -6 -4 -7 2 -3 15 3 11 2 21 -3 21 -10 0 -27 -37
-35 -75 -3 -13 -5 -8 -6 12 -2 51 -10 66 -29 51 -13 -12 -14 -5 -10 60 l5 73
-72 -68 c-94 -88 -100 -92 -132 -99 -39 -7 -114 28 -152 72 -17 19 -37 55 -43
80 -9 32 -17 44 -31 44 -15 0 -17 -5 -12 -37 4 -21 11 -54 16 -73 12 -46 11
-53 -3 -44 -8 5 -10 -7 -5 -47 5 -52 5 -53 -8 -24 -8 17 -14 36 -15 44 0 11
-3 11 -15 1 -12 -10 -15 -7 -21 16 -6 25 -8 26 -15 9 -9 -25 -13 -15 -32 70
-14 67 -14 67 -119 44 -45 -10 -47 -12 -68 -70 -12 -32 -28 -59 -35 -59 -7 0
-19 -13 -27 -30 -17 -38 -24 -38 -32 2 -6 30 -7 31 -21 12 -19 -25 -19 -10 1
56 11 38 13 55 5 58 -6 2 -8 9 -5 15 4 7 -17 -11 -47 -40 -30 -28 -85 -72
-124 -97 -38 -25 -63 -46 -55 -47 8 0 -16 -16 -54 -35 -76 -37 -80 -39 -71
-24 3 6 -1 10 -9 10 -9 0 -18 -12 -22 -27 -9 -44 -12 -50 -13 -25 -1 14 -6 22
-13 20 -8 -3 -14 -28 -16 -66 -2 -34 -6 -62 -11 -62 -4 0 -8 8 -8 18 1 58 -4
92 -13 92 -5 0 -10 -7 -10 -15 0 -8 -4 -15 -10 -15 -5 0 -10 7 -10 15 0 18 3
17 -38 6 -20 -6 -32 -6 -32 0 0 5 5 9 10 9 6 0 10 5 10 10 0 6 -9 10 -20 10
-23 0 -27 15 -5 24 21 8 19 29 -2 22 -24 -8 14 23 56 46 30 17 31 19 31 90 0
40 3 90 6 111 5 30 4 37 -10 37 -15 0 -21 16 -18 53 1 9 -4 17 -11 17 -6 0 3
10 21 21 35 23 38 31 51 127 5 44 5 62 -3 59 -96 -39 -116 -45 -121 -37 -3 6
-1 10 4 10 6 0 11 7 11 15 0 21 -30 19 -91 -5 -72 -29 -71 -19 2 15 55 27 107
65 65 49 -24 -9 -19 11 7 28 36 24 152 67 219 83 92 21 204 14 264 -16z
m-1421 -214 c9 -99 20 -234 25 -300 5 -66 16 -194 24 -285 8 -91 18 -217 21
-280 3 -63 8 -125 11 -137 2 -13 0 -23 -5 -23 -5 0 -11 26 -14 58 -71 809 -96
1164 -82 1151 2 -3 11 -86 20 -184z m3899 123 c4 -24 14 -94 22 -157 7 -63 16
-116 18 -118 2 -3 12 -6 23 -7 10 -2 17 -10 15 -20 -6 -35 16 -14 33 32 49
127 164 234 284 261 91 20 170 -33 155 -104 -11 -50 -33 -85 -49 -79 -8 4 -15
1 -15 -5 0 -8 -6 -7 -20 1 -12 8 -20 24 -20 40 0 52 -68 30 -142 -48 -71 -73
-98 -171 -62 -223 14 -20 23 -23 60 -18 43 4 114 47 114 68 0 5 -20 9 -45 9
-33 0 -45 4 -46 15 -4 67 -4 69 30 76 17 4 75 10 127 14 l94 7 0 -30 c0 -17
-7 -43 -15 -59 -8 -15 -31 -82 -52 -147 -26 -87 -38 -115 -44 -100 -6 16 -9
14 -23 -18 -9 -21 -16 -44 -16 -53 0 -8 -4 -15 -10 -15 -6 0 -7 18 -3 45 4 31
2 45 -6 45 -6 0 -11 -7 -11 -16 0 -8 -4 -13 -9 -10 -4 3 -5 25 -1 48 5 24 7
44 6 46 -2 1 -23 -9 -47 -23 -54 -31 -81 -31 -138 -2 -58 30 -101 84 -108 136
-5 34 -9 41 -28 41 -22 0 -22 -1 -10 -75 10 -68 6 -95 -9 -62 -4 6 -4 -16 -1
-51 5 -66 -8 -78 -19 -18 -5 24 -11 33 -20 30 -9 -3 -17 3 -21 17 -5 15 -9 18
-15 9 -4 -7 -10 -8 -13 -4 -4 7 -27 118 -27 131 0 7 -144 -9 -161 -18 -9 -4
-29 -36 -44 -71 -16 -35 -30 -57 -33 -50 -7 23 -22 12 -47 -35 -22 -41 -25
-43 -20 -18 6 38 -10 68 -24 45 -6 -8 -13 -11 -17 -7 -4 3 -2 12 3 19 5 7 17
32 26 56 14 35 15 42 3 42 -15 0 -16 43 -3 57 4 3 2 12 -4 19 -8 10 -3 14 24
19 36 7 39 12 155 247 2 4 -9 6 -25 3 -15 -2 -65 -9 -110 -16 -46 -6 -83 -14
-84 -18 -3 -37 -108 -418 -108 -396 -2 29 -2 29 -17 10 -9 -11 -25 -38 -36
-60 l-19 -40 6 51 c4 33 3 54 -4 59 -6 3 -11 1 -11 -4 0 -6 -5 -11 -10 -11
-13 0 3 111 44 305 8 38 13 71 11 73 -2 2 -33 -1 -68 -7 -82 -14 -90 -14 -84
3 3 8 3 17 -1 21 -12 11 -10 64 2 75 7 5 48 14 92 20 43 6 90 16 104 22 32 13
263 20 293 9 l22 -9 -25 -10 -25 -9 24 -8 25 -8 -30 -12 -29 -13 40 -1 c36 -1
42 3 60 35 14 27 23 34 40 30 20 -5 87 13 101 27 15 14 22 6 28 -35z m1102
-72 c11 -11 25 -15 40 -12 13 4 24 2 24 -3 0 -5 -20 -12 -45 -15 -46 -7 -66
-23 -45 -36 15 -9 -14 -17 -100 -25 -175 -16 -167 -14 -173 -43 -3 -15 -9 -35
-13 -45 -6 -17 -1 -19 62 -17 38 1 83 2 99 1 28 -2 29 -2 10 -13 -19 -12 -19
-12 5 -18 25 -7 25 -7 -10 -23 -26 -11 -30 -16 -15 -17 l20 -1 -20 -9 c-11 -4
-59 -11 -107 -15 l-86 -7 -13 -47 c-7 -25 -12 -48 -11 -50 1 -2 71 -3 155 -2
88 1 158 -3 167 -9 12 -7 8 -10 -15 -10 -60 -1 -2 -20 65 -21 70 -2 62 -4 -42
-14 -65 -6 -96 -25 -41 -25 14 0 24 -2 22 -4 -2 -2 -76 -10 -164 -16 -88 -7
-172 -18 -187 -25 -20 -9 -28 -10 -28 -2 0 17 -17 -4 -23 -28 -4 -18 -5 -18
-6 3 -1 17 -7 22 -30 22 -23 0 -30 6 -36 28 -16 57 -14 71 8 74 28 4 63 107
43 123 -20 15 -8 73 16 81 19 6 29 24 42 76 5 22 2 27 -16 30 -16 2 -22 10
-21 28 2 77 32 92 198 101 178 9 250 5 271 -15z m-2647 -561 c33 -10 69 -31
88 -50 33 -33 33 -35 19 -63 -16 -31 -65 -67 -133 -96 -42 -19 -56 -36 -30
-36 33 0 119 -33 147 -56 23 -20 30 -34 30 -62 0 -31 -8 -44 -53 -87 -60 -56
-108 -82 -241 -132 -68 -25 -81 -32 -51 -29 51 7 41 3 -70 -30 -121 -35 -137
-38 -90 -15 35 18 36 20 10 14 -95 -20 -109 -27 -122 -68 l-11 -40 -1 38 c-1
35 -2 36 -21 25 -11 -7 -23 -28 -26 -48 -16 -102 -24 -115 -19 -37 3 69 2 78
-13 75 -9 -2 -18 -13 -20 -26 -4 -27 -22 -19 -22 9 0 20 -5 20 -75 2 -16 -4
-18 -3 -8 8 7 7 48 16 90 19 106 10 598 159 580 176 -2 2 -38 -9 -81 -23 -63
-23 -80 -25 -96 -15 -11 7 -29 12 -39 12 -11 0 -23 5 -26 10 -3 6 -11 10 -16
10 -6 0 -7 -5 -3 -12 5 -7 2 -9 -9 -5 -9 3 -48 -3 -86 -14 -88 -24 -99 -24
-78 -1 8 9 18 35 21 57 3 22 3 34 0 28 -3 -8 -25 -13 -54 -13 -55 0 -55 0 -65
-54 -6 -30 -5 -37 5 -31 8 5 11 3 8 -6 -3 -8 -33 -22 -68 -31 -65 -18 -86 -28
-57 -28 9 0 17 -4 17 -10 0 -5 -5 -10 -11 -10 -5 0 -7 -4 -4 -10 4 -6 -9 -10
-32 -9 -33 0 -35 1 -15 9 24 10 30 30 10 30 -22 1 23 22 70 34 l45 12 24 89
c12 50 25 100 29 113 5 18 2 22 -17 23 -23 0 -23 1 -4 9 17 7 17 9 3 9 -23 1
-23 20 -1 28 15 6 14 7 -3 14 -20 7 -21 7 36 28 20 7 31 25 53 86 l27 78 -37
-7 c-53 -10 -122 -16 -100 -10 25 8 21 21 -10 32 -16 6 -21 11 -12 11 9 1 24
10 35 22 18 20 18 20 -11 14 -29 -7 -29 -6 -10 8 11 8 63 24 115 36 123 26
402 24 489 -4z m866 -4 c39 4 108 8 155 8 l85 -1 -50 -13 c-43 -11 -46 -13
-20 -15 26 -1 27 -3 10 -10 -30 -13 60 -12 210 1 71 6 145 8 172 3 32 -5 40
-9 26 -12 -34 -5 -27 -22 10 -23 29 -1 27 -3 -23 -19 -42 -14 -48 -19 -27 -19
15 -1 27 -5 27 -10 0 -5 -59 -14 -130 -21 l-131 -13 -19 -38 c-11 -21 -20 -41
-20 -45 0 -3 37 -3 83 0 48 5 92 3 107 -3 25 -10 25 -10 2 -10 -29 -1 -19 -21
11 -22 20 -1 21 -2 2 -6 -11 -3 -31 -10 -45 -16 l-25 -10 25 -7 c18 -5 2 -9
-55 -14 -144 -12 -142 -12 -165 -63 -11 -25 -18 -48 -16 -50 2 -2 70 0 150 5
81 4 166 5 189 1 38 -6 39 -7 10 -8 -35 -1 -44 -15 -17 -25 9 -3 41 -7 72 -7
53 -2 52 -2 -23 -9 -44 -4 -93 -11 -109 -15 -21 -6 -27 -5 -22 4 4 6 16 11 27
11 10 0 19 5 19 10 0 6 -12 10 -26 10 -15 0 -23 4 -19 10 5 8 -37 9 -134 4
l-140 -7 8 31 c11 35 6 42 -26 42 -12 0 -23 5 -23 10 0 6 -6 10 -14 10 -14 0
-36 -49 -36 -81 0 -10 -13 -25 -31 -34 -23 -12 -28 -19 -20 -29 13 -16 4 -26
-22 -26 -17 0 -18 2 -6 16 10 13 10 17 -1 24 -10 6 -4 11 20 17 29 8 36 16 51
58 22 63 23 79 5 72 -15 -6 -17 27 -2 51 5 8 1 10 -11 7 -10 -3 1 4 24 15 34
17 45 28 54 61 10 32 10 42 0 48 -6 4 -13 18 -14 30 -1 17 -6 21 -27 17 -14
-3 -55 -8 -91 -11 l-66 -6 -58 -152 c-96 -250 -114 -293 -114 -272 0 11 8 39
19 63 25 55 40 110 34 126 -4 10 -56 14 -95 7 -9 -2 -36 -63 -44 -100 -4 -21
-4 -31 3 -27 17 10 22 -52 7 -95 -8 -23 -15 -44 -15 -48 0 -3 152 -7 338 -8
185 -1 353 -6 372 -11 23 -6 -67 -7 -251 -4 -429 8 -807 -20 -1079 -80 -147
-32 -94 -34 122 -4 101 14 221 30 268 35 99 12 360 27 375 21 6 -2 132 -3 280
-3 l270 0 -170 -8 c-248 -12 -472 -35 -620 -64 -150 -29 -142 -28 -129 -15 14
14 243 60 348 69 l91 8 -91 2 c-119 1 -448 -32 -683 -69 -102 -16 -204 -30
-226 -30 -38 1 -39 2 -20 16 57 43 345 96 669 123 65 6 119 12 120 13 1 2 7
24 14 51 15 58 15 87 2 87 -5 0 -10 -4 -10 -9 0 -18 -21 -64 -26 -58 -6 5 9
56 73 242 63 181 62 178 27 171 -28 -5 -73 -12 -144 -22 -32 -4 -33 -3 -17 10
18 14 18 15 0 24 -17 10 -17 11 2 32 16 18 17 23 5 30 -22 14 23 27 141 40 57
7 109 16 114 20 14 11 58 17 70 9 6 -3 42 -3 80 2z m1015 -19 c19 -9 37 -26
39 -37 2 -11 8 -23 14 -27 17 -11 -28 -99 -47 -92 -9 3 -17 -3 -22 -18 l-7
-23 -9 24 c-7 19 -11 21 -22 11 -12 -9 -15 -6 -18 22 -3 32 -4 33 -46 31 -49
-2 -147 -51 -147 -73 0 -10 41 -31 120 -61 150 -57 219 -92 239 -121 18 -25
21 -74 6 -83 -5 -3 -10 -15 -10 -26 0 -10 -6 -19 -12 -19 -7 0 -22 -8 -33 -16
-19 -15 -15 -15 45 -9 36 3 77 8 93 11 15 3 27 1 27 -4 0 -5 -48 -14 -107 -20
-94 -10 -124 -18 -236 -66 -70 -29 -127 -57 -127 -62 1 -4 -31 -20 -72 -36
-83 -32 -81 -32 -72 -17 10 17 -31 2 -238 -85 -69 -29 -39 -5 38 30 42 20 74
38 71 40 -2 3 -80 -20 -172 -51 -92 -31 -169 -54 -171 -52 -3 3 16 13 43 22
26 10 73 28 103 41 64 27 174 57 212 58 14 1 24 5 21 10 -3 4 4 5 16 1 13 -4
61 8 128 31 100 34 262 100 272 109 2 3 -18 4 -46 4 -27 -1 -59 4 -71 10 -12
6 -22 8 -22 4 0 -4 -4 -2 -8 4 -8 12 -118 -30 -300 -113 -29 -13 -58 -24 -65
-24 -7 0 38 23 98 51 61 28 169 77 240 110 228 105 228 110 -5 193 -185 66
-222 124 -134 209 102 99 303 155 394 109z m-1471 -14 c-1 -7 1 -20 5 -29 4
-10 -9 -63 -33 -130 -21 -63 -52 -150 -67 -194 -34 -102 -56 -158 -65 -169
-10 -12 5 47 30 118 12 33 21 62 21 66 0 12 -103 1 -116 -12 -7 -7 -18 -35
-25 -63 -6 -27 -18 -68 -25 -90 -11 -35 -13 -37 -13 -13 -1 15 13 72 29 125
17 54 44 143 61 198 39 130 68 193 79 175 7 -11 15 -10 49 3 23 9 41 14 41 10
0 -4 5 -2 12 5 15 15 19 15 17 0z m-2101 -61 c6 -5 12 -24 12 -43 l0 -34 -52
0 c-29 0 -70 3 -90 6 -36 6 -38 9 -38 44 0 20 2 39 4 41 7 7 150 -5 164 -14z
m-245 -101 c4 -6 6 -24 5 -41 -3 -26 -8 -31 -38 -35 -37 -5 -33 -13 13 -24 24
-6 27 -11 27 -48 l0 -41 -82 7 c-44 4 -85 9 -90 12 -4 3 -8 21 -8 40 0 31 2
34 31 34 36 0 35 21 -2 30 -17 4 -25 14 -27 34 -7 54 0 58 85 50 43 -4 81 -12
86 -18z m245 -18 c22 -22 14 -67 -13 -80 l-25 -11 23 -11 c27 -14 37 -73 13
-82 -9 -3 -48 -2 -88 3 l-73 8 -3 37 -3 37 48 3 48 3 -45 15 c-42 14 -45 18
-48 53 l-3 37 78 0 c48 0 84 -5 91 -12z m4676 -144 c46 -7 46 -7 46 -45 l0
-39 -57 0 c-32 0 -75 3 -95 6 -35 6 -38 9 -38 39 0 17 3 35 7 38 8 9 76 9 137
1z m-4 -122 c43 -7 45 -8 45 -42 0 -31 -3 -35 -30 -38 -16 -2 -58 -1 -92 3
l-63 7 0 39 0 39 48 -1 c26 0 67 -4 92 -7z m-5396 -67 c-17 -43 41 -58 291
-79 94 -8 190 -19 215 -24 48 -11 268 -32 645 -62 308 -25 108 -18 -400 14
-214 14 -453 26 -530 28 l-140 3 -3 -26 c-4 -37 -41 -28 -49 12 -4 20 -15 32
-42 42 -43 17 -51 10 -51 -45 0 -68 -18 -40 -22 33 -3 76 3 88 52 108 35 14
40 13 34 -4z m5181 -35 c22 -8 26 -15 23 -42 -3 -31 -5 -33 -48 -36 -25 -1
-65 1 -90 6 -36 6 -46 12 -48 30 -7 45 3 52 72 52 36 0 77 -4 91 -10z m254
-24 c7 -8 11 -27 9 -43 l-3 -28 -84 2 c-96 3 -118 15 -107 57 6 25 8 26 90 26
61 0 87 -4 95 -14z"/>
<path d="M4125 4543 c-30 -5 -105 -22 -290 -70 -86 -22 -123 -26 -265 -27
l-165 -1 -105 39 c-58 21 -126 40 -151 43 -41 4 -50 2 -73 -24 -14 -15 -31
-44 -36 -63 -22 -77 -5 -230 41 -378 17 -54 33 -109 36 -125 7 -34 82 -103
143 -130 56 -25 152 -27 235 -4 89 25 198 22 318 -9 86 -22 115 -26 192 -21
163 10 236 49 304 162 45 74 61 152 61 301 0 136 -15 205 -57 255 -44 52 -93
65 -188 52z m-793 -269 c36 -6 36 -6 37 -58 1 -28 3 -62 5 -76 3 -14 5 -27 5
-30 1 -4 16 -4 34 -2 45 5 67 -18 67 -69 0 -21 -5 -39 -11 -39 -5 0 -3 -10 5
-22 24 -34 20 -41 -26 -34 -24 3 -68 6 -98 6 -30 0 -80 6 -110 13 -51 13 -56
16 -67 53 -14 47 -16 114 -4 132 10 17 47 11 44 -6 -2 -7 3 -12 11 -12 9 0 12
8 8 25 -4 21 -10 25 -38 25 -19 0 -34 5 -34 11 0 7 14 10 35 7 40 -5 49 9 35
48 -14 35 -3 47 34 40 17 -4 48 -9 68 -12z m753 -4 c4 -11 5 -44 4 -73 l-3
-52 46 -1 c25 -1 51 -4 57 -8 15 -10 15 -106 -1 -106 -6 0 -3 -6 7 -14 27 -20
12 -46 -27 -47 -38 -2 -55 -4 -118 -18 -25 -6 -62 -10 -82 -11 -37 0 -38 1
-40 38 l-1 37 -4 -37 c-4 -38 -5 -38 -48 -38 -48 0 -64 13 -44 36 9 12 10 17
1 23 -12 7 -10 100 3 120 10 18 63 13 74 -6 12 -21 13 -19 15 74 1 40 5 76 9
79 8 9 72 21 114 23 24 1 33 -4 38 -19z"/>
<path d="M205 2158 c2 -61 8 -114 12 -118 4 -5 23 -11 41 -15 l32 -7 0 89 c0
116 -4 128 -50 146 l-39 15 4 -110z"/>
<path d="M1630 1493 c-73 -11 -67 2 -96 -192 l-6 -43 63 35 c133 75 202 159
152 185 -24 12 -82 20 -113 15z"/>
<path d="M2469 1054 c-8 -3 -27 -34 -41 -70 l-26 -66 24 6 c52 13 191 67 223
87 24 14 31 23 23 31 -11 11 -175 21 -203 12z"/>
<path d="M2440 813 c-75 -7 -74 -6 -110 -112 -19 -55 -32 -102 -29 -106 9 -9
180 50 271 94 98 47 134 76 118 96 -21 25 -145 39 -250 28z"/>
</g>
</svg>
