<?xml version="1.0" standalone="no"?>
<!DOCTYPE svg PUBLIC "-//W3C//DTD SVG 20010904//EN"
 "http://www.w3.org/TR/2001/REC-SVG-20010904/DTD/svg10.dtd">
<svg version="1.0" xmlns="http://www.w3.org/2000/svg"
 width="720.000000pt" height="544.000000pt" viewBox="0 0 720.000000 544.000000"
 preserveAspectRatio="xMidYMid meet">
<metadata>
Created by potrace 1.16, written by Peter Selinger 2001-2019
</metadata>
<g transform="translate(0.000000,544.000000) scale(0.100000,-0.100000)"
fill="#000000" stroke="none">
<path d="M3417 5394 c-110 -17 -281 -76 -380 -130 -46 -25 -115 -73 -155 -107
-87 -76 -197 -207 -213 -256 -7 -19 -24 -52 -39 -73 -33 -45 -51 -133 -47
-232 1 -48 -2 -71 -10 -73 -7 -3 -13 -10 -13 -17 0 -7 -10 -22 -23 -34 -91
-86 -102 -286 -25 -449 17 -36 45 -76 66 -94 35 -29 132 -76 249 -120 28 -11
57 -27 64 -35 6 -8 31 -29 53 -46 l41 -32 -40 45 c-55 60 -73 89 -127 199 -53
110 -62 138 -83 277 -20 136 -19 210 5 313 26 108 23 99 48 140 12 19 29 58
38 85 35 108 290 318 446 367 104 33 324 33 447 0 145 -38 236 -89 321 -179
108 -112 114 -128 111 -292 -1 -81 -8 -161 -18 -200 -18 -75 -21 -243 -8 -419
9 -125 8 -129 -65 -179 -68 -46 -105 -75 -143 -109 -21 -19 -45 -34 -52 -34
-8 0 -18 -6 -22 -14 -5 -8 -30 -15 -62 -17 l-55 -4 -10 43 c-14 55 -26 46 -15
-11 4 -23 8 -45 9 -49 0 -12 -69 -26 -160 -34 -109 -9 -148 -23 -57 -21 49 2
70 -2 76 -12 6 -9 16 -11 27 -7 11 5 36 10 57 12 21 3 49 9 62 14 15 6 27 6
30 0 5 -9 -17 -16 -120 -41 -28 -7 -117 -12 -202 -11 -146 0 -155 1 -255 35
-56 19 -95 30 -84 24 70 -44 70 -63 0 -74 -52 -8 -117 -60 -110 -88 5 -20 5
-20 -10 0 -9 11 -19 27 -24 35 -6 10 -26 15 -62 17 -29 0 -55 2 -58 2 -3 1 22
26 54 57 59 56 107 84 146 84 12 0 18 5 15 10 -11 18 -50 11 -86 -15 -19 -14
-62 -53 -96 -87 l-62 -62 -64 12 c-104 19 -247 16 -307 -8 -28 -11 -52 -20
-54 -20 -2 0 -7 24 -11 53 -9 63 -20 87 -84 171 -27 35 -47 66 -45 69 6 6
-155 158 -199 187 -25 17 -40 37 -47 60 -6 23 -36 61 -90 115 -48 47 -101 113
-130 160 -26 44 -73 103 -103 132 -30 28 -75 75 -100 102 -49 56 -154 121
-194 121 -30 0 -79 -47 -89 -86 -13 -49 27 -106 97 -140 35 -16 67 -39 74 -54
l14 -25 1 28 c0 18 4 26 11 21 6 -3 9 -15 6 -25 -4 -14 0 -19 15 -19 10 0 16
-4 13 -10 -3 -5 -17 -10 -31 -10 -40 0 -140 -94 -176 -165 -17 -33 -44 -75
-59 -93 -38 -43 -40 -105 -5 -160 32 -51 49 -63 141 -102 44 -19 102 -53 130
-77 27 -24 52 -38 54 -32 3 11 35 -28 37 -46 0 -5 2 -16 2 -24 2 -11 5 -11 17
-1 13 11 21 8 50 -20 41 -39 107 -53 194 -39 122 19 190 156 157 315 -8 38
-13 70 -11 72 8 8 230 -229 273 -293 76 -113 80 -197 14 -297 -14 -21 -26 -38
-27 -38 -1 0 -2 18 -1 40 1 43 -25 87 -64 107 -13 6 -33 22 -45 35 -12 12 -33
33 -46 45 -13 12 -30 29 -37 37 -19 24 -60 31 -80 13 -32 -29 -93 -57 -122
-57 -38 0 -47 -16 -23 -43 10 -12 32 -42 48 -67 39 -59 102 -130 110 -122 3 4
9 1 13 -5 15 -23 87 -63 116 -64 l31 -1 -33 -14 c-18 -8 -37 -12 -42 -9 -6 3
-7 -1 -4 -9 11 -30 -75 -20 -145 16 -66 34 -123 92 -212 216 -26 37 -57 78
-69 92 l-21 25 5 -32 c11 -87 159 -258 269 -315 23 -11 60 -36 81 -54 55 -47
157 -84 232 -84 47 0 68 -5 88 -21 34 -27 174 -55 339 -70 108 -9 134 -8 160
4 34 16 265 31 284 19 6 -4 24 -39 40 -77 47 -112 105 -190 169 -226 47 -27
74 -53 74 -73 0 -3 -25 -6 -55 -6 -40 0 -57 4 -61 15 -8 20 -87 20 -104 0 -16
-19 -39 -19 -60 0 -10 9 -50 17 -112 21 l-97 7 -3 45 c-4 62 -34 84 -114 84
-61 0 -144 -17 -144 -30 0 -4 -4 -13 -9 -20 -7 -11 -25 -8 -97 17 -153 52
-250 64 -524 65 -135 1 -267 -1 -295 -4 -49 -5 -50 -4 -53 23 -3 26 -5 27 -63
27 -59 0 -59 0 -59 -30 0 -24 -5 -31 -27 -36 -16 -3 -81 -21 -145 -40 -64 -19
-119 -34 -122 -34 -3 0 -6 10 -6 23 0 34 -19 47 -65 47 -57 0 -73 -15 -77 -75
-3 -47 -1 -50 22 -53 14 -2 29 -8 34 -12 5 -5 18 -4 30 2 19 10 20 10 8 -5 -8
-9 -11 -21 -7 -26 20 -34 366 -103 615 -124 19 -1 -64 -6 -185 -10 -139 -5
-248 -4 -295 2 -41 6 -97 13 -125 16 l-50 5 55 -26 c96 -46 214 -65 437 -71
153 -4 206 -3 218 7 10 8 28 9 57 4 100 -17 320 2 488 43 121 30 250 101 250
139 0 8 -7 28 -15 44 -19 37 -4 39 24 4 28 -36 26 -66 -5 -104 -65 -77 -257
-129 -596 -161 l-128 -12 0 -38 c0 -36 1 -38 38 -42 20 -2 0 -4 -45 -5 -73 -2
-81 0 -76 16 2 10 0 29 -6 43 -9 26 -11 26 -143 33 -293 15 -450 45 -553 108
-37 22 -95 48 -129 58 -34 10 -75 24 -92 33 -29 15 -35 13 -239 -67 -116 -46
-272 -107 -347 -136 -76 -29 -147 -63 -159 -76 -21 -22 -21 -28 -14 -159 l7
-136 39 -26 c37 -24 39 -28 39 -77 0 -28 20 -292 44 -586 25 -294 48 -574 51
-621 l7 -86 -32 -13 c-18 -7 -46 -24 -61 -38 -24 -20 -29 -31 -29 -70 0 -26 3
-64 7 -86 5 -35 11 -41 57 -62 61 -27 37 -25 1421 -119 528 -36 1178 -81 1445
-100 820 -59 1689 -124 1812 -135 64 -5 359 -10 656 -10 l541 0 4 43 4 42 1
-42 2 -43 90 0 90 0 128 74 c283 163 508 298 521 311 9 9 16 43 19 93 l4 79
-37 30 -37 31 21 258 c12 143 35 454 50 692 l30 432 29 29 c26 27 29 37 35
122 4 51 7 124 7 164 0 120 -9 124 -385 150 -132 9 -258 20 -279 24 l-40 6 3
61 c3 77 -14 100 -84 113 -46 9 -118 3 -141 -11 -5 -3 -58 4 -119 17 -60 13
-181 31 -268 40 -87 9 -163 18 -170 21 -7 3 -27 26 -46 51 l-34 46 12 81 c17
116 3 248 -32 302 -57 92 -140 135 -229 121 -26 -4 -46 3 -93 33 -49 30 -155
77 -257 113 -11 4 -18 17 -18 32 0 30 -20 71 -62 129 -136 189 -426 236 -546
90 l-32 -38 -87 -1 c-69 -1 -101 -6 -146 -25 -41 -17 -60 -21 -68 -13 -8 8 -3
16 17 29 16 10 41 29 55 43 14 14 51 46 82 70 31 24 57 48 57 52 0 5 9 18 20
29 18 18 29 20 79 14 47 -5 65 -2 102 16 24 11 70 32 101 45 148 60 219 178
234 385 7 86 -2 103 -16 33 -28 -133 -58 -244 -72 -264 -18 -29 -65 -56 -75
-44 -5 4 -2 10 4 12 34 12 54 45 77 123 14 47 32 103 40 125 20 52 20 105 0
164 -18 55 -57 100 -138 161 -73 53 -83 76 -67 140 11 43 10 54 -7 92 -12 27
-30 48 -48 57 -16 7 -37 17 -46 22 -15 7 -108 -13 -159 -35 -22 -9 -49 18 -42
43 4 17 18 21 87 27 44 5 84 7 89 6 4 -1 7 6 7 15 0 9 -21 35 -47 57 -26 23
-70 63 -98 90 -135 131 -287 193 -559 231 -124 17 -142 17 -259 -1z m1112
-745 c51 -37 47 -48 -9 -25 l-42 16 -27 -29 c-36 -38 -64 -98 -57 -117 3 -8 2
-12 -3 -9 -14 8 -26 -99 -24 -213 3 -137 24 -212 71 -253 32 -28 37 -30 47
-15 7 9 17 16 24 16 6 0 11 5 11 11 0 5 5 7 10 4 18 -11 11 -45 -12 -54 -13
-5 -27 -6 -32 -3 -5 3 -6 0 -2 -6 10 -16 -41 -34 -75 -27 -30 7 -75 72 -102
146 -25 69 -31 224 -13 311 29 135 49 180 110 246 38 41 70 41 125 1z m-1905
-4 c5 -18 15 -27 37 -32 27 -5 28 -7 14 -23 -8 -9 -15 -23 -15 -31 0 -8 -9
-33 -20 -54 -51 -99 -53 -312 -5 -425 27 -62 43 -87 117 -180 17 -22 28 -43
25 -47 -9 -8 -83 24 -125 55 -36 26 -50 52 -80 152 -29 93 -34 133 -33 237 0
74 5 104 25 150 28 66 38 113 39 178 1 49 11 59 21 20z m-1125 -430 c53 -61
35 -104 -51 -119 -33 -6 -37 -4 -41 16 -2 13 -5 -1 -6 -29 -1 -39 -7 -59 -22
-74 -46 -46 -83 2 -74 94 8 77 13 87 40 87 18 0 25 -7 31 -32 7 -31 8 -29 15
26 11 96 43 105 108 31z m392 -117 c12 -7 30 -31 40 -53 l18 -40 -32 -5 c-18
-3 -58 -4 -89 -2 -56 4 -58 5 -63 36 -4 17 -1 44 5 60 10 27 13 28 55 23 25
-4 54 -12 66 -19z m2279 -243 c0 -18 -71 -85 -112 -106 -39 -20 -51 -33 -20
-22 13 5 14 3 6 -6 -13 -14 -237 -101 -260 -101 -28 0 -13 18 21 24 19 4 35
11 35 16 0 6 9 10 21 10 22 0 42 14 154 115 136 121 128 116 143 98 6 -9 12
-22 12 -28z m526 -90 c38 -17 87 -47 109 -66 43 -38 115 -144 114 -168 0 -12
-3 -11 -10 4 -14 28 -70 65 -100 65 -47 0 -129 -49 -190 -112 -33 -35 -58 -56
-55 -48 4 11 -26 32 -113 78 -66 34 -123 62 -129 62 -5 0 -17 -15 -26 -32
l-17 -33 3 67 c4 75 32 126 98 179 69 56 201 57 316 4z m-523 -208 c-40 -106
-2 -376 66 -462 14 -17 12 -17 -9 2 -18 15 -30 19 -41 13 -21 -12 -42 11 -59
63 -6 21 -14 36 -16 34 -2 -2 5 -33 15 -68 11 -35 18 -65 16 -68 -3 -2 -5 1
-5 7 0 7 -4 12 -10 12 -5 0 -10 -7 -10 -16 0 -8 -4 -13 -9 -9 -5 3 -29 -12
-54 -32 -24 -21 -54 -45 -67 -53 -13 -8 -36 -26 -51 -38 -16 -13 -46 -32 -66
-42 -37 -18 -39 -18 -88 2 -82 32 -147 48 -202 48 -50 0 -52 1 -59 33 l-8 32
-5 -29 c-6 -27 -11 -30 -71 -42 l-64 -14 -40 40 c-44 45 -60 49 -77 19 -10
-20 -11 -20 -23 -2 -19 29 -34 82 -47 160 -9 57 -16 74 -31 79 -29 9 -33 -1
-32 -69 1 -82 24 -150 95 -277 62 -110 74 -147 40 -116 -19 18 -103 156 -115
191 -18 50 -36 177 -36 250 0 72 4 89 35 154 30 62 38 71 50 61 8 -7 15 -19
15 -26 0 -9 11 -14 31 -14 17 0 37 -7 46 -15 10 -11 31 -15 62 -14 25 1 76 -5
114 -14 59 -13 75 -13 135 -1 84 17 153 46 214 89 25 19 54 32 65 31 10 -2 12
-1 4 1 -9 3 6 23 44 59 32 29 62 51 67 48 5 -3 17 -2 26 2 9 4 30 6 45 5 15
-2 38 4 50 12 25 16 58 26 69 20 4 -2 0 -23 -9 -46z m-1478 -62 c80 -14 93
-19 123 -50 17 -19 32 -44 32 -56 0 -11 9 -34 21 -50 18 -25 38 -98 28 -99
-49 -7 -250 -10 -296 -5 -61 6 -63 7 -63 35 0 90 -39 176 -83 182 -12 2 -23
10 -25 19 -7 37 120 48 263 24z m2368 -68 c93 -38 182 -86 174 -93 -2 -3 -15
-1 -28 4 -37 14 -101 3 -134 -23 -67 -52 -126 -116 -141 -154 l-16 -40 -76 34
c-150 64 -162 70 -162 80 0 6 13 37 28 70 31 64 95 130 137 141 15 4 24 12 22
18 -9 22 105 1 196 -37z m352 -187 c63 -33 130 -127 141 -197 7 -44 -7 -167
-20 -180 -9 -10 -36 19 -57 58 -28 56 -75 95 -143 120 -34 12 -66 25 -72 30
-7 6 -23 5 -40 -1 -15 -6 -33 -9 -39 -6 -7 2 -31 -4 -55 -15 -53 -24 -55 -24
-68 4 l-12 22 2 -25 c2 -25 -55 -160 -67 -160 -9 0 4 65 30 155 32 105 68 153
147 194 57 29 70 32 133 29 51 -2 85 -10 120 -28z m-2964 -161 c46 -5 111 -16
144 -24 33 -8 100 -15 148 -16 82 -1 87 -3 72 -18 -12 -12 -33 -16 -93 -14
-175 5 -368 39 -393 69 -14 18 6 18 122 3z m2175 -20 c18 -11 43 -34 57 -53
24 -31 54 -47 235 -123 l34 -14 -36 -40 c-20 -22 -43 -57 -52 -78 -13 -32 -42
-61 -48 -49 -1 2 -7 15 -14 31 -11 25 -16 27 -64 27 -29 0 -58 -4 -65 -8 -6
-4 -13 -28 -15 -52 -3 -38 -6 -45 -23 -42 -11 2 -52 4 -90 5 -79 2 -121 -16
-127 -55 -2 -13 -13 -24 -29 -29 -39 -10 -127 1 -133 17 -10 27 13 60 59 85
89 47 193 219 229 382 7 32 25 31 82 -4z m768 -128 c63 -32 186 -134 174 -146
-3 -3 -19 0 -35 8 -30 15 -48 13 -75 -11 -16 -14 -20 -13 -36 1 -27 25 -75 21
-106 -8 l-26 -25 -21 21 c-25 25 -79 21 -109 -6 -17 -15 -19 -15 -26 7 -11 34
-8 112 5 137 7 12 27 31 44 42 45 29 129 21 211 -20z m-3316 -202 c98 -21 106
-56 17 -78 -165 -41 -465 -26 -465 24 0 39 101 63 267 64 73 1 154 -4 181 -10z
m3782 -75 c203 -27 350 -65 350 -89 0 -24 -36 -26 -83 -6 -75 32 -174 58 -306
80 -68 12 -127 21 -132 21 -5 0 -9 4 -9 9 0 6 15 8 33 5 17 -2 84 -11 147 -20z
m-524 -104 c6 -19 14 -59 18 -88 l7 -53 -32 3 c-25 2 -37 11 -51 37 -19 34
-49 113 -45 118 2 1 14 7 27 12 43 17 64 9 76 -29z m861 -32 c29 -3 -8 -28
-125 -85 -70 -34 -134 -64 -142 -67 -8 -2 10 -5 40 -6 48 -2 51 -3 26 -10 -51
-16 -228 -39 -344 -46 -79 -5 -112 -11 -116 -20 -7 -18 3 -44 18 -44 6 0 4 -5
-4 -10 -10 -7 11 -10 69 -10 46 0 82 -2 80 -4 -10 -10 -272 -22 -349 -16 l-85
7 99 1 c85 2 97 4 92 18 -3 9 -6 19 -6 23 0 4 -8 18 -19 29 -15 18 -29 22 -82
22 -182 1 -550 47 -631 80 -32 12 -18 12 102 -6 181 -26 345 -33 590 -23 217
8 366 27 395 50 6 4 39 15 75 24 36 9 90 25 121 36 32 10 71 20 88 21 17 1 31
6 31 10 0 4 6 7 13 6 7 -2 11 5 9 16 -3 15 1 17 20 12 13 -4 28 -8 35 -8z
m-5526 -22 c-6 -7 -39 -21 -74 -31 -90 -25 -287 -121 -287 -140 0 -9 12 -20
27 -26 14 -5 166 -20 337 -32 203 -14 292 -24 256 -27 l-55 -5 60 -12 c33 -7
141 -17 240 -23 256 -15 483 -30 535 -35 l45 -5 -50 14 c-27 8 -131 19 -230
26 -99 6 -234 18 -300 25 l-120 13 110 -4 c61 -3 218 -14 350 -24 132 -10 335
-24 450 -30 255 -15 496 -37 413 -39 -87 -2 -78 -17 15 -25 254 -20 1081 -74
1312 -86 99 -5 223 -12 275 -16 67 -5 92 -3 85 4 -5 6 -26 13 -45 15 -63 8
190 -4 365 -18 94 -7 213 -13 265 -14 52 -2 124 -8 160 -16 l65 -13 -100 -2
c-55 -1 -93 -4 -85 -6 16 -4 528 -34 575 -34 45 0 21 12 -42 20 -83 12 240 2
487 -15 370 -25 451 -27 540 -15 77 10 92 16 165 65 224 151 457 303 438 286
-18 -15 -20 -20 -8 -25 8 -3 17 -1 21 5 3 5 14 7 24 4 19 -6 150 74 179 109
22 26 -13 45 -82 46 -40 0 -56 3 -51 11 4 7 25 9 62 4 58 -7 102 -29 102 -50
0 -21 -628 -457 -699 -484 l-46 -19 -8 -108 c-4 -60 -9 -115 -12 -122 -2 -6
-20 -12 -39 -12 -27 0 -33 4 -31 18 2 9 6 61 9 115 l5 97 -107 0 c-59 0 -208
7 -332 15 -304 20 -658 43 -870 55 -96 6 -240 15 -320 20 -80 6 -217 14 -305
20 -165 10 -904 59 -1285 85 -277 19 -732 50 -1025 69 -126 9 -255 18 -285 21
-165 16 -833 57 -1079 66 -158 5 -297 11 -311 12 -24 2 -25 -1 -28 -60 -2 -34
1 -77 6 -95 8 -30 12 -34 58 -40 49 -6 125 -16 324 -43 l105 -13 -135 4 c-195
7 -399 23 -443 35 -20 5 -43 20 -51 32 -15 24 -31 244 -18 263 12 18 60 40
233 104 90 34 184 69 209 80 55 23 66 24 51 6z m5617 -44 c17 -13 32 -31 32
-39 0 -7 16 -29 35 -49 26 -26 35 -43 34 -67 0 -18 -3 -25 -6 -17 -7 18 -45
65 -56 68 -4 1 -21 -13 -38 -32 -74 -85 -291 -148 -637 -187 l-103 -11 3 -42
c3 -40 4 -41 43 -47 22 -3 -14 -6 -80 -6 -66 0 -108 2 -92 4 25 4 27 8 27 47
l0 43 -162 7 c-194 8 -303 19 -458 47 -219 40 -390 149 -364 232 8 26 44 80
50 74 2 -2 -4 -22 -12 -45 -16 -38 -16 -43 0 -67 19 -29 78 -68 138 -92 24 -9
48 -20 53 -24 22 -16 213 -58 360 -78 128 -18 579 -18 725 -1 209 26 352 66
437 123 80 53 90 103 36 168 -29 35 -20 32 35 -9z m-2534 -168 c24 -9 19 -27
-14 -59 -29 -28 -30 -28 -106 -19 -43 5 -79 14 -81 21 -2 6 9 23 24 37 24 23
37 26 95 26 36 0 73 -3 82 -6z m-1941 -422 c59 -26 81 -60 74 -113 -6 -44 -35
-81 -100 -130 l-39 -28 47 -12 c51 -13 101 -56 111 -96 9 -32 42 -30 50 3 4
15 22 63 41 108 19 44 43 103 54 131 26 63 37 77 58 70 10 -3 26 2 37 10 10 8
27 15 37 15 9 0 17 5 17 10 0 6 5 10 10 10 6 0 10 -10 10 -23 0 -13 4 -27 9
-32 4 -6 16 -67 26 -137 18 -124 19 -128 43 -128 17 0 23 -4 19 -15 -4 -8 -2
-17 2 -20 10 -6 21 18 21 44 0 10 14 45 31 79 35 72 110 143 174 168 86 32
169 -10 167 -86 -1 -48 -21 -100 -36 -94 -8 3 -16 -2 -20 -12 -6 -15 -9 -14
-26 6 -11 13 -20 34 -20 47 0 35 -33 29 -75 -12 -47 -47 -76 -107 -82 -169 -4
-43 -1 -56 18 -80 19 -24 27 -28 60 -23 20 3 64 23 97 46 59 40 88 53 64 29
-14 -14 -16 -48 -4 -48 5 0 18 10 30 23 16 17 27 57 47 176 32 186 37 201 64
194 13 -3 21 -1 21 7 0 7 7 10 15 7 8 -4 17 -2 20 3 10 17 21 11 31 -17 7 -20
6 -47 -3 -92 -7 -35 -11 -66 -9 -69 3 -2 26 16 53 40 93 86 173 147 186 142 7
-2 24 7 37 21 37 39 46 29 10 -11 -17 -20 -29 -39 -25 -42 3 -3 11 0 17 6 17
17 33 15 18 -3 -6 -8 -9 -19 -5 -25 9 -14 -13 -39 -90 -103 -33 -27 -79 -67
-103 -89 l-43 -39 97 -120 c53 -66 98 -118 101 -115 2 2 -1 13 -8 23 -13 22
-4 97 12 88 5 -4 9 -1 9 5 0 7 6 10 14 7 7 -3 18 -1 23 4 5 5 14 -5 22 -26 14
-39 41 -51 97 -42 44 7 96 44 92 65 -2 9 -46 38 -98 65 -111 56 -138 79 -146
122 -11 60 38 120 138 171 153 77 278 2 208 -126 -11 -19 -19 -29 -20 -21 0
11 -4 9 -15 -5 -8 -11 -15 -14 -15 -6 0 6 -7 12 -15 12 -10 0 -15 10 -15 30 0
37 -18 39 -80 8 -67 -34 -61 -52 35 -104 44 -23 99 -60 123 -81 35 -32 42 -45
42 -75 0 -65 -72 -126 -196 -168 -57 -19 -114 -27 -101 -13 7 6 -84 53 -92 47
-2 -1 18 -30 44 -63 25 -34 44 -61 42 -61 -2 0 -28 18 -57 40 -56 42 -85 53
-57 22 27 -29 20 -35 -14 -12 -24 18 -39 21 -77 17 -42 -5 -44 -5 -19 5 15 7
27 15 27 18 0 4 -26 33 -58 66 -32 32 -76 80 -99 106 l-40 48 -18 -88 c-10
-48 -22 -91 -27 -97 -6 -6 -7 -3 -3 8 4 9 3 17 -3 17 -9 0 -27 -37 -35 -75 -3
-11 -5 -4 -6 16 -1 39 -24 70 -35 47 -3 -7 -4 17 -3 55 1 37 0 67 -3 67 -3 0
-35 -29 -70 -65 -35 -36 -70 -65 -76 -65 -6 0 -17 -7 -24 -15 -17 -20 -49 -19
-103 5 -58 26 -104 78 -118 135 -10 41 -30 58 -43 37 -3 -5 2 -40 10 -78 17
-82 17 -94 3 -74 -8 11 -9 1 -6 -40 5 -53 5 -54 -8 -25 -8 17 -14 36 -15 44 0
10 -3 11 -14 2 -11 -9 -15 -7 -20 11 -5 19 -8 20 -15 8 -12 -18 -15 -12 -34
75 -16 67 -11 65 -113 44 -51 -10 -52 -10 -73 -69 -12 -33 -28 -60 -34 -60 -7
0 -21 -14 -32 -32 -12 -22 -20 -27 -23 -18 -11 42 -12 43 -27 30 -19 -16 -19
-6 1 60 22 75 4 84 -56 25 -25 -24 -75 -63 -113 -88 -37 -24 -64 -46 -61 -50
4 -3 -20 -18 -52 -34 -33 -15 -63 -29 -68 -31 -5 -3 -6 0 -2 7 4 6 1 11 -8 11
-9 0 -18 -12 -22 -27 -9 -44 -12 -50 -13 -25 -1 12 -5 22 -11 22 -10 0 -18
-37 -23 -105 -3 -36 -4 -34 -11 23 -9 63 -21 80 -29 40 l-4 -23 -8 23 c-8 24
-15 24 -72 6 -17 -5 -17 -5 1 10 20 16 13 41 -10 32 -8 -3 -14 -1 -14 5 0 5 7
12 15 15 21 9 19 27 -2 20 -24 -8 14 23 55 45 28 16 29 19 31 95 1 44 4 94 7
112 5 25 3 32 -10 32 -15 0 -21 17 -16 49 1 8 -4 17 -10 21 -8 5 -1 12 18 21
35 15 39 27 48 121 l7 68 -59 -24 c-54 -22 -95 -25 -63 -5 11 7 11 11 1 21
-10 10 -23 9 -65 -6 -84 -30 -86 -29 -15 8 61 33 105 69 65 53 -10 -3 -17 -2
-17 3 0 21 161 89 261 110 68 14 190 5 242 -18z m-1418 -215 c48 -550 75 -900
74 -962 l-1 -60 -8 55 c-28 185 -101 1163 -87 1150 4 -3 13 -86 22 -183z
m3903 91 c6 -40 16 -111 23 -158 10 -81 19 -100 46 -100 7 0 10 -7 7 -15 -4
-8 -2 -15 4 -15 5 0 17 21 27 48 27 70 57 113 116 167 78 70 145 98 221 93 53
-4 64 -9 85 -34 19 -23 22 -36 17 -64 -8 -47 -33 -92 -46 -84 -5 4 -14 1 -18
-6 -12 -19 -40 12 -40 44 0 72 -150 -25 -200 -129 -25 -51 -26 -122 -3 -147
24 -27 80 -23 127 10 57 39 57 52 2 52 -34 0 -46 4 -47 15 -5 70 -5 70 37 76
21 4 78 10 126 14 l87 7 -3 -33 c-2 -19 -18 -72 -35 -119 -16 -47 -38 -112
-47 -145 -13 -47 -19 -56 -24 -40 -7 19 -8 19 -18 -5 -6 -14 -15 -38 -21 -55
-9 -29 -9 -28 -10 18 -1 26 -5 47 -11 47 -5 0 -10 -7 -10 -15 0 -8 -4 -15 -8
-15 -5 0 -6 21 -1 48 4 26 6 48 5 50 -2 1 -24 -9 -50 -23 -57 -30 -74 -31
-131 -4 -59 28 -103 81 -111 136 -5 37 -10 43 -30 43 -20 0 -23 -4 -18 -27 24
-136 25 -154 3 -123 -8 11 -9 -2 -5 -43 7 -63 -7 -71 -18 -11 -4 21 -12 34
-19 31 -7 -2 -17 5 -24 17 -7 12 -12 15 -13 9 0 -7 -4 -13 -8 -13 -5 0 -15 32
-22 71 l-12 71 -62 -6 c-105 -12 -105 -12 -142 -90 -19 -39 -34 -63 -34 -53 0
31 -19 18 -45 -30 -23 -42 -25 -44 -21 -18 5 33 -11 70 -21 47 -2 -6 -9 -10
-13 -7 -5 3 2 29 15 57 22 48 25 75 6 64 -4 -3 -8 8 -8 24 0 17 5 30 10 30 5
0 4 6 -2 14 -13 15 4 26 38 26 16 0 61 80 139 243 2 5 -11 6 -29 3 -19 -3 -68
-11 -110 -17 l-77 -11 -15 -62 c-9 -33 -33 -130 -54 -215 -28 -115 -39 -147
-43 -125 l-6 29 -27 -46 c-15 -25 -27 -51 -27 -57 0 -7 -4 -12 -9 -12 -5 0 -4
20 1 46 7 32 7 49 -1 57 -8 8 -11 8 -11 -1 0 -7 -5 -12 -10 -12 -6 0 -8 17 -4
43 7 52 53 295 61 321 5 17 1 18 -38 12 -125 -20 -135 -20 -121 -4 7 10 9 19
4 22 -12 7 -8 64 4 76 5 5 45 14 89 20 44 6 91 16 105 22 31 13 264 20 293 8
l22 -8 -24 -9 c-22 -9 -22 -10 -6 -17 17 -6 17 -7 -1 -21 -18 -13 -17 -14 16
-15 30 0 38 5 54 35 14 26 24 34 38 29 18 -5 84 13 103 28 18 16 22 7 33 -64z
m1085 -38 c21 -11 41 -18 45 -16 5 3 14 1 21 -4 9 -5 -1 -10 -30 -15 -24 -4
-53 -14 -64 -21 -19 -14 -19 -14 5 -14 56 0 -6 -18 -84 -24 -160 -13 -174 -16
-179 -39 -3 -12 -9 -33 -13 -46 -7 -23 -6 -23 62 -21 38 2 83 2 99 1 28 -1 29
-2 10 -13 -19 -12 -19 -12 5 -18 25 -7 25 -7 -10 -23 -26 -11 -30 -16 -15 -17
l20 -1 -20 -9 c-11 -4 -58 -11 -105 -15 l-86 -7 -11 -37 c-6 -20 -14 -43 -17
-51 -5 -13 14 -15 148 -12 97 3 161 0 173 -7 15 -9 13 -11 -17 -11 -60 -2 -4
-18 70 -20 76 -3 65 -6 -43 -15 -42 -4 -75 -11 -71 -16 3 -5 17 -9 31 -9 68 0
3 -9 -142 -21 -88 -7 -171 -17 -185 -22 -14 -6 -31 -9 -37 -8 -7 1 -14 -6 -14
-16 -1 -17 -2 -17 -6 0 -3 12 -15 17 -39 17 -31 0 -35 3 -29 20 3 11 2 20 -3
20 -5 0 -9 13 -9 30 0 21 6 30 20 32 26 4 63 109 43 120 -20 11 -8 76 16 84
19 6 29 24 42 76 5 22 2 27 -16 30 -16 2 -22 10 -23 31 0 15 3 27 7 27 4 0 8
8 8 18 0 33 64 51 189 51 63 1 117 3 119 6 13 13 101 3 135 -15z m-2634 -565
c33 -10 69 -31 88 -50 33 -33 34 -35 19 -63 -15 -30 -83 -77 -153 -108 l-38
-16 68 -18 c154 -39 181 -111 75 -204 -58 -50 -107 -76 -232 -122 -66 -25 -80
-33 -51 -29 23 3 0 -7 -55 -24 -100 -32 -125 -37 -100 -21 12 8 12 10 -5 9
-11 0 -38 -6 -59 -12 -31 -10 -42 -19 -52 -47 l-12 -35 -1 33 c-1 29 -3 32
-21 22 -11 -6 -22 -25 -25 -48 -17 -103 -25 -117 -20 -39 4 71 3 78 -13 75 -9
-2 -18 -13 -20 -26 -4 -27 -22 -19 -22 9 0 20 -8 20 -72 2 -10 -2 -18 0 -18 5
0 10 38 26 55 22 18 -4 79 -1 100 5 11 2 74 21 140 41 66 19 144 42 172 50 66
17 216 75 210 80 -2 2 -30 -5 -62 -17 -32 -11 -64 -18 -71 -15 -7 3 -14 0 -17
-7 -2 -7 -16 -4 -40 11 -24 14 -37 17 -37 9 0 -7 -4 -6 -10 3 -6 9 -10 10 -10
3 0 -6 -8 -10 -18 -8 -10 2 -50 -5 -88 -16 -71 -20 -107 -24 -88 -11 10 7 34
65 34 83 0 12 -99 7 -109 -6 -16 -20 -22 -68 -10 -75 20 -13 1 -28 -53 -40
-62 -15 -94 -29 -64 -30 14 0 16 -3 7 -13 -6 -8 -8 -17 -4 -20 3 -4 -11 -7
-33 -6 -33 0 -36 2 -16 9 24 10 30 30 10 30 -22 1 23 22 70 34 l45 12 24 89
c12 50 26 101 29 114 6 20 4 23 -11 18 -12 -5 -16 -3 -12 7 3 8 1 17 -6 20 -9
3 -8 8 3 15 13 10 13 12 0 20 -14 10 -6 15 49 33 8 2 27 39 43 82 l28 79 -37
-7 c-95 -16 -118 -17 -104 -8 17 12 6 32 -17 32 -11 0 -6 8 16 21 39 26 40 31
5 23 -23 -5 -26 -4 -16 7 7 7 59 23 115 35 90 20 125 23 273 20 126 -2 184 -8
224 -21z m793 -4 c2 -6 33 -6 78 -1 41 5 111 9 155 8 l80 0 -50 -13 -50 -12
35 -5 35 -4 -35 -12 -35 -12 40 4 c238 26 488 30 405 6 -22 -6 -23 -8 -7 -15
9 -4 24 -5 32 -1 8 3 15 2 15 -3 0 -5 -24 -15 -52 -24 -51 -15 -51 -15 -18
-16 68 -3 7 -19 -118 -32 l-124 -13 -19 -37 c-10 -21 -19 -41 -19 -45 0 -4 35
-3 79 0 43 4 91 4 107 0 l29 -8 -25 -7 -25 -6 25 -10 25 -10 -32 -7 c-40 -9
-53 -26 -21 -27 21 -1 -14 -7 -158 -24 -48 -6 -52 -8 -63 -43 -7 -20 -15 -42
-17 -49 -4 -8 45 -10 193 -8 109 2 178 0 153 -4 l-45 -7 28 -12 c16 -7 49 -13
75 -14 46 -1 46 -1 -13 -8 -33 -4 -80 -10 -104 -15 -32 -6 -42 -5 -37 3 4 7
16 12 27 12 11 0 17 5 14 10 -3 6 -15 10 -26 10 -13 0 -18 4 -13 11 5 9 -21
10 -102 5 -60 -4 -124 -10 -143 -13 -33 -6 -34 -5 -27 23 4 16 8 33 9 39 1 5
-13 11 -30 13 -18 2 -33 7 -33 13 0 5 -4 9 -8 9 -9 0 -32 -59 -32 -84 0 -10
-12 -21 -28 -27 -25 -8 -27 -13 -24 -46 l4 -36 62 6 c33 4 124 13 201 22 77 8
169 14 205 13 40 -1 50 -3 25 -5 -177 -14 -383 -35 -395 -40 -20 -8 -92 -12
-107 -6 -7 3 -11 9 -8 13 3 5 -3 13 -12 19 -10 6 -12 11 -5 11 6 0 12 6 12 14
0 8 -6 16 -12 19 -7 2 3 9 22 15 30 10 38 19 50 60 18 57 18 68 3 65 -7 -2
-10 8 -8 25 2 15 4 32 4 37 1 6 14 15 29 21 19 7 33 24 44 52 15 39 15 42 -3
47 -15 5 -16 10 -8 31 9 24 8 25 -18 20 -16 -3 -60 -8 -99 -11 l-70 -7 -38
-96 c-21 -53 -59 -153 -84 -222 -25 -68 -47 -119 -50 -112 -2 7 11 52 28 102
29 81 31 91 17 105 -10 9 -18 11 -22 5 -4 -6 -22 -9 -40 -7 -34 4 -34 4 -56
-61 -15 -46 -18 -67 -10 -70 6 -2 11 -8 11 -13 0 -4 -6 -6 -13 -3 -8 3 -18 -9
-26 -31 -7 -20 -15 -34 -18 -32 -5 5 63 221 108 344 13 35 21 65 18 67 -3 3
-45 -1 -94 -8 -89 -14 -112 -13 -86 3 11 7 10 11 -4 18 -16 10 -16 12 -1 36
13 19 14 26 4 30 -24 9 36 24 142 37 58 6 110 15 115 20 6 4 21 10 35 13 14 2
28 5 32 6 3 0 8 -3 10 -8z m1088 -19 c22 -10 36 -26 38 -39 2 -13 8 -23 14
-23 13 0 2 -46 -18 -77 -8 -13 -20 -20 -28 -17 -9 3 -17 -3 -22 -18 l-7 -23
-9 24 c-7 19 -11 21 -22 11 -12 -9 -15 -6 -18 22 -4 41 -21 45 -92 23 -63 -20
-116 -59 -101 -74 6 -6 59 -28 118 -51 139 -52 221 -94 241 -122 20 -28 20
-67 1 -92 -8 -10 -12 -23 -9 -27 3 -5 -1 -9 -9 -9 -8 0 -20 -7 -27 -15 -11
-14 -4 -15 61 -9 41 3 79 7 86 9 7 2 15 0 18 -5 4 -6 -6 -10 -22 -11 -129 -3
-193 -17 -327 -74 -75 -32 -134 -60 -131 -63 6 -6 -63 -36 -118 -52 -18 -6
-25 -5 -21 2 9 14 -21 4 -155 -53 -63 -27 -116 -47 -119 -44 -3 2 30 21 73 42
43 20 74 38 68 40 -5 2 -81 -21 -168 -52 -155 -54 -200 -66 -161 -43 52 30
333 121 352 114 8 -3 14 -2 14 3 0 4 15 8 33 8 45 0 397 128 397 145 0 2 -27
1 -60 0 -35 -2 -60 0 -60 6 0 5 -10 12 -22 15 -25 7 -376 -138 -443 -183 -46
-31 -103 -55 -111 -47 -3 2 28 21 68 41 40 20 80 40 88 45 8 5 112 52 230 105
238 106 300 140 300 162 0 16 -41 37 -195 95 -114 44 -165 80 -165 119 0 36
26 74 74 108 121 87 285 125 366 84z m-1474 -19 c-4 -9 -1 -20 6 -24 10 -6 3
-36 -29 -126 -23 -65 -54 -154 -69 -198 -44 -129 -76 -206 -69 -165 4 19 16
61 26 93 26 73 23 99 -13 104 -16 2 -28 -1 -28 -7 0 -5 -7 -10 -16 -10 -8 0
-22 -6 -29 -13 -13 -14 -37 -88 -33 -104 2 -11 -29 -83 -37 -83 -7 0 1 34 37
150 15 52 42 140 59 195 36 120 68 193 77 178 7 -11 93 4 108 20 12 12 16 8
10 -10z m-2344 -157 c12 -17 9 -64 -3 -72 -17 -10 -97 -6 -135 6 -29 10 -34
16 -34 44 0 18 3 36 7 40 10 10 157 -5 165 -18z m239 -16 c27 -15 26 -70 -1
-77 -11 -3 -20 -8 -20 -12 0 -3 9 -12 20 -19 24 -15 28 -70 5 -78 -8 -3 -47
-2 -87 3 l-73 8 -3 38 c-3 34 -1 37 22 37 33 0 33 13 1 28 -20 9 -25 19 -25
47 l0 35 71 0 c39 0 79 -5 90 -10z m4692 -146 c35 -6 37 -8 37 -45 l0 -39 -64
0 c-35 0 -78 3 -95 6 -28 6 -31 10 -31 45 l0 39 58 0 c31 0 74 -3 95 -6z m-8
-122 c38 -7 40 -9 40 -42 0 -34 -2 -35 -40 -38 -22 -2 -64 -1 -92 3 l-53 6 0
40 0 39 53 -1 c28 0 70 -3 92 -7z m-2411 -59 c-4 -16 -12 -41 -19 -58 l-12
-30 341 -1 c188 -1 355 -6 371 -11 20 -6 -79 -8 -285 -5 -450 6 -791 -21
-1070 -85 -110 -25 -53 -27 117 -4 256 35 313 42 502 55 101 7 202 9 225 5 22
-4 142 -5 266 -2 124 3 223 3 220 1 -3 -3 -79 -8 -170 -12 -232 -9 -462 -32
-608 -61 -69 -14 -128 -23 -130 -20 -14 14 259 69 388 78 25 2 6 4 -42 5 -109
2 -420 -29 -681 -69 -110 -17 -213 -29 -230 -27 l-32 3 32 17 c38 22 200 63
303 78 139 20 325 40 375 40 85 0 93 6 113 71 17 59 38 84 26 32z m-2926 -62
c42 -9 108 -16 355 -36 42 -4 77 -10 77 -14 0 -4 8 -7 18 -8 9 -1 71 -6 137
-12 66 -6 278 -22 470 -36 193 -14 359 -27 370 -29 43 -7 -67 -5 -200 4 -496
34 -884 56 -1082 64 l-133 4 -1 -41 c0 -33 -2 -38 -9 -21 -4 12 -15 24 -24 27
-9 4 -16 15 -16 26 0 13 -11 23 -35 31 -45 15 -55 7 -55 -41 0 -21 -5 -39 -10
-39 -7 0 -10 28 -8 77 3 70 5 79 26 89 20 10 27 8 48 -11 14 -13 46 -28 72
-34z m6592 21 c0 -11 -41 -39 -128 -87 -70 -38 -217 -119 -328 -181 -110 -61
-229 -122 -263 -134 -34 -13 -59 -25 -57 -28 8 -7 -21 -32 -38 -32 -9 0 -16 6
-16 13 0 10 -70 17 -292 30 -891 54 -1266 78 -1288 81 -72 9 80 4 381 -14 821
-49 864 -51 1024 -44 88 4 192 7 230 8 47 2 86 9 117 23 68 31 189 103 213
128 42 42 215 136 258 141 28 4 123 50 162 80 19 14 19 16 3 28 -24 18 -23 29
2 16 11 -6 20 -18 20 -28z m-1475 -2 c22 -8 26 -15 23 -42 -3 -31 -5 -33 -48
-36 -25 -1 -65 1 -90 6 -36 6 -46 12 -48 30 -7 45 3 52 72 52 36 0 77 -4 91
-10z m253 -22 c20 -20 15 -66 -9 -73 -32 -10 -157 5 -170 21 -6 8 -8 25 -5 39
6 24 9 25 89 25 51 0 88 -5 95 -12z"/>
<path d="M207 2253 c-9 -8 -8 -101 1 -168 6 -45 10 -50 40 -59 18 -5 35 -6 38
-3 8 7 6 161 -2 193 -4 14 -18 27 -36 33 -37 13 -33 13 -41 4z"/>
<path d="M1625 1494 c-11 -3 -30 -7 -42 -9 -22 -5 -24 -15 -49 -188 l-6 -37
64 34 c132 72 201 158 149 185 -23 13 -89 21 -116 15z"/>
<path d="M2469 1054 c-8 -3 -27 -34 -41 -70 l-26 -66 24 6 c52 13 191 67 223
87 22 13 30 24 24 30 -11 11 -177 21 -204 13z"/>
<path d="M2450 815 c-8 -2 -32 -6 -52 -10 l-37 -6 -32 -99 c-18 -55 -30 -103
-27 -105 8 -9 166 44 253 85 97 45 150 86 135 105 -19 23 -179 42 -240 30z"/>
<path d="M3745 4546 c-49 -18 -112 -42 -140 -55 -109 -49 -255 -84 -400 -96
-66 -6 -98 -2 -185 18 -58 14 -128 28 -156 32 -51 6 -52 6 -80 -30 -21 -28
-29 -51 -32 -96 -3 -39 -1 -59 7 -59 6 0 11 -15 11 -33 0 -93 104 -334 183
-423 58 -65 107 -88 179 -81 32 3 64 9 71 15 7 5 39 19 72 32 65 24 120 27
400 19 177 -5 244 14 318 89 78 79 91 121 95 300 4 143 2 160 -22 237 -20 64
-34 90 -59 111 -74 63 -129 67 -262 20z m61 -288 c9 -40 11 -42 48 -45 47 -3
63 -15 42 -32 -12 -10 -23 -10 -46 -3 -24 9 -30 8 -30 -2 0 -19 25 -27 61 -19
37 7 49 -6 49 -57 0 -19 4 -41 9 -49 20 -32 1 -46 -97 -68 -129 -30 -162 -34
-162 -23 0 6 -4 10 -10 10 -5 0 -10 -6 -10 -14 0 -16 -43 -29 -69 -21 -13 4
-21 23 -29 68 -18 102 -15 111 38 115 45 3 65 17 52 37 -4 5 -8 24 -9 40 -1
17 -3 39 -5 50 -4 27 53 55 113 55 46 0 46 0 55 -42z m-724 -54 c6 -4 8 -21 6
-40 -3 -21 1 -35 9 -38 7 -3 13 -9 12 -13 -1 -4 -1 -16 0 -25 2 -29 17 -20 16
10 0 22 5 28 27 30 25 3 51 -22 47 -45 -1 -4 0 -15 4 -23 3 -8 11 -37 17 -65
6 -27 14 -59 16 -71 5 -17 0 -22 -26 -28 -18 -3 -36 -3 -41 -1 -5 3 -27 1 -50
-5 -35 -10 -48 -9 -79 5 -30 13 -42 15 -59 6 -19 -11 -23 -7 -50 52 -31 67
-54 164 -41 172 4 3 11 -5 14 -18 6 -22 7 -22 21 -3 8 11 15 14 15 8 0 -7 5
-12 10 -12 13 0 13 33 -1 64 -9 20 -9 29 2 42 11 13 24 15 68 10 29 -4 58 -9
63 -12z"/>
</g>
</svg>
