<?xml version="1.0" standalone="no"?>
<!DOCTYPE svg PUBLIC "-//W3C//DTD SVG 20010904//EN"
 "http://www.w3.org/TR/2001/REC-SVG-20010904/DTD/svg10.dtd">
<svg version="1.0" xmlns="http://www.w3.org/2000/svg"
 width="720.000000pt" height="544.000000pt" viewBox="0 0 720.000000 544.000000"
 preserveAspectRatio="xMidYMid meet">
<metadata>
Created by potrace 1.16, written by Peter Selinger 2001-2019
</metadata>
<g transform="translate(0.000000,544.000000) scale(0.100000,-0.100000)"
fill="#000000" stroke="none">
<path d="M3975 5339 c-104 -15 -217 -48 -300 -88 -83 -39 -245 -153 -245 -171
0 -6 -19 -19 -42 -29 -49 -21 -113 -101 -110 -138 2 -21 -34 -99 -60 -130 -6
-8 -31 -24 -55 -35 -53 -25 -98 -75 -132 -148 -24 -50 -26 -66 -26 -185 0
-123 1 -133 29 -188 35 -70 164 -193 228 -218 36 -14 43 -23 61 -70 11 -30 33
-72 48 -93 16 -22 27 -41 26 -42 -2 -2 -25 4 -52 12 -107 33 -237 -10 -340
-112 -77 -77 -111 -142 -96 -186 14 -39 10 -43 -28 -30 -22 8 -46 7 -93 -4
-88 -21 -231 -65 -246 -77 -8 -6 -28 -3 -62 12 -63 27 -192 45 -289 39 -85 -5
-94 -9 -323 -147 -108 -66 -225 -161 -198 -161 17 0 11 -17 -16 -49 -14 -17
-24 -37 -22 -43 3 -7 16 5 30 27 24 39 72 74 84 63 16 -17 -95 -116 -116 -103
-10 6 -22 -33 -20 -67 1 -16 -3 -28 -9 -28 -15 0 -11 58 6 92 8 16 9 29 3 33
-18 11 -41 -44 -47 -114 -3 -41 -12 -76 -19 -82 -8 -6 -14 -22 -14 -34 0 -20
-9 -25 -72 -40 -40 -10 -104 -29 -142 -42 -38 -12 -73 -23 -78 -23 -4 0 -8 13
-8 29 0 33 -14 41 -68 41 -51 0 -64 -11 -72 -63 -7 -46 5 -77 27 -70 6 2 17
-5 23 -16 10 -20 11 -20 41 12 28 29 29 29 10 3 -12 -16 -21 -32 -21 -36 0
-21 230 -77 410 -100 193 -25 193 -26 0 -34 -120 -5 -213 -4 -265 3 -44 6
-100 14 -125 17 -103 15 42 -47 168 -72 116 -22 378 -36 442 -23 30 6 69 10
85 10 227 -5 294 1 479 41 111 24 229 79 259 120 20 26 20 26 -2 61 l-22 35
21 -5 c32 -8 53 -47 45 -83 -20 -92 -218 -160 -565 -195 -85 -8 -161 -15 -167
-15 -8 0 -13 -15 -13 -39 0 -39 1 -40 38 -44 20 -2 0 -4 -46 -5 -57 -1 -81 1
-77 9 4 6 4 25 1 43 l-6 33 -139 7 c-294 14 -513 59 -581 121 -9 8 -47 24 -85
36 -39 12 -86 29 -106 39 l-35 18 -195 -77 c-106 -43 -262 -104 -346 -136 -89
-33 -161 -67 -174 -81 -21 -22 -21 -28 -14 -159 l7 -136 34 -22 c23 -15 35
-32 38 -52 3 -16 25 -291 51 -610 25 -319 49 -610 52 -646 l6 -66 -33 -13
c-18 -7 -46 -24 -61 -38 -31 -26 -35 -53 -23 -146 6 -43 9 -47 58 -70 56 -27
105 -33 536 -61 1316 -87 2438 -166 3485 -247 l670 -52 592 -4 591 -3 5 23 4
23 2 -22 c1 -22 5 -23 91 -23 l90 0 128 74 c312 181 508 298 521 311 9 9 16
43 19 93 l4 79 -37 30 -37 31 16 188 c15 183 40 525 70 977 l15 217 29 29 c26
27 29 37 35 122 4 51 7 124 7 164 0 120 -10 124 -375 150 -121 9 -243 18 -272
21 l-51 5 -7 76 c-7 74 -8 75 -43 90 -25 10 -55 13 -106 9 -39 -3 -80 -6 -91
-7 -11 -1 -65 8 -120 19 -212 44 -367 55 -695 49 -264 -5 -321 -9 -427 -30
l-123 -23 0 31 c0 43 -16 55 -71 55 -69 0 -79 -6 -79 -49 0 -55 -7 -60 -78
-54 l-62 6 35 38 c44 49 64 88 71 143 l6 44 62 7 c35 4 78 17 103 31 48 28
113 32 157 9 58 -30 268 -13 368 31 32 14 90 32 129 40 39 8 89 24 110 34 21
11 62 29 92 40 29 11 63 30 75 43 11 12 42 69 68 127 58 130 92 183 124 192
14 4 44 11 66 17 54 14 139 82 153 123 26 75 2 124 -126 256 -35 37 -42 49
-40 80 2 29 -3 38 -23 49 -39 20 -107 17 -112 -5 -3 -10 -15 -18 -29 -19 -46
-3 -89 -14 -89 -22 0 -10 -67 -31 -74 -23 -18 17 0 32 50 42 80 17 57 35 -26
20 -81 -15 -210 -84 -210 -113 0 -6 8 -3 18 6 21 19 72 39 72 28 0 -16 -35
-39 -70 -45 -19 -4 -60 -19 -90 -35 -62 -31 -81 -60 -88 -136 -5 -54 -48 -159
-76 -188 -10 -9 -32 -18 -49 -18 l-32 -2 35 -6 c51 -9 49 -33 -4 -85 -25 -24
-46 -50 -46 -56 0 -7 -6 -26 -14 -43 -8 -18 -16 -41 -18 -52 -3 -18 -11 -20
-88 -20 -47 0 -106 4 -132 8 -56 10 -61 25 -28 92 44 91 158 164 257 165 l38
1 -39 14 c-21 7 -55 29 -75 49 -20 19 -63 49 -96 65 l-60 31 57 0 c34 0 79 9
114 22 48 18 67 34 118 96 70 84 106 152 106 202 0 45 -14 28 -29 -35 -26
-107 -157 -257 -201 -230 -7 4 6 18 32 34 24 15 60 47 80 70 42 49 89 162 70
169 -15 5 -16 44 -1 59 8 8 7 31 -5 87 l-17 75 -36 -2 c-41 -2 -52 13 -27 38
20 19 9 48 -20 53 -21 4 -84 -60 -92 -94 -7 -27 14 -60 23 -37 3 7 13 23 23
35 17 21 20 22 35 7 12 -12 14 -21 6 -42 -6 -15 -15 -27 -21 -27 -16 0 -12
-30 5 -36 9 -4 15 -19 15 -35 0 -19 -5 -29 -15 -29 -16 0 -55 34 -55 49 0 5
-11 12 -24 15 -13 3 -31 8 -39 12 -11 4 -20 -11 -36 -58 -46 -140 -64 -289
-40 -340 8 -20 16 -23 45 -20 20 3 31 8 28 14 -4 6 -1 9 7 6 25 -8 15 -33 -16
-39 -64 -14 -124 -10 -133 9 -31 59 -16 213 35 362 14 41 26 91 26 112 0 27 5
39 18 43 10 3 42 31 71 62 61 64 108 89 138 73 20 -11 84 -86 93 -110 4 -11 6
-10 6 4 1 11 -14 47 -33 80 -18 34 -32 68 -29 76 2 8 -4 5 -13 -7 -19 -27 -65
-31 -88 -7 -19 19 -20 28 -3 41 25 20 69 24 92 9 21 -14 23 -13 34 10 14 31
14 59 0 125 -17 77 -33 89 -129 89 -78 0 -81 1 -91 27 -5 15 -6 30 -1 35 13
13 131 -8 152 -27 26 -24 28 -19 15 38 -24 98 -123 255 -224 358 -223 224
-600 345 -926 298z m309 -254 c53 -13 129 -40 168 -59 69 -35 208 -132 208
-144 0 -4 -18 -20 -40 -36 -54 -40 -42 -46 14 -7 l45 32 36 -48 c87 -119 153
-294 135 -362 -5 -20 -18 -70 -28 -111 -10 -41 -39 -115 -64 -165 -40 -80 -95
-231 -143 -395 -9 -30 -24 -66 -33 -80 -17 -27 -17 -61 1 -72 30 -18 -49 -65
-163 -96 -82 -23 -290 -40 -290 -24 0 5 26 12 58 16 95 9 155 21 192 38 119
54 147 68 165 82 16 13 17 15 2 10 -13 -5 -16 -2 -11 10 8 21 1 20 -45 -4 -42
-21 -103 -45 -161 -62 -19 -5 -42 -16 -50 -23 -10 -9 -38 -13 -78 -12 -34 1
-62 -2 -62 -7 0 -5 -3 -6 -7 -2 -4 4 -10 31 -14 59 l-6 52 -2 -49 -1 -48 -72
5 c-96 7 -218 28 -218 39 0 4 -9 8 -19 8 -24 0 -107 70 -141 119 -24 34 -25
35 -28 12 -2 -13 2 -27 8 -31 7 -4 10 -12 6 -18 -3 -5 8 -15 24 -22 17 -7 30
-16 30 -21 0 -5 11 -11 25 -15 15 -4 24 -12 23 -21 -2 -9 5 -17 17 -19 11 -2
21 -7 23 -13 2 -5 10 -7 18 -4 8 3 14 0 14 -7 0 -7 8 -9 20 -5 11 3 20 2 20
-3 0 -15 205 -58 241 -50 6 2 14 -3 17 -11 4 -11 -8 -12 -64 -7 -133 14 -273
54 -394 113 -100 48 -126 66 -196 137 -102 102 -130 155 -150 289 -36 235 33
608 135 727 11 14 40 50 64 80 24 30 70 74 103 97 86 61 211 123 247 123 18 0
52 7 77 14 75 24 232 20 344 -9z m-1007 -333 c-37 -38 -68 -122 -62 -164 4
-24 3 -28 -3 -13 -7 16 -13 3 -28 -60 -27 -118 -25 -323 4 -385 11 -24 19 -47
16 -49 -9 -9 -50 22 -79 60 -16 22 -36 46 -42 54 -16 17 -17 33 -1 17 7 -7 15
-12 18 -12 4 0 7 46 8 103 1 56 8 142 16 191 8 49 12 94 9 99 -3 6 1 15 9 21
9 6 26 36 38 66 31 73 56 100 94 100 l30 0 -27 -28z m94 -957 c57 -21 137 -91
121 -107 -9 -9 -16 -7 -30 5 -19 18 -60 22 -107 12 -35 -7 -56 -25 -37 -32 6
-3 12 -12 12 -21 0 -8 7 -24 17 -34 18 -20 4 -25 -15 -6 -9 9 -12 9 -12 0 0
-7 -5 -12 -11 -12 -6 0 -25 -6 -42 -14 -18 -8 -41 -17 -52 -21 -13 -5 -16 -9
-7 -12 18 -7 -5 -33 -29 -33 -11 0 -19 -5 -19 -11 0 -6 -7 -9 -15 -5 -8 3 -15
1 -15 -5 0 -6 -4 -8 -9 -5 -11 7 -33 -42 -26 -57 3 -7 -4 2 -17 18 -42 55 -99
105 -118 105 -22 0 -26 -10 -9 -27 12 -12 6 -43 -9 -43 -21 0 -22 64 -2 106
30 62 146 167 212 192 64 25 157 28 219 7z m2664 1 c35 -25 29 -173 -8 -198
-11 -6 -58 11 -68 25 -3 5 0 45 7 90 8 45 14 85 14 90 0 12 35 8 55 -7z m-560
-26 c38 -14 40 -33 10 -94 -21 -43 -24 -58 -16 -75 15 -27 14 -31 -6 -31 -9 0
-40 18 -70 40 -43 33 -53 46 -53 70 0 81 57 120 135 90z m-1925 -110 c0 -5
-10 -10 -22 -10 -23 0 -88 -56 -88 -75 0 -6 12 -16 28 -22 27 -11 27 -11 -13
-13 -24 -2 -31 -4 -18 -7 l22 -4 -21 -37 -20 -37 29 33 c34 37 50 39 100 12
21 -11 32 -20 25 -20 -7 0 -11 -4 -8 -9 3 -5 -1 -11 -9 -15 -29 -11 -14 -26
26 -26 22 0 38 3 36 8 -3 4 -1 15 2 25 6 16 13 10 46 -34 26 -34 60 -63 97
-84 32 -17 55 -35 50 -40 -4 -4 -2 -5 4 -2 6 4 47 2 90 -5 70 -9 89 -8 164 10
47 11 89 17 95 13 5 -5 35 -11 65 -15 84 -11 101 -17 109 -39 7 -18 8 -18 14
-3 5 12 -3 21 -30 34 l-36 17 39 7 c22 4 56 7 77 7 21 1 36 5 33 10 -3 5 1 11
9 15 19 7 19 11 -10 -160 -14 -80 -25 -162 -25 -183 0 -35 -2 -38 -27 -37
l-28 1 -6 95 -5 95 -2 -97 c-2 -101 -7 -128 -25 -128 -5 0 -24 -11 -41 -24
-34 -26 -142 -77 -196 -94 -86 -26 -93 -24 -156 29 -58 49 -148 99 -178 99 -8
0 -20 8 -25 18 -6 10 -11 12 -11 4 0 -10 -5 -10 -21 -1 -14 7 -55 10 -110 7
l-87 -4 -32 52 c-35 58 -49 68 -66 46 -6 -8 -15 -12 -21 -9 -14 9 -36 180 -28
216 6 30 6 30 -23 20 -35 -12 -42 -31 -42 -119 1 -73 19 -166 44 -225 23 -53
37 -137 22 -132 -17 5 -56 110 -71 191 -20 102 -11 239 22 329 32 89 72 169
112 224 48 66 141 127 141 93z m1821 -107 c18 -38 46 -85 63 -107 22 -28 25
-36 10 -28 -10 6 -26 13 -35 15 -9 3 -20 20 -24 39 l-8 33 -7 -38 c-4 -21 -12
-43 -19 -50 -6 -6 -11 -19 -11 -29 0 -18 -14 -48 -36 -78 -19 -26 -25 -69 -13
-93 12 -21 11 -21 -6 -7 -32 27 -57 97 -56 164 0 49 8 78 37 141 38 84 51 105
65 105 4 0 22 -30 40 -67z m-427 17 c27 -14 60 -41 75 -60 l26 -34 -36 22
c-41 25 -88 31 -121 15 -13 -6 -38 -16 -55 -23 -18 -7 -33 -16 -33 -21 0 -5
-7 -9 -15 -9 -9 0 -12 6 -8 17 4 10 2 14 -5 9 -6 -3 -13 -2 -17 4 -3 6 -47 10
-98 10 -74 0 -98 -4 -125 -20 -28 -17 -33 -18 -38 -5 -4 8 -16 15 -28 15 -11
0 -28 5 -36 10 -12 8 -10 10 10 10 14 0 31 -4 39 -9 9 -6 28 2 60 26 57 44 80
53 161 63 111 14 191 8 244 -20z m-2031 -109 c50 -21 92 -68 131 -144 33 -66
34 -97 4 -97 -25 0 -74 -14 -185 -54 -40 -14 -78 -23 -86 -20 -8 3 -17 19 -21
35 -19 99 -104 199 -168 199 -43 0 -30 22 23 38 116 34 216 61 236 61 12 1 41
-8 66 -18z m2956 -22 c-30 -11 -41 -30 -70 -119 -54 -167 -93 -211 -205 -235
-124 -26 -137 -14 -39 38 58 32 95 76 100 122 1 11 3 24 4 29 0 4 12 6 26 3
14 -2 23 -2 20 1 -7 7 37 66 94 125 32 33 53 47 71 46 l25 -1 -26 -9z m-3439
-22 c79 -25 96 -37 133 -95 31 -47 37 -66 37 -109 0 -48 -10 -67 -24 -45 -3 5
-35 9 -71 10 -37 1 -75 7 -87 13 -11 6 -31 36 -45 67 -32 73 -45 87 -111 117
-41 19 -72 25 -126 26 -72 1 -63 14 14 19 l35 3 -40 7 c-22 4 23 6 100 4 86
-2 157 -8 185 -17z m-329 -81 c56 -36 66 -116 20 -165 -30 -32 -59 -39 -78
-20 -11 11 -133 39 -170 39 -15 0 -23 6 -23 17 0 15 -1 15 -12 1 -12 -16 -29
-22 -54 -19 -15 1 -25 39 -13 47 5 3 9 0 9 -7 0 -6 19 4 43 23 23 19 71 48
107 63 36 16 69 32 75 37 14 12 67 4 96 -16z m1148 -289 c1 -47 45 -180 71
-217 11 -15 33 -33 50 -40 30 -12 30 -14 30 -86 l0 -74 -64 0 c-48 0 -65 4
-70 15 -8 21 -77 19 -114 -2 -29 -16 -32 -16 -49 -1 -14 13 -46 19 -116 24
l-97 7 0 31 c0 17 -3 41 -6 53 -19 70 -242 63 -266 -9 -3 -8 -26 -4 -79 15
-41 14 -102 34 -136 43 -113 30 -107 66 15 89 40 8 85 24 102 36 29 22 34 22
103 11 59 -10 87 -9 154 3 203 36 277 61 294 98 8 18 22 27 50 31 22 4 56 15
77 26 35 19 37 19 44 3 3 -10 7 -35 7 -56z m-938 -33 c14 -18 14 -133 0 -147
-5 -5 -27 -4 -49 3 -41 10 -83 53 -81 82 0 7 5 4 10 -7 7 -15 8 -12 3 13 -4
23 -2 32 8 32 7 0 21 9 31 20 20 24 60 26 78 4z m-212 -5 c70 -23 81 -31 75
-54 -3 -13 2 -44 11 -70 8 -26 14 -49 13 -51 -2 -2 -58 1 -123 6 -185 15 -186
14 -237 -25 -45 -36 -69 -41 -154 -37 -32 2 -43 7 -47 22 -3 12 -14 20 -26 20
-31 0 -35 22 -12 66 12 21 21 52 21 69 0 17 5 36 12 43 17 17 77 15 84 -2 8
-21 -15 -125 -38 -169 l-19 -38 28 3 c26 3 28 7 35 61 13 105 45 144 109 135
22 -3 24 -7 21 -48 -3 -51 -22 -86 -52 -95 -20 -6 -28 -25 -11 -25 6 0 31 14
56 31 34 23 44 36 40 49 -8 25 38 76 81 90 29 10 43 9 72 -3 60 -24 113 -39
118 -34 3 3 -27 17 -65 32 -39 16 -71 30 -71 32 0 7 45 2 79 -8z m3551 -329
c272 -24 535 -76 547 -108 12 -30 -22 -29 -115 5 -53 19 -162 46 -242 60 -136
25 -165 26 -455 26 -268 -1 -327 -3 -434 -22 -69 -11 -127 -19 -129 -16 -8 7
15 12 138 31 202 30 502 40 690 24z m-43 -160 c29 -6 64 -21 79 -33 l27 -21
-26 -22 c-41 -35 -125 -49 -302 -49 -177 0 -265 17 -285 56 -15 28 -1 43 56
59 107 30 335 35 451 10z m-4942 -26 c-11 -8 -45 -22 -75 -31 -30 -8 -106 -40
-167 -69 -118 -56 -136 -76 -86 -95 14 -5 166 -20 337 -32 181 -13 286 -24
251 -26 l-60 -3 60 -13 c33 -8 146 -18 250 -24 105 -7 255 -16 335 -22 80 -6
188 -12 240 -14 l95 -3 -80 9 c-44 4 -100 10 -125 13 -25 3 -110 10 -190 16
-233 18 -419 37 -365 38 56 1 221 -10 490 -32 99 -8 275 -20 390 -26 250 -14
498 -37 413 -39 -94 -2 -75 -18 30 -25 53 -4 187 -14 297 -21 399 -29 834 -57
1010 -65 99 -5 221 -12 270 -16 63 -5 87 -3 80 4 -5 6 -28 13 -50 15 -22 2 7
3 65 1 119 -5 490 -31 625 -44 86 -8 84 -8 -35 -4 -69 2 -161 6 -205 9 -60 3
-70 2 -40 -4 47 -10 256 -28 480 -41 88 -5 214 -12 280 -16 127 -7 150 1 44
16 -102 14 261 0 531 -20 129 -10 300 -17 380 -16 166 3 202 14 315 98 89 66
426 283 385 249 -19 -16 -31 -33 -27 -38 5 -4 13 0 18 10 6 9 14 15 19 12 5
-3 12 -1 15 5 4 6 15 8 25 5 29 -9 186 97 174 117 -4 7 -2 8 4 4 7 -4 12 -3
12 2 0 17 -51 32 -105 32 -35 0 -55 4 -55 11 0 17 126 2 156 -18 44 -29 48
-24 -161 -172 -278 -195 -471 -324 -514 -340 l-46 -19 -7 -108 c-4 -60 -10
-114 -13 -121 -2 -7 -20 -13 -39 -13 -27 0 -33 4 -31 18 2 9 6 61 9 115 l5 97
-123 0 c-68 0 -179 4 -247 10 -68 5 -200 14 -294 20 -93 5 -312 19 -485 30
-173 11 -427 27 -565 35 -137 9 -347 22 -465 30 -118 9 -386 26 -595 40 -653
43 -1541 104 -1750 120 -463 35 -891 60 -1205 71 -96 3 -184 6 -195 7 -19 2
-20 -4 -19 -91 1 -108 3 -112 81 -112 29 0 83 -5 120 -10 38 -6 118 -17 178
-25 l110 -14 -135 5 c-195 7 -399 23 -443 35 -20 5 -43 20 -51 32 -15 24 -31
244 -18 263 10 16 60 40 149 73 217 80 327 121 331 126 3 3 10 5 16 5 6 0 2
-7 -9 -16z m3856 -29 c-51 -59 -38 -111 41 -161 138 -88 417 -146 708 -148
322 -2 528 10 663 38 192 40 310 94 343 159 18 34 11 78 -17 103 -34 31 -20
36 21 7 22 -16 40 -36 40 -47 0 -10 16 -34 35 -53 26 -25 35 -42 34 -66 0 -21
-3 -26 -7 -16 -4 8 -18 29 -32 45 l-24 29 -34 -37 c-57 -63 -196 -119 -382
-152 -69 -13 -322 -46 -353 -46 -5 0 -7 -19 -5 -42 3 -42 4 -43 43 -49 22 -4
-10 -6 -75 -6 -63 0 -105 2 -92 4 19 4 22 11 22 49 l0 44 -67 0 c-83 0 -278
15 -393 31 -278 36 -477 116 -526 212 -13 24 -13 31 1 60 12 26 68 77 83 77 2
0 -10 -16 -27 -35z m-767 -181 c24 -9 19 -27 -14 -59 -29 -28 -30 -28 -106
-19 -45 5 -79 14 -82 21 -2 7 9 24 24 38 23 22 36 25 95 25 37 0 74 -3 83 -6z
m-1941 -422 c60 -27 81 -60 74 -115 -5 -36 -15 -51 -66 -98 -61 -56 -66 -69
-27 -69 36 0 83 -36 102 -79 28 -61 47 -53 78 32 15 39 46 116 69 170 37 86
45 97 63 93 11 -3 29 1 40 9 10 8 27 15 37 15 9 0 17 5 17 10 0 6 5 10 10 10
6 0 10 -9 10 -20 0 -11 4 -28 9 -38 6 -9 18 -71 28 -137 17 -112 20 -120 41
-123 15 -2 22 -9 18 -17 -3 -8 -1 -17 3 -20 5 -2 14 16 20 41 26 104 97 195
184 239 50 25 97 32 111 18 4 -4 14 -8 23 -8 24 0 56 -50 55 -85 -1 -48 -21
-100 -36 -94 -8 3 -16 -2 -20 -12 -6 -15 -9 -14 -26 6 -11 13 -20 34 -20 47 0
35 -33 29 -75 -12 -47 -47 -76 -107 -82 -169 -4 -43 -1 -56 18 -80 19 -24 27
-28 60 -23 20 3 57 18 81 34 57 39 98 61 81 42 -15 -15 -17 -49 -5 -49 5 0 18
10 30 23 15 16 26 50 37 117 32 192 36 210 45 234 7 18 14 23 29 19 13 -3 21
-1 21 7 0 7 8 9 20 5 11 -4 20 -2 20 4 0 21 16 11 26 -16 7 -20 6 -46 -3 -88
-7 -33 -12 -64 -13 -68 0 -10 19 4 139 105 50 43 97 75 104 72 7 -2 24 7 37
21 37 39 46 29 10 -11 -17 -20 -29 -39 -25 -42 3 -3 11 0 17 6 17 17 33 15 18
-3 -6 -8 -9 -19 -5 -25 9 -14 -13 -39 -90 -103 -33 -27 -79 -67 -103 -89 l-43
-39 97 -120 c53 -66 98 -118 101 -115 2 2 -1 13 -8 23 -13 22 -4 97 12 88 5
-4 9 -1 9 5 0 7 6 10 14 7 7 -3 18 -1 23 4 5 5 14 -5 22 -26 8 -23 20 -37 37
-41 36 -9 94 2 124 24 45 34 33 52 -70 105 -111 56 -138 79 -146 122 -11 60
38 120 138 171 119 60 228 31 228 -61 0 -29 -28 -90 -37 -81 -3 3 -12 -2 -19
-12 -8 -10 -13 -12 -14 -4 0 6 -7 12 -15 12 -10 0 -15 10 -15 30 0 37 -18 39
-80 8 -67 -34 -61 -52 35 -104 44 -23 99 -60 123 -81 35 -32 42 -45 42 -75 0
-44 -33 -87 -94 -123 -76 -44 -219 -83 -201 -55 3 6 1 10 -5 10 -6 0 -29 9
-50 19 -22 11 -40 17 -40 14 0 -2 21 -31 46 -64 25 -32 43 -59 41 -59 -2 0
-28 18 -57 40 -56 42 -85 53 -57 22 27 -29 20 -35 -14 -12 -24 18 -39 21 -77
17 -42 -5 -44 -5 -19 5 15 7 27 15 27 19 0 5 -26 34 -58 66 -32 32 -76 79 -99
105 l-40 48 -18 -88 c-10 -48 -22 -91 -27 -97 -6 -6 -7 -3 -3 8 4 9 3 17 -2
17 -13 0 -33 -45 -35 -78 0 -16 -3 -9 -7 18 -5 36 -10 45 -24 43 -17 -1 -18 6
-15 63 2 35 1 64 -2 64 -3 0 -30 -25 -60 -56 -62 -63 -120 -104 -149 -104 -35
0 -109 40 -140 75 -17 20 -36 56 -42 80 -10 41 -30 58 -43 37 -3 -5 2 -40 10
-78 17 -82 17 -94 3 -74 -8 11 -9 1 -6 -40 l5 -55 -20 44 c-13 29 -23 40 -28
32 -5 -9 -10 -3 -15 16 -7 25 -8 26 -15 8 -10 -25 -14 -15 -33 70 -15 67 -10
65 -113 44 -52 -10 -52 -10 -74 -69 -12 -33 -28 -60 -35 -60 -7 0 -19 -13 -27
-30 -15 -34 -28 -39 -28 -12 0 26 -11 34 -27 21 -17 -15 -16 -4 3 61 22 75 4
84 -56 25 -25 -24 -75 -63 -113 -88 -37 -24 -64 -46 -61 -50 4 -3 -20 -18 -52
-34 -33 -15 -63 -29 -68 -31 -5 -3 -6 0 -2 7 4 6 1 11 -8 11 -9 0 -18 -12 -22
-27 -9 -44 -12 -50 -13 -25 -1 12 -5 22 -10 22 -14 0 -21 -28 -21 -87 0 -31
-3 -53 -7 -49 -9 8 -9 13 -11 74 -2 45 -18 57 -25 20 l-4 -23 -8 23 c-8 24
-15 24 -72 6 -17 -5 -17 -5 1 10 20 16 13 41 -10 32 -8 -3 -14 -1 -14 5 0 5 7
12 15 15 21 9 19 27 -2 20 -24 -8 14 23 55 45 29 16 30 19 31 95 1 44 4 94 7
112 5 25 3 32 -10 32 -15 0 -21 17 -16 49 1 8 -4 17 -10 21 -8 5 -1 12 18 21
35 15 39 27 48 121 l7 68 -59 -24 c-54 -22 -95 -25 -63 -5 11 7 11 11 1 21
-10 10 -23 9 -65 -6 -84 -30 -86 -29 -15 8 61 33 105 69 65 53 -10 -3 -17 -2
-17 3 0 21 161 89 261 110 68 14 190 5 242 -18z m-1414 -277 c11 -132 25 -292
31 -355 20 -215 40 -505 39 -555 l-1 -50 -9 55 c-14 96 -71 787 -85 1035 -11
201 4 124 25 -130z m3899 153 c6 -40 16 -111 23 -158 10 -81 19 -100 46 -100
7 0 10 -7 7 -15 -4 -8 -2 -15 4 -15 5 0 17 21 27 48 25 64 55 109 106 159 121
115 282 139 326 48 16 -33 16 -37 -3 -82 -12 -28 -26 -47 -34 -45 -7 2 -17 -2
-21 -9 -11 -18 -39 14 -39 45 0 72 -150 -25 -200 -129 -25 -51 -26 -122 -3
-147 24 -27 80 -23 127 10 57 39 57 52 2 52 -34 0 -46 4 -47 15 -5 70 -5 69
37 76 21 4 78 10 126 14 l87 7 -3 -34 c-2 -18 -13 -58 -24 -88 -11 -30 -33
-95 -48 -145 -19 -64 -29 -84 -34 -70 -8 23 -17 11 -36 -49 l-13 -41 0 48 c-1
47 -15 63 -25 30 -3 -10 -4 6 -2 35 2 28 2 52 1 52 -1 0 -23 -11 -49 -25 -58
-31 -78 -31 -135 -2 -58 30 -101 84 -108 136 -5 35 -9 41 -29 41 -20 0 -23 -4
-18 -27 24 -136 25 -154 3 -123 -8 11 -9 -2 -4 -44 6 -62 -2 -68 -20 -15 -5
17 -14 31 -20 31 -5 -1 -15 9 -22 21 -7 12 -12 16 -13 10 0 -7 -4 -13 -8 -13
-5 0 -15 32 -22 71 l-12 71 -62 -6 c-105 -12 -105 -12 -142 -90 -19 -39 -34
-63 -34 -54 0 28 -25 10 -49 -35 -20 -39 -21 -40 -17 -12 6 39 -9 68 -23 45
-21 -31 -18 -2 4 50 17 40 20 56 11 58 -15 3 -17 62 -3 62 5 0 4 6 -2 14 -13
15 4 26 38 26 16 0 61 80 139 243 2 5 -11 6 -29 3 -19 -3 -68 -11 -110 -17
l-77 -11 -15 -62 c-9 -33 -33 -130 -54 -215 -28 -116 -39 -147 -43 -125 l-6
29 -27 -46 c-15 -25 -27 -51 -27 -57 0 -7 -4 -12 -9 -12 -4 0 -4 20 2 45 8 34
7 49 -1 57 -9 9 -12 9 -12 0 0 -7 -4 -12 -10 -12 -12 0 -5 58 30 235 16 77 26
142 24 144 -2 2 -29 -1 -60 -8 -77 -15 -112 -15 -96 1 8 8 9 15 1 25 -8 9 -8
17 0 26 7 9 7 17 0 24 -18 18 14 32 97 43 43 6 90 16 104 22 31 13 264 20 293
8 l22 -8 -24 -9 c-22 -9 -23 -10 -5 -17 18 -7 17 -8 -5 -20 -24 -13 -24 -13
13 -18 34 -4 39 -1 58 34 16 28 26 37 40 32 18 -5 84 13 103 28 18 16 22 7 33
-64z m1076 -33 c15 -8 39 -15 52 -15 41 0 35 -18 -8 -25 -24 -4 -52 -14 -63
-21 -19 -14 -19 -14 5 -14 56 0 -6 -18 -84 -24 -160 -13 -174 -16 -179 -39 -3
-12 -9 -33 -13 -46 -7 -23 -6 -23 62 -21 38 2 82 2 98 1 28 -1 29 -2 10 -16
-19 -14 -18 -14 4 -15 33 0 27 -16 -10 -25 -28 -6 -30 -8 -14 -14 30 -11 4
-18 -100 -26 l-90 -7 -11 -37 c-6 -20 -14 -43 -17 -51 -5 -13 14 -15 148 -12
97 3 161 0 173 -7 15 -9 13 -10 -15 -11 -20 0 -31 -4 -27 -10 3 -5 41 -11 83
-11 82 -2 77 -4 -30 -14 -65 -6 -96 -25 -41 -25 68 0 3 -9 -142 -20 -88 -7
-172 -18 -187 -25 -20 -10 -28 -10 -31 -1 -3 6 -9 0 -15 -14 -9 -22 -11 -23
-17 -7 -5 11 -18 17 -37 17 -22 0 -29 4 -25 14 3 8 3 17 -1 21 -4 3 -7 19 -8
35 -1 22 3 30 19 32 27 4 65 107 45 123 -7 5 -12 17 -12 25 1 8 2 23 3 32 0 9
10 20 22 23 20 7 30 24 43 77 5 22 2 27 -16 30 -22 3 -34 43 -16 54 4 3 8 13
8 23 0 32 65 50 184 50 60 1 112 3 114 6 11 11 109 4 136 -10z m-2625 -570
c33 -10 69 -31 88 -50 33 -33 34 -35 18 -64 -14 -28 -82 -74 -160 -110 l-30
-14 35 -8 c88 -22 111 -31 140 -55 23 -20 30 -34 30 -62 0 -31 -8 -44 -53 -87
-60 -56 -109 -83 -241 -131 -67 -25 -80 -33 -51 -29 52 7 39 1 -68 -30 -95
-27 -110 -30 -87 -15 12 8 12 10 -5 9 -11 0 -38 -6 -59 -12 -31 -10 -42 -19
-52 -47 l-12 -35 -1 32 c-2 64 -50 8 -52 -60 -1 -18 -5 -43 -10 -57 -6 -16 -7
2 -3 53 4 71 3 78 -13 75 -9 -2 -20 -14 -24 -28 l-6 -25 -7 27 c-5 15 -13 25
-19 23 -35 -10 -77 -13 -77 -6 0 13 37 21 110 25 36 2 110 18 165 35 55 17
133 40 174 52 83 22 234 79 228 85 -2 2 -30 -5 -62 -17 -32 -11 -64 -18 -72
-15 -8 3 -11 1 -8 -4 3 -6 1 -10 -4 -10 -6 0 -11 5 -11 12 0 6 -3 9 -6 5 -4
-3 -19 0 -35 9 -17 9 -29 10 -29 4 0 -6 -10 -8 -24 -4 -13 3 -57 -4 -98 -15
-77 -22 -112 -27 -92 -13 10 7 34 65 34 83 0 10 -90 7 -106 -4 -18 -11 -26
-69 -12 -78 20 -13 -1 -26 -66 -43 -62 -17 -81 -26 -51 -26 13 0 15 -3 6 -13
-6 -8 -8 -17 -4 -20 3 -4 -11 -7 -33 -7 l-39 1 30 13 c27 11 28 13 11 23 -16
9 -15 11 11 21 15 6 43 15 62 20 34 8 35 10 58 97 12 50 26 101 29 114 6 20 4
23 -11 18 -12 -5 -16 -3 -12 7 3 8 1 17 -6 19 -9 3 -8 8 2 20 11 14 11 17 1
17 -20 0 -2 14 32 26 27 9 35 21 60 88 l28 79 -37 -7 c-95 -16 -118 -17 -104
-8 16 12 6 32 -17 33 -13 0 -14 2 -2 6 8 3 23 15 35 25 20 19 20 19 -10 12
-25 -5 -28 -4 -18 7 7 7 59 23 115 35 90 20 125 23 273 20 126 -2 184 -8 224
-21z m793 -3 c2 -5 37 -5 78 -1 41 4 111 8 155 7 l80 0 -50 -13 c-48 -13 -49
-13 -15 -15 l35 -2 -35 -13 -35 -14 40 4 c232 25 484 28 405 5 -24 -7 -24 -8
10 -16 l35 -8 -55 -17 c-44 -14 -49 -18 -26 -18 19 -1 26 -5 20 -10 -5 -5 -64
-15 -132 -22 l-124 -13 -19 -37 c-10 -21 -19 -41 -19 -45 0 -4 36 -4 80 0 44
3 92 3 107 -1 l28 -7 -25 -7 -25 -6 25 -11 c14 -6 20 -11 13 -11 -6 -1 -24 -6
-40 -12 l-28 -12 25 -7 c18 -4 4 -8 -50 -14 -157 -14 -156 -14 -169 -54 -7
-21 -15 -42 -17 -49 -4 -8 45 -10 193 -8 109 2 181 1 161 -1 -70 -9 -31 -32
61 -36 25 -1 18 -3 -24 -8 -33 -4 -80 -10 -104 -15 -32 -6 -42 -5 -37 3 4 7
16 12 27 12 11 0 17 5 14 10 -3 6 -15 10 -26 10 -12 0 -17 4 -13 11 5 9 -23
10 -107 4 -63 -4 -125 -8 -139 -9 -25 -1 -27 4 -19 49 3 16 -2 21 -29 23 -18
2 -30 8 -27 13 4 5 0 9 -8 9 -13 0 -45 -76 -39 -93 1 -4 -11 -12 -26 -18 -24
-8 -28 -15 -24 -34 3 -21 0 -25 -18 -25 -19 0 -21 2 -9 16 10 13 10 17 0 24
-9 5 -3 11 21 19 28 9 36 19 48 59 18 57 18 68 3 65 -10 -2 -11 33 -3 57 2 3
2 8 2 11 -1 4 10 10 24 13 38 10 74 106 39 106 -12 0 -12 5 -5 26 10 26 9 26
-22 21 -18 -3 -63 -9 -99 -13 l-67 -6 -51 -137 c-98 -258 -116 -302 -120 -290
-2 6 8 41 22 78 47 122 46 125 -30 126 l-41 0 -23 -64 c-16 -46 -19 -66 -11
-69 7 -2 12 -8 12 -13 0 -4 -6 -6 -13 -3 -8 3 -18 -9 -26 -31 -7 -20 -15 -34
-18 -32 -5 5 65 228 109 344 12 34 20 64 17 67 -3 3 -34 1 -70 -4 -147 -22
-136 -22 -116 -6 17 13 17 15 2 24 -16 8 -16 11 -1 35 13 19 14 26 4 30 -25 9
39 25 143 37 57 7 109 16 114 20 6 5 21 10 35 13 14 2 28 5 32 6 3 0 8 -3 10
-7z m1088 -20 c19 -9 37 -26 39 -37 2 -11 8 -23 14 -27 17 -11 -28 -99 -47
-92 -9 3 -17 -3 -22 -18 l-7 -23 -9 24 c-7 19 -11 21 -22 11 -12 -9 -15 -6
-18 22 -4 41 -21 45 -92 23 -62 -20 -116 -59 -101 -74 6 -5 62 -30 126 -54
203 -79 249 -110 249 -167 0 -14 -7 -34 -15 -44 -8 -10 -12 -23 -9 -27 3 -5
-1 -9 -9 -9 -8 0 -20 -7 -28 -16 -11 -14 -6 -15 52 -9 35 3 74 8 87 11 12 2
22 0 22 -6 0 -5 -8 -10 -17 -10 -10 0 -58 -5 -107 -10 -73 -7 -112 -19 -223
-66 -73 -31 -131 -59 -128 -62 6 -6 -63 -36 -118 -52 -18 -6 -25 -5 -21 2 9
14 -21 4 -155 -53 -131 -56 -164 -58 -45 -3 43 21 74 39 69 41 -6 2 -82 -22
-169 -52 -87 -30 -164 -55 -170 -55 -18 1 35 29 77 40 20 6 59 20 85 32 26 12
50 21 55 20 4 -1 35 7 68 19 34 11 68 18 75 15 8 -3 14 -1 14 5 0 7 10 9 24 5
15 -4 45 2 74 13 27 11 82 31 123 44 41 14 103 39 139 55 l65 31 -57 0 c-32 1
-58 5 -58 10 0 5 -10 11 -23 15 -25 6 -349 -129 -435 -182 -55 -33 -111 -57
-118 -50 -6 7 204 111 378 187 163 72 294 137 302 150 11 17 -5 38 -42 54 -20
9 -86 35 -147 58 -153 59 -187 97 -150 168 34 66 234 160 340 161 28 0 65 -8
85 -18z m-1474 -19 c-4 -9 -1 -20 6 -24 10 -6 3 -36 -29 -126 -23 -65 -54
-154 -69 -198 -44 -129 -76 -206 -69 -165 4 19 16 61 26 93 26 74 23 101 -13
105 -16 2 -28 -1 -28 -7 0 -6 -7 -11 -16 -11 -27 0 -43 -26 -59 -94 -18 -78
-25 -96 -35 -96 -7 0 3 43 54 215 65 224 102 317 116 295 7 -11 14 -11 38 -1
17 7 35 10 40 7 5 -3 15 1 22 9 16 20 24 19 16 -2z m-2348 -156 c15 -12 16
-63 1 -73 -17 -10 -97 -6 -135 6 -29 10 -34 16 -34 44 0 18 3 36 7 40 10 9
145 -4 161 -17z m246 -20 c26 -19 18 -71 -11 -75 -13 -2 -23 -7 -23 -10 0 -4
10 -12 23 -17 27 -12 37 -72 13 -81 -9 -3 -48 -2 -88 3 l-73 8 -3 37 c-3 35
-2 37 30 40 l33 3 -32 18 c-28 15 -33 23 -33 52 l0 35 73 0 c44 0 80 -5 91
-13z m4680 -143 c46 -7 46 -7 46 -45 l0 -39 -72 0 c-108 0 -118 5 -118 51 l0
39 49 0 c26 0 69 -3 95 -6z m39 -133 c5 -5 7 -21 5 -37 -3 -26 -7 -29 -43 -32
-22 -2 -64 -1 -92 3 -52 6 -53 7 -53 39 0 18 3 36 8 40 9 10 164 -2 175 -13z
m-2443 -31 c0 -5 -8 -31 -18 -57 l-18 -48 340 -1 c188 -1 354 -6 369 -11 17
-5 -111 -8 -330 -8 -530 0 -726 -15 -1023 -82 -127 -28 -61 -26 187 6 325 42
671 66 689 48 3 -3 110 -4 238 -2 218 3 222 3 81 -5 -347 -20 -529 -40 -694
-75 -41 -8 -76 -13 -79 -10 -15 14 252 68 393 79 28 2 -17 2 -100 0 -166 -4
-416 -30 -661 -70 -89 -14 -177 -24 -195 -22 l-34 3 32 17 c73 41 314 86 568
108 216 19 206 15 224 83 8 31 19 57 23 57 4 0 8 -4 8 -10z m-2960 -72 c30
-11 133 -24 314 -38 76 -6 146 -14 155 -19 17 -9 274 -34 516 -50 367 -25 488
-35 477 -39 -12 -4 -151 4 -517 28 -193 13 -624 38 -777 45 l-128 5 -1 -42
c-1 -24 -4 -33 -6 -20 -3 14 -11 22 -21 20 -11 -2 -18 6 -22 26 -4 22 -12 32
-35 38 -44 12 -55 4 -55 -42 0 -22 -5 -40 -10 -40 -7 0 -10 28 -8 77 3 70 5
79 27 89 20 10 27 9 45 -8 11 -11 32 -24 46 -30z m6620 14 c0 -11 -41 -39
-128 -87 -70 -38 -217 -119 -328 -181 -110 -61 -229 -122 -263 -135 -35 -12
-66 -29 -69 -38 -8 -19 -42 -24 -42 -7 0 9 -82 17 -292 29 -596 36 -1264 77
-1288 81 -72 9 80 4 381 -14 742 -45 877 -51 1019 -45 80 3 165 8 189 11 31 4
41 2 36 -6 -10 -17 59 -2 123 26 65 29 219 120 229 137 18 28 228 142 243 132
10 -6 126 51 165 81 19 14 19 16 3 28 -24 18 -23 29 2 16 11 -6 20 -18 20 -28z
m-1475 -2 c22 -8 26 -15 23 -42 -3 -31 -5 -33 -48 -36 -25 -1 -65 1 -90 6 -36
6 -46 12 -48 30 -7 45 3 52 72 52 36 0 77 -4 91 -10z m253 -22 c20 -20 15 -66
-9 -73 -32 -10 -157 5 -170 21 -6 8 -8 25 -5 39 6 24 9 25 89 25 51 0 88 -5
95 -12z"/>
<path d="M3672 4675 c-12 -41 -22 -81 -22 -89 0 -27 -19 -27 -62 0 -24 16 -63
29 -88 32 -39 4 -49 0 -74 -24 -44 -44 -74 -114 -91 -210 -19 -109 -19 -185
-1 -229 8 -19 15 -52 14 -73 0 -25 11 -59 32 -98 23 -42 26 -52 10 -34 -19 22
-20 23 -11 3 12 -24 71 -68 141 -103 38 -20 67 -24 190 -30 160 -8 177 -13
326 -88 126 -64 174 -76 279 -70 70 5 93 11 140 38 128 73 234 277 237 458 3
142 -42 211 -154 232 -29 6 -86 8 -125 4 -58 -5 -73 -3 -73 7 0 12 -2 12 -9 0
-14 -22 -293 -9 -401 19 -91 24 -248 97 -264 123 -7 11 -4 42 12 108 12 51 21
93 19 95 -2 2 -13 -30 -25 -71z m-49 -342 l59 -16 -7 -56 c-3 -31 -9 -66 -12
-77 -4 -19 1 -23 36 -29 49 -8 70 -29 54 -54 -6 -10 -9 -29 -6 -44 3 -16 1
-27 -6 -27 -6 0 -8 -11 -5 -29 3 -16 2 -31 -3 -34 -12 -8 -93 13 -93 24 0 5
-6 6 -14 3 -7 -3 -40 7 -72 22 -32 15 -75 33 -94 39 -24 7 -36 17 -38 33 -2
15 2 22 14 22 16 0 16 1 -1 20 -14 16 -16 23 -7 32 7 7 12 25 12 41 0 31 -3
30 66 11 19 -5 21 -2 17 19 -3 16 2 32 14 44 11 11 17 29 15 46 -4 32 -5 32
71 10z m740 -169 c33 -6 37 -10 37 -35 0 -16 -4 -29 -9 -29 -15 0 1 -49 18
-53 9 -3 4 -5 -11 -6 -46 -2 -32 -17 25 -27 44 -8 52 -12 53 -31 1 -13 -5 -23
-12 -23 -12 0 -12 -4 -2 -21 11 -17 10 -22 -5 -34 -12 -9 -17 -20 -13 -33 13
-39 -3 -54 -48 -46 -22 3 -44 12 -48 18 -5 7 -8 7 -8 -3 0 -11 -13 -12 -65 -7
-92 9 -98 13 -92 52 4 24 2 34 -7 34 -8 0 -11 -10 -8 -30 4 -27 1 -30 -21 -30
-46 0 -80 18 -72 38 4 9 9 28 10 42 1 14 3 31 4 38 0 6 16 13 34 13 31 2 31 2
4 6 -20 3 -27 9 -25 21 5 24 91 24 96 0 2 -10 -5 -19 -18 -23 -18 -6 -19 -9
-7 -18 8 -7 17 -19 20 -27 2 -8 8 6 12 33 4 26 11 50 16 53 5 3 9 16 9 29 0
13 5 27 10 30 6 3 10 19 10 34 0 15 3 31 7 34 8 9 56 9 106 1z"/>
<path d="M207 2253 c-9 -8 -8 -113 1 -173 6 -39 11 -45 40 -54 18 -5 35 -6 38
-3 8 7 6 161 -2 193 -4 14 -18 27 -36 33 -37 13 -33 13 -41 4z"/>
<path d="M1630 1493 c-75 -11 -67 5 -97 -197 l-5 -39 62 34 c91 50 170 124
170 159 0 24 -5 29 -44 39 -25 6 -48 10 -53 10 -4 -1 -19 -3 -33 -6z"/>
<path d="M2469 1054 c-8 -3 -27 -34 -41 -70 l-26 -66 24 6 c52 13 191 67 223
87 31 19 33 22 17 31 -20 11 -171 20 -197 12z"/>
<path d="M2450 815 c-8 -2 -32 -6 -52 -10 l-37 -6 -32 -99 c-18 -55 -30 -103
-27 -105 8 -9 166 44 253 85 97 45 150 86 135 105 -19 23 -179 42 -240 30z"/>
</g>
</svg>
