<?xml version="1.0" standalone="no"?>
<!DOCTYPE svg PUBLIC "-//W3C//DTD SVG 20010904//EN"
 "http://www.w3.org/TR/2001/REC-SVG-20010904/DTD/svg10.dtd">
<svg version="1.0" xmlns="http://www.w3.org/2000/svg"
 width="720.000000pt" height="544.000000pt" viewBox="0 0 720.000000 544.000000"
 preserveAspectRatio="xMidYMid meet">
<metadata>
Created by potrace 1.16, written by Peter Selinger 2001-2019
</metadata>
<g transform="translate(0.000000,544.000000) scale(0.100000,-0.100000)"
fill="#000000" stroke="none">
<path d="M3713 5406 c-142 -27 -289 -86 -394 -157 -89 -60 -183 -148 -192
-180 -4 -16 -17 -31 -30 -35 -51 -15 -97 -87 -97 -151 0 -57 -33 -135 -67
-158 -78 -54 -148 -166 -163 -262 -11 -69 4 -189 32 -254 13 -31 41 -66 84
-104 68 -60 188 -135 216 -135 10 0 26 -19 41 -52 13 -29 43 -74 65 -99 l41
-46 -50 -7 c-84 -11 -172 -52 -235 -110 l-58 -52 -55 22 c-31 12 -110 32 -176
44 -66 12 -127 25 -135 29 -11 7 -14 23 -12 68 3 54 -3 77 -53 209 -64 165
-96 233 -133 282 -44 58 -43 34 2 -31 39 -58 116 -237 161 -375 16 -50 16 -55
-1 -105 -20 -56 -64 -121 -95 -138 -16 -8 -19 -6 -19 16 0 18 4 24 13 19 6 -3
0 4 -15 17 -32 29 -112 176 -98 181 17 5 -5 63 -23 60 -22 -4 -50 53 -43 84 7
28 10 28 -45 9 -70 -25 -181 -38 -191 -23 -17 28 -7 -12 12 -47 11 -20 20 -41
20 -48 0 -7 11 -36 25 -64 13 -28 27 -64 31 -80 15 -60 92 -211 110 -216 11
-3 1 -5 -21 -6 -127 -3 -178 45 -252 234 -87 222 -96 252 -90 323 5 67 27 112
27 56 0 -32 32 -101 46 -96 11 3 5 104 -8 120 -14 17 4 15 28 -3 12 -9 14 -14
5 -15 -11 0 -10 -5 3 -25 20 -30 20 -33 -1 -37 -14 -3 -13 -7 9 -32 21 -25 34
-30 86 -34 105 -7 219 45 275 125 31 45 34 83 11 123 -16 26 -16 29 18 86 44
75 47 83 58 164 13 89 0 131 -51 172 -28 22 -42 43 -49 72 -6 23 -21 64 -34
91 -13 28 -36 100 -51 160 -51 203 -63 245 -86 302 -37 93 -46 103 -88 103
-46 0 -79 -32 -87 -82 -7 -42 12 -140 36 -188 9 -19 20 -67 24 -106 3 -39 9
-86 13 -104 l6 -34 -28 22 c-45 36 -143 27 -168 -15 -4 -7 -25 -22 -45 -33
-20 -10 -70 -53 -111 -94 l-74 -75 5 -48 c7 -70 148 -353 206 -415 l44 -48
-17 -36 c-14 -29 -16 -54 -12 -113 5 -78 25 -148 95 -328 44 -112 68 -152 111
-182 16 -12 33 -37 40 -61 15 -50 78 -121 129 -146 23 -12 59 -19 97 -19 51 0
61 -3 71 -22 33 -67 73 -88 280 -147 174 -50 192 -53 233 -32 24 13 34 13 80
-1 42 -12 61 -13 97 -4 37 10 53 9 94 -6 43 -15 49 -21 55 -53 22 -117 105
-260 152 -260 16 0 22 -12 35 -70 l15 -70 -63 0 c-46 0 -63 4 -68 15 -7 20
-89 20 -106 0 -16 -19 -39 -19 -60 0 -10 9 -50 17 -113 21 l-97 7 0 31 c0 53
-11 74 -43 87 -64 27 -217 7 -217 -27 0 -26 -24 -25 -105 5 -104 37 -226 59
-400 70 -134 9 -433 -1 -455 -14 -6 -4 -13 7 -16 24 -6 30 -8 31 -65 31 -59 0
-59 0 -59 -30 0 -24 -5 -31 -27 -36 -80 -18 -144 -35 -197 -54 -74 -25 -76
-25 -76 3 0 34 -19 47 -66 47 -52 0 -74 -20 -74 -66 0 -19 -1 -37 -1 -41 -1
-5 9 -13 21 -20 13 -6 27 -19 32 -28 8 -14 11 -14 26 2 9 10 14 14 10 9 -17
-22 -6 -35 40 -50 79 -25 211 -53 332 -71 63 -9 138 -20 165 -24 38 -6 7 -9
-135 -15 -148 -6 -210 -5 -309 8 -68 9 -126 15 -128 12 -6 -6 92 -42 163 -60
142 -36 505 -54 537 -27 13 10 29 11 80 2 132 -23 465 29 602 94 39 18 81 45
95 60 l25 26 -22 40 c-24 45 -14 51 24 13 48 -48 14 -113 -85 -160 -106 -50
-246 -77 -574 -110 l-68 -6 0 -39 c0 -36 1 -38 38 -42 20 -2 0 -4 -46 -5 -57
-1 -81 1 -77 9 4 6 4 25 1 43 l-6 32 -183 12 c-281 18 -450 53 -522 107 -17
14 -62 34 -101 46 -38 12 -85 29 -105 39 l-35 18 -195 -77 c-106 -43 -262
-104 -346 -136 -89 -33 -161 -67 -174 -81 -21 -22 -21 -28 -14 -159 l7 -135
32 -22 c42 -30 46 -36 46 -89 0 -38 18 -261 96 -1210 l6 -76 -32 -13 c-18 -7
-46 -24 -61 -38 -31 -26 -35 -53 -23 -146 6 -43 9 -47 58 -70 55 -27 91 -31
536 -61 749 -50 1898 -129 2330 -160 690 -50 1301 -96 1555 -117 217 -18 359
-22 857 -25 l597 -4 4 43 4 43 1 -42 2 -43 90 0 90 0 128 74 c277 160 508 298
520 310 8 8 16 47 19 93 l6 79 -38 31 -37 31 21 258 c12 143 35 454 51 691
l28 433 30 29 c26 27 29 37 35 122 4 51 7 124 7 164 0 118 -9 122 -358 150
-130 10 -199 12 -210 6 -15 -9 -13 -11 8 -12 14 0 -4 -7 -40 -14 -36 -7 -85
-20 -110 -29 -25 -9 -53 -16 -62 -16 -10 0 -18 -4 -18 -10 0 -5 5 -10 10 -10
16 0 50 -62 49 -90 0 -16 -3 -19 -6 -10 -3 8 -9 17 -13 20 -3 3 -13 16 -22 28
l-16 24 -44 -41 c-96 -87 -280 -140 -636 -181 l-103 -12 3 -42 c3 -41 4 -41
48 -47 26 -3 -9 -6 -80 -6 -69 0 -113 2 -97 4 25 4 27 8 27 47 l0 43 -152 7
c-166 7 -437 37 -533 59 -125 29 -257 97 -298 154 -26 37 -29 47 -23 87 4 26
11 44 15 41 5 -2 19 3 32 13 36 28 61 35 71 20 6 -10 8 -10 8 -1 0 7 19 22 43
33 23 11 33 15 22 8 -10 -7 -32 -25 -48 -41 -24 -23 -28 -32 -22 -60 4 -17 21
-47 39 -66 24 -26 26 -31 9 -22 -41 21 -65 63 -60 104 6 42 -2 46 -28 17 -21
-23 -27 -77 -12 -105 12 -23 51 -59 81 -74 168 -83 417 -132 681 -134 321 -2
521 9 658 37 197 40 320 97 325 150 2 32 -18 34 -56 8 -15 -10 -34 -23 -42
-27 -13 -8 -13 -6 -1 8 12 15 7 16 -70 10 -95 -8 -104 -8 -249 -4 l-105 3 78
14 c72 12 114 22 297 75 36 10 74 25 85 33 19 14 19 14 -5 36 l-25 21 32 -17
c32 -18 33 -17 61 3 17 12 39 19 57 17 38 -4 61 13 69 53 7 29 5 33 -17 38
-33 9 -67 -10 -68 -38 -1 -17 -3 -15 -11 10 -9 26 -18 34 -44 39 -19 3 -34 10
-34 14 0 30 150 20 182 -12 19 -19 20 -19 16 -1 -7 40 -151 63 -208 33 -8 -4
-52 0 -100 11 -47 10 -143 25 -215 34 l-130 15 -43 48 c-71 77 -75 85 -63 130
6 22 11 84 10 138 -1 121 -22 177 -86 234 -65 57 -171 87 -212 61 -10 -7 -24
-3 -42 10 -37 26 -149 76 -216 95 -32 9 -56 23 -59 32 -29 93 -117 187 -226
242 -44 22 -87 40 -95 40 -8 0 -12 4 -9 9 3 5 -7 14 -23 19 -19 7 -37 25 -50
51 -27 51 -29 211 -4 316 9 39 15 89 14 113 -1 37 4 48 38 85 21 23 63 68 93
100 l54 59 42 -17 c31 -13 49 -30 72 -66 16 -27 28 -49 26 -49 -2 0 -21 16
-40 35 -20 19 -47 35 -59 35 -23 0 -76 -47 -95 -85 -14 -28 2 -61 32 -69 28
-7 35 -33 12 -42 -8 -3 -24 -1 -35 6 -31 16 -58 -3 -70 -48 -22 -81 -43 -253
-37 -295 10 -64 25 -81 60 -67 21 8 32 7 42 -1 21 -17 17 -27 -15 -34 -42 -9
-49 -35 -10 -35 38 0 148 69 191 120 55 64 118 210 90 210 -5 0 -12 -14 -16
-30 -18 -91 -116 -220 -167 -220 -18 0 -13 8 29 48 65 62 84 93 112 181 21 66
22 79 12 134 -7 34 -21 74 -32 89 -22 30 -12 45 19 29 27 -15 33 -35 41 -126
5 -67 7 -75 15 -50 21 73 -21 187 -121 325 -20 28 -24 43 -20 73 20 125 22
112 -35 230 -157 334 -371 516 -708 604 -120 31 -344 40 -458 19z m333 -251
c102 -25 267 -99 297 -133 16 -18 15 -20 -33 -61 -27 -23 -63 -62 -80 -86 -40
-58 -31 -58 11 0 17 24 54 63 81 86 l50 42 59 -63 c80 -84 151 -225 150 -302
0 -29 -5 -69 -11 -88 -5 -19 -10 -52 -10 -73 0 -21 -12 -64 -26 -95 -47 -103
-82 -225 -98 -342 -26 -183 -25 -181 -61 -216 -18 -18 -30 -35 -27 -39 4 -4
-3 -4 -15 -1 -17 5 -23 3 -23 -7 0 -9 -6 -18 -12 -20 -8 -3 -5 -6 6 -6 16 -1
17 -3 5 -18 -13 -15 -12 -15 9 -4 13 7 21 15 19 18 -8 7 56 62 65 57 5 -3 8
-14 8 -25 0 -11 7 -19 16 -19 43 0 -68 -77 -167 -115 -64 -25 -266 -62 -277
-50 -11 11 19 23 107 40 86 17 135 34 99 35 -9 0 -28 -4 -41 -9 -14 -5 -57
-11 -96 -12 -82 -4 -91 2 -91 64 0 20 -4 37 -9 37 -9 0 -7 -38 4 -92 3 -16 -6
-17 -81 -14 -46 2 -84 0 -84 -5 0 -22 -164 30 -226 72 -23 16 -44 26 -47 22
-3 -3 -9 6 -12 20 -9 33 -44 44 -42 13 1 -21 19 -46 33 -46 16 0 75 -43 66
-49 -6 -3 9 -7 33 -8 27 -1 59 -11 85 -28 40 -26 51 -27 167 -29 119 -1 151
-9 97 -22 -41 -10 -241 3 -319 21 -266 61 -446 208 -501 409 -42 152 -47 198
-41 366 9 240 42 345 158 499 52 69 82 97 162 152 55 36 118 72 140 79 23 8
54 19 68 26 96 47 290 56 435 19z m-2097 -264 c6 -10 12 -45 13 -77 l3 -58
-39 -8 c-22 -5 -46 -13 -53 -20 -16 -13 -16 -13 -32 41 -11 38 -8 110 6 134 2
4 24 7 48 7 33 0 47 -5 54 -19z m-140 -84 c6 -18 12 -50 14 -72 2 -37 -1 -41
-36 -59 -47 -22 -55 -17 -74 56 l-14 53 31 28 c41 37 66 35 79 -6z m1237 -45
c-3 -5 -20 -31 -39 -59 -33 -49 -65 -162 -52 -182 3 -5 0 -11 -7 -13 -27 -9
-7 -330 24 -393 6 -11 20 -30 31 -42 24 -27 18 -38 -15 -27 -23 7 -145 124
-129 124 4 0 16 -9 26 -20 10 -11 20 -19 21 -17 2 2 -3 25 -11 52 -19 62 -20
249 -1 347 26 135 66 212 119 227 18 5 33 10 35 10 2 1 1 -3 -2 -7z m-755 -83
c58 -41 69 -56 69 -95 0 -35 -13 -49 -50 -52 -26 -2 -97 34 -87 45 4 3 1 11
-6 17 -7 8 -11 33 -9 64 5 63 18 67 83 21z m2263 -932 c19 -14 17 -16 -28 -36
-26 -11 -68 -41 -92 -65 -42 -43 -45 -44 -80 -34 -35 9 -56 8 -129 -7 -17 -3
-7 4 25 18 120 52 250 130 250 149 0 9 22 -1 54 -25z m-1214 -42 l64 -45 -66
0 c-89 0 -118 -12 -118 -47 0 -24 -8 -32 -60 -56 -33 -16 -60 -34 -60 -40 0
-7 -12 3 -26 21 -30 38 -72 62 -109 62 -36 0 -31 14 18 53 77 63 159 95 243
96 44 1 58 -5 114 -44z m1458 -1 c41 -20 95 -55 120 -78 49 -45 102 -121 102
-145 -1 -12 -3 -11 -12 4 -32 58 -96 102 -125 86 -10 -5 -37 -14 -60 -20 -68
-18 -134 -70 -185 -145 -47 -69 -67 -83 -29 -22 22 35 20 41 -23 74 -26 20
-27 22 -7 22 15 0 21 7 22 23 1 12 2 38 2 57 l2 35 -69 3 c-38 2 -72 -1 -75
-5 -3 -4 -21 -19 -40 -32 l-33 -23 7 23 c24 76 136 163 222 172 90 9 107 6
181 -29z m-2049 -65 c132 -30 163 -48 199 -111 31 -54 58 -148 49 -171 -3 -9
-25 -11 -78 -6 -82 6 -94 4 -58 -10 l24 -10 -25 0 c-26 0 -118 19 -182 39 -40
12 -42 15 -37 90 7 110 -6 149 -60 186 l-36 25 60 -6 c33 -4 98 -16 144 -26z
m602 -72 c-15 -25 -18 -36 -9 -45 8 -8 5 -9 -12 -5 -16 4 -21 3 -16 -5 4 -7
19 -12 34 -13 15 0 21 -3 14 -6 -14 -5 -42 -55 -42 -75 0 -7 8 3 19 22 22 41
55 56 93 41 22 -8 26 -15 22 -36 -4 -24 -2 -25 38 -24 24 0 36 3 28 7 -8 4
-16 13 -17 20 -5 22 17 12 47 -22 48 -54 119 -79 225 -79 100 0 149 11 238 54
68 33 71 34 61 17 -4 -6 -3 -9 2 -6 5 3 38 9 74 13 36 4 95 17 133 30 l67 24
0 -24 c0 -13 -7 -54 -16 -92 -16 -69 -16 -272 0 -318 7 -18 7 -19 -4 -2 -8 12
-21 17 -38 15 -21 -2 -27 2 -33 22 -4 14 -7 18 -8 10 -1 -8 3 -31 9 -50 6 -22
6 -38 0 -44 -7 -7 -10 -6 -10 2 0 21 -20 13 -89 -32 -88 -58 -135 -81 -199
-96 -52 -12 -54 -12 -95 17 -58 42 -113 68 -174 84 -42 10 -53 17 -54 33 -1
17 -2 18 -6 4 -4 -15 -16 -18 -73 -18 -38 0 -79 -4 -92 -9 -21 -8 -29 -3 -62
35 -43 49 -50 51 -74 28 -15 -16 -17 -15 -31 17 -8 19 -17 68 -21 109 -3 41
-13 91 -22 110 l-16 35 -12 -30 c-26 -60 -24 -138 4 -225 14 -44 35 -99 47
-123 11 -23 22 -51 25 -62 2 -11 6 -33 10 -49 10 -47 -13 -21 -47 52 -71 155
-89 326 -48 458 31 101 65 172 105 221 42 51 54 56 25 10z m1775 -156 c116
-43 171 -68 180 -82 5 -9 2 -10 -12 -4 -28 12 -91 18 -119 11 -44 -11 -155
-125 -187 -191 -15 -33 -28 -52 -28 -42 0 10 -8 20 -17 24 -10 3 -55 23 -100
43 -45 21 -84 35 -87 32 -14 -13 -4 27 18 73 29 61 77 109 142 141 65 31 114
30 210 -5z m367 -169 c56 -30 88 -65 124 -135 22 -44 25 -60 21 -133 -1 -46
-8 -88 -14 -94 -7 -7 -24 12 -58 65 -42 67 -54 78 -111 105 -80 38 -187 42
-248 10 -47 -25 -48 -25 -38 3 6 15 5 29 -1 38 -8 11 -9 11 -5 -3 3 -9 -1 -22
-9 -28 -11 -10 -14 -10 -15 1 0 8 -7 -4 -15 -26 -9 -23 -11 -41 -5 -43 5 -2 0
-19 -12 -38 -12 -19 -28 -45 -34 -57 -12 -21 -13 -21 -13 8 0 40 23 125 49
177 27 55 107 142 122 132 8 -4 9 -3 5 4 -15 25 90 53 164 45 25 -3 67 -17 93
-31z m-2953 9 c0 -5 -8 -11 -17 -14 -13 -3 -9 -6 12 -11 17 -4 65 -23 108 -42
43 -19 101 -39 130 -44 29 -6 60 -13 71 -16 10 -3 16 -2 13 2 -3 5 6 10 19 10
30 2 23 -10 -16 -26 -37 -15 -101 -4 -270 47 -180 54 -259 99 -151 86 28 -3
56 -1 67 5 24 14 34 15 34 3z m2177 -243 c15 -7 44 -26 64 -44 20 -17 74 -46
120 -63 46 -17 94 -36 107 -41 l24 -10 -26 -31 c-15 -17 -31 -50 -37 -75 -10
-39 -15 -44 -48 -50 -20 -3 -53 -10 -73 -14 -38 -8 -38 -8 -38 25 0 44 -23 60
-83 58 -59 -1 -69 -10 -76 -64 l-6 -41 -91 -2 c-99 -1 -130 -15 -136 -60 -3
-19 -8 -21 -51 -16 l-49 5 53 35 c103 67 211 229 224 335 7 51 9 54 39 58 17
2 36 5 43 5 7 1 25 -3 40 -10z m779 -62 c50 -27 174 -145 174 -165 0 -6 -16
-1 -35 11 -33 19 -37 19 -54 4 -22 -20 -35 -20 -65 -1 -27 18 -60 9 -90 -24
-19 -20 -19 -20 -44 -1 -29 24 -66 25 -104 6 -26 -14 -28 -13 -33 7 -17 79 -9
125 30 164 35 35 37 36 104 31 48 -4 82 -13 117 -32z m-3418 -217 c65 -14 91
-31 74 -52 -42 -50 -401 -69 -494 -26 -88 40 44 87 249 88 67 1 144 -4 171
-10z m3373 -219 c9 -36 19 -75 23 -87 7 -21 4 -23 -28 -23 -30 0 -40 6 -56 33
-11 17 -27 54 -36 81 -19 57 -11 68 46 64 34 -3 35 -4 51 -68z m-4786 -16
c-11 -8 -45 -22 -75 -31 -30 -8 -106 -40 -167 -69 -118 -56 -136 -76 -86 -95
14 -5 166 -20 337 -32 181 -13 292 -24 266 -27 l-45 -5 50 -12 c60 -14 122
-19 405 -33 118 -6 255 -15 304 -21 49 -5 90 -8 92 -6 9 9 -137 28 -286 38
-204 13 -441 36 -380 37 54 1 251 -11 495 -32 99 -8 275 -20 390 -26 249 -14
497 -37 415 -39 -61 -1 -110 -21 -53 -21 17 0 155 -9 305 -20 457 -33 883 -61
1083 -70 105 -5 228 -12 274 -16 62 -5 82 -4 77 5 -4 6 -28 12 -54 12 -26 1
-39 3 -30 6 10 2 86 0 170 -6 84 -5 232 -15 328 -21 279 -17 320 -21 320 -31
0 -5 -21 -9 -47 -9 -25 0 -44 -2 -42 -4 4 -5 495 -36 559 -36 51 0 30 10 -41
20 -94 13 217 3 481 -16 277 -20 542 -23 596 -6 23 7 75 34 115 62 235 158
449 297 419 271 -19 -16 -31 -33 -27 -38 5 -4 14 -1 20 8 7 9 17 14 24 12 6
-2 14 0 17 6 4 6 13 8 21 5 20 -8 185 105 185 127 0 11 -56 31 -82 29 -47 -4
-78 0 -78 11 0 8 19 10 66 5 66 -7 114 -28 114 -50 0 -22 -626 -457 -698 -485
l-47 -19 -8 -108 c-4 -60 -9 -115 -12 -122 -2 -6 -20 -12 -39 -12 -27 0 -33 4
-31 18 2 9 6 61 9 115 l5 97 -117 0 c-64 0 -175 4 -247 10 -71 5 -204 14 -295
20 -91 5 -347 21 -570 35 -223 14 -479 30 -570 35 -91 6 -228 15 -305 20 -77
6 -345 24 -595 40 -697 46 -1603 108 -1820 125 -426 33 -914 61 -1210 70 -96
4 -184 7 -195 8 -17 2 -21 -5 -23 -43 -2 -25 -1 -68 3 -96 l6 -52 57 -6 c31
-3 91 -11 132 -17 41 -5 125 -16 185 -24 l110 -14 -135 5 c-196 7 -399 23
-443 35 -20 5 -43 20 -51 32 -15 24 -31 244 -18 263 12 18 60 40 233 104 90
34 184 69 209 80 55 23 72 24 45 4z m3083 -210 c30 -8 28 -25 -8 -59 -29 -28
-30 -28 -106 -19 -43 5 -79 14 -81 21 -2 6 9 23 24 37 24 22 37 26 88 26 33 0
70 -3 83 -6z m-1935 -422 c60 -27 81 -60 74 -115 -5 -36 -15 -51 -66 -98 -61
-56 -66 -69 -27 -69 36 0 83 -36 102 -79 28 -61 47 -53 78 32 15 39 46 116 69
170 36 87 43 98 62 93 12 -3 30 1 41 9 10 8 27 15 37 15 9 0 17 5 17 10 0 6 5
10 10 10 6 0 10 -9 10 -20 0 -11 4 -28 9 -38 5 -9 17 -71 28 -137 17 -112 20
-120 41 -123 15 -2 22 -9 18 -17 -3 -8 -1 -17 3 -20 5 -2 14 16 20 41 26 104
97 195 184 239 50 25 97 32 111 18 4 -4 14 -8 23 -8 24 0 56 -50 55 -85 -1
-48 -21 -100 -36 -94 -8 3 -16 -2 -20 -12 -6 -15 -9 -14 -26 6 -11 13 -20 34
-20 47 0 35 -33 29 -75 -12 -47 -47 -76 -107 -82 -169 -4 -43 -1 -56 18 -80
19 -24 27 -28 60 -23 20 3 64 23 97 46 59 40 88 53 64 29 -14 -14 -16 -48 -4
-48 5 0 18 10 30 23 16 17 27 57 47 176 32 186 37 201 64 194 13 -3 21 -1 21
7 0 7 8 9 20 5 11 -4 20 -2 20 4 0 21 16 11 26 -16 7 -20 6 -46 -3 -88 -7 -33
-12 -64 -13 -68 0 -10 19 4 139 105 50 43 97 75 104 72 7 -2 24 7 37 21 37 39
46 29 10 -11 -17 -20 -29 -39 -25 -42 3 -3 11 0 17 6 17 17 33 15 18 -3 -6 -8
-9 -19 -5 -25 9 -14 -13 -39 -90 -103 -33 -27 -79 -67 -103 -89 l-43 -39 97
-120 c53 -66 98 -118 101 -115 2 2 -1 13 -8 23 -13 22 -4 97 12 88 5 -4 9 -1
9 5 0 7 6 10 14 7 7 -3 18 -1 23 4 5 5 14 -5 22 -26 14 -39 41 -51 97 -42 44
7 96 44 92 65 -2 9 -46 38 -98 65 -111 56 -138 79 -146 122 -11 60 38 120 138
171 119 60 228 31 228 -61 0 -29 -28 -90 -37 -81 -3 3 -12 -2 -19 -12 -8 -10
-13 -12 -14 -4 0 6 -7 12 -15 12 -10 0 -15 10 -15 30 0 37 -18 39 -80 8 -67
-34 -61 -52 35 -104 44 -23 99 -60 123 -81 35 -32 42 -45 42 -75 0 -44 -33
-87 -94 -123 -76 -44 -219 -83 -201 -55 3 6 1 10 -5 10 -6 0 -29 9 -50 19 -22
11 -40 17 -40 14 0 -2 21 -31 46 -64 25 -32 43 -59 41 -59 -2 0 -28 18 -57 40
-56 42 -85 53 -57 22 27 -29 20 -35 -14 -12 -24 18 -39 21 -77 17 -42 -5 -44
-5 -19 5 15 7 27 15 27 19 0 5 -26 34 -58 66 -32 32 -76 79 -99 105 l-40 48
-18 -88 c-10 -48 -22 -91 -27 -97 -6 -6 -7 -3 -3 8 4 9 3 17 -3 17 -11 0 -29
-41 -35 -80 -3 -16 -5 -9 -6 16 -1 43 -24 77 -35 52 -3 -7 -4 17 -3 55 1 37 0
67 -3 67 -3 0 -30 -25 -60 -56 -62 -63 -120 -104 -149 -104 -35 0 -109 40
-140 75 -17 20 -36 56 -42 80 -10 41 -30 58 -43 37 -3 -5 2 -40 10 -78 17 -82
17 -94 3 -74 -8 11 -9 1 -6 -40 l5 -55 -20 44 c-13 29 -23 40 -28 32 -5 -9
-10 -3 -15 16 -7 25 -8 26 -15 8 -10 -25 -14 -15 -33 70 -15 67 -10 65 -113
44 -52 -10 -52 -10 -74 -69 -12 -33 -28 -60 -35 -60 -7 0 -19 -13 -27 -30 -15
-34 -28 -39 -28 -12 0 26 -11 34 -27 21 -17 -15 -16 -4 3 61 22 75 4 84 -56
25 -25 -24 -75 -63 -113 -88 -37 -24 -64 -46 -61 -50 4 -3 -20 -18 -52 -34
-33 -15 -63 -29 -68 -31 -5 -3 -6 0 -2 7 4 6 1 11 -8 11 -9 0 -18 -12 -22 -27
-9 -44 -12 -50 -13 -25 -1 12 -5 22 -10 22 -14 0 -21 -28 -21 -87 0 -31 -3
-53 -7 -49 -9 9 -10 13 -12 71 -1 47 -16 61 -24 23 l-4 -23 -8 23 c-8 24 -15
24 -72 6 -17 -5 -17 -5 1 10 20 16 13 41 -10 32 -8 -3 -14 -1 -14 5 0 5 7 12
15 15 21 9 19 27 -2 20 -24 -8 14 23 55 45 29 16 30 19 31 95 1 44 4 94 7 112
5 25 3 32 -10 32 -15 0 -21 17 -16 49 1 8 -4 17 -10 21 -8 5 -1 12 18 21 35
15 39 27 48 121 l7 68 -59 -24 c-54 -22 -95 -25 -63 -5 11 7 11 11 1 21 -10
10 -23 9 -65 -6 -84 -30 -86 -29 -15 8 61 33 105 69 65 53 -10 -3 -17 -2 -17
3 0 21 161 89 261 110 68 14 190 5 242 -18z m-1418 -217 c40 -457 75 -915 74
-970 l-1 -50 -9 60 c-26 176 -99 1157 -86 1145 3 -3 13 -86 22 -185z m3903 93
c6 -40 16 -111 23 -158 10 -81 19 -100 46 -100 7 0 10 -7 7 -15 -4 -8 -2 -15
4 -15 5 0 17 21 27 48 27 70 57 113 116 167 92 82 195 115 273 85 33 -12 58
-62 50 -97 -11 -45 -34 -84 -46 -77 -5 4 -14 1 -18 -6 -12 -19 -40 12 -40 44
0 72 -150 -25 -200 -129 -25 -51 -26 -122 -3 -147 24 -27 80 -23 127 10 57 39
57 52 2 52 -34 0 -46 4 -47 15 -5 70 -5 69 37 76 21 4 78 10 126 14 l87 7 -3
-34 c-2 -18 -13 -58 -24 -88 -11 -30 -33 -95 -48 -145 -19 -64 -29 -84 -34
-70 -8 23 -17 11 -36 -49 l-13 -41 0 48 c-1 26 -5 47 -11 47 -5 0 -10 -7 -10
-15 0 -8 -4 -15 -10 -15 -8 0 -6 40 5 77 7 21 -6 21 -51 -3 -55 -30 -77 -30
-133 -1 -58 30 -101 84 -108 136 -5 35 -9 41 -30 41 -19 0 -22 -4 -18 -22 21
-93 22 -169 1 -125 -3 6 -4 -15 -1 -47 6 -62 -2 -67 -20 -15 -5 17 -14 31 -20
31 -5 -1 -15 9 -22 21 -7 12 -12 16 -13 10 0 -7 -4 -13 -8 -13 -5 0 -15 32
-22 71 l-12 71 -62 -6 c-105 -12 -105 -12 -142 -90 -19 -39 -34 -63 -34 -54 0
28 -25 10 -49 -35 -20 -39 -21 -40 -17 -12 5 33 -11 70 -21 47 -2 -6 -9 -9
-14 -6 -6 3 -6 11 -1 17 5 7 16 31 25 55 13 33 14 44 5 47 -16 6 -20 55 -6 55
7 0 6 5 -1 14 -13 15 4 26 38 26 16 0 61 80 139 243 2 5 -11 6 -29 3 -19 -3
-68 -11 -110 -17 l-77 -11 -15 -62 c-9 -33 -33 -130 -54 -215 -28 -116 -39
-147 -43 -125 l-6 29 -27 -46 c-15 -25 -27 -51 -27 -57 0 -7 -4 -12 -9 -12 -4
0 -4 20 2 45 8 34 7 49 -1 57 -9 9 -12 9 -12 0 0 -7 -5 -12 -10 -12 -6 0 -8
17 -4 43 7 52 53 295 61 321 5 17 1 18 -38 12 -125 -20 -135 -20 -121 -4 7 10
9 19 4 22 -12 7 -8 64 4 76 5 5 45 14 89 20 44 6 91 16 105 22 31 13 264 20
293 8 l22 -8 -24 -9 c-22 -9 -23 -10 -5 -17 18 -7 17 -8 -5 -20 -24 -13 -24
-13 13 -18 34 -4 39 -1 58 34 16 28 26 37 40 32 18 -5 84 13 103 28 18 16 22
7 33 -64z m1076 -33 c15 -8 39 -15 52 -15 41 0 35 -18 -8 -25 -24 -4 -52 -14
-63 -21 -19 -14 -19 -14 5 -14 56 0 -6 -18 -84 -24 -160 -13 -174 -16 -179
-39 -3 -12 -9 -33 -13 -46 -7 -23 -6 -23 62 -21 38 2 82 2 98 1 28 -1 29 -2
10 -16 -19 -14 -18 -14 4 -15 33 0 27 -16 -10 -25 -28 -6 -30 -8 -13 -14 18
-7 17 -8 -5 -14 -14 -3 -61 -9 -105 -13 l-81 -7 -11 -36 c-7 -20 -14 -43 -17
-51 -5 -13 14 -15 148 -12 97 3 161 0 173 -7 15 -9 13 -10 -15 -11 -20 0 -31
-4 -27 -10 3 -5 41 -11 83 -11 82 -2 77 -4 -30 -14 -65 -6 -96 -25 -41 -25 68
0 4 -9 -142 -21 -88 -7 -171 -17 -185 -22 -14 -6 -31 -9 -37 -8 -7 1 -13 -6
-13 -16 -1 -17 -1 -17 -14 0 -7 9 -26 17 -41 17 -19 0 -26 4 -22 14 3 8 3 17
-1 21 -4 3 -7 19 -8 35 -1 22 3 30 19 32 27 4 65 107 45 123 -7 5 -12 17 -12
25 1 8 2 23 3 32 0 9 10 20 22 23 20 7 30 24 43 77 5 22 2 27 -15 30 -15 2
-23 11 -25 31 -1 15 2 27 7 27 5 0 9 8 9 18 0 33 64 51 184 51 60 1 112 3 114
6 11 11 109 4 136 -10z m-2625 -570 c33 -10 69 -31 88 -50 33 -33 34 -35 18
-64 -14 -28 -82 -74 -160 -110 l-30 -14 35 -8 c88 -22 111 -31 140 -55 23 -20
30 -34 30 -62 0 -31 -8 -44 -53 -87 -60 -56 -109 -83 -241 -131 -67 -25 -80
-33 -51 -29 52 7 39 1 -68 -30 -95 -27 -110 -30 -87 -15 12 8 12 10 -5 9 -11
0 -38 -6 -59 -12 -31 -10 -42 -19 -52 -47 l-12 -35 -1 33 c-1 29 -3 32 -21 22
-11 -6 -22 -25 -25 -48 -17 -103 -25 -117 -20 -39 4 70 3 78 -12 75 -9 -2 -20
-14 -24 -28 l-6 -25 -8 27 c-7 29 -5 29 -80 12 -19 -5 -19 -5 -1 10 11 9 39
15 70 15 57 0 48 -2 211 47 66 19 144 42 173 50 61 16 214 75 209 80 -2 2 -30
-5 -62 -17 -32 -11 -64 -18 -72 -15 -8 3 -11 1 -8 -4 8 -13 -18 -13 -30 -1 -6
5 -21 11 -35 13 -14 1 -28 8 -32 13 -5 6 -8 6 -8 -2 0 -6 -9 -10 -20 -8 -11 2
-50 -5 -87 -16 -70 -20 -107 -25 -87 -11 10 7 34 65 34 83 0 12 -99 7 -109 -6
-16 -20 -22 -68 -10 -75 20 -13 1 -28 -53 -40 -63 -15 -94 -29 -63 -30 14 0
16 -3 8 -11 -6 -6 -9 -17 -7 -23 3 -8 -7 -11 -33 -8 -33 4 -35 6 -15 13 24 9
30 29 10 29 -22 1 23 22 70 34 l45 12 24 89 c12 50 26 101 29 114 6 20 4 23
-11 18 -12 -5 -16 -3 -12 7 3 8 1 17 -6 19 -9 3 -8 8 2 20 11 14 11 17 1 17
-20 0 -2 14 32 26 27 9 35 21 60 88 l28 79 -37 -7 c-95 -16 -118 -17 -104 -8
17 12 6 32 -17 32 -11 0 -5 7 16 20 39 24 41 32 5 24 -23 -5 -26 -4 -16 7 7 7
59 23 115 35 90 20 125 23 273 20 126 -2 184 -8 224 -21z m793 -4 c2 -6 33 -6
78 -1 41 5 111 9 155 8 l80 0 -50 -13 c-48 -13 -49 -13 -15 -15 l35 -2 -35
-14 c-34 -13 -34 -14 -5 -10 101 15 393 27 415 18 25 -11 25 -11 2 -11 -32 -1
-17 -21 16 -22 20 -1 14 -5 -28 -19 -45 -15 -50 -19 -26 -19 19 -1 26 -5 20
-10 -5 -5 -64 -15 -132 -22 l-124 -13 -19 -37 c-10 -21 -19 -41 -19 -45 0 -3
37 -3 83 0 48 5 92 3 107 -3 25 -10 25 -10 2 -10 -29 -1 -19 -21 11 -22 20 -1
21 -2 2 -6 -11 -3 -31 -10 -45 -16 l-25 -10 25 -7 c18 -4 1 -9 -55 -14 -150
-13 -151 -13 -164 -54 -7 -20 -15 -42 -17 -49 -4 -8 45 -10 193 -8 109 2 181
1 161 -1 -70 -9 -31 -32 61 -36 25 -1 18 -3 -24 -8 -33 -4 -80 -10 -104 -15
-32 -6 -42 -5 -37 3 4 7 16 12 27 12 11 0 17 5 14 10 -3 6 -15 10 -26 10 -13
0 -18 4 -13 11 5 9 -21 10 -102 5 -60 -4 -124 -10 -143 -13 -33 -6 -34 -5 -27
23 4 16 8 33 9 39 1 5 -13 11 -30 13 -18 2 -33 7 -33 13 0 5 -4 9 -8 9 -9 0
-39 -80 -34 -93 1 -4 -11 -12 -26 -18 -24 -8 -28 -15 -24 -34 4 -21 1 -25 -19
-24 -13 0 -18 3 -11 6 6 2 12 11 12 18 0 7 -6 15 -12 18 -7 2 3 9 22 15 31 11
38 19 50 60 17 59 18 68 3 65 -10 -2 -11 33 -3 57 2 3 2 8 2 11 -1 4 10 10 24
13 38 10 74 106 39 106 -12 0 -12 5 -5 26 10 26 9 26 -22 21 -18 -3 -63 -9
-99 -13 l-67 -6 -63 -167 c-79 -211 -108 -280 -109 -260 0 8 13 51 29 95 33
90 29 113 -17 109 -16 -1 -34 -5 -40 -8 -5 -4 -12 -2 -14 4 -2 6 -14 -19 -27
-56 -15 -43 -20 -69 -14 -74 21 -13 23 -50 5 -98 l-18 -48 335 -2 c185 0 351
-5 369 -10 20 -5 -110 -8 -330 -8 -471 0 -642 -11 -883 -55 -221 -40 -260 -64
-60 -35 345 49 813 86 799 63 -3 -4 102 -5 233 -3 l238 4 -220 -13 c-306 -19
-458 -36 -624 -71 -41 -8 -76 -13 -79 -10 -14 14 257 69 388 78 25 2 6 4 -42
5 -110 2 -423 -29 -680 -69 -109 -17 -212 -29 -230 -27 l-33 3 32 17 c38 22
200 63 303 78 139 20 325 40 380 41 77 1 91 9 106 60 25 80 11 126 -15 53 -7
-19 -15 -33 -18 -31 -5 5 63 221 108 344 13 35 21 65 18 68 -3 2 -34 0 -70 -5
-147 -22 -136 -22 -116 -6 17 13 17 15 2 24 -16 8 -16 11 -1 35 13 19 14 26 4
30 -25 9 39 25 143 37 57 7 109 16 114 20 6 5 21 10 35 13 14 2 28 5 32 6 3 0
8 -3 10 -8z m1088 -19 c19 -9 37 -26 39 -37 2 -11 8 -23 14 -27 17 -11 -28
-99 -47 -92 -9 3 -17 -3 -22 -18 l-7 -23 -9 24 c-7 19 -11 21 -22 11 -12 -9
-15 -6 -18 22 -4 41 -21 45 -92 23 -63 -20 -116 -59 -101 -74 6 -5 63 -30 127
-55 204 -79 248 -108 248 -166 0 -14 -7 -34 -15 -44 -8 -10 -12 -23 -9 -27 3
-5 -1 -9 -9 -9 -8 0 -20 -7 -28 -16 -11 -14 -6 -15 52 -9 35 3 74 8 87 11 12
2 22 0 22 -6 0 -5 -8 -10 -17 -10 -10 0 -58 -5 -107 -10 -73 -7 -112 -19 -223
-66 -73 -31 -131 -59 -128 -62 6 -6 -63 -36 -118 -52 -18 -6 -25 -5 -21 2 9
14 -21 4 -155 -53 -130 -56 -165 -58 -47 -3 43 19 75 38 72 41 -3 3 -80 -21
-171 -52 -91 -32 -168 -55 -170 -53 -14 14 345 135 364 123 6 -3 11 -1 11 5 0
8 9 10 24 6 15 -4 45 2 74 13 27 11 82 31 123 44 41 14 103 39 139 55 l65 31
-47 0 c-26 1 -49 5 -52 10 -3 5 -18 11 -33 14 -21 4 -78 -16 -218 -76 -104
-45 -208 -93 -230 -107 -44 -29 -103 -55 -110 -48 -2 2 24 18 58 36 34 18 73
38 87 46 14 8 99 47 190 87 205 89 337 156 343 174 9 22 -25 44 -144 89 -173
65 -209 89 -209 139 0 60 93 134 225 179 93 32 165 35 215 10z m-1477 -18 c-3
-9 0 -20 8 -24 11 -7 6 -31 -28 -127 -23 -65 -54 -154 -69 -198 -46 -135 -75
-205 -68 -164 3 19 16 67 29 105 16 49 20 73 13 82 -12 14 -58 16 -58 2 0 -5
-7 -10 -16 -10 -27 0 -44 -27 -60 -99 -9 -38 -22 -78 -30 -88 -13 -16 -14 -15
-8 12 4 17 20 73 36 125 15 52 42 140 59 195 36 120 68 193 77 178 8 -12 102
6 102 19 0 5 4 8 10 8 5 0 7 -7 3 -16z m-2345 -157 c15 -12 16 -63 1 -73 -17
-10 -97 -6 -135 6 -29 10 -34 16 -34 44 0 18 3 36 7 40 10 9 145 -4 161 -17z
m246 -20 c26 -19 18 -71 -11 -75 -13 -2 -23 -7 -23 -10 0 -4 10 -12 23 -17 27
-12 37 -72 13 -81 -9 -3 -48 -2 -88 3 l-73 8 -3 37 c-3 35 -2 37 30 40 l33 3
-32 18 c-28 15 -33 23 -33 52 l0 35 73 0 c44 0 80 -5 91 -13z m4680 -143 c46
-7 46 -7 46 -45 l0 -39 -72 0 c-108 0 -118 5 -118 51 l0 39 49 0 c26 0 69 -3
95 -6z m39 -133 c5 -5 7 -21 5 -37 -3 -26 -7 -29 -43 -32 -22 -2 -64 -1 -92 3
-52 6 -53 7 -53 39 0 18 3 36 8 40 9 10 164 -2 175 -13z m-5379 -110 c23 -5
109 -15 191 -21 83 -7 185 -18 228 -26 99 -19 287 -36 782 -71 138 -9 242 -19
232 -21 -10 -2 -96 1 -190 7 -419 28 -963 60 -1089 65 l-138 6 -1 -43 c-1 -23
-4 -32 -6 -21 -2 12 -12 24 -23 27 -10 2 -20 15 -22 28 -2 15 -12 25 -33 31
-44 12 -55 4 -55 -42 0 -22 -5 -40 -10 -40 -7 0 -10 28 -8 77 3 70 5 79 27 89
20 11 27 9 49 -11 14 -13 44 -28 66 -34z m6596 21 c0 -11 -41 -39 -128 -87
-70 -38 -217 -119 -327 -180 -110 -62 -227 -122 -260 -134 -66 -25 -88 -39
-79 -52 3 -5 -4 -9 -15 -9 -12 0 -21 6 -21 13 0 10 -67 17 -292 30 -621 37
-1264 77 -1288 81 -71 9 79 4 381 -14 829 -50 861 -51 1039 -43 96 4 196 7
221 5 32 -2 63 4 103 22 69 30 222 122 233 139 18 28 228 142 243 132 10 -6
126 51 165 81 19 14 19 16 3 28 -24 18 -23 29 2 16 11 -6 20 -18 20 -28z
m-1475 -2 c22 -8 26 -15 23 -42 -3 -31 -5 -33 -48 -36 -25 -1 -65 1 -90 6 -36
6 -46 12 -48 30 -7 45 3 52 72 52 36 0 77 -4 91 -10z m253 -22 c20 -20 15 -66
-9 -73 -32 -10 -157 5 -170 21 -6 8 -8 25 -5 39 6 24 9 25 89 25 51 0 88 -5
95 -12z"/>
<path d="M3530 5063 c-69 -83 -125 -240 -149 -417 -6 -44 -13 -81 -15 -84 -2
-2 -17 3 -34 12 -51 26 -115 38 -144 27 -79 -30 -116 -228 -81 -431 5 -32 7
-33 12 -11 5 20 8 15 17 -27 6 -28 7 -49 3 -47 -4 3 -2 -13 4 -36 5 -22 13
-36 16 -30 7 11 33 -49 36 -81 1 -10 4 -19 6 -20 2 -2 13 -9 24 -15 101 -63
164 -77 283 -62 126 16 195 7 337 -42 106 -36 131 -41 215 -42 201 -1 288 72
362 304 18 59 23 96 23 184 0 102 -2 114 -30 169 -45 89 -69 99 -222 92 -108
-4 -122 -3 -126 12 -4 15 -5 15 -6 -1 -2 -25 -37 -36 -172 -48 -151 -15 -281
-2 -404 41 -49 16 -92 33 -96 37 -11 12 8 167 32 253 23 87 87 224 125 269 14
17 23 31 21 31 -3 0 -20 -17 -37 -37z m-132 -735 c29 -9 32 -13 32 -51 1 -112
1 -112 45 -115 48 -4 52 -9 49 -64 -1 -24 -2 -59 -3 -79 -1 -34 -3 -36 -28
-32 -16 3 -35 7 -43 10 -8 3 -31 6 -50 7 -59 4 -95 27 -98 64 -2 17 -7 32 -11
32 -4 0 -6 -14 -3 -30 4 -30 3 -31 -24 -24 -44 10 -48 18 -48 100 l-1 76 43
-5 c47 -5 42 -13 42 84 -1 53 7 55 98 27z m762 -98 c0 -21 -5 -30 -17 -31 -16
-1 -16 -2 0 -6 15 -4 18 -13 16 -46 -3 -41 -2 -42 26 -39 15 2 39 1 52 -3 22
-5 23 -9 17 -58 -3 -28 -6 -64 -5 -78 l1 -26 -107 -7 c-60 -3 -117 -4 -128 -2
-11 3 -23 5 -27 5 -5 1 -8 15 -8 31 0 17 -4 30 -8 30 -4 0 -8 -12 -7 -27 0
-26 -2 -28 -45 -28 l-45 0 3 80 c1 43 7 84 12 89 6 6 26 6 55 -1 24 -5 47 -8
50 -5 3 3 5 23 5 44 0 23 5 38 12 38 9 0 9 3 0 12 -7 7 -12 22 -12 35 0 22 3
23 80 23 l80 0 0 -30z"/>
<path d="M207 2253 c-9 -8 -8 -101 1 -168 6 -45 10 -50 40 -59 18 -5 35 -6 38
-3 8 7 6 161 -2 193 -4 14 -18 27 -36 33 -37 13 -33 13 -41 4z"/>
<path d="M1630 1493 c-75 -11 -67 5 -97 -197 l-5 -38 63 35 c96 54 169 122
169 156 0 25 -5 30 -44 40 -25 6 -48 10 -53 10 -4 -1 -19 -3 -33 -6z"/>
<path d="M2469 1054 c-8 -3 -27 -34 -41 -70 l-26 -66 24 6 c52 13 191 67 223
87 31 19 33 22 17 31 -20 11 -171 20 -197 12z"/>
<path d="M2450 815 c-8 -2 -32 -6 -52 -10 l-37 -6 -32 -99 c-18 -55 -30 -103
-27 -105 8 -9 166 44 253 85 97 45 150 86 135 105 -19 23 -179 42 -240 30z"/>
</g>
</svg>
