<?xml version="1.0" standalone="no"?>
<!DOCTYPE svg PUBLIC "-//W3C//DTD SVG 20010904//EN"
 "http://www.w3.org/TR/2001/REC-SVG-20010904/DTD/svg10.dtd">
<svg version="1.0" xmlns="http://www.w3.org/2000/svg"
 width="720.000000pt" height="544.000000pt" viewBox="0 0 720.000000 544.000000"
 preserveAspectRatio="xMidYMid meet">
<metadata>
Created by potrace 1.16, written by Peter Selinger 2001-2019
</metadata>
<g transform="translate(0.000000,544.000000) scale(0.100000,-0.100000)"
fill="#000000" stroke="none">
<path d="M3360 5376 c-270 -56 -478 -179 -628 -369 -70 -89 -124 -185 -117
-208 4 -11 11 -17 16 -14 15 10 49 -15 49 -35 0 -19 -27 -40 -50 -40 -6 0 -14
9 -18 20 -7 19 -9 19 -29 5 -12 -9 -27 -32 -33 -53 -13 -47 -13 -112 0 -112
15 0 12 -117 -4 -148 -8 -15 -23 -35 -34 -45 -11 -10 -30 -45 -42 -78 -19 -50
-22 -73 -18 -151 9 -173 76 -285 208 -350 71 -35 178 -68 218 -68 10 0 39 -19
64 -43 l45 -44 -52 -28 -52 -28 -65 27 c-78 31 -219 66 -266 66 -18 0 -42 5
-54 11 -18 9 -19 17 -14 62 7 56 -20 149 -98 340 -47 116 -53 126 -88 163
l-30 32 26 51 c31 61 54 145 50 186 -1 17 -3 41 -3 54 -1 15 -21 43 -55 75
-36 35 -56 63 -61 86 -4 19 -18 55 -30 80 -12 25 -28 70 -34 100 -6 30 -24 98
-40 150 -16 52 -40 131 -52 174 -35 122 -81 161 -143 121 -51 -34 -58 -123
-16 -225 10 -25 26 -85 35 -134 9 -49 21 -100 26 -114 13 -34 8 -36 -31 -7
-57 42 -141 31 -160 -21 -5 -13 -15 -26 -22 -28 -7 -2 -32 -9 -55 -15 -37 -10
-44 -17 -54 -51 -8 -28 -20 -42 -41 -51 -37 -15 -68 -55 -68 -88 0 -36 168
-380 209 -428 26 -30 31 -43 25 -63 -4 -14 -7 -56 -8 -95 0 -83 44 -223 123
-389 38 -82 56 -109 85 -128 22 -14 45 -42 60 -73 50 -106 124 -158 226 -159
57 -1 58 -1 77 -41 24 -51 74 -76 278 -140 145 -46 157 -48 193 -36 31 11 47
11 76 1 20 -6 65 -10 99 -9 34 2 71 -2 82 -8 11 -6 37 -14 57 -18 35 -7 37
-10 63 -83 49 -141 119 -239 190 -271 32 -14 45 -26 45 -40 0 -19 -6 -21 -74
-21 -56 0 -75 4 -80 15 -6 17 -106 22 -106 6 0 -18 -33 -21 -58 -5 -16 11 -57
18 -123 21 l-98 6 -3 50 c-2 40 -8 53 -28 66 -20 13 -23 13 -14 1 9 -12 7 -26
-12 -64 -13 -28 -30 -53 -37 -58 -9 -6 -9 -8 1 -8 14 0 15 -9 2 -30 -7 -12
-13 -12 -33 -1 -30 16 -66 0 -111 -49 -66 -72 -234 -123 -523 -160 -85 -11
-160 -20 -167 -20 -13 0 -36 -41 -36 -65 0 -9 14 -15 38 -18 20 -2 0 -4 -45
-5 l-83 -2 0 39 0 39 -62 6 c-35 3 -126 11 -203 17 -261 22 -461 77 -487 135
-6 13 -15 21 -19 18 -20 -12 16 58 38 76 35 28 44 25 27 -7 -7 -16 -14 -37
-14 -49 0 -83 283 -157 576 -152 131 3 147 5 150 21 2 14 -7 17 -54 18 -32 1
8 6 87 10 79 4 155 10 168 14 14 3 22 2 19 -3 -3 -5 -35 -13 -71 -17 -49 -5
-65 -10 -65 -22 0 -25 270 -12 422 21 172 37 288 92 288 138 0 10 -5 16 -10
13 -6 -4 -8 -11 -4 -16 3 -5 2 -9 -3 -8 -4 1 -26 -6 -47 -15 -33 -15 -127 -37
-306 -71 -25 -5 -25 -5 3 10 35 20 35 26 -1 16 -16 -5 -79 -12 -140 -16 -62
-4 -115 -11 -118 -16 -3 -5 -17 -9 -32 -9 -21 0 -24 2 -12 10 12 8 11 10 -6
10 -29 0 -39 27 -13 35 12 4 31 0 46 -10 14 -9 23 -13 19 -7 -3 5 15 12 42 15
98 12 223 37 254 51 18 8 70 26 116 40 90 28 151 64 145 84 -3 7 1 10 11 6 9
-3 16 -3 16 0 0 4 -24 18 -52 31 -58 26 -154 47 -298 67 -117 15 -513 15 -552
0 -27 -11 -28 -10 -28 18 l0 30 -65 0 c-65 0 -65 0 -65 -29 0 -27 -3 -29 -101
-55 -55 -15 -120 -36 -144 -46 -47 -20 -55 -18 -55 15 0 31 -19 45 -59 45 -72
0 -81 -7 -81 -61 l0 -48 -67 1 c-93 1 -141 -20 -145 -62 -3 -35 40 -15 -448
-200 -200 -76 -242 -95 -264 -119 -17 -18 -18 -33 -11 -152 7 -117 10 -135 29
-154 12 -12 28 -24 35 -26 9 -3 17 -55 27 -174 7 -94 31 -390 54 -660 22 -269
40 -497 40 -506 0 -9 -17 -24 -39 -34 -22 -10 -50 -28 -62 -41 -19 -21 -21
-31 -17 -96 5 -62 9 -75 32 -95 48 -41 80 -45 786 -93 1085 -73 1962 -134
2245 -155 182 -13 609 -45 950 -70 341 -24 670 -49 731 -55 60 -5 354 -10 652
-10 l542 0 0 58 0 58 -377 23 c-208 12 -551 33 -763 47 -212 13 -398 24 -414
24 -16 0 -27 3 -23 6 5 5 304 -9 722 -36 505 -32 622 -34 865 -15 42 3 49 2
30 -5 -19 -7 -13 -8 25 -4 27 3 78 19 113 35 91 41 213 119 205 132 -3 5 -1 7
5 3 5 -3 12 -3 14 2 3 7 76 51 205 123 18 10 33 13 35 8 3 -10 126 48 163 77
19 14 19 16 3 28 -24 18 -23 29 1 17 40 -22 32 -39 -32 -75 -34 -18 -185 -102
-335 -185 -150 -82 -300 -160 -332 -172 -33 -12 -57 -25 -54 -30 3 -5 0 -9 -5
-9 -7 0 -11 -23 -11 -55 l0 -55 76 0 76 0 277 161 c152 89 299 177 327 194 56
36 64 54 64 151 0 48 -3 55 -35 82 l-35 29 30 394 c16 217 38 529 49 693 l19
299 28 22 c25 20 29 31 35 101 4 44 8 120 8 170 1 142 1 142 -374 169 -121 9
-244 18 -272 21 l-53 5 0 54 c0 76 -12 101 -56 115 -44 15 -134 16 -161 2 -12
-6 -54 -2 -133 14 -63 13 -171 30 -239 37 l-123 14 -49 54 -49 54 7 70 c9 89
9 111 -4 213 -8 64 -17 92 -39 124 -51 74 -141 114 -228 104 -46 -6 -54 -4
-72 15 -20 23 -154 89 -239 119 -47 16 -50 19 -57 60 -21 121 -185 260 -340
289 -104 19 -217 -15 -278 -83 -31 -34 -32 -34 -135 -38 -77 -2 -108 -8 -122
-20 -19 -17 -123 -35 -123 -21 0 4 27 26 61 47 70 45 198 162 218 199 12 22
19 25 70 24 52 -1 64 3 154 56 172 103 235 215 225 397 -9 145 -59 233 -184
326 -82 61 -114 106 -95 136 10 16 6 30 -20 79 -19 35 -44 66 -59 74 -15 8
-33 28 -40 44 -14 34 -117 128 -205 188 -77 52 -179 98 -275 125 -96 27 -369
35 -470 14z m303 -262 c161 -39 303 -128 383 -240 48 -67 48 -68 45 -139 -1
-41 4 -88 11 -111 11 -32 12 -50 1 -99 -7 -33 -13 -109 -14 -170 l-1 -110 -13
65 c-26 131 -74 222 -139 261 -60 36 -136 22 -313 -57 -9 -4 -13 14 -16 63
l-3 68 -2 -72 -2 -72 -75 -35 c-178 -82 -346 -122 -483 -113 -46 3 -88 9 -93
14 -5 5 -14 29 -19 54 l-9 44 4 -48 5 -48 -55 6 c-70 9 -109 -6 -126 -48 -17
-40 -14 -129 6 -206 19 -75 74 -219 85 -226 5 -3 2 11 -6 31 -24 58 -11 49 20
-13 21 -43 23 -53 10 -42 -16 12 -17 12 -9 -1 25 -44 68 -101 72 -96 3 3 -5
20 -17 38 l-22 33 30 -35 c20 -23 27 -37 19 -42 -7 -4 -2 -14 14 -28 51 -44
82 -54 159 -55 68 0 85 5 175 45 l100 45 185 2 c200 3 255 11 340 52 117 56
167 145 179 316 6 90 7 95 14 55 10 -59 34 -169 54 -247 17 -70 30 -77 72 -40
l26 22 -25 -30 c-39 -47 -101 -105 -155 -146 -60 -45 -235 -139 -258 -139 -9
0 -17 -4 -17 -8 0 -12 -158 -59 -245 -73 -108 -18 -286 -6 -382 26 -148 50
-227 114 -311 255 -70 117 -113 229 -143 372 -44 216 2 426 135 613 50 69 152
169 165 161 5 -3 11 1 15 9 17 45 221 140 333 155 75 10 222 2 296 -16z
m-1759 -267 c10 -21 20 -55 23 -76 l5 -37 -58 -22 c-32 -12 -60 -19 -62 -17
-8 8 -22 82 -22 122 0 79 79 100 114 30z m-135 -94 c6 -31 11 -62 11 -69 0
-12 -67 -54 -85 -54 -14 0 -45 91 -39 115 8 31 49 65 79 65 19 0 24 -8 34 -57z
m2744 -54 c55 -39 82 -67 33 -36 -12 9 -41 19 -62 23 -36 7 -37 8 -14 15 23 6
22 7 -8 8 -45 1 -82 -37 -111 -114 -46 -121 -27 -352 38 -471 28 -52 37 -55
104 -39 22 6 27 4 27 -10 0 -16 1 -16 26 0 36 23 42 12 7 -13 -19 -13 -38 -19
-58 -15 -28 4 -29 3 -11 -11 18 -14 18 -16 2 -22 -27 -10 -82 3 -114 26 -36
27 -76 103 -98 190 -20 74 -26 316 -9 328 6 4 19 27 30 52 28 67 54 101 89
116 48 21 67 17 129 -27z m-2285 -23 c61 -39 95 -81 88 -108 -13 -51 -20 -53
-85 -18 l-61 33 0 58 c0 34 4 59 10 59 6 0 27 -11 48 -24z m2404 -91 c42 -63
62 -150 55 -247 -10 -145 -55 -229 -114 -213 -25 7 -26 9 -8 14 37 11 52 26
75 71 27 53 38 173 21 235 -16 59 -88 165 -112 165 -12 0 -17 5 -14 11 4 5 21
9 38 7 23 -2 38 -13 59 -43z m-2006 -137 c-38 -51 -49 -110 -42 -219 11 -178
85 -354 178 -424 34 -26 37 -30 19 -33 -24 -4 -80 21 -109 48 -11 10 -23 16
-28 12 -4 -4 -4 -2 -1 5 4 6 2 18 -5 25 -38 41 -84 167 -100 274 -9 60 -15 81
-25 77 -8 -3 -13 3 -13 16 0 12 6 21 14 21 9 0 15 14 18 40 3 35 1 39 -14 34
-13 -4 -16 -1 -12 11 4 9 13 14 20 11 8 -3 13 -2 12 2 -1 4 4 21 11 37 6 17
14 36 16 42 4 13 63 53 78 53 4 0 -3 -15 -17 -32z m1157 -183 c4 -22 11 -53
14 -68 4 -21 10 -27 21 -22 9 3 36 9 61 12 l44 6 -6 -31 c-4 -19 -2 -32 3 -32
15 0 12 -47 -2 -53 -8 -3 -6 -6 5 -6 9 -1 17 -3 17 -5 0 -2 2 -11 5 -19 8 -19
-84 -55 -95 -37 -5 8 -9 6 -12 -8 -4 -14 -23 -23 -71 -36 -37 -9 -70 -15 -74
-14 -5 1 -17 -3 -28 -8 -11 -6 -34 -14 -52 -17 -27 -5 -33 -3 -39 15 -4 15 -1
25 11 34 15 11 15 13 -7 16 -31 4 -36 36 -6 47 23 10 23 10 -3 10 -29 1 -45
24 -26 39 18 14 78 32 87 27 13 -8 18 18 8 39 -6 10 -8 26 -5 37 3 10 1 19 -3
21 -5 2 -12 15 -15 30 -6 25 -4 27 37 38 23 6 54 15 68 20 41 14 54 7 63 -35z
m-1486 -30 c24 -29 125 -268 162 -384 24 -74 5 -138 -66 -219 l-38 -44 -1 30
c-1 16 -11 43 -23 60 -11 17 -21 36 -21 44 0 8 -7 23 -15 34 -8 10 -15 34 -15
52 0 31 -1 32 -17 16 -16 -16 -18 -15 -27 7 -5 13 -15 38 -22 54 -23 56 -34
97 -28 106 8 13 -3 11 -37 -7 -17 -8 -63 -22 -102 -30 -39 -9 -73 -17 -75 -19
-5 -4 43 -136 63 -174 8 -16 19 -50 25 -77 6 -26 26 -69 45 -95 19 -25 35 -51
35 -57 0 -6 12 -13 28 -15 15 -2 -7 -5 -49 -6 -68 -1 -80 2 -118 27 -52 35
-72 67 -128 207 -82 203 -110 334 -83 386 17 32 30 22 30 -24 0 -171 317 -167
434 6 37 55 39 67 12 107 -23 35 -24 50 -5 50 4 0 20 -16 36 -35z m773 -90 c7
-8 10 -24 7 -35 -3 -11 -1 -20 3 -20 5 0 12 -15 15 -34 7 -33 7 -34 58 -32 44
1 52 -2 55 -19 2 -11 8 -30 14 -42 16 -32 4 -51 -34 -56 -30 -3 -29 -4 9 -5
75 -3 69 -37 -7 -47 -25 -3 -66 -8 -93 -11 -28 -4 -53 -2 -60 5 -10 7 -17 7
-24 0 -14 -14 -54 -7 -63 11 -4 8 -12 25 -18 37 -7 13 -12 31 -12 41 0 10 -5
23 -11 29 -20 20 -2 45 31 41 32 -3 34 -1 25 25 -4 9 -5 26 -2 37 3 11 -1 21
-9 24 -8 3 -14 17 -14 30 0 23 4 25 53 29 28 2 55 4 58 5 4 1 12 -5 19 -13z
m1593 -340 c106 -27 174 -73 249 -168 24 -32 38 -58 37 -75 -2 -24 -2 -25 -6
-4 -11 57 -95 69 -186 27 -66 -30 -118 -75 -166 -145 -26 -39 -44 -56 -62 -57
l-24 -2 24 7 c12 4 31 23 41 42 l18 35 -74 47 c-41 26 -74 51 -74 56 0 28
-105 40 -115 14 -8 -22 24 -85 68 -131 39 -41 40 -43 9 -21 -18 12 -45 40 -60
63 -59 89 -17 232 83 285 82 43 149 50 238 27z m-1948 -177 c128 -35 155 -48
185 -85 23 -30 14 -41 -20 -23 -39 21 -57 20 -55 -3 1 -18 12 -25 58 -37 69
-17 76 -35 10 -26 l-48 7 29 -24 c29 -23 41 -62 24 -73 -5 -3 -34 -6 -65 -6
l-57 -1 35 -19 c19 -11 25 -16 14 -13 -11 4 -44 11 -74 16 -30 4 -78 16 -108
24 l-54 16 8 47 c18 103 1 181 -43 200 -13 7 -24 19 -24 27 0 20 29 15 185
-27z m1517 -45 c-24 -52 -27 -69 -27 -168 1 -117 19 -199 57 -265 l20 -35 -20
18 c-20 18 -20 18 -24 -5 -5 -38 -21 -25 -55 43 -36 73 -44 67 -12 -9 l21 -51
-36 -31 c-20 -18 -33 -37 -29 -43 3 -6 1 -7 -5 -3 -7 4 -43 -20 -84 -56 -40
-35 -89 -71 -108 -81 l-35 -19 -78 31 c-48 19 -105 33 -150 37 -47 4 -76 12
-84 22 -12 14 -13 14 -13 0 0 -11 -13 -18 -43 -22 -23 -4 -55 -13 -70 -21 -26
-13 -29 -12 -55 14 -38 39 -59 44 -76 19 -15 -21 -16 -20 -41 34 -14 31 -32
89 -40 130 -21 112 -32 130 -55 89 -27 -51 14 -220 81 -332 36 -60 69 -125 69
-135 0 -12 -32 20 -61 63 -50 71 -90 180 -105 281 -13 82 -13 106 0 177 7 45
21 95 30 111 l17 29 -6 -31 c-6 -29 -4 -31 19 -27 22 5 26 2 26 -18 1 -21 2
-20 15 9 15 34 31 38 96 25 28 -5 30 -7 14 -14 -17 -6 -16 -8 8 -8 15 -1 27 4
27 9 0 6 13 4 30 -5 17 -9 59 -18 94 -22 120 -11 259 51 396 175 59 53 83 61
47 14 -7 -9 -6 -11 7 -6 9 3 16 10 16 15 0 4 8 5 17 2 12 -5 15 -2 10 10 -4
11 -2 14 8 10 9 -3 18 2 21 12 4 10 9 13 13 6 6 -9 130 46 156 70 23 22 22 5
-3 -48z m836 -133 c42 -17 104 -45 136 -63 70 -38 87 -62 29 -41 -21 7 -48 13
-59 14 -28 0 -86 -24 -77 -33 3 -4 2 -7 -4 -7 -27 0 -120 -97 -134 -140 -7
-19 -13 -38 -15 -42 -3 -5 -215 93 -232 107 -9 8 55 118 87 150 39 39 129 84
169 85 12 0 57 -14 100 -30z m386 -203 c85 -39 148 -134 150 -227 1 -77 -13
-152 -27 -147 -7 2 -22 21 -34 43 -55 99 -153 153 -279 156 -90 2 -167 -49
-208 -140 -27 -60 -37 -40 -21 39 28 130 86 228 160 267 90 47 169 50 259 9z
m-3047 -4 c12 -3 36 0 54 6 35 12 55 6 40 -13 -12 -15 52 -45 206 -96 99 -33
128 -58 54 -46 -56 9 -290 85 -342 111 -48 25 -93 67 -54 51 11 -5 30 -11 42
-13z m2246 -174 c35 -14 58 -29 65 -45 12 -24 120 -84 217 -119 77 -28 79 -32
45 -73 -16 -21 -37 -59 -47 -87 -18 -48 -20 -50 -71 -61 l-52 -12 0 33 c0 44
-20 58 -82 56 -61 -1 -68 -6 -71 -54 -2 -20 -6 -40 -10 -44 -4 -3 -48 -7 -98
-7 -83 -1 -92 -3 -110 -25 -10 -13 -19 -32 -19 -43 0 -18 -5 -20 -31 -14 -17
3 -44 6 -60 6 -32 0 -34 7 -19 61 8 28 19 40 51 54 82 38 178 184 217 332 9
35 17 63 18 63 1 0 27 -9 57 -21z m798 -131 c57 -26 189 -141 177 -153 -3 -4
-18 1 -32 10 -24 16 -27 16 -59 -3 -29 -17 -36 -17 -52 -6 -28 21 -70 17 -102
-10 -28 -23 -28 -23 -48 -4 -24 24 -92 19 -112 -8 -11 -15 -13 -15 -23 10 -23
61 -2 149 44 182 32 23 138 14 207 -18z m-3328 -221 c44 -19 47 -32 9 -51 -46
-24 -146 -37 -273 -37 -125 1 -200 13 -220 38 -18 21 0 34 78 55 89 24 346 21
406 -5z m-1459 -226 c-5 -5 -40 -19 -79 -30 -97 -30 -275 -118 -275 -137 0
-30 27 -34 562 -71 48 -3 85 -9 83 -13 -2 -4 -28 -5 -57 -2 -29 2 -50 2 -47
-2 15 -16 853 -76 866 -62 4 3 -2 6 -13 7 -10 0 -82 7 -159 14 l-140 14 120
-5 c291 -13 746 -42 830 -53 l60 -8 -52 -2 c-53 -1 -87 -21 -36 -21 15 0 123
-7 238 -15 116 -8 352 -24 525 -35 173 -11 333 -22 355 -25 22 -3 141 -9 265
-15 124 -5 259 -12 300 -15 51 -4 69 -2 55 4 -11 5 -42 11 -70 12 -41 2 -44 3
-15 6 54 7 784 -48 795 -59 7 -7 4 -8 -10 -4 -29 8 -416 28 -423 22 -3 -3 7
-6 22 -6 15 0 136 -9 269 -19 311 -25 647 -44 654 -38 2 3 -22 8 -54 12 -32 4
-62 8 -68 10 -20 8 355 -7 540 -21 327 -24 453 -28 545 -15 76 11 93 18 162
64 277 188 401 266 410 261 6 -4 8 -2 5 3 -4 6 12 23 36 37 l42 27 -35 -30
c-39 -34 -39 -35 8 -22 20 6 30 6 27 0 -14 -21 18 -6 86 44 41 30 73 59 71 66
-1 7 2 10 8 6 5 -3 10 -2 10 3 0 19 -57 31 -194 41 -80 5 -143 15 -150 21 -8
9 -6 11 9 7 11 -4 85 -11 165 -17 144 -10 190 -24 190 -54 0 -22 -629 -460
-700 -487 l-45 -17 -7 -108 c-4 -60 -10 -114 -13 -121 -2 -7 -20 -13 -39 -13
-27 0 -33 4 -31 18 2 9 6 61 9 115 l5 97 -107 0 c-59 0 -210 7 -337 15 -491
33 -699 46 -940 60 -137 8 -277 17 -310 20 -33 3 -141 10 -240 15 -99 5 -274
16 -390 25 -115 8 -412 28 -660 45 -498 33 -717 48 -1250 85 -198 14 -522 37
-720 50 -198 14 -496 30 -663 35 -166 6 -308 11 -315 13 -15 3 -21 -100 -10
-157 l8 -38 60 -4 c33 -2 94 -9 135 -14 41 -6 122 -17 180 -25 l105 -14 -130
5 c-215 9 -408 23 -448 34 -20 6 -43 21 -51 33 -14 23 -29 218 -20 254 6 23
45 42 229 111 72 27 159 60 195 74 63 24 83 27 64 9z m5616 -32 c0 -4 9 -11
20 -14 11 -3 20 -15 20 -25 0 -10 16 -35 35 -56 25 -27 35 -46 35 -70 0 -18
-4 -35 -9 -38 -4 -3 -6 5 -4 18 4 16 -4 30 -27 49 l-31 27 -30 -35 c-52 -59
-198 -116 -379 -149 -69 -13 -322 -46 -353 -46 -5 0 -7 -19 -5 -42 3 -40 5
-43 38 -49 19 -4 -12 -6 -70 -7 -58 0 -97 2 -87 5 14 4 17 14 16 47 l-3 43
-140 7 c-424 20 -719 94 -819 206 -21 22 -37 47 -37 56 0 29 31 74 62 90 l32
17 -27 -32 c-71 -85 -6 -156 212 -232 132 -46 488 -86 651 -74 52 4 140 7 195
5 272 -5 599 73 685 165 38 40 34 94 -10 141 l-35 37 33 -19 c17 -10 32 -22
32 -25z m-2526 -175 c24 -9 20 -27 -13 -58 -29 -28 -31 -28 -107 -20 -45 5
-79 14 -81 21 -3 7 8 24 23 38 23 22 36 25 95 25 37 0 74 -3 83 -6z m-1941
-422 c60 -27 81 -60 74 -115 -5 -36 -15 -51 -66 -98 -61 -56 -66 -69 -27 -69
36 0 83 -36 102 -79 30 -64 47 -55 83 44 12 33 41 104 64 158 37 88 44 98 64
94 13 -2 31 2 40 9 10 7 26 14 36 14 9 0 17 5 17 10 0 6 5 10 10 10 6 0 10
-10 10 -23 0 -13 4 -27 9 -32 4 -6 14 -50 20 -100 19 -136 28 -165 52 -165 15
0 19 -5 16 -15 -4 -8 -2 -17 2 -20 5 -2 14 16 20 41 38 150 176 276 285 260
44 -7 63 -21 85 -64 10 -18 9 -34 -4 -78 -10 -34 -20 -52 -27 -48 -5 4 -13 1
-17 -5 -13 -21 -40 0 -47 35 -8 45 -33 45 -79 -1 -47 -47 -76 -107 -82 -169
-4 -43 -1 -56 18 -80 19 -24 27 -28 60 -23 20 3 64 23 98 46 34 23 61 40 61
37 0 -3 -4 -16 -10 -30 -12 -32 1 -33 34 -3 22 19 29 41 51 174 29 175 39 203
66 196 11 -3 19 0 19 7 0 7 8 9 20 5 11 -4 20 -2 20 4 0 19 15 11 27 -14 9
-20 8 -40 -3 -92 -7 -37 -13 -68 -11 -69 1 -2 32 22 67 53 100 85 165 133 182
133 8 0 23 9 33 20 10 11 22 20 28 20 5 0 -5 -16 -22 -35 -36 -41 -39 -50 -12
-35 27 14 36 13 22 -4 -6 -7 -9 -20 -6 -28 5 -14 -34 -56 -115 -122 -19 -16
-54 -46 -78 -68 l-43 -39 97 -120 c53 -66 99 -118 101 -115 2 2 -1 13 -8 23
-12 20 -4 102 8 89 3 -3 12 -1 20 5 7 6 13 8 13 4 0 -4 6 -3 13 3 10 9 16 4
26 -23 8 -23 21 -37 37 -41 59 -15 149 22 149 61 0 12 -30 33 -95 67 -112 59
-138 80 -146 123 -11 60 38 120 138 171 118 60 228 31 228 -60 0 -31 -20 -76
-33 -76 -5 0 -16 -8 -23 -17 -13 -17 -13 -17 -14 -1 0 11 -5 15 -15 12 -11 -5
-15 1 -15 25 0 36 -11 38 -70 15 -41 -17 -69 -50 -53 -64 4 -4 41 -25 82 -46
41 -22 94 -57 118 -80 35 -33 43 -47 43 -77 0 -41 -42 -97 -93 -124 -77 -39
-229 -82 -204 -56 7 6 -84 53 -92 47 -2 -1 18 -30 44 -63 25 -34 44 -61 42
-61 -2 0 -28 18 -57 40 -60 45 -85 53 -50 15 29 -31 18 -32 -21 -4 -24 17 -39
20 -77 16 -42 -5 -44 -5 -19 5 35 15 34 30 -5 61 -18 14 -62 59 -98 100 l-65
75 -12 -41 c-7 -22 -15 -65 -19 -94 -3 -29 -11 -56 -17 -60 -6 -4 -8 2 -5 15
4 12 3 22 -2 22 -8 0 -25 -40 -33 -75 -3 -13 -5 -8 -6 12 -2 51 -10 66 -29 51
-13 -12 -14 -5 -10 61 l5 73 -71 -70 c-68 -67 -119 -102 -149 -102 -31 0 -106
42 -135 75 -28 31 -52 88 -52 123 0 14 -9 15 -26 4 -12 -7 -7 -65 12 -136 5
-23 4 -27 -6 -21 -10 6 -12 -3 -7 -46 5 -52 5 -53 -8 -24 -8 17 -14 36 -15 43
0 6 -4 12 -10 12 -5 0 -10 -6 -10 -12 -1 -7 -7 1 -15 17 -10 22 -14 25 -14 11
-2 -32 -12 -11 -30 61 -20 76 -18 76 -123 52 -45 -10 -47 -12 -68 -70 -12 -32
-28 -59 -35 -59 -7 0 -19 -13 -27 -30 -17 -38 -24 -38 -32 2 -6 30 -7 31 -21
12 -19 -25 -19 -10 1 56 11 38 13 55 5 58 -6 2 -8 9 -5 15 4 7 -17 -11 -47
-40 -30 -28 -85 -72 -124 -97 -38 -25 -63 -46 -55 -47 8 0 -16 -16 -54 -35
-76 -37 -80 -39 -71 -24 3 6 -1 10 -9 10 -9 0 -18 -12 -22 -27 -9 -44 -12 -50
-13 -25 -1 14 -6 22 -13 20 -8 -3 -15 -31 -18 -74 l-6 -69 -8 63 c-9 63 -21
80 -29 40 l-4 -23 -8 23 c-4 12 -8 22 -9 22 -1 0 -16 -4 -34 -9 -20 -6 -32 -6
-32 0 0 5 5 9 10 9 24 0 7 20 -17 21 l-28 0 23 16 c26 18 29 38 5 29 -24 -8
14 23 56 46 30 17 31 19 31 90 0 40 3 90 6 111 5 30 4 37 -10 37 -15 0 -21 16
-18 53 1 9 -4 17 -11 17 -6 0 2 10 20 21 26 16 34 30 42 72 17 89 19 118 7
113 -96 -38 -116 -44 -121 -36 -3 6 -1 10 4 10 6 0 11 7 11 15 0 21 -30 19
-91 -5 -72 -29 -71 -19 2 15 55 27 107 65 65 49 -24 -9 -19 11 7 28 36 24 155
69 221 84 81 18 200 12 259 -14z m-1418 -217 c9 -99 20 -236 26 -305 5 -69 16
-199 24 -290 8 -91 17 -214 20 -275 3 -60 8 -121 11 -133 3 -13 1 -21 -4 -18
-10 6 -12 24 -42 361 -21 233 -60 766 -60 819 0 74 11 5 25 -159z m3895 158
c0 -4 7 -57 15 -118 9 -60 18 -129 21 -152 4 -33 9 -42 27 -45 15 -2 21 -9 19
-20 -6 -36 16 -16 33 30 66 175 260 301 389 252 31 -11 59 -63 51 -93 -16 -56
-28 -77 -46 -77 -11 0 -19 -5 -19 -10 0 -6 -8 -5 -20 2 -12 8 -20 24 -20 40 0
71 -119 2 -192 -111 -51 -80 -32 -181 33 -181 44 0 129 47 129 72 0 4 -20 8
-44 8 -48 0 -55 9 -48 62 4 29 13 31 170 44 l83 7 -5 -34 c-2 -19 -13 -59 -24
-89 -11 -30 -33 -95 -48 -145 -20 -65 -29 -84 -34 -70 -7 19 -7 19 -17 0 -6
-11 -14 -35 -18 -53 -9 -44 -20 -32 -16 18 3 40 -13 55 -23 23 -3 -10 -4 6 -2
35 2 28 2 52 1 52 -1 0 -23 -11 -49 -25 -54 -29 -71 -30 -119 -10 -74 31 -127
97 -127 160 0 20 -5 25 -23 25 -23 0 -23 -2 -16 -47 4 -27 8 -64 8 -83 0 -29
-2 -32 -10 -15 -7 14 -8 3 -5 -37 5 -63 -8 -79 -18 -23 -4 22 -11 32 -20 29
-7 -3 -18 5 -24 18 -6 13 -11 17 -11 11 -1 -7 -5 -13 -10 -13 -5 0 -12 21 -16
48 -14 99 -9 94 -84 87 -97 -10 -98 -11 -136 -83 -19 -37 -34 -61 -35 -54 -1
26 -21 10 -45 -35 -22 -41 -25 -43 -20 -18 5 32 -12 71 -22 48 -2 -7 -8 -13
-13 -13 -5 0 2 26 15 58 17 41 20 58 11 60 -15 3 -17 62 -3 62 5 0 4 6 -2 14
-13 15 4 26 38 26 16 0 41 43 139 242 2 4 -9 6 -25 3 -15 -2 -65 -9 -109 -16
l-81 -11 -16 -57 c-8 -31 -25 -99 -37 -151 -38 -163 -58 -229 -60 -195 -1 29
-1 29 -16 10 -9 -11 -25 -38 -36 -60 l-19 -40 5 45 c3 25 2 52 -4 60 -6 10
-10 11 -10 3 0 -7 -5 -13 -10 -13 -13 0 3 111 44 305 8 38 13 71 11 73 -2 2
-33 -1 -68 -7 -86 -15 -89 -15 -82 9 3 11 2 20 -3 20 -13 0 -10 56 3 69 6 6
46 15 90 21 44 6 91 16 105 22 28 12 240 21 284 12 27 -6 28 -8 12 -19 -12
-10 -14 -15 -5 -20 8 -6 4 -12 -12 -21 -23 -13 -23 -13 16 -14 36 0 42 4 60
36 14 27 23 34 40 30 20 -5 87 13 101 27 10 9 24 9 24 0z m1098 -102 c2 -6 19
-11 38 -11 49 0 42 -18 -11 -25 -47 -8 -84 -34 -49 -36 40 -1 -22 -17 -92 -23
-178 -16 -171 -15 -177 -44 -3 -15 -9 -35 -13 -46 -6 -17 -2 -18 62 -16 83 3
134 0 117 -7 -19 -7 -16 -21 5 -26 12 -2 8 -8 -18 -19 -26 -12 -30 -17 -15
-18 l20 -1 -20 -9 c-11 -4 -59 -11 -107 -15 l-86 -7 -12 -42 c-6 -22 -11 -45
-11 -50 1 -5 70 -8 154 -7 88 1 158 -3 167 -9 11 -7 7 -10 -20 -10 -67 -1 -8
-20 65 -21 81 -2 71 -5 -38 -14 -42 -4 -75 -11 -71 -16 3 -5 17 -9 31 -9 15 0
24 -2 22 -4 -2 -2 -76 -10 -164 -16 -88 -7 -172 -18 -187 -25 -20 -10 -28 -10
-28 -2 0 17 -17 -4 -23 -28 -4 -18 -5 -18 -6 3 -1 17 -7 22 -30 22 -23 0 -30
6 -36 28 -16 57 -14 70 9 76 18 4 27 18 39 58 11 39 12 56 3 63 -18 16 -8 73
15 80 20 7 30 25 43 77 5 22 2 27 -15 30 -15 2 -23 11 -25 31 -1 15 2 27 7 27
5 0 9 8 9 18 0 33 64 51 189 51 63 1 117 4 120 7 10 10 135 -3 139 -15z
m-2641 -565 c150 -48 148 -127 -5 -200 -59 -28 -78 -46 -49 -46 33 0 119 -33
147 -56 23 -20 30 -34 30 -62 0 -31 -8 -44 -53 -87 -60 -56 -108 -82 -241
-132 -61 -22 -78 -32 -51 -27 63 9 38 -2 -67 -30 -54 -15 -106 -29 -115 -32
-10 -2 0 4 22 15 35 18 36 20 10 14 -95 -20 -109 -27 -122 -68 l-11 -40 -1 38
c-1 35 -2 36 -21 25 -11 -7 -23 -28 -26 -48 -16 -100 -24 -114 -19 -37 4 70 3
78 -12 75 -9 -2 -20 -14 -24 -28 -6 -23 -9 -21 -13 13 -2 12 -17 13 -71 3 -28
-5 -29 -5 -11 9 12 9 44 16 78 16 68 2 55 -1 143 26 39 12 120 36 180 53 111
32 268 90 262 97 -2 2 -34 -8 -70 -21 -59 -21 -67 -22 -67 -8 0 14 -2 14 -9 3
-6 -10 -10 -10 -16 -1 -4 7 -17 9 -32 5 -14 -3 -31 -1 -39 6 -10 8 -35 5 -104
-15 -108 -31 -118 -32 -97 -8 8 9 18 35 21 57 3 22 3 34 0 28 -3 -8 -25 -13
-54 -13 -55 0 -55 0 -64 -53 -5 -29 -4 -37 5 -32 7 5 10 3 7 -5 -4 -14 -19
-20 -98 -41 -37 -10 -42 -13 -25 -20 11 -4 14 -8 6 -8 -7 -1 -11 -7 -7 -16 4
-12 -3 -15 -32 -14 -32 0 -34 1 -14 9 24 10 30 30 10 30 -22 1 23 22 70 34
l45 12 24 89 c12 50 25 100 29 113 5 17 2 22 -12 22 -16 0 -17 2 -4 10 13 8
12 10 -2 10 -23 0 -23 19 -1 27 15 6 14 7 -3 14 -20 7 -21 7 36 28 20 7 31 25
53 86 l27 78 -37 -7 c-53 -10 -122 -16 -100 -10 23 7 22 21 -4 29 -19 6 -18 8
13 32 l33 25 -35 -7 c-33 -6 -34 -6 -15 8 11 8 63 24 115 36 80 17 123 20 265
17 123 -2 184 -8 222 -20z m868 -5 c39 4 108 8 155 8 l85 -1 -50 -13 c-43 -11
-46 -13 -20 -15 26 -1 27 -3 10 -10 -29 -13 52 -12 217 1 137 11 243 5 188
-11 -24 -7 -24 -8 10 -16 l35 -8 -55 -17 c-41 -13 -48 -18 -27 -18 15 -1 27
-5 27 -10 0 -5 -59 -14 -130 -21 l-131 -13 -19 -38 c-11 -21 -20 -41 -20 -45
0 -4 39 -4 88 -1 48 4 96 2 107 -3 19 -8 19 -9 -3 -9 -29 -1 -19 -21 11 -22
20 -1 21 -2 2 -6 -11 -3 -31 -10 -45 -16 l-25 -10 25 -7 c18 -5 2 -9 -55 -14
-154 -13 -149 -11 -167 -64 -10 -25 -16 -48 -14 -50 2 -2 67 1 144 5 77 5 162
6 189 2 37 -5 40 -7 16 -8 -18 0 -33 -5 -33 -10 0 -12 36 -20 95 -22 43 -2 40
-3 -25 -9 -41 -4 -90 -11 -109 -15 -25 -6 -32 -5 -27 3 4 7 16 12 27 12 11 0
17 5 14 10 -3 6 -15 10 -26 10 -12 0 -17 4 -14 11 5 7 -34 8 -134 3 l-140 -7
8 31 c11 35 6 42 -26 42 -12 0 -23 5 -23 10 0 6 -6 10 -14 10 -14 0 -36 -49
-36 -81 0 -10 -13 -25 -31 -34 -23 -12 -28 -19 -20 -29 13 -16 4 -26 -22 -26
-17 0 -18 2 -6 16 10 13 10 17 -1 24 -10 6 -4 11 20 17 29 8 36 16 51 58 22
63 23 79 5 72 -15 -6 -17 27 -2 51 5 8 1 10 -11 7 -10 -3 1 4 24 15 34 17 45
28 54 61 10 33 10 42 0 49 -8 4 -10 13 -7 19 4 6 2 11 -4 11 -6 0 -8 5 -4 11
4 8 -3 9 -22 6 -16 -3 -59 -9 -96 -12 -38 -4 -68 -8 -68 -9 0 -2 -34 -93 -76
-202 -42 -109 -80 -210 -84 -224 -7 -20 -8 -21 -9 -5 0 11 7 38 15 60 11 29
53 154 54 161 0 0 -21 0 -47 0 -63 -1 -77 -18 -109 -125 -24 -79 -44 -122 -44
-94 0 6 27 91 61 189 81 237 79 228 43 221 -16 -3 -49 -9 -74 -12 -25 -3 -58
-8 -75 -11 -28 -5 -29 -4 -12 10 18 14 18 15 -3 26 l-21 11 23 19 c19 17 21
21 8 29 -22 15 21 28 141 41 57 7 109 16 114 20 14 11 58 17 70 9 6 -3 42 -3
80 2z m1015 -19 c25 -12 36 -25 38 -45 2 -15 8 -25 13 -22 15 10 10 -13 -11
-55 -13 -25 -25 -37 -34 -34 -9 3 -17 -3 -22 -18 l-7 -23 -9 24 c-7 19 -11 21
-22 11 -12 -9 -15 -6 -18 22 -3 32 -4 33 -44 31 -41 -2 -136 -42 -149 -64 -12
-18 7 -28 118 -69 134 -50 221 -93 241 -122 18 -25 21 -74 6 -83 -5 -3 -10
-15 -10 -26 0 -10 -6 -19 -12 -19 -7 0 -22 -8 -33 -16 -19 -15 -15 -15 45 -9
36 3 77 8 93 11 15 3 27 1 27 -4 0 -5 -48 -14 -107 -20 -94 -10 -124 -18 -237
-66 -71 -30 -132 -59 -135 -65 -6 -9 -124 -61 -138 -61 -3 0 -1 5 2 10 9 15 4
13 -117 -36 -159 -64 -158 -64 -158 -58 0 3 35 21 78 41 42 20 72 38 66 40 -5
2 -82 -21 -169 -52 -150 -52 -199 -66 -165 -46 19 11 183 72 273 101 37 12 74
19 82 16 8 -3 17 -1 21 5 3 5 13 7 23 4 18 -5 182 49 316 106 69 29 76 34 50
37 -16 1 -52 9 -80 17 l-50 15 -165 -71 c-200 -85 -218 -93 -205 -82 6 5 46
25 90 45 387 175 435 200 435 223 0 18 -48 42 -165 84 -156 55 -206 95 -192
153 9 36 71 93 136 124 127 63 235 79 301 46z m-1511 -208 c-28 -77 -64 -179
-80 -229 -17 -49 -34 -94 -39 -99 -11 -11 2 43 29 118 23 64 25 77 14 75 -5
-1 -10 0 -13 1 -3 1 -24 3 -47 3 -50 2 -52 -2 -83 -125 -11 -45 -22 -84 -25
-86 -14 -14 -2 57 25 144 17 55 44 144 61 199 41 132 68 193 79 175 7 -11 16
-10 51 4 34 14 44 15 50 4 6 -9 9 -8 10 7 0 11 5 4 10 -16 7 -32 1 -57 -42
-175z m-2058 129 c6 -6 9 -23 7 -39 -4 -35 -22 -39 -115 -29 l-63 7 0 37 c0
21 2 40 4 42 9 9 157 -8 167 -18z m-248 -97 c4 -6 6 -24 5 -41 -3 -25 -8 -31
-30 -33 -37 -4 -36 -18 2 -25 28 -6 30 -10 30 -48 l0 -42 -82 7 c-44 4 -85 9
-90 12 -4 3 -8 21 -8 40 l0 34 50 0 c28 0 50 5 50 10 0 6 -6 10 -12 10 -7 0
-30 5 -50 11 -34 9 -38 13 -38 43 0 18 3 36 7 40 11 11 157 -5 166 -18z m235
-12 c17 -5 22 -14 22 -41 0 -29 -4 -36 -32 -45 l-33 -12 33 -8 c28 -8 32 -12
32 -44 0 -20 -6 -37 -14 -40 -7 -3 -46 -1 -87 3 l-74 8 -3 38 -3 37 48 1 48 0
-45 17 c-41 16 -45 21 -48 55 l-3 37 68 0 c37 0 78 -3 91 -6z m4686 -150 c46
-7 46 -7 46 -45 l0 -39 -64 0 c-35 0 -78 3 -95 6 -27 6 -31 11 -31 39 0 17 3
35 7 38 8 9 76 9 137 1z m-4 -122 c43 -7 45 -8 45 -42 0 -31 -3 -35 -30 -38
-16 -2 -58 -1 -92 3 l-63 7 0 39 0 39 48 -1 c26 0 67 -4 92 -7z m-5397 -71
c-11 -42 67 -61 312 -77 55 -3 132 -12 170 -19 39 -8 99 -16 135 -19 36 -4
108 -11 160 -16 52 -5 210 -17 350 -27 140 -10 238 -19 218 -21 -21 -2 -144 4
-275 12 -499 33 -713 45 -848 48 -139 3 -140 3 -143 -19 -5 -36 -40 -30 -50 9
-6 24 -16 34 -44 44 -43 15 -48 8 -48 -59 0 -29 -3 -38 -10 -31 -6 6 -10 43
-8 85 3 74 3 74 38 91 44 23 49 22 43 -1z m5191 -34 c12 -9 17 -23 14 -42 -3
-28 -6 -30 -53 -33 -79 -4 -129 9 -133 37 -7 45 3 51 81 51 44 0 80 -5 91 -13z
m245 -21 c7 -8 11 -27 9 -43 l-3 -28 -85 3 c-95 4 -116 15 -106 56 6 25 8 26
90 26 61 0 87 -4 95 -14z m-1764 -35 c22 -4 -115 -6 -305 -5 -466 4 -792 -22
-1050 -83 -122 -28 -50 -26 189 7 256 35 463 51 606 49 55 -1 201 -2 325 -1
l225 0 -165 -9 c-259 -13 -490 -37 -628 -64 -147 -29 -139 -28 -126 -15 14 14
243 60 348 69 l91 8 -91 2 c-118 1 -443 -31 -685 -69 -105 -17 -207 -30 -227
-30 -35 1 -36 1 -17 16 69 52 419 109 820 134 151 9 625 3 690 -9z"/>
<path d="M3710 3757 c0 -4 9 -27 20 -49 12 -25 16 -46 11 -51 -18 -18 -187
-57 -246 -56 -125 2 -128 2 -172 47 -24 24 -43 40 -43 36 0 -3 -6 -1 -13 5
-14 11 -27 5 -27 -11 0 -5 4 -7 9 -4 5 4 7 -2 4 -12 -2 -10 3 -24 11 -31 9 -8
16 -10 16 -6 0 4 7 2 15 -5 8 -7 22 -10 30 -6 8 3 15 1 15 -4 0 -25 244 -47
315 -29 22 6 51 13 65 16 40 9 51 22 39 47 -8 17 -7 17 10 -4 11 -14 23 -21
27 -17 4 4 -2 17 -14 30 -11 12 -32 42 -46 67 -14 25 -26 41 -26 37z"/>
<path d="M205 2158 c2 -61 8 -115 12 -119 4 -4 23 -10 41 -14 36 -8 37 -7 33
100 -3 100 -8 111 -52 128 l-39 15 5 -110z"/>
<path d="M1625 1494 c-11 -3 -29 -7 -41 -9 -21 -5 -25 -21 -50 -184 l-6 -44
62 34 c85 47 170 124 170 154 0 14 -8 29 -19 34 -23 13 -89 21 -116 15z"/>
<path d="M2469 1053 c-15 -4 -73 -133 -60 -133 3 0 40 11 81 25 93 32 185 77
184 90 -2 18 -154 32 -205 18z"/>
<path d="M2435 813 c-71 -9 -70 -7 -106 -112 -18 -55 -31 -102 -28 -105 9 -9
184 51 272 93 97 47 133 76 117 96 -21 25 -159 40 -255 28z"/>
</g>
</svg>
