<?xml version="1.0" standalone="no"?>
<!DOCTYPE svg PUBLIC "-//W3C//DTD SVG 20010904//EN"
 "http://www.w3.org/TR/2001/REC-SVG-20010904/DTD/svg10.dtd">
<svg version="1.0" xmlns="http://www.w3.org/2000/svg"
 width="720.000000pt" height="544.000000pt" viewBox="0 0 720.000000 544.000000"
 preserveAspectRatio="xMidYMid meet">
<metadata>
Created by potrace 1.16, written by Peter Selinger 2001-2019
</metadata>
<g transform="translate(0.000000,544.000000) scale(0.100000,-0.100000)"
fill="#000000" stroke="none">
<path d="M3782 5379 c-164 -16 -348 -80 -482 -168 -75 -49 -200 -169 -200
-192 0 -11 -15 -26 -37 -38 -21 -10 -46 -27 -55 -38 -24 -26 -50 -93 -44 -110
7 -16 -19 -100 -37 -123 -7 -8 -34 -33 -61 -54 -37 -31 -57 -58 -84 -115 -33
-71 -35 -82 -36 -186 -1 -87 3 -122 19 -164 24 -64 100 -153 158 -182 22 -12
57 -33 78 -49 21 -15 56 -30 77 -34 33 -5 41 -12 57 -45 9 -22 32 -54 51 -72
19 -18 34 -36 34 -40 0 -3 -30 -9 -67 -12 -92 -9 -178 -52 -238 -119 -62 -69
-95 -136 -95 -193 0 -43 -1 -45 -30 -45 -16 0 -66 -13 -112 -30 -45 -16 -88
-30 -95 -30 -7 0 -36 18 -65 40 -29 22 -107 67 -173 101 -66 34 -127 67 -135
74 -58 49 -262 125 -337 125 -95 0 -129 -17 -223 -109 -105 -103 -121 -127
-122 -181 0 -32 6 -48 24 -67 22 -21 34 -24 96 -24 71 0 72 0 99 -36 60 -78
109 -126 150 -145 26 -12 57 -40 82 -73 47 -62 140 -137 204 -164 67 -29 151
-43 272 -47 61 -1 135 -6 166 -10 49 -6 74 -1 180 31 202 61 224 71 245 110
13 24 31 40 59 50 68 25 66 25 81 -45 20 -96 72 -190 120 -217 47 -27 52 -28
56 -6 2 9 4 -14 4 -50 l2 -67 -46 0 c-29 0 -49 5 -56 16 -16 21 -90 21 -111 0
-20 -20 -34 -20 -55 -1 -11 10 -51 17 -116 22 l-99 8 -1 35 c-1 60 -3 66 -31
79 -28 13 -155 16 -199 5 -13 -3 -25 -16 -28 -30 -7 -28 -24 -27 -116 11 -87
36 -356 67 -585 68 -104 0 -209 -5 -232 -11 -42 -10 -43 -9 -43 15 0 21 -4 24
-22 19 -13 -3 -40 -6 -60 -6 -31 0 -38 -4 -38 -20 0 -15 -12 -23 -52 -34 -29
-8 -87 -24 -128 -36 -123 -36 -120 -36 -120 -8 0 35 -18 48 -70 48 -57 0 -70
-12 -70 -67 l0 -43 -74 1 c-92 1 -133 -17 -138 -62 -3 -29 -8 -32 -143 -83
-528 -201 -544 -208 -569 -235 -17 -19 -18 -32 -11 -156 7 -131 8 -136 34
-155 14 -11 32 -25 39 -30 6 -6 12 -33 12 -60 0 -27 20 -289 44 -582 25 -293
48 -571 51 -619 l7 -85 -40 -18 c-23 -10 -51 -29 -63 -42 -20 -21 -21 -30 -16
-95 12 -138 -2 -135 747 -184 327 -22 897 -60 1330 -90 730 -50 2459 -177
2662 -195 176 -15 1195 -13 1201 3 4 10 6 10 6 0 1 -10 26 -13 92 -13 l91 0
217 127 c119 69 241 141 271 158 30 17 80 47 111 67 62 39 69 56 69 154 0 48
-3 55 -36 83 l-37 30 6 63 c13 128 38 465 66 886 l30 432 29 29 c26 27 29 37
35 122 4 51 7 124 7 164 0 118 -8 122 -354 150 -112 9 -185 11 -195 5 -13 -7
-13 -9 -2 -10 24 0 5 -11 -31 -17 -18 -3 -51 -11 -73 -18 -22 -8 -59 -19 -83
-25 l-42 -11 25 -37 c28 -40 32 -83 11 -101 -11 -9 -12 -7 -9 13 6 28 -14 69
-28 61 -5 -4 -12 0 -15 9 -4 11 -13 7 -36 -20 -52 -59 -195 -115 -378 -148
-69 -13 -322 -46 -353 -46 -5 0 -7 -19 -5 -42 3 -42 4 -43 43 -49 22 -4 -10
-6 -75 -6 -63 0 -105 2 -92 4 19 4 22 11 22 47 l0 43 -140 6 c-169 8 -399 33
-497 53 -39 9 -81 13 -92 9 -12 -3 -23 0 -28 8 -4 8 -44 30 -88 48 -56 23 -94
47 -127 80 -44 44 -47 49 -38 79 5 18 17 41 26 51 9 10 13 23 8 30 -4 8 -3 10
4 5 6 -4 25 0 42 9 37 19 38 10 3 -27 -35 -36 -35 -89 -2 -125 31 -32 167 -98
244 -118 195 -51 474 -83 620 -71 44 4 154 8 245 10 221 4 427 43 540 102 52
27 111 73 93 74 -7 0 -10 7 -7 15 8 21 -15 19 -53 -5 -28 -17 -33 -17 -33 -4
0 9 -5 12 -12 8 -6 -4 -90 -8 -187 -10 l-176 -2 150 38 c189 48 261 72 258 87
-2 8 4 10 14 6 11 -4 14 -3 9 6 -5 8 -3 11 5 10 20 -4 59 11 59 22 0 5 12 8
28 7 16 -1 41 8 60 22 26 20 32 30 32 62 0 35 -3 41 -37 55 -43 19 -138 22
-168 5 -15 -8 -36 -7 -80 4 -33 7 -123 24 -200 36 -128 21 -171 23 -495 22
-330 -1 -364 -3 -487 -25 l-133 -25 0 32 c0 43 -22 58 -83 57 -50 -1 -85 -23
-71 -45 3 -5 3 -21 -1 -37 l-6 -29 -83 5 c-98 7 -146 -11 -146 -52 0 -22 -4
-25 -37 -25 l-38 0 35 33 c94 85 176 207 188 278 l7 43 70 2 c188 8 221 6 264
-17 38 -20 51 -21 139 -15 121 9 231 25 257 38 11 6 32 22 47 35 20 19 42 27
96 33 86 9 154 51 172 105 7 20 29 48 53 67 62 49 73 65 111 163 66 173 97
271 106 340 8 66 11 72 52 105 144 117 184 183 154 254 -14 34 -52 64 -64 51
-3 -3 6 -16 20 -28 38 -32 43 -73 15 -122 -27 -48 -46 -53 -71 -19 -17 24 -17
28 -2 68 24 63 20 88 -6 36 -16 -31 -29 -45 -42 -43 -10 0 -29 -8 -42 -20 -26
-22 -34 -48 -9 -27 9 7 18 11 20 8 3 -3 -7 -11 -21 -18 -20 -11 -27 -12 -33
-2 -4 7 -12 12 -17 11 -31 -6 -36 1 -19 27 13 20 14 28 4 40 -10 13 -15 12
-37 -8 -14 -13 -22 -18 -18 -11 3 6 2 14 -4 18 -5 3 -10 -1 -10 -9 0 -19 -27
-21 -32 -4 -3 7 -3 48 -1 90 3 43 1 78 -4 78 -12 0 -43 -65 -43 -89 0 -11 -9
-21 -22 -25 -26 -7 -55 22 -85 84 -19 40 -22 34 -25 -68 -2 -40 -7 -71 -13
-70 -23 7 -14 208 10 208 7 0 16 -7 19 -17 10 -24 68 -113 75 -113 4 0 11 8
16 18 31 57 71 112 82 112 7 0 13 -12 13 -27 1 -24 5 -19 33 32 36 68 58 78
101 44 25 -20 27 -26 21 -65 -7 -47 8 -62 19 -19 8 32 30 32 61 0 23 -22 25
-22 25 -5 0 12 -16 30 -40 46 -21 14 -46 37 -55 50 -22 34 -56 53 -106 62
l-44 8 82 85 c87 91 103 118 103 179 0 30 -6 43 -26 59 -42 33 -87 27 -135
-16 -43 -39 -176 -210 -202 -259 -8 -16 -30 -42 -47 -59 -18 -16 -47 -53 -66
-82 -26 -41 -41 -54 -71 -62 -38 -10 -89 -48 -79 -58 3 -3 17 4 31 15 28 22
104 38 130 28 14 -5 14 -9 0 -35 -8 -17 -15 -41 -15 -56 0 -24 -2 -25 -67 -25
-36 0 -63 -3 -59 -7 4 -4 34 -6 67 -5 43 2 66 -2 82 -14 l22 -16 -25 7 c-35
10 -152 13 -143 4 5 -4 33 -10 63 -12 54 -3 54 -3 -13 -5 l-67 -2 -7 30 c-3
17 -11 29 -17 27 -14 -5 -8 -82 11 -130 15 -36 15 -41 -5 -81 -12 -23 -28 -60
-36 -82 -7 -21 -26 -65 -42 -98 -15 -32 -35 -86 -44 -120 -19 -67 -27 -72
-115 -75 -36 -1 -46 5 -107 63 -91 87 -170 120 -289 120 -77 0 -93 -3 -151
-32 -35 -17 -72 -40 -82 -51 -16 -18 -21 -18 -51 -5 -59 24 -124 35 -145 24
-11 -6 -20 -7 -20 -3 0 4 46 31 103 60 56 29 116 66 133 83 31 30 32 30 69 14
59 -24 206 -3 303 43 107 52 195 166 208 270 5 43 2 38 -41 -69 -19 -46 -41
-80 -71 -108 -49 -45 -59 -48 -74 -20 -8 16 -8 18 4 14 24 -9 49 11 90 70 48
70 70 152 62 229 -6 58 -30 125 -50 139 -6 4 -4 10 7 14 36 13 67 -47 67 -128
0 -22 5 -38 11 -38 20 0 1 109 -28 162 -14 26 -48 75 -75 108 -38 47 -48 69
-50 100 -1 21 5 46 12 55 19 23 -4 118 -38 155 -29 30 -31 30 -158 4 -27 -5
-32 -3 -37 18 -9 32 -9 35 8 51 9 9 35 15 70 16 49 0 56 -2 70 -27 l16 -27 -7
35 c-18 101 -195 307 -354 412 -131 87 -311 151 -459 163 -139 12 -158 12
-239 4z m254 -255 c116 -24 314 -118 314 -148 0 -6 -15 -26 -34 -46 -18 -19
-46 -57 -60 -85 -28 -51 -26 -49 34 38 20 28 47 58 62 67 26 14 29 13 69 -25
75 -73 149 -199 169 -290 15 -69 -4 -196 -55 -350 -24 -71 -52 -188 -64 -260
-31 -181 -43 -238 -55 -255 -6 -8 -7 -12 -2 -8 5 4 16 0 24 -9 15 -14 13 -18
-17 -44 -19 -15 -71 -47 -116 -69 -159 -81 -452 -110 -661 -66 -216 46 -423
177 -493 313 -38 75 -55 210 -55 438 -1 177 2 220 17 270 26 85 110 242 154
291 73 80 244 199 276 192 7 -1 28 6 47 17 19 10 58 24 85 31 74 18 268 17
361 -2z m224 -16 c97 -30 172 -73 240 -140 92 -90 190 -248 153 -248 -5 0 -21
25 -37 56 -64 122 -233 262 -393 325 -43 17 -80 33 -83 36 -7 7 46 -6 120 -29z
m-1272 -439 c-27 -52 -28 -125 -2 -164 9 -14 12 -26 8 -26 -5 -1 -13 -2 -19
-4 -5 -1 -15 -3 -21 -3 -37 -5 -11 -409 29 -459 22 -29 -23 -11 -71 27 -55 43
-80 72 -38 45 28 -19 34 -9 15 26 -6 13 -10 87 -10 191 1 162 0 170 -19 175
-28 8 -25 25 9 45 22 12 32 27 39 60 4 23 7 45 6 47 -2 2 -18 -2 -36 -7 l-33
-11 29 22 c17 12 40 32 52 45 19 20 73 44 82 37 2 -2 -7 -22 -20 -46z m1907
-217 c22 -16 86 -102 75 -102 -6 0 -26 16 -46 35 -19 19 -41 35 -49 35 -18 0
-62 -65 -75 -109 -9 -32 -8 -33 30 -48 42 -17 52 -41 25 -63 -8 -7 -15 -8 -15
-3 0 5 -13 13 -28 19 -21 8 -31 8 -41 -3 -24 -26 -42 -120 -48 -255 -5 -123
-4 -138 10 -138 10 0 14 -6 11 -14 -3 -8 -1 -17 5 -21 23 -14 9 -26 -26 -23
-32 3 -41 9 -55 38 -26 51 -24 206 3 322 19 82 20 90 5 113 -23 35 -12 73 22
77 15 2 26 8 25 15 -2 7 3 10 10 7 8 -3 18 6 25 20 6 14 23 43 37 65 21 34 31
41 58 41 17 0 37 -4 42 -8z m460 -709 c8 -46 77 -128 138 -163 45 -26 62 -30
128 -30 68 0 80 3 116 29 23 16 54 47 69 68 15 21 38 48 50 60 l23 23 -6 -53
c-7 -58 -75 -266 -121 -368 -16 -36 -43 -77 -61 -91 -34 -29 -131 -61 -164
-55 -18 3 -16 5 11 12 25 6 31 12 27 25 -6 19 11 71 26 81 5 3 12 23 16 45 3
21 21 70 40 108 18 38 32 71 29 73 -3 3 -27 7 -53 10 -73 7 -167 42 -222 84
-42 32 -49 34 -42 16 13 -35 -27 -177 -51 -177 -4 0 -8 -6 -8 -14 0 -7 -9 -25
-20 -39 -12 -14 -20 -40 -20 -61 0 -20 -4 -36 -8 -36 -5 0 -21 22 -35 49 -32
58 -35 125 -11 198 19 57 98 244 122 291 l17 33 3 -43 c1 -24 4 -57 7 -75z
m-2048 -44 c63 -42 83 -68 41 -54 -56 18 -105 17 -147 -4 -46 -24 -47 -26 -26
-47 8 -9 15 -21 15 -28 0 -13 -67 -73 -130 -116 -45 -31 -51 -41 -37 -60 7 -8
-10 4 -38 26 -33 28 -64 44 -93 49 l-43 7 7 -39 c6 -36 5 -37 -11 -22 -25 24
-12 86 34 157 62 96 147 153 254 171 74 13 102 6 174 -40z m-1347 -51 c19 -6
51 -22 70 -34 19 -13 46 -24 60 -24 30 0 88 -34 97 -56 3 -8 1 -20 -5 -26 -16
-16 -45 -1 -64 32 -15 26 -23 30 -60 30 -24 0 -52 7 -62 15 -10 8 -23 12 -27
9 -5 -3 -9 0 -9 5 0 6 -21 11 -49 11 -41 0 -50 3 -54 21 -5 19 -11 21 -41 15
-40 -8 -48 0 -13 14 25 10 103 4 157 -12z m1431 -39 c-38 -23 -69 -68 -53 -78
13 -8 4 -24 -23 -39 -19 -11 -18 -11 7 -12 l27 0 -24 -42 c-30 -52 -33 -77 -4
-28 39 66 69 75 114 34 23 -21 26 -28 14 -36 -10 -7 -9 -8 6 -3 11 3 25 7 30
8 6 1 14 11 18 21 7 18 10 17 36 -15 16 -19 55 -48 87 -64 105 -52 272 -45
399 16 33 17 52 24 43 16 -16 -13 -9 -15 59 -20 95 -7 109 -1 22 9 l-64 8 95
13 c54 8 116 24 143 37 39 19 47 20 43 7 -24 -81 -38 -206 -32 -296 3 -55 9
-111 12 -125 5 -23 5 -24 -7 -5 -17 28 -32 36 -41 22 -11 -17 -27 29 -38 108
l-9 70 5 -79 c3 -43 8 -92 11 -107 4 -23 1 -31 -18 -39 -13 -6 -51 -29 -84
-50 -65 -44 -144 -83 -187 -94 -16 -3 -28 -11 -28 -16 0 -5 -34 12 -75 39 -49
32 -99 56 -145 67 -67 18 -70 20 -71 49 -2 28 -2 28 -6 4 -4 -26 -6 -27 -76
-28 -40 0 -86 -5 -103 -10 -28 -8 -33 -5 -70 37 -71 83 -78 89 -82 69 -2 -9
-7 -17 -12 -17 -38 0 -61 170 -34 257 3 10 -4 1 -15 -19 -13 -23 -26 -35 -35
-32 -18 7 -26 -26 -26 -114 0 -57 6 -89 31 -153 17 -44 39 -88 49 -97 18 -18
34 -102 19 -102 -15 0 -57 71 -80 135 -17 47 -23 90 -27 197 -4 126 -2 144 22
229 15 51 39 115 54 143 35 63 126 161 142 151 8 -5 1 -13 -19 -26z m1443 -12
c72 -33 185 -121 172 -135 -8 -7 -66 19 -66 29 0 19 -75 7 -135 -21 -69 -33
-115 -78 -148 -147 l-22 -45 -67 4 c-44 4 -78 12 -100 26 -18 12 -29 22 -25
22 4 0 19 -7 32 -16 14 -9 54 -19 89 -21 60 -5 63 -4 69 18 12 45 7 54 -48 83
-30 16 -55 32 -55 37 0 5 -8 9 -17 9 -17 1 -17 1 0 11 26 15 20 36 -13 42 -34
7 -60 0 -77 -22 -20 -26 -15 -2 9 40 24 43 82 86 143 106 66 21 189 12 259
-20z m-2374 -202 c86 -55 135 -111 155 -177 18 -61 12 -138 -12 -138 -8 0 -12
4 -9 8 5 9 0 12 -91 52 -29 13 -55 32 -59 42 -9 29 -24 21 -24 -13 0 -34 -62
-119 -87 -119 -9 0 -5 9 12 26 46 46 68 103 73 190 4 75 2 85 -22 120 -28 41
-35 70 -13 58 6 -4 41 -26 77 -49z m2708 27 c2 -13 -7 -35 -23 -53 -45 -55
-58 -90 -59 -164 0 -54 5 -80 22 -112 27 -52 28 -64 3 -32 -10 13 -25 47 -33
74 l-14 50 -137 0 -137 0 0 25 c1 33 30 97 65 138 61 73 137 102 260 98 44 -1
50 -4 53 -24z m-2238 -72 c31 -25 120 -166 108 -174 -18 -12 -264 -106 -277
-106 -4 0 -20 28 -36 63 -19 39 -49 81 -83 114 -30 28 -52 57 -50 64 3 8 47
28 99 46 118 41 181 39 239 -7z m-636 -32 c9 -12 16 -37 16 -56 0 -18 4 -31 9
-28 5 4 7 -3 4 -14 -4 -17 -15 -20 -62 -22 l-56 -2 48 -3 c60 -5 52 -23 -11
-23 -48 0 -75 10 -72 26 1 5 -1 36 -5 68 -7 69 -2 76 67 76 37 0 50 -5 62 -22z
m-207 -287 c23 -11 55 -21 71 -21 16 0 35 -7 43 -16 20 -24 99 -60 148 -68 44
-7 101 -39 101 -57 0 -15 -142 -10 -198 6 -94 28 -262 158 -262 203 0 10 7 8
28 -6 15 -11 46 -29 69 -41z m59 -325 c17 -14 18 -16 3 -31 -57 -58 -433 -65
-505 -10 -17 13 -15 13 16 1 48 -18 122 -27 113 -13 -4 6 2 8 15 5 15 -4 22
-2 22 8 0 8 6 14 14 14 8 0 17 8 19 18 4 13 5 11 6 -5 1 -19 7 -23 35 -23 19
0 42 7 51 16 11 12 34 16 80 16 36 0 65 4 65 9 0 14 44 11 66 -5z m3499 -26
c146 -11 407 -52 493 -78 37 -12 58 -24 60 -35 5 -23 -20 -22 -88 2 -82 29
-202 58 -320 77 -83 14 -168 18 -400 18 -285 0 -337 -4 -545 -39 -17 -3 -25
-2 -20 4 14 12 217 41 360 50 172 12 311 12 460 1z m-4501 -22 c-4 -7 -16 -23
-27 -35 -63 -70 69 -140 333 -178 120 -17 326 -20 335 -5 3 6 15 10 26 10 11
0 17 5 14 10 -3 6 -31 10 -62 10 -31 0 -54 2 -52 4 2 2 87 6 189 9 155 4 171
3 101 -5 -76 -9 -83 -12 -66 -24 25 -19 143 -18 287 1 152 20 257 48 351 95
55 27 73 32 61 19 -56 -62 -225 -111 -535 -153 -125 -18 -179 -39 -179 -72 0
-18 7 -24 33 -27 17 -2 -3 -5 -45 -5 l-78 -2 0 28 c0 15 -4 32 -8 38 -4 7 -71
16 -157 23 -346 28 -539 78 -584 153 -25 40 -12 79 32 101 40 20 40 20 31 5z
m4386 -129 c94 -11 170 -40 170 -63 0 -59 -318 -98 -494 -61 -121 26 -148 62
-72 96 78 34 251 47 396 28z m-4864 -37 c-3 -5 -34 -17 -68 -27 -91 -25 -288
-121 -288 -140 0 -9 11 -20 26 -25 20 -8 450 -45 598 -51 28 -2 27 -2 -9 -8
l-40 -7 55 -11 c30 -7 134 -17 230 -23 96 -5 211 -12 255 -15 165 -10 309 -14
292 -9 -10 3 -84 12 -165 19 l-147 14 115 -5 c239 -10 756 -43 845 -53 l70 -8
-55 -2 c-62 -1 -109 -21 -52 -21 18 0 124 -7 235 -15 347 -26 964 -66 1157
-75 102 -5 223 -12 270 -15 61 -5 81 -4 70 4 -8 6 -37 12 -65 13 -44 1 -46 2
-12 5 21 2 138 -3 260 -12 122 -9 294 -20 381 -25 98 -6 163 -14 170 -21 8 -9
0 -10 -36 -6 -83 11 -369 29 -375 24 -2 -3 24 -8 59 -11 35 -3 113 -10 173
-16 61 -5 193 -14 295 -20 102 -6 230 -13 285 -16 107 -7 124 3 28 17 -85 11
254 1 492 -16 366 -26 440 -28 530 -15 83 12 91 15 198 87 191 129 266 173
281 167 8 -3 17 -1 21 5 3 7 0 8 -9 5 -36 -14 -11 8 62 56 42 28 62 38 43 22
-19 -16 -32 -34 -30 -41 3 -8 11 -5 26 9 12 11 35 21 50 22 45 3 189 101 177
120 -4 7 -2 8 4 4 7 -4 12 -3 12 1 0 21 -46 31 -165 38 -125 7 -221 23 -150
24 17 0 88 -4 159 -9 128 -9 176 -24 176 -54 0 -22 -624 -456 -698 -485 l-47
-19 -7 -108 c-4 -60 -10 -114 -13 -121 -6 -17 -76 -17 -71 -1 3 7 7 59 10 116
l6 102 -112 0 c-62 0 -171 4 -243 10 -71 5 -206 14 -300 20 -197 11 -740 45
-965 60 -85 6 -229 15 -320 20 -261 15 -2439 163 -3163 215 -114 9 -345 20
-513 26 -169 5 -312 11 -318 12 -14 3 -20 -103 -9 -157 8 -38 9 -39 58 -42 54
-4 172 -18 330 -39 l100 -13 -135 4 c-206 8 -401 23 -443 35 -20 5 -43 20 -51
32 -14 23 -29 218 -20 254 7 25 39 40 239 115 88 32 180 67 205 77 46 19 56
19 46 3z m3088 -208 c24 -9 20 -27 -13 -58 -28 -27 -30 -28 -107 -19 -46 5
-79 13 -81 20 -3 7 8 24 23 38 23 22 36 25 95 25 37 0 74 -3 83 -6z m-1936
-426 c63 -31 89 -81 69 -130 -8 -19 -40 -57 -71 -84 -56 -51 -61 -64 -22 -64
36 0 83 -36 102 -79 27 -59 47 -53 74 22 31 85 101 249 113 265 6 7 19 11 28
9 10 -3 26 1 36 9 10 7 26 14 36 14 9 0 17 5 17 10 0 6 5 10 10 10 6 0 10 -9
10 -20 0 -11 4 -28 9 -38 6 -9 18 -71 28 -137 17 -110 20 -120 41 -123 15 -2
22 -11 23 -25 0 -12 9 4 19 35 36 117 113 209 203 243 88 33 171 -8 169 -85
-1 -44 -22 -101 -34 -94 -6 4 -13 1 -17 -5 -13 -21 -40 0 -47 35 -8 45 -33 45
-79 -1 -47 -47 -76 -107 -82 -169 -4 -43 -1 -56 18 -80 19 -24 27 -28 60 -23
20 3 64 23 98 46 34 23 61 40 61 37 0 -3 -4 -16 -10 -30 -11 -30 -8 -32 29
-10 27 16 29 25 54 173 32 190 38 211 66 204 13 -3 21 -1 21 7 0 7 8 9 20 5
11 -4 20 -2 20 4 0 19 15 11 27 -14 9 -20 8 -40 -3 -92 -7 -37 -12 -68 -10
-70 1 -2 41 30 87 70 101 88 146 120 157 113 5 -3 20 6 32 19 13 14 28 25 34
25 5 0 -4 -15 -22 -33 -36 -37 -41 -53 -13 -37 27 14 36 13 21 -5 -6 -8 -9
-19 -5 -25 9 -14 -13 -39 -90 -103 -33 -27 -79 -67 -103 -89 l-43 -39 97 -120
c53 -66 98 -118 101 -115 2 2 -1 13 -8 23 -13 22 -4 97 12 88 5 -4 9 -1 9 5 0
7 6 10 14 7 7 -3 18 -1 23 4 5 5 14 -5 22 -26 8 -23 20 -37 37 -41 58 -15 149
22 149 61 0 12 -30 33 -94 66 -108 56 -124 69 -141 110 -25 59 19 125 119 178
128 68 241 43 241 -54 0 -29 -28 -90 -37 -81 -3 3 -12 -2 -19 -12 -8 -10 -13
-12 -14 -4 0 6 -7 12 -15 12 -10 0 -15 10 -15 30 0 20 -5 30 -15 30 -29 0 -96
-33 -107 -53 -13 -25 -5 -31 104 -89 134 -69 170 -138 111 -208 -36 -43 -86
-73 -165 -98 -65 -21 -118 -29 -105 -15 7 6 -84 53 -92 47 -2 -1 18 -30 44
-63 25 -34 44 -61 42 -61 -2 0 -27 18 -57 40 -55 41 -78 46 -45 10 24 -26 11
-26 -26 1 -24 17 -39 20 -77 16 -42 -5 -44 -5 -19 5 15 7 27 15 27 18 0 4 -24
31 -53 61 -29 30 -73 77 -98 106 l-46 52 -11 -52 c-7 -29 -15 -71 -18 -95 -4
-23 -11 -45 -16 -48 -6 -4 -7 2 -3 15 3 11 2 21 -3 21 -12 0 -31 -39 -35 -75
-3 -25 -4 -23 -6 10 -1 22 -6 47 -11 55 -9 13 -11 13 -21 0 -7 -11 -9 5 -7 58
l4 72 -71 -70 c-39 -38 -74 -70 -78 -70 -5 0 -15 -7 -23 -15 -9 -8 -26 -15
-38 -15 -31 0 -105 34 -135 61 -25 24 -60 94 -61 122 0 17 -25 24 -34 9 -2 -4
2 -41 10 -82 17 -89 17 -89 3 -70 -8 11 -9 1 -6 -40 5 -53 5 -54 -8 -25 -8 17
-14 36 -15 44 0 10 -3 11 -14 2 -12 -10 -16 -8 -21 10 -5 16 -9 18 -15 9 -8
-13 -10 -8 -38 100 -10 39 -12 39 -109 19 l-52 -10 -22 -63 c-14 -39 -28 -62
-35 -59 -6 2 -18 -10 -25 -26 -18 -39 -25 -39 -33 1 -6 30 -7 31 -21 12 -19
-25 -19 -10 1 56 11 38 13 55 5 58 -6 2 -8 9 -5 15 4 7 -17 -11 -47 -40 -30
-28 -84 -71 -122 -96 -37 -24 -65 -46 -62 -49 3 -3 -20 -18 -52 -34 -76 -38
-77 -38 -69 -25 4 6 1 11 -8 11 -9 0 -18 -12 -22 -27 -9 -44 -12 -50 -13 -25
-1 12 -5 22 -10 22 -12 0 -21 -37 -21 -87 0 -24 -5 -43 -11 -43 -5 0 -7 5 -4
10 9 14 -5 100 -16 100 -5 0 -9 -7 -9 -15 0 -8 -4 -15 -10 -15 -5 0 -10 7 -10
16 0 16 -11 16 -67 -2 -17 -5 -17 -5 0 9 22 19 22 27 -3 27 -23 0 -27 15 -5
24 21 8 19 29 -2 22 -24 -8 14 23 56 46 31 17 31 18 31 96 0 44 3 94 6 111 5
24 3 31 -10 31 -15 0 -21 16 -18 53 1 9 -4 17 -11 17 -6 0 2 9 20 21 25 16 34
31 42 70 6 28 11 66 11 85 l0 34 -37 -16 c-34 -15 -116 -32 -85 -18 19 9 14
34 -8 34 -10 0 -43 -9 -71 -20 -72 -29 -71 -19 2 15 57 28 109 68 67 52 -26
-9 -22 8 5 25 36 24 155 69 221 84 87 20 204 12 264 -18z m-1423 -211 c9 -98
20 -233 25 -300 5 -67 16 -196 24 -287 8 -91 17 -219 21 -285 4 -66 9 -129 12
-140 3 -13 2 -17 -5 -10 -5 6 -15 60 -21 120 -26 255 -81 968 -81 1059 0 70
10 8 25 -157z m3903 91 c6 -40 16 -111 23 -158 12 -97 13 -100 39 -100 13 0
17 -5 14 -15 -4 -8 -2 -15 4 -15 5 0 17 21 27 48 38 100 126 195 222 239 45
21 66 24 115 21 53 -4 64 -9 85 -34 19 -23 22 -36 17 -64 -9 -52 -32 -90 -49
-84 -8 4 -15 1 -15 -5 0 -8 -6 -7 -20 1 -12 8 -20 24 -20 40 0 53 -68 30 -143
-48 -71 -74 -100 -182 -60 -226 24 -27 80 -23 127 10 57 39 57 52 2 52 -34 0
-46 4 -47 15 -5 70 -5 69 37 76 21 4 78 10 126 14 l87 7 -3 -34 c-2 -18 -13
-58 -24 -88 -11 -30 -33 -95 -48 -145 -20 -67 -29 -85 -35 -70 -6 17 -9 15
-23 -17 -9 -21 -16 -45 -16 -54 0 -10 -3 -14 -7 -10 -4 4 -6 25 -4 46 3 40
-13 55 -23 23 -2 -10 -4 2 -4 27 0 25 -1 48 -1 52 -1 3 -21 -4 -47 -18 -52
-28 -69 -29 -117 -9 -74 31 -127 97 -127 160 0 20 -5 25 -25 25 -21 0 -25 -4
-20 -22 13 -57 21 -138 14 -138 -4 0 -10 8 -13 18 -3 9 -3 -11 -1 -46 5 -66
-8 -77 -19 -16 -4 21 -12 34 -19 31 -7 -2 -17 5 -24 17 -7 12 -12 15 -13 9 0
-7 -4 -13 -9 -13 -5 0 -12 21 -16 48 -14 100 -10 95 -79 88 -105 -12 -105 -12
-142 -90 -19 -39 -34 -63 -34 -53 0 31 -19 18 -45 -30 -23 -42 -25 -44 -21
-18 5 33 -11 70 -21 48 -2 -7 -8 -13 -13 -13 -5 0 2 26 15 58 17 41 20 58 11
60 -15 3 -17 62 -3 62 5 0 4 6 -2 14 -13 15 4 26 38 26 13 0 35 34 77 118 32
64 60 120 62 123 1 4 -8 5 -20 3 -13 -1 -62 -8 -109 -14 l-86 -12 -15 -56 c-9
-31 -33 -129 -54 -217 -29 -119 -40 -152 -44 -130 l-5 30 -22 -36 c-12 -19
-27 -46 -33 -60 -8 -19 -9 -14 -4 27 3 33 2 54 -5 59 -6 3 -11 1 -11 -4 0 -6
-5 -11 -10 -11 -6 0 -8 17 -4 43 7 52 53 295 61 321 6 20 -1 20 -121 0 -34 -6
-38 -5 -33 9 3 9 2 19 -2 22 -11 6 -7 63 5 75 5 5 45 14 89 20 44 6 91 16 105
22 28 12 264 21 294 11 19 -5 19 -6 2 -18 -12 -10 -14 -15 -5 -20 8 -6 5 -12
-11 -20 -22 -12 -22 -13 14 -17 34 -4 39 -1 57 32 17 29 27 37 52 37 47 2 97
14 97 24 0 5 4 9 9 9 4 0 13 -33 19 -72z m1094 -43 c7 -11 17 -15 33 -11 13 3
26 2 30 -3 3 -5 -15 -13 -39 -16 -25 -4 -53 -13 -63 -21 -17 -12 -16 -13 7
-14 48 -1 -2 -17 -75 -24 -191 -17 -182 -15 -188 -44 -3 -15 -9 -35 -13 -45
-6 -17 -1 -19 62 -17 38 1 82 2 98 1 28 -1 29 -2 10 -16 -19 -14 -18 -14 4
-15 33 0 27 -16 -10 -25 -28 -6 -30 -8 -13 -14 18 -7 17 -8 -5 -14 -14 -3 -62
-9 -107 -13 l-81 -7 -12 -41 c-6 -22 -11 -45 -11 -50 1 -5 70 -8 154 -7 88 1
158 -3 167 -9 12 -8 9 -10 -13 -10 -16 0 -26 -4 -22 -10 3 -5 36 -11 73 -11
66 -2 62 -3 -45 -15 -54 -6 -74 -24 -26 -24 14 0 24 -2 22 -4 -2 -2 -76 -10
-164 -16 -88 -7 -172 -18 -187 -25 -20 -10 -28 -10 -32 -1 -2 6 -8 1 -11 -11
-8 -26 -25 -31 -25 -8 0 9 -9 15 -24 15 -25 0 -36 19 -41 72 -2 21 2 28 18 30
16 2 25 17 38 61 13 44 14 59 5 63 -20 8 -7 72 16 80 19 6 29 24 42 76 5 22 2
27 -16 30 -22 3 -34 43 -16 54 4 3 8 13 8 23 0 32 65 50 189 50 63 1 117 4
120 7 3 3 35 4 70 1 46 -4 67 -10 73 -22z m-4357 -534 c26 -5 30 -10 30 -41 0
-34 -1 -35 -45 -38 -25 -1 -65 1 -90 6 -36 6 -46 12 -48 30 -7 44 3 52 65 51
32 -1 72 -4 88 -8z m1714 -26 c33 -10 69 -31 88 -50 33 -33 33 -35 19 -63 -16
-31 -62 -65 -141 -102 -38 -18 -45 -25 -30 -27 124 -24 185 -64 185 -121 0
-31 -8 -44 -53 -87 -60 -56 -108 -82 -241 -132 -68 -25 -81 -32 -51 -29 51 7
41 2 -68 -29 -95 -27 -110 -30 -87 -15 12 8 12 10 -5 9 -11 0 -38 -6 -60 -13
-34 -10 -41 -17 -51 -51 l-12 -40 -1 38 c-1 34 -3 37 -21 27 -11 -6 -22 -25
-25 -48 -17 -102 -24 -117 -19 -39 4 71 3 78 -13 75 -9 -2 -20 -14 -24 -28 -5
-21 -7 -23 -14 -7 -12 28 1 44 42 50 52 7 392 109 476 142 71 29 88 47 21 21
-22 -8 -48 -17 -59 -22 -43 -16 -83 -11 -140 19 -13 7 -20 6 -23 -2 -2 -6 -7
-9 -11 -7 -4 3 -41 -4 -82 -14 -41 -11 -77 -20 -80 -20 -4 0 2 17 12 37 10 21
19 42 19 48 0 9 -107 12 -114 3 -2 -1 -6 -22 -10 -46 -5 -32 -3 -42 5 -36 7 4
10 1 7 -7 -3 -8 -33 -22 -68 -31 -65 -18 -86 -28 -57 -28 9 0 17 -4 17 -10 0
-5 -8 -6 -17 -3 -16 6 -16 5 -4 -10 12 -15 10 -17 -25 -16 -34 0 -36 2 -16 9
24 10 30 30 10 30 -22 1 23 22 70 34 l45 12 24 89 c12 50 25 100 29 113 5 17
2 22 -12 22 -16 0 -17 2 -4 10 13 8 12 10 -2 10 -20 0 -24 15 -7 26 8 4 7 9
-2 15 -13 7 -4 12 56 33 6 2 23 39 38 81 l27 78 -37 -7 c-53 -10 -122 -16
-100 -10 25 8 21 21 -10 29 l-26 6 31 19 c39 24 41 32 5 24 -23 -5 -26 -4 -16
7 7 7 59 23 115 35 90 20 125 23 273 20 126 -2 184 -8 224 -21z m793 -3 c2 -5
35 -5 73 -1 39 4 108 8 155 8 l85 -1 -50 -13 c-49 -12 -49 -13 -15 -15 33 -2
33 -3 10 -10 -39 -12 36 -12 206 1 143 11 249 5 194 -11 -24 -7 -24 -8 10 -16
l35 -8 -55 -17 c-44 -14 -49 -18 -26 -18 19 -1 26 -5 20 -10 -5 -5 -64 -15
-132 -22 l-124 -13 -19 -37 c-10 -21 -19 -41 -19 -45 0 -3 37 -3 83 0 48 5 92
3 107 -3 25 -10 25 -10 2 -10 -29 -1 -19 -21 11 -22 20 -1 21 -2 2 -6 -11 -3
-31 -10 -45 -16 l-25 -10 25 -7 c18 -5 6 -8 -45 -14 -171 -17 -159 -12 -177
-64 -10 -25 -15 -48 -14 -50 2 -2 69 1 148 6 79 5 164 6 188 2 39 -6 40 -8 13
-9 -18 0 -33 -5 -33 -10 0 -10 73 -25 101 -21 8 1 21 1 29 0 8 -2 -19 -6 -60
-10 -41 -4 -91 -10 -110 -14 l-35 -6 30 14 30 14 -27 7 c-16 4 -25 12 -22 17
6 9 -104 6 -253 -6 -10 0 -17 4 -16 9 9 61 10 60 -30 63 -20 2 -35 7 -32 13 4
5 2 9 -2 9 -10 0 -33 -58 -33 -83 0 -9 -14 -24 -31 -32 -23 -12 -28 -19 -20
-29 13 -16 4 -26 -22 -26 -17 0 -18 2 -6 16 10 13 10 17 0 24 -9 5 -3 11 21
19 29 10 37 19 51 63 16 50 15 74 -3 63 -10 -6 -7 35 4 53 5 8 1 10 -11 7 -10
-3 0 3 22 14 39 19 64 55 65 94 0 9 -6 17 -14 17 -8 0 -12 9 -10 26 2 22 -1
25 -24 20 -15 -3 -57 -8 -93 -12 l-67 -6 -51 -137 c-100 -264 -116 -303 -119
-288 -2 8 8 42 22 75 33 84 41 122 24 123 -45 4 -93 -2 -100 -13 -4 -7 -20
-51 -34 -98 -14 -47 -30 -89 -36 -95 -15 -15 -1 32 59 210 74 217 72 209 37
201 -28 -5 -73 -12 -144 -22 -32 -4 -33 -3 -17 10 18 14 18 15 0 24 -17 10
-17 11 2 32 16 18 17 23 5 30 -22 14 23 27 141 40 57 7 109 16 114 20 6 5 21
10 35 13 14 2 28 5 32 6 3 0 8 -3 10 -7z m1088 -20 c22 -10 36 -26 38 -39 2
-13 8 -23 14 -23 13 0 2 -44 -18 -75 -9 -13 -22 -21 -29 -19 -8 3 -16 -4 -21
-18 l-7 -23 -9 24 c-7 19 -11 21 -22 11 -12 -9 -15 -6 -18 22 -3 32 -4 33 -46
31 -48 -2 -147 -51 -147 -72 0 -10 47 -33 132 -67 146 -57 217 -95 233 -124
13 -24 13 -67 0 -75 -5 -3 -10 -15 -10 -26 0 -10 -6 -19 -12 -19 -7 0 -22 -8
-33 -16 -18 -14 -15 -15 50 -9 39 3 80 8 93 11 12 2 22 0 22 -4 0 -5 -48 -14
-108 -20 -74 -8 -124 -19 -162 -36 -30 -13 -90 -39 -133 -56 -43 -18 -75 -35
-72 -38 5 -6 -82 -45 -128 -57 -20 -5 -20 -4 3 9 14 9 22 15 19 16 -10 0 -108
-36 -189 -70 -108 -46 -120 -50 -120 -44 0 3 35 21 78 41 42 20 72 38 66 40
-6 2 -82 -21 -169 -52 -149 -52 -200 -66 -165 -46 61 36 332 122 385 123 40 0
258 75 356 121 l54 25 -53 1 c-30 1 -63 8 -77 17 -22 14 -28 13 -92 -14 -37
-16 -124 -53 -193 -82 -69 -29 -136 -60 -150 -70 -43 -30 -111 -61 -123 -57
-7 2 44 31 113 64 148 72 260 123 266 123 9 0 270 129 287 142 11 8 16 20 12
30 -7 17 -28 27 -190 89 -116 45 -165 81 -165 121 0 62 99 140 235 184 85 28
158 30 205 6z m-1475 -12 c-3 -5 -1 -17 5 -27 9 -14 3 -42 -28 -133 -22 -63
-52 -151 -68 -195 -15 -44 -38 -107 -51 -140 -30 -76 -22 -22 13 83 27 82 28
86 14 77 -5 -3 -10 -2 -10 2 0 5 -9 9 -20 10 -11 1 -20 -3 -20 -9 0 -6 -8 -8
-19 -5 -29 7 -49 -25 -73 -121 -14 -52 -24 -78 -26 -64 -2 13 10 69 27 125 18
56 45 147 62 202 39 127 68 193 78 176 7 -10 15 -10 42 2 19 7 39 12 46 10 6
-2 14 1 18 6 3 6 8 11 11 11 3 0 3 -4 -1 -10z m-2347 -162 c16 -13 16 -65 0
-74 -18 -11 -108 -8 -140 5 -23 9 -28 17 -28 44 0 19 3 37 7 41 10 10 145 -4
161 -16z m250 -20 c20 -20 15 -69 -8 -75 -11 -3 -20 -8 -20 -12 0 -3 9 -12 20
-19 25 -15 28 -70 4 -79 -8 -3 -48 -2 -87 3 l-72 9 -3 37 c-3 35 -2 37 30 40
l33 3 -32 18 c-28 15 -33 23 -33 52 l0 35 78 0 c47 0 83 -5 90 -12z m4687
-147 c26 -5 30 -11 33 -44 l3 -37 -58 0 c-32 0 -75 3 -95 6 -36 6 -38 8 -38
45 l0 39 63 -1 c34 -1 76 -4 92 -8z m-15 -119 c43 -7 45 -8 45 -42 0 -34 -2
-35 -40 -38 -22 -2 -64 -1 -92 3 l-53 6 0 40 0 39 48 -1 c26 0 67 -4 92 -7z
m-2418 -95 l-17 -52 340 -2 c187 -1 356 -6 375 -11 23 -6 -63 -8 -250 -4 -453
8 -843 -22 -1100 -83 -61 -15 -110 -29 -108 -30 2 -2 116 11 253 30 301 41
629 66 700 55 28 -5 147 -7 265 -5 l215 4 -215 -13 c-314 -20 -517 -44 -675
-81 -22 -6 -27 -5 -20 4 15 15 239 60 349 70 l91 8 -90 1 c-141 2 -415 -25
-693 -69 -106 -17 -208 -29 -225 -27 l-32 3 31 17 c76 41 326 88 577 108 197
16 197 16 213 70 8 25 14 59 14 75 1 29 2 29 11 7 6 -16 4 -38 -9 -75z m-2978
28 c-17 -43 42 -59 291 -80 99 -8 195 -19 214 -25 36 -10 259 -31 536 -51 281
-19 471 -36 430 -38 -22 0 -101 3 -175 9 -268 19 -778 50 -915 55 -77 3 -177
8 -222 10 l-83 5 0 -33 c0 -21 -3 -27 -9 -19 -4 7 -14 12 -22 10 -9 -2 -15 7
-17 23 -2 17 -12 31 -28 38 -50 23 -64 10 -64 -57 0 -64 -18 -21 -21 49 -3 76
2 86 45 105 40 17 47 17 40 -1z m6656 -26 c9 -15 -10 -29 -158 -110 -92 -50
-241 -133 -332 -184 -91 -51 -193 -102 -227 -115 -38 -14 -65 -30 -68 -41 -3
-10 -12 -16 -20 -13 -8 4 -15 -3 -18 -18 -3 -19 -5 -17 -6 7 l-1 31 -377 23
c-208 12 -551 33 -763 47 -212 13 -401 24 -420 25 -21 1 -27 3 -14 6 12 2 178
-5 370 -17 904 -54 967 -56 1209 -34 45 4 56 2 45 -6 -29 -21 62 1 130 32 76
34 214 118 206 126 -3 2 29 25 72 49 119 69 155 86 185 89 28 4 123 50 162 80
19 14 19 16 3 28 -22 16 -23 27 -3 20 9 -4 20 -15 25 -25z m-1472 -10 c19 -7
23 -15 20 -41 -3 -31 -5 -33 -48 -36 -25 -1 -65 1 -90 6 -36 6 -46 12 -48 30
-7 47 3 53 76 51 37 -1 78 -6 90 -10z m250 -21 c7 -7 12 -24 12 -39 0 -36 -23
-43 -111 -34 -62 6 -71 10 -79 31 -18 46 -5 54 84 54 50 0 87 -5 94 -12z"/>
<path d="M3412 4588 c-1 -32 -5 -58 -9 -58 -4 0 -38 12 -76 27 -65 25 -71 26
-110 12 -35 -12 -47 -23 -72 -69 -27 -50 -30 -65 -33 -172 -6 -178 30 -327
102 -421 58 -75 185 -114 316 -97 145 19 204 11 383 -51 l67 -24 0 -60 0 -60
-164 7 c-103 4 -174 12 -188 19 -32 18 -78 23 -78 8 0 -6 6 -9 14 -6 8 3 25
-3 37 -14 13 -11 31 -18 41 -16 10 3 16 1 13 -3 -3 -5 9 -11 27 -14 141 -22
183 -26 253 -22 44 3 80 5 80 6 0 1 9 3 19 5 81 15 162 41 191 61 19 13 35 21
35 18 0 -2 9 0 21 6 16 9 18 14 8 26 -10 12 -6 13 21 7 24 -4 31 -3 26 6 -4 6
0 19 10 28 12 12 13 18 4 21 -7 3 -2 9 12 16 12 6 24 20 27 31 2 13 -14 3 -54
-33 -31 -29 -62 -52 -70 -52 -7 0 -18 -6 -25 -14 -6 -8 -19 -12 -28 -9 -15 6
-15 5 -3 -10 7 -9 18 -14 24 -10 6 3 7 1 3 -5 -4 -7 -30 -12 -57 -12 -28 0
-48 -3 -46 -7 3 -5 -11 -9 -31 -11 -60 -4 -85 -11 -94 -24 -5 -9 -8 -5 -8 12
0 14 -3 42 -6 63 l-7 37 69 -6 c193 -18 321 77 390 289 24 70 27 100 28 207 1
111 -1 130 -21 167 -13 23 -37 52 -55 65 -29 20 -43 23 -123 22 -49 -1 -136
-11 -193 -23 -77 -16 -140 -21 -245 -21 -151 0 -220 11 -344 56 l-72 26 -4 66
-3 67 -2 -57z m18 -292 l35 -11 -2 -85 c-2 -47 0 -79 3 -72 6 13 35 15 71 6
22 -6 37 -40 25 -58 -3 -6 -5 -23 -3 -38 2 -21 -2 -28 -16 -29 -16 -1 -17 -2
0 -6 10 -3 17 -14 17 -29 0 -21 -5 -24 -34 -24 -19 0 -41 7 -49 15 -9 8 -17
11 -19 7 -2 -5 -32 -1 -68 7 -62 15 -65 17 -71 51 -5 30 -7 31 -8 8 -1 -35
-10 -39 -47 -23 l-32 13 2 79 c1 85 -1 83 65 68 29 -6 33 -5 28 9 -4 9 -4 44
0 77 l6 60 31 -7 c17 -3 47 -12 66 -18z m764 -72 c16 -6 22 -45 9 -57 -3 -4
-6 -26 -6 -48 l0 -42 49 -1 c43 -1 49 -4 52 -23 2 -17 -2 -23 -14 -23 -14 0
-15 -3 -6 -12 18 -18 15 -58 -5 -58 -15 0 -15 -2 2 -14 16 -11 17 -16 6 -29
-10 -13 -37 -16 -137 -16 -122 -1 -124 -1 -125 22 -2 22 -2 22 -6 -2 -4 -21
-8 -23 -51 -16 -26 4 -48 8 -49 9 -1 1 0 26 4 54 5 44 9 52 27 53 20 2 20 2
-1 6 -17 3 -23 11 -23 30 0 25 1 25 60 21 l60 -4 2 40 c1 23 1 52 0 66 -3 45
4 50 72 50 35 0 71 -3 80 -6z"/>
<path d="M201 2193 c0 -38 4 -88 7 -113 6 -39 11 -45 40 -54 18 -5 35 -6 39
-2 8 7 6 148 -3 188 -5 24 -43 48 -75 48 -5 0 -9 -30 -8 -67z"/>
<path d="M1625 1494 c-11 -3 -29 -7 -41 -9 -21 -5 -25 -21 -50 -184 l-6 -44
62 34 c85 47 170 124 170 154 0 14 -8 28 -17 33 -23 12 -92 21 -118 16z"/>
<path d="M2469 1054 c-8 -3 -27 -34 -41 -70 l-26 -66 24 6 c52 13 191 67 223
87 31 19 33 22 17 31 -20 11 -171 20 -197 12z"/>
<path d="M2450 813 c-98 -15 -87 -4 -121 -114 -17 -55 -29 -102 -26 -105 8 -8
184 54 269 95 94 45 137 81 115 99 -26 22 -165 36 -237 25z"/>
</g>
</svg>
