<?xml version="1.0" standalone="no"?>
<!DOCTYPE svg PUBLIC "-//W3C//DTD SVG 20010904//EN"
 "http://www.w3.org/TR/2001/REC-SVG-20010904/DTD/svg10.dtd">
<svg version="1.0" xmlns="http://www.w3.org/2000/svg"
 width="720.000000pt" height="544.000000pt" viewBox="0 0 720.000000 544.000000"
 preserveAspectRatio="xMidYMid meet">
<metadata>
Created by potrace 1.16, written by Peter Selinger 2001-2019
</metadata>
<g transform="translate(0.000000,544.000000) scale(0.100000,-0.100000)"
fill="#000000" stroke="none">
<path d="M1948 5391 c-31 -28 -33 -33 -32 -98 1 -41 8 -84 19 -108 9 -22 24
-76 31 -120 8 -44 20 -95 26 -112 16 -43 8 -48 -36 -22 -50 29 -121 22 -151
-14 -11 -14 -33 -29 -50 -32 -16 -4 -38 -9 -48 -12 -9 -2 -27 -22 -38 -44 -11
-22 -41 -60 -66 -84 -41 -40 -45 -47 -39 -77 3 -18 26 -73 50 -123 24 -49 65
-133 90 -186 29 -62 58 -107 81 -128 l36 -31 -23 -31 c-36 -49 -30 -126 25
-289 64 -196 105 -280 157 -321 28 -22 51 -54 69 -94 45 -98 141 -162 228
-152 43 5 46 3 59 -28 7 -18 27 -44 43 -58 33 -27 187 -90 314 -127 68 -20 83
-22 112 -11 29 10 42 9 82 -4 34 -12 66 -15 108 -11 44 4 65 2 79 -9 11 -8 31
-15 45 -15 35 0 47 -10 55 -45 13 -56 94 -210 134 -256 24 -26 55 -50 74 -55
26 -8 34 -16 36 -37 l3 -27 -72 0 c-55 0 -75 4 -84 16 -16 22 -88 22 -110 0
-20 -20 -25 -20 -52 -1 -14 10 -57 18 -118 22 l-95 6 0 41 c0 46 -6 59 -35 73
-62 32 -180 19 -222 -23 l-24 -24 -72 26 c-202 73 -531 99 -814 65 l-63 -7 0
28 c0 28 0 28 -65 28 -65 0 -65 0 -65 -28 0 -28 -3 -30 -102 -56 -57 -15 -122
-36 -145 -46 -45 -20 -53 -18 -53 15 0 32 -20 45 -70 45 -57 0 -70 -12 -70
-67 l0 -43 -75 0 c-94 0 -132 -17 -137 -61 -3 -33 39 -15 -448 -199 -200 -76
-242 -95 -264 -119 -17 -18 -18 -33 -11 -152 7 -117 10 -135 29 -154 12 -12
28 -24 34 -26 7 -2 15 -27 18 -54 8 -82 104 -1259 104 -1281 0 -15 -12 -26
-39 -39 -22 -10 -50 -28 -62 -41 -19 -21 -21 -31 -17 -96 5 -62 9 -75 32 -95
48 -41 80 -45 786 -93 1014 -69 1669 -114 1970 -135 785 -57 1441 -106 1690
-127 222 -18 361 -22 863 -25 l597 -4 0 58 0 59 -292 18 c-161 9 -506 30 -765
47 -260 16 -487 30 -505 30 -22 1 -26 3 -11 6 12 2 257 -10 545 -28 504 -31
857 -41 1018 -27 50 5 67 4 50 -2 -18 -7 -12 -8 25 -4 27 3 79 19 115 35 94
43 211 119 204 131 -4 6 -2 8 4 4 5 -3 12 -3 14 2 3 7 76 51 205 123 18 10 33
13 35 8 3 -10 126 48 163 77 19 14 19 16 3 28 -24 18 -23 29 1 17 40 -22 32
-39 -32 -75 -34 -18 -185 -102 -335 -185 -150 -82 -300 -160 -332 -172 -33
-12 -57 -25 -54 -30 3 -5 0 -9 -5 -9 -7 0 -11 -23 -11 -55 l0 -55 76 0 76 0
277 161 c152 89 299 177 327 194 56 36 64 54 64 151 0 48 -3 55 -36 82 l-36
30 16 188 c19 228 40 520 66 908 l18 289 28 22 c25 20 29 31 35 101 4 44 8
120 8 170 1 141 1 142 -369 169 -118 9 -241 18 -272 21 l-58 6 0 43 c0 81 -10
106 -49 123 -40 17 -139 19 -167 4 -14 -7 -44 -5 -104 9 -47 10 -143 25 -215
34 -71 9 -140 19 -152 21 -12 2 -42 30 -67 61 l-47 58 8 65 c8 77 8 74 0 170
-3 41 -10 88 -16 103 -18 47 -60 94 -109 124 -40 24 -58 28 -124 28 -66 0 -80
4 -101 23 -19 18 -193 99 -269 125 -12 4 -18 17 -18 40 0 68 -103 189 -208
245 -69 37 -165 57 -226 48 -57 -9 -160 -60 -185 -93 -19 -23 -26 -25 -125
-26 -80 -2 -108 -6 -122 -18 -20 -17 -124 -35 -124 -21 0 4 28 26 63 49 77 51
189 153 216 197 20 32 22 32 80 28 54 -4 66 -1 108 25 27 17 69 42 94 56 118
67 187 215 176 382 -8 135 -68 241 -178 314 -79 52 -125 130 -86 144 20 6 -42
126 -75 143 -15 8 -36 31 -47 52 -36 71 -184 189 -316 252 -374 179 -867 102
-1172 -183 -95 -89 -230 -284 -210 -304 5 -4 12 -1 17 7 8 13 10 12 10 -2 0
-11 8 -18 20 -18 17 0 19 -4 14 -27 -9 -39 -13 -43 -34 -43 -26 0 -32 14 -20
44 6 17 6 26 0 26 -6 0 -10 -6 -10 -13 0 -7 -11 -23 -24 -35 -37 -31 -61 -137
-39 -164 9 -10 10 -33 5 -80 -7 -53 -14 -73 -44 -109 -48 -59 -68 -123 -68
-217 0 -181 74 -312 215 -378 67 -31 174 -64 210 -64 9 0 37 -20 61 -44 42
-43 43 -45 22 -51 -13 -4 -37 -18 -55 -31 l-31 -24 -57 25 c-68 30 -234 75
-279 75 -17 0 -42 7 -54 16 -22 15 -23 21 -17 78 6 51 2 74 -20 141 -47 139
-133 327 -165 360 l-31 32 41 83 c36 77 40 91 40 164 l0 79 -49 46 c-36 34
-53 58 -61 91 -7 25 -21 61 -31 82 -10 20 -28 81 -40 135 -12 54 -27 114 -34
133 -7 19 -25 81 -40 138 -15 56 -36 114 -47 127 -27 35 -69 33 -110 -4z
m1787 -281 c39 -12 73 -25 78 -29 4 -4 -7 -25 -24 -47 -30 -38 -79 -126 -79
-141 0 -4 13 16 29 44 36 65 89 133 104 133 6 0 29 -12 51 -27 108 -72 155
-116 196 -178 41 -63 43 -70 46 -153 5 -132 5 -155 -2 -320 -5 -132 -3 -169
16 -275 44 -245 42 -238 65 -231 11 4 29 14 40 23 38 31 -43 -58 -98 -107 -72
-66 -273 -182 -314 -182 -6 0 -26 20 -44 45 -18 25 -34 43 -36 41 -7 -6 16
-47 40 -73 11 -13 18 -25 15 -28 -12 -12 -238 -63 -308 -69 -196 -18 -413 50
-529 165 -77 77 -167 253 -208 407 -22 82 -26 120 -27 242 -1 135 1 151 28
230 36 109 68 171 121 240 121 156 286 263 470 305 88 21 280 13 370 -15z
m-1829 -178 c16 -10 40 -70 48 -118 l7 -39 -66 -16 c-39 -9 -68 -11 -72 -6 -3
5 -8 37 -11 72 -4 58 -2 65 21 89 26 26 52 32 73 18z m-122 -94 c3 -13 7 -49
10 -81 6 -55 5 -58 -20 -67 -68 -26 -94 -3 -94 85 0 35 5 48 26 64 36 28 72
28 78 -1z m511 -158 c39 -29 45 -44 35 -81 -11 -36 -57 -80 -57 -54 0 8 5 11
11 8 6 -4 -13 15 -42 43 -53 49 -53 49 -46 96 l7 48 36 -23 c20 -12 46 -29 56
-37z m2275 0 c28 -24 31 -28 12 -23 -12 3 -25 9 -28 14 -3 5 -17 9 -32 10 -24
0 -25 1 -7 9 16 7 13 9 -17 9 -44 1 -63 -16 -94 -84 -61 -132 -49 -352 29
-527 13 -30 30 -34 71 -18 30 11 59 3 49 -14 -4 -6 5 -3 20 7 29 19 41 22 32
8 -14 -24 -99 -71 -126 -71 -100 0 -174 153 -186 385 -5 109 -4 124 16 167 11
26 21 51 21 56 0 21 63 101 88 110 62 25 82 20 152 -38z m71 -71 c38 -38 70
-124 76 -204 9 -120 -28 -259 -76 -285 -26 -13 -33 -13 -56 3 -16 13 -16 14
11 10 25 -4 32 1 54 39 14 24 30 59 37 78 16 50 16 160 -2 209 -20 59 -84 151
-103 151 -15 0 -15 2 -2 10 23 15 38 12 61 -11z m-1984 -151 c-36 -48 -40 -70
-38 -193 2 -174 53 -319 147 -424 58 -64 55 -74 -11 -46 -20 8 -38 21 -41 29
-3 9 -10 13 -15 10 -5 -3 -14 6 -21 20 -6 14 -15 26 -20 26 -4 0 -8 5 -8 12 0
6 -9 30 -19 52 -33 69 -58 158 -66 229 -4 37 -10 65 -15 62 -5 -3 -12 0 -16 6
-4 6 0 16 9 21 16 9 34 74 23 85 -3 3 -13 0 -22 -8 -16 -13 -16 -12 -5 8 6 13
20 27 31 33 11 6 20 20 20 31 0 24 52 79 75 79 13 0 12 -6 -8 -32z m-281 -324
c109 -261 119 -305 88 -380 -18 -43 -80 -124 -95 -124 -5 0 -9 7 -9 16 0 9
-10 35 -21 58 -12 22 -28 53 -35 68 -8 14 -14 33 -14 42 0 9 -6 16 -13 16 -15
0 -65 84 -70 116 -1 10 -6 24 -10 31 -4 6 -4 18 -1 27 8 21 -1 20 -71 -4 -32
-11 -73 -20 -91 -20 -51 0 -65 -9 -53 -31 16 -31 59 -168 59 -189 0 -11 9 -34
20 -52 11 -18 20 -40 20 -49 0 -9 9 -26 20 -39 11 -13 23 -34 26 -47 4 -14 14
-23 24 -23 11 0 22 -5 26 -11 5 -9 -13 -11 -65 -7 -84 6 -110 21 -157 90 -29
43 -112 256 -140 363 -18 65 -18 156 0 180 12 17 14 14 21 -33 9 -65 42 -96
120 -112 44 -9 66 -8 115 4 89 23 132 49 186 111 l47 56 -20 49 c-12 27 -18
52 -15 55 15 15 67 -61 108 -161z m2325 -350 c30 -9 75 -29 101 -45 77 -50
169 -160 167 -201 0 -7 -4 -3 -9 9 -45 112 -252 41 -362 -124 -42 -64 -49 -64
-17 -2 11 23 19 42 17 43 -2 1 -25 15 -53 31 -27 15 -67 43 -88 62 -23 20 -45
32 -54 29 -8 -3 -23 -6 -33 -6 -10 0 -20 -6 -23 -13 -8 -23 20 -88 55 -125 30
-32 31 -33 6 -17 -47 29 -73 83 -71 145 1 72 23 120 75 164 73 63 181 82 289
50z m-1978 -145 c55 -17 117 -39 138 -50 62 -31 89 -90 41 -88 -14 0 -13 2 3
9 17 7 13 11 -28 29 -60 26 -66 26 -37 1 13 -11 26 -20 30 -20 4 0 10 -9 13
-20 4 -15 14 -20 36 -20 22 0 31 -5 31 -16 0 -13 -6 -15 -27 -9 -16 3 -39 8
-53 11 -25 4 -25 4 -3 -7 13 -7 28 -25 35 -40 7 -16 18 -29 25 -29 6 0 9 -9 6
-21 -5 -17 -11 -19 -32 -14 -48 13 -101 16 -101 7 0 -6 12 -13 26 -16 15 -4
24 -9 22 -12 -6 -5 -188 38 -230 55 -25 9 -27 13 -18 36 6 15 10 57 10 94 0
54 -4 74 -21 95 -11 14 -27 26 -35 26 -8 0 -14 2 -14 4 0 2 -3 12 -7 22 -5 15
-1 16 42 10 26 -4 93 -21 148 -37z m1532 -74 c-42 -106 -38 -287 9 -399 19
-47 19 -47 2 -40 -8 3 -16 -4 -19 -18 -9 -32 -22 -15 -58 73 -17 42 -27 59
-23 40 4 -19 19 -66 34 -103 15 -37 24 -68 19 -68 -5 0 -9 5 -9 10 0 13 -27
13 -43 0 -7 -5 -43 -35 -82 -68 -79 -65 -155 -112 -182 -112 -10 0 -51 14 -91
31 -47 19 -99 32 -143 36 -59 5 -72 9 -79 27 -9 21 -9 21 -9 -1 -1 -19 -7 -23
-36 -23 -19 0 -53 -7 -75 -16 l-41 -16 -28 29 c-38 40 -58 47 -64 21 -3 -11
-12 -18 -19 -16 -18 6 -58 111 -68 177 -10 69 -18 91 -35 91 -29 0 -34 -101
-9 -177 16 -48 71 -166 98 -213 24 -41 46 -93 42 -97 -13 -13 -115 161 -145
249 -29 85 -36 208 -16 303 17 79 44 148 45 113 0 -9 8 -19 18 -21 13 -4 11
-5 -5 -6 -32 -1 -29 -21 3 -21 21 0 25 -4 21 -20 -3 -11 -1 -18 4 -14 5 3 9
11 9 18 0 27 38 49 74 42 28 -5 33 -10 29 -26 -6 -21 5 -24 44 -14 13 4 20 10
17 15 -7 12 10 11 22 -1 5 -5 36 -16 69 -23 52 -12 68 -11 130 3 124 30 208
77 325 185 36 33 58 51 49 40 -21 -26 -31 -55 -19 -55 6 0 10 6 10 14 0 9 7
12 19 9 11 -3 27 4 37 14 11 11 54 32 97 47 42 16 80 32 83 38 16 26 11 -5
-11 -57z m858 -141 c96 -41 167 -81 167 -94 0 -5 -16 -2 -35 6 -53 22 -88 18
-131 -17 -22 -17 -49 -35 -61 -40 -28 -11 -80 -81 -88 -120 -8 -36 -12 -35
-142 27 -57 27 -93 50 -93 60 0 27 47 108 83 142 46 44 142 84 185 77 18 -3
70 -22 115 -41z m-2679 -161 c17 2 39 8 50 12 14 6 17 4 14 -11 -2 -10 -10
-18 -17 -16 -7 1 -10 -2 -6 -8 3 -5 13 -10 21 -10 8 0 34 -10 57 -21 23 -12
53 -25 67 -29 14 -5 56 -20 95 -34 38 -14 79 -26 90 -26 17 0 17 -2 5 -10 -26
-17 -56 -11 -181 30 -159 54 -244 93 -259 120 -11 20 -10 21 10 10 12 -7 36
-10 54 -7z m2998 -5 c96 -29 181 -147 182 -253 0 -70 -11 -135 -24 -135 -5 0
-20 19 -34 43 -54 91 -137 143 -250 157 -45 5 -64 3 -74 -7 -7 -7 -19 -13 -25
-13 -7 0 -6 5 3 11 8 6 10 9 3 7 -7 -2 -37 -21 -68 -43 -43 -31 -60 -52 -77
-93 -12 -29 -26 -48 -30 -44 -11 11 5 87 38 178 55 154 208 237 356 192z
m-769 -204 c29 -10 55 -27 69 -46 21 -30 133 -89 223 -118 57 -18 62 -26 37
-59 -12 -17 -31 -55 -43 -86 -11 -30 -26 -55 -32 -56 -7 0 -33 -4 -59 -8 l-48
-8 0 32 c0 44 -16 55 -81 55 -65 0 -76 -9 -81 -65 l-3 -40 -71 3 c-93 5 -142
-14 -151 -59 l-6 -31 -56 7 c-31 4 -58 9 -60 11 -2 2 0 18 5 36 7 24 20 38 49
53 89 43 194 199 235 348 7 26 16 47 20 47 3 0 27 -7 53 -16z m804 -118 c40
-18 81 -49 124 -92 58 -59 65 -86 11 -48 -21 14 -25 14 -57 -4 -29 -18 -35
-19 -46 -6 -19 23 -72 17 -98 -10 l-23 -25 -29 21 c-32 24 -96 20 -116 -8 -15
-20 -18 -13 -27 54 -8 52 11 100 50 131 25 20 37 22 90 18 35 -2 86 -16 121
-31z m-3344 -219 c20 -9 37 -20 37 -25 0 -76 -503 -90 -527 -15 -6 16 27 32
100 49 86 19 337 14 390 -9z m-992 -73 c-21 -27 -26 -59 -15 -89 15 -38 157
-85 334 -110 137 -19 353 -20 369 -2 16 20 3 27 -47 27 -25 0 -43 2 -41 4 2 2
83 6 179 9 157 4 166 4 90 -6 -47 -6 -74 -13 -61 -15 19 -3 21 -6 10 -13 -22
-14 153 -10 271 6 189 26 329 72 400 131 26 23 31 32 26 56 -3 18 -2 27 4 23
6 -3 10 -23 10 -44 0 -95 -165 -158 -528 -201 -150 -18 -180 -24 -194 -42 -29
-33 -23 -56 15 -61 17 -2 -3 -5 -45 -5 l-78 -2 0 40 c0 25 -5 40 -12 40 -7 0
-91 7 -186 15 -338 29 -487 66 -545 135 -35 41 -34 55 7 96 40 40 67 46 37 8z
m4287 -106 c6 -24 13 -55 16 -70 3 -14 9 -33 12 -42 5 -13 -1 -16 -25 -16 -39
0 -70 33 -93 100 -19 57 -11 70 43 70 35 0 37 -2 47 -42z m-4752 -46 c-3 -5
-34 -17 -68 -27 -88 -24 -288 -122 -288 -140 0 -31 27 -35 562 -72 49 -3 85
-10 82 -15 -3 -5 -12 -7 -20 -4 -7 3 -16 1 -18 -3 -3 -5 23 -11 57 -15 56 -6
560 -39 777 -50 l85 -5 -70 10 c-38 5 -135 16 -215 24 l-145 14 120 -5 c258
-11 748 -42 835 -53 l65 -8 -57 -2 c-58 -1 -95 -21 -39 -21 16 0 153 -9 303
-20 150 -11 388 -26 528 -35 140 -8 271 -17 290 -20 19 -3 130 -9 245 -15 116
-5 253 -12 305 -15 61 -3 86 -2 70 4 -14 5 -43 10 -65 12 -30 1 -34 3 -13 6
45 7 772 -48 783 -59 7 -7 4 -8 -10 -5 -25 8 -416 29 -421 24 -7 -6 375 -36
744 -58 210 -12 268 -8 140 9 -120 16 245 4 548 -19 299 -22 384 -23 486 -8
62 9 84 18 150 62 490 331 512 345 458 298 -39 -34 -39 -35 8 -22 20 6 30 6
27 0 -14 -21 18 -6 86 44 41 30 73 59 71 66 -1 7 2 10 8 6 5 -3 10 -2 10 3 0
19 -57 31 -194 41 -80 5 -143 15 -150 21 -8 9 -6 11 9 7 11 -4 85 -11 165 -17
144 -10 190 -24 190 -54 0 -22 -629 -460 -700 -487 l-45 -17 -7 -108 c-4 -60
-10 -114 -13 -121 -2 -7 -20 -13 -39 -13 -27 0 -33 4 -31 18 2 9 6 61 9 115
l5 97 -115 0 c-64 0 -211 7 -328 15 -259 17 -456 30 -776 50 -135 8 -315 20
-400 25 -85 6 -231 14 -325 20 -93 5 -267 17 -385 25 -118 8 -352 24 -520 35
-445 29 -1231 83 -1670 115 -664 48 -1136 73 -1397 75 l-33 0 1 -67 c1 -38 4
-81 8 -97 6 -26 9 -28 66 -32 33 -2 94 -9 135 -14 41 -6 122 -17 180 -25 l105
-13 -135 4 c-206 8 -401 23 -443 35 -20 5 -43 20 -51 32 -14 23 -29 218 -20
254 6 24 46 43 234 113 74 28 162 61 195 74 61 23 71 25 61 8z m3855 -27 c-62
-71 -32 -125 108 -191 68 -32 131 -50 307 -88 106 -23 345 -39 449 -31 50 4
140 7 200 6 270 -5 590 74 676 165 37 39 32 94 -11 140 l-35 37 33 -19 c17
-10 32 -22 32 -25 0 -4 9 -11 20 -14 12 -4 20 -15 20 -27 0 -12 16 -36 35 -55
26 -26 35 -42 35 -68 0 -19 -4 -36 -9 -39 -4 -3 -6 5 -4 18 4 16 -4 30 -27 49
l-31 27 -30 -35 c-52 -59 -198 -116 -379 -149 -69 -13 -322 -46 -353 -46 -5 0
-7 -19 -5 -42 3 -42 4 -43 43 -49 23 -4 -6 -6 -70 -6 -60 -1 -102 1 -92 4 14
4 17 14 16 47 l-3 43 -140 7 c-164 8 -410 32 -476 47 -25 6 -65 13 -90 16 -25
3 -56 14 -69 24 -13 11 -29 19 -35 19 -38 0 -163 89 -187 132 -16 29 18 96 60
118 20 10 38 19 40 20 1 0 -11 -16 -28 -35z m-767 -181 c24 -9 20 -27 -13 -58
-29 -28 -31 -28 -107 -20 -43 5 -79 14 -81 21 -2 6 9 23 24 37 24 23 37 26 95
26 36 0 73 -3 82 -6z m-1936 -426 c99 -49 99 -123 0 -212 -58 -53 -63 -66 -24
-66 36 0 83 -36 102 -79 30 -64 47 -55 83 44 12 33 41 104 64 158 37 88 44 98
64 94 13 -2 31 2 40 9 10 7 26 14 36 14 9 0 17 5 17 10 0 6 5 10 10 10 6 0 10
-10 10 -23 0 -13 4 -27 9 -32 4 -6 14 -50 20 -100 19 -136 28 -165 52 -165 15
0 19 -5 16 -15 -4 -8 -2 -17 2 -20 5 -2 14 17 21 43 27 108 114 213 205 248
86 32 169 -10 167 -86 -1 -44 -22 -101 -34 -94 -6 4 -13 1 -17 -5 -13 -21 -40
0 -47 35 -8 45 -33 45 -79 -1 -47 -47 -76 -107 -82 -169 -4 -43 -1 -56 18 -80
19 -24 27 -28 60 -23 20 3 64 23 98 46 34 23 61 40 61 37 0 -3 -4 -16 -10 -30
-12 -32 1 -33 34 -3 22 19 29 41 51 174 29 175 39 203 66 196 11 -3 19 0 19 7
0 7 8 9 20 5 11 -4 20 -2 20 4 0 19 15 11 27 -14 9 -20 8 -40 -3 -92 -7 -37
-13 -68 -11 -69 1 -2 32 22 67 53 100 85 165 133 182 133 8 0 23 9 33 20 10
11 23 20 29 20 5 0 -4 -15 -22 -33 -36 -37 -41 -53 -13 -37 27 14 36 13 22 -4
-6 -7 -9 -20 -6 -28 5 -14 -34 -56 -115 -122 -19 -16 -54 -46 -78 -68 l-43
-39 97 -120 c53 -66 99 -118 101 -115 2 2 -1 13 -8 23 -12 20 -4 102 8 89 3
-3 12 -1 20 5 7 6 13 8 13 4 0 -4 6 -3 13 3 10 9 16 4 26 -23 8 -23 21 -37 37
-41 58 -15 149 22 149 61 0 12 -30 33 -95 66 -111 58 -138 81 -146 124 -11 60
38 120 138 171 118 60 228 31 228 -60 0 -31 -20 -76 -33 -76 -5 0 -16 -8 -23
-17 -13 -17 -13 -17 -14 -1 0 11 -5 15 -15 12 -11 -5 -15 1 -15 25 0 36 -11
38 -70 15 -41 -17 -69 -50 -53 -64 4 -4 41 -25 82 -46 41 -22 94 -57 118 -80
35 -33 43 -47 43 -77 0 -41 -42 -97 -93 -124 -77 -39 -229 -82 -204 -56 7 6
-84 53 -92 47 -2 -1 18 -30 44 -63 25 -34 44 -61 42 -61 -2 0 -28 18 -57 40
-60 45 -85 53 -50 15 29 -31 18 -32 -21 -4 -24 17 -39 20 -77 16 -42 -5 -44
-5 -19 5 35 15 34 30 -5 61 -18 14 -62 59 -98 100 l-65 75 -12 -41 c-7 -22
-15 -65 -19 -94 -3 -29 -11 -56 -17 -60 -6 -4 -8 2 -5 15 4 12 3 22 -2 22 -8
0 -25 -40 -33 -75 -3 -11 -5 -5 -6 15 -1 19 -6 42 -11 50 -9 13 -11 13 -21 0
-8 -11 -9 4 -6 58 l4 74 -71 -70 c-69 -68 -119 -102 -150 -102 -9 0 -41 12
-72 27 -61 29 -96 72 -108 135 -7 40 -16 51 -33 40 -11 -7 -5 -66 13 -136 5
-23 4 -27 -6 -21 -10 6 -12 -3 -7 -46 5 -52 5 -53 -8 -24 -8 17 -14 36 -15 43
0 6 -4 12 -10 12 -5 0 -10 -6 -10 -12 -1 -7 -7 1 -15 17 -10 22 -14 25 -14 11
-2 -32 -12 -11 -30 61 -20 76 -18 76 -123 52 -45 -10 -47 -12 -68 -70 -12 -32
-28 -59 -35 -59 -7 0 -19 -13 -27 -30 -17 -38 -24 -38 -32 2 -6 30 -7 31 -21
12 -19 -25 -19 -10 1 56 11 38 13 55 5 58 -6 2 -8 9 -5 15 4 7 -17 -11 -47
-40 -30 -28 -85 -72 -124 -97 -38 -25 -63 -46 -55 -47 8 0 -16 -16 -54 -35
-76 -37 -80 -39 -71 -24 3 6 -1 10 -9 10 -9 0 -18 -12 -22 -27 -9 -44 -12 -50
-13 -25 -1 14 -6 22 -13 20 -8 -3 -15 -31 -18 -74 l-6 -69 -8 63 c-9 63 -21
80 -29 40 l-4 -23 -8 23 c-4 12 -8 22 -9 22 -1 0 -16 -4 -34 -9 -20 -6 -32 -6
-32 0 0 5 5 9 10 9 6 0 10 5 10 10 0 6 -12 10 -27 10 l-27 0 22 20 c27 25 28
34 5 26 -24 -8 14 23 56 46 30 17 31 19 31 90 0 40 3 90 6 111 5 30 4 37 -10
37 -15 0 -21 16 -18 53 1 9 -4 17 -11 17 -6 0 2 10 20 21 26 16 34 30 42 72
17 89 19 118 7 113 -96 -38 -116 -44 -121 -36 -3 6 -1 10 4 10 6 0 11 7 11 15
0 21 -30 19 -91 -5 -73 -29 -73 -17 0 15 33 15 66 35 73 43 11 13 10 15 -4 9
-26 -9 -22 8 5 25 36 24 155 69 221 84 87 20 204 12 264 -18z m-1423 -213 c9
-99 20 -236 26 -305 5 -69 16 -199 24 -290 8 -91 17 -214 20 -275 3 -60 8
-121 11 -135 3 -16 2 -21 -4 -15 -14 15 -42 306 -82 865 -20 283 -23 347 -15
339 2 -3 11 -86 20 -184z m3899 123 c4 -24 14 -94 22 -157 7 -63 16 -116 18
-118 2 -3 12 -6 23 -7 10 -2 17 -10 15 -20 -6 -35 16 -14 33 32 66 175 260
301 389 252 33 -12 58 -62 50 -97 -12 -50 -33 -83 -49 -77 -8 4 -15 1 -15 -5
0 -8 -6 -7 -20 1 -12 8 -20 24 -20 40 0 71 -119 2 -192 -111 -51 -80 -32 -181
33 -181 44 0 129 47 129 72 0 4 -20 8 -44 8 -48 0 -55 9 -48 62 4 29 13 31
171 44 l84 7 -6 -34 c-2 -19 -14 -59 -25 -89 -11 -30 -33 -95 -48 -145 -20
-65 -29 -84 -34 -70 -7 19 -7 19 -17 0 -6 -11 -14 -35 -18 -53 -9 -44 -20 -32
-16 18 3 40 -13 55 -23 23 -3 -10 -4 6 -2 35 2 28 2 52 1 52 -1 0 -23 -11 -49
-25 -54 -29 -71 -30 -119 -10 -74 31 -127 97 -127 160 0 20 -5 25 -23 25 -23
0 -23 -2 -16 -47 12 -73 11 -121 -2 -103 -8 11 -9 1 -5 -37 6 -59 -8 -73 -18
-18 -4 22 -11 32 -20 29 -7 -3 -18 5 -24 18 -6 13 -11 17 -11 11 -1 -7 -5 -13
-10 -13 -5 0 -12 21 -16 48 -14 99 -9 94 -84 87 -97 -10 -98 -11 -136 -83 -19
-37 -34 -61 -35 -54 -1 26 -21 10 -45 -35 -22 -41 -25 -43 -20 -18 5 32 -12
71 -22 48 -2 -7 -8 -13 -13 -13 -5 0 2 26 15 58 17 41 20 58 11 60 -15 3 -17
62 -3 62 5 0 4 6 -2 14 -13 15 4 26 38 26 16 0 41 43 139 242 2 4 -9 6 -25 3
-15 -2 -65 -9 -109 -16 l-81 -11 -16 -57 c-8 -31 -25 -99 -37 -151 -38 -163
-58 -229 -60 -195 -1 29 -1 29 -16 10 -9 -11 -25 -38 -36 -60 l-19 -40 5 45
c3 25 2 52 -4 60 -6 10 -10 11 -10 3 0 -7 -5 -13 -10 -13 -13 0 3 111 44 305
8 38 13 71 11 73 -2 2 -33 -1 -68 -7 -86 -15 -89 -15 -82 9 3 11 2 20 -3 20
-13 0 -10 56 4 70 6 6 51 16 100 22 49 6 95 16 102 21 15 11 232 20 276 11 28
-6 29 -7 11 -20 -17 -13 -17 -14 0 -20 15 -6 13 -9 -11 -20 l-29 -12 40 -1
c36 -1 42 3 60 35 14 27 23 34 40 30 20 -5 87 13 101 27 15 14 22 6 28 -35z
m1094 -67 c2 -6 19 -11 38 -11 49 0 42 -18 -11 -25 -47 -8 -84 -34 -49 -36 67
-2 -173 -39 -257 -39 -4 0 -9 -12 -12 -27 -3 -16 -9 -36 -13 -46 -6 -17 -1
-19 57 -17 35 1 80 2 99 1 32 -1 33 -3 15 -13 -19 -12 -19 -12 5 -18 25 -7 25
-7 -10 -23 -26 -11 -30 -16 -15 -17 44 -3 -27 -20 -110 -26 l-83 -7 -12 -41
c-6 -23 -11 -45 -11 -50 1 -5 70 -8 154 -7 88 1 158 -3 167 -9 11 -7 7 -10
-20 -10 -67 -1 -8 -20 65 -21 81 -2 71 -5 -38 -14 -42 -4 -75 -11 -71 -16 3
-5 17 -9 31 -9 15 0 24 -2 22 -4 -2 -2 -76 -10 -164 -16 -88 -7 -172 -18 -187
-25 -20 -10 -28 -10 -31 -1 -3 6 -9 0 -15 -14 -8 -18 -11 -20 -11 -7 -1 12 -9
17 -30 17 -23 0 -30 6 -36 28 -16 57 -14 70 9 76 18 4 27 18 39 58 11 39 12
56 3 63 -18 16 -8 73 15 80 20 7 30 25 43 77 5 22 2 27 -16 30 -16 2 -22 10
-21 28 2 78 32 92 203 101 158 8 253 4 258 -10z m-2641 -565 c66 -21 113 -60
113 -93 0 -33 -45 -74 -120 -109 -57 -26 -76 -44 -47 -44 33 0 119 -33 147
-56 23 -20 30 -34 30 -62 0 -31 -8 -44 -53 -87 -60 -56 -108 -82 -241 -132
-61 -22 -78 -32 -51 -27 63 9 38 -2 -67 -30 -54 -15 -106 -29 -115 -32 -10 -2
0 4 22 15 35 18 36 20 10 14 -95 -20 -109 -27 -122 -68 l-11 -40 -1 38 c-1 35
-2 36 -21 25 -11 -7 -23 -28 -26 -48 -16 -100 -24 -114 -19 -37 4 70 3 78 -12
75 -9 -2 -20 -14 -24 -28 l-6 -25 -8 27 c-7 29 -5 29 -80 12 -20 -5 -20 -5 -1
10 13 11 41 16 80 16 34 0 81 7 106 16 25 9 108 34 184 55 133 38 300 98 293
106 -2 2 -34 -8 -70 -21 -59 -21 -67 -22 -67 -8 0 14 -2 14 -9 3 -6 -10 -10
-10 -16 -1 -4 7 -18 9 -37 5 -20 -5 -33 -3 -38 5 -6 9 -30 6 -98 -14 -109 -31
-121 -32 -99 -8 8 9 18 35 22 57 4 23 3 35 -2 28 -5 -6 -31 -13 -58 -15 -47
-3 -50 -4 -56 -38 -5 -21 -3 -37 3 -41 19 -12 -1 -27 -54 -39 -62 -15 -94 -29
-64 -30 14 0 16 -3 7 -13 -6 -8 -8 -17 -4 -20 3 -4 -11 -7 -33 -6 -33 0 -36 2
-16 9 24 10 30 30 10 30 -22 1 23 22 70 34 l45 12 24 89 c12 50 25 100 29 113
5 17 2 22 -12 22 -16 0 -17 2 -4 10 13 8 12 10 -2 10 -10 0 -18 4 -18 10 0 5
8 14 18 19 16 10 16 10 -2 11 -25 0 -13 12 26 26 27 9 35 21 60 88 l28 79 -37
-7 c-21 -4 -56 -10 -78 -13 -37 -5 -39 -4 -21 10 19 14 19 15 -3 22 -22 7 -22
7 11 32 l33 25 -35 -7 c-33 -6 -34 -6 -15 8 11 8 63 24 115 36 80 17 123 20
265 17 123 -2 184 -8 222 -20z m873 -5 c41 4 111 8 155 7 l80 0 -50 -13 c-43
-11 -46 -13 -20 -15 26 -1 27 -3 10 -10 -29 -13 49 -12 219 1 97 8 152 8 176
1 27 -8 29 -10 12 -11 -32 -1 -17 -21 16 -22 20 -1 13 -5 -28 -19 -42 -14 -49
-18 -27 -19 15 -1 27 -5 27 -10 0 -5 -59 -14 -130 -21 l-131 -13 -19 -38 c-11
-21 -20 -41 -20 -45 0 -4 39 -4 88 -1 48 4 96 2 107 -3 19 -8 19 -9 -3 -9 -29
-1 -19 -21 11 -22 20 -1 21 -2 2 -6 -11 -3 -31 -10 -45 -16 l-25 -10 25 -7
c18 -5 2 -9 -55 -14 -154 -13 -149 -11 -167 -64 -10 -25 -16 -48 -14 -50 2 -2
67 1 144 5 77 5 162 6 189 2 37 -5 40 -7 16 -8 -18 0 -33 -5 -33 -10 0 -12 36
-20 95 -22 40 -2 35 -3 -30 -9 -44 -4 -93 -11 -109 -15 -21 -6 -27 -5 -22 4 4
6 16 11 27 11 10 0 19 5 19 10 0 6 -12 10 -26 10 -15 0 -23 4 -19 11 5 7 -34
8 -134 3 l-140 -7 9 32 c8 28 6 33 -13 40 -12 5 -25 7 -29 4 -5 -2 -8 1 -8 6
0 6 -6 11 -14 11 -14 0 -36 -49 -36 -81 0 -21 -53 -52 -78 -46 -11 2 -5 7 17
13 29 8 37 17 52 59 23 65 23 79 3 71 -12 -5 -15 -2 -10 10 3 8 1 24 -4 34 -9
16 -8 18 6 13 11 -4 15 -2 11 4 -4 6 6 15 22 21 23 8 33 20 42 52 10 34 10 43
0 50 -8 4 -10 13 -7 19 4 6 2 11 -4 11 -6 0 -8 5 -4 11 4 8 -3 9 -22 6 -16 -3
-59 -9 -96 -12 l-67 -6 -14 -42 c-9 -23 -43 -114 -77 -202 -34 -88 -65 -171
-70 -185 -7 -20 -8 -21 -9 -5 0 11 7 38 15 60 11 29 53 154 54 161 0 0 -21 0
-47 0 -63 -1 -77 -18 -109 -125 -24 -79 -44 -122 -44 -94 0 6 27 91 61 189 81
237 79 228 43 221 -16 -3 -49 -9 -74 -12 -25 -3 -58 -8 -75 -11 -28 -5 -29 -4
-12 10 18 14 18 15 -3 26 l-21 11 23 19 c19 17 21 21 8 29 -22 15 21 28 141
41 57 7 109 16 114 20 14 11 58 17 70 9 6 -3 44 -2 85 2z m1010 -19 c25 -12
36 -25 38 -45 2 -16 8 -25 14 -21 7 5 9 -2 4 -21 -10 -40 -36 -75 -51 -69 -8
3 -16 -4 -21 -18 l-7 -23 -9 24 c-7 19 -11 21 -22 11 -12 -9 -15 -6 -18 22 -4
41 -21 45 -92 23 -66 -21 -116 -58 -100 -75 6 -6 59 -29 117 -50 134 -50 221
-93 241 -122 18 -25 21 -74 6 -83 -5 -3 -10 -15 -10 -26 0 -10 -6 -19 -12 -19
-7 0 -22 -8 -33 -16 -19 -15 -15 -15 45 -9 36 3 77 8 93 11 15 3 27 1 27 -4 0
-5 -48 -14 -107 -20 -93 -11 -126 -20 -237 -66 -71 -30 -132 -59 -135 -65 -6
-9 -124 -61 -138 -61 -3 0 -1 5 2 10 9 15 4 13 -117 -36 -159 -64 -158 -64
-158 -58 0 3 34 21 76 40 42 20 74 37 71 40 -2 2 -79 -21 -171 -52 -93 -30
-170 -53 -173 -51 -2 3 17 13 44 22 26 10 72 28 102 41 29 13 59 24 66 24 7 0
41 9 75 20 35 11 72 18 82 14 10 -3 18 0 18 6 0 6 8 9 18 6 19 -6 180 47 317
105 l80 34 -45 3 c-24 2 -49 7 -55 11 -32 25 -65 19 -190 -35 -70 -30 -129
-53 -131 -51 -3 2 71 39 163 81 198 91 253 122 253 141 0 18 -48 42 -165 84
-202 71 -239 126 -148 215 99 96 304 153 393 108z m-1495 -160 c-20 -59 -58
-168 -83 -241 -26 -74 -48 -128 -50 -118 -2 9 8 49 23 88 25 69 25 73 8 83
-10 5 -35 10 -55 11 -43 1 -48 -6 -78 -127 -11 -45 -23 -84 -26 -87 -12 -11 6
80 32 163 14 45 38 126 55 181 39 130 68 193 79 175 6 -10 14 -11 37 -2 48 19
67 19 82 -1 12 -16 9 -32 -24 -125z m-2074 81 c6 -6 9 -23 7 -39 -4 -35 -22
-39 -115 -29 l-63 7 0 37 c0 21 2 40 4 42 9 9 157 -8 167 -18z m-248 -97 c4
-6 6 -24 5 -41 -3 -28 -6 -30 -50 -33 -26 -2 -65 2 -87 8 -37 10 -41 14 -41
44 0 18 3 36 7 40 11 11 157 -5 166 -18z m235 -12 c17 -5 22 -14 22 -40 0 -29
-5 -36 -32 -48 -25 -11 -28 -15 -12 -15 28 -1 44 -20 44 -53 0 -37 -12 -41
-101 -31 l-74 8 -3 38 -3 37 48 1 48 0 -45 17 c-41 16 -45 21 -48 55 l-3 37
68 0 c37 0 78 -3 91 -6z m-244 -90 c11 -4 16 -19 16 -47 l0 -40 -82 7 c-44 4
-85 9 -90 12 -4 3 -8 21 -8 40 l0 34 74 0 c41 0 81 -3 90 -6z m4930 -60 c46
-7 46 -7 46 -45 l0 -39 -64 0 c-35 0 -78 3 -95 6 -27 6 -31 11 -31 39 0 17 3
35 7 38 8 9 76 9 137 1z m-4 -122 c43 -7 45 -8 45 -42 0 -31 -3 -35 -30 -38
-16 -2 -58 -1 -92 3 l-63 7 0 39 0 39 48 -1 c26 0 67 -4 92 -7z m-5397 -71
c-11 -42 67 -61 312 -77 55 -3 132 -12 170 -19 39 -8 99 -16 135 -19 36 -4
108 -11 160 -16 52 -5 210 -17 350 -27 140 -10 238 -19 218 -21 -20 -2 -216 8
-435 22 -467 30 -559 35 -713 38 -113 3 -115 3 -118 -19 -5 -36 -40 -30 -50 9
-6 24 -16 34 -44 44 -43 15 -48 8 -48 -59 0 -29 -3 -38 -10 -31 -6 6 -10 43
-8 85 3 74 3 74 38 91 44 23 49 22 43 -1z m5191 -34 c12 -9 17 -23 14 -42 -3
-28 -6 -30 -53 -33 -79 -4 -129 9 -133 37 -7 45 3 51 81 51 44 0 80 -5 91 -13z
m245 -21 c7 -8 11 -27 9 -43 l-3 -28 -85 3 c-95 3 -117 14 -106 56 6 25 8 26
90 26 61 0 87 -4 95 -14z m-1764 -35 c22 -4 -99 -6 -270 -3 -441 6 -826 -24
-1085 -85 -122 -28 -49 -26 189 7 256 35 463 51 606 49 55 -1 201 -2 325 -1
l225 0 -165 -8 c-251 -14 -491 -39 -630 -66 -145 -28 -137 -27 -124 -14 14 14
243 60 348 69 l91 8 -95 1 c-122 2 -431 -29 -683 -68 -108 -17 -212 -30 -230
-28 l-32 4 48 23 c116 54 407 96 872 125 92 6 565 -4 610 -13z"/>
<path d="M3759 4556 c-47 -19 -112 -47 -145 -63 -161 -81 -302 -121 -449 -129
-137 -8 -176 2 -193 46 l-13 35 5 -32 5 -32 -64 6 c-77 7 -107 -8 -125 -63
-39 -116 55 -416 169 -546 89 -101 198 -114 359 -44 107 46 165 54 337 49 197
-7 295 20 378 104 48 47 61 71 81 150 32 123 16 301 -38 418 -64 141 -141 166
-307 101z m50 -268 c5 -13 5 -27 0 -32 -5 -5 -1 -14 8 -21 8 -6 16 -24 16 -39
0 -18 4 -25 12 -22 7 2 34 8 60 12 l48 7 -5 -32 c-2 -17 -1 -31 4 -31 13 0 9
-50 -4 -51 -7 0 -3 -4 10 -10 37 -14 23 -42 -28 -58 -25 -8 -54 -18 -65 -22
-24 -10 -101 -30 -129 -34 -12 -1 -28 -5 -36 -9 -8 -3 -33 -7 -55 -9 -35 -2
-40 1 -43 20 -3 17 4 24 30 33 l33 10 -32 -5 c-25 -3 -35 0 -43 16 -10 17 -7
22 22 34 l33 15 -35 -2 c-29 -3 -36 1 -38 18 -2 17 5 23 42 34 24 7 50 9 57 5
9 -6 10 0 5 26 -13 57 -12 62 14 69 25 7 25 7 -5 11 -24 3 -30 9 -30 29 0 22
7 26 65 41 83 23 79 23 89 -3z m-709 -133 c7 -8 10 -24 7 -35 -3 -11 -1 -20 4
-20 5 0 9 -16 9 -35 l0 -35 60 0 c60 0 60 0 60 -29 0 -17 5 -33 10 -36 14 -9
12 -42 -2 -48 -8 -4 -7 -6 3 -6 29 -2 31 -31 3 -41 -33 -13 -47 -13 -62 2 -9
9 -12 8 -12 -5 0 -14 -10 -17 -53 -17 -30 0 -57 3 -60 7 -4 3 -26 7 -50 7 -35
1 -42 4 -42 21 0 11 -4 23 -9 27 -5 3 -10 14 -11 25 -1 10 -7 29 -14 41 -15
28 -11 34 26 36 34 3 36 6 28 29 -4 9 -5 25 -3 35 3 10 -1 23 -9 30 -7 7 -13
21 -13 32 0 16 9 20 53 23 28 2 55 4 58 5 4 1 12 -5 19 -13z"/>
<path d="M204 2158 c3 -61 8 -114 13 -118 4 -4 23 -11 41 -15 36 -7 35 -12 32
105 -2 95 -6 106 -51 123 l-39 15 4 -110z"/>
<path d="M1625 1494 c-11 -3 -29 -7 -41 -9 -21 -5 -25 -21 -50 -184 l-6 -44
62 34 c85 47 170 124 170 154 0 14 -8 29 -19 34 -23 13 -89 21 -116 15z"/>
<path d="M2474 1053 c-15 -3 -28 -22 -46 -68 -14 -36 -23 -65 -19 -65 3 0 40
11 81 25 93 32 185 77 184 90 -2 19 -136 31 -200 18z"/>
<path d="M2435 813 c-71 -9 -70 -7 -106 -112 -18 -55 -31 -102 -28 -105 9 -9
184 51 272 93 97 47 133 76 117 96 -21 25 -159 40 -255 28z"/>
</g>
</svg>
