<?xml version="1.0" standalone="no"?>
<!DOCTYPE svg PUBLIC "-//W3C//DTD SVG 20010904//EN"
 "http://www.w3.org/TR/2001/REC-SVG-20010904/DTD/svg10.dtd">
<svg version="1.0" xmlns="http://www.w3.org/2000/svg"
 width="720.000000pt" height="544.000000pt" viewBox="0 0 720.000000 544.000000"
 preserveAspectRatio="xMidYMid meet">
<metadata>
Created by potrace 1.16, written by Peter Selinger 2001-2019
</metadata>
<g transform="translate(0.000000,544.000000) scale(0.100000,-0.100000)"
fill="#000000" stroke="none">
<path d="M3255 5310 c-243 -50 -451 -172 -587 -345 -84 -106 -126 -170 -134
-199 -5 -21 -3 -23 22 -18 25 5 27 3 21 -24 -5 -24 -2 -30 13 -30 14 0 16 3 8
13 -13 17 -4 27 17 20 23 -9 18 -36 -7 -41 -46 -10 -72 -2 -78 23 -5 22 -9 17
-38 -38 -31 -57 -33 -68 -31 -144 1 -72 -9 -148 -29 -197 -3 -8 -7 -28 -9 -45
-3 -33 -7 -36 -45 -53 -24 -10 -28 -9 -28 6 0 9 -22 41 -49 69 -27 29 -52 65
-55 79 -4 14 -16 45 -26 68 -22 47 -72 212 -101 331 -26 108 -67 205 -97 233
-32 30 -77 24 -111 -15 -22 -25 -23 -33 -18 -104 3 -45 12 -90 23 -110 10 -19
27 -80 39 -135 l21 -101 -50 23 c-65 30 -74 30 -111 -4 -16 -16 -56 -39 -88
-52 -32 -13 -65 -33 -74 -46 -8 -13 -30 -33 -48 -44 -67 -41 -71 -177 -7 -258
16 -20 45 -68 65 -107 19 -38 47 -85 61 -104 14 -19 26 -41 26 -48 0 -8 13
-13 33 -13 17 0 39 -5 47 -10 11 -7 6 -10 -22 -10 -41 0 -59 -15 -28 -25 12
-4 26 -25 37 -56 14 -38 19 -45 23 -29 l5 20 37 -20 c91 -49 209 -10 340 112
43 40 48 50 59 113 7 39 21 86 31 105 10 19 18 40 18 47 0 6 3 14 8 16 4 3 7
-29 7 -71 0 -66 5 -87 33 -147 44 -93 70 -125 140 -173 44 -30 85 -47 163 -67
121 -31 140 -41 174 -95 14 -22 33 -40 43 -40 9 0 41 -11 70 -25 64 -30 87
-32 52 -5 -14 10 -43 22 -65 26 -31 5 -52 20 -98 68 -103 107 -182 293 -218
515 -20 117 -21 147 -13 245 10 104 14 118 61 216 59 121 116 190 240 289 164
133 296 177 494 168 107 -5 229 -28 254 -46 6 -4 32 -14 58 -21 26 -7 76 -34
110 -60 138 -105 204 -216 165 -279 -9 -16 -8 -30 7 -74 18 -53 18 -59 2 -155
-21 -123 -22 -240 -3 -312 8 -30 21 -98 30 -150 9 -52 20 -110 24 -127 l7 -33
52 24 c31 15 69 24 95 24 54 -1 184 58 243 110 94 84 155 204 155 307 0 61
-26 178 -49 224 -28 53 -71 102 -83 94 -7 -3 -8 -1 -4 5 4 6 -13 24 -38 41
-39 27 -106 99 -106 115 0 3 6 5 12 3 22 -4 20 40 -3 84 -12 24 -52 74 -90
112 -38 37 -69 75 -69 82 0 19 -170 150 -240 185 -205 103 -467 137 -695 90z
m1083 -583 c6 -5 12 -19 12 -33 0 -20 10 -29 54 -48 29 -13 57 -29 60 -35 9
-14 9 -14 -54 0 -45 9 -54 9 -71 -7 -100 -90 -128 -367 -54 -529 32 -71 51
-85 104 -78 94 12 171 138 171 278 0 85 -18 157 -54 214 -15 23 -26 50 -24 59
3 13 9 11 36 -14 28 -24 38 -45 58 -124 45 -171 16 -281 -105 -398 -38 -37
-81 -74 -94 -81 -110 -59 -218 185 -205 457 6 121 32 186 96 242 l44 40 -26
10 c-14 5 -26 15 -26 21 0 7 -7 17 -15 23 -12 9 -5 11 32 11 27 0 54 -4 61 -8z
m-2452 -165 c22 -15 34 -52 34 -111 l0 -60 -45 -7 c-63 -9 -75 4 -75 81 0 62
11 83 50 98 21 8 24 8 36 -1z m628 -61 c11 -12 15 -29 12 -47 -5 -27 -4 -28 9
-10 25 33 25 14 -1 -64 -58 -179 -56 -271 11 -435 4 -11 8 -23 7 -27 -1 -4 7
-12 18 -18 11 -6 20 -18 20 -28 0 -9 11 -29 25 -44 14 -15 25 -32 25 -38 0 -6
5 -8 10 -5 6 3 10 -2 10 -11 0 -10 7 -25 16 -35 15 -17 14 -18 -22 -13 -22 3
-50 14 -64 23 -33 23 -117 195 -146 301 -29 102 -30 162 -6 232 38 107 42 126
42 181 0 61 7 68 34 38z m-740 -47 c16 -118 0 -156 -58 -134 -33 12 -46 39
-46 94 0 36 5 48 26 65 15 12 37 21 49 21 19 0 23 -7 29 -46z m491 -148 c44
-36 71 -93 63 -133 -3 -16 -48 -27 -48 -13 0 4 -18 15 -40 25 -22 10 -40 25
-41 34 0 11 -2 12 -6 3 -3 -9 -9 -10 -17 -3 -15 13 -5 123 12 129 7 2 12 16
13 30 1 26 1 26 10 -4 5 -18 28 -47 54 -68z"/>
<path d="M3693 4515 c-28 -8 -69 -23 -90 -35 -43 -23 -73 -26 -74 -7 -1 6 -4
1 -8 -13 -6 -20 -27 -33 -109 -68 -57 -24 -147 -55 -200 -69 -84 -21 -111 -24
-203 -19 -58 3 -119 11 -135 17 -39 15 -154 16 -181 1 -31 -17 -38 -70 -24
-176 22 -166 95 -336 188 -436 51 -56 55 -58 127 -69 83 -14 116 -7 236 45 64
28 68 28 260 29 225 1 253 5 338 52 73 40 105 71 137 135 41 78 49 163 31 310
-21 177 -67 269 -152 304 -41 17 -74 17 -141 -1z m-5 -277 c7 -7 12 -28 12
-47 0 -20 5 -43 10 -51 8 -13 10 -12 10 3 0 9 4 17 9 17 5 0 24 2 42 5 29 4
30 3 9 -4 -24 -9 -24 -9 -2 -10 51 -2 9 -31 -45 -31 -16 0 -23 -6 -23 -20 0
-22 10 -26 26 -10 6 6 24 14 42 19 36 11 51 -1 56 -47 3 -16 10 -39 18 -51 12
-20 10 -24 -10 -41 -13 -11 -40 -22 -60 -26 -20 -4 -44 -13 -53 -21 -17 -15
-134 -37 -148 -28 -5 2 -14 -2 -21 -10 -16 -20 -54 -19 -74 1 -20 20 -21 54
-1 54 8 0 15 5 15 10 0 6 -9 10 -20 10 -13 0 -21 7 -21 20 -1 11 -2 26 -3 33
-1 8 19 14 54 17 32 3 53 9 50 15 -3 6 -13 10 -23 9 -13 0 -17 5 -15 20 2 14
9 20 22 18 15 -3 17 0 11 15 -4 10 -8 25 -9 35 -1 9 -7 23 -14 30 -18 23 6 47
63 63 64 17 78 18 93 3z m-702 -158 c2 -51 13 -60 68 -60 36 0 47 -3 36 -10
-8 -5 -30 -10 -48 -10 -23 0 -32 -4 -29 -12 2 -7 11 -11 18 -9 8 2 23 6 33 9
13 3 17 1 12 -6 -5 -8 1 -12 18 -12 21 0 26 -6 32 -35 3 -20 4 -39 1 -42 -4
-3 2 -17 13 -30 15 -19 17 -30 9 -44 -8 -15 -22 -19 -77 -21 -37 0 -80 -2 -97
-4 -16 -2 -47 0 -68 3 -36 5 -41 9 -67 67 -32 70 -42 127 -22 134 7 2 16 -5
19 -16 3 -11 11 -23 19 -26 16 -6 31 13 17 23 -14 8 -25 74 -17 95 9 24 41 36
89 33 35 -2 40 -5 41 -27z"/>
<path d="M1748 3837 c-12 -29 -9 -63 12 -146 25 -98 82 -223 128 -281 74 -93
167 -192 198 -211 34 -21 132 -29 190 -15 23 5 36 3 47 -8 11 -11 37 -16 89
-17 40 -1 64 -4 53 -7 -15 -3 -8 -8 25 -16 25 -7 44 -16 43 -22 -1 -5 52 -22
118 -38 123 -29 148 -47 57 -39 -150 12 -317 62 -374 112 -41 37 -63 41 -42 9
23 -37 162 -98 297 -131 110 -27 128 -29 155 -17 35 14 42 15 149 5 55 -6 77
-5 77 4 0 6 7 11 15 11 8 0 15 -5 15 -10 0 -6 24 -22 54 -37 48 -23 56 -31 65
-67 9 -37 76 -160 123 -228 l19 -28 -41 0 c-22 0 -52 -7 -65 -16 -23 -15 -27
-15 -51 0 -16 11 -58 20 -122 24 l-97 7 -3 46 c-2 34 -10 53 -27 69 l-24 23
11 -30 c9 -25 7 -34 -15 -69 -26 -41 -77 -78 -122 -90 -14 -3 -38 -23 -54 -43
-65 -81 -235 -132 -560 -166 -79 -8 -149 -15 -157 -15 -10 0 -14 -12 -14 -39
0 -39 1 -40 38 -44 20 -2 1 -4 -43 -5 l-80 -2 -3 36 c-1 20 -5 40 -8 45 -3 5
-38 9 -77 9 -103 0 -327 26 -431 49 -202 45 -303 141 -203 192 l22 11 -22 -21
c-56 -53 -10 -105 127 -144 148 -43 296 -60 470 -54 85 3 216 6 290 6 146 0
316 24 435 60 75 22 215 98 160 86 -236 -52 -328 -66 -595 -86 -14 -1 0 -5 30
-8 53 -6 51 -7 -60 -20 -84 -10 -132 -11 -180 -4 l-65 10 110 2 c70 1 105 5
96 10 -11 7 -7 10 15 14 20 3 13 5 -21 6 -27 1 -68 6 -90 10 l-40 9 46 1 c25
0 54 7 65 15 13 11 35 13 74 10 88 -9 344 45 490 102 63 25 102 53 96 71 -3 8
-1 11 4 8 6 -3 10 -2 10 3 0 20 -99 52 -240 79 -76 14 -147 18 -355 18 -143 0
-275 -3 -293 -7 -30 -7 -33 -6 -39 22 -5 29 -7 30 -64 30 -58 0 -59 -1 -59
-28 0 -27 -4 -29 -127 -65 -185 -55 -173 -53 -173 -25 0 35 -18 48 -70 48 -57
0 -70 -12 -70 -67 l0 -43 -67 2 c-42 0 -82 -5 -105 -15 -32 -14 -38 -21 -38
-47 0 -17 -6 -32 -12 -35 -20 -6 -201 -75 -418 -157 -210 -80 -269 -107 -290
-133 -10 -12 -11 -43 -4 -153 l9 -137 32 -20 c25 -16 33 -29 37 -60 3 -22 26
-294 51 -605 25 -311 48 -597 51 -635 l6 -71 -40 -18 c-23 -10 -51 -29 -63
-42 -19 -21 -21 -31 -17 -96 5 -62 9 -75 32 -95 47 -40 99 -47 561 -78 1226
-80 2481 -169 3490 -247 l670 -52 687 -4 687 -3 128 74 c255 147 508 299 522
312 9 9 16 43 19 93 l4 79 -37 30 -38 31 12 129 c20 239 42 527 65 891 l24
362 30 28 c28 26 30 32 36 142 12 204 12 208 -14 235 -30 32 -75 39 -345 59
-121 9 -246 19 -277 22 l-58 6 -1 51 c-2 87 -9 100 -64 119 -49 18 -119 17
-155 -2 -8 -4 -67 3 -130 16 -63 13 -209 33 -324 45 -115 11 -221 25 -235 31
-43 16 -160 97 -175 121 -7 12 -14 52 -15 89 -2 78 13 97 60 73 36 -19 59 -72
59 -137 0 -60 -6 -74 -27 -57 -7 6 -13 9 -13 5 0 -17 88 -60 147 -72 184 -39
193 -34 193 93 0 96 -2 100 -84 207 -34 43 -77 102 -96 130 -147 216 -169 231
-345 231 -60 0 -116 4 -122 8 -11 7 -79 32 -138 51 -11 4 17 -11 63 -33 45
-22 82 -44 82 -50 0 -5 -20 -13 -44 -16 -70 -11 -142 -58 -179 -118 -18 -29
-39 -64 -46 -79 -10 -20 -18 -24 -30 -18 -70 35 -181 80 -198 80 l-22 0 25 66
c49 131 114 178 246 179 42 0 69 3 60 6 -25 9 -37 28 -50 75 -17 59 -128 162
-226 209 -141 68 -267 57 -365 -31 -51 -46 -52 -47 -134 -50 -45 -3 -85 -8
-90 -13 -4 -4 27 -6 70 -3 43 2 75 1 70 -3 -4 -5 -43 -9 -87 -10 l-80 -3 19
27 c10 14 29 35 41 46 12 11 26 28 32 39 6 10 -16 -8 -49 -41 -46 -47 -84 -73
-173 -118 -129 -65 -190 -89 -190 -75 0 5 11 12 25 16 13 3 46 21 72 40 26 19
51 34 55 34 12 0 92 57 117 84 l24 26 -27 0 c-16 0 -38 -11 -54 -27 -15 -16
-36 -34 -47 -40 -49 -30 -132 -68 -154 -70 -13 -1 -27 -7 -31 -13 -4 -6 -17
11 -29 40 -12 29 -25 50 -28 47 -2 -3 0 -14 6 -25 6 -11 15 -38 20 -61 10 -45
11 -43 -44 -56 -16 -4 -24 -10 -17 -12 7 -3 26 0 43 6 20 7 37 7 48 2 20 -12
19 -12 -104 -42 -98 -24 -289 -30 -454 -14 -62 6 -82 5 -77 -4 11 -18 -16 -13
-53 10 -27 16 -32 17 -28 5 5 -13 1 -13 -21 3 -15 10 -42 22 -61 25 -29 5 -32
4 -21 -9 17 -21 4 -32 -20 -17 -11 7 -30 12 -42 12 -22 -1 -22 -1 5 -23 32
-27 36 -57 7 -57 -32 0 -23 -20 18 -37 26 -12 32 -18 20 -21 -22 -4 -23 -21
-4 -28 23 -9 26 -31 7 -53 -14 -16 -30 -21 -64 -21 -27 0 -47 -5 -50 -12 -4
-9 -8 -9 -14 -3 -4 6 -28 11 -53 12 -25 2 -64 8 -88 15 -43 13 -43 13 -37 50
9 51 -13 174 -37 212 -11 17 -17 22 -14 12 4 -11 1 -23 -6 -28 -22 -14 -28 -9
-28 22 0 17 5 30 11 30 6 0 1 12 -10 26 -12 15 -21 38 -22 53 0 14 -5 35 -10
46 -6 14 -7 5 -2 -25 16 -99 2 -146 -60 -212 -29 -30 -46 -47 -39 -38 20 27
14 60 -19 99 -34 39 -129 196 -129 212 0 6 -8 8 -17 5 -46 -13 -192 -46 -207
-46 -32 0 -15 -56 62 -212 l78 -158 -30 0 c-54 0 -101 19 -133 52 -72 76 -167
308 -176 428 -1 26 -4 31 -9 17z m2839 -37 c62 -22 145 -75 195 -127 41 -42
74 -108 58 -118 -6 -3 -10 -1 -10 5 0 6 -11 22 -25 35 -20 21 -34 25 -80 25
-79 0 -151 -36 -214 -107 -27 -31 -48 -47 -45 -36 4 14 -4 23 -31 36 -39 19
-50 26 -103 75 -47 43 -86 44 -101 1 -18 -53 -13 -71 36 -117 41 -40 43 -43
14 -26 -119 69 -110 240 17 328 80 55 179 64 289 26z m-482 -271 c-23 -120 6
-276 70 -379 40 -65 41 -66 23 -52 -19 15 -51 5 -44 -14 12 -30 -6 -11 -46 51
-22 36 -43 63 -46 61 -2 -3 14 -38 35 -78 l40 -74 -31 4 c-35 4 -51 -6 -145
-94 -70 -65 -116 -94 -153 -95 -13 0 -58 9 -102 20 -102 26 -185 27 -266 4
l-65 -19 -25 23 c-26 25 -45 29 -55 13 -4 -6 -11 -7 -17 -4 -8 5 -9 1 -5 -10
12 -30 -12 -7 -37 37 -24 42 -56 156 -56 202 0 29 -13 38 -40 30 -16 -5 -20
-15 -20 -53 0 -72 21 -139 73 -232 86 -154 87 -156 87 -180 0 -11 5 -20 11
-20 6 0 9 -8 7 -17 -5 -27 -33 -23 -31 4 2 12 -13 45 -31 73 -98 148 -136 273
-136 438 0 64 6 98 20 130 10 23 21 42 24 42 2 0 10 -26 16 -57 l12 -57 15 27
c9 18 25 30 44 34 17 3 33 12 36 19 7 19 30 17 67 -5 118 -73 290 -27 446 119
72 67 96 87 70 55 -21 -25 2 -17 56 19 57 39 205 118 210 113 2 -2 -3 -37 -11
-78z m1271 -147 c64 -42 101 -78 91 -88 -4 -4 -13 -2 -20 4 -22 19 -101 44
-105 33 -2 -5 -21 -7 -42 -4 -51 7 -155 -13 -198 -38 -51 -29 -122 -92 -122
-107 0 -7 5 -10 11 -6 15 9 2 -34 -21 -66 -10 -14 -21 -36 -25 -50 -3 -14 8
-1 26 28 34 52 49 64 49 38 0 -8 5 -16 11 -18 6 -2 13 -24 16 -49 l5 -46 -53
-27 c-85 -42 -106 -31 -78 41 6 15 14 51 19 78 5 28 14 64 21 80 6 17 13 40
15 52 4 31 138 155 183 170 20 6 63 12 97 12 54 1 67 -3 120 -37z m60 -121
c54 -24 111 -76 135 -122 10 -21 39 -61 64 -89 25 -28 45 -60 45 -70 0 -19 -2
-19 -38 5 -53 35 -105 106 -67 91 19 -7 19 3 0 27 -7 10 -40 27 -72 37 -66 20
-173 36 -173 25 0 -4 7 -19 16 -35 20 -33 14 -53 -20 -75 -32 -21 -46 -12 -46
28 -1 31 -38 87 -58 87 -16 0 -44 39 -39 54 7 19 61 47 107 57 44 9 94 2 146
-20z m69 -165 c37 -16 45 -41 23 -65 -11 -11 -9 -15 6 -25 11 -6 33 -23 50
-38 27 -23 31 -32 30 -76 -1 -27 -7 -59 -13 -71 -11 -19 -14 -20 -27 -6 -21
20 -27 19 -21 -4 6 -25 -14 -18 -32 12 -13 20 -13 21 2 8 21 -16 21 -8 2 44
-8 22 -14 57 -15 78 0 39 -13 56 -83 114 -15 13 -27 27 -27 33 0 15 66 12 105
-4z m-901 -31 c32 -41 71 -63 184 -100 57 -19 88 -35 99 -51 21 -33 45 -30
127 17 68 40 73 41 136 35 75 -7 112 -29 121 -74 10 -50 49 -89 112 -113 69
-26 80 -39 35 -39 -159 0 -565 -45 -599 -66 -5 -3 -9 7 -9 21 0 52 -15 65 -79
65 -67 0 -78 -9 -83 -64 l-3 -39 -77 2 c-94 3 -136 -15 -145 -60 -5 -28 -9
-30 -36 -25 -16 3 -50 6 -75 6 l-45 0 6 47 c4 35 11 52 28 63 64 41 102 88
144 174 24 50 49 114 56 141 23 101 57 120 103 60z m-2490 -346 c56 -20 56
-36 -1 -61 -67 -30 -339 -39 -427 -14 -87 26 -71 56 44 83 73 16 330 11 384
-8z m3572 -44 c240 -23 476 -68 512 -98 11 -9 11 -13 -3 -23 -13 -10 -31 -7
-96 17 -96 35 -282 73 -438 90 -169 18 -593 6 -726 -21 -105 -21 -121 -23
-113 -15 10 11 212 46 305 54 163 14 391 12 559 -4z m-5022 -184 c-5 -5 -40
-19 -79 -30 -99 -30 -275 -118 -275 -136 0 -9 12 -20 26 -25 22 -9 202 -25
532 -47 51 -3 90 -9 87 -12 -3 -3 -45 -5 -93 -4 l-87 1 80 -8 c44 -4 127 -13
185 -19 101 -10 361 -26 580 -36 176 -7 48 12 -175 27 -110 7 -187 14 -170 16
16 2 142 -3 280 -12 137 -9 331 -21 430 -27 207 -12 449 -36 390 -38 -48 -2
-87 -21 -43 -21 15 0 153 -9 305 -20 449 -32 895 -61 1088 -70 99 -5 223 -11
275 -14 63 -4 88 -3 75 3 -11 5 -45 11 -75 12 -32 1 -43 4 -27 6 29 5 576 -31
729 -47 75 -8 71 -8 -42 -4 -69 2 -170 7 -225 9 -179 9 -86 -3 185 -24 339
-26 660 -44 667 -38 2 3 -22 8 -54 12 -32 3 -65 8 -73 10 -36 8 364 -8 550
-22 257 -20 539 -23 597 -5 23 7 77 36 119 65 184 126 476 315 446 290 -18
-15 -32 -32 -32 -37 0 -5 6 -3 13 3 8 6 17 8 20 4 4 -3 7 -1 7 5 0 7 7 12 16
12 9 0 12 -5 8 -12 -12 -19 16 -4 88 46 80 56 95 73 80 88 -6 6 -82 17 -168
24 -86 7 -159 16 -162 19 -17 17 306 -12 334 -30 45 -29 51 -24 -221 -215
-239 -169 -415 -285 -455 -300 l-45 -18 -7 -108 c-4 -60 -10 -114 -13 -121 -2
-7 -19 -13 -38 -13 -31 0 -33 2 -31 28 2 15 5 66 7 115 l5 87 -117 0 c-64 0
-213 7 -331 15 -118 8 -395 26 -615 40 -220 14 -467 30 -550 35 -82 5 -233 14
-335 20 -102 5 -207 12 -235 15 -27 3 -257 19 -510 36 -253 16 -685 45 -960
64 -275 19 -572 39 -660 45 -88 5 -182 12 -210 15 -154 16 -842 57 -1098 65
-164 6 -303 11 -310 13 -15 3 -21 -101 -10 -157 l8 -38 60 -4 c33 -2 96 -9
140 -15 44 -6 125 -16 180 -24 l100 -13 -125 4 c-216 9 -414 23 -453 34 -57
17 -65 38 -69 178 -3 115 -2 124 17 135 22 13 188 78 340 133 55 20 107 40
115 44 18 10 28 3 14 -9z m4556 -6 c47 -38 107 -51 243 -49 77 1 91 4 112 24
14 13 25 29 25 37 0 19 51 16 79 -6 50 -38 12 -64 -134 -88 -103 -17 -317 -13
-375 8 -51 18 -90 47 -84 64 13 32 99 39 134 10z m1072 -33 c16 -9 28 -24 28
-33 0 -10 16 -33 35 -52 27 -27 35 -43 35 -70 0 -20 -4 -38 -9 -41 -4 -3 -6 5
-4 18 4 17 -2 28 -18 40 -13 9 -19 16 -14 17 6 0 1 4 -10 8 -14 6 -25 1 -42
-20 -69 -81 -326 -161 -598 -184 -147 -13 -142 -11 -141 -58 1 -41 2 -42 41
-48 25 -4 2 -7 -65 -7 -58 -1 -99 2 -92 6 8 6 12 24 10 50 l-3 42 -65 0 c-166
1 -427 30 -582 66 -178 41 -325 123 -342 189 -8 30 16 80 43 95 31 16 34 12
12 -16 -33 -42 -28 -86 16 -125 114 -100 417 -170 736 -171 454 -1 523 3 722
47 118 27 235 77 275 120 38 40 34 94 -10 142 -26 27 -28 32 -10 20 14 -10 37
-25 52 -35z m-2534 -170 c20 -7 14 -26 -17 -56 -28 -27 -30 -28 -107 -19 -46
5 -79 13 -81 20 -3 7 8 24 23 38 25 24 35 26 99 24 38 -1 76 -4 83 -7z m-1940
-424 c32 -16 52 -34 65 -59 16 -33 16 -39 2 -71 -8 -20 -39 -58 -70 -85 -55
-50 -60 -63 -21 -63 36 0 83 -36 102 -79 27 -59 47 -53 74 22 13 34 43 111 68
170 42 99 48 108 69 104 13 -2 31 2 40 9 10 7 26 14 36 14 9 0 17 5 17 10 0 6
5 10 10 10 6 0 10 -9 10 -20 0 -11 4 -28 9 -38 5 -9 15 -55 21 -102 19 -132
27 -160 51 -160 15 0 19 -5 16 -15 -4 -8 -2 -17 2 -20 5 -2 14 17 21 43 27
108 114 213 205 248 86 32 169 -10 167 -86 -1 -44 -22 -101 -34 -94 -6 4 -13
1 -17 -5 -13 -21 -40 0 -47 35 -8 45 -33 45 -79 -1 -47 -47 -76 -107 -82 -169
-4 -43 -1 -56 18 -80 19 -24 27 -28 60 -23 20 3 64 23 98 46 34 23 61 40 61
37 0 -3 -4 -16 -10 -30 -12 -32 1 -33 34 -3 22 19 28 41 51 174 27 167 41 209
61 192 9 -7 15 -5 22 7 6 10 16 15 26 11 9 -4 16 -2 16 3 0 19 15 10 27 -15 9
-20 8 -40 -3 -92 -7 -37 -13 -68 -11 -69 1 -2 32 22 67 53 103 88 168 135 178
129 5 -3 20 6 32 19 13 14 28 25 34 25 5 0 -4 -15 -22 -33 -36 -37 -41 -53
-13 -37 27 14 36 13 22 -4 -6 -7 -9 -20 -6 -28 5 -14 -34 -56 -115 -122 -19
-16 -54 -46 -78 -68 l-43 -39 97 -120 c53 -66 99 -118 101 -115 2 2 -1 13 -8
23 -12 20 -4 102 8 89 3 -3 12 -1 20 5 7 6 13 8 13 4 0 -4 6 -3 13 3 10 9 16
4 26 -23 8 -23 21 -37 37 -41 36 -9 94 2 124 24 44 34 33 51 -69 102 -109 56
-140 83 -147 131 -6 44 21 89 81 132 137 97 285 83 285 -28 0 -29 -28 -90 -37
-81 -3 3 -12 -2 -19 -12 -8 -10 -13 -12 -14 -4 0 6 -7 12 -15 12 -10 0 -15 10
-15 30 0 35 -11 37 -70 14 -39 -16 -66 -46 -56 -62 3 -5 40 -26 82 -48 43 -21
97 -57 121 -80 36 -34 43 -47 43 -79 0 -57 -61 -113 -167 -153 -74 -29 -147
-43 -130 -25 7 6 -84 53 -92 47 -2 -1 18 -30 44 -63 25 -34 44 -61 42 -61 -2
0 -28 18 -57 40 -57 43 -85 53 -55 20 26 -28 13 -34 -19 -9 -22 17 -36 20 -74
16 -42 -5 -44 -5 -19 5 15 7 27 15 27 20 0 4 -24 31 -53 60 -29 29 -73 76 -98
105 l-46 51 -11 -46 c-6 -26 -14 -68 -18 -95 -3 -26 -11 -50 -17 -54 -6 -4 -8
2 -5 15 4 12 3 22 -2 22 -8 0 -25 -40 -33 -75 -3 -11 -5 -5 -6 15 -1 19 -6 42
-11 50 -9 13 -11 13 -21 0 -8 -11 -9 4 -6 58 l4 74 -71 -70 c-114 -112 -129
-117 -209 -82 -58 26 -104 78 -118 135 -13 51 -22 61 -37 42 -7 -9 -6 -35 4
-87 17 -89 17 -89 3 -70 -8 11 -9 1 -6 -40 l5 -55 -16 38 c-9 23 -20 36 -28
33 -7 -3 -17 7 -23 22 -7 20 -10 22 -10 8 -2 -33 -14 -9 -31 61 -19 77 -36 91
-46 36 l-8 -38 -6 30 c-5 25 -10 30 -30 28 -59 -6 -67 -11 -63 -40 3 -16 9
-38 15 -50 6 -13 8 -26 5 -30 -4 -4 -13 8 -19 25 -16 41 -24 40 -45 -3 -9 -19
-22 -35 -29 -35 -7 0 -18 -13 -26 -30 -17 -38 -24 -38 -32 2 -6 30 -7 31 -21
12 -14 -19 -14 -19 -15 2 0 12 7 40 14 62 9 26 11 44 5 47 -5 4 -6 12 -3 18 4
7 -17 -11 -47 -40 -30 -28 -85 -72 -124 -97 -38 -25 -63 -46 -55 -47 8 0 -16
-16 -54 -35 -76 -37 -80 -39 -71 -24 3 6 -1 10 -9 10 -9 0 -18 -12 -22 -27
-10 -46 -12 -49 -13 -19 -1 24 -3 27 -16 16 -10 -8 -15 -32 -16 -74 -1 -46 -3
-55 -9 -36 -4 14 -8 40 -9 58 -1 31 -21 48 -21 17 0 -8 -4 -15 -10 -15 -5 0
-10 7 -10 15 0 18 3 17 -38 6 -20 -6 -32 -6 -32 0 0 5 5 9 10 9 6 0 10 5 10
10 0 6 -9 10 -20 10 -24 0 -25 6 -4 27 12 12 13 18 3 23 -8 5 2 15 30 29 48
25 62 48 38 66 -15 11 -16 14 -2 25 20 17 19 40 -2 56 -17 13 -17 13 0 14 26
0 22 44 -5 58 -23 10 -23 11 5 11 27 1 40 21 12 21 -14 0 -20 24 -16 58 1 6
-4 12 -11 12 -7 0 1 10 19 21 26 16 34 30 42 72 17 89 19 118 7 113 -96 -38
-116 -44 -121 -36 -3 6 -1 10 4 10 6 0 11 7 11 15 0 20 -19 19 -87 -5 -79 -28
-79 -25 0 16 37 19 67 39 67 45 0 5 -4 7 -10 4 -21 -13 -9 13 13 27 36 24 155
69 221 84 87 20 204 12 264 -18z m-1423 -208 c14 -164 70 -861 78 -978 2 -29
0 -49 -3 -45 -18 20 -114 1219 -97 1203 4 -3 13 -84 22 -180z m3895 153 c0 -4
7 -57 15 -118 9 -60 18 -129 21 -152 4 -33 9 -42 27 -45 15 -2 21 -9 19 -20
-6 -36 16 -16 33 30 53 140 200 262 317 262 65 0 95 -14 114 -52 14 -31 14
-37 -4 -83 -14 -34 -25 -49 -36 -47 -9 2 -16 -2 -16 -8 0 -6 -7 -6 -20 2 -12
8 -20 24 -20 40 0 70 -120 2 -189 -106 -53 -85 -37 -186 30 -186 44 0 129 47
129 72 0 4 -20 8 -45 8 -33 0 -45 4 -46 15 -4 67 -4 69 30 76 17 4 75 10 128
14 l95 7 -5 -33 c-3 -19 -18 -72 -35 -119 -16 -47 -38 -112 -47 -145 -14 -45
-20 -55 -25 -40 -7 19 -7 19 -17 0 -6 -11 -14 -35 -18 -53 -9 -45 -24 -31 -18
18 6 40 -10 57 -21 23 -3 -10 -4 6 -2 35 2 28 1 52 -1 52 -2 0 -21 -11 -43
-25 -48 -30 -73 -33 -121 -12 -77 34 -129 99 -129 162 0 20 -5 25 -23 25 -23
0 -24 -1 -15 -57 4 -32 10 -68 13 -80 6 -27 -11 -31 -19 -5 -3 9 -3 -11 -1
-46 5 -66 -8 -78 -19 -18 -4 23 -11 33 -20 30 -7 -3 -18 5 -24 18 -6 13 -11
17 -11 11 -1 -7 -5 -13 -10 -13 -5 0 -12 21 -16 48 -14 100 -9 95 -84 87 -36
-3 -74 -9 -84 -11 -9 -3 -33 -36 -52 -72 -19 -37 -34 -61 -35 -54 -1 26 -21
10 -45 -35 -22 -41 -25 -43 -20 -18 5 32 -12 71 -22 48 -2 -7 -8 -13 -13 -13
-5 0 2 26 15 58 18 43 21 59 12 67 -16 13 -20 55 -6 55 8 0 8 4 0 14 -13 15 4
26 38 26 16 0 41 43 139 242 2 4 -9 6 -25 3 -15 -2 -65 -9 -109 -16 l-81 -11
-16 -57 c-8 -31 -25 -99 -37 -151 -36 -153 -58 -228 -59 -197 -1 41 -13 33
-44 -31 l-29 -57 6 45 c3 25 2 52 -4 60 -6 10 -10 11 -10 3 0 -7 -5 -13 -11
-13 -13 0 -6 47 32 235 15 76 26 141 24 143 -2 2 -33 -1 -68 -7 -86 -15 -89
-15 -82 9 3 11 2 20 -3 20 -13 0 -10 56 4 70 6 6 51 16 100 22 49 6 95 16 102
21 15 11 232 20 276 11 28 -6 29 -7 11 -20 -17 -13 -17 -14 0 -20 15 -6 13 -9
-11 -20 l-29 -12 40 -1 c36 -1 42 3 59 34 14 26 24 34 38 29 18 -5 84 13 103
28 11 10 25 10 25 1z m1106 -107 c9 -10 25 -15 35 -13 11 3 21 2 24 -3 3 -4
-12 -11 -33 -14 -55 -10 -72 -16 -72 -27 0 -5 8 -9 18 -10 38 -1 -26 -17 -94
-23 -178 -16 -171 -15 -177 -44 -3 -15 -9 -35 -13 -45 -6 -17 -1 -18 57 -17
35 1 80 1 99 0 32 -1 33 -2 15 -12 -19 -12 -19 -12 5 -18 25 -7 25 -7 -10 -23
-26 -11 -30 -16 -15 -17 l20 -1 -20 -9 c-11 -4 -59 -11 -107 -15 l-86 -7 -13
-47 c-7 -25 -12 -48 -11 -50 1 -2 71 -3 155 -2 88 1 158 -3 167 -9 11 -7 7
-10 -20 -10 -66 -1 -9 -20 65 -21 39 -1 54 -4 35 -6 -111 -10 -140 -15 -140
-24 0 -5 12 -9 27 -9 14 0 24 -2 22 -4 -2 -2 -76 -10 -164 -16 -88 -7 -172
-18 -187 -25 -20 -10 -28 -10 -31 -1 -3 6 -9 0 -15 -14 -7 -17 -11 -19 -11 -8
-1 11 -11 18 -33 20 -22 2 -32 9 -35 23 -13 70 -12 73 11 79 18 4 27 18 39 58
11 39 12 56 3 63 -18 16 -8 73 15 80 20 7 30 25 43 78 5 22 3 27 -13 27 -24 0
-36 16 -20 26 8 5 8 8 0 13 -18 12 10 59 44 73 32 13 225 27 337 23 47 -2 72
-7 84 -19z m-4333 -246 c-2 -14 -3 -76 -3 -138 l-1 -112 -72 6 c-96 8 -97 8
-97 49 l0 37 73 -4 c59 -2 72 0 72 12 0 11 -19 18 -75 25 -41 6 -74 15 -73 20
2 6 37 11 79 13 98 4 95 24 -4 35 l-72 9 0 35 0 35 70 -4 c39 -2 70 1 70 5 0
5 8 7 18 5 11 -2 16 -12 15 -28z m1686 -315 c33 -10 69 -31 88 -50 33 -33 34
-35 19 -64 -16 -30 -57 -59 -141 -100 -38 -19 -45 -25 -30 -28 127 -26 185
-64 185 -121 0 -31 -8 -44 -53 -87 -60 -56 -108 -82 -241 -132 -61 -22 -78
-32 -51 -27 63 9 38 -2 -67 -30 -54 -15 -106 -29 -115 -32 -10 -2 0 4 22 15
35 18 36 20 10 14 -95 -20 -109 -27 -122 -68 l-11 -40 -1 38 c-1 35 -2 36 -21
25 -11 -7 -23 -28 -26 -48 -16 -99 -23 -114 -18 -37 5 72 3 78 -13 75 -10 -2
-20 -14 -22 -28 l-4 -25 -7 25 c-7 26 -14 27 -75 16 -28 -5 -29 -5 -11 9 13 9
42 15 80 15 34 0 81 7 106 16 25 9 108 34 184 55 134 38 300 98 293 106 -2 2
-34 -8 -70 -22 -38 -14 -67 -20 -67 -14 0 5 -4 8 -9 4 -5 -3 -13 0 -16 6 -4 6
-18 8 -32 4 -14 -3 -31 -1 -39 6 -10 8 -35 5 -104 -15 -50 -14 -95 -26 -99
-26 -5 0 0 17 10 37 19 38 28 92 10 64 -7 -10 -21 -12 -55 -8 -51 7 -50 8 -61
-56 -5 -29 -3 -37 6 -32 7 5 10 3 7 -5 -4 -14 -18 -20 -98 -41 -25 -6 -40 -14
-34 -16 7 -2 10 -13 7 -23 -4 -15 -14 -20 -37 -20 l-31 1 30 13 c27 11 28 13
11 23 -16 9 -15 11 11 21 15 6 43 15 62 20 34 8 35 10 58 97 12 50 25 100 29
113 5 18 2 22 -17 23 -23 0 -23 1 -4 9 17 7 17 9 3 9 -10 1 -18 4 -18 7 0 4 8
13 18 20 16 13 16 13 -2 14 -25 0 -13 12 26 26 27 9 35 21 60 88 l28 79 -37
-7 c-21 -4 -56 -10 -78 -13 -37 -5 -38 -4 -21 9 18 14 18 15 -5 21 l-24 7 30
25 c33 27 31 30 -12 15 l-28 -10 24 18 c13 9 67 27 120 39 83 19 119 22 266
19 126 -2 184 -8 224 -21z m871 -4 c41 4 111 8 155 7 l80 0 -50 -13 c-43 -11
-46 -13 -20 -15 26 -1 27 -3 10 -10 -30 -13 60 -12 210 1 71 6 145 8 172 3 32
-5 40 -9 26 -12 -35 -5 -27 -22 10 -23 29 -1 27 -3 -23 -19 -45 -15 -50 -18
-26 -19 68 -2 4 -20 -112 -32 l-123 -12 -20 -38 c-10 -21 -19 -41 -19 -45 0
-4 39 -4 88 -1 48 4 96 2 107 -3 19 -8 19 -9 -3 -9 -29 -1 -19 -21 11 -22 20
-1 21 -2 2 -6 -11 -3 -31 -10 -45 -16 l-25 -10 25 -7 c18 -4 1 -9 -55 -14
-153 -13 -149 -11 -167 -64 -10 -25 -16 -48 -14 -50 2 -2 66 1 143 5 76 5 163
6 193 2 45 -5 48 -6 18 -8 -21 0 -38 -5 -38 -10 0 -12 36 -20 95 -22 43 -2 40
-3 -25 -9 -41 -4 -90 -11 -109 -15 -25 -6 -32 -5 -27 3 4 7 16 12 27 12 10 0
19 5 19 10 0 6 -12 10 -26 10 -16 0 -23 4 -18 11 5 8 -29 9 -122 4 -71 -4
-133 -8 -139 -9 -5 0 -9 4 -8 9 9 60 9 60 -25 63 -18 2 -30 8 -27 13 4 5 0 9
-8 9 -15 0 -37 -48 -37 -82 0 -20 -61 -53 -83 -45 -7 3 3 9 22 14 30 8 37 16
52 58 22 63 23 79 5 72 -11 -4 -14 1 -11 21 2 15 4 29 5 32 2 3 2 8 1 12 0 3
13 11 29 16 22 8 32 21 41 52 10 34 10 43 0 50 -8 4 -10 13 -7 19 4 6 2 11 -4
11 -6 0 -8 5 -4 11 4 8 -3 9 -22 6 -16 -3 -59 -9 -95 -12 l-67 -6 -62 -167
c-83 -220 -113 -289 -104 -242 3 19 12 46 19 60 7 14 17 41 23 60 5 19 13 42
16 51 6 14 -2 16 -53 16 l-59 0 -33 -101 c-31 -94 -49 -135 -49 -109 0 6 27
91 61 189 81 237 79 228 43 220 -28 -5 -73 -12 -144 -22 -31 -4 -33 -3 -17 9
15 13 16 16 2 27 -14 12 -14 15 2 32 15 16 15 21 3 28 -22 14 23 27 141 40 57
7 109 16 114 20 14 11 58 17 70 9 6 -3 44 -2 85 2z m1010 -19 c19 -9 37 -26
39 -37 2 -11 8 -23 14 -27 17 -11 -28 -99 -47 -92 -9 3 -17 -3 -22 -18 l-7
-23 -9 24 c-7 19 -11 21 -22 11 -12 -9 -15 -6 -18 22 -4 40 -20 45 -90 24 -65
-19 -118 -59 -102 -76 6 -6 59 -29 117 -50 134 -50 221 -93 241 -122 18 -25
21 -74 6 -83 -5 -3 -10 -14 -10 -23 0 -10 -14 -23 -32 -31 -45 -20 -24 -24 68
-12 72 9 95 8 83 -3 -2 -2 -51 -9 -109 -15 -90 -10 -123 -19 -233 -65 -70 -29
-127 -57 -125 -61 2 -4 -23 -17 -55 -30 -85 -35 -101 -39 -92 -25 9 15 -18 8
-85 -22 -25 -11 -61 -26 -80 -33 -19 -7 -52 -20 -72 -29 -70 -30 -39 -5 38 30
42 20 74 38 71 41 -3 2 -79 -20 -169 -51 -90 -31 -168 -56 -173 -56 -18 1 19
18 115 53 158 57 231 78 252 71 15 -4 18 -3 13 6 -6 10 -1 11 17 7 27 -7 171
40 323 104 l80 34 -50 6 c-27 3 -63 11 -79 18 -26 10 -40 6 -145 -38 -147 -63
-178 -75 -166 -62 6 5 59 31 120 57 180 79 310 148 313 166 4 20 -36 42 -163
87 -158 56 -206 95 -191 155 9 38 68 90 142 127 117 58 229 74 294 41z m-1471
-14 c-1 -7 1 -20 5 -29 4 -9 -8 -58 -28 -115 -19 -54 -49 -142 -66 -194 -39
-114 -61 -172 -71 -184 -10 -12 5 47 30 118 17 47 18 61 9 68 -7 4 -18 6 -24
4 -6 -2 -17 0 -25 4 -8 5 -19 4 -26 -2 -7 -6 -13 -7 -13 -2 0 29 -32 -46 -49
-116 -12 -46 -23 -86 -26 -88 -14 -14 -1 52 31 161 82 281 119 381 133 358 8
-13 57 -6 66 10 3 4 12 6 19 3 8 -3 17 -1 21 5 9 15 16 14 14 -1z m-2096 -57
c5 -1 7 -18 5 -38 -4 -45 -16 -49 -115 -38 l-63 7 0 37 c0 21 2 40 4 42 3 3
40 1 83 -2 43 -4 82 -8 86 -8z m-250 -105 c4 -6 6 -24 5 -41 -3 -29 -5 -30
-55 -33 -79 -5 -117 8 -121 42 -7 54 0 58 86 51 42 -4 80 -13 85 -19z m235
-12 c17 -5 22 -14 22 -40 0 -22 -6 -36 -15 -39 -47 -15 -51 -18 -30 -23 32 -7
45 -22 45 -54 0 -37 -14 -42 -102 -31 l-73 8 -3 38 -3 37 48 1 48 0 -45 17
c-41 16 -45 21 -48 55 l-3 37 68 0 c37 0 78 -3 91 -6z m-231 -94 c2 0 3 -19 3
-41 l0 -42 -82 7 c-44 4 -85 9 -90 12 -4 3 -8 20 -8 39 l0 34 58 3 c31 2 70 0
87 -4 16 -5 31 -8 32 -8z m4926 -56 c35 -6 37 -8 37 -45 l0 -39 -64 0 c-35 0
-78 3 -95 6 -27 6 -31 11 -31 39 0 17 3 35 7 38 8 9 96 9 146 1z m-13 -122
c43 -7 45 -8 45 -42 0 -31 -3 -35 -30 -38 -16 -2 -58 -1 -92 3 l-63 7 0 39 0
39 48 -1 c26 0 67 -4 92 -7z m-5396 -67 c-17 -43 41 -58 293 -80 95 -8 189
-18 210 -24 42 -11 273 -32 608 -56 121 -9 229 -18 240 -20 27 -5 -176 3 -365
15 -420 27 -647 39 -770 42 -133 3 -135 3 -138 -19 -5 -36 -40 -30 -50 9 -6
24 -16 34 -44 44 -34 11 -36 11 -42 -9 -3 -12 -6 -38 -6 -56 0 -63 -19 -19
-21 50 -3 76 2 86 45 105 40 17 47 17 40 -1z m6656 -26 c9 -15 1 -23 -52 -52
-35 -19 -185 -102 -334 -185 -149 -82 -299 -160 -333 -172 -33 -13 -62 -27
-62 -31 -1 -5 -3 -13 -4 -19 -1 -5 -3 -19 -4 -30 -1 -13 -8 -20 -21 -20 -16 0
-20 7 -20 33 l0 33 -292 17 c-161 10 -506 31 -767 48 -261 16 -488 30 -505 30
-21 1 -24 3 -10 6 12 2 178 -5 370 -17 192 -11 466 -27 609 -36 233 -14 501
-13 615 1 28 4 31 3 15 -5 -14 -7 -5 -8 30 -4 28 4 82 21 120 39 70 32 215
120 215 131 0 3 -6 2 -12 -2 -7 -4 -11 -5 -8 -1 3 3 30 19 60 35 30 16 87 48
127 70 40 22 73 36 75 30 3 -9 126 49 163 78 19 14 19 16 3 28 -22 16 -23 27
-3 20 9 -4 20 -15 25 -25z m-1480 -8 c21 -6 25 -13 25 -41 0 -34 -1 -35 -45
-38 -25 -1 -65 1 -90 6 -36 6 -46 12 -48 30 -7 45 3 52 70 51 35 -1 74 -4 88
-8z m258 -23 c20 -20 15 -66 -8 -73 -31 -10 -158 6 -171 21 -6 8 -8 25 -5 39
6 24 9 25 89 25 51 0 88 -5 95 -12z m-1760 -36 c18 -4 -146 -7 -365 -8 -487 0
-761 -23 -1006 -84 -84 -21 -118 -36 -57 -26 127 22 506 68 624 76 161 11 149
11 521 9 l280 -2 -170 -8 c-303 -15 -580 -46 -740 -84 -22 -6 -27 -5 -19 4 14
15 232 60 347 71 81 8 74 8 -63 5 -168 -5 -403 -30 -654 -70 -88 -14 -176 -25
-195 -25 -34 1 -35 1 -16 16 73 55 425 110 890 138 91 6 585 -4 623 -12z"/>
<path d="M204 2245 c-8 -19 5 -204 14 -209 4 -2 22 -7 40 -11 l32 -7 0 89 c0
113 -5 129 -42 142 -39 14 -38 14 -44 -4z"/>
<path d="M1625 1493 c-11 -2 -30 -6 -41 -8 -31 -7 -38 -51 -10 -70 l20 -15
-22 0 c-18 0 -22 -6 -23 -32 0 -18 -2 -40 -4 -49 -9 -47 37 -44 90 5 15 14 31
26 35 26 4 0 19 9 34 21 25 20 26 22 9 35 -16 13 -15 14 12 12 27 -3 30 0 33
28 3 30 0 32 -42 43 -46 11 -56 12 -91 4z"/>
<path d="M2469 1054 c-9 -3 -28 -34 -42 -70 l-26 -66 25 6 c52 13 191 67 223
87 22 13 30 24 24 30 -11 11 -177 21 -204 13z"/>
<path d="M2440 813 c-78 -8 -76 -6 -111 -113 -18 -54 -31 -102 -28 -105 9 -8
185 53 272 94 97 47 133 76 117 96 -21 25 -145 39 -250 28z"/>
<path d="M2687 2795 c-45 -16 -42 -13 -51 -47 -5 -21 -3 -28 9 -28 17 0 21
-16 4 -22 -7 -2 -7 -12 0 -31 l11 -28 39 20 c51 27 81 66 81 106 0 47 -25 55
-93 30z"/>
</g>
</svg>
