<?xml version="1.0" standalone="no"?>
<!DOCTYPE svg PUBLIC "-//W3C//DTD SVG 20010904//EN"
 "http://www.w3.org/TR/2001/REC-SVG-20010904/DTD/svg10.dtd">
<svg version="1.0" xmlns="http://www.w3.org/2000/svg"
 width="720.000000pt" height="544.000000pt" viewBox="0 0 720.000000 544.000000"
 preserveAspectRatio="xMidYMid meet">
<metadata>
Created by potrace 1.16, written by Peter Selinger 2001-2019
</metadata>
<g transform="translate(0.000000,544.000000) scale(0.100000,-0.100000)"
fill="#000000" stroke="none">
<path d="M1936 5391 c-42 -44 -45 -98 -11 -191 15 -41 31 -97 35 -125 4 -27
15 -77 24 -110 8 -32 13 -61 11 -63 -2 -3 -18 7 -35 22 -55 46 -150 29 -164
-30 -5 -20 -12 -24 -45 -24 -44 0 -91 -36 -91 -70 0 -11 -8 -23 -17 -27 -37
-13 -83 -66 -83 -97 0 -16 39 -113 86 -215 63 -137 96 -197 125 -227 l40 -41
-20 -34 c-13 -21 -21 -51 -21 -79 0 -81 104 -380 170 -488 11 -18 35 -42 54
-53 22 -13 39 -34 50 -64 21 -53 85 -121 134 -142 20 -9 62 -15 92 -15 54 0
55 0 73 -38 23 -49 36 -56 187 -112 188 -70 252 -85 293 -70 28 10 41 9 73 -4
27 -11 56 -15 96 -11 44 4 66 1 95 -14 20 -10 47 -19 60 -19 16 0 24 -8 29
-27 24 -100 118 -274 167 -308 12 -8 31 -15 43 -15 28 0 45 -21 37 -48 -5 -20
-12 -22 -76 -22 -53 0 -73 4 -82 16 -16 22 -88 22 -110 0 -20 -20 -34 -20 -55
-1 -10 9 -50 17 -113 21 -92 7 -97 8 -97 29 0 78 -19 98 -101 109 -77 11 -142
-13 -166 -62 0 -2 -41 10 -90 26 -48 17 -131 38 -183 47 -115 21 -465 31 -595
17 -94 -10 -116 -4 -108 26 3 15 -4 17 -54 16 -53 -2 -58 -4 -58 -24 -1 -28
-36 -47 -124 -65 -36 -8 -86 -21 -110 -30 -59 -20 -71 -19 -71 8 0 34 -19 47
-65 47 -54 0 -73 -16 -77 -65 l-3 -40 -80 -5 c-98 -7 -125 -20 -125 -61 0 -19
-6 -32 -17 -36 -10 -3 -92 -34 -183 -69 -91 -35 -237 -90 -325 -124 -88 -33
-170 -71 -183 -83 -24 -22 -24 -24 -17 -157 3 -74 11 -141 17 -148 7 -7 23
-19 38 -27 23 -12 27 -20 28 -67 2 -29 23 -298 47 -598 25 -300 48 -579 51
-621 l6 -76 -32 -13 c-18 -7 -46 -24 -61 -38 -24 -20 -29 -31 -29 -70 0 -26 3
-64 7 -86 12 -76 74 -88 608 -121 50 -3 149 -10 220 -15 72 -6 200 -15 285
-20 555 -36 2091 -144 2625 -185 105 -8 316 -24 470 -35 154 -11 334 -26 400
-32 69 -6 418 -13 818 -15 l697 -4 148 86 c81 48 225 133 321 188 194 114 201
121 201 223 0 52 -3 59 -36 90 l-36 34 21 258 c12 141 35 452 51 690 l29 432
29 29 c27 27 29 37 35 128 4 54 7 128 7 164 0 111 -10 115 -354 144 -116 10
-184 11 -195 5 -13 -8 -13 -10 -1 -10 70 -5 74 -20 6 -20 -59 0 -220 -42 -231
-61 -4 -5 -2 -9 2 -9 13 0 43 -55 43 -77 0 -11 -7 -28 -15 -39 -14 -18 -14
-17 -5 10 12 34 11 36 -35 52 -30 10 -36 9 -52 -8 -47 -52 -209 -115 -368
-143 -79 -14 -317 -44 -353 -45 -9 0 -12 -13 -10 -42 3 -39 6 -44 33 -49 17
-4 -15 -7 -70 -6 -55 0 -90 2 -77 4 16 3 21 10 18 21 -3 9 -8 29 -12 44 -6 27
-8 28 -73 28 -128 0 -462 33 -572 55 -37 8 -75 11 -87 8 -13 -3 -28 3 -42 17
-12 12 -41 30 -66 40 -69 30 -128 75 -149 113 -18 34 -18 36 0 84 10 26 31 67
47 90 25 38 27 43 12 57 -8 9 -24 16 -34 16 -22 0 -35 16 -20 25 5 3 10 1 10
-4 0 -6 14 -11 31 -11 24 0 30 4 25 15 -4 12 4 15 44 15 28 0 50 -4 50 -9 0
-5 -8 -7 -19 -4 -10 3 -21 0 -25 -5 -3 -5 0 -9 7 -8 6 0 13 -3 14 -9 2 -5 -5
-10 -13 -10 -9 0 -22 -9 -28 -20 -6 -11 -19 -33 -30 -48 -20 -31 -15 -47 9
-27 9 7 18 11 21 8 2 -3 -6 -12 -20 -21 -32 -21 -50 -75 -37 -110 31 -80 265
-171 536 -208 103 -14 284 -17 570 -8 283 9 494 54 607 129 72 49 55 104 -19
59 -20 -13 -33 -17 -29 -11 4 7 2 13 -6 13 -26 3 -215 -2 -288 -6 l-75 -5 85
20 c47 11 96 24 110 29 14 5 52 16 85 25 110 31 135 39 135 46 0 4 -10 20 -22
36 l-22 29 31 -28 c17 -16 32 -24 34 -18 2 6 15 12 29 13 14 2 31 11 39 22 10
13 16 15 21 6 10 -16 45 2 60 31 6 11 15 17 21 14 5 -4 9 12 9 35 0 38 -3 42
-37 56 -41 18 -143 20 -172 5 -14 -8 -41 -6 -103 8 -46 11 -137 27 -203 36
-66 9 -134 18 -151 21 -24 3 -43 19 -79 65 l-47 62 11 76 c6 45 7 93 2 119 -5
24 -6 52 -4 62 14 52 -55 166 -125 207 -40 24 -58 28 -122 28 -66 1 -78 4
-102 25 -14 14 -85 50 -157 80 -129 54 -131 55 -131 87 0 46 -73 148 -148 205
-149 113 -347 116 -457 5 l-40 -40 -75 2 c-74 2 -138 -10 -149 -27 -7 -10
-121 -22 -121 -13 0 3 41 33 91 66 50 33 121 92 159 133 67 71 69 72 119 72
112 0 292 128 350 250 24 50 26 66 26 175 0 110 -2 125 -28 179 -36 78 -84
136 -149 179 -63 42 -96 95 -81 129 14 31 -37 135 -72 148 -13 5 -33 26 -44
48 -56 110 -244 243 -436 309 -349 119 -785 26 -1057 -225 -99 -92 -230 -275
-214 -301 10 -15 -15 -70 -33 -76 -17 -5 -31 -40 -46 -111 -4 -22 -1 -36 9
-46 10 -11 13 -28 10 -59 -8 -73 -12 -82 -54 -137 -45 -60 -70 -133 -70 -201
0 -106 55 -251 121 -319 50 -53 239 -132 314 -132 10 0 35 -19 57 -41 31 -32
37 -43 27 -50 -8 -5 -19 -9 -26 -9 -6 0 -25 -11 -42 -26 -28 -23 -32 -24 -53
-10 -33 21 -243 82 -311 91 -68 8 -80 23 -71 88 5 34 0 64 -21 128 -46 137
-134 332 -165 364 l-29 30 37 75 c31 64 37 88 40 158 l4 84 -51 47 c-40 37
-54 59 -67 102 -9 30 -24 70 -34 89 -10 19 -26 69 -35 110 -9 41 -27 109 -40
150 -13 41 -31 104 -40 140 -9 36 -26 83 -38 105 -19 33 -28 41 -57 43 -28 2
-41 -3 -64 -27z m1804 -266 c155 -48 286 -139 362 -249 l47 -68 -1 -87 c-1
-47 3 -95 9 -106 8 -15 7 -40 -4 -95 -18 -94 -12 -329 11 -410 29 -99 19 -164
-33 -224 -16 -18 -15 -18 17 -2 24 12 32 23 32 44 0 21 2 24 10 12 5 -8 10
-25 10 -38 0 -22 1 -22 31 -7 29 16 30 16 20 -4 -22 -40 -175 -150 -285 -205
-183 -91 -231 -107 -394 -131 -231 -35 -440 24 -582 163 -57 57 -77 86 -129
192 -206 420 -125 830 214 1085 80 61 200 122 279 141 72 19 313 12 386 -11z
m-1815 -227 c9 -18 20 -54 24 -80 8 -48 8 -48 -21 -48 -16 0 -46 -9 -67 -20
-47 -24 -51 -18 -51 74 0 79 17 103 77 105 15 1 27 -9 38 -31z m-142 -106 c4
-32 9 -66 13 -75 4 -11 1 -17 -8 -17 -7 0 -30 -9 -51 -19 -23 -12 -39 -15 -43
-9 -4 6 -9 39 -12 74 -6 76 11 104 63 104 32 0 32 -1 38 -58z m459 -81 c97
-62 110 -98 57 -153 -18 -18 -27 -26 -21 -18 8 12 -1 23 -42 54 -50 38 -51 39
-51 92 0 30 2 54 6 54 3 0 26 -13 51 -29z m2280 20 c30 -13 110 -83 83 -74
-11 4 -29 17 -40 29 -31 34 -57 37 -96 11 -56 -38 -81 -115 -87 -272 -4 -113
-2 -141 18 -212 22 -82 70 -173 90 -173 6 0 8 4 5 10 -10 16 42 35 58 22 10
-9 18 -8 33 3 10 8 23 15 27 15 17 0 -5 -21 -58 -56 -69 -45 -98 -41 -154 23
-46 52 -75 130 -92 252 -18 125 -8 211 34 302 52 112 107 149 179 120z m123
-107 c25 -10 73 -116 85 -188 17 -106 -11 -239 -62 -293 -22 -24 -62 -31 -73
-13 -3 5 0 7 8 4 22 -8 74 59 92 118 21 72 19 167 -5 229 -26 70 -68 129 -92
129 -11 0 -16 5 -13 10 7 11 35 13 60 4z m-1992 -171 c-27 -46 -28 -53 -26
-169 1 -123 11 -177 43 -249 10 -22 26 -62 36 -89 11 -30 38 -70 70 -103 33
-33 46 -53 36 -53 -29 0 -99 40 -123 71 -49 65 -119 267 -119 346 0 23 -5 33
-15 33 -19 0 -19 17 -1 27 8 5 18 32 21 63 7 51 6 54 -9 35 -8 -11 -16 -14
-16 -8 0 7 9 18 20 25 11 7 20 17 20 21 0 24 36 79 59 91 14 8 28 13 29 11 2
-2 -9 -25 -25 -52z m-312 -244 c52 -107 132 -335 137 -386 5 -57 -9 -90 -69
-162 l-32 -37 -83 165 c-46 90 -81 168 -77 174 7 12 -18 58 -29 51 -19 -12
-150 -44 -180 -44 -60 0 -63 -9 -33 -95 15 -43 39 -99 54 -124 15 -25 33 -62
41 -81 8 -19 25 -53 39 -75 13 -22 23 -42 21 -45 -2 -3 9 -8 26 -11 21 -5 12
-7 -31 -8 -64 -1 -127 21 -157 55 -22 26 -99 209 -138 329 -42 133 -47 182
-24 226 l19 34 3 -30 c5 -61 13 -76 54 -105 36 -27 49 -30 113 -30 120 0 208
42 263 126 37 55 40 91 12 127 -28 36 -25 42 13 20 21 -12 41 -38 58 -74z
m2412 -432 c95 -44 230 -189 213 -230 -2 -7 -5 -4 -5 5 -1 9 -17 29 -36 43
-32 25 -38 26 -82 16 -108 -23 -185 -78 -250 -178 -42 -65 -54 -69 -19 -7 31
56 32 64 7 64 -26 0 -87 37 -126 78 -26 26 -39 32 -73 32 -40 0 -42 -1 -42
-30 0 -43 22 -82 72 -125 39 -34 40 -36 11 -21 -73 37 -107 121 -84 213 18 68
54 110 125 145 56 27 68 29 146 26 65 -3 98 -10 143 -31z m-2045 -122 c67 -19
136 -41 151 -50 56 -28 85 -73 35 -55 -42 17 -63 13 -57 -10 7 -25 14 -30 71
-44 25 -7 48 -18 50 -25 3 -9 -2 -11 -14 -8 -11 3 -33 8 -51 12 l-32 6 50 -51
c27 -28 49 -55 49 -60 0 -16 -56 -11 -70 5 -7 8 -22 15 -34 14 -19 -1 -19 -2
4 -10 18 -6 12 -7 -22 -3 -51 6 -67 -9 -22 -20 45 -12 21 -15 -26 -4 -150 34
-201 52 -194 67 16 39 25 99 21 136 -6 54 -45 115 -74 115 -13 0 -23 5 -23 10
0 19 66 10 188 -25z m1570 -27 c-56 -86 -67 -278 -24 -413 16 -51 19 -72 10
-68 -13 5 -37 -29 -29 -41 3 -3 0 -2 -6 2 -5 5 -23 42 -39 83 -41 104 -37 69
5 -43 19 -51 28 -85 21 -76 -7 10 -17 14 -21 10 -5 -4 -5 0 -1 8 5 11 4 10 -6
-1 -8 -9 -36 -34 -63 -54 -28 -21 -66 -52 -85 -71 -19 -18 -56 -44 -82 -57
l-48 -24 -87 35 c-55 22 -111 36 -152 40 -36 3 -69 10 -73 16 -5 8 -8 7 -8 -1
0 -8 -13 -13 -32 -13 -18 -1 -50 -7 -71 -15 -36 -12 -41 -12 -74 11 -41 28
-65 30 -87 9 -14 -14 -17 -12 -31 22 -9 21 -25 74 -35 118 -9 44 -23 93 -31
108 l-13 28 -13 -23 c-30 -54 0 -187 74 -331 21 -39 46 -90 55 -112 l18 -40
-31 35 c-68 78 -128 239 -144 385 -9 75 25 231 62 290 31 49 63 85 76 85 5 0
-10 -21 -32 -46 -45 -52 -53 -84 -20 -84 11 0 17 -5 14 -10 -3 -6 -3 -20 1
-32 6 -20 7 -19 20 11 12 27 18 32 37 27 12 -3 32 -6 45 -6 12 0 22 -4 22 -10
0 -5 -7 -10 -15 -10 -8 0 -15 -7 -15 -16 0 -13 7 -15 37 -9 21 4 41 11 44 16
3 5 20 2 40 -8 25 -13 55 -18 114 -17 93 2 170 27 256 84 43 28 65 36 90 34
31 -3 31 -2 6 4 l-28 7 52 50 c51 48 52 48 24 11 -16 -22 -24 -37 -19 -34 5 3
38 20 74 37 36 18 88 45 115 61 28 16 57 29 66 29 9 1 22 8 29 16 19 23 24 18
8 -7z m858 -202 c62 -26 120 -56 130 -68 19 -21 19 -21 -1 -13 -11 5 -44 11
-74 13 -41 3 -52 1 -46 -9 5 -7 4 -10 -3 -5 -14 9 -103 -55 -134 -97 -14 -17
-33 -48 -42 -68 l-17 -37 -57 23 c-31 12 -83 35 -114 50 l-57 28 19 51 c38 98
160 189 245 182 22 -2 90 -24 151 -50z m-2692 -166 c14 0 27 4 30 9 3 5 16 11
28 14 l23 6 -23 -17 c-23 -18 -22 -18 100 -69 68 -28 146 -56 175 -64 55 -13
62 -29 13 -29 -54 0 -371 112 -407 144 -32 28 -28 39 7 21 16 -8 40 -15 54
-15z m3029 -13 c115 -67 164 -195 134 -342 l-9 -40 -21 26 c-28 34 -52 68 -53
77 -2 20 -18 42 -29 42 -7 0 -33 11 -56 25 -24 13 -63 27 -86 31 -24 3 -40 10
-37 15 6 11 -7 11 -58 3 -21 -4 -35 -10 -33 -14 3 -5 -3 -6 -12 -4 -28 8 -119
-74 -145 -128 -13 -27 -26 -48 -30 -48 -18 0 31 191 64 251 24 42 102 105 156
125 58 22 161 13 215 -19z m-811 -178 c37 -14 60 -30 72 -50 18 -31 61 -55
194 -109 45 -19 82 -39 82 -45 0 -7 -13 -29 -30 -50 -16 -20 -32 -52 -36 -71
-7 -40 -18 -49 -64 -59 -19 -3 -43 -9 -52 -11 -15 -4 -18 1 -18 28 0 19 -5 39
-12 46 -13 13 -106 16 -124 4 -6 -4 -14 -27 -18 -52 l-6 -45 -94 0 c-102 0
-136 -15 -136 -60 0 -20 -4 -21 -57 -17 -32 2 -59 5 -60 6 -1 1 3 20 8 41 9
35 16 43 56 59 33 14 57 35 91 80 53 72 117 203 134 275 6 28 13 51 14 51 1 0
27 -9 56 -21z m791 -123 c58 -24 105 -60 167 -130 33 -37 34 -39 10 -32 -57
18 -81 18 -99 2 -16 -15 -19 -15 -31 -1 -19 23 -73 19 -99 -9 l-22 -24 -38 21
c-40 22 -78 19 -105 -8 -18 -18 -22 -13 -30 47 -8 52 7 98 43 136 31 31 124
30 204 -2z m-3330 -229 c20 -9 37 -21 37 -27 0 -6 -20 -20 -46 -31 -82 -37
-380 -42 -449 -8 -57 28 -37 52 65 75 80 19 343 13 393 -9z m-1001 -80 c-12
-13 -22 -31 -22 -41 0 -26 19 -56 35 -56 7 0 15 -5 17 -10 5 -15 140 -58 237
-76 128 -23 380 -31 420 -13 17 8 31 17 31 21 0 5 -34 8 -77 8 -141 0 -70 7
122 12 176 5 184 4 105 -7 -117 -16 -82 -30 75 -29 195 0 382 38 519 104 l61
30 -33 -28 c-59 -52 -268 -107 -512 -137 -165 -19 -180 -25 -180 -64 0 -27 3
-30 38 -33 21 -2 1 -6 -45 -8 -52 -3 -82 -1 -82 5 6 54 0 63 -48 68 -443 43
-623 81 -691 148 -40 39 -40 63 -1 100 37 34 62 39 31 6z m-451 -140 c-6 -8
-39 -22 -73 -32 -35 -10 -114 -42 -175 -71 -168 -80 -156 -98 78 -114 269 -19
475 -37 444 -39 -57 -3 -60 -18 -4 -25 58 -7 644 -44 799 -50 92 -4 93 -3 25
5 -133 16 -250 27 -294 28 -24 1 -42 4 -38 7 5 5 66 3 562 -27 231 -14 451
-36 380 -38 -27 -1 -56 -5 -63 -10 -8 -5 59 -13 160 -20 95 -6 229 -16 298
-21 69 -6 202 -15 295 -20 94 -6 229 -15 300 -20 72 -5 216 -14 320 -20 105
-5 233 -13 285 -16 107 -7 117 7 12 18 -100 10 166 0 360 -14 173 -12 225 -28
71 -22 -151 6 -8 -12 237 -30 504 -37 795 -44 535 -13 -63 8 335 -4 450 -14
285 -22 546 -30 618 -19 75 11 87 17 240 121 173 118 381 251 364 232 -9 -11
-14 -23 -10 -28 5 -4 3 -5 -4 -1 -6 3 -15 1 -18 -5 -13 -20 2 -19 29 2 15 12
30 18 34 15 3 -4 0 -11 -8 -16 -8 -6 -12 -10 -7 -10 12 0 172 108 191 129 17
19 17 20 -6 34 -15 10 -65 18 -147 22 -68 4 -135 11 -150 16 -26 9 127 4 243
-7 58 -6 102 -32 94 -56 -7 -21 -621 -441 -694 -475 l-52 -24 -7 -107 c-3 -59
-8 -113 -10 -120 -3 -6 -19 -12 -37 -12 l-33 0 5 111 c3 61 3 113 1 115 -2 2
-54 4 -115 4 -61 0 -212 7 -336 15 -678 45 -801 53 -1420 90 -135 8 -272 17
-305 20 -33 3 -163 12 -290 20 -226 15 -669 45 -1260 85 -165 11 -399 27 -520
35 -121 8 -242 17 -270 20 -139 15 -835 57 -1085 66 -157 6 -296 11 -310 12
-24 2 -25 -1 -28 -58 -1 -33 1 -77 5 -99 l8 -38 60 -4 c33 -2 89 -8 125 -14
36 -6 117 -17 180 -24 l115 -14 -125 4 c-206 8 -412 24 -452 35 -55 14 -65 38
-71 167 -4 106 -3 115 17 137 13 15 85 47 201 90 99 36 200 74 225 85 55 23
66 24 51 7z m3077 -213 c30 -8 28 -25 -7 -58 -28 -27 -31 -28 -106 -21 -90 9
-105 25 -59 62 23 18 41 23 89 23 33 0 70 -3 83 -6z m-1935 -422 c60 -27 81
-60 74 -115 -5 -36 -15 -51 -67 -99 -40 -37 -57 -59 -49 -62 8 -2 26 -7 42
-10 32 -8 85 -60 93 -93 9 -32 42 -30 50 3 4 15 21 61 39 103 90 214 90 215
112 207 8 -3 34 5 59 19 41 23 45 23 50 7 3 -9 9 -26 14 -37 7 -18 16 -71 36
-217 5 -42 9 -48 30 -48 18 0 24 -6 25 -22 0 -13 9 3 19 34 23 74 58 133 107
180 134 129 303 83 257 -71 -10 -34 -19 -49 -28 -45 -7 3 -16 -2 -20 -11 -5
-14 -8 -14 -20 -3 -7 8 -17 29 -21 46 -9 43 -35 42 -80 -3 -47 -47 -76 -107
-82 -169 -4 -43 -1 -56 18 -80 19 -24 27 -28 59 -23 21 3 62 21 91 41 30 20
57 36 61 36 3 0 3 -13 -2 -30 -10 -36 -4 -37 32 -5 24 20 30 38 42 117 37 231
48 274 66 263 6 -4 17 -2 24 4 7 6 21 9 30 5 9 -3 16 -1 16 5 0 21 16 11 26
-16 7 -20 6 -47 -3 -92 -7 -35 -11 -66 -9 -69 3 -2 26 16 53 40 93 86 176 149
188 144 7 -2 23 6 36 20 36 38 44 28 9 -12 -17 -20 -29 -39 -25 -42 3 -3 11 0
17 6 18 18 30 14 20 -5 -5 -10 -8 -23 -5 -29 4 -11 -36 -50 -147 -144 -36 -30
-71 -60 -78 -67 -11 -11 -4 -25 39 -81 117 -148 173 -205 139 -142 -13 25 -5
94 11 85 5 -4 9 -1 9 5 0 7 6 10 14 7 7 -3 18 -1 23 4 5 5 14 -5 22 -26 8 -23
20 -37 37 -41 59 -15 149 22 149 62 0 13 -21 29 -72 55 -117 59 -141 76 -158
110 -34 64 14 138 125 194 118 60 230 32 230 -58 0 -30 -29 -89 -40 -82 -4 3
-11 -2 -14 -10 -5 -13 -9 -12 -26 5 -11 11 -20 29 -20 40 0 12 -7 20 -17 20
-27 0 -101 -39 -108 -58 -7 -20 8 -32 98 -78 91 -46 147 -103 147 -148 0 -63
-73 -125 -196 -166 -65 -22 -99 -25 -89 -10 3 6 -1 10 -10 10 -9 0 -34 9 -55
20 -22 11 -40 18 -40 14 0 -3 21 -33 47 -66 41 -54 43 -59 17 -42 -16 10 -41
29 -56 43 -32 28 -50 21 -23 -9 24 -26 11 -26 -26 1 -24 17 -39 20 -77 16 -42
-5 -44 -5 -19 5 15 7 27 15 27 20 0 4 -24 31 -53 60 -29 29 -73 76 -98 105
l-46 51 -11 -46 c-6 -26 -14 -65 -18 -87 -4 -22 -11 -47 -16 -55 -7 -11 -8
-10 -5 8 3 12 2 22 -3 22 -8 0 -25 -40 -33 -75 -3 -11 -5 -4 -6 16 -1 35 -31
80 -31 48 -1 -11 -3 -11 -9 1 -5 8 -5 38 -1 65 4 28 6 52 4 54 -3 3 -33 -22
-67 -56 -65 -63 -123 -103 -150 -103 -9 0 -41 12 -72 26 -59 28 -96 76 -110
142 -5 23 -12 32 -26 32 -10 0 -19 -2 -19 -4 0 -2 7 -39 15 -82 8 -43 13 -80
10 -82 -3 -3 -5 0 -5 6 0 7 -4 12 -9 12 -4 0 -5 -19 0 -42 12 -64 10 -68 -13
-18 -12 27 -22 40 -26 31 -3 -9 -9 -5 -18 15 -8 20 -13 23 -13 11 -2 -30 -18
-10 -25 30 -14 80 -26 103 -49 99 -131 -27 -123 -22 -147 -87 -12 -32 -28 -59
-35 -59 -7 0 -19 -13 -27 -30 -17 -38 -24 -38 -32 2 -6 30 -7 31 -21 12 -19
-25 -19 -14 1 53 13 46 14 57 3 64 -10 6 -28 -5 -59 -36 -25 -24 -75 -64 -112
-88 -37 -24 -64 -48 -60 -52 4 -5 -1 -5 -11 -2 -10 4 -16 3 -12 -3 8 -13 -63
-43 -97 -41 -23 1 -29 -4 -37 -31 -5 -18 -10 -25 -10 -15 -1 10 -7 17 -13 15
-8 -3 -15 -32 -19 -74 -6 -80 -13 -73 -17 19 -2 41 -18 50 -25 15 l-4 -23 -8
23 c-8 25 -13 26 -49 12 -14 -5 -26 -6 -26 -1 0 5 7 12 16 15 21 8 6 29 -17
23 -24 -6 -25 9 -1 22 14 9 15 12 3 20 -11 7 -4 14 28 30 23 12 44 27 46 34 2
7 5 58 8 115 3 81 1 102 -10 102 -7 0 -13 7 -14 15 -4 58 -1 67 24 88 24 19
28 31 34 100 l6 79 -39 -18 c-21 -9 -52 -19 -69 -22 -27 -4 -29 -3 -16 11 23
28 -13 32 -76 8 -31 -12 -58 -19 -61 -16 -3 2 4 8 14 11 65 24 124 55 124 65
0 6 -7 9 -15 5 -8 -3 -15 -1 -15 4 0 21 175 94 263 110 76 13 188 5 240 -18z
m-1414 -272 c59 -666 85 -1043 61 -916 -22 119 -101 1169 -87 1156 3 -3 15
-111 26 -240z m3894 183 c4 -21 13 -91 22 -157 8 -65 18 -122 21 -127 3 -5 14
-9 24 -9 13 0 17 -5 14 -15 -4 -8 -2 -15 4 -15 6 0 16 17 23 38 20 63 58 119
117 173 70 64 141 99 204 99 66 0 96 -14 115 -54 14 -31 15 -39 2 -72 -8 -20
-23 -42 -34 -48 -11 -6 -23 -15 -27 -20 -10 -15 -38 20 -38 48 0 71 -146 -21
-201 -126 -24 -47 -25 -124 -2 -150 32 -35 125 -11 172 46 12 14 9 16 -38 16
-34 0 -51 4 -52 13 0 6 -2 24 -3 40 -2 32 3 34 115 47 136 16 138 16 134 -22
-2 -18 -12 -58 -23 -88 -11 -30 -33 -95 -48 -145 -20 -67 -29 -85 -35 -70 -8
22 -7 23 -33 -50 l-15 -40 0 42 c-1 23 -5 45 -11 48 -5 3 -10 1 -10 -4 0 -6
-4 -11 -9 -11 -4 0 -5 19 -1 43 5 23 7 43 6 45 -2 1 -24 -9 -50 -23 -57 -30
-74 -31 -131 -4 -57 27 -102 78 -110 126 -10 58 -12 62 -35 56 -12 -3 -19 -11
-17 -18 3 -6 8 -43 12 -81 5 -52 4 -65 -5 -54 -9 11 -10 1 -5 -44 7 -64 -8
-72 -19 -10 -4 21 -12 34 -19 31 -7 -2 -17 5 -24 17 -7 12 -12 15 -13 9 0 -7
-4 -13 -9 -13 -5 0 -12 21 -16 48 -13 89 -14 92 -51 92 -18 0 -56 -5 -85 -11
-50 -11 -52 -12 -81 -76 -17 -36 -34 -60 -37 -54 -10 15 -26 1 -49 -44 -20
-37 -21 -38 -16 -10 2 17 0 37 -6 45 -9 13 -11 13 -20 0 -17 -25 -11 6 10 60
24 61 24 64 5 56 -17 -6 -20 9 -4 20 8 4 7 9 -2 16 -11 8 -11 11 -1 15 10 4
10 8 2 19 -9 10 -6 14 17 19 15 4 31 7 35 8 4 1 34 58 68 125 l60 124 -42 -7
c-24 -3 -73 -11 -110 -17 l-67 -11 -16 -66 c-9 -36 -20 -79 -25 -96 -4 -16
-14 -55 -21 -85 -21 -95 -47 -176 -48 -151 l-1 24 -23 -25 c-13 -14 -29 -40
-35 -59 l-12 -34 5 45 c2 25 0 52 -5 60 -7 10 -10 11 -10 3 0 -7 -5 -13 -10
-13 -6 0 -8 16 -4 43 9 59 54 298 61 321 5 17 1 18 -38 12 -95 -15 -134 -18
-120 -8 8 6 10 15 5 23 -14 22 -13 67 1 79 7 6 53 16 101 22 49 6 95 16 102
21 14 11 231 19 276 10 28 -5 29 -6 11 -19 -10 -8 -13 -14 -7 -14 7 0 12 -4
12 -10 0 -5 -6 -10 -14 -10 -8 0 -18 -4 -21 -10 -4 -6 9 -10 32 -10 34 0 41 4
57 35 14 26 24 34 38 29 18 -5 84 13 103 28 17 14 22 9 28 -29z m1077 -68 c14
-8 40 -14 58 -15 44 0 41 -18 -5 -25 -21 -4 -48 -12 -61 -18 -21 -10 -21 -12
-6 -17 29 -10 4 -18 -81 -24 -161 -13 -173 -16 -178 -39 -3 -12 -9 -32 -13
-45 -7 -23 -5 -23 57 -22 35 1 80 1 99 0 32 -1 33 -2 15 -12 -19 -12 -19 -12
5 -19 25 -6 25 -7 -8 -19 -23 -8 -30 -15 -22 -20 18 -11 -10 -18 -107 -26
l-83 -7 -13 -46 -13 -46 162 -5 c89 -3 166 -8 170 -12 4 -5 -8 -8 -27 -9 -60
-1 -1 -17 71 -19 76 -3 65 -6 -42 -15 -76 -7 -110 -25 -46 -25 73 0 12 -9
-137 -20 -88 -7 -172 -18 -187 -25 -20 -10 -28 -10 -31 -1 -3 6 -9 0 -15 -14
-9 -22 -11 -23 -17 -7 -5 11 -18 17 -37 17 -23 0 -29 4 -24 16 3 9 3 21 -1 27
-16 26 -12 56 9 59 27 4 65 107 45 123 -19 16 -9 73 14 80 20 7 30 25 43 78 5
23 3 27 -15 27 -20 0 -21 4 -15 46 7 56 12 64 36 64 10 0 21 4 25 9 3 5 62 10
132 10 69 1 129 3 131 6 11 11 88 4 112 -10z m-4345 -543 c38 -7 40 -9 40 -42
0 -42 -14 -46 -113 -35 -68 7 -79 17 -68 60 6 22 11 25 54 24 26 0 65 -3 87
-7z m1724 -27 c33 -10 69 -31 88 -50 33 -33 34 -35 19 -64 -19 -36 -53 -61
-131 -96 l-60 -27 68 -17 c154 -40 181 -112 75 -205 -57 -50 -106 -76 -232
-123 -77 -29 -83 -37 -11 -16 11 3 17 2 13 -1 -6 -7 -201 -66 -216 -66 -4 0 0
5 8 11 11 8 5 9 -24 4 -66 -11 -85 -22 -95 -57 -9 -32 -9 -32 -10 -5 -2 60
-51 6 -52 -58 0 -22 -5 -49 -10 -60 -6 -14 -8 5 -4 58 4 70 3 78 -12 75 -9 -2
-20 -14 -24 -28 l-6 -25 -7 27 c-5 15 -13 25 -19 23 -35 -10 -77 -13 -77 -6 0
9 39 24 55 21 44 -9 85 -2 220 41 55 17 131 39 168 49 38 10 71 21 74 24 11
11 -20 36 -43 36 -13 0 -24 5 -24 10 0 12 -33 7 -120 -20 -65 -20 -116 -27
-94 -12 7 4 17 25 23 47 14 51 14 62 -1 47 -15 -15 -54 -16 -63 -2 -3 6 -12
10 -20 10 -18 0 -38 -92 -22 -102 8 -5 8 -10 2 -16 -10 -9 -145 -52 -162 -52
-17 1 32 23 76 35 42 10 46 14 54 51 5 21 18 70 29 107 l19 69 -23 19 c-19 17
-20 22 -8 30 12 7 13 11 2 18 -10 6 -3 12 25 24 36 14 41 21 66 92 l27 78 -37
-7 c-103 -17 -119 -18 -98 -5 19 12 18 13 -10 25 -17 7 -24 13 -17 14 7 0 23
9 35 21 l22 20 -30 -7 c-25 -5 -28 -4 -18 7 7 7 59 23 115 35 90 20 125 23
273 20 126 -2 184 -8 224 -21z m793 -4 c2 -6 33 -6 78 -1 41 5 111 9 155 9
l80 -1 -50 -13 c-42 -11 -45 -13 -20 -14 l30 -2 -30 -14 -30 -14 30 4 c94 12
388 26 412 20 l28 -8 -25 -7 c-24 -8 -24 -8 9 -15 l34 -8 -54 -18 c-45 -14
-49 -17 -25 -18 19 -1 26 -5 20 -10 -5 -6 -66 -15 -135 -22 l-126 -12 -16 -45
-17 -45 82 6 c46 4 94 4 108 0 l25 -7 -25 -7 -25 -6 24 -10 c24 -10 24 -10 -7
-16 -35 -7 -43 -23 -14 -29 9 -2 -21 -7 -68 -12 -145 -12 -144 -11 -162 -64
-10 -25 -16 -48 -14 -49 2 -2 66 0 144 5 77 4 162 5 189 1 26 -3 36 -7 21 -8
-15 0 -30 -5 -33 -11 -4 -6 16 -10 54 -10 85 0 84 -16 -2 -23 -39 -4 -84 -9
-99 -13 -18 -4 -28 -2 -28 5 0 6 11 11 25 11 14 0 25 5 25 10 0 6 -14 10 -31
10 -17 0 -28 4 -24 10 7 11 -26 12 -158 2 -49 -4 -93 -5 -98 -1 -6 3 -6 16 1
33 14 37 4 49 -32 41 -21 -5 -28 -4 -24 4 4 6 1 11 -7 11 -13 0 -45 -76 -39
-93 1 -4 -11 -12 -26 -18 -24 -8 -28 -15 -24 -34 3 -19 0 -25 -13 -25 -12 0
-15 5 -10 20 4 13 2 20 -7 20 -7 1 2 9 21 18 25 13 39 30 52 65 18 45 18 74 0
63 -4 -3 -8 10 -8 29 0 29 6 37 33 50 43 20 75 105 39 105 -12 0 -12 5 -5 26
10 26 10 26 -32 21 -24 -4 -68 -9 -99 -13 -50 -5 -56 -9 -68 -37 -7 -18 -39
-102 -71 -187 -71 -188 -89 -230 -90 -208 0 9 13 49 29 90 42 103 47 130 27
122 -10 -4 -16 -1 -16 7 -1 9 -4 8 -11 -4 -8 -14 -14 -16 -25 -6 -11 9 -17 9
-29 -1 -8 -7 -15 -9 -15 -4 -1 19 -42 -84 -51 -127 -6 -26 -16 -55 -24 -65
-19 -26 0 44 54 201 63 178 65 185 60 190 -3 2 -34 0 -70 -5 -137 -21 -136
-21 -116 -5 17 12 17 14 2 23 -16 8 -16 11 -1 35 13 19 14 26 4 30 -24 9 35
24 142 37 58 7 110 16 115 20 6 5 21 10 35 13 14 2 28 5 32 6 3 0 8 -3 10 -8z
m1088 -20 c27 -14 35 -25 35 -45 -1 -19 3 -25 13 -21 11 4 13 -1 8 -21 -10
-38 -36 -74 -50 -68 -7 3 -18 -5 -24 -18 l-11 -23 0 23 c-1 24 -15 29 -28 10
-5 -9 -10 -1 -13 22 -5 35 -6 35 -50 32 -50 -3 -145 -50 -145 -72 0 -9 36 -28
100 -53 205 -78 275 -121 275 -168 0 -34 -22 -89 -36 -89 -6 0 -18 -7 -25 -16
-12 -15 -7 -15 56 -9 39 4 78 9 88 11 9 3 17 1 17 -5 0 -6 -8 -11 -17 -11 -10
0 -58 -5 -108 -10 -76 -8 -111 -18 -220 -65 -71 -31 -132 -60 -135 -64 -11
-16 -84 -43 -124 -46 -23 -1 -95 -25 -161 -53 -133 -57 -171 -62 -52 -7 43 20
77 38 77 41 0 8 1 8 -184 -56 -137 -46 -203 -62 -144 -33 49 24 367 123 380
118 16 -6 248 71 340 114 l63 28 -47 1 c-26 0 -62 4 -80 7 -30 7 -31 8 -13 21
40 29 -8 11 -233 -88 -51 -23 -94 -39 -97 -36 -3 2 77 41 178 86 212 96 287
137 287 157 0 18 -31 34 -166 85 -134 50 -180 79 -189 119 -10 45 18 87 87
132 120 77 277 109 348 70z m-1493 -20 c10 9 13 8 13 -4 0 -8 6 -17 13 -20 9
-3 1 -34 -27 -113 -21 -60 -52 -149 -68 -199 -52 -153 -63 -181 -66 -165 -1 8
9 48 22 88 22 64 23 76 11 88 -17 17 -52 18 -58 2 -3 -10 -8 -9 -22 2 -11 9
-16 10 -11 3 4 -7 3 -13 -3 -13 -13 0 -45 -106 -37 -126 3 -7 1 -14 -4 -14 -4
0 -11 -14 -15 -30 -4 -17 -10 -30 -15 -30 -5 0 2 39 16 88 13 48 31 112 39
142 22 83 65 210 87 259 15 34 22 41 28 30 8 -12 13 -12 37 3 17 10 32 13 37
8 6 -6 15 -5 23 1z m-2089 -167 c19 -6 23 -12 20 -43 -3 -34 -5 -36 -43 -42
l-40 -5 30 -9 c43 -11 55 -24 55 -57 0 -38 -16 -43 -103 -32 l-72 9 -3 38 c-3
36 -3 37 32 37 45 0 47 14 4 26 -29 8 -33 14 -36 47 l-3 37 68 0 c37 0 78 -3
91 -6z m4686 -150 c46 -7 46 -7 46 -45 l0 -39 -64 0 c-35 0 -78 3 -95 6 -27 6
-31 11 -31 39 0 17 3 35 7 38 8 9 76 9 137 1z m264 -14 l52 0 0 -40 0 -40 -83
0 c-90 0 -107 8 -107 50 0 36 9 43 50 36 19 -3 59 -6 88 -6z m-263 -108 c38
-7 40 -9 40 -42 0 -34 -2 -35 -40 -38 -22 -2 -64 -1 -92 3 -52 6 -53 7 -53 39
0 18 3 36 7 39 8 9 86 8 138 -1z m-5352 -117 c29 -8 135 -21 235 -29 101 -9
189 -19 195 -24 7 -5 75 -15 152 -21 157 -13 804 -60 850 -62 17 -1 23 -3 14
-6 -9 -2 -232 10 -495 26 -264 17 -549 33 -634 36 -85 3 -185 8 -222 10 l-68
5 -1 -42 c0 -37 -2 -40 -10 -20 -5 13 -13 21 -19 17 -5 -3 -13 9 -18 26 -6 25
-16 35 -44 45 -20 7 -39 10 -42 7 -3 -4 -6 -26 -6 -50 0 -23 -5 -43 -10 -43
-7 0 -10 28 -8 77 3 71 5 79 27 90 22 10 27 9 38 -7 8 -11 37 -26 66 -35z
m5148 10 c15 -10 11 -65 -7 -72 -9 -3 -50 -2 -92 3 -70 8 -77 11 -80 32 -7 50
2 55 89 49 44 -4 84 -9 90 -12z m230 -15 c27 -15 26 -66 -2 -75 -32 -10 -157
5 -170 21 -6 8 -8 25 -5 39 6 24 10 25 82 25 41 0 84 -5 95 -10z m-1753 -38
c18 -4 -148 -7 -370 -7 -491 0 -717 -19 -981 -82 -114 -27 -139 -42 -41 -23
77 14 525 67 634 75 152 11 280 13 285 5 3 -4 112 -6 242 -4 l238 3 -230 -14
c-330 -19 -508 -40 -695 -81 -16 -3 -21 -2 -15 4 13 12 174 49 280 63 44 6 82
13 85 16 17 19 -388 -21 -738 -73 -95 -14 -185 -24 -200 -22 l-27 3 32 18 c98
53 444 107 818 127 174 9 630 4 683 -8z m2877 -11 c-6 -5 -102 -60 -215 -122
-113 -61 -235 -129 -272 -150 -37 -21 -95 -48 -128 -60 -33 -12 -57 -25 -54
-30 3 -5 -2 -9 -11 -9 -9 0 -13 -4 -10 -10 8 -13 -28 0 -37 14 -4 6 -22 9 -40
8 -18 -2 -296 13 -618 33 -763 47 -829 52 -755 53 33 1 168 -5 300 -13 628
-39 770 -45 992 -40 232 4 232 4 298 34 74 34 211 117 223 135 8 13 117 78
201 120 29 15 50 23 46 17 -9 -16 5 -13 45 9 39 21 49 24 35 11z"/>
<path d="M3652 4559 l-2 -46 -71 -32 c-199 -89 -389 -125 -539 -103 -42 7 -45
9 -51 42 l-6 35 -2 -31 -1 -31 -69 5 c-66 4 -71 3 -95 -23 -14 -15 -29 -43
-32 -62 -17 -90 18 -246 87 -387 48 -99 97 -157 164 -194 55 -30 66 -32 130
-29 51 4 88 13 139 37 106 48 179 60 326 51 252 -15 400 46 465 191 40 88 47
253 17 375 -35 138 -91 222 -158 239 -45 11 -118 -2 -206 -38 l-87 -36 -4 42
-4 41 -1 -46z m171 -265 c4 -21 0 -27 -22 -35 -14 -5 -35 -14 -46 -19 -17 -9
-16 -9 5 -3 14 4 36 7 50 7 21 1 25 -4 28 -33 3 -30 6 -33 30 -27 90 20 92 20
92 -7 0 -19 -7 -28 -27 -35 l-28 -10 33 -1 c27 -1 32 -5 32 -26 0 -18 -5 -25
-19 -25 -11 0 -23 -4 -26 -10 -4 -6 5 -7 23 -4 33 7 50 -9 32 -31 -6 -7 -30
-18 -53 -24 -23 -5 -75 -19 -116 -31 -40 -11 -76 -18 -79 -15 -3 2 -11 0 -18
-6 -7 -5 -32 -11 -55 -12 -35 -2 -44 2 -47 17 -2 10 2 22 10 27 10 7 9 9 -4 9
-12 0 -18 8 -18 24 0 20 7 26 33 31 55 11 67 16 67 27 0 7 -4 7 -13 0 -7 -6
-33 -13 -58 -14 -38 -3 -44 0 -47 18 -3 18 5 23 43 33 25 6 50 9 55 6 12 -8 2
82 -12 112 -17 34 -5 46 63 64 86 23 86 23 92 -7z m-715 -126 c16 -16 15 -48
0 -48 -7 0 -3 -7 9 -15 12 -8 23 -27 25 -42 3 -26 5 -27 56 -24 46 2 52 0 52
-18 0 -11 -8 -25 -17 -30 -15 -9 -14 -10 10 -11 20 0 27 -5 27 -19 0 -12 -11
-23 -27 -29 l-28 -10 33 -1 c29 -1 53 -23 40 -37 -9 -8 -102 -17 -197 -18 -74
-1 -95 2 -101 14 -4 8 -12 25 -18 37 -15 29 -15 50 1 56 7 4 6 6 -4 6 -18 1
-33 27 -23 42 3 5 22 9 42 9 28 0 33 3 24 12 -15 15 -16 58 -2 58 6 0 1 9 -10
20 -34 34 -26 49 33 53 28 2 54 4 58 5 3 1 10 -3 17 -10z"/>
<path d="M203 2244 c-8 -21 5 -196 15 -206 4 -4 22 -11 40 -14 l32 -6 1 53 c2
68 2 65 -6 121 -5 41 -10 48 -37 57 -39 14 -37 14 -45 -5z"/>
<path d="M1602 1491 c-18 -5 -35 -10 -36 -12 -5 -5 -36 -187 -36 -206 0 -31
190 97 225 151 17 25 12 51 -11 60 -28 11 -110 15 -142 7z"/>
<path d="M2469 1053 c-15 -4 -73 -133 -59 -133 31 0 253 91 264 108 14 23
-143 42 -205 25z"/>
<path d="M2415 811 l-50 -6 -35 -102 c-19 -56 -32 -105 -28 -108 3 -4 47 8 98
24 182 62 314 137 290 166 -23 27 -157 40 -275 26z"/>
</g>
</svg>
