<?xml version="1.0" standalone="no"?>
<!DOCTYPE svg PUBLIC "-//W3C//DTD SVG 20010904//EN"
 "http://www.w3.org/TR/2001/REC-SVG-20010904/DTD/svg10.dtd">
<svg version="1.0" xmlns="http://www.w3.org/2000/svg"
 width="720.000000pt" height="544.000000pt" viewBox="0 0 720.000000 544.000000"
 preserveAspectRatio="xMidYMid meet">
<metadata>
Created by potrace 1.16, written by Peter Selinger 2001-2019
</metadata>
<g transform="translate(0.000000,544.000000) scale(0.100000,-0.100000)"
fill="#000000" stroke="none">
<path d="M4661 5425 c-8 -60 -8 -308 0 -358 8 -47 7 -61 -6 -79 -9 -14 -15
-44 -15 -75 0 -49 -3 -56 -45 -98 -53 -54 -61 -80 -46 -142 19 -72 38 -102
123 -190 70 -71 78 -84 69 -101 -6 -12 -11 -39 -11 -62 0 -76 39 -380 55 -437
6 -19 -1 -26 -54 -52 -71 -37 -75 -37 -133 -11 -61 27 -168 35 -243 20 -74
-15 -110 -32 -155 -75 -32 -30 -42 -33 -118 -39 -46 -3 -98 -13 -115 -22 -46
-23 -116 -43 -121 -35 -3 4 23 26 57 48 34 23 102 82 151 132 l88 90 53 -1
c45 -1 61 4 114 38 115 73 146 100 183 159 45 75 62 139 61 236 -1 151 -56
258 -175 341 -71 49 -119 118 -98 143 22 26 -34 110 -153 228 -125 125 -194
175 -306 222 -240 101 -513 109 -781 23 -223 -72 -429 -236 -529 -423 -18 -33
-37 -64 -42 -70 -5 -5 -9 -26 -9 -47 0 -28 -7 -45 -24 -61 -41 -38 -61 -152
-31 -177 11 -9 12 -17 5 -30 -6 -10 -10 -39 -10 -63 0 -35 -7 -53 -31 -83 -95
-117 -99 -264 -13 -434 46 -94 142 -156 302 -196 101 -26 101 -26 161 -85 22
-20 50 -40 62 -44 13 -5 38 -18 55 -31 17 -13 37 -24 45 -24 8 -1 25 -7 39
-15 28 -15 27 -16 -50 -36 -73 -18 -79 -19 -74 -5 5 14 -52 33 -111 38 -30 3
-30 3 23 37 28 19 52 36 52 38 0 10 -24 -1 -70 -33 l-53 -36 -71 16 c-105 23
-254 39 -303 32 -40 -5 -43 -4 -48 19 -3 14 -7 36 -10 50 -7 31 -85 119 -177
198 -37 32 -68 63 -68 67 0 5 -20 21 -45 36 -33 19 -53 41 -70 75 -26 50 -57
79 -86 79 -10 0 -41 20 -71 43 -51 42 -275 157 -305 157 -8 0 -66 20 -127 45
-146 58 -183 59 -211 4 -8 -15 -15 -42 -15 -60 0 -61 95 -129 181 -129 30 0
76 -29 47 -30 -9 0 -31 -19 -47 -42 -17 -24 -41 -53 -54 -65 -14 -13 -30 -43
-36 -68 -6 -25 -20 -60 -31 -77 -25 -42 -25 -78 0 -127 40 -80 114 -121 217
-121 37 -1 80 -6 94 -13 24 -11 68 -60 140 -157 68 -92 170 -188 226 -215 32
-15 76 -42 98 -59 75 -61 100 -69 191 -62 66 5 83 3 87 -8 12 -30 59 -47 223
-81 188 -39 230 -42 254 -20 14 13 25 14 67 4 39 -9 62 -9 98 0 29 7 51 8 58
2 7 -5 32 -15 56 -22 29 -9 46 -20 49 -34 3 -11 27 -63 53 -115 60 -119 118
-184 174 -195 41 -7 65 -21 65 -36 0 -10 -61 0 -75 12 -12 12 -105 12 -105 0
0 -18 -33 -21 -57 -5 -16 10 -58 18 -119 21 l-94 6 0 41 c0 23 -4 46 -8 52
-35 53 -209 52 -251 -2 l-19 -24 -73 25 c-159 54 -246 67 -514 72 -137 3 -276
0 -307 -5 -51 -8 -58 -7 -58 8 0 28 -22 40 -77 40 -50 0 -53 -1 -53 -25 0 -30
-13 -37 -129 -65 -47 -12 -97 -28 -112 -36 -44 -22 -57 -18 -61 19 -3 31 -5
32 -53 35 -27 1 -55 -1 -61 -5 -17 -12 -25 -103 -9 -103 7 0 15 -7 19 -15 3
-8 16 -15 30 -15 15 0 25 -7 29 -19 4 -19 28 -26 217 -70 47 -11 128 -25 180
-31 52 -6 128 -15 168 -20 40 -6 92 -11 115 -12 64 -3 -234 -17 -353 -17 -58
0 -136 5 -175 10 -152 19 -190 22 -180 11 20 -21 167 -63 272 -78 134 -19 502
-18 720 2 299 28 520 116 499 199 -4 17 -3 24 4 20 5 -3 10 -21 10 -39 0 -91
-189 -162 -555 -207 l-185 -23 0 -37 c0 -36 2 -38 38 -42 20 -2 0 -4 -46 -5
-57 -1 -81 1 -77 9 4 6 4 25 1 43 l-6 33 -137 6 c-276 14 -465 51 -563 111
-30 19 -98 50 -150 69 l-94 36 -211 -83 c-115 -46 -271 -107 -345 -136 -74
-28 -146 -62 -159 -75 -24 -23 -24 -24 -15 -162 l9 -138 32 -20 c25 -16 33
-29 37 -60 3 -22 26 -294 51 -605 25 -311 48 -597 51 -635 l6 -71 -40 -18
c-23 -10 -51 -29 -63 -42 -20 -21 -21 -30 -16 -96 5 -62 10 -76 32 -95 46 -40
99 -47 560 -78 560 -36 1700 -115 2265 -155 926 -67 1781 -130 1886 -140 61
-5 396 -10 747 -10 l638 0 127 73 c254 147 507 298 521 312 9 9 16 43 19 93
l4 79 -37 31 -38 30 7 69 c13 134 45 572 61 813 31 495 32 499 64 529 27 25
29 32 35 141 12 204 12 208 -14 235 -30 32 -75 40 -350 59 -124 9 -249 19
-277 22 l-53 5 0 54 c0 76 -12 101 -56 115 -46 16 -133 17 -160 2 -14 -7 -36
-7 -79 4 -211 50 -539 74 -850 63 -174 -7 -255 -15 -427 -45 -37 -6 -38 -6
-38 23 0 17 -7 36 -15 43 -17 14 -112 17 -126 3 -5 -5 -13 -29 -17 -52 l-7
-43 -92 -2 c-101 -1 -133 -17 -133 -64 0 -20 -4 -23 -22 -18 -13 3 -60 6 -105
6 l-83 0 0 44 c0 61 7 74 50 96 53 27 94 80 145 185 43 90 65 161 65 210 0 17
7 28 23 34 12 5 30 18 40 29 11 11 38 24 60 27 23 4 55 14 70 22 19 9 42 12
66 8 32 -5 57 4 196 73 170 85 206 110 228 164 11 26 23 37 54 46 22 7 52 21
67 33 59 46 98 157 78 224 -8 25 -5 36 14 61 40 54 46 109 29 257 -8 73 -26
177 -40 232 -22 90 -28 104 -64 135 -38 35 -39 37 -26 67 7 17 21 69 29 115 9
46 24 120 33 164 9 48 13 97 9 117 -8 42 -48 75 -99 84 -22 3 -38 14 -49 34
-17 29 -23 31 -99 33 -17 1 -35 12 -49 29 -18 22 -29 27 -66 27 -36 0 -51 -6
-84 -36 l-40 -36 -2 93 c-2 52 -2 138 0 192 3 83 1 97 -12 97 -13 0 -16 -13
-16 -65 0 -36 -4 -65 -8 -65 -5 0 -7 29 -6 65 l3 65 -64 0 -65 0 0 -32 c0 -18
4 -50 9 -70 5 -22 5 -38 0 -38 -11 0 -18 30 -22 95 -2 28 -5 41 -6 30z m-1173
-311 c165 -34 316 -124 404 -240 42 -56 43 -60 51 -158 10 -124 10 -133 1
-331 l-7 -160 -13 74 c-20 117 -52 189 -107 245 l-48 48 -67 -4 c-70 -4 -136
-28 -264 -94 -189 -98 -351 -144 -502 -144 -123 0 -146 6 -147 34 -2 21 -2 21
-6 0 -4 -18 -9 -20 -58 -16 -75 6 -102 -3 -121 -40 -20 -38 -14 -165 10 -238
l16 -45 -5 40 -4 40 13 -35 c8 -19 10 -39 6 -44 -7 -7 24 -83 40 -96 11 -9
100 -149 100 -158 0 -10 76 -83 117 -110 32 -23 59 -29 48 -12 -4 6 12 10 40
10 32 0 77 13 142 40 122 51 180 61 311 53 80 -4 127 -1 187 11 216 45 304
142 313 346 l5 95 28 -105 c41 -153 40 -168 -22 -224 -28 -25 -55 -46 -59 -46
-5 0 -7 -7 -4 -15 4 -9 0 -15 -10 -15 -9 0 -16 -6 -16 -13 0 -7 -10 -22 -22
-33 -31 -26 -154 -95 -160 -88 -3 2 -11 -2 -18 -11 -22 -26 -39 -17 -70 38
-16 28 -30 48 -30 44 0 -12 59 -125 69 -131 5 -3 22 1 37 9 16 8 34 15 41 15
6 0 13 4 15 8 2 4 23 20 48 34 61 36 134 100 122 107 -6 4 -2 16 10 31 l21 25
-6 -25 c-5 -21 0 -18 37 20 23 25 46 52 49 60 5 13 7 13 16 -2 7 -10 19 -14
33 -10 l22 5 -23 -32 c-88 -123 -370 -278 -591 -323 -192 -40 -371 -20 -527
58 -105 53 -145 92 -216 212 -84 142 -110 207 -142 348 -23 103 -26 133 -21
219 11 198 106 402 245 527 123 110 222 167 354 203 71 19 241 18 335 -1z
m1534 -21 c15 -13 18 -31 18 -99 l0 -82 -30 15 c-17 8 -47 13 -68 11 l-37 -3
3 40 c5 73 14 120 26 127 20 13 69 8 88 -9z m151 -64 c12 -16 17 -39 17 -90 0
-38 -3 -69 -7 -69 -5 1 -30 7 -58 14 l-50 13 -3 73 c-2 52 1 76 10 82 20 13
71 0 91 -23z m-824 -323 c55 -38 48 -56 -10 -23 -50 29 -83 18 -119 -40 -39
-61 -54 -138 -47 -243 7 -111 21 -169 63 -258 36 -76 55 -93 85 -74 10 7 33
12 51 12 25 0 29 3 18 10 -12 8 -11 10 8 10 12 0 22 -4 22 -9 0 -13 -61 -62
-98 -77 -28 -12 -36 -12 -60 0 -53 28 -88 80 -123 181 -20 61 -23 89 -24 215
0 135 8 210 22 197 3 -3 17 17 32 46 18 36 37 57 61 69 48 25 61 23 119 -16z
m104 -86 c14 -11 38 -46 53 -77 26 -52 28 -67 28 -167 0 -81 -5 -123 -17 -156
-19 -48 -62 -100 -84 -100 -20 0 -16 18 6 25 10 3 29 29 42 58 20 44 24 68 24
162 0 125 -9 152 -75 223 -22 24 -40 45 -40 47 0 13 40 3 63 -15z m-1994 -207
c-33 -67 -34 -234 -1 -339 53 -172 118 -262 212 -294 40 -13 48 -19 29 -19
-52 -2 -131 19 -159 41 -63 52 -118 168 -145 311 -8 43 -15 80 -15 82 0 1 -9
5 -20 8 -11 3 -18 1 -14 -4 3 -5 0 -9 -6 -9 -20 0 -6 35 18 45 17 7 22 18 22
45 0 58 19 109 57 151 20 22 38 37 41 35 2 -3 -6 -27 -19 -53z m2829 22 c37
-41 46 -72 71 -230 40 -248 36 -307 -25 -374 -33 -37 -149 -99 -162 -87 -3 4
3 9 15 12 20 5 21 11 15 87 -4 70 -9 84 -29 100 -27 22 -34 83 -8 73 12 -4 15
6 15 62 -1 58 -2 65 -14 49 -13 -16 -14 -15 -18 13 -5 31 6 51 15 28 3 -7 6
-3 6 10 1 12 0 22 -1 22 -2 0 -25 -7 -52 -15 -27 -8 -88 -15 -135 -15 l-87 0
12 -107 c7 -60 10 -130 8 -158 -3 -27 -6 -61 -7 -75 -1 -14 4 -33 13 -44 14
-18 14 -18 -15 -3 -56 29 -96 81 -111 143 -22 95 -47 379 -37 420 11 47 36 60
27 15 -10 -48 23 -91 99 -131 60 -33 177 -30 256 5 65 30 116 78 127 122 6 24
3 37 -21 96 -12 28 11 19 43 -18z m-3953 -87 c33 -17 85 -34 116 -38 62 -8
136 -49 148 -83 12 -32 -3 -33 -80 -7 -49 17 -71 30 -79 48 -9 21 -16 24 -45
19 -23 -4 -38 -1 -46 9 -6 8 -34 27 -60 42 -90 50 -48 60 46 10z m2285 -53 c7
-8 10 -24 7 -34 -7 -28 30 -44 71 -29 16 6 22 4 22 -7 0 -17 -46 -39 -61 -29
-9 5 -25 -23 -17 -31 2 -2 26 2 53 11 58 17 79 12 72 -16 -3 -11 -1 -23 4 -26
5 -3 9 -18 9 -33 0 -15 5 -32 11 -38 20 -20 2 -39 -48 -53 -26 -8 -57 -19 -68
-25 -28 -17 -111 -38 -127 -33 -7 3 -17 -1 -23 -8 -5 -7 -29 -15 -52 -19 -36
-6 -42 -4 -48 14 -3 12 -3 25 0 31 3 5 1 10 -6 10 -7 0 -10 11 -7 30 2 16 1
31 -3 32 -5 2 -10 14 -11 27 -3 22 2 26 42 33 72 14 78 17 59 31 -11 8 -15 24
-14 45 2 18 -1 35 -6 38 -5 3 -9 16 -9 29 0 20 9 26 63 43 78 25 72 25 87 7z
m-692 -179 c2 -16 10 -36 18 -44 9 -8 12 -22 8 -34 -5 -18 -1 -19 38 -18 23 1
48 1 53 1 9 -1 30 -55 39 -102 2 -8 7 -22 11 -33 10 -24 -10 -37 -52 -34 -18
1 -35 -1 -39 -5 -15 -15 -107 -7 -126 10 -15 14 -19 14 -16 3 4 -20 -42 -20
-53 0 -22 45 -37 85 -33 92 3 4 0 8 -5 8 -6 0 -11 11 -11 25 0 19 5 25 23 25
13 0 28 -5 35 -12 9 -9 12 -7 12 9 0 12 -4 23 -10 25 -5 2 -11 17 -13 34 -2
17 -8 37 -12 44 -14 23 25 41 80 38 47 -3 50 -5 53 -32z m-1051 -26 c9 0 33
-50 38 -77 5 -29 2 -33 -22 -38 -82 -18 -127 -33 -131 -45 -4 -10 6 -12 44 -7
51 6 36 -4 -23 -17 -32 -7 -33 -7 -33 26 0 25 -8 42 -30 63 -27 26 -28 30 -14
46 8 9 35 24 59 34 25 9 45 20 45 25 0 5 15 4 32 -1 18 -5 34 -9 35 -9z m-472
-45 c49 -29 60 -40 69 -72 6 -18 -1 -28 -35 -53 -23 -16 -47 -30 -54 -30 -15
0 -76 137 -69 155 3 8 13 16 22 18 10 3 18 5 20 6 2 0 23 -10 47 -24z m-85
-102 c46 -113 47 -121 15 -133 -15 -6 -31 -7 -37 -4 -17 11 -58 113 -58 146 0
29 23 68 40 68 4 0 22 -35 40 -77z m787 -82 c71 -66 142 -138 157 -160 28 -39
29 -45 23 -129 -3 -58 -12 -104 -27 -137 l-21 -49 -19 42 c-11 23 -27 45 -37
49 -10 3 -25 12 -34 20 -9 8 -25 15 -35 16 -11 0 -32 14 -48 30 -20 21 -23 28
-10 23 39 -15 74 -18 74 -7 0 6 -5 11 -11 11 -6 0 -16 6 -23 13 -8 6 -23 19
-35 27 -11 8 -21 19 -21 25 0 6 -9 16 -20 23 -18 11 -24 8 -55 -23 -31 -31
-55 -44 -55 -31 0 3 13 24 28 48 43 65 63 125 65 194 2 52 -2 66 -21 86 -23
25 -29 48 -13 48 6 0 68 -54 138 -119z m2416 -37 c40 -9 81 -23 91 -30 22 -15
21 -15 -49 -33 -92 -24 -172 -107 -196 -203 -13 -56 -37 -66 -31 -13 5 41 5
41 -105 49 -81 6 -83 6 -89 -18 -3 -13 0 -34 6 -46 6 -12 9 -24 7 -27 -9 -9
-37 55 -37 84 0 72 86 186 166 219 29 12 106 29 152 33 7 0 45 -6 85 -15z
m302 6 c3 -5 -4 -23 -16 -39 -19 -26 -21 -39 -17 -103 8 -132 93 -244 200
-266 l53 -10 48 39 c26 22 47 35 47 28 0 -26 -80 -84 -199 -143 -146 -73 -192
-90 -222 -81 -19 6 -13 11 37 34 33 14 73 34 89 43 75 42 132 68 155 69 14 1
4 5 -22 9 -72 12 -176 96 -201 160 -5 13 -6 12 -6 -1 -1 -23 -70 -47 -233 -83
l-28 -6 0 72 c0 63 4 79 31 123 31 51 84 96 128 110 14 4 45 18 69 31 48 25
77 30 87 14z m-685 -129 c0 -6 -5 -13 -10 -16 -16 -10 -40 -74 -55 -145 -23
-107 -6 -224 47 -332 24 -48 36 -80 27 -72 -16 14 -19 14 -37 -4 -18 -18 -21
-18 -26 -4 -9 28 -66 125 -66 114 0 -11 30 -81 56 -132 13 -26 12 -26 -23 -22
-25 3 -34 1 -29 -7 4 -6 0 -11 -9 -11 -9 0 -19 -8 -22 -18 -2 -10 -20 -27 -40
-37 -19 -11 -42 -30 -50 -42 -18 -27 -70 -61 -115 -73 -25 -8 -49 -4 -109 15
-43 13 -107 27 -143 31 -37 4 -66 11 -66 15 0 5 -4 9 -10 9 -5 0 -7 -7 -4 -15
5 -11 -1 -15 -25 -15 -18 0 -51 -9 -73 -20 l-42 -20 -30 29 c-36 35 -53 39
-82 23 -19 -10 -24 -8 -37 11 -25 38 -34 74 -45 167 -6 52 -11 65 -26 68 -28
6 -38 -12 -38 -67 0 -51 7 -76 43 -158 46 -103 63 -135 88 -162 28 -30 55 -91
41 -91 -16 0 -78 85 -114 158 -48 95 -76 207 -76 304 0 79 21 184 41 202 8 8
9 5 5 -11 -5 -16 -2 -25 14 -33 11 -6 20 -20 20 -30 0 -32 18 -23 30 16 12 35
13 36 54 31 22 -3 82 -15 131 -27 97 -23 120 -22 219 11 74 25 148 73 226 144
57 52 87 72 60 40 -20 -24 12 -19 41 6 13 12 45 32 71 44 26 12 45 25 42 28
-3 3 5 8 18 13 34 10 98 53 98 64 0 13 -85 13 -129 0 -25 -7 -32 -7 -24 1 24
24 183 40 183 20z m-2483 -125 c40 -30 75 -47 105 -51 35 -5 48 -13 62 -36 9
-16 21 -29 27 -29 5 0 9 -6 9 -13 0 -22 80 -86 93 -74 1 1 21 -16 44 -38 23
-22 59 -44 80 -50 l38 -11 -48 -23 c-43 -21 -52 -22 -94 -12 -73 19 -124 54
-220 154 -76 78 -173 203 -173 221 0 13 19 4 77 -38z m905 -12 c134 -18 172
-33 192 -73 9 -16 16 -32 16 -35 0 -2 -19 -2 -42 1 -29 4 -39 3 -34 -5 4 -7
18 -12 32 -12 32 0 60 -15 68 -35 4 -13 2 -14 -14 -5 -10 5 -36 10 -57 9 -32
0 -34 -2 -17 -9 29 -11 40 -30 18 -30 -10 0 -14 -3 -11 -7 11 -10 -13 -33 -35
-33 -10 0 -30 -11 -44 -25 -15 -15 -33 -24 -42 -21 -10 2 -40 7 -69 11 l-51 7
-4 93 c-4 116 -20 144 -94 160 -35 8 -43 13 -29 17 37 10 104 8 217 -8z m-168
-417 c-8 -22 203 -77 301 -77 37 -1 39 -2 21 -15 -26 -20 -72 -19 -186 5 -170
34 -270 62 -270 74 0 2 20 1 44 -1 31 -4 51 -1 67 11 28 19 30 20 23 3z m-271
-430 c20 -9 37 -21 37 -26 0 -34 -137 -61 -306 -61 -122 0 -175 9 -209 34 -18
13 -18 16 -5 30 8 8 42 22 75 30 84 21 354 17 408 -7z m3632 -47 c210 -24 424
-69 445 -95 7 -9 6 -16 -3 -23 -10 -9 -38 -3 -111 23 -164 59 -421 95 -676 95
-169 0 -386 -15 -494 -34 -49 -9 -91 -14 -94 -11 -3 2 1 7 9 9 31 11 238 39
343 46 131 10 453 4 581 -10z m-218 -141 c97 -13 166 -41 161 -66 -16 -82
-511 -100 -590 -21 -10 10 -18 25 -16 31 16 52 258 82 445 56z m-4873 -38 c-5
-5 -40 -19 -79 -30 -99 -30 -275 -118 -275 -136 0 -9 12 -20 26 -25 23 -9 250
-29 537 -47 53 -3 95 -8 92 -11 -3 -3 -47 -6 -98 -5 -101 1 -95 0 138 -22 155
-14 393 -30 620 -40 139 -6 69 9 -90 20 -60 4 -175 13 -255 20 -118 10 -132
12 -73 14 40 0 146 -6 235 -14 90 -8 244 -19 343 -25 403 -24 503 -31 565 -39
52 -7 57 -9 25 -10 -86 -3 -64 -18 37 -25 56 -4 225 -16 373 -26 149 -11 358
-24 465 -30 107 -6 204 -13 216 -15 11 -3 122 -9 245 -15 123 -5 260 -13 304
-16 44 -4 76 -3 72 2 -4 4 -42 11 -85 15 -151 15 190 -2 458 -21 146 -11 279
-20 295 -20 19 0 25 -3 17 -8 -7 -5 -40 -5 -75 -1 -68 7 -371 19 -347 13 47
-11 884 -67 940 -63 8 1 -16 7 -55 14 -66 12 -61 13 95 9 91 -3 262 -12 380
-21 270 -20 540 -23 597 -5 23 7 77 36 119 65 207 141 475 314 444 286 -23
-20 -28 -28 -15 -24 37 12 56 14 50 4 -13 -20 15 -7 81 40 84 59 101 78 86 93
-6 6 -82 17 -168 24 -86 7 -159 16 -162 19 -7 7 31 6 182 -5 129 -9 176 -24
176 -54 0 -22 -630 -460 -700 -487 l-45 -17 -8 -108 c-4 -60 -9 -115 -12 -122
-2 -6 -19 -12 -38 -12 -31 0 -33 2 -31 28 2 15 5 66 7 115 l5 87 -115 0 c-63
0 -208 7 -321 15 -199 13 -265 18 -782 50 -129 8 -307 19 -395 25 -88 6 -241
15 -340 20 -99 6 -202 12 -230 15 -27 3 -288 21 -580 40 -291 20 -694 47 -895
60 -201 14 -464 32 -585 40 -121 8 -245 17 -275 20 -171 17 -846 57 -1095 66
-159 5 -299 11 -310 12 -18 2 -20 -5 -23 -58 -1 -33 1 -77 5 -99 l8 -38 60 -4
c33 -2 94 -9 135 -14 41 -6 122 -17 180 -25 l105 -14 -130 5 c-215 9 -408 23
-448 34 -57 17 -65 38 -69 177 -4 143 -10 133 121 181 47 18 149 56 226 86
131 50 162 58 139 37z m3852 -32 c-39 -46 -35 -89 11 -130 39 -34 122 -75 208
-102 139 -45 484 -84 640 -73 50 3 167 8 260 10 289 6 546 73 629 165 30 33
26 94 -9 131 -16 16 -24 30 -18 30 5 0 18 -9 28 -20 10 -11 26 -22 36 -25 11
-4 19 -13 19 -22 0 -9 16 -33 35 -54 26 -29 35 -48 35 -73 0 -19 -4 -37 -9
-40 -4 -3 -6 5 -4 17 3 19 -36 77 -53 77 -2 0 -18 -16 -35 -35 -70 -79 -278
-144 -559 -175 -52 -6 -114 -13 -138 -16 l-43 -5 3 -42 c3 -39 5 -42 38 -48
22 -4 3 -7 -55 -8 l-90 -1 2 50 1 50 -66 0 c-282 1 -625 58 -776 130 -148 71
-186 140 -113 207 46 41 57 43 23 2z m-758 -177 c20 -7 14 -26 -17 -56 -28
-27 -30 -28 -107 -19 -46 5 -79 13 -81 20 -3 7 8 24 23 38 25 24 35 26 99 24
38 -1 76 -4 83 -7z m-1940 -424 c32 -16 52 -34 65 -59 16 -33 16 -39 2 -71 -8
-20 -39 -58 -70 -85 -55 -50 -60 -63 -21 -63 36 0 83 -36 102 -79 29 -62 49
-54 78 32 9 27 37 98 63 158 42 101 49 110 70 106 13 -2 31 2 40 9 10 7 26 14
36 14 9 0 17 5 17 10 0 6 5 10 10 10 6 0 10 -9 10 -20 0 -11 4 -28 9 -38 5 -9
15 -55 21 -102 19 -132 27 -160 51 -160 15 0 19 -5 16 -15 -4 -8 -2 -17 2 -20
5 -2 14 16 20 41 38 150 176 276 285 260 75 -12 104 -65 80 -146 -9 -31 -19
-48 -26 -44 -5 4 -13 1 -17 -5 -13 -21 -40 0 -47 35 -8 45 -33 45 -79 -1 -47
-47 -76 -107 -82 -169 -4 -43 -1 -56 18 -80 19 -24 27 -28 60 -23 20 3 64 23
98 46 34 23 61 40 61 37 0 -3 -4 -16 -10 -30 -12 -32 1 -33 34 -3 22 19 28 41
51 174 27 167 41 209 61 192 9 -7 15 -5 22 7 6 10 16 15 26 11 9 -4 16 -2 16
3 0 19 15 10 27 -15 9 -20 8 -40 -3 -92 -7 -37 -13 -68 -11 -69 1 -2 32 22 67
53 103 88 168 135 178 129 5 -3 20 6 32 19 13 14 28 25 34 25 5 0 -4 -15 -22
-33 -36 -37 -41 -53 -13 -37 27 14 36 13 22 -4 -6 -7 -9 -20 -6 -28 5 -14 -34
-56 -115 -122 -19 -16 -54 -46 -78 -68 l-43 -39 97 -120 c53 -66 99 -118 101
-115 2 2 -1 13 -8 23 -12 20 -4 102 8 89 3 -3 12 -1 20 5 7 6 13 8 13 4 0 -4
6 -3 13 3 10 9 16 4 26 -23 8 -23 21 -37 37 -41 58 -15 149 22 149 61 0 12
-30 33 -95 66 -111 58 -138 81 -146 124 -11 60 38 120 138 171 119 60 228 31
228 -61 0 -29 -28 -90 -37 -81 -3 3 -12 -2 -19 -12 -8 -10 -13 -12 -14 -4 0 6
-7 12 -15 12 -10 0 -15 10 -15 30 0 35 -11 37 -70 14 -41 -17 -69 -50 -53 -64
4 -4 41 -25 82 -46 41 -22 94 -57 118 -80 35 -33 43 -47 43 -77 0 -41 -42 -97
-93 -124 -77 -39 -229 -82 -204 -56 7 6 -84 53 -92 47 -2 -1 18 -30 44 -63 25
-34 44 -61 42 -61 -2 0 -28 18 -57 40 -57 43 -85 53 -55 20 26 -28 13 -34 -19
-9 -22 17 -36 20 -74 16 -42 -5 -44 -5 -19 5 15 7 27 15 27 20 0 4 -24 31 -53
60 -29 29 -73 76 -98 105 l-46 51 -11 -46 c-6 -26 -14 -68 -18 -95 -3 -26 -11
-50 -17 -54 -6 -4 -8 2 -5 15 4 12 3 22 -2 22 -8 0 -25 -40 -33 -75 -3 -11 -5
-5 -6 15 -1 19 -6 42 -11 50 -9 13 -11 13 -21 0 -8 -11 -9 4 -6 58 l4 74 -66
-65 c-68 -66 -127 -107 -153 -107 -32 0 -107 41 -137 75 -17 20 -36 56 -42 80
-13 50 -19 57 -37 46 -10 -6 -9 -25 3 -87 18 -93 18 -93 4 -74 -8 11 -9 1 -6
-40 l5 -55 -16 38 c-9 23 -20 36 -28 33 -7 -3 -17 7 -23 22 -7 20 -10 22 -10
8 -2 -33 -14 -9 -31 62 -19 75 -17 75 -122 51 -46 -11 -47 -12 -69 -74 -14
-38 -28 -61 -35 -58 -6 2 -18 -10 -25 -26 -18 -39 -25 -39 -33 1 -6 30 -7 31
-21 12 -19 -25 -19 -10 1 56 11 38 13 55 5 58 -6 2 -8 9 -5 15 4 7 -17 -11
-47 -40 -30 -28 -85 -72 -124 -97 -38 -25 -63 -46 -55 -47 8 0 -16 -16 -54
-35 -76 -37 -80 -39 -71 -24 3 6 -1 10 -9 10 -9 0 -18 -12 -22 -27 -10 -46
-12 -49 -13 -19 -1 24 -3 27 -16 16 -10 -8 -15 -33 -16 -74 l-2 -61 -10 58
c-6 31 -14 57 -19 57 -4 0 -8 -7 -8 -15 0 -8 -4 -15 -10 -15 -5 0 -10 7 -10
15 0 18 3 17 -38 6 -20 -6 -32 -6 -32 0 0 5 5 9 10 9 6 0 10 5 10 10 0 6 -9
10 -20 10 -25 0 -25 9 -2 26 14 11 15 15 3 23 -11 7 -4 14 28 30 23 12 44 27
46 34 2 7 5 58 8 115 3 81 1 102 -10 102 -12 0 -18 25 -14 58 1 6 -4 12 -11
12 -7 0 1 9 19 21 25 16 34 31 42 70 6 28 11 65 11 84 l0 34 -57 -24 c-32 -13
-62 -20 -67 -17 -6 3 -5 7 2 10 20 6 14 32 -8 32 -10 0 -42 -9 -70 -20 -75
-29 -74 -24 3 16 37 19 67 39 67 45 0 5 -4 7 -10 4 -21 -13 -9 13 13 27 36 24
155 69 221 84 87 20 204 12 264 -18z m-1413 -329 c14 -162 34 -411 45 -554 11
-143 21 -282 23 -308 2 -27 1 -45 -3 -40 -19 20 -115 1220 -96 1202 3 -3 17
-138 31 -300z m3885 274 c0 -4 7 -57 15 -118 9 -60 18 -129 21 -152 4 -33 9
-42 27 -45 15 -2 21 -9 19 -20 -6 -36 16 -16 33 30 53 140 200 262 317 262 66
0 96 -14 115 -55 16 -33 16 -37 -3 -82 -14 -34 -25 -47 -37 -45 -9 2 -17 -2
-17 -8 0 -6 -7 -6 -20 2 -12 8 -20 24 -20 40 0 71 -119 2 -192 -111 -51 -80
-32 -181 33 -181 44 0 129 47 129 72 0 4 -20 8 -45 8 -33 0 -45 4 -46 15 -4
67 -4 69 30 76 17 4 75 10 128 14 l95 7 -5 -33 c-3 -19 -18 -72 -35 -119 -16
-47 -38 -112 -47 -145 -14 -46 -20 -55 -26 -40 -6 17 -9 15 -23 -17 -9 -21
-16 -45 -16 -54 0 -10 -3 -14 -7 -10 -4 4 -6 25 -4 46 3 40 -13 55 -23 23 -3
-10 -4 6 -2 35 2 28 3 52 2 52 -1 0 -27 -13 -59 -29 l-59 -29 -41 18 c-87 39
-137 99 -137 165 0 20 -5 25 -23 25 -23 0 -24 -1 -15 -57 4 -32 10 -68 13 -80
6 -27 -11 -31 -19 -5 -3 9 -4 -9 -2 -40 3 -64 -8 -78 -18 -23 -4 22 -11 32
-20 29 -7 -3 -18 5 -24 18 -6 13 -11 17 -11 11 -1 -7 -5 -13 -10 -13 -5 0 -12
21 -16 48 -14 100 -9 95 -84 87 -36 -3 -74 -9 -84 -11 -9 -3 -33 -36 -52 -72
-19 -37 -34 -61 -35 -54 -1 26 -21 10 -45 -35 -23 -42 -25 -44 -21 -18 5 33
-11 70 -21 48 -2 -7 -8 -13 -13 -13 -5 0 2 26 15 58 18 43 21 59 12 67 -16 13
-20 55 -6 55 8 0 8 4 0 14 -13 15 4 26 38 26 16 0 41 43 139 242 2 4 -9 6 -25
3 -15 -2 -65 -9 -109 -16 l-81 -11 -16 -57 c-8 -31 -25 -99 -37 -151 -36 -153
-58 -228 -59 -197 -1 41 -13 33 -44 -31 l-29 -57 6 45 c3 25 2 52 -4 60 -6 10
-10 11 -10 3 0 -7 -5 -13 -11 -13 -13 0 -6 47 32 235 15 76 26 141 24 143 -2
2 -33 -1 -68 -7 -82 -14 -90 -14 -84 3 3 7 1 18 -5 24 -8 8 -8 15 1 26 9 11 9
15 -1 19 -10 4 -10 8 3 21 10 11 47 20 105 28 49 6 95 16 102 21 15 11 232 20
276 11 28 -6 29 -7 11 -20 -18 -13 -18 -14 1 -21 16 -6 15 -8 -11 -19 l-28
-11 37 -5 c34 -4 39 -1 58 34 16 28 26 37 40 32 18 -5 84 13 103 28 11 10 25
10 25 1z m1100 -102 c4 -7 19 -13 33 -15 42 -4 42 -13 0 -20 -56 -10 -73 -16
-73 -27 0 -5 8 -9 18 -10 38 -1 -26 -17 -94 -23 -178 -16 -171 -15 -177 -44
-3 -15 -9 -35 -13 -45 -6 -17 -1 -18 57 -17 35 1 80 1 99 0 32 -1 33 -2 15
-12 -19 -12 -19 -12 5 -19 25 -6 25 -7 -8 -19 -21 -8 -30 -15 -22 -20 18 -11
-9 -18 -103 -26 l-85 -7 -12 -41 c-6 -22 -11 -45 -11 -50 1 -5 70 -8 154 -7
88 1 158 -3 167 -9 11 -7 7 -10 -20 -10 -64 -1 -10 -20 60 -21 64 -2 60 -3
-47 -15 -54 -6 -74 -24 -26 -24 14 0 24 -2 22 -4 -2 -2 -76 -10 -164 -16 -88
-7 -172 -18 -187 -25 -20 -10 -28 -10 -31 -1 -3 6 -9 0 -15 -14 -7 -17 -11
-19 -11 -8 -1 11 -11 18 -33 20 -22 2 -32 9 -35 23 -13 70 -12 74 10 77 16 2
25 16 38 58 13 41 14 57 6 65 -19 16 -9 73 14 80 20 7 30 25 43 78 5 22 3 27
-13 27 -24 0 -36 16 -20 26 8 4 7 9 -2 16 -11 7 -11 11 -1 15 6 2 12 13 12 23
0 29 55 44 190 51 160 8 251 4 260 -10z m-2641 -566 c33 -10 69 -31 89 -51
l34 -34 -19 -32 c-13 -23 -45 -46 -103 -77 -59 -32 -79 -47 -65 -49 61 -10
127 -35 154 -58 24 -20 31 -34 31 -62 0 -31 -8 -44 -53 -87 -60 -56 -108 -82
-241 -132 -61 -22 -78 -32 -51 -27 63 9 38 -2 -67 -30 -54 -15 -106 -29 -115
-32 -10 -2 0 4 22 15 35 18 36 20 10 14 -95 -20 -109 -27 -122 -68 l-11 -40
-1 38 c-1 35 -2 36 -21 25 -11 -7 -23 -28 -26 -48 -16 -99 -23 -114 -18 -37 5
72 3 78 -13 75 -10 -2 -20 -14 -22 -28 l-4 -25 -7 25 c-7 26 -14 27 -75 16
-28 -5 -29 -5 -11 9 13 9 42 15 80 15 34 0 81 7 106 16 25 9 108 34 184 55
134 38 300 98 293 106 -2 2 -34 -8 -70 -22 -45 -16 -67 -21 -69 -13 -3 7 -23
12 -45 12 -23 1 -45 4 -49 9 -11 11 -36 9 -29 -3 3 -5 0 -7 -9 -4 -8 3 -48 -4
-88 -15 -90 -25 -95 -26 -75 -3 8 9 18 35 22 57 4 27 3 36 -3 26 -7 -10 -21
-12 -48 -8 -22 4 -44 3 -50 -1 -15 -10 -28 -96 -13 -86 7 4 10 2 7 -6 -4 -14
-20 -20 -97 -40 -40 -11 -42 -12 -25 -26 11 -9 14 -13 7 -10 -6 4 -14 2 -18
-4 -3 -5 -1 -10 4 -10 6 0 11 -4 11 -8 0 -4 -17 -6 -37 -4 -33 4 -35 6 -15 13
24 9 30 29 10 29 -22 1 23 22 70 34 l45 12 24 89 c12 50 25 100 29 113 5 18 2
22 -17 23 -23 0 -23 1 -4 9 17 7 17 9 3 9 -10 1 -18 4 -18 7 0 4 8 13 18 20
16 13 16 13 -2 14 -25 0 -13 12 26 26 27 9 35 21 60 88 l28 79 -37 -7 c-53
-10 -122 -16 -100 -10 23 7 22 20 -4 27 -21 6 -21 7 7 32 l29 25 -30 -6 c-29
-6 -29 -5 -10 9 11 8 63 24 115 36 123 26 402 24 489 -4z m871 -4 c41 4 111 8
155 7 l80 0 -50 -13 c-43 -11 -46 -13 -20 -15 26 -1 27 -3 10 -10 -29 -13 31
-12 210 1 104 8 161 8 185 1 26 -7 29 -10 13 -11 -36 -2 -27 -21 10 -22 29 -1
27 -3 -23 -19 -45 -15 -50 -18 -26 -19 18 -1 26 -5 20 -10 -7 -7 -194 -31
-241 -31 -11 0 -53 -68 -53 -86 0 -4 39 -4 88 -1 48 4 96 2 107 -3 19 -8 19
-9 -3 -9 -29 -1 -19 -21 11 -22 20 -1 21 -2 2 -6 -11 -3 -31 -10 -45 -16 l-25
-10 25 -7 c18 -5 2 -9 -55 -14 -154 -13 -149 -11 -167 -64 -10 -25 -16 -48
-14 -50 2 -2 67 1 144 5 77 5 162 6 189 2 37 -5 40 -7 16 -8 -18 0 -33 -5 -33
-10 0 -12 36 -20 95 -22 43 -2 40 -3 -25 -9 -41 -4 -90 -11 -109 -15 -25 -6
-32 -5 -27 3 4 7 16 12 27 12 10 0 19 5 19 10 0 6 -12 10 -26 10 -16 0 -23 4
-18 11 5 8 -29 9 -122 4 -71 -4 -133 -8 -139 -9 -5 0 -9 4 -8 9 9 60 9 60 -25
63 -18 2 -30 8 -27 13 4 5 0 9 -8 9 -15 0 -37 -48 -37 -81 0 -21 -53 -52 -78
-46 -11 2 -5 7 17 13 29 8 37 17 52 59 22 63 23 79 5 72 -15 -6 -17 27 -2 51
5 8 1 10 -11 7 -10 -3 1 4 24 15 34 17 45 28 54 61 10 33 10 42 0 49 -8 4 -10
13 -7 19 4 6 2 11 -4 11 -6 0 -8 5 -4 11 4 8 -3 9 -22 6 -16 -3 -59 -9 -95
-12 l-67 -6 -62 -167 c-79 -208 -109 -281 -109 -262 0 8 7 33 15 55 9 22 23
65 33 96 l18 56 -56 0 -56 -1 -22 -55 c-13 -30 -23 -62 -24 -70 -1 -21 -37
-100 -38 -84 -1 7 26 93 60 190 80 235 79 227 43 220 -16 -3 -49 -9 -74 -12
-25 -3 -58 -8 -75 -11 -27 -4 -28 -4 -12 9 15 13 15 16 2 27 -12 10 -12 15 1
35 12 18 12 24 2 28 -25 9 39 25 143 37 57 7 109 16 114 20 14 11 58 17 70 9
6 -3 44 -2 85 2z m1010 -19 c19 -9 37 -26 39 -37 2 -11 8 -23 14 -27 18 -11
-28 -99 -48 -92 -10 4 -18 -2 -23 -17 l-9 -23 -6 24 c-5 19 -9 21 -21 11 -12
-10 -15 -7 -18 21 -4 41 -21 45 -92 23 -66 -21 -116 -58 -100 -75 6 -6 59 -29
117 -50 134 -50 221 -93 241 -122 18 -25 21 -74 6 -83 -5 -3 -10 -15 -10 -26
0 -10 -6 -19 -12 -19 -7 0 -22 -8 -33 -16 -19 -15 -15 -15 45 -9 36 3 77 8 93
11 15 3 27 1 27 -4 0 -5 -48 -14 -107 -20 -93 -11 -126 -20 -236 -66 -70 -29
-127 -57 -127 -62 1 -4 -31 -20 -72 -36 -83 -32 -81 -32 -72 -17 10 17 -31 2
-238 -85 -70 -30 -39 -5 40 31 42 20 72 38 66 40 -5 2 -82 -21 -169 -52 -150
-52 -199 -66 -165 -46 16 10 162 63 272 100 40 14 75 20 89 16 16 -5 19 -4 14
5 -6 10 -2 11 16 7 26 -7 178 42 324 104 l80 34 -50 6 c-27 3 -64 12 -82 18
-24 10 -37 10 -54 1 -12 -7 -79 -36 -148 -65 -69 -29 -144 -61 -166 -70 -71
-30 -23 0 60 37 387 175 435 200 435 223 0 18 -48 42 -165 84 -158 56 -206 95
-191 155 9 38 68 90 142 127 117 58 229 74 294 41z m-1471 -14 c-1 -7 1 -20 5
-29 4 -9 -8 -58 -28 -115 -19 -54 -49 -142 -67 -194 -39 -116 -60 -172 -70
-184 -10 -12 5 47 30 118 12 33 21 62 21 66 0 4 -24 7 -52 7 -64 -1 -72 -9
-92 -98 -9 -36 -20 -77 -25 -90 l-10 -24 0 23 c-1 37 105 390 141 471 14 32
22 41 28 31 7 -11 15 -11 49 2 29 12 41 13 41 5 0 -7 5 -4 11 6 12 20 21 22
18 5z m-2098 -65 c6 -6 9 -23 7 -39 -4 -35 -22 -39 -115 -29 l-63 7 0 37 c0
21 2 40 4 42 9 9 157 -8 167 -18z m-248 -97 c4 -6 6 -24 5 -41 -3 -28 -6 -30
-50 -33 -26 -2 -65 2 -87 8 -37 10 -41 14 -41 44 0 18 3 36 7 40 11 11 157 -5
166 -18z m235 -12 c17 -5 22 -14 22 -40 0 -29 -5 -36 -32 -48 -25 -11 -28 -15
-12 -15 28 -1 44 -20 44 -53 0 -37 -15 -42 -102 -31 l-73 8 -3 38 -3 37 48 1
48 0 -45 17 c-41 16 -45 21 -48 55 l-3 37 68 0 c37 0 78 -3 91 -6z m-231 -94
c2 0 3 -19 3 -41 l0 -42 -82 7 c-44 4 -85 9 -90 12 -4 3 -8 20 -8 39 l0 34 58
3 c31 2 70 0 87 -4 16 -5 31 -8 32 -8z m4926 -56 c35 -6 37 -8 37 -45 l0 -39
-57 0 c-32 0 -75 3 -95 6 -35 6 -38 9 -38 39 0 17 3 35 7 38 8 9 96 9 146 1z
m-25 -121 c57 -6 68 -17 58 -58 -6 -22 -12 -25 -50 -25 -24 0 -64 3 -90 6 -46
7 -46 7 -46 45 0 38 1 39 38 39 20 0 61 -3 90 -7z m-2406 -99 l-18 -49 340 -2
c188 -1 357 -6 376 -11 23 -6 -52 -8 -220 -5 -425 9 -861 -21 -1105 -76 -103
-23 -166 -44 -105 -36 531 76 540 77 990 80 l425 3 -220 -13 c-281 -16 -419
-31 -575 -61 -145 -28 -137 -27 -124 -14 14 14 240 59 348 70 79 8 71 8 -64 5
-171 -5 -412 -31 -653 -69 -87 -15 -175 -26 -195 -26 -35 1 -36 1 -17 16 24
18 123 47 230 68 103 20 394 56 449 56 87 0 103 8 120 58 9 25 16 59 17 76 l1
31 9 -26 c7 -20 5 -39 -9 -75z m-2979 27 c-11 -42 67 -61 307 -76 52 -3 131
-13 175 -20 44 -8 103 -16 130 -19 168 -17 295 -27 580 -48 176 -12 312 -24
301 -26 -10 -2 -93 1 -185 7 -506 34 -963 60 -1086 63 -139 3 -140 3 -143 -19
-5 -35 -41 -30 -48 6 -5 22 -15 33 -43 44 -42 17 -49 10 -50 -57 -1 -66 -19
-28 -22 45 -3 76 2 86 45 105 41 18 45 17 39 -5z m6657 -22 c9 -15 1 -23 -52
-52 -35 -19 -186 -103 -336 -186 -151 -83 -299 -160 -330 -171 -31 -10 -56
-24 -55 -30 2 -5 -2 -10 -7 -10 -5 0 -9 -3 -9 -7 1 -5 1 -19 0 -33 -1 -20 -3
-22 -11 -10 -9 13 -11 13 -20 0 -7 -11 -10 -6 -10 20 l0 36 -287 17 c-1055 64
-1270 78 -1283 81 -35 8 64 5 375 -14 834 -50 891 -53 1069 -42 94 5 185 8
202 5 22 -3 53 5 105 29 74 35 219 123 219 134 0 3 -6 2 -12 -2 -7 -4 -11 -5
-8 -1 3 3 30 19 60 35 30 16 87 48 127 70 40 22 73 36 75 30 3 -9 126 49 163
78 19 14 19 16 3 28 -22 16 -23 27 -3 20 9 -4 20 -15 25 -25z m-1480 -8 c21
-6 25 -13 25 -41 0 -34 -1 -35 -45 -38 -25 -1 -65 1 -90 6 -36 6 -46 12 -48
30 -7 45 3 52 70 51 35 -1 74 -4 88 -8z m258 -23 c20 -20 15 -66 -8 -73 -31
-10 -158 6 -171 21 -6 8 -8 25 -5 39 6 24 9 25 89 25 51 0 88 -5 95 -12z"/>
<path d="M205 2239 c-8 -24 4 -197 14 -203 3 -2 21 -7 39 -11 l32 -7 0 89 c0
113 -5 129 -42 142 -39 14 -36 15 -43 -10z"/>
<path d="M1625 1494 c-11 -3 -30 -7 -42 -9 -22 -5 -24 -14 -50 -189 l-5 -38
63 35 c135 76 202 159 150 186 -23 13 -89 21 -116 15z"/>
<path d="M2469 1053 c-15 -4 -74 -133 -61 -133 4 0 41 11 82 25 93 32 185 77
184 90 -2 19 -154 32 -205 18z"/>
<path d="M2440 813 c-78 -8 -76 -6 -111 -113 -18 -54 -31 -102 -28 -105 9 -8
185 53 272 94 97 47 133 76 117 96 -21 25 -145 39 -250 28z"/>
</g>
</svg>
