<?xml version="1.0" standalone="no"?>
<!DOCTYPE svg PUBLIC "-//W3C//DTD SVG 20010904//EN"
 "http://www.w3.org/TR/2001/REC-SVG-20010904/DTD/svg10.dtd">
<svg version="1.0" xmlns="http://www.w3.org/2000/svg"
 width="720.000000pt" height="544.000000pt" viewBox="0 0 720.000000 544.000000"
 preserveAspectRatio="xMidYMid meet">
<metadata>
Created by potrace 1.16, written by Peter Selinger 2001-2019
</metadata>
<g transform="translate(0.000000,544.000000) scale(0.100000,-0.100000)"
fill="#000000" stroke="none">
<path d="M3615 5404 c-259 -37 -435 -110 -591 -243 -91 -78 -194 -206 -194
-241 0 -32 -18 -60 -40 -60 -13 0 -22 -13 -33 -47 -25 -80 -29 -104 -16 -119
8 -9 9 -32 5 -66 -11 -82 -37 -115 -50 -63 -3 13 -18 41 -31 62 -21 30 -25 44
-19 79 3 23 1 67 -6 98 -9 42 -9 65 0 91 14 42 39 236 46 360 6 82 4 92 -15
113 -15 15 -33 22 -57 22 -65 0 -108 -70 -120 -193 -11 -110 -37 -275 -46
-288 -7 -11 -11 -11 -21 5 -37 58 -55 71 -100 71 -29 0 -52 -6 -64 -17 -13
-12 -36 -18 -71 -18 -42 0 -57 -5 -84 -29 -18 -16 -47 -32 -65 -35 -18 -4 -44
-16 -58 -27 -23 -19 -25 -26 -25 -107 0 -127 25 -328 49 -396 l20 -59 -28 -26
c-44 -41 -55 -89 -47 -215 6 -117 29 -281 46 -348 6 -21 27 -56 46 -77 24 -28
34 -48 34 -72 0 -19 11 -57 24 -84 37 -81 116 -135 197 -135 35 0 41 -4 56
-36 21 -44 55 -62 259 -138 147 -55 209 -67 231 -45 8 8 24 6 59 -6 29 -10 70
-15 100 -13 38 2 57 -1 71 -14 10 -10 37 -21 58 -26 35 -7 40 -12 47 -45 11
-54 71 -180 113 -237 26 -35 47 -52 78 -63 38 -12 42 -17 45 -50 l3 -37 -74 0
c-57 0 -76 4 -81 15 -6 17 -106 22 -106 6 0 -18 -33 -21 -58 -5 -16 11 -57 18
-123 21 l-99 6 0 47 c0 46 -10 63 -50 85 -10 5 -8 1 4 -13 18 -21 18 -23 3
-40 -10 -10 -17 -23 -17 -29 0 -16 -68 -73 -104 -88 -17 -8 -49 -32 -71 -55
-22 -23 -61 -52 -86 -65 -85 -44 -265 -81 -516 -106 l-123 -12 0 -38 c0 -36 1
-38 38 -42 20 -2 0 -4 -45 -5 l-83 -2 0 45 0 45 -82 0 c-163 0 -429 39 -541
78 -47 16 -127 74 -127 92 0 4 15 -7 33 -25 41 -41 126 -68 296 -96 102 -17
155 -19 290 -15 91 2 225 4 296 4 143 1 342 28 436 60 85 30 164 70 185 94 10
12 13 18 6 14 -53 -31 -334 -86 -441 -86 -38 0 -73 -4 -76 -10 -3 -5 -17 -10
-31 -10 -14 0 -23 -4 -20 -9 13 -21 -234 -40 -264 -21 -11 7 4 10 49 10 53 0
62 2 52 14 -7 9 -49 16 -124 22 l-112 8 105 7 c58 3 118 11 133 18 16 6 59 11
96 11 207 0 579 117 557 176 -3 7 0 14 6 16 18 6 -61 35 -143 52 -140 28 -295
39 -512 34 -117 -3 -219 -7 -227 -9 -10 -3 -16 5 -18 24 -3 26 -5 27 -63 27
-59 0 -59 0 -59 -30 0 -24 -5 -31 -27 -36 -16 -3 -73 -19 -128 -36 -151 -45
-145 -44 -145 -16 0 35 -18 48 -66 48 -67 0 -74 -6 -74 -61 l0 -48 -72 1 c-93
2 -135 -18 -140 -64 -2 -25 -9 -33 -33 -41 -29 -9 -240 -89 -520 -198 -72 -28
-141 -61 -154 -74 -24 -23 -24 -24 -15 -162 l9 -138 32 -20 c39 -25 33 15 78
-545 20 -245 42 -521 50 -615 20 -227 22 -209 -24 -230 -22 -10 -50 -28 -62
-41 -19 -21 -21 -31 -17 -96 5 -62 9 -75 32 -95 47 -40 99 -47 561 -78 545
-35 1851 -125 2335 -160 1028 -75 1717 -126 1810 -135 59 -6 387 -10 748 -10
l643 0 127 73 c254 147 507 299 521 312 9 9 16 43 19 93 l4 79 -37 31 -38 30
7 69 c13 136 37 467 65 886 l29 427 30 28 c28 26 30 32 36 142 12 204 12 208
-14 235 -30 32 -75 39 -345 59 -121 9 -246 19 -277 22 l-58 6 -1 51 c-2 87 -9
100 -64 119 -50 18 -120 17 -155 -2 -9 -5 -41 -2 -75 6 -213 50 -541 74 -855
63 -170 -7 -252 -15 -422 -45 -37 -6 -38 -6 -38 23 0 17 -7 36 -15 43 -17 14
-112 17 -126 3 -5 -5 -13 -29 -17 -54 l-8 -44 -70 3 c-93 5 -142 -14 -151 -59
-6 -31 -7 -31 -51 -25 -25 3 -51 6 -59 6 -9 0 -13 8 -11 23 2 15 18 29 49 44
26 13 69 48 98 80 62 69 140 217 150 281 5 40 10 48 31 51 14 1 37 12 53 23
29 21 141 32 163 16 22 -16 102 -15 194 3 170 32 198 40 233 63 23 16 54 25
98 28 51 5 84 16 164 58 55 28 120 68 145 88 57 46 153 145 182 189 28 40 89
63 167 63 138 0 247 109 208 208 -8 20 -17 53 -21 73 -4 21 -15 48 -24 60 -10
13 -26 46 -36 73 -10 27 -26 56 -36 66 -16 16 -15 17 14 16 123 -2 144 3 186
42 37 36 40 43 40 90 0 116 -55 118 -345 15 -60 -22 -141 -47 -179 -56 -43
-11 -86 -30 -116 -52 -36 -26 -61 -36 -106 -41 -67 -7 -93 -26 -119 -84 -13
-28 -45 -60 -119 -116 -55 -43 -130 -106 -166 -140 -63 -59 -67 -62 -130 -69
-36 -4 -84 -11 -108 -16 -41 -9 -46 -7 -82 24 -22 18 -65 47 -97 63 -54 27
-66 29 -173 29 -105 0 -119 -2 -165 -27 -27 -14 -60 -37 -73 -50 -21 -23 -27
-24 -103 -20 -69 4 -84 2 -108 -15 -28 -21 -111 -30 -111 -12 0 5 7 9 15 9 31
0 241 143 289 196 19 22 24 23 63 12 46 -13 57 -11 186 43 187 77 283 258 248
467 -16 92 -85 204 -159 257 -39 28 -51 42 -55 71 -4 20 -1 46 4 57 16 29 -34
151 -67 166 -14 6 -33 30 -43 53 -10 24 -51 78 -91 121 -131 140 -287 227
-488 273 -102 23 -282 37 -347 28z m125 -254 c87 -10 214 -47 257 -76 l24 -15
-45 -48 c-38 -41 -126 -191 -112 -191 3 0 21 31 42 70 39 75 108 160 128 160
16 0 96 -59 149 -109 41 -39 115 -155 119 -186 1 -11 -2 -46 -6 -79 -6 -37 -5
-71 2 -95 9 -30 8 -48 -9 -100 -36 -116 -44 -228 -31 -440 6 -106 13 -196 16
-199 3 -3 18 0 33 7 l28 13 -29 -31 c-33 -34 -139 -107 -203 -139 -75 -39
-196 -83 -210 -78 -20 8 -16 25 6 23 28 -2 204 90 244 127 18 17 26 25 17 18
-10 -7 -25 -10 -34 -6 -11 4 -27 -2 -44 -18 -15 -13 -61 -37 -102 -53 -41 -16
-79 -35 -83 -42 -22 -35 -58 7 -74 88 l-5 29 55 0 c115 0 242 60 290 137 56
89 71 149 71 288 1 130 -7 170 -47 265 -16 37 -47 70 -84 89 -51 26 -135 10
-400 -79 -147 -49 -299 -74 -405 -66 -92 6 -168 24 -169 40 -1 6 -5 58 -9 116
l-8 105 3 -116 2 -115 -51 13 c-69 18 -99 16 -128 -7 -38 -29 -52 -95 -45
-203 12 -176 92 -370 184 -446 43 -36 129 -63 181 -59 36 3 37 2 69 -64 18
-38 37 -68 42 -68 6 0 2 15 -9 33 -10 17 -26 48 -34 68 l-15 37 57 22 c97 37
161 42 310 23 96 -12 132 -20 132 -30 0 -7 8 -38 19 -67 10 -30 15 -59 11 -66
-5 -9 -9 -9 -14 -1 -4 6 -2 11 4 11 6 0 9 4 6 9 -3 4 -17 6 -31 4 -13 -3 -23
-8 -21 -12 2 -3 -21 -7 -52 -9 -31 -1 -61 -7 -66 -12 -6 -6 -26 -11 -45 -11
l-36 -2 40 -6 c62 -10 174 -3 206 13 23 12 30 12 39 1 12 -14 -33 -27 -163
-46 -162 -23 -343 3 -475 68 -222 109 -361 382 -364 718 -1 143 15 221 71 341
48 102 84 154 154 226 49 49 148 126 155 120 1 -1 19 9 40 22 48 32 159 74
225 85 73 12 129 12 227 1z m-1370 -195 c15 -19 24 -85 16 -127 l-6 -33 -65 0
c-60 0 -65 2 -65 22 0 52 22 124 43 138 27 19 61 19 77 0z m-148 -99 c-1 -50
-7 -83 -14 -87 -7 -5 -32 -8 -55 -7 l-43 1 0 61 c0 35 6 69 13 78 19 24 49 38
77 35 25 -2 25 -3 22 -81z m2481 -249 c26 -22 45 -42 41 -46 -4 -3 -9 0 -11 7
-3 6 -10 12 -18 12 -7 0 -18 6 -25 14 -6 8 -19 12 -27 9 -11 -4 -14 -2 -9 5
10 17 -11 15 -43 -4 -35 -21 -73 -77 -73 -109 0 -13 -5 -22 -10 -19 -6 4 -8
-2 -4 -14 8 -24 -3 -74 -14 -67 -20 13 -16 -244 6 -330 11 -46 53 -102 79
-109 27 -7 57 2 50 14 -3 5 0 12 6 16 8 4 9 3 5 -4 -9 -15 -5 -15 28 -2 48 18
26 0 -39 -31 -57 -28 -67 -30 -94 -19 -32 13 -69 61 -98 125 -15 33 -18 70
-19 210 -1 167 -1 171 25 215 15 25 32 57 38 71 17 40 71 97 96 102 35 7 59
-3 110 -46z m-1893 -24 c0 -3 -6 -14 -13 -22 -8 -9 -24 -41 -37 -71 -33 -78
-33 -240 0 -358 12 -45 26 -85 31 -88 5 -3 9 -12 9 -20 0 -26 79 -133 110
-149 17 -9 30 -18 30 -21 0 -2 -13 2 -30 11 -16 8 -35 15 -43 15 -8 0 -33 13
-55 30 -71 51 -108 151 -126 334 -7 68 -9 129 -5 137 4 8 16 46 28 84 23 75
35 95 66 113 23 13 35 15 35 5z m1994 -90 c72 -109 53 -349 -34 -443 -15 -16
-35 -30 -43 -30 -11 0 -7 8 12 28 14 16 40 55 56 88 27 52 30 68 29 149 -1 97
-21 157 -70 210 -30 32 -30 35 1 35 18 0 32 -11 49 -37z m-2185 -393 c31 -102
85 -156 223 -225 60 -30 119 -55 131 -55 26 0 124 -107 111 -120 -5 -4 -27
-13 -49 -20 -22 -7 -53 -22 -68 -32 -32 -23 -29 -23 -177 27 -58 19 -123 39
-145 45 l-40 9 -2 103 c-2 113 -37 388 -54 419 -10 20 -7 31 20 63 15 17 16
13 23 -64 4 -46 16 -113 27 -150z m1327 176 c3 -14 3 -29 0 -35 -4 -5 -1 -13
4 -16 6 -4 10 -21 8 -38 -1 -22 2 -31 11 -29 7 1 33 5 57 9 40 5 44 4 44 -15
0 -13 -11 -27 -27 -36 -28 -15 -28 -16 -3 -13 31 3 40 -31 14 -50 -17 -12 -16
-13 4 -13 15 0 22 -6 22 -20 0 -20 -23 -29 -125 -49 -97 -19 -135 -22 -135
-10 0 6 -7 3 -16 -5 -9 -10 -33 -16 -60 -16 -40 0 -44 2 -44 24 0 15 7 26 18
29 12 3 11 5 -6 6 -19 1 -23 6 -21 29 1 15 -2 35 -6 45 -14 32 1 46 56 49 l51
3 2 48 c1 26 -2 47 -6 47 -4 0 -8 13 -8 29 0 28 2 30 63 39 95 14 96 14 103
-12z m-1918 -31 c-29 -63 39 -153 137 -179 71 -20 164 -30 145 -15 -12 8 -8 9
18 5 17 -3 32 -2 32 2 0 4 15 14 34 20 19 7 53 33 75 58 33 37 41 54 41 85 0
45 13 51 28 12 16 -41 42 -243 48 -368 5 -103 4 -112 -18 -147 -24 -39 -109
-111 -118 -101 -3 3 1 8 8 10 6 3 12 19 11 36 0 26 -2 28 -8 12 -8 -19 -8 -19
-15 2 -4 12 -7 41 -7 65 -1 24 -7 84 -15 133 -8 50 -15 106 -16 125 -3 33 -5
35 -33 30 -16 -3 -83 -5 -147 -4 -90 1 -115 -2 -108 -11 5 -7 7 -14 4 -17 -8
-8 15 -201 25 -208 4 -3 16 -45 26 -93 15 -71 16 -90 6 -97 -9 -5 -5 -11 15
-18 38 -14 9 -15 -40 -1 -21 6 -57 28 -81 50 -36 34 -45 50 -59 107 -25 109
-42 309 -37 448 1 31 34 84 52 84 4 0 3 -11 -3 -25z m1198 -52 c0 -18 3 -36 7
-39 4 -4 7 -20 7 -36 0 -26 3 -28 39 -28 52 0 71 -8 71 -31 0 -16 -8 -19 -52
-19 -60 0 -57 -13 3 -14 52 -1 76 -29 45 -52 -16 -11 -17 -14 -4 -14 17 0 32
-26 22 -41 -3 -5 -23 -9 -45 -9 -33 0 -39 3 -40 23 l-2 22 -4 -22 c-4 -19 -11
-23 -41 -23 -54 0 -82 10 -83 29 -1 14 -2 13 -6 -1 -8 -31 -87 -12 -81 19 1
10 0 23 -4 28 -3 6 -9 33 -13 62 l-7 52 41 -3 c39 -3 53 6 31 19 -6 4 -9 18
-8 33 1 15 -2 38 -6 51 -11 32 2 37 71 31 57 -5 58 -5 59 -37z m2463 -159 c61
-27 71 -37 50 -50 -6 -3 -20 -26 -30 -50 -19 -42 -21 -43 -47 -32 -15 7 -34
18 -43 25 -8 7 -22 13 -29 13 -7 0 -22 7 -32 17 -10 9 -21 13 -25 9 -13 -13
-16 -175 -3 -191 7 -9 8 -15 2 -15 -15 0 -21 23 -28 98 -5 55 -2 77 16 122 12
30 26 61 32 67 17 21 72 15 137 -13z m446 -30 c8 -20 15 -39 15 -43 0 -15 -81
-131 -99 -140 -14 -8 -24 -4 -49 22 -18 18 -32 38 -32 44 0 6 18 27 39 46 22
19 37 38 34 41 -3 3 9 0 26 -7 28 -10 36 -23 32 -52 -1 -5 6 -1 15 10 15 19
15 57 -1 98 -14 34 5 16 20 -19z m-674 -143 c-12 -34 -21 -76 -21 -95 0 -48
36 -158 62 -192 l23 -29 -25 16 c-14 9 -39 39 -57 68 -25 41 -32 48 -37 34 -7
-20 -46 -48 -123 -88 -28 -14 -57 -33 -64 -41 -6 -8 -17 -14 -24 -14 -8 0 -15
-8 -18 -17 -7 -31 -20 76 -15 121 3 24 16 58 29 76 37 50 275 237 287 226 2
-3 -5 -32 -17 -65z m-676 -130 c33 -16 76 -43 95 -60 l35 -32 -73 7 c-66 5
-78 4 -127 -21 -61 -30 -107 -79 -131 -141 -9 -24 -24 -44 -35 -47 -18 -5 -18
-4 1 23 26 36 26 37 -12 45 -18 4 -43 16 -55 28 -17 15 -39 21 -84 24 l-61 3
4 -33 c3 -17 8 -41 12 -52 7 -19 7 -19 -4 -2 -36 56 -27 124 24 192 28 37 109
83 168 95 72 15 176 2 243 -29z m-2056 -52 c58 -17 130 -43 160 -57 47 -22 56
-31 78 -81 14 -31 28 -84 31 -119 l5 -64 -49 7 c-27 4 -58 9 -69 12 -17 5 -18
4 -6 -11 7 -9 12 -16 10 -16 -27 1 -249 76 -249 85 0 1 5 27 10 56 14 75 4
134 -31 174 -16 18 -29 35 -29 39 0 12 34 6 139 -25z m499 -65 l34 -22 -34
-10 c-18 -5 -54 -15 -80 -22 -27 -7 -48 -17 -48 -23 0 -6 -15 3 -32 20 -43 40
-74 56 -98 48 -11 -4 -20 -2 -20 4 0 14 64 51 113 66 39 12 45 11 87 -13 25
-14 60 -35 78 -48z m1921 39 c0 -5 -21 -21 -47 -38 -58 -37 -81 -94 -82 -205
-1 -60 -3 -71 -12 -53 -8 17 -15 20 -32 13 -24 -9 -98 -13 -193 -11 l-63 1 0
39 c0 78 41 152 110 197 22 15 74 33 126 44 91 19 194 26 193 13z m-854 -82
c-39 -123 -42 -311 -8 -418 16 -47 17 -60 7 -56 -8 3 -11 10 -8 15 4 6 1 8 -7
6 -8 -3 -13 -11 -11 -18 1 -6 -5 -10 -14 -8 -10 2 -24 23 -35 53 -24 69 -23
44 1 -34 16 -49 18 -67 9 -75 -9 -8 -10 -8 -5 2 25 44 -90 -21 -214 -121 -53
-43 -103 -46 -170 -12 -58 29 -150 55 -197 55 -29 0 -33 3 -34 28 l-2 27 -4
-27 c-4 -26 -8 -28 -52 -28 -26 0 -62 -5 -80 -11 -30 -10 -34 -9 -66 25 -36
38 -59 45 -69 21 -3 -8 -10 -15 -15 -15 -17 0 -32 39 -51 129 -10 47 -25 102
-33 121 l-15 34 -11 -39 c-6 -22 -11 -57 -11 -78 0 -49 49 -198 87 -262 31
-53 56 -115 49 -123 -6 -6 -74 101 -97 152 -53 122 -64 271 -28 416 12 48 30
97 41 111 20 24 20 24 15 2 -4 -18 -1 -23 14 -23 10 0 19 -7 19 -15 0 -9 -6
-12 -17 -8 -15 5 -14 3 2 -10 18 -14 21 -13 34 5 12 18 20 19 60 13 25 -4 55
-8 66 -10 11 -1 36 -11 55 -23 93 -58 227 -50 370 20 55 27 97 41 120 41 l35
-1 -34 6 -34 7 48 39 c36 30 45 34 35 17 -6 -13 -10 -24 -8 -26 5 -5 72 27 79
39 4 5 14 6 23 3 8 -3 19 0 23 7 11 17 55 46 71 46 9 0 5 -8 -9 -20 l-24 -20
38 17 c21 10 33 19 27 21 -9 3 -9 7 1 13 24 15 41 10 34 -10z m1565 -8 c0 -18
-93 -122 -159 -177 -100 -84 -146 -106 -213 -105 -44 1 -48 2 -26 9 32 9 146
93 165 120 8 11 20 17 28 14 9 -4 12 0 8 14 -3 15 3 22 29 32 30 12 31 14 11
17 -40 7 -25 23 22 23 25 0 44 3 43 8 -2 4 2 8 7 10 6 2 17 9 25 16 23 20 60
32 60 19z m-3386 -271 c40 5 46 3 46 -13 0 -11 5 -19 12 -19 6 0 65 -23 131
-51 72 -31 136 -51 162 -52 35 -2 40 -4 26 -14 -27 -21 -76 -14 -188 26 -181
64 -260 101 -277 126 -23 35 -20 38 13 14 24 -17 39 -21 75 -17z m-360 -573
c22 -8 41 -19 43 -26 6 -18 -45 -40 -120 -53 -91 -16 -333 -9 -371 10 -58 29
-38 53 64 76 74 17 331 13 384 -7z m3521 -39 c226 -17 524 -71 563 -103 11 -9
11 -13 -3 -23 -13 -10 -31 -7 -96 17 -102 37 -289 75 -449 90 -172 16 -547 5
-705 -21 -65 -11 -121 -18 -123 -15 -8 7 17 13 132 31 209 31 455 40 681 24z
m-98 -151 c97 -13 166 -41 161 -66 -16 -82 -511 -100 -590 -21 -10 10 -18 25
-16 31 16 52 258 82 445 56z m-4873 -38 c-5 -5 -40 -19 -79 -30 -99 -30 -275
-118 -275 -136 0 -9 12 -20 26 -25 22 -9 202 -25 532 -47 51 -3 90 -9 87 -12
-3 -3 -45 -5 -93 -4 l-87 1 75 -8 c229 -23 770 -61 841 -59 l34 1 -40 8 c-22
5 -125 14 -230 20 -104 7 -192 14 -194 16 -8 7 75 4 296 -10 120 -8 310 -20
423 -27 219 -12 461 -36 395 -38 -85 -3 -65 -18 32 -25 54 -4 224 -15 378 -26
492 -34 765 -52 945 -60 96 -5 218 -11 270 -14 63 -4 88 -3 75 3 -11 5 -45 11
-75 12 -32 1 -43 4 -27 6 29 5 576 -31 729 -47 75 -8 71 -8 -42 -4 -69 2 -168
7 -220 10 -52 4 -93 4 -90 1 12 -12 936 -74 947 -64 2 3 -26 8 -64 12 -37 4
-72 8 -78 10 -20 8 367 -7 549 -21 323 -24 464 -28 546 -14 85 14 120 30 205
92 104 76 452 300 415 267 -23 -20 -28 -28 -15 -24 49 18 58 18 50 5 -13 -21
13 -8 87 44 106 74 111 92 28 103 -35 5 -42 3 -35 -8 7 -12 6 -12 -7 -1 -9 7
-64 17 -123 22 -59 5 -110 12 -113 15 -17 17 307 -12 334 -30 45 -29 51 -24
-221 -215 -239 -169 -415 -285 -455 -300 l-45 -18 -8 -108 c-4 -60 -9 -115
-12 -122 -2 -6 -19 -12 -38 -12 -31 0 -33 2 -31 28 2 15 5 66 7 115 l5 87
-117 0 c-64 0 -210 7 -326 15 -237 16 -421 28 -775 50 -135 8 -310 19 -390 25
-80 6 -230 15 -335 20 -104 5 -212 12 -240 15 -27 3 -255 19 -505 35 -634 42
-1585 107 -1830 125 -113 8 -313 22 -445 30 -132 8 -258 17 -280 20 -22 3
-183 10 -358 15 -175 6 -323 11 -330 13 -15 3 -21 -101 -10 -157 l8 -38 60 -4
c33 -2 96 -9 140 -15 44 -6 125 -16 180 -24 l100 -13 -125 4 c-216 9 -414 23
-453 34 -57 17 -65 38 -69 177 -4 143 -10 133 121 181 47 18 149 56 226 86
131 50 162 58 139 37z m5628 -39 c16 -9 28 -24 28 -33 0 -10 16 -33 35 -52 27
-27 35 -43 35 -70 0 -20 -4 -38 -9 -41 -4 -3 -6 5 -4 18 4 17 -2 28 -18 40
-13 9 -19 16 -14 17 6 0 1 4 -10 8 -14 6 -25 1 -42 -20 -69 -81 -326 -161
-598 -184 -38 -3 -87 -8 -108 -11 -38 -6 -38 -6 -35 -47 3 -41 4 -42 43 -48
27 -4 9 -7 -55 -8 l-95 -1 2 49 1 48 -146 7 c-476 21 -814 124 -847 257 -7 28
28 79 68 101 18 9 17 6 -6 -21 -67 -80 -14 -148 170 -217 152 -57 501 -103
683 -89 52 4 147 6 210 5 272 -4 594 74 678 163 13 13 25 40 29 59 4 31 0 41
-33 79 -27 30 -31 38 -14 26 14 -10 37 -25 52 -35z m-2534 -170 c20 -7 14 -26
-17 -56 -28 -27 -30 -28 -107 -19 -46 5 -79 13 -81 20 -3 7 8 24 23 38 25 24
35 26 99 24 38 -1 76 -4 83 -7z m-1940 -424 c32 -16 52 -34 65 -59 16 -33 16
-39 2 -71 -8 -20 -39 -58 -70 -85 -55 -50 -60 -63 -21 -63 36 0 83 -36 102
-79 11 -22 24 -41 30 -41 14 0 37 47 105 213 48 118 55 128 76 124 13 -2 31 2
40 9 10 7 26 14 36 14 9 0 17 5 17 10 0 6 5 10 10 10 6 0 10 -9 10 -20 0 -11
4 -28 9 -38 5 -9 15 -55 21 -102 19 -132 27 -160 51 -160 15 0 19 -5 16 -15
-4 -8 -2 -17 2 -20 5 -2 14 17 21 43 27 108 114 213 205 248 86 32 169 -10
167 -86 -1 -44 -22 -101 -34 -94 -6 4 -13 1 -17 -5 -13 -21 -40 0 -47 35 -8
45 -33 45 -79 -1 -47 -47 -76 -107 -82 -169 -4 -43 -1 -56 18 -80 19 -24 27
-28 60 -23 20 3 64 23 98 46 34 23 61 40 61 37 0 -3 -4 -16 -10 -30 -12 -32 1
-33 34 -3 22 19 28 41 51 174 27 167 41 209 61 192 9 -7 15 -5 22 7 6 10 16
15 26 11 9 -4 16 -2 16 3 0 19 15 10 27 -15 9 -20 8 -40 -3 -92 -7 -37 -13
-68 -11 -69 1 -2 32 22 67 53 103 88 168 135 178 129 5 -3 20 6 32 19 13 14
28 25 34 25 5 0 -4 -15 -22 -33 -36 -37 -41 -53 -13 -37 27 14 36 13 22 -4 -6
-7 -9 -20 -6 -28 5 -14 -34 -56 -115 -122 -19 -16 -54 -46 -78 -68 l-43 -39
97 -120 c53 -66 99 -118 101 -115 2 2 -1 13 -8 23 -12 20 -4 102 8 89 3 -3 12
-1 20 5 7 6 13 8 13 4 0 -4 6 -3 13 3 10 9 16 4 26 -23 8 -23 21 -37 37 -41
58 -15 149 22 149 61 0 12 -30 33 -95 66 -111 58 -139 83 -146 130 -6 44 21
89 81 132 137 97 285 83 285 -28 0 -29 -28 -90 -37 -81 -3 3 -12 -2 -19 -12
-8 -10 -13 -12 -14 -4 0 6 -7 12 -15 12 -10 0 -15 10 -15 30 0 35 -11 37 -70
14 -41 -17 -69 -50 -53 -64 4 -4 41 -25 82 -46 41 -22 94 -57 118 -80 36 -34
43 -47 43 -79 0 -57 -61 -113 -167 -153 -74 -29 -147 -43 -130 -25 7 6 -84 53
-92 47 -2 -1 18 -30 44 -63 25 -34 44 -61 42 -61 -2 0 -28 18 -57 40 -57 43
-85 53 -55 20 26 -28 13 -34 -19 -9 -22 17 -36 20 -74 16 -42 -5 -44 -5 -19 5
15 7 27 15 27 20 0 4 -24 31 -53 60 -29 29 -73 76 -98 105 l-46 51 -11 -46
c-6 -26 -14 -68 -18 -95 -3 -26 -11 -50 -17 -54 -6 -4 -8 2 -5 15 4 12 3 22
-2 22 -8 0 -25 -40 -33 -75 -3 -13 -5 -8 -6 12 -2 51 -10 66 -29 51 -13 -12
-14 -5 -10 60 l5 72 -82 -79 c-97 -93 -125 -103 -196 -72 -60 27 -106 79 -120
136 -13 51 -22 61 -37 42 -7 -9 -6 -35 4 -87 17 -89 17 -89 3 -70 -8 11 -9 1
-6 -40 l5 -55 -16 38 c-9 23 -20 36 -28 33 -7 -3 -17 7 -23 22 -7 22 -10 23
-10 7 -2 -34 -19 3 -32 68 -7 32 -15 59 -19 62 -4 2 -22 0 -41 -5 -19 -5 -51
-12 -71 -15 -21 -3 -38 -10 -38 -15 0 -22 -45 -110 -56 -110 -7 0 -18 -13 -26
-30 -17 -38 -24 -38 -32 2 -6 30 -7 31 -21 12 -13 -18 -14 -17 -15 17 0 19 5
40 11 46 7 7 9 23 5 39 l-7 27 -47 -46 c-26 -25 -78 -66 -117 -91 -38 -25 -63
-46 -55 -47 8 0 -16 -16 -54 -35 -76 -37 -80 -39 -71 -24 3 6 -1 10 -9 10 -9
0 -18 -12 -22 -27 -10 -46 -12 -49 -13 -19 -1 24 -3 27 -16 16 -10 -8 -15 -32
-16 -74 -1 -46 -3 -55 -9 -36 -4 14 -8 40 -9 58 -1 31 -21 48 -21 17 0 -8 -4
-15 -10 -15 -5 0 -10 7 -10 15 0 18 3 17 -38 6 -20 -6 -32 -6 -32 0 0 5 5 9
10 9 6 0 10 5 10 10 0 6 -9 10 -20 10 -25 0 -25 9 -2 26 14 11 14 15 4 23 -11
6 -3 15 30 32 l43 24 2 75 c1 41 5 92 8 113 4 29 2 37 -10 37 -14 0 -20 24
-16 58 1 6 -4 12 -11 12 -7 0 1 10 19 21 26 16 34 30 42 72 17 89 19 118 7
113 -96 -38 -116 -44 -121 -36 -3 6 -1 10 4 10 6 0 11 7 11 15 0 20 -19 19
-87 -5 -79 -28 -79 -25 0 16 37 19 67 39 67 45 0 5 -4 7 -10 4 -21 -13 -9 13
13 27 36 24 155 69 221 84 87 20 204 12 264 -18z m-1399 -509 c22 -261 43
-521 46 -579 3 -58 9 -116 11 -130 4 -16 2 -21 -4 -15 -10 11 -23 126 -47 410
-42 506 -61 803 -51 794 3 -3 24 -219 45 -480z m3871 454 c0 -4 7 -57 15 -118
9 -60 18 -129 21 -152 4 -33 9 -42 27 -45 15 -2 21 -9 19 -20 -6 -36 16 -16
33 30 53 140 200 262 317 262 65 0 95 -14 114 -52 14 -31 14 -37 -4 -83 -14
-34 -25 -49 -36 -47 -9 2 -16 -2 -16 -8 0 -6 -7 -6 -20 2 -12 8 -20 24 -20 40
0 70 -120 2 -189 -106 -53 -85 -37 -186 30 -186 44 0 129 47 129 72 0 4 -20 8
-45 8 -33 0 -45 4 -46 15 -4 67 -4 69 30 76 17 4 75 10 128 14 l95 7 -5 -33
c-3 -19 -18 -72 -35 -119 -16 -47 -38 -112 -47 -145 -14 -45 -20 -55 -25 -40
-7 19 -7 19 -17 0 -6 -11 -14 -35 -18 -53 -9 -44 -20 -32 -16 18 3 40 -13 55
-23 23 -3 -10 -4 6 -2 35 2 28 1 52 -1 52 -2 0 -21 -11 -43 -25 -48 -30 -73
-33 -121 -12 -77 34 -129 99 -129 162 0 20 -5 25 -23 25 -23 0 -24 -1 -15 -57
4 -32 10 -68 13 -80 6 -27 -11 -31 -19 -5 -3 9 -4 -9 -2 -40 3 -64 -8 -78 -18
-23 -4 22 -11 32 -20 29 -7 -3 -18 5 -24 18 -6 13 -11 17 -11 11 -1 -7 -5 -13
-10 -13 -5 0 -12 21 -16 48 -14 100 -9 95 -84 87 -36 -3 -74 -9 -84 -11 -9 -3
-33 -36 -52 -72 -19 -37 -34 -61 -35 -54 -1 26 -21 10 -45 -35 -23 -42 -25
-44 -21 -18 5 33 -11 70 -21 48 -2 -7 -8 -13 -13 -13 -5 0 2 26 15 58 18 43
21 59 12 67 -16 13 -20 55 -6 55 8 0 8 4 0 14 -13 15 4 26 38 26 16 0 41 43
139 242 2 4 -9 6 -25 3 -15 -2 -65 -9 -109 -16 l-81 -11 -16 -57 c-8 -31 -25
-99 -37 -151 -36 -153 -58 -228 -59 -197 -1 41 -13 33 -44 -31 l-29 -57 6 45
c3 25 2 52 -4 60 -6 10 -10 11 -10 3 0 -7 -5 -13 -11 -13 -13 0 -6 47 32 235
15 76 26 141 24 143 -2 2 -33 -1 -68 -7 -86 -15 -89 -15 -82 9 3 11 2 20 -3
20 -13 0 -10 56 4 70 6 6 51 16 100 22 49 6 95 16 102 21 15 11 232 20 276 11
28 -6 29 -7 11 -20 -17 -13 -17 -14 0 -20 15 -6 13 -9 -11 -20 l-29 -12 40 -1
c36 -1 42 3 59 34 14 26 24 34 38 29 18 -5 84 13 103 28 11 10 25 10 25 1z
m1106 -108 c9 -9 25 -14 35 -12 11 3 21 2 24 -3 3 -4 -12 -11 -33 -14 -55 -10
-72 -16 -72 -27 0 -5 8 -9 18 -10 38 -1 -26 -17 -94 -23 -178 -16 -171 -15
-177 -44 -3 -15 -9 -35 -13 -45 -6 -17 -1 -18 57 -17 35 1 80 1 99 0 32 -1 33
-2 15 -12 -19 -12 -19 -12 5 -18 25 -7 25 -7 -10 -23 -26 -11 -30 -16 -15 -17
l20 -1 -20 -9 c-11 -4 -59 -11 -107 -15 l-86 -7 -12 -42 c-6 -22 -11 -45 -11
-50 1 -5 70 -8 154 -7 88 1 158 -3 167 -9 11 -7 7 -10 -20 -10 -64 -1 -10 -20
60 -21 64 -2 60 -3 -47 -15 -54 -6 -74 -24 -26 -24 14 0 24 -2 22 -4 -2 -2
-76 -10 -164 -16 -88 -7 -172 -18 -187 -25 -20 -10 -28 -10 -31 -1 -3 6 -9 0
-15 -14 -7 -17 -11 -19 -11 -8 -1 11 -11 18 -33 20 -22 2 -32 9 -35 23 -13 70
-12 73 11 79 18 4 27 18 39 58 11 39 12 56 3 63 -18 16 -8 73 15 80 20 7 30
25 43 78 5 22 3 27 -13 27 -24 0 -36 16 -20 26 8 5 8 8 0 13 -18 12 10 59 44
73 31 13 235 27 342 23 43 -2 67 -8 79 -20z m-2647 -560 c33 -10 69 -31 89
-51 l34 -34 -19 -32 c-13 -23 -45 -46 -103 -77 -59 -32 -79 -47 -65 -49 61
-10 127 -35 154 -58 24 -20 31 -34 31 -62 0 -31 -8 -44 -53 -87 -60 -56 -108
-82 -241 -132 -61 -22 -78 -32 -51 -27 63 9 38 -2 -67 -30 -54 -15 -106 -29
-115 -32 -10 -2 0 4 22 15 35 18 36 20 10 14 -95 -20 -109 -27 -122 -68 l-11
-40 -1 38 c-1 35 -2 36 -21 25 -11 -7 -23 -28 -26 -48 -16 -99 -23 -114 -18
-37 5 72 3 78 -13 75 -10 -2 -20 -14 -22 -28 l-4 -25 -7 25 c-7 26 -14 27 -75
16 -28 -5 -29 -5 -11 9 13 9 42 15 80 15 34 0 81 7 106 16 25 9 108 34 184 55
134 38 300 98 293 106 -2 2 -34 -8 -70 -22 -38 -14 -67 -20 -67 -14 0 5 -4 8
-9 4 -5 -3 -13 0 -16 6 -4 6 -18 8 -32 4 -14 -3 -31 -1 -39 6 -10 8 -35 5
-104 -15 -110 -32 -114 -32 -96 -3 16 25 33 101 18 78 -7 -10 -22 -12 -56 -8
-51 7 -50 8 -61 -56 -5 -29 -3 -37 6 -32 7 5 10 3 7 -5 -4 -14 -20 -20 -97
-40 -25 -7 -40 -15 -35 -18 6 -4 11 -16 11 -27 1 -18 -3 -20 -35 -17 -33 4
-34 6 -14 13 24 9 30 29 10 29 -22 1 23 22 70 34 l45 12 24 89 c12 50 25 100
29 113 5 18 2 22 -17 23 -23 0 -23 1 -4 9 17 7 17 9 3 9 -10 1 -18 4 -18 7 0
4 8 13 18 20 16 13 16 13 -2 14 -25 0 -13 12 26 26 27 9 35 21 60 88 l28 79
-37 -7 c-21 -4 -56 -10 -78 -13 -37 -5 -38 -4 -21 9 18 14 18 15 -5 21 l-24 7
30 25 c33 27 31 30 -12 15 l-28 -10 24 18 c13 9 67 27 120 39 83 19 119 22
266 19 126 -2 184 -8 224 -21z m871 -4 c41 4 111 8 155 7 l80 0 -50 -13 c-43
-11 -46 -13 -20 -15 26 -1 27 -3 10 -10 -30 -13 60 -12 210 1 71 6 145 8 172
3 32 -5 40 -9 26 -12 -35 -5 -27 -22 10 -23 29 -1 27 -3 -23 -19 -45 -15 -50
-18 -26 -19 68 -2 4 -20 -112 -32 l-123 -12 -20 -38 c-10 -21 -19 -41 -19 -45
0 -4 39 -4 88 -1 48 4 96 2 107 -3 19 -8 19 -9 -3 -9 -29 -1 -19 -21 11 -22
20 -1 21 -2 2 -6 -11 -3 -31 -10 -45 -16 l-25 -10 25 -7 c18 -4 1 -9 -55 -14
-153 -13 -149 -11 -167 -64 -10 -25 -16 -48 -14 -50 2 -2 66 1 143 5 76 5 163
6 193 2 45 -5 48 -6 18 -8 -21 0 -38 -5 -38 -10 0 -12 36 -20 95 -22 43 -2 40
-3 -25 -9 -41 -4 -90 -11 -109 -15 -25 -6 -32 -5 -27 3 4 7 16 12 27 12 10 0
19 5 19 10 0 6 -12 10 -26 10 -16 0 -23 4 -18 11 5 8 -29 9 -122 4 -71 -4
-133 -8 -139 -9 -5 0 -9 4 -8 9 9 60 9 60 -25 63 -18 2 -30 8 -27 13 4 5 0 9
-8 9 -15 0 -37 -48 -37 -82 0 -20 -61 -53 -83 -45 -7 3 3 9 22 14 30 8 37 16
52 58 22 63 23 79 5 72 -16 -6 -17 28 -1 52 5 10 4 12 -3 7 -7 -4 -12 -4 -12
-1 0 3 16 13 35 20 27 12 37 24 46 56 10 33 10 42 0 49 -8 4 -10 13 -7 19 4 6
2 11 -4 11 -6 0 -8 5 -4 11 4 8 -3 9 -22 6 -16 -3 -59 -9 -95 -12 l-67 -6 -62
-167 c-79 -208 -109 -281 -109 -262 0 8 7 33 15 55 9 22 23 65 33 96 l18 56
-58 0 -57 0 -33 -101 c-31 -94 -49 -135 -49 -109 0 6 27 91 61 189 81 237 79
228 43 221 -16 -3 -49 -9 -74 -12 -25 -3 -58 -8 -75 -11 -27 -4 -28 -4 -12 9
15 13 16 16 2 27 -14 12 -14 15 2 32 15 16 15 21 3 28 -22 14 23 27 141 40 57
7 109 16 114 20 14 11 58 17 70 9 6 -3 44 -2 85 2z m1010 -19 c19 -9 37 -26
39 -37 2 -11 8 -23 14 -27 17 -11 -28 -99 -47 -92 -9 3 -17 -3 -22 -18 l-7
-23 -9 24 c-7 19 -11 21 -22 11 -12 -9 -15 -6 -18 22 -4 40 -20 45 -90 24 -65
-19 -118 -59 -102 -76 6 -6 59 -29 117 -50 134 -50 221 -93 241 -122 18 -25
21 -74 6 -83 -5 -3 -10 -14 -10 -23 0 -10 -14 -23 -32 -31 -45 -20 -24 -24 68
-12 72 9 95 8 83 -3 -2 -2 -51 -9 -109 -15 -90 -10 -123 -19 -233 -65 -70 -29
-127 -57 -127 -62 1 -4 -31 -20 -72 -36 -83 -32 -81 -32 -72 -17 10 17 -31 2
-238 -85 -69 -29 -39 -5 38 30 42 20 74 38 71 41 -3 2 -79 -20 -169 -51 -90
-31 -168 -56 -173 -56 -18 1 19 18 115 52 185 67 228 80 251 73 16 -5 19 -4
14 5 -6 10 -1 11 17 7 27 -7 171 40 323 104 l80 34 -50 6 c-27 3 -64 12 -82
18 -24 10 -37 10 -54 1 -12 -7 -79 -36 -148 -65 -69 -29 -144 -61 -166 -70
-71 -30 -23 0 60 37 387 175 435 200 435 223 0 18 -48 42 -165 84 -158 56
-206 95 -191 155 9 38 68 90 142 127 117 58 229 74 294 41z m-1470 -37 c9 -17
5 -40 -24 -121 -19 -54 -49 -142 -67 -194 -39 -116 -60 -172 -70 -184 -10 -12
5 46 31 122 12 35 20 65 18 68 -3 2 -26 5 -51 6 -58 3 -70 -11 -91 -103 -9
-36 -20 -77 -25 -90 l-10 -24 0 23 c-1 37 105 390 141 471 14 33 22 41 28 31
7 -12 13 -12 40 1 44 20 67 19 80 -6z m-2097 -34 c5 -1 7 -18 5 -38 -4 -45
-16 -49 -115 -38 l-63 7 0 37 c0 21 2 40 4 42 3 3 40 1 83 -2 43 -4 82 -8 86
-8z m-250 -105 c4 -6 6 -24 5 -41 -3 -28 -6 -30 -48 -33 -25 -2 -63 1 -85 5
-34 8 -40 13 -43 37 -7 54 0 58 86 51 42 -4 80 -13 85 -19z m235 -12 c17 -5
22 -14 22 -40 0 -22 -6 -36 -15 -39 -47 -15 -51 -18 -30 -23 32 -7 45 -22 45
-54 0 -37 -14 -42 -102 -31 l-73 8 -3 38 -3 37 48 1 48 0 -45 17 c-41 16 -45
21 -48 55 l-3 37 68 0 c37 0 78 -3 91 -6z m-231 -94 c2 0 3 -19 3 -41 l0 -42
-82 7 c-44 4 -85 9 -90 12 -4 3 -8 20 -8 39 l0 34 58 3 c31 2 70 0 87 -4 16
-5 31 -8 32 -8z m4926 -56 c35 -6 37 -8 37 -45 l0 -39 -64 0 c-35 0 -78 3 -95
6 -27 6 -31 11 -31 39 0 17 3 35 7 38 8 9 96 9 146 1z m-13 -122 c43 -7 45 -8
45 -42 0 -31 -3 -35 -30 -38 -16 -2 -58 -1 -92 3 l-63 7 0 39 0 39 48 -1 c26
0 67 -4 92 -7z m-2418 -98 l-18 -49 340 -2 c188 -1 356 -5 374 -10 19 -5 -137
-8 -365 -9 -487 0 -761 -23 -1006 -84 -84 -21 -118 -36 -57 -26 230 40 805 98
860 87 8 -1 137 -3 285 -3 l270 -1 -165 -8 c-303 -16 -577 -47 -735 -84 -22
-6 -27 -5 -19 4 14 15 232 60 347 71 84 8 78 9 -58 5 -175 -5 -352 -23 -628
-66 -110 -16 -213 -29 -230 -27 l-32 4 47 22 c82 39 359 89 593 107 167 12
162 10 179 62 9 26 16 60 17 77 l1 31 9 -26 c7 -20 5 -39 -9 -75z m-2978 31
c-17 -43 41 -58 293 -80 95 -8 189 -18 210 -24 44 -11 277 -33 608 -57 302
-21 409 -31 360 -33 -22 0 -101 3 -175 9 -132 9 -238 16 -705 45 -126 7 -293
15 -370 17 -139 3 -140 3 -143 -19 -5 -36 -40 -30 -50 9 -6 24 -16 34 -44 44
-34 11 -36 11 -42 -9 -3 -12 -6 -38 -6 -56 0 -63 -19 -19 -21 50 -3 76 2 86
45 105 40 17 47 17 40 -1z m6656 -26 c9 -15 1 -23 -52 -52 -35 -19 -186 -103
-336 -186 -151 -83 -299 -160 -330 -171 -31 -10 -56 -24 -55 -30 2 -5 -2 -10
-7 -10 -5 0 -9 -3 -9 -7 5 -33 -3 -53 -21 -53 -16 0 -20 7 -20 33 l0 33 -292
17 c-866 53 -1255 77 -1273 81 -50 9 75 4 370 -14 790 -49 885 -52 1066 -42
96 5 188 8 205 5 22 -3 53 5 105 29 74 35 219 123 219 134 0 3 -6 2 -12 -2 -7
-4 -11 -5 -8 -1 3 3 30 19 60 35 30 16 87 48 127 70 40 22 73 36 75 30 3 -9
126 49 163 78 19 14 19 16 3 28 -22 16 -23 27 -3 20 9 -4 20 -15 25 -25z
m-1480 -8 c21 -6 25 -13 25 -41 0 -34 -1 -35 -45 -38 -25 -1 -65 1 -90 6 -36
6 -46 12 -48 30 -7 45 3 52 70 51 35 -1 74 -4 88 -8z m258 -23 c20 -20 15 -66
-8 -73 -31 -10 -158 6 -171 21 -6 8 -8 25 -5 39 6 24 9 25 89 25 51 0 88 -5
95 -12z"/>
<path d="M205 2233 c-7 -30 4 -191 14 -197 3 -2 21 -7 39 -11 l32 -7 0 89 c0
113 -5 129 -42 142 -17 6 -32 11 -33 11 -2 0 -6 -12 -10 -27z"/>
<path d="M1607 1490 c-20 -4 -39 -9 -42 -12 -6 -5 -13 -58 -22 -145 -6 -66 2
-67 88 -12 88 57 129 98 129 130 0 23 -6 28 -44 38 -49 12 -53 12 -109 1z"/>
<path d="M2469 1053 c-16 -4 -67 -119 -57 -128 14 -14 264 91 262 110 -2 19
-154 32 -205 18z"/>
<path d="M2440 813 c-78 -8 -76 -6 -111 -113 -18 -54 -31 -102 -28 -105 9 -8
185 53 272 94 97 47 133 76 117 96 -21 25 -145 39 -250 28z"/>
</g>
</svg>
