<?xml version="1.0" standalone="no"?>
<!DOCTYPE svg PUBLIC "-//W3C//DTD SVG 20010904//EN"
 "http://www.w3.org/TR/2001/REC-SVG-20010904/DTD/svg10.dtd">
<svg version="1.0" xmlns="http://www.w3.org/2000/svg"
 width="720.000000pt" height="544.000000pt" viewBox="0 0 720.000000 544.000000"
 preserveAspectRatio="xMidYMid meet">
<metadata>
Created by potrace 1.16, written by Peter Selinger 2001-2019
</metadata>
<g transform="translate(0.000000,544.000000) scale(0.100000,-0.100000)"
fill="#000000" stroke="none">
<path d="M1925 5417 c-33 -51 -25 -137 20 -223 8 -16 15 -42 15 -59 0 -16 9
-66 19 -110 11 -44 17 -82 15 -84 -2 -3 -17 7 -32 21 -15 14 -37 29 -50 33
-32 9 -85 -11 -116 -45 -18 -21 -35 -30 -57 -30 -35 0 -79 -39 -79 -69 0 -14
-13 -27 -40 -41 -47 -24 -75 -70 -65 -109 3 -14 27 -69 52 -121 25 -52 63
-133 85 -180 22 -47 55 -101 75 -121 31 -33 34 -39 22 -60 -22 -41 -28 -90
-18 -149 13 -85 74 -259 128 -368 39 -80 54 -101 84 -117 28 -15 40 -30 47
-57 27 -97 129 -173 232 -173 56 1 58 0 68 -31 20 -60 76 -92 310 -172 106
-36 118 -38 155 -27 33 10 45 9 70 -4 18 -9 60 -15 105 -16 46 -1 88 -7 110
-17 19 -9 47 -19 61 -22 22 -5 29 -14 39 -53 17 -70 88 -201 135 -250 24 -25
54 -45 73 -49 34 -7 45 -24 36 -60 -6 -23 -10 -24 -76 -24 -54 0 -74 4 -83 16
-16 22 -88 22 -110 0 -20 -20 -34 -20 -55 -1 -10 9 -50 17 -113 21 l-97 7 0
31 c0 17 -3 41 -6 53 -17 61 -208 66 -251 7 l-18 -25 -67 25 c-36 14 -117 35
-179 48 -104 21 -140 23 -416 23 -282 0 -303 1 -303 17 0 17 -13 19 -107 18
-5 0 -8 -9 -8 -20 -1 -28 -11 -34 -85 -54 -36 -9 -95 -26 -131 -37 -83 -24
-89 -24 -89 4 0 34 -19 47 -65 47 -54 0 -73 -16 -77 -65 l-3 -40 -80 -5 c-97
-7 -123 -19 -127 -61 -3 -29 -8 -33 -103 -68 -642 -242 -619 -230 -623 -306
-1 -28 1 -93 5 -145 8 -92 9 -95 40 -115 21 -13 34 -30 37 -50 3 -16 26 -291
51 -610 25 -319 49 -610 52 -646 l6 -66 -33 -13 c-18 -7 -46 -24 -61 -38 -24
-20 -29 -31 -29 -70 0 -26 3 -64 7 -86 12 -76 74 -88 608 -121 50 -3 149 -10
220 -15 72 -6 202 -15 290 -20 88 -6 255 -17 370 -25 116 -8 440 -31 720 -50
845 -58 2201 -158 2400 -177 70 -6 410 -13 818 -15 l697 -4 153 89 c83 49 228
134 321 188 189 111 196 119 196 223 0 56 -2 61 -36 90 l-37 30 6 63 c13 124
38 460 67 886 l29 432 29 30 c29 29 30 32 37 166 10 185 10 182 -15 209 -27
29 -84 41 -225 50 -55 3 -137 10 -182 16 -92 11 -137 5 -129 -18 3 -8 2 -12
-3 -9 -8 5 -190 -46 -212 -60 -5 -3 2 -19 16 -36 26 -31 32 -63 14 -88 -8 -12
-9 -11 -5 5 6 20 -7 49 -21 51 -4 0 -16 4 -25 8 -13 6 -29 -1 -55 -24 -64 -56
-200 -107 -366 -135 -74 -13 -316 -44 -350 -45 -5 0 -7 -19 -5 -42 3 -39 6
-44 33 -49 17 -4 -13 -7 -65 -7 -52 0 -87 2 -77 5 12 3 15 11 12 26 -3 12 -7
31 -7 43 -2 20 -9 21 -143 28 -163 8 -474 41 -525 56 -19 6 -47 8 -62 4 -16
-3 -28 -1 -28 4 0 6 -39 29 -86 53 -92 45 -150 94 -160 135 -5 20 4 48 39 114
48 92 48 110 1 110 -25 0 -40 15 -24 25 5 3 10 3 10 -2 0 -4 16 -8 35 -9 39
-1 35 11 -5 19 -14 3 6 4 44 3 77 -1 93 -15 44 -37 -17 -8 -36 -23 -42 -34 -6
-11 -19 -33 -29 -48 -19 -28 -19 -29 1 -18 32 17 37 13 15 -12 -51 -56 -51
-110 1 -154 52 -44 189 -101 305 -127 222 -51 349 -58 766 -45 276 9 474 49
598 122 47 28 77 57 59 57 -6 0 -9 7 -6 15 9 22 -22 19 -64 -7 -20 -12 -32
-16 -28 -10 4 7 2 12 -6 13 -40 4 -278 -2 -303 -7 -64 -13 -12 9 62 26 43 10
105 26 138 35 33 10 75 21 94 25 19 5 40 15 48 22 12 12 10 19 -8 44 -20 26
-19 25 15 -6 21 -20 34 -27 31 -17 -5 11 -2 17 6 17 8 0 26 6 40 14 15 7 39
12 53 11 21 -3 31 3 46 27 12 20 20 25 23 16 3 -7 6 9 6 35 1 46 0 49 -36 64
-43 18 -142 20 -173 3 -15 -8 -30 -8 -53 -1 -44 14 -181 38 -312 55 l-110 15
-50 57 -49 57 -2 161 c0 124 -4 170 -17 198 -45 106 -129 161 -241 157 -57 -2
-69 1 -90 22 -21 21 -131 76 -248 124 -30 12 -38 21 -38 41 0 75 -113 204
-228 262 -71 34 -82 37 -166 37 -80 0 -98 -4 -149 -28 -32 -16 -67 -42 -79
-58 -21 -28 -24 -29 -113 -29 -69 0 -100 -4 -128 -19 -40 -21 -127 -37 -127
-24 0 4 10 14 22 22 91 55 278 224 278 250 0 4 28 7 63 7 57 -1 69 3 154 52
107 61 168 127 204 220 32 83 32 234 -1 312 -34 79 -84 142 -160 199 -73 54
-102 100 -82 131 15 25 -37 132 -73 148 -13 6 -33 29 -44 50 -38 75 -201 206
-327 263 -353 160 -782 108 -1106 -134 -128 -96 -269 -290 -273 -375 -2 -30
-12 -45 -39 -55 -5 -1 -17 -34 -26 -72 -16 -62 -16 -72 -3 -87 11 -13 13 -30
8 -75 -8 -63 -17 -85 -45 -113 -41 -41 -63 -103 -68 -185 -11 -205 75 -358
233 -417 103 -39 183 -60 194 -53 6 3 31 -15 55 -42 l44 -47 -36 -16 c-21 -9
-43 -24 -51 -33 -13 -16 -16 -16 -45 2 -39 24 -243 86 -314 96 -62 8 -75 26
-66 84 7 44 -11 108 -75 269 -71 177 -97 226 -124 241 -32 17 -33 24 -8 59 44
63 66 135 66 215 l0 78 -52 49 c-29 26 -53 55 -53 64 0 25 -31 109 -46 127 -8
8 -14 24 -14 35 0 18 -32 147 -78 317 -12 43 -30 97 -40 121 -19 42 -19 42
-76 44 -48 1 -58 -2 -71 -21z m1757 -258 c62 -12 138 -39 138 -48 0 -3 -16
-29 -36 -56 -37 -51 -74 -118 -74 -132 0 -4 15 18 33 50 42 76 84 127 104 127
21 0 147 -85 190 -128 19 -19 50 -58 68 -86 30 -47 34 -61 39 -151 10 -151 10
-153 -5 -258 -14 -107 -4 -257 26 -367 23 -87 20 -114 -25 -181 -23 -32 -38
-59 -35 -59 15 0 75 75 71 87 -3 7 -2 13 3 13 5 0 12 -11 15 -25 7 -27 33 -33
55 -12 11 10 11 8 2 -10 -14 -27 -128 -125 -197 -169 -84 -54 -200 -108 -218
-101 -24 10 -19 22 10 25 28 2 164 79 164 93 0 5 7 9 16 9 8 0 12 5 9 10 -3 6
1 10 9 10 8 0 24 13 35 29 21 29 21 29 1 34 -13 3 -20 0 -20 -9 0 -8 -6 -14
-13 -14 -7 0 -22 -8 -33 -18 -45 -41 -127 -93 -155 -99 -17 -3 -33 -12 -36
-19 -3 -8 -9 -11 -14 -8 -11 6 -62 105 -57 108 2 2 30 8 62 14 89 18 192 69
232 116 78 90 102 244 66 418 -24 117 -64 201 -114 241 -71 57 -152 41 -405
-79 -130 -61 -225 -92 -340 -109 -98 -15 -248 -11 -259 6 -3 5 -9 28 -14 51
l-9 43 4 -45 4 -45 -74 3 c-68 4 -76 2 -99 -21 -33 -33 -42 -86 -28 -178 29
-204 142 -411 256 -472 65 -34 171 -30 259 11 107 51 173 63 318 55 l126 -6
25 -57 25 -57 -76 -23 c-53 -16 -110 -25 -189 -28 -69 -3 -109 -8 -100 -13 7
-5 34 -9 59 -9 25 0 59 -5 76 -10 22 -8 47 -7 99 5 145 32 148 33 132 53 -9
12 -6 11 10 -2 12 -11 22 -22 22 -25 0 -8 -97 -37 -192 -57 -94 -20 -317 -14
-398 11 -247 76 -406 285 -471 618 -23 117 -24 209 -5 310 27 140 96 278 196
390 91 102 268 212 387 241 70 17 272 20 345 5z m-1751 -236 c10 -25 19 -60
19 -79 0 -32 -2 -34 -35 -34 -20 0 -49 -7 -64 -15 -27 -14 -29 -13 -35 8 -13
49 -6 134 12 149 43 38 78 28 103 -29z m-139 -107 l3 -70 -30 -7 c-16 -4 -39
-10 -51 -14 -18 -6 -22 -2 -28 25 -11 56 -7 117 8 129 24 20 70 30 83 17 6 -6
13 -42 15 -80z m463 -69 c81 -55 91 -83 54 -143 -24 -39 -25 -39 -33 -18 -3 8
-2 12 4 9 6 -3 10 -1 10 4 0 6 -5 11 -11 11 -7 0 -30 17 -53 38 -37 34 -41 43
-41 85 0 42 2 46 20 41 11 -4 34 -16 50 -27z m2260 11 c35 -16 31 -23 -12 -24
-27 0 -43 -8 -64 -31 -44 -51 -62 -129 -62 -283 0 -120 3 -144 27 -217 15 -46
37 -95 50 -110 23 -26 24 -26 41 -9 13 12 27 16 47 12 19 -4 39 0 56 11 26 17
26 17 13 0 -21 -26 -70 -50 -88 -42 -12 4 -13 3 -5 -8 16 -19 5 -27 -35 -27
-44 0 -104 54 -132 119 -50 117 -72 362 -39 431 9 19 26 55 37 80 42 94 100
128 166 98z m-1853 -255 c-37 -53 -45 -99 -39 -232 5 -132 14 -165 75 -301 19
-42 46 -80 75 -107 44 -40 45 -43 21 -43 -38 0 -96 35 -121 72 -30 45 -89 202
-97 258 -13 85 -18 100 -32 100 -19 0 -18 20 2 35 10 7 19 32 22 61 4 44 3 47
-12 35 -9 -7 -16 -9 -16 -3 0 12 30 38 31 26 0 -5 9 15 20 44 13 34 30 57 47
67 40 21 46 18 24 -12z m1156 -195 c3 -22 -1 -28 -15 -28 -10 0 -25 -5 -33
-10 -11 -7 -5 -8 19 -4 37 8 51 -5 51 -45 0 -18 4 -22 18 -16 43 18 87 24 94
12 14 -22 3 -40 -32 -53 l-35 -12 40 1 c36 2 40 0 40 -23 0 -17 -7 -26 -25
-32 -23 -7 -23 -7 5 -5 24 2 31 -2 33 -19 2 -17 -5 -23 -40 -33 -24 -6 -52
-16 -63 -21 -35 -16 -138 -39 -148 -33 -5 3 -12 1 -16 -5 -3 -5 -27 -13 -53
-17 -47 -7 -48 -7 -48 18 0 16 7 27 18 30 13 4 12 5 -4 6 -20 1 -34 18 -34 41
0 5 20 12 43 15 50 8 75 20 64 32 -5 4 -11 2 -15 -4 -4 -7 -28 -13 -52 -15
-39 -3 -45 0 -48 18 -3 19 5 24 48 35 l52 13 -6 39 c-6 34 -4 39 16 45 l23 6
-25 6 c-26 6 -39 35 -23 51 13 13 102 37 128 35 14 -1 21 -9 23 -28z m-1530 6
c28 -19 47 -56 111 -219 94 -242 97 -263 35 -357 -58 -88 -67 -89 -99 -10 -16
37 -34 74 -40 82 -17 20 -78 150 -78 164 0 6 3 22 7 35 5 13 4 21 0 18 -11 -6
-35 18 -27 27 3 3 -10 1 -28 -5 -95 -28 -147 -39 -186 -39 -24 0 -43 -2 -43
-4 0 -9 24 -76 41 -113 10 -24 19 -47 19 -52 0 -6 14 -33 30 -61 17 -28 30
-53 30 -56 0 -11 45 -101 58 -116 8 -10 11 -19 6 -19 -5 -1 7 -5 26 -9 29 -6
25 -8 -30 -9 -103 -2 -145 24 -192 119 -108 217 -164 444 -127 511 13 23 13
22 20 -25 10 -61 45 -100 104 -115 107 -27 210 0 294 75 64 58 79 102 52 156
-20 42 -17 46 17 22z m825 -136 c4 -12 2 -27 -4 -34 -6 -8 -5 -13 4 -17 8 -3
17 -20 21 -38 6 -32 6 -32 56 -26 43 5 50 4 56 -15 3 -12 1 -24 -6 -28 -8 -5
-7 -9 4 -13 10 -4 16 -18 16 -37 0 -16 5 -30 10 -30 6 0 10 -9 10 -20 0 -15
-7 -20 -27 -21 -16 0 -37 -2 -48 -4 -57 -10 -106 -13 -162 -8 -49 5 -62 10
-66 24 -4 13 0 19 11 20 12 0 10 3 -5 9 -24 10 -32 50 -10 51 6 0 2 4 -10 9
-13 6 -23 18 -23 30 0 16 6 20 34 20 34 0 35 0 29 38 -3 20 -9 42 -13 47 -4 6
-11 20 -14 32 -8 24 5 29 85 32 40 1 47 -2 52 -21z m1645 -387 c35 -18 84 -51
109 -73 46 -43 100 -124 89 -135 -3 -4 -6 -1 -6 5 0 5 -16 20 -35 32 -28 17
-44 21 -73 16 -96 -18 -202 -96 -255 -188 -11 -21 -25 -38 -30 -38 -5 0 0 16
12 36 12 19 21 38 21 43 0 4 -20 17 -45 29 -25 12 -65 40 -89 62 -34 31 -51
40 -80 40 -35 0 -36 -1 -36 -36 0 -70 62 -137 149 -160 30 -8 37 -13 21 -13
-66 -1 -160 73 -178 141 -16 60 7 150 49 194 64 66 115 84 229 80 73 -2 94 -7
148 -35z m-2074 -102 c140 -40 175 -55 214 -92 42 -41 41 -54 -4 -28 -44 26
-50 26 -57 1 -6 -23 2 -29 62 -51 54 -19 70 -43 19 -28 -49 14 -63 12 -46 -5
29 -30 48 -57 48 -66 0 -9 14 -14 33 -11 4 0 7 -5 7 -13 0 -11 -9 -14 -35 -10
-19 2 -50 6 -67 8 -18 2 -42 8 -52 12 -15 6 -18 4 -13 -8 6 -18 2 -18 -121 15
-80 21 -83 23 -76 47 30 116 16 187 -43 225 -72 45 -17 47 131 4z m1574 -76
c-53 -112 -50 -285 7 -428 18 -44 20 -54 7 -38 -12 17 -21 20 -32 13 -13 -8
-13 -10 0 -10 11 0 11 -3 2 -12 -17 -17 -28 -3 -57 68 -14 32 -25 52 -25 44 0
-8 10 -35 21 -60 16 -35 18 -49 9 -65 -17 -29 -184 -165 -242 -196 l-48 -27
-82 36 c-58 25 -102 36 -151 40 -58 4 -70 8 -77 26 -9 21 -9 21 -9 -1 -1 -17
-7 -23 -24 -23 -13 0 -45 -6 -72 -14 -44 -14 -48 -14 -69 6 -38 36 -65 41 -86
16 l-19 -23 -25 58 c-14 31 -29 76 -32 100 -9 54 -36 118 -49 114 -5 -2 -14
-20 -19 -39 -12 -49 27 -173 99 -315 30 -58 53 -109 50 -111 -3 -3 -6 -3 -8
-1 -2 2 -14 20 -28 39 -106 143 -151 348 -114 517 22 104 25 107 59 90 l27
-14 -23 -7 -23 -7 23 -9 c12 -5 22 -15 22 -22 1 -7 7 1 15 19 13 30 17 32 58
31 47 -1 93 -18 50 -18 -14 0 -23 -6 -23 -16 0 -11 5 -14 16 -10 9 3 25 6 36
6 13 0 18 5 15 14 -4 11 6 9 41 -7 35 -16 65 -21 122 -20 86 1 154 23 246 79
35 22 71 37 89 36 26 0 27 1 7 6 l-23 7 28 25 c15 14 39 34 53 45 20 16 22 17
11 2 -8 -9 -11 -20 -8 -23 8 -8 107 39 136 65 13 11 28 21 33 21 15 0 96 39
103 50 3 5 8 10 10 10 2 0 -10 -30 -27 -67z m877 -173 c100 -46 168 -90 137
-90 -6 0 -14 5 -17 10 -4 6 -36 10 -71 9 -53 -2 -72 -7 -103 -29 -48 -35 -106
-106 -125 -152 l-15 -36 -111 54 c-123 60 -120 54 -79 136 26 52 74 95 144
129 75 38 93 35 240 -31z m-2750 -136 c16 -11 36 -14 54 -11 17 4 31 2 33 -4
2 -6 19 -17 38 -24 19 -7 84 -34 145 -60 60 -26 120 -48 131 -49 34 -2 17 -16
-20 -16 -31 0 -198 52 -267 83 -19 8 -55 24 -81 35 -25 11 -51 30 -57 41 -14
25 -8 26 24 5z m3070 -42 c98 -47 155 -138 155 -250 0 -75 -8 -132 -19 -132
-11 0 -75 94 -73 106 1 6 -10 21 -25 35 -19 16 -23 18 -13 4 13 -16 8 -15 -30
7 -25 14 -77 34 -116 44 -89 22 -130 13 -196 -46 -25 -21 -48 -36 -52 -33 -3
3 -6 -2 -7 -13 -1 -28 -34 -100 -41 -88 -15 24 27 191 65 260 25 43 103 106
151 122 62 20 137 14 201 -16z m-794 -176 c30 -13 64 -38 77 -55 24 -33 96
-73 199 -110 85 -31 90 -40 53 -86 -17 -21 -35 -56 -42 -79 -16 -55 -23 -63
-66 -70 -20 -4 -45 -9 -54 -12 -15 -4 -18 1 -18 29 0 46 -22 62 -83 60 -65 -2
-73 -10 -76 -88 -1 -19 -8 -20 -95 -20 -78 0 -97 -3 -115 -19 -12 -11 -21 -27
-21 -38 0 -15 -8 -18 -60 -18 -66 0 -67 2 -54 69 5 26 17 37 55 57 29 14 65
45 90 77 47 59 109 183 134 270 9 31 18 57 19 57 2 0 28 -11 57 -24z m761
-127 c72 -24 105 -45 171 -108 52 -50 66 -86 22 -57 -33 21 -58 20 -80 -4
l-18 -20 -19 20 c-27 29 -64 25 -97 -10 -27 -30 -27 -31 -46 -10 -24 27 -88
27 -115 0 -20 -20 -20 -20 -27 8 -24 87 7 173 70 191 50 14 73 13 139 -10z
m-3299 -242 c20 -9 37 -21 37 -27 0 -56 -396 -87 -496 -39 -57 29 -37 50 69
75 86 19 337 14 390 -9z m-1001 -80 c-91 -96 134 -189 496 -204 105 -4 153 -3
182 7 22 7 40 17 40 22 0 4 -32 8 -72 8 -135 0 -63 7 122 12 167 5 177 4 100
-6 -175 -23 0 -47 196 -26 148 15 287 49 383 95 56 27 70 31 57 16 -45 -49
-229 -102 -495 -140 -199 -29 -211 -33 -211 -78 0 -19 6 -22 43 -25 26 -2 10
-5 -44 -8 l-86 -5 -1 27 c0 15 -3 32 -6 37 -8 12 -112 28 -271 42 -148 12
-301 40 -380 70 -49 18 -115 75 -115 99 0 21 24 59 44 68 35 17 41 13 18 -11z
m-451 -140 c-6 -8 -39 -22 -73 -32 -92 -27 -288 -122 -288 -139 0 -9 8 -20 18
-25 10 -6 149 -19 308 -31 319 -23 357 -26 304 -29 -19 -1 -41 -5 -49 -10 -17
-11 43 -17 434 -41 499 -32 530 -33 524 -26 -4 4 -40 9 -80 12 -188 12 -349
27 -345 31 3 3 90 0 193 -6 103 -6 274 -16 378 -22 240 -15 453 -36 375 -38
-99 -2 -86 -18 22 -25 648 -45 1603 -106 1652 -106 45 0 28 19 -21 23 -91 8
143 -3 314 -15 95 -6 170 -15 167 -20 -3 -4 -26 -5 -52 -2 -31 3 -42 2 -32 -4
8 -5 78 -14 155 -21 122 -10 636 -41 689 -41 36 0 8 12 -46 20 -70 10 260 2
417 -10 326 -26 524 -32 611 -20 82 12 93 16 178 74 172 116 451 297 424 273
-40 -33 -35 -51 7 -26 20 12 35 16 35 10 0 -6 -5 -11 -12 -11 -6 0 -9 -3 -6
-6 7 -7 167 98 193 126 18 20 18 21 -1 34 -12 9 -64 17 -147 21 -71 4 -141 11
-156 15 l-26 8 30 1 c92 2 290 -20 311 -34 49 -32 62 -21 -401 -338 -132 -90
-257 -170 -279 -178 -21 -8 -40 -18 -41 -24 -4 -12 -15 -167 -15 -207 0 -26
-3 -28 -40 -28 -27 0 -38 4 -35 12 2 7 6 59 10 116 l6 102 -122 0 c-66 0 -214
7 -327 15 -323 22 -579 39 -1417 90 -215 13 -1042 68 -1870 125 -165 11 -399
27 -520 35 -121 8 -242 17 -270 20 -127 14 -829 56 -1080 66 -154 6 -293 12
-310 13 -30 1 -30 1 -33 -59 -1 -33 1 -77 5 -99 l8 -38 60 -4 c33 -2 89 -8
125 -14 36 -6 117 -17 180 -24 l115 -14 -135 5 c-195 6 -399 22 -443 34 -20 5
-43 20 -51 32 -17 26 -28 236 -14 261 13 23 44 37 229 106 90 34 184 69 209
80 55 23 66 24 51 7z m3083 -213 c24 -9 20 -27 -13 -58 -28 -27 -31 -28 -106
-21 -90 9 -105 25 -59 62 24 19 41 23 96 23 36 0 73 -3 82 -6z m-1941 -422
c60 -27 81 -60 74 -115 -5 -36 -15 -51 -67 -99 -33 -31 -57 -58 -53 -61 4 -3
23 -8 41 -12 38 -8 89 -56 98 -92 9 -32 42 -30 50 3 4 15 22 63 41 108 19 44
46 109 61 144 22 54 29 62 47 58 12 -3 30 1 41 9 10 8 27 15 36 15 9 0 18 6
21 13 3 7 7 5 12 -8 4 -11 11 -29 15 -40 5 -11 16 -75 26 -142 17 -117 19
-123 41 -123 17 0 23 -6 24 -22 0 -13 9 3 19 34 36 117 113 209 203 243 88 33
171 -8 169 -85 -1 -48 -21 -100 -36 -94 -8 3 -16 -2 -20 -12 -6 -15 -9 -14
-26 6 -11 13 -20 34 -20 47 0 35 -33 29 -75 -12 -47 -47 -76 -107 -82 -169 -4
-43 -1 -56 18 -80 19 -24 27 -28 60 -23 20 3 57 18 81 34 23 17 54 36 68 43
23 12 24 12 12 -3 -8 -9 -12 -25 -10 -36 3 -19 4 -19 30 4 24 21 29 38 53 179
28 169 39 211 55 201 6 -4 17 -1 25 5 8 6 19 9 24 6 5 -4 12 -2 16 4 25 41 43
-31 27 -109 -7 -35 -11 -66 -8 -68 2 -2 32 21 67 53 91 81 167 137 177 130 5
-3 20 6 32 19 37 39 46 29 10 -11 -17 -20 -29 -39 -25 -42 3 -3 11 0 17 6 18
18 30 14 20 -5 -5 -10 -8 -23 -5 -29 4 -11 -35 -48 -165 -159 -39 -33 -71 -62
-71 -65 -1 -3 42 -58 95 -123 90 -110 122 -139 94 -87 -13 25 -5 94 11 85 5
-4 9 -1 9 5 0 7 6 10 14 7 7 -3 18 -1 23 4 5 5 14 -5 22 -26 8 -23 20 -37 37
-41 36 -9 94 2 124 24 45 34 33 52 -75 108 -101 51 -145 93 -145 136 0 103
222 224 318 174 36 -19 52 -43 52 -81 0 -31 -27 -88 -39 -80 -5 3 -12 -3 -16
-13 -6 -16 -7 -16 -16 1 -6 9 -14 15 -20 12 -5 -4 -9 8 -9 24 0 21 -5 31 -15
31 -29 0 -96 -33 -107 -53 -13 -25 -3 -33 94 -83 95 -48 148 -101 148 -147 0
-64 -72 -125 -196 -167 -65 -22 -99 -25 -89 -10 3 6 -1 10 -10 10 -9 0 -34 9
-55 20 -22 11 -40 18 -40 14 0 -3 21 -33 47 -66 41 -54 43 -59 17 -42 -16 10
-41 29 -56 43 -32 28 -50 21 -23 -9 24 -26 11 -26 -26 1 -24 17 -39 20 -77 16
-42 -5 -44 -5 -19 5 15 7 27 15 27 18 0 4 -24 31 -53 61 -29 30 -73 78 -99
106 l-46 53 -10 -43 c-6 -23 -13 -62 -17 -87 -4 -25 -12 -52 -17 -60 -7 -11
-8 -10 -5 8 3 12 2 22 -3 22 -8 0 -25 -40 -33 -75 -3 -11 -5 -4 -6 16 0 20 -8
42 -16 49 -12 10 -15 10 -15 -1 0 -11 -2 -11 -8 -1 -5 7 -5 36 -1 65 3 28 5
54 2 56 -2 3 -32 -22 -66 -55 -76 -73 -120 -104 -146 -104 -11 0 -45 12 -76
26 -59 28 -98 78 -111 142 -6 30 -26 43 -38 24 -2 -4 2 -41 10 -82 7 -40 12
-76 9 -78 -3 -3 -5 0 -5 6 0 7 -5 12 -10 12 -6 0 -8 -11 -5 -25 15 -73 14 -79
-6 -35 -14 31 -23 40 -28 31 -6 -9 -11 -5 -16 16 -7 25 -8 26 -15 8 -10 -25
-14 -15 -33 70 -15 67 -10 65 -113 44 -52 -10 -52 -10 -74 -69 -12 -33 -28
-60 -35 -60 -7 0 -19 -13 -27 -30 -17 -38 -24 -38 -32 2 -6 30 -7 31 -21 12
-19 -25 -19 -10 1 56 22 75 4 84 -56 25 -25 -24 -75 -64 -112 -88 -37 -24 -65
-46 -63 -49 3 -2 -22 -18 -55 -35 -32 -16 -57 -26 -54 -21 3 4 -4 8 -15 8 -14
0 -23 -10 -30 -32 -5 -18 -10 -25 -10 -15 -1 10 -7 17 -13 15 -8 -3 -15 -32
-19 -74 -6 -81 -12 -74 -17 24 -2 37 -18 43 -25 10 l-4 -23 -8 23 c-8 24 -15
24 -72 6 -17 -5 -17 -5 1 10 20 16 13 41 -10 32 -8 -3 -14 -1 -14 5 0 5 7 12
15 15 21 9 19 27 -2 20 -24 -8 14 23 56 46 31 17 31 18 31 96 0 44 3 94 6 111
5 24 3 31 -10 31 -9 0 -16 7 -17 15 -4 58 -1 67 24 88 23 19 27 32 33 100 l7
78 -39 -17 c-21 -9 -52 -19 -69 -22 -27 -4 -29 -3 -16 11 23 28 -13 32 -76 8
-80 -31 -77 -19 6 19 39 18 71 37 71 43 0 5 -7 7 -15 3 -8 -3 -15 -1 -15 4 0
21 175 94 263 110 76 13 188 5 240 -18z m-1414 -267 c54 -606 83 -1042 61
-921 -22 119 -101 1169 -87 1156 3 -3 15 -108 26 -235z m3895 173 c4 -24 14
-94 21 -156 8 -62 17 -118 20 -123 4 -5 15 -9 25 -9 13 0 17 -5 14 -15 -4 -8
-2 -15 4 -15 6 0 16 17 23 38 20 63 58 119 117 173 70 64 141 99 204 99 66 0
96 -14 115 -55 16 -33 16 -37 -3 -82 -12 -28 -26 -47 -34 -45 -7 2 -17 -2 -21
-9 -11 -18 -39 14 -39 45 0 30 -15 33 -64 12 -40 -17 -88 -64 -127 -125 -34
-53 -40 -132 -12 -163 32 -35 125 -11 172 46 12 14 9 16 -38 16 -38 0 -51 4
-52 15 -5 70 -5 70 37 76 21 4 78 10 126 14 l86 7 -3 -33 c-2 -19 -12 -59 -23
-89 -11 -30 -33 -95 -48 -145 -20 -67 -29 -84 -34 -70 -7 19 -8 18 -18 -5 -6
-14 -15 -38 -21 -55 -9 -29 -9 -28 -10 18 -1 26 -5 47 -11 47 -5 0 -10 -4 -10
-10 0 -5 -4 -10 -9 -10 -4 0 -5 19 -1 43 5 23 7 43 6 45 -2 1 -24 -9 -50 -23
-57 -30 -74 -31 -131 -4 -57 27 -102 78 -110 126 -10 58 -12 62 -33 56 -18 -4
-18 -9 -7 -81 13 -79 11 -97 -6 -72 -7 11 -8 -3 -4 -45 7 -62 -1 -67 -20 -14
-5 17 -14 31 -20 31 -5 -1 -15 9 -22 21 -7 12 -12 16 -13 10 0 -7 -4 -13 -9
-13 -5 0 -12 21 -16 48 -14 99 -10 95 -77 88 -105 -11 -107 -12 -144 -90 -19
-39 -34 -63 -34 -54 0 28 -25 10 -49 -35 -20 -39 -21 -40 -17 -12 5 33 -11 70
-21 48 -2 -7 -8 -13 -13 -13 -5 0 2 27 16 60 28 69 29 74 11 67 -10 -4 -14 4
-14 24 0 16 5 29 10 29 5 0 4 6 -2 14 -13 15 4 26 38 26 13 0 35 34 77 118 32
64 60 120 62 124 3 7 -25 5 -144 -13 l-70 -11 -16 -57 c-9 -31 -26 -99 -39
-151 -40 -169 -58 -228 -58 -195 l-1 30 -25 -30 c-13 -16 -27 -42 -30 -57 -4
-16 -10 -28 -15 -28 -4 0 -4 18 1 41 6 25 6 46 -1 57 -5 10 -10 12 -10 5 0 -7
-5 -13 -10 -13 -6 0 -8 17 -4 43 7 52 53 295 61 321 5 17 1 18 -38 12 -97 -15
-134 -18 -120 -8 11 8 12 14 4 24 -12 16 -10 65 3 78 6 6 51 16 100 22 49 6
95 16 102 21 16 13 255 19 285 8 l22 -9 -24 -9 c-22 -9 -23 -10 -5 -17 18 -7
17 -8 -6 -21 -25 -14 -25 -14 15 -15 36 0 42 4 59 35 14 26 24 34 38 29 18 -5
84 13 103 28 17 15 22 8 29 -34z m1084 -66 c2 -7 21 -12 43 -12 50 0 51 -17 2
-25 -21 -4 -48 -12 -61 -18 -21 -10 -21 -12 -6 -17 29 -10 4 -18 -81 -24 -161
-13 -173 -16 -178 -39 -3 -12 -9 -32 -13 -45 -7 -23 -5 -23 57 -22 35 1 80 1
99 0 32 -1 33 -2 15 -12 -19 -12 -19 -12 5 -19 25 -6 25 -7 -8 -19 -22 -8 -30
-15 -22 -20 20 -12 0 -17 -97 -25 l-92 -7 -14 -47 -13 -46 160 -3 c88 -1 165
-7 170 -12 7 -7 -2 -10 -24 -11 -61 -1 -3 -17 70 -19 76 -3 65 -6 -42 -15 -76
-7 -110 -25 -46 -25 73 0 12 -9 -137 -20 -88 -7 -172 -18 -187 -25 -20 -10
-28 -10 -31 -1 -3 6 -9 0 -14 -13 -8 -20 -11 -21 -16 -8 -4 11 -18 17 -38 17
-24 0 -30 3 -25 16 3 9 3 21 -1 27 -16 27 -12 56 10 59 16 2 25 16 38 61 13
44 14 59 5 63 -20 8 -7 72 16 80 19 6 29 24 42 77 5 23 3 27 -15 27 -20 0 -21
4 -15 46 7 56 12 64 36 64 10 0 21 4 25 9 3 5 60 10 127 10 67 1 124 4 127 7
11 11 125 -2 129 -14z m-2629 -567 c33 -10 69 -31 88 -50 33 -33 34 -35 18
-65 -17 -32 -60 -63 -140 -100 l-50 -22 68 -18 c107 -27 155 -74 135 -131 -12
-35 -97 -112 -156 -140 -23 -12 -84 -36 -135 -55 -50 -19 -80 -32 -64 -29 74
14 78 14 27 -4 -58 -19 -161 -49 -195 -57 -11 -2 -7 3 10 11 l30 16 -39 -6
c-66 -11 -84 -22 -92 -57 l-8 -33 -6 32 c-4 29 -7 30 -23 18 -13 -9 -21 -34
-27 -80 -12 -94 -24 -96 -16 -2 6 72 5 78 -11 75 -9 -2 -20 -14 -23 -28 l-6
-25 -7 27 c-4 15 -13 26 -20 24 -6 -3 -27 -7 -44 -10 -37 -6 -45 8 -10 18 18
5 20 8 7 16 -8 5 -26 10 -40 10 l-25 0 25 15 c44 25 51 28 58 21 3 -4 0 -11
-7 -16 -12 -7 -11 -11 3 -25 12 -12 32 -17 67 -16 28 0 54 3 59 6 7 4 176 57
330 102 72 21 182 64 177 69 -2 3 -25 -4 -51 -15 -25 -11 -48 -20 -51 -21 -3
0 -17 -3 -31 -6 -14 -4 -30 -2 -37 5 -6 6 -21 11 -34 11 -13 0 -23 5 -23 10 0
12 -33 7 -120 -20 -65 -20 -116 -27 -94 -12 7 4 17 25 23 47 14 51 14 62 -1
47 -15 -15 -54 -16 -63 -2 -3 6 -12 10 -20 10 -18 0 -38 -92 -22 -102 8 -5 8
-10 2 -16 -10 -9 -145 -52 -162 -52 -17 1 32 23 75 34 l45 12 24 89 c12 50 25
100 29 113 5 16 2 22 -11 22 -9 0 -14 4 -11 9 4 5 0 12 -6 14 -10 4 -9 8 2 16
12 9 13 13 2 20 -10 6 -3 12 25 24 36 14 41 21 66 92 l27 78 -37 -7 c-95 -16
-118 -17 -104 -8 16 12 6 32 -17 33 -13 0 -14 2 -2 6 8 3 23 15 35 25 20 19
20 19 -10 12 -25 -5 -28 -4 -18 7 7 7 59 23 115 35 90 20 125 23 273 20 126
-2 184 -8 224 -21z m793 -4 c2 -6 33 -6 78 -1 41 5 111 9 155 8 l80 0 -50 -13
c-42 -11 -45 -13 -20 -15 l30 -2 -30 -14 -30 -14 40 4 c117 15 375 28 400 21
l30 -8 -25 -7 c-24 -8 -24 -8 9 -15 l34 -8 -54 -18 c-45 -14 -49 -17 -25 -18
19 -1 26 -5 20 -10 -5 -6 -66 -15 -135 -22 l-126 -12 -16 -45 -17 -45 87 6
c49 3 97 2 108 -3 19 -8 19 -9 -3 -9 -29 -1 -19 -21 11 -22 20 -1 21 -2 2 -6
-11 -3 -31 -10 -45 -15 -24 -10 -24 -11 -5 -18 13 -5 -7 -9 -60 -14 -140 -12
-139 -12 -157 -64 -10 -25 -16 -48 -14 -49 2 -2 66 0 144 5 77 4 162 5 189 1
26 -3 36 -7 21 -8 -15 0 -30 -5 -33 -11 -6 -10 19 -14 82 -12 65 3 40 -15 -30
-22 -40 -3 -84 -9 -99 -12 -18 -4 -28 -2 -28 5 0 6 12 11 26 11 14 0 23 4 19
10 -3 6 -17 10 -31 10 -14 0 -22 4 -19 10 7 11 -39 12 -163 2 -46 -4 -88 -5
-93 -1 -6 4 -6 15 1 33 14 37 4 49 -32 41 -21 -5 -28 -4 -24 4 4 6 1 11 -7 11
-13 0 -45 -76 -39 -93 1 -4 -11 -12 -26 -18 -24 -8 -28 -15 -24 -34 3 -18 0
-25 -12 -25 -10 0 -13 5 -9 16 3 9 0 20 -7 24 -8 5 -1 11 22 19 28 9 36 19 48
59 18 56 18 68 4 65 -6 -1 -11 13 -11 32 0 29 6 37 32 49 22 11 37 29 48 57
15 39 15 41 -3 46 -15 4 -17 9 -9 30 9 24 8 25 -28 19 -21 -3 -65 -8 -98 -11
l-60 -6 -23 -57 c-12 -31 -50 -131 -84 -221 -34 -91 -63 -160 -65 -155 -2 6
12 54 32 108 19 53 35 101 35 105 0 10 -31 8 -48 -3 -7 -4 -19 -2 -27 4 -12
10 -15 10 -15 0 0 -6 -6 -10 -12 -7 -14 4 -57 -84 -58 -116 0 -23 -29 -91 -35
-85 -3 3 22 86 55 184 80 233 79 228 49 221 -13 -3 -49 -9 -79 -12 -30 -3 -66
-8 -80 -11 -23 -4 -24 -3 -7 10 17 13 17 15 2 24 -16 8 -16 11 -1 35 13 19 14
26 4 30 -24 9 35 24 142 37 58 7 110 16 115 20 6 5 21 10 35 13 14 2 28 5 32
6 3 0 8 -3 10 -8z m1088 -19 c25 -12 36 -25 38 -45 2 -16 8 -25 14 -21 7 5 9
-2 4 -21 -10 -40 -36 -75 -51 -69 -8 3 -16 -4 -21 -18 l-7 -23 -9 24 c-7 19
-11 21 -22 11 -12 -9 -15 -6 -18 22 -3 32 -4 33 -47 30 -52 -3 -146 -50 -146
-72 0 -10 41 -30 120 -61 143 -54 199 -83 231 -114 28 -28 31 -70 9 -102 -12
-16 -12 -22 -2 -26 6 -3 2 -6 -9 -6 -12 -1 -28 -8 -35 -17 -12 -15 -7 -15 56
-9 39 4 78 9 88 11 9 3 17 1 17 -5 0 -6 -8 -11 -17 -11 -10 0 -58 -5 -108 -10
-76 -8 -111 -18 -220 -65 -71 -31 -132 -60 -135 -64 -11 -16 -84 -43 -124 -46
-23 -1 -95 -25 -161 -53 -133 -57 -171 -62 -51 -6 43 19 76 38 73 41 -3 3 -80
-21 -172 -52 -91 -31 -169 -54 -172 -51 -6 6 58 36 77 36 5 0 38 11 72 24 107
40 206 68 217 61 6 -3 11 -2 11 3 0 6 8 8 18 5 20 -5 202 55 332 110 l85 36
-60 2 c-33 0 -71 4 -85 8 -24 7 -24 7 -5 19 47 27 -7 7 -173 -64 -202 -87
-229 -98 -220 -88 4 4 104 50 222 104 241 109 306 144 306 165 0 18 -31 34
-166 85 -134 50 -180 79 -189 119 -10 45 18 87 87 132 119 76 274 108 348 71z
m-1477 -22 c-3 -11 0 -20 6 -20 6 0 11 -6 11 -12 0 -14 -121 -364 -151 -438
-27 -66 -23 -25 6 60 28 81 30 94 15 85 -5 -3 -10 -1 -10 4 0 15 -47 14 -53
-1 -3 -10 -8 -9 -22 2 -11 9 -16 10 -11 3 4 -7 3 -13 -3 -13 -6 0 -17 -23 -26
-52 -17 -60 -19 -82 -5 -73 6 3 10 1 10 -4 0 -6 -6 -11 -14 -11 -8 0 -17 -14
-21 -30 -4 -16 -11 -30 -16 -30 -6 0 -7 9 -4 21 4 12 25 82 46 158 75 260 114
365 129 342 6 -11 15 -11 46 -1 22 7 46 16 54 21 8 4 16 8 17 8 0 1 -1 -8 -4
-19z m-2345 -153 c7 -6 12 -24 10 -41 -3 -29 -6 -31 -50 -34 -26 -2 -65 2 -87
8 -37 10 -41 14 -41 44 0 18 2 35 5 38 9 9 149 -4 163 -15z m240 -13 c19 -6
23 -12 20 -43 -3 -34 -5 -36 -43 -42 l-40 -5 30 -9 c43 -11 55 -24 55 -57 0
-38 -16 -43 -103 -32 l-72 9 -3 38 c-3 36 -3 37 32 37 45 0 46 13 4 25 -29 9
-33 15 -36 48 l-3 37 68 0 c37 0 78 -3 91 -6z m-240 -96 c7 -7 12 -28 12 -46
l0 -35 -81 6 c-44 4 -84 9 -90 12 -5 4 -9 22 -9 41 l0 34 78 0 c47 0 83 -5 90
-12z m4926 -54 c46 -7 46 -7 46 -45 l0 -39 -64 0 c-35 0 -78 3 -95 6 -27 6
-31 11 -31 39 0 17 3 35 7 38 8 9 76 9 137 1z m1 -122 c38 -7 40 -9 40 -42 0
-34 -2 -35 -40 -38 -22 -2 -64 -1 -92 3 -52 6 -53 7 -53 39 0 18 3 36 7 39 8
9 86 8 138 -1z m-5341 -121 c24 -6 128 -18 232 -26 103 -8 190 -19 193 -24 6
-8 289 -33 781 -68 135 -10 233 -19 219 -21 -14 -2 -167 6 -340 18 -375 25
-778 47 -946 53 l-123 4 -1 -41 c-1 -23 -4 -31 -6 -20 -2 12 -13 24 -24 27
-11 3 -19 14 -19 26 0 22 -33 41 -71 41 -16 0 -19 -7 -19 -45 0 -73 -18 -51
-22 26 -2 53 1 74 12 83 27 23 45 24 68 1 12 -13 42 -28 66 -34z m6596 29 c11
-21 22 -14 -265 -171 -93 -51 -220 -121 -282 -155 -62 -34 -139 -72 -172 -85
-33 -12 -58 -25 -55 -30 3 -5 -2 -9 -11 -9 -9 0 -13 -4 -10 -10 3 -5 -1 -10
-9 -10 -8 0 -20 9 -26 19 -6 12 -17 17 -29 14 -11 -3 -217 7 -458 22 -667 40
-984 62 -923 64 30 0 163 -6 295 -14 611 -38 779 -44 997 -40 l228 5 67 30
c76 35 209 115 220 133 9 14 117 79 202 121 29 15 50 23 46 17 -3 -6 -4 -11 0
-11 10 0 139 69 160 85 19 15 19 17 3 29 -22 16 -23 27 -3 20 9 -4 20 -15 25
-24z m-1459 -15 c15 -10 11 -65 -7 -72 -9 -3 -50 -2 -92 3 -70 8 -77 11 -80
32 -7 50 2 55 89 49 44 -4 84 -9 90 -12z m237 -17 c20 -20 15 -66 -9 -73 -32
-10 -157 5 -170 21 -6 8 -8 25 -5 39 6 24 9 25 89 25 51 0 88 -5 95 -12z
m-1760 -36 c18 -4 -153 -7 -380 -7 -495 0 -702 -17 -968 -81 -101 -24 -151
-43 -80 -30 271 48 940 109 954 87 3 -4 112 -7 243 -5 l238 3 -230 -14 c-296
-17 -431 -31 -584 -61 -69 -13 -127 -22 -129 -19 -14 14 184 54 388 79 19 3
-30 3 -110 0 -155 -4 -373 -28 -649 -69 -94 -15 -184 -25 -199 -23 l-27 3 32
18 c96 52 451 108 808 127 173 9 639 4 693 -8z"/>
<path d="M203 2244 c-7 -20 6 -196 15 -206 4 -4 22 -11 40 -14 32 -6 32 -6 34
37 2 55 1 82 -7 136 -5 35 -11 43 -37 52 -39 14 -37 14 -45 -5z"/>
<path d="M1625 1494 c-11 -3 -29 -7 -41 -9 -21 -5 -25 -21 -50 -184 l-6 -43
62 35 c141 79 213 168 156 190 -23 9 -100 16 -121 11z"/>
<path d="M2469 1054 c-8 -3 -27 -34 -41 -70 l-26 -66 24 6 c52 13 191 67 223
87 31 19 33 22 17 31 -20 11 -171 20 -197 12z"/>
<path d="M2435 813 c-74 -9 -72 -7 -106 -113 -18 -55 -30 -103 -27 -105 8 -9
166 44 253 85 97 45 150 86 135 105 -21 25 -160 40 -255 28z"/>
</g>
</svg>
