<?xml version="1.0" standalone="no"?>
<!DOCTYPE svg PUBLIC "-//W3C//DTD SVG 20010904//EN"
 "http://www.w3.org/TR/2001/REC-SVG-20010904/DTD/svg10.dtd">
<svg version="1.0" xmlns="http://www.w3.org/2000/svg"
 width="720.000000pt" height="544.000000pt" viewBox="0 0 720.000000 544.000000"
 preserveAspectRatio="xMidYMid meet">
<metadata>
Created by potrace 1.16, written by Peter Selinger 2001-2019
</metadata>
<g transform="translate(0.000000,544.000000) scale(0.100000,-0.100000)"
fill="#000000" stroke="none">
<path d="M3274 5314 c-94 -15 -258 -66 -324 -99 -56 -28 -186 -121 -241 -172
-103 -95 -235 -301 -223 -349 5 -20 1 -31 -18 -49 -16 -15 -29 -43 -38 -84
-11 -53 -11 -65 4 -95 29 -61 21 -107 -36 -219 -52 -100 -53 -104 -52 -187 1
-177 94 -311 257 -370 94 -34 196 -62 206 -56 5 4 31 -13 58 -36 26 -24 88
-63 137 -88 l88 -45 -41 -8 c-22 -5 -41 -13 -41 -19 0 -7 -9 -2 -21 11 -24 26
-59 41 -95 41 -13 0 -24 5 -24 10 0 6 4 10 8 10 5 0 17 7 28 15 18 14 18 14
-3 9 -12 -4 -29 -15 -39 -25 -21 -23 -55 -24 -120 -4 -27 9 -101 19 -165 22
-110 5 -117 5 -138 -16 -15 -15 -21 -17 -21 -7 0 8 -10 39 -21 70 -18 46 -46
81 -150 188 -70 73 -131 129 -135 125 -4 -4 50 -64 119 -134 70 -70 136 -145
147 -168 25 -52 26 -145 2 -199 l-18 -39 -16 26 c-25 36 -64 78 -70 72 -3 -3
-23 13 -46 35 -22 22 -50 40 -62 40 -16 0 -21 5 -18 18 4 14 -2 17 -41 16 -25
0 -71 -11 -101 -23 -91 -38 -100 -41 -100 -32 0 5 14 14 31 22 94 38 169 135
169 216 0 36 -27 160 -46 207 -10 26 -189 202 -277 272 -39 32 -95 80 -124
106 -28 26 -61 48 -73 48 -18 0 -63 21 -167 78 -30 17 -84 9 -106 -16 -59 -67
-5 -163 114 -201 42 -13 60 -57 30 -69 -42 -18 -122 -91 -143 -132 -13 -25
-29 -49 -36 -54 -41 -25 -47 -108 -12 -176 29 -57 139 -146 167 -136 37 15 86
-7 149 -66 35 -33 62 -64 59 -68 -7 -11 59 -94 173 -217 71 -77 108 -109 151
-130 31 -15 74 -43 97 -64 52 -47 102 -63 172 -56 73 8 89 25 17 19 -59 -5
-132 16 -156 44 -8 10 1 8 32 -6 47 -21 179 -29 179 -10 0 6 5 10 11 10 6 0 9
-9 6 -19 -9 -38 78 -81 203 -101 269 -42 259 -42 289 -21 22 16 38 18 88 14
34 -3 74 -1 90 4 22 8 34 7 47 -2 10 -8 35 -17 57 -20 21 -4 39 -12 39 -19 0
-30 101 -215 144 -266 l47 -55 -27 -3 c-17 -2 -33 2 -40 12 -12 17 -104 23
-104 7 0 -18 -33 -21 -56 -6 -15 10 -60 18 -119 22 l-95 6 0 39 c0 60 -13 75
-75 88 -74 15 -156 -1 -184 -37 l-20 -25 -63 25 c-152 61 -466 95 -712 77 -77
-6 -151 -13 -163 -15 -18 -4 -22 0 -25 22 -3 27 -5 28 -58 28 -44 0 -55 -3
-58 -17 -4 -22 11 -23 32 -3 8 8 27 15 43 14 25 0 26 -1 8 -9 l-20 -9 20 -1
c11 -1 0 -6 -25 -11 -25 -5 -54 -13 -65 -19 -16 -8 -121 -38 -273 -77 -18 -4
-22 -1 -22 19 0 35 -18 48 -70 48 -57 0 -70 -12 -70 -66 l0 -43 -73 1 c-92 1
-134 -18 -139 -63 -3 -33 2 -30 -412 -185 -313 -117 -316 -119 -315 -213 0
-36 4 -99 8 -140 7 -73 12 -83 59 -110 10 -6 18 -58 28 -177 7 -93 32 -390 54
-661 22 -270 40 -498 40 -506 0 -7 -18 -22 -39 -32 -22 -10 -50 -28 -62 -41
-19 -21 -21 -31 -17 -93 10 -141 -11 -136 818 -191 168 -11 368 -25 445 -30
77 -6 374 -26 660 -45 806 -55 2091 -149 2560 -187 218 -18 360 -22 873 -25
l612 -4 0 30 c0 34 -16 50 -23 24 -3 -10 -5 0 -6 22 l-1 41 -377 23 c-208 12
-551 33 -763 47 -212 13 -398 24 -415 25 -16 0 -25 3 -18 5 11 5 363 -14 983
-52 233 -14 423 -14 600 1 41 4 50 3 35 -5 -48 -24 74 4 133 31 91 41 213 119
205 132 -3 5 -1 7 5 3 5 -3 12 -3 14 2 3 7 73 49 206 123 18 11 30 14 26 8
-14 -23 118 36 171 77 19 14 19 16 3 28 -24 18 -23 29 1 17 40 -22 32 -39 -32
-75 -34 -18 -184 -101 -333 -184 -150 -82 -294 -158 -320 -168 -67 -24 -80
-40 -83 -101 l-2 -53 76 0 77 0 157 91 c433 253 492 290 501 315 6 14 10 54
10 89 0 61 -2 65 -36 93 l-36 30 16 188 c19 228 40 520 66 908 l18 289 28 22
c25 20 29 31 35 101 4 44 8 120 8 170 1 140 1 140 -348 168 -100 8 -183 10
-195 6 -20 -9 -20 -9 -1 -10 16 0 17 -2 5 -9 -8 -6 -17 -8 -21 -5 -4 2 -43 -7
-86 -20 -43 -13 -90 -27 -105 -30 -25 -6 -40 -26 -20 -26 13 0 42 -57 42 -82
-1 -22 -1 -22 -16 5 -8 15 -21 27 -30 27 -8 0 -17 6 -20 14 -4 11 -13 6 -36
-19 -67 -78 -281 -145 -553 -174 -55 -6 -119 -14 -143 -17 l-43 -5 3 -42 c3
-39 5 -42 38 -48 21 -4 -5 -7 -65 -8 -56 0 -94 3 -87 8 8 5 12 24 11 48 l-3
40 -150 7 c-167 8 -385 35 -517 64 -109 24 -265 97 -302 141 -53 64 -31 119
67 167 63 31 67 32 43 10 -37 -34 -36 -83 0 -128 23 -27 23 -30 4 -13 -37 32
-53 70 -41 100 8 20 7 26 -2 23 -19 -7 -47 -50 -52 -82 -4 -25 1 -36 32 -65
85 -81 227 -131 472 -166 193 -28 729 -22 890 10 231 46 363 104 367 163 2 28
-15 28 -64 0 -23 -13 -33 -16 -26 -7 10 13 -7 14 -141 14 l-154 0 87 22 c125
33 218 63 238 78 17 13 17 14 -2 37 l-20 23 26 -22 c26 -24 45 -31 34 -13 -3
5 0 7 9 4 8 -3 24 4 36 16 16 16 24 19 30 10 5 -9 9 -9 14 -1 4 6 11 9 16 6 4
-2 19 4 32 15 14 11 28 16 32 13 3 -3 6 17 6 46 0 50 -1 52 -37 67 -40 17
-142 20 -171 5 -12 -6 -37 -5 -77 5 -111 25 -244 45 -367 53 l-122 9 -52 54
-53 55 15 49 c12 39 14 77 9 184 -8 149 -26 203 -84 253 -43 36 -124 60 -179
54 -40 -4 -50 -1 -82 24 -41 33 -222 115 -275 125 -32 6 -35 9 -35 43 0 74
-111 203 -224 261 -60 30 -80 35 -161 38 -77 4 -100 1 -138 -16 -59 -26 -110
-65 -126 -95 -11 -21 -22 -25 -93 -31 -44 -4 -112 -18 -152 -31 -71 -24 -71
-24 -41 -2 75 55 153 127 187 172 35 47 38 48 91 50 45 1 67 9 128 46 147 88
208 177 217 315 12 196 -46 319 -201 425 -74 51 -91 78 -83 127 5 32 0 47 -24
85 -16 25 -42 53 -58 61 -16 8 -39 31 -50 50 -38 63 -184 166 -325 228 -167
72 -377 95 -573 62z m196 -255 c47 -6 104 -15 128 -21 l43 -11 -19 -21 c-30
-33 -76 -106 -70 -112 3 -3 17 14 31 38 14 24 36 53 50 66 24 23 26 23 58 6
61 -31 143 -91 185 -136 76 -80 84 -96 84 -157 0 -31 6 -82 14 -112 12 -43 13
-77 6 -150 -12 -123 0 -228 44 -404 20 -77 36 -147 36 -157 0 -26 17 -31 50
-14 28 13 29 13 21 -3 -16 -30 -105 -114 -182 -173 -186 -142 -447 -238 -644
-238 -158 0 -337 64 -436 157 -101 94 -210 291 -255 458 -29 108 -26 337 6
425 32 90 75 174 126 245 117 163 325 292 505 312 118 13 129 13 219 2z m886
-354 c18 -14 18 -14 -4 -15 -84 -1 -129 -87 -139 -260 -5 -89 -2 -117 16 -185
26 -92 66 -171 98 -192 20 -14 26 -14 46 0 15 10 29 12 38 7 8 -6 22 -4 34 4
46 29 58 24 21 -9 -22 -19 -46 -35 -53 -35 -8 0 -11 -5 -8 -10 7 -11 -35 -30
-68 -30 -14 0 -43 21 -75 53 -76 77 -111 167 -121 312 -10 133 -10 145 1 145
4 0 8 12 8 26 0 39 57 150 88 172 45 33 89 39 118 17z m138 -118 c53 -57 71
-124 71 -267 0 -114 -2 -129 -24 -167 -20 -35 -30 -43 -53 -43 l-29 0 29 28
c49 48 66 109 59 209 -7 97 -33 163 -90 225 -31 34 -31 45 -3 47 5 1 23 -14
40 -32z m-1978 -232 c-31 -47 -49 -144 -42 -222 7 -76 30 -165 50 -198 7 -11
20 -40 30 -65 19 -50 84 -129 131 -160 l30 -20 -25 0 c-45 0 -91 19 -136 55
-24 20 -44 41 -44 46 0 6 5 7 11 3 6 -4 -4 22 -24 57 -55 101 -69 156 -71 286
-1 104 1 122 22 167 24 51 74 105 80 86 2 -6 -3 -22 -12 -35z m-989 -287 c41
-55 67 -98 61 -102 -2 -1 -22 -10 -46 -21 -24 -10 -47 -26 -52 -34 -8 -14 -9
-14 -10 1 0 9 -11 40 -25 70 -27 58 -31 89 -15 119 18 32 45 22 87 -33z m-117
-30 c7 -24 18 -62 26 -86 19 -57 18 -76 -6 -97 -20 -18 -21 -18 -50 10 -49 47
-58 170 -14 202 27 20 32 16 44 -29z m565 -30 c46 -21 67 -69 66 -152 0 -40
-5 -84 -11 -97 -8 -18 -9 -2 -5 63 6 89 0 142 -16 132 -5 -3 -9 -18 -9 -33 0
-15 -8 -35 -17 -43 -22 -19 -129 -32 -138 -18 -4 6 13 10 42 11 37 1 42 3 20
8 -15 3 -47 25 -72 48 l-44 43 37 25 c41 28 103 33 147 13z m2610 -163 c76
-20 150 -63 201 -117 63 -66 84 -98 84 -127 -1 -26 -1 -26 -14 5 -8 17 -21 34
-31 38 -24 9 -59 8 -70 -3 -6 -5 -27 -14 -47 -20 -54 -18 -127 -81 -173 -150
-22 -33 -44 -61 -48 -61 -5 0 0 12 11 28 30 43 34 62 14 70 -15 6 -54 29 -147
85 -11 7 -22 15 -25 18 -8 10 -90 27 -94 20 -2 -3 2 -28 9 -56 10 -39 24 -60
62 -94 26 -25 41 -41 33 -36 -49 27 -73 52 -96 98 -36 70 -31 150 13 204 80
100 185 132 318 98z m-451 -240 c-50 -121 -10 -333 88 -457 32 -41 29 -53 -4
-15 -11 12 -17 17 -14 11 3 -6 -3 -19 -13 -28 -16 -15 -19 -15 -34 1 -8 10
-32 45 -51 77 -20 33 -36 57 -36 53 0 -14 52 -112 76 -143 22 -29 22 -32 4
-27 -11 3 -18 8 -17 12 8 23 -23 -2 -95 -77 -89 -93 -92 -96 -150 -128 -20
-12 -34 -24 -30 -28 3 -4 -27 5 -68 21 -64 23 -90 27 -180 28 -87 0 -113 -4
-152 -22 -42 -19 -48 -20 -60 -6 -11 13 -67 43 -82 43 -2 0 -6 -9 -9 -20 -8
-33 -21 -23 -51 37 -35 71 -56 179 -46 230 10 51 30 105 44 120 17 18 87 18
121 1 51 -27 131 -28 206 -3 87 29 146 71 248 174 46 48 76 73 66 58 l-19 -29
34 21 c18 11 37 18 42 15 4 -3 8 2 8 11 0 9 4 14 9 11 5 -4 11 -2 13 4 1 5 12
11 23 13 31 6 71 24 86 39 12 12 49 37 56 38 1 0 -5 -16 -13 -35z m-2488 -19
c66 -68 114 -106 114 -92 0 12 7 14 33 9 17 -3 34 -10 35 -15 2 -4 8 -6 13 -2
8 5 44 -28 73 -66 6 -9 27 -27 46 -40 45 -31 60 -46 60 -59 0 -5 14 -18 30
-28 17 -9 33 -25 36 -35 7 -24 57 -58 86 -59 34 -2 -48 -27 -91 -28 -46 -1
-153 54 -201 104 -112 116 -208 228 -204 239 2 6 -15 33 -40 58 -24 26 -37 44
-28 41 9 -4 26 -16 38 -27z m1003 -81 c140 -18 187 -31 212 -56 24 -24 25 -44
2 -34 -62 27 -95 34 -145 35 -31 0 -59 -4 -63 -9 -6 -10 85 -40 148 -49 52 -7
55 -18 7 -26 -22 -3 -40 -10 -40 -14 0 -5 20 -23 45 -42 25 -19 45 -38 45 -43
0 -4 -24 -7 -52 -6 -29 1 -62 -2 -73 -8 -32 -16 -84 -23 -124 -17 l-37 6 0 66
c0 94 -16 136 -62 157 -55 26 -66 36 -50 46 19 12 60 11 187 -6z m2317 -5 c89
-31 241 -107 248 -125 5 -13 2 -13 -26 1 -62 32 -156 -2 -213 -77 -20 -27 -40
-49 -44 -49 -4 0 -18 -22 -30 -49 l-23 -48 -102 55 c-55 30 -107 55 -113 55
-7 0 -13 6 -13 14 0 24 47 106 82 145 30 33 138 98 164 98 6 0 37 -9 70 -20z
m-1698 -67 c-22 -6 -83 -90 -92 -127 -6 -23 -4 -27 7 -23 36 14 20 -101 -17
-125 -6 -4 -11 -36 -11 -75 0 -57 6 -82 38 -153 21 -47 58 -114 82 -150 44
-66 63 -110 48 -110 -12 0 -86 114 -128 197 -64 129 -83 326 -41 428 24 57 94
145 114 144 16 -1 16 -2 0 -6z m2091 -159 c58 -17 128 -80 162 -146 22 -43 26
-167 8 -233 l-11 -40 -20 25 c-10 14 -37 49 -59 78 -42 55 -91 84 -164 98 -19
3 -35 11 -35 17 0 6 -19 8 -50 4 -66 -8 -176 -77 -183 -116 -7 -32 -33 -68
-43 -59 -10 11 33 176 62 236 18 36 42 65 77 92 81 60 157 74 256 44z m-697
-216 c34 -37 186 -117 253 -134 42 -11 40 -30 -9 -85 -25 -28 -46 -55 -46 -60
0 -16 -42 -99 -50 -99 -4 0 -5 10 -3 23 8 40 -18 60 -76 59 -65 -2 -71 -6 -71
-45 0 -55 -11 -62 -88 -59 -91 5 -137 -14 -145 -58 -5 -24 -11 -31 -23 -26 -9
3 -34 6 -56 6 -39 0 -40 1 -33 28 3 15 9 41 12 58 3 22 15 36 40 49 44 24 104
112 143 209 17 41 30 79 30 85 0 5 5 32 11 60 l10 49 32 -10 c18 -6 48 -28 69
-50z m-2195 20 c21 0 57 -7 80 -14 71 -23 185 -44 238 -44 46 -1 49 -2 31 -15
-25 -19 -70 -19 -199 0 -118 18 -200 40 -219 58 -7 8 -20 17 -28 20 -8 4 2 4
22 1 20 -3 54 -6 75 -6z m2918 -151 c40 -20 91 -57 119 -86 49 -50 58 -77 16
-48 -21 15 -54 13 -77 -6 -9 -6 -25 -4 -50 5 -44 18 -58 15 -94 -18 l-26 -24
-18 20 c-22 24 -81 27 -112 5 -19 -13 -22 -13 -27 1 -11 29 -6 105 9 134 37
71 140 78 260 17z m-3262 -210 c44 -19 47 -32 9 -51 -99 -51 -450 -51 -493 0
-18 22 0 35 78 56 90 24 347 21 406 -5z m-997 -78 c-35 -42 -33 -72 7 -102 76
-57 253 -94 498 -104 151 -6 157 -5 180 16 l23 21 -54 0 c-112 0 -38 8 125 13
155 4 162 4 85 -6 -51 -7 -73 -13 -56 -15 23 -3 26 -6 15 -14 -36 -25 331 8
461 41 68 18 198 71 211 87 6 8 16 14 22 14 17 0 -26 -41 -63 -60 -85 -43
-275 -87 -490 -115 -146 -18 -170 -27 -170 -66 0 -25 4 -28 38 -32 20 -2 1 -4
-43 -5 l-80 -2 -2 32 c-1 17 -6 35 -11 40 -5 5 -73 13 -153 19 -387 27 -599
94 -599 190 0 21 9 34 37 54 48 32 50 32 19 -6z m4180 -61 c12 -19 42 -158 35
-162 -28 -18 -101 37 -101 76 0 7 -7 23 -15 36 -23 32 -4 62 40 62 18 0 37 -5
41 -12z m-4642 -87 c-5 -5 -39 -18 -75 -29 -98 -30 -279 -119 -279 -137 0 -9
11 -20 25 -25 22 -9 519 -50 598 -50 17 0 26 -4 22 -11 -4 -6 -13 -8 -21 -5
-7 3 -16 1 -18 -3 -8 -12 64 -18 599 -51 94 -6 188 -13 210 -16 34 -4 36 -3
17 6 -24 10 -148 22 -367 36 -66 4 -111 10 -100 12 21 5 481 -22 671 -38 60
-6 144 -10 185 -11 86 0 301 -26 249 -29 -19 -1 -46 -6 -60 -10 -25 -8 -24 -8
5 -9 17 -1 129 -8 250 -16 548 -37 657 -44 765 -50 63 -3 125 -8 136 -10 12
-3 118 -9 235 -15 118 -5 250 -13 294 -16 46 -4 76 -3 72 2 -5 5 -68 14 -140
21 l-132 11 115 -4 c63 -3 210 -11 325 -19 116 -8 283 -19 372 -25 162 -10
260 -28 160 -29 -27 -1 -78 3 -115 8 -37 6 -116 12 -177 14 -73 4 -93 3 -60
-3 120 -19 851 -67 861 -57 3 3 -23 9 -58 15 -90 14 217 5 472 -13 346 -26
461 -29 550 -15 74 11 92 19 164 67 226 152 487 320 456 294 -35 -31 -35 -40
1 -21 13 7 19 7 19 0 0 -5 5 -10 12 -10 22 0 178 113 178 129 0 18 -60 30
-174 37 -118 7 -210 22 -141 23 17 0 88 -4 159 -9 129 -9 176 -24 176 -54 0
-12 -162 -130 -485 -352 -139 -95 -186 -124 -236 -143 -25 -9 -26 -13 -33
-122 -3 -61 -9 -116 -12 -120 -3 -5 -20 -9 -39 -9 -26 0 -32 4 -30 18 2 9 6
61 9 115 l5 97 -112 0 c-61 0 -209 6 -327 15 -316 21 -662 43 -945 60 -137 8
-277 17 -310 20 -33 3 -141 10 -240 15 -99 5 -277 17 -395 25 -118 8 -413 28
-655 45 -873 59 -1259 85 -1755 120 -482 34 -614 41 -875 50 -159 6 -300 12
-312 15 -22 5 -23 3 -22 -67 1 -40 4 -86 8 -103 l6 -30 90 -6 c91 -7 347 -36
375 -43 21 -6 -206 3 -380 15 -79 5 -161 14 -182 20 -58 15 -66 37 -70 177 -3
115 -2 124 17 135 30 18 469 185 474 181 3 -3 0 -8 -5 -13z m3090 -207 c24 -9
20 -27 -13 -58 -29 -28 -31 -28 -107 -20 -45 5 -79 14 -81 21 -3 7 8 24 23 38
23 22 36 25 95 25 37 0 74 -3 83 -6z m-1936 -426 c99 -49 99 -123 0 -212 -58
-53 -63 -66 -24 -66 36 0 83 -36 102 -79 30 -64 47 -55 83 44 12 33 41 104 64
158 37 88 44 98 64 94 13 -2 31 2 40 9 10 7 26 14 36 14 9 0 17 5 17 10 0 6 5
10 10 10 6 0 10 -10 10 -23 0 -13 4 -27 9 -32 4 -6 14 -50 20 -100 19 -134 28
-165 51 -165 14 0 20 -7 21 -22 0 -13 9 3 19 34 36 116 115 209 206 244 85 32
168 -11 166 -86 -1 -44 -22 -101 -34 -94 -6 4 -13 1 -17 -5 -13 -21 -40 0 -47
35 -8 45 -33 45 -79 -1 -47 -47 -76 -107 -82 -169 -4 -43 -1 -56 18 -80 19
-24 27 -28 60 -23 20 3 64 23 98 46 34 23 61 40 61 37 0 -3 -4 -16 -10 -30 -7
-20 -6 -26 4 -26 23 0 56 46 61 86 9 75 45 259 56 287 9 21 14 25 25 16 11 -9
15 -7 20 5 4 11 13 15 25 11 11 -4 19 -2 19 4 0 19 15 12 26 -14 9 -18 9 -41
-1 -92 -7 -37 -12 -69 -11 -70 1 -1 31 23 66 54 102 86 170 136 177 129 4 -3
22 8 40 26 18 17 33 27 33 22 0 -6 -13 -23 -30 -39 -34 -33 -40 -51 -11 -35
27 14 36 13 22 -4 -6 -7 -9 -20 -6 -28 5 -14 -27 -48 -120 -127 -22 -19 -57
-49 -78 -68 l-38 -34 97 -120 c53 -66 99 -118 101 -115 2 2 -1 13 -8 23 -12
20 -4 102 8 89 3 -3 12 -1 20 5 7 6 13 8 13 4 0 -4 6 -3 13 3 10 9 16 4 26
-23 8 -23 21 -37 37 -41 58 -15 149 22 149 61 0 12 -30 33 -94 66 -108 56
-124 69 -141 110 -25 59 19 125 119 178 128 68 241 43 241 -54 0 -29 -28 -90
-37 -81 -3 3 -12 -2 -19 -12 -13 -16 -13 -16 -14 0 0 11 -5 15 -15 12 -11 -5
-15 1 -15 25 0 36 -11 38 -70 15 -39 -16 -66 -46 -56 -62 3 -5 40 -26 82 -48
43 -21 97 -57 121 -80 35 -33 43 -47 43 -77 0 -41 -42 -97 -93 -124 -77 -39
-229 -82 -204 -56 7 6 -84 53 -92 47 -2 -1 19 -31 45 -65 50 -65 47 -67 -24
-12 -47 36 -75 44 -49 15 27 -29 20 -35 -14 -12 -24 18 -39 21 -77 17 -42 -5
-44 -5 -19 5 15 7 27 16 27 21 0 5 -24 32 -53 60 -29 29 -74 75 -99 104 l-45
52 -17 -75 c-9 -41 -16 -83 -16 -94 0 -10 -5 -22 -11 -26 -8 -4 -9 0 -4 15 3
11 2 21 -3 21 -10 0 -27 -37 -35 -75 -3 -13 -5 -8 -6 12 -2 50 -10 66 -28 51
-14 -11 -15 -5 -11 55 2 37 2 67 0 67 -3 0 -40 -33 -83 -74 -91 -88 -120 -98
-190 -67 -59 26 -106 79 -121 137 -9 32 -17 44 -31 44 -15 0 -17 -5 -12 -37 4
-21 11 -54 16 -73 5 -19 9 -42 9 -50 0 -13 -1 -13 -11 0 -8 11 -9 1 -6 -40 5
-53 5 -54 -8 -25 -8 17 -14 36 -15 44 0 10 -3 11 -14 2 -11 -10 -16 -6 -24 16
-8 20 -11 23 -11 9 -2 -34 -15 -6 -31 62 -17 75 -16 75 -122 51 -45 -10 -47
-12 -68 -70 -12 -32 -28 -59 -35 -59 -7 0 -19 -13 -27 -30 -17 -38 -24 -38
-32 2 -6 30 -7 31 -21 12 -19 -25 -19 -10 1 56 11 38 13 55 5 58 -6 2 -8 9 -5
15 4 7 -17 -11 -47 -40 -30 -28 -85 -72 -122 -96 -38 -25 -64 -46 -57 -49 6
-2 -18 -18 -54 -35 -36 -17 -66 -27 -66 -22 0 22 -30 6 -36 -18 -9 -44 -12
-50 -13 -25 -1 14 -6 22 -13 20 -8 -3 -15 -30 -18 -69 l-5 -64 -9 58 c-5 31
-12 57 -17 57 -5 0 -9 -7 -9 -15 0 -8 -4 -15 -10 -15 -5 0 -10 7 -10 15 0 18
3 17 -38 6 -20 -6 -32 -6 -32 0 0 5 5 9 10 9 6 0 10 5 10 10 0 6 -12 10 -27
10 l-27 0 22 16 c26 18 29 39 5 30 -24 -8 14 23 56 46 30 17 31 19 31 90 0 40
3 90 6 111 5 30 4 37 -10 37 -15 0 -21 16 -18 53 1 9 -4 17 -11 17 -6 0 2 9
20 21 25 16 34 31 42 70 6 28 11 65 11 84 l0 34 -57 -24 c-32 -13 -62 -20 -67
-17 -6 3 -5 7 2 10 20 6 14 32 -8 32 -10 0 -43 -9 -71 -20 -72 -29 -71 -19 2
15 55 27 107 65 65 49 -24 -9 -19 11 7 28 36 24 152 67 219 83 90 20 206 13
266 -17z m-1423 -213 c8 -99 22 -261 30 -360 13 -153 21 -261 48 -617 2 -27 1
-48 -3 -48 -4 0 -10 33 -14 73 -3 39 -10 115 -16 167 -22 221 -70 875 -70 948
0 68 10 -1 25 -163z m3899 123 c4 -24 14 -94 21 -156 16 -125 19 -134 43 -130
11 2 16 -3 14 -14 -6 -36 16 -16 33 30 26 68 55 111 114 165 88 82 197 117
275 87 31 -11 59 -63 51 -93 -16 -56 -28 -77 -46 -77 -11 0 -19 -5 -19 -10 0
-6 -8 -5 -20 2 -12 8 -20 24 -20 40 0 52 -68 30 -142 -48 -96 -98 -105 -244
-17 -244 44 0 129 47 129 72 0 4 -20 8 -45 8 -33 0 -45 4 -46 15 -4 67 -4 69
30 76 17 4 75 10 127 14 l94 7 0 -35 c0 -20 -4 -38 -9 -41 -9 -6 -17 -29 -67
-191 -20 -67 -29 -85 -35 -70 -6 17 -9 15 -23 -17 -9 -21 -16 -44 -16 -53 0
-8 -4 -15 -10 -15 -6 0 -7 18 -3 45 4 31 2 45 -6 45 -6 0 -11 -7 -11 -16 0 -8
-4 -13 -9 -10 -4 3 -5 25 -1 48 5 24 7 44 6 46 -2 1 -24 -9 -50 -23 -54 -29
-71 -30 -119 -10 -74 31 -127 97 -127 160 0 20 -5 25 -23 25 -23 0 -23 -2 -16
-47 4 -27 8 -61 8 -78 1 -24 -1 -27 -10 -15 -8 11 -9 0 -6 -43 6 -59 -6 -70
-18 -16 -5 20 -12 29 -20 25 -8 -3 -17 4 -21 16 -4 15 -8 17 -14 8 -4 -7 -10
-8 -13 -4 -4 7 -27 118 -27 131 0 7 -144 -9 -160 -17 -9 -5 -29 -36 -45 -69
-16 -34 -31 -57 -35 -52 -9 15 -25 0 -49 -44 -20 -37 -21 -38 -16 -10 5 32
-12 71 -22 48 -2 -7 -8 -13 -13 -13 -5 0 2 26 15 58 20 49 21 58 9 65 -12 7
-13 12 -3 23 9 11 9 14 -2 14 -10 0 -10 3 -1 12 8 8 8 15 1 24 -8 10 -4 15 18
19 15 4 31 7 35 8 7 2 128 240 124 244 -3 3 -210 -27 -213 -31 -2 -1 -19 -67
-38 -147 -59 -238 -73 -288 -75 -254 -1 29 -1 29 -16 10 -9 -11 -25 -38 -36
-60 l-19 -40 6 47 c7 51 -1 80 -16 57 -18 -30 -19 4 -4 97 9 55 22 124 30 154
7 30 16 70 19 89 l6 34 -40 -7 c-22 -3 -59 -9 -82 -13 -35 -5 -40 -4 -35 9 3
9 1 20 -5 26 -8 8 -8 15 1 26 9 11 9 15 -1 19 -10 4 -10 8 2 20 9 10 47 21 95
27 44 6 91 16 105 22 32 13 263 20 293 9 l22 -9 -25 -10 -25 -9 24 -8 25 -8
-30 -12 -29 -12 38 -4 c35 -5 39 -3 59 33 16 28 26 37 40 32 18 -5 84 13 103
28 17 15 22 8 29 -34z m1094 -67 c2 -6 19 -11 38 -11 46 0 43 -16 -3 -24 -21
-4 -47 -10 -57 -13 -19 -5 -19 -6 -2 -18 17 -13 16 -13 -1 -18 -10 -3 -49 -8
-88 -12 -175 -14 -172 -14 -178 -43 -3 -15 -9 -35 -13 -45 -6 -17 -1 -19 62
-17 38 1 83 2 99 1 28 -2 29 -2 10 -13 -19 -12 -19 -12 5 -18 25 -7 25 -7 -10
-23 -26 -11 -30 -16 -15 -17 l20 -1 -20 -9 c-11 -4 -59 -11 -107 -15 l-86 -7
-13 -47 c-7 -25 -12 -48 -11 -49 1 -2 71 -3 155 -3 86 1 159 -3 167 -9 12 -8
9 -10 -13 -10 -16 0 -26 -4 -22 -10 3 -5 36 -10 73 -11 82 -1 72 -5 -31 -14
-42 -4 -75 -11 -71 -16 3 -5 17 -9 31 -9 15 0 24 -2 22 -4 -2 -2 -76 -10 -164
-16 -88 -7 -172 -18 -187 -25 -20 -10 -28 -10 -31 -1 -3 6 -9 0 -15 -14 -8
-18 -11 -20 -11 -7 -1 12 -9 17 -30 17 -23 0 -30 6 -36 28 -16 57 -14 71 8 74
27 4 63 106 44 123 -19 16 -9 73 14 80 20 7 30 25 43 77 5 22 2 27 -16 30 -16
2 -22 10 -21 28 2 78 42 98 197 99 60 1 112 4 115 7 10 10 145 -3 149 -15z
m-2639 -566 c33 -10 69 -31 88 -50 33 -33 33 -35 19 -63 -16 -31 -65 -67 -133
-96 -42 -19 -56 -36 -30 -36 33 0 119 -33 147 -56 23 -20 30 -34 30 -62 0 -31
-8 -44 -53 -87 -60 -56 -108 -82 -241 -132 -61 -22 -78 -32 -51 -27 63 9 38
-2 -67 -30 -54 -15 -106 -29 -115 -32 -10 -2 0 4 22 15 l40 20 -35 -6 c-76
-13 -103 -28 -116 -64 l-12 -34 -3 33 -4 33 -22 -21 c-15 -14 -23 -33 -24 -58
-1 -20 -5 -50 -10 -67 -6 -20 -7 -4 -4 48 4 71 3 78 -13 75 -9 -2 -19 -14 -21
-28 l-4 -25 -7 25 c-7 26 -14 27 -75 16 -28 -5 -29 -5 -11 9 13 9 42 15 80 15
34 0 81 7 106 16 25 9 107 34 183 55 140 40 302 98 294 105 -2 2 -35 -7 -72
-21 -61 -22 -74 -23 -109 -13 -23 6 -46 15 -53 20 -6 5 -47 -1 -101 -17 -50
-14 -95 -25 -100 -25 -6 0 -1 17 9 37 10 21 19 46 18 58 0 11 -3 14 -6 8 -3
-8 -25 -13 -59 -13 -49 0 -54 -2 -54 -22 0 -13 -3 -34 -7 -47 -5 -18 -3 -22 7
-16 8 5 11 3 8 -6 -3 -8 -33 -22 -68 -31 -65 -18 -86 -28 -55 -28 14 0 15 -3
5 -15 -6 -8 -9 -18 -7 -22 3 -5 -11 -7 -31 -5 -33 4 -34 6 -14 13 24 9 30 29
10 29 -22 1 23 22 71 35 42 10 46 14 54 51 5 21 18 68 28 103 23 77 23 81 2
81 -15 0 -16 2 -3 10 13 8 12 10 -2 10 -23 0 -23 19 -1 27 15 6 14 7 -3 14
-20 7 -21 7 36 28 20 7 31 25 53 86 l27 78 -37 -7 c-53 -10 -122 -16 -100 -10
23 7 22 21 -3 29 -19 6 -18 8 8 31 l27 24 -30 -6 c-29 -6 -29 -5 -10 9 11 8
63 24 115 36 123 26 402 24 489 -4z m866 -4 c39 4 108 8 155 8 l85 -1 -50 -13
c-43 -11 -46 -13 -20 -15 26 -1 27 -3 10 -10 -29 -13 31 -12 210 1 104 8 161
8 185 1 26 -7 29 -10 13 -11 -36 -2 -27 -21 10 -22 29 -1 27 -3 -23 -19 -42
-14 -48 -19 -27 -19 15 -1 27 -5 27 -10 0 -5 -59 -14 -130 -21 l-131 -13 -19
-38 c-11 -21 -20 -41 -20 -45 0 -4 39 -4 88 -1 48 4 96 2 107 -3 19 -8 19 -9
-3 -9 -29 -1 -19 -21 11 -22 20 -1 21 -2 2 -6 -11 -3 -31 -10 -45 -16 l-25
-10 25 -7 c18 -5 2 -9 -55 -14 -144 -12 -142 -12 -165 -63 -11 -25 -18 -48
-16 -50 2 -2 70 0 150 5 81 4 166 5 189 1 38 -6 39 -7 10 -8 -35 -1 -44 -15
-17 -25 9 -3 41 -7 72 -7 53 -2 52 -2 -23 -9 -44 -4 -93 -11 -109 -15 -21 -6
-27 -5 -22 4 4 6 16 11 27 11 10 0 19 5 19 10 0 6 -12 10 -26 10 -15 0 -23 4
-19 10 5 8 -37 9 -134 4 l-140 -7 8 31 c11 36 7 42 -31 42 -17 0 -27 4 -23 10
3 6 0 10 -8 10 -15 0 -37 -48 -37 -81 0 -10 -13 -25 -31 -34 -23 -12 -28 -19
-20 -29 13 -16 4 -26 -22 -26 -17 0 -18 2 -6 16 10 13 10 17 -1 24 -10 6 -4
11 20 17 29 8 36 16 51 58 23 65 23 79 3 71 -12 -5 -15 -2 -10 10 3 8 2 24 -4
34 -8 15 -4 20 30 34 32 13 41 23 51 57 10 33 10 42 0 49 -8 4 -10 13 -7 19 4
6 2 11 -4 11 -6 0 -8 5 -4 11 4 8 -3 9 -22 6 -16 -3 -59 -9 -95 -12 l-67 -6
-62 -167 c-79 -208 -109 -281 -109 -262 0 8 7 33 15 55 28 73 53 159 49 164
-3 2 -5 -2 -5 -9 0 -9 -12 -11 -44 -8 -24 3 -48 3 -54 -1 -16 -10 -38 -62 -56
-134 -10 -37 -22 -70 -28 -73 -13 -8 -2 30 59 211 74 215 73 208 37 202 -16
-3 -49 -9 -74 -12 -25 -3 -58 -8 -75 -11 -28 -5 -29 -4 -12 10 18 14 18 15 -3
26 l-21 11 23 19 c19 17 21 21 8 29 -22 15 21 28 141 41 57 7 109 16 114 20
14 11 58 17 70 9 6 -3 42 -3 80 2z m1015 -19 c19 -9 37 -26 39 -37 2 -11 8
-23 14 -27 17 -11 -28 -99 -47 -92 -9 3 -17 -3 -21 -15 -3 -12 -11 -19 -16
-15 -5 3 -7 9 -4 14 3 5 1 11 -4 14 -5 4 -13 1 -18 -6 -5 -9 -10 -1 -13 22 -6
43 -23 47 -94 25 -66 -21 -116 -58 -100 -75 6 -6 59 -29 117 -50 134 -50 221
-93 241 -122 18 -25 21 -74 6 -83 -5 -3 -10 -15 -10 -26 0 -10 -6 -19 -12 -19
-7 0 -22 -8 -33 -16 -19 -15 -15 -15 45 -9 36 3 77 8 93 11 15 3 27 1 27 -4 0
-5 -48 -14 -107 -20 -94 -10 -124 -18 -236 -66 -70 -29 -127 -57 -125 -61 2
-4 -23 -17 -55 -30 -85 -35 -101 -39 -92 -25 11 18 -26 5 -237 -84 -69 -29
-39 -5 38 30 42 20 74 38 71 40 -2 3 -80 -20 -172 -51 -92 -31 -169 -54 -171
-52 -3 3 16 13 43 22 26 10 73 28 103 40 83 34 206 66 226 58 12 -4 15 -3 10
6 -6 8 -1 10 16 6 24 -6 238 67 348 118 l55 26 -40 0 c-22 0 -59 7 -83 15 -38
14 -46 14 -71 1 -16 -8 -62 -27 -102 -44 -98 -38 -208 -88 -239 -106 -61 -37
-143 -76 -153 -72 -13 4 154 86 412 203 212 97 271 129 271 150 0 16 -41 37
-195 95 -116 45 -165 80 -165 121 0 47 54 103 146 149 117 58 229 74 294 41z
m-1471 -14 c-1 -7 1 -21 6 -31 5 -11 -12 -70 -48 -170 -30 -83 -60 -170 -67
-192 -17 -55 -42 -118 -51 -129 -10 -12 5 47 30 118 12 33 21 62 21 66 0 4
-24 8 -54 9 -52 2 -54 1 -70 -33 -9 -19 -20 -56 -25 -83 -6 -26 -14 -59 -20
-73 -24 -62 -9 23 29 155 77 270 115 369 130 345 7 -12 15 -11 46 3 27 13 39
15 44 7 5 -8 9 -7 13 4 8 19 19 21 16 4z m-2099 -64 c6 -6 10 -24 8 -40 -4
-35 -22 -39 -115 -29 l-63 7 0 37 c0 21 2 40 4 42 9 9 156 -7 166 -17z m-248
-98 c16 -23 9 -68 -12 -73 -11 -3 -20 -9 -20 -13 0 -5 9 -12 20 -15 16 -5 20
-15 20 -47 l0 -41 -82 7 c-44 4 -85 9 -90 12 -4 3 -8 21 -8 40 0 34 0 34 45
34 57 0 58 16 3 27 -37 7 -43 12 -46 37 -6 54 0 58 85 50 43 -4 81 -12 85 -18z
m246 -18 c20 -20 15 -66 -9 -79 l-21 -11 21 -14 c25 -18 29 -72 6 -80 -8 -3
-47 -2 -87 3 l-73 8 -3 38 -3 37 43 1 43 0 -42 19 c-39 17 -43 23 -43 55 l0
35 78 0 c47 0 83 -5 90 -12z m4685 -144 c35 -6 37 -8 37 -45 l0 -39 -57 0
c-32 0 -75 3 -95 6 -35 6 -38 9 -38 39 0 17 3 35 7 38 8 9 96 9 146 1z m-2428
-213 c-8 -25 -15 -47 -15 -50 0 -3 152 -7 338 -8 185 -1 351 -5 367 -11 19 -6
-72 -7 -260 -4 -302 5 -575 -7 -795 -34 -134 -17 -355 -60 -380 -75 -10 -6 -5
-7 15 -4 310 51 795 96 900 85 28 -3 156 -5 285 -4 247 2 243 1 -70 -16 -222
-13 -384 -31 -525 -60 -95 -19 -133 -20 -84 -2 48 18 254 55 348 62 l96 7
-105 1 c-148 2 -413 -24 -690 -68 -102 -17 -203 -30 -225 -30 -38 1 -39 2 -20
16 57 43 349 97 669 123 60 5 112 13 116 18 11 13 30 88 31 124 l1 34 9 -30
c6 -21 4 -43 -6 -74z m2415 91 c43 -7 45 -8 45 -42 0 -31 -3 -35 -30 -38 -16
-2 -58 -1 -92 3 l-63 7 0 39 0 39 48 -1 c26 0 67 -4 92 -7z m-5396 -67 c-17
-43 41 -58 293 -80 95 -8 189 -18 210 -24 21 -5 72 -12 113 -16 41 -3 116 -10
165 -15 50 -5 236 -19 415 -32 179 -13 315 -24 303 -26 -13 -2 -168 6 -345 17
-532 34 -806 50 -943 53 -128 3 -130 3 -133 -19 -5 -34 -39 -30 -47 6 -3 17
-16 33 -31 40 -50 23 -64 10 -64 -57 0 -64 -18 -21 -21 49 -3 76 2 86 45 105
40 17 47 17 40 -1z m5181 -35 c22 -8 26 -15 23 -42 -3 -32 -5 -33 -53 -36 -79
-4 -129 9 -133 37 -7 44 3 51 72 51 36 0 77 -4 91 -10z m254 -24 c7 -8 11 -27
9 -43 l-3 -28 -84 2 c-96 3 -118 15 -107 57 6 25 8 26 90 26 61 0 87 -4 95
-14z"/>
<path d="M3640 4522 c-25 -10 -72 -33 -105 -49 -33 -17 -109 -56 -169 -86
-204 -104 -318 -128 -534 -114 -164 11 -175 8 -197 -65 -12 -42 -13 -63 -4
-111 10 -59 80 -233 101 -252 8 -7 9 -5 4 8 -16 43 -16 50 -1 24 9 -15 13 -31
10 -36 -3 -5 -2 -17 1 -26 4 -10 9 -12 13 -7 3 6 17 -6 30 -26 l24 -37 -28 25
c-24 22 -26 22 -17 4 12 -22 119 -119 164 -148 15 -10 52 -20 82 -23 51 -5 62
-1 158 46 121 60 171 71 327 71 229 0 384 68 446 195 36 72 45 214 21 330 -20
102 -78 218 -129 259 -48 38 -129 46 -197 18z m28 -288 c8 -57 13 -66 31 -61
10 2 25 1 32 -4 13 -8 6 -11 -18 -8 -11 1 -24 -31 -18 -42 5 -7 13 -5 25 6 10
9 34 18 52 18 30 2 33 -1 33 -25 -1 -16 3 -28 8 -28 5 0 7 -16 5 -35 -3 -24 0
-35 9 -35 7 0 13 -8 13 -19 0 -22 -50 -46 -79 -38 -13 3 -18 0 -15 -8 7 -16
-108 -59 -141 -53 -14 3 -25 2 -25 -3 0 -12 -76 -33 -95 -25 -12 4 -16 14 -13
31 3 15 0 26 -10 30 -9 3 -13 14 -10 30 3 14 0 26 -8 29 -8 3 -14 14 -14 25 0
15 11 22 47 29 26 6 51 8 55 6 4 -3 8 2 8 10 0 9 -4 16 -9 16 -5 0 -11 19 -13
43 -3 23 -8 49 -11 57 -11 26 8 41 74 60 73 21 83 21 87 -6z m-702 -181 c3
-16 17 -51 30 -80 13 -28 24 -59 24 -67 0 -19 17 -30 25 -16 3 5 1 10 -5 10
-6 0 -10 12 -8 28 3 23 7 27 37 27 30 0 34 -4 48 -43 8 -24 12 -50 9 -57 -2
-7 4 -21 15 -31 11 -10 16 -21 11 -26 -14 -14 -152 -36 -224 -37 -74 0 -78 3
-97 69 -7 25 -17 53 -23 64 -12 22 -3 32 42 44 l35 10 -44 1 -44 1 24 21 c22
19 24 19 31 2 5 -10 6 5 3 35 -3 29 -3 57 0 62 3 6 28 10 55 10 46 0 50 -2 56
-27z"/>
<path d="M3985 3800 c-10 -11 -21 -17 -26 -15 -4 3 -12 -3 -18 -12 -6 -10 -11
-14 -11 -9 0 5 -20 -10 -45 -33 -25 -23 -61 -49 -80 -58 -19 -9 -35 -20 -35
-25 0 -4 -13 -8 -29 -8 -16 0 -32 -6 -34 -12 -5 -13 -46 24 -75 68 -22 34 8
-26 36 -71 14 -22 19 -35 11 -28 -12 10 -23 8 -56 -8 -22 -11 -69 -26 -104
-33 l-64 -13 65 -5 c68 -5 93 -2 85 12 -3 5 5 6 17 2 15 -4 19 -2 13 7 -5 10
-2 11 14 6 12 -4 28 -2 36 5 8 6 20 8 26 4 9 -5 10 -2 6 10 -5 12 -3 16 5 13
20 -7 85 30 128 73 22 22 57 50 79 64 21 14 49 39 61 55 24 35 22 41 -5 11z"/>
<path d="M205 2158 c2 -60 7 -113 11 -118 5 -4 24 -11 42 -15 l32 -7 0 89 c0
116 -4 128 -50 145 l-37 15 2 -109z"/>
<path d="M1625 1494 c-11 -3 -30 -7 -42 -9 -22 -5 -24 -14 -50 -189 l-5 -38
63 35 c133 75 202 159 152 185 -23 12 -92 21 -118 16z"/>
<path d="M2469 1053 c-15 -4 -74 -133 -61 -133 4 0 41 11 82 25 93 32 185 77
184 90 -2 19 -154 32 -205 18z"/>
<path d="M2435 813 c-70 -8 -69 -7 -105 -112 -19 -55 -32 -102 -29 -105 10
-10 172 45 264 89 104 50 142 80 125 100 -21 25 -159 40 -255 28z"/>
</g>
</svg>
