<?xml version="1.0" standalone="no"?>
<!DOCTYPE svg PUBLIC "-//W3C//DTD SVG 20010904//EN"
 "http://www.w3.org/TR/2001/REC-SVG-20010904/DTD/svg10.dtd">
<svg version="1.0" xmlns="http://www.w3.org/2000/svg"
 width="720.000000pt" height="544.000000pt" viewBox="0 0 720.000000 544.000000"
 preserveAspectRatio="xMidYMid meet">
<metadata>
Created by potrace 1.16, written by Peter Selinger 2001-2019
</metadata>
<g transform="translate(0.000000,544.000000) scale(0.100000,-0.100000)"
fill="#000000" stroke="none">
<path d="M3505 5383 c-183 -21 -391 -99 -530 -198 -33 -24 -92 -76 -131 -116
-77 -80 -176 -223 -172 -248 4 -30 -12 -70 -32 -76 -30 -10 -61 -135 -39 -161
15 -18 13 -118 -3 -149 -6 -11 -25 -37 -43 -58 -100 -117 -83 -348 36 -498 33
-42 176 -119 220 -119 15 0 31 -4 34 -10 3 -5 25 -10 48 -10 37 -1 47 -6 84
-49 l43 -49 -26 -6 c-15 -4 -41 -18 -58 -31 l-31 -23 -75 24 c-80 27 -247 64
-286 64 -30 0 -48 33 -41 77 8 44 -13 119 -68 253 -70 169 -105 238 -132 255
l-24 16 20 32 c64 105 82 236 40 303 -11 19 -24 34 -27 34 -25 1 -54 42 -68
95 -9 33 -22 70 -30 83 -8 12 -28 75 -45 140 -17 64 -36 131 -43 147 -7 17
-20 62 -30 100 -9 39 -27 90 -39 115 -19 39 -27 45 -58 48 -46 4 -86 -27 -95
-74 -7 -40 9 -132 31 -177 8 -16 15 -39 15 -49 0 -17 30 -145 47 -203 5 -18 2
-17 -28 6 -48 36 -66 41 -111 28 -27 -7 -45 -20 -56 -40 -11 -19 -25 -29 -40
-29 -46 0 -101 -46 -102 -85 0 -15 -11 -25 -34 -33 -19 -7 -42 -24 -51 -39
-25 -38 -13 -88 49 -212 29 -58 69 -141 90 -183 20 -42 50 -88 67 -102 29 -25
30 -28 17 -49 -39 -59 -21 -178 57 -377 61 -156 101 -224 144 -248 27 -16 41
-32 49 -59 17 -57 65 -108 134 -142 52 -27 69 -30 109 -25 41 6 48 4 53 -14
15 -47 48 -71 150 -111 57 -22 149 -52 205 -67 87 -22 106 -24 132 -14 23 10
39 10 74 0 25 -7 70 -10 102 -8 36 3 66 0 82 -8 14 -8 38 -14 53 -14 22 0 28
-6 34 -32 19 -87 120 -270 167 -303 12 -8 34 -15 50 -15 25 0 28 -3 25 -27 -3
-27 -5 -28 -72 -31 -55 -2 -71 0 -80 14 -17 22 -89 23 -111 0 -20 -20 -34 -20
-55 -1 -11 10 -49 17 -113 22 -92 6 -97 7 -97 28 0 53 -12 84 -39 94 -94 36
-203 14 -227 -47 -1 -1 -41 11 -90 27 -49 17 -132 38 -184 47 -116 19 -457 29
-590 16 -99 -9 -121 -4 -113 26 4 16 -3 18 -49 17 -51 0 -76 -14 -63 -35 9
-14 -49 -40 -126 -56 -39 -8 -92 -23 -119 -33 -53 -20 -60 -19 -60 14 0 32
-19 45 -65 45 -54 0 -73 -16 -77 -65 l-3 -40 -80 -5 c-98 -7 -123 -19 -127
-62 -3 -27 -9 -34 -43 -47 -59 -21 -360 -135 -512 -193 -75 -29 -141 -61 -154
-74 -21 -23 -22 -27 -13 -161 l9 -138 32 -20 c21 -13 34 -30 37 -50 5 -29 107
-1288 106 -1311 0 -6 -14 -17 -31 -25 -18 -7 -45 -23 -60 -37 -24 -20 -29 -31
-29 -70 0 -95 10 -121 50 -142 53 -27 132 -38 405 -55 132 -8 301 -20 375 -25
74 -6 268 -19 430 -30 514 -34 1320 -89 1460 -100 74 -6 293 -22 485 -36 193
-13 406 -29 475 -34 69 -5 217 -16 330 -25 113 -8 324 -25 470 -37 229 -18
360 -22 956 -25 l691 -4 119 69 c459 264 527 307 540 339 22 50 18 135 -7 167
-11 14 -27 26 -35 26 -17 0 -17 6 1 217 8 93 30 399 49 678 l35 508 29 28 c27
27 30 36 36 126 13 200 12 222 -16 249 -29 30 -68 36 -331 59 -118 10 -185 12
-195 5 -14 -8 -14 -10 -2 -10 72 -6 73 -20 2 -20 -61 0 -215 -41 -227 -60 -3
-6 -2 -10 2 -10 13 0 43 -55 43 -77 0 -11 -7 -28 -15 -39 -14 -18 -14 -17 -5
10 12 34 15 30 -32 49 -34 14 -37 14 -55 -5 -47 -52 -210 -115 -368 -143 -82
-14 -322 -45 -353 -45 -9 0 -12 -13 -10 -42 3 -39 6 -44 33 -49 17 -4 -13 -7
-65 -7 -52 0 -87 2 -77 5 11 3 16 11 13 21 -3 9 -8 29 -11 43 -6 26 -6 26
-143 33 -164 8 -483 42 -531 56 -19 5 -44 7 -57 4 -15 -4 -29 1 -43 15 -11 11
-37 28 -58 36 -65 27 -132 75 -154 111 -21 34 -21 36 -4 86 9 29 31 72 48 96
31 43 31 44 12 58 -10 8 -27 14 -36 14 -21 0 -33 16 -19 25 5 3 10 1 10 -4 0
-6 14 -11 30 -11 38 0 39 17 3 23 -16 2 4 5 44 6 70 1 103 -11 63 -24 -11 -4
-18 -10 -15 -15 3 -4 -2 -7 -11 -6 -9 0 -21 -8 -28 -19 -6 -11 -21 -34 -33
-52 -30 -42 -29 -46 10 -28 l32 16 -27 -23 c-55 -47 -57 -110 -4 -155 77 -66
292 -136 498 -163 135 -18 589 -18 751 0 254 29 482 114 473 176 -3 21 -24 26
-46 10 -32 -23 -62 -37 -68 -32 -3 3 0 6 6 6 7 0 12 5 12 11 0 8 -54 10 -182
6 l-183 -4 100 24 c55 13 111 26 125 29 42 9 123 35 158 51 34 15 34 20 -2 63
-11 14 -4 9 17 -10 21 -19 36 -28 32 -20 -4 12 2 15 29 15 34 -2 53 15 41 35
-3 4 4 6 15 3 11 -3 17 -9 14 -14 -10 -17 6 -9 37 18 17 16 35 27 40 26 5 -2
9 15 9 38 0 37 -3 41 -37 55 -41 17 -143 20 -171 5 -13 -7 -44 -4 -106 10 -48
11 -153 28 -234 38 l-146 19 -48 53 c-48 54 -49 54 -41 104 4 28 7 97 5 155
-2 88 -6 113 -28 157 -47 97 -137 149 -241 140 -48 -5 -64 -3 -70 8 -10 16
-197 107 -261 126 -39 11 -43 15 -39 38 11 54 -79 176 -171 235 -57 36 -153
66 -210 66 -91 0 -189 -40 -238 -97 -19 -22 -28 -24 -121 -26 -82 -2 -105 -5
-121 -20 -12 -11 -25 -16 -31 -13 -5 4 -28 2 -50 -3 -23 -5 -41 -5 -41 -1 0 4
26 23 58 43 80 50 188 141 220 186 26 37 28 38 87 37 55 -1 68 3 151 51 131
75 199 158 223 271 22 104 9 217 -35 304 -26 52 -120 150 -166 174 -38 20 -72
87 -58 115 16 29 -29 124 -69 147 -17 9 -38 34 -47 54 -34 75 -178 188 -330
260 -160 75 -374 111 -539 91z m263 -288 l83 -28 -24 -26 c-14 -14 -33 -39
-43 -56 -11 -18 1 -9 31 23 l50 54 62 -40 c84 -55 138 -106 184 -174 36 -52
39 -62 39 -125 0 -37 5 -86 11 -108 8 -30 8 -58 -2 -115 -21 -120 -17 -268 10
-407 l25 -123 -22 -43 c-12 -24 -43 -62 -68 -83 -191 -159 -203 -169 -216
-169 -39 -3 -66 -35 -28 -35 29 0 126 57 122 72 -2 7 0 10 4 5 4 -4 18 3 31
15 13 12 23 18 23 14 0 -4 9 -2 20 4 11 6 19 18 18 27 -2 9 3 18 11 21 10 3
11 0 5 -9 -6 -12 -5 -12 10 0 9 8 15 20 12 27 -3 8 0 11 10 7 7 -3 14 -1 14 4
0 6 11 22 25 37 21 23 28 26 41 15 11 -9 21 -9 42 0 43 18 -90 -104 -167 -154
-76 -49 -205 -115 -223 -115 -17 1 -88 99 -88 122 0 10 -4 18 -10 18 -13 0 0
-32 38 -97 37 -62 39 -61 -84 -92 -270 -69 -513 -33 -681 101 -86 68 -175 215
-226 373 -71 217 -69 406 3 594 74 191 259 373 459 450 122 47 145 51 286 47
109 -3 143 -8 213 -31z m-1868 -220 c0 -8 5 -15 11 -15 13 0 35 -55 41 -106 6
-40 5 -40 -23 -36 -33 5 -89 -15 -89 -31 0 -7 -4 -7 -12 1 -7 7 -12 43 -13 90
l0 77 35 17 c43 22 50 22 50 3z m-123 -77 c6 -7 13 -43 16 -79 l6 -67 -28 -5
c-16 -3 -36 -14 -45 -23 -9 -9 -19 -14 -22 -11 -9 9 -24 79 -24 115 0 56 69
106 97 70z m2769 -103 c18 -14 17 -14 -12 -9 -24 5 -37 0 -63 -22 -45 -37 -67
-94 -80 -201 -13 -106 -7 -197 18 -285 34 -119 68 -168 114 -168 11 0 17 -5
14 -12 -2 -8 -21 -13 -46 -12 -108 2 -180 170 -181 421 0 78 4 101 25 147 14
30 25 60 25 65 0 6 18 29 40 51 34 34 46 40 83 40 24 0 52 -7 63 -15z m-2294
-36 c69 -45 89 -72 78 -110 -13 -45 -29 -61 -44 -46 -7 7 -31 28 -53 48 -38
34 -41 41 -40 88 0 28 3 51 6 51 2 0 26 -14 53 -31z m2404 -63 c11 -8 34 -43
49 -78 57 -125 41 -331 -30 -402 -18 -18 -60 -21 -70 -6 -3 5 0 7 8 4 22 -8
74 59 92 118 18 60 19 170 2 213 -25 64 -82 144 -102 145 -17 0 -17 2 -5 10
21 13 32 12 56 -4z m-1993 -157 c-26 -49 -28 -63 -30 -173 -1 -98 2 -132 19
-181 11 -33 23 -64 27 -70 4 -5 14 -30 21 -55 17 -55 58 -119 100 -154 l32
-26 -27 0 c-32 0 -105 40 -105 58 0 6 -4 12 -9 12 -26 0 -111 244 -111 320 0
36 -5 52 -17 59 -17 9 -17 11 -2 23 10 7 19 34 22 61 5 48 5 48 -16 30 -21
-18 -21 -18 -5 7 9 14 21 24 26 23 6 -1 13 13 16 32 5 22 19 45 43 64 20 17
38 29 40 27 2 -2 -9 -27 -24 -57z m-356 -211 c23 -25 95 -187 150 -338 26 -72
33 -103 28 -130 -10 -52 -52 -123 -98 -166 -23 -22 -34 -30 -25 -19 17 20 15
25 -28 110 -25 50 -50 94 -55 99 -5 6 -9 17 -9 25 0 8 -12 30 -26 49 -15 18
-26 45 -26 58 0 14 -5 21 -11 17 -6 -4 -8 0 -4 11 4 9 3 15 -2 11 -5 -3 -11
-1 -13 5 -2 6 -20 4 -46 -5 -24 -9 -77 -20 -117 -26 -74 -11 -75 -12 -69 -38
4 -14 11 -32 17 -38 5 -7 7 -13 3 -13 -3 0 16 -42 43 -93 26 -51 52 -103 56
-116 4 -13 20 -44 36 -69 16 -25 26 -49 23 -53 -3 -5 6 -9 20 -9 14 0 26 -5
26 -11 0 -21 -120 -2 -162 26 -47 31 -58 48 -109 166 -93 214 -128 373 -97
433 l15 29 6 -54 c8 -70 45 -104 131 -122 55 -11 58 -13 31 -19 -18 -4 -6 -6
31 -3 70 5 139 25 139 41 0 6 15 24 34 40 80 67 111 144 76 190 -8 10 -15 22
-15 27 0 15 27 6 47 -15z m2456 -473 c98 -47 220 -177 204 -217 -4 -8 -6 -7
-6 4 -1 9 -15 27 -32 39 -77 55 -239 -24 -326 -158 -18 -29 -36 -53 -38 -53
-6 0 6 30 28 68 19 32 19 32 -1 32 -27 0 -87 37 -127 78 -24 24 -40 32 -66 32
-19 0 -40 -5 -47 -12 -9 -9 -12 -7 -12 11 0 80 65 163 153 195 68 25 198 16
270 -19z m-2047 -135 c191 -48 185 -43 243 -174 2 -4 -15 -5 -37 -1 l-41 7 35
-39 c20 -21 40 -37 45 -35 5 1 9 -7 9 -18 0 -17 -7 -20 -53 -20 -28 0 -67 4
-85 9 -20 6 -32 6 -32 0 0 -12 -86 -12 -109 1 -10 5 -33 12 -52 15 -42 8 -42
7 -29 39 12 34 13 110 1 152 -10 36 -40 74 -58 74 -6 0 -15 5 -18 10 -11 18
61 10 181 -20z m1551 -50 c-26 -51 -31 -75 -35 -158 -4 -93 4 -148 36 -248 8
-26 7 -31 -6 -30 -9 0 -18 -9 -21 -23 -6 -21 -9 -18 -30 28 -31 65 -38 60 -11
-9 11 -29 18 -55 15 -58 -3 -3 -5 1 -5 8 0 9 -6 8 -18 -6 -10 -10 -40 -37 -67
-59 -27 -22 -68 -57 -92 -77 -24 -21 -51 -38 -59 -38 -8 0 -14 -4 -14 -10 0
-5 -9 -10 -19 -10 -11 0 -21 -5 -23 -10 -2 -7 -31 2 -69 19 -73 33 -131 49
-197 54 -24 2 -48 10 -53 18 -7 11 -9 11 -9 -3 0 -14 -9 -18 -39 -18 -21 0
-54 -7 -73 -15 -34 -14 -36 -13 -59 11 -20 22 -30 25 -66 21 -41 -4 -43 -3
-62 37 -11 22 -25 70 -31 106 -14 76 -29 120 -41 120 -14 0 -29 -46 -29 -88 0
-59 82 -270 125 -322 7 -8 17 -31 23 -50 l12 -35 -31 35 c-44 50 -107 186
-124 266 -8 38 -15 102 -15 143 0 83 32 221 59 249 9 10 13 13 9 8 -16 -20 -8
-46 13 -46 20 0 21 -4 16 -47 l-6 -48 21 48 c18 41 25 48 42 43 12 -3 32 -6
46 -6 14 0 21 -4 15 -8 -5 -4 -16 -15 -24 -25 -13 -17 -11 -17 30 -11 24 4 48
10 52 14 4 4 31 -1 60 -11 29 -10 60 -18 69 -19 12 0 16 -6 12 -17 -5 -16 -4
-16 5 -2 6 9 28 20 48 23 119 21 235 81 336 174 37 34 47 40 34 20 -10 -16
-13 -28 -8 -28 16 0 86 32 116 54 16 11 61 37 100 57 38 20 70 37 71 38 0 1
-13 -26 -29 -59z m841 -146 c101 -41 172 -81 172 -95 0 -6 -6 -6 -17 0 -10 5
-39 12 -64 16 -41 6 -49 4 -74 -19 -15 -14 -33 -26 -40 -26 -19 0 -95 -89
-112 -132 -16 -41 -15 -41 -88 -14 -49 18 -155 78 -155 88 0 5 11 30 24 56 46
90 145 160 229 161 22 1 74 -14 125 -35z m323 -164 c78 -22 170 -131 184 -218
8 -49 -1 -139 -15 -162 -9 -13 -13 -11 -29 10 -11 13 -17 29 -14 35 4 5 3 7
-2 3 -10 -9 -34 21 -35 43 0 9 -10 24 -22 35 -22 19 -22 19 -8 -1 13 -17 12
-17 -13 2 -64 49 -191 81 -254 64 -55 -15 -127 -81 -156 -143 -31 -64 -40 -50
-21 33 45 201 147 306 299 308 28 1 66 -4 86 -9z m-2974 -28 c21 3 47 9 58 13
19 8 19 8 2 -12 -17 -19 -16 -20 45 -46 54 -22 125 -46 253 -85 l30 -10 -27
-7 c-52 -14 -376 91 -425 137 -31 29 -29 42 2 22 16 -10 38 -15 62 -12z m2241
-196 c17 -9 36 -26 43 -37 12 -23 174 -105 228 -115 45 -9 48 -28 13 -69 -17
-19 -34 -50 -38 -69 -3 -20 -11 -39 -18 -44 -9 -8 -94 -32 -110 -32 -3 0 -6
15 -6 33 0 45 -15 57 -76 57 -54 0 -88 -19 -78 -43 3 -8 1 -24 -4 -37 -9 -23
-13 -24 -84 -21 -93 3 -136 -14 -145 -61 -6 -30 -6 -30 -56 -25 -27 4 -52 8
-54 11 -2 2 -1 15 2 29 5 18 24 36 60 56 38 22 67 49 101 97 48 67 123 231
124 270 0 11 3 23 6 26 7 8 51 -5 92 -26z m773 -103 c39 -20 87 -56 124 -93
60 -60 59 -70 -1 -48 -27 9 -37 9 -57 -5 -22 -14 -27 -14 -37 -2 -20 24 -73
18 -99 -9 l-23 -24 -35 20 c-30 18 -39 19 -74 9 -21 -7 -39 -17 -39 -23 0 -9
-3 -9 -11 -1 -6 6 -11 37 -12 70 -2 49 2 66 23 96 30 44 37 46 116 43 45 -1
78 -10 125 -33z m-3348 -216 c20 -9 37 -21 37 -27 0 -6 -21 -21 -47 -32 -90
-41 -437 -36 -472 5 -18 22 5 40 76 59 90 24 347 21 406 -5z m-1001 -83 c-46
-32 -22 -86 51 -119 118 -52 315 -85 508 -85 157 0 236 38 85 42 -39 0 10 5
109 9 99 4 181 6 183 4 2 -2 -31 -6 -72 -10 -83 -8 -97 -19 -38 -29 59 -9 138
-7 272 9 153 18 257 44 353 90 l72 34 -32 -29 c-30 -27 -113 -57 -258 -94 -33
-8 -139 -25 -235 -37 -123 -16 -179 -27 -188 -38 -16 -19 -16 -58 1 -64 6 -3
-7 -6 -30 -6 -23 -1 -48 -4 -57 -7 -13 -5 -16 1 -16 34 l0 39 -47 6 c-27 3
-59 8 -73 11 -14 2 -83 10 -155 16 -193 18 -319 44 -401 85 -101 49 -120 103
-51 145 36 22 52 17 19 -6z m4300 -124 c23 -91 23 -110 -3 -110 -26 0 -77 53
-85 89 -3 14 -9 36 -14 47 -12 30 7 46 50 42 34 -3 35 -5 52 -68z m-4752 -14
c-8 -8 -44 -23 -80 -34 -36 -11 -113 -43 -172 -71 -162 -75 -149 -95 73 -111
79 -5 219 -15 311 -22 92 -7 165 -16 162 -20 -3 -4 -26 -9 -52 -9 l-47 -1 60
-9 c50 -7 686 -49 748 -49 10 0 15 5 12 10 -3 6 -34 10 -68 11 -34 0 -80 4
-102 9 -32 7 -26 8 30 4 39 -2 151 -9 250 -14 261 -14 480 -29 560 -39 67 -8
68 -8 20 -10 -57 -2 -101 -20 -50 -21 17 0 122 -7 235 -15 463 -34 799 -56
1035 -70 138 -8 296 -18 353 -21 74 -5 102 -4 102 4 0 16 115 15 325 -3 94 -8
211 -15 260 -15 50 -1 108 -5 130 -9 39 -8 39 -8 12 -16 -15 -4 -62 -2 -105 3
-42 6 -142 13 -222 16 -166 5 -113 -5 115 -23 133 -11 653 -41 704 -41 41 0
17 10 -45 19 -76 11 231 4 401 -9 437 -35 652 -32 729 7 57 29 158 108 143
111 -13 3 -13 8 4 37 20 33 46 51 58 40 3 -4 -2 -19 -11 -35 l-16 -28 49 29
c28 16 82 51 122 78 114 76 163 106 150 89 -16 -19 -6 -30 17 -18 10 5 20 7
23 4 8 -9 105 48 152 89 l39 34 -26 17 c-20 13 -57 19 -148 23 -66 3 -133 9
-148 14 -27 9 106 5 237 -8 62 -5 107 -30 99 -53 -8 -25 -612 -439 -695 -477
l-51 -24 -6 -82 c-3 -45 -7 -98 -9 -117 -2 -32 -5 -35 -37 -38 l-35 -3 6 88
c4 48 4 100 2 114 l-5 26 -176 6 c-170 5 -517 26 -802 47 -74 5 -250 17 -390
25 -625 38 -752 46 -1030 65 -162 11 -461 32 -665 45 -656 43 -1398 94 -1455
100 -165 16 -834 57 -1080 66 -157 5 -296 11 -310 12 -24 2 -25 -1 -28 -60 -3
-66 13 -147 28 -138 8 5 46 1 253 -26 45 -6 111 -14 147 -19 50 -6 36 -7 -60
-4 -202 8 -412 24 -452 35 -57 15 -66 37 -70 171 -4 138 -3 139 107 181 208
81 381 145 390 146 5 1 3 -5 -5 -13z m3084 -212 c24 -9 20 -27 -13 -58 -29
-28 -31 -28 -107 -20 -43 5 -79 14 -81 21 -2 6 9 23 24 37 24 23 37 26 95 26
36 0 73 -3 82 -6z m-1946 -419 c109 -44 108 -139 -2 -230 -47 -40 -50 -55 -14
-55 34 0 87 -42 105 -82 20 -45 49 -51 59 -12 4 15 21 61 39 103 91 219 87
211 121 211 13 0 39 9 59 20 33 19 36 19 41 3 3 -10 9 -27 14 -38 4 -11 17
-76 27 -145 18 -120 20 -125 42 -122 17 1 22 -2 18 -13 -4 -8 -2 -17 2 -20 5
-2 14 16 20 41 38 151 176 276 286 259 45 -6 67 -24 84 -66 12 -34 -5 -108
-28 -117 -9 -3 -20 -12 -24 -19 -12 -19 -32 4 -42 45 -9 43 -35 42 -80 -3 -47
-47 -76 -107 -82 -169 -4 -42 -1 -56 17 -78 30 -39 63 -36 143 12 36 22 68 40
71 40 2 0 1 -13 -4 -30 -10 -36 -4 -37 32 -5 23 19 30 37 39 97 14 99 48 268
55 279 3 5 10 7 15 3 5 -3 16 0 24 6 8 6 19 9 24 6 5 -4 12 -2 16 4 25 41 44
-31 28 -109 -7 -35 -11 -66 -9 -68 2 -2 32 21 67 53 91 81 167 137 177 130 5
-3 20 6 32 19 13 14 28 25 34 25 5 0 -4 -15 -22 -33 -36 -37 -41 -53 -13 -37
28 14 33 13 23 -7 -5 -10 -7 -23 -5 -30 2 -6 -37 -47 -88 -90 -51 -43 -105
-90 -121 -105 l-30 -28 53 -67 c86 -109 142 -174 146 -169 3 2 -1 14 -7 26
-13 24 -5 94 10 85 5 -3 11 -1 15 4 3 6 12 8 20 4 9 -3 15 1 16 8 0 8 7 -3 15
-23 21 -49 58 -62 118 -42 49 17 81 46 73 67 -3 8 -36 29 -74 48 -107 53 -141
76 -159 111 -33 64 15 136 129 195 40 21 67 27 115 27 58 1 66 -2 88 -27 13
-16 24 -41 24 -57 0 -32 -32 -94 -43 -84 -4 4 -9 0 -13 -9 -5 -13 -8 -13 -25
4 -10 10 -19 28 -19 39 0 26 -22 26 -76 0 -77 -38 -70 -57 45 -113 89 -44 151
-106 151 -151 0 -64 -79 -129 -202 -167 -71 -21 -92 -24 -83 -9 3 6 -1 10 -10
10 -9 0 -33 9 -55 20 -22 11 -42 20 -45 20 -3 0 18 -30 47 -67 46 -58 49 -64
23 -48 -17 10 -42 30 -57 44 -32 28 -50 21 -23 -9 24 -26 11 -26 -27 1 -23 17
-39 20 -71 16 -35 -4 -38 -3 -19 6 12 5 22 14 22 18 0 5 -24 32 -53 61 -29 29
-73 76 -98 105 l-46 51 -11 -46 c-7 -26 -15 -66 -18 -90 -4 -23 -11 -45 -17
-49 -6 -4 -8 0 -4 10 3 10 3 17 -2 17 -10 0 -29 -38 -34 -70 -3 -20 -5 -18 -6
8 -1 32 -31 80 -31 51 0 -9 -3 -10 -11 -2 -7 7 -7 27 -1 62 5 28 6 53 2 56 -3
2 -31 -21 -61 -51 -57 -58 -126 -104 -155 -104 -31 0 -102 40 -133 75 -26 31
-51 88 -51 122 0 6 -9 9 -20 6 -11 -3 -20 -8 -20 -12 0 -10 20 -122 26 -146 4
-17 3 -18 -6 -5 -9 12 -10 3 -7 -40 l4 -55 -19 45 c-13 31 -22 40 -27 31 -6
-9 -10 -6 -15 13 -3 14 -11 26 -17 26 -6 0 -7 -4 -4 -10 3 -5 2 -10 -3 -10 -6
0 -13 17 -16 38 -13 73 -27 103 -44 98 -10 -3 -42 -10 -73 -16 l-57 -11 -22
-59 c-12 -33 -26 -57 -31 -54 -5 3 -16 -11 -26 -30 -21 -44 -29 -45 -37 -4 -6
30 -7 31 -21 12 -18 -24 -18 -11 0 50 8 27 15 53 15 58 0 20 -39 5 -71 -28
-18 -20 -67 -57 -106 -83 -40 -27 -69 -51 -66 -55 4 -4 0 -4 -10 0 -10 4 -19
0 -23 -9 -7 -19 -62 -42 -91 -39 -17 3 -24 -4 -32 -30 -5 -18 -10 -25 -10 -15
-1 10 -7 17 -13 15 -8 -3 -15 -31 -18 -74 -4 -44 -8 -63 -13 -53 -5 10 -8 23
-6 30 1 8 1 32 0 53 -1 40 -14 41 -24 1 -5 -19 -5 -19 -12 3 -7 20 -12 22 -44
16 -33 -6 -34 -5 -17 8 21 17 7 34 -19 24 -23 -8 -18 8 7 23 22 14 22 14 3 21
-17 6 -14 10 23 29 24 12 45 27 47 34 2 7 6 58 8 115 4 86 3 102 -10 102 -9 0
-13 6 -9 15 3 8 2 15 -2 15 -4 0 -7 12 -7 28 1 18 9 30 24 37 25 11 28 22 39
118 9 74 8 75 -60 41 -15 -8 -37 -14 -49 -14 -18 0 -19 2 -9 15 19 23 -12 30
-62 12 -81 -28 -83 -28 -10 7 39 19 72 39 72 45 0 6 -7 8 -15 5 -8 -4 -15 -2
-15 3 0 23 171 96 263 113 71 12 183 5 235 -15z m-1413 -215 c9 -91 20 -219
25 -285 5 -66 16 -203 24 -305 20 -247 28 -442 16 -376 -10 53 -20 163 -51
546 -35 434 -46 627 -34 595 2 -5 11 -84 20 -175z m3899 113 c4 -27 13 -97 21
-156 16 -122 18 -127 46 -127 10 0 18 -3 17 -7 -2 -5 2 -9 7 -9 6 -1 15 15 21
35 35 119 182 246 298 258 67 7 111 -9 131 -48 20 -38 7 -100 -24 -116 -13 -6
-27 -17 -31 -24 -12 -18 -40 13 -40 45 0 73 -143 -17 -200 -126 -25 -47 -27
-124 -3 -150 32 -35 125 -11 172 46 12 14 9 16 -38 16 -34 0 -51 4 -52 13 0 6
-2 24 -3 40 -2 32 3 34 115 47 134 16 139 15 135 -18 -2 -15 -17 -66 -33 -113
-16 -46 -36 -110 -43 -141 -10 -46 -16 -56 -26 -47 -10 8 -15 8 -18 -2 -3 -8
-10 -32 -17 -54 l-13 -40 -6 42 c-6 40 -20 71 -20 45 0 -7 -4 -12 -9 -12 -4 0
-5 18 -1 40 4 22 5 41 3 44 -2 2 -24 -7 -49 -20 -55 -30 -77 -30 -133 -1 -58
30 -100 82 -109 137 -8 45 -18 56 -40 42 -9 -6 -10 -21 -2 -62 5 -29 10 -64
10 -79 0 -21 -2 -23 -11 -11 -8 11 -9 -1 -5 -45 5 -57 4 -59 -9 -30 -8 17 -14
36 -15 43 0 8 -6 12 -12 9 -7 -2 -18 5 -25 17 -7 12 -12 15 -13 9 0 -7 -4 -13
-9 -13 -5 0 -12 24 -16 53 -10 83 -13 87 -50 87 -19 0 -57 -5 -86 -11 -50 -11
-52 -12 -81 -76 -17 -36 -34 -60 -37 -54 -10 15 -26 1 -49 -44 -20 -37 -21
-38 -16 -10 2 17 0 37 -6 45 -9 13 -11 13 -20 0 -18 -28 -11 11 10 59 24 52
25 61 4 61 -13 0 -14 3 -5 14 9 11 9 15 -1 20 -11 5 -11 7 0 12 10 4 10 9 2
19 -9 11 -4 16 27 25 39 11 41 13 151 244 4 8 -20 6 -150 -16 -54 -9 -68 -15
-72 -32 -3 -12 -20 -77 -36 -146 -50 -203 -63 -251 -70 -255 -4 -2 -5 8 -2 23
l5 27 -25 -26 c-13 -14 -30 -41 -36 -60 l-12 -34 4 44 c5 51 -2 80 -15 60 -4
-8 -10 -11 -13 -9 -6 7 20 179 44 286 10 49 17 90 15 92 -2 2 -33 -1 -68 -7
-79 -14 -108 -14 -88 -2 9 6 10 14 5 22 -13 22 -13 67 1 79 7 6 53 16 102 24
49 7 96 17 104 21 16 10 218 16 268 8 32 -5 33 -7 16 -19 -10 -8 -13 -14 -7
-14 7 0 12 -4 12 -10 0 -5 -6 -10 -14 -10 -8 0 -18 -4 -21 -10 -4 -6 9 -10 32
-10 32 1 41 6 58 33 17 27 26 31 52 29 17 -2 34 1 38 7 3 6 17 11 31 11 13 0
24 5 24 10 0 6 4 10 9 10 4 0 11 -21 15 -47z m1066 -58 c14 -8 42 -14 63 -15
20 0 37 -4 37 -9 0 -10 -34 -21 -67 -21 -13 0 -23 -4 -23 -10 0 -5 -8 -10 -17
-11 -11 0 -13 -3 -5 -6 29 -11 7 -21 -60 -27 -186 -16 -186 -16 -191 -39 -3
-12 -9 -32 -12 -44 -7 -23 -6 -23 91 -23 80 -1 95 -3 79 -12 -19 -12 -19 -12
5 -19 25 -6 25 -7 -8 -19 -21 -8 -30 -15 -22 -20 18 -11 -9 -18 -104 -26 l-86
-7 -13 -46 -13 -46 155 -3 c86 -1 160 -7 165 -12 7 -7 0 -10 -19 -11 -57 -1 5
-17 75 -20 l65 -2 -90 -9 c-90 -9 -141 -28 -75 -28 76 0 15 -10 -130 -20 -85
-7 -167 -18 -182 -25 -20 -10 -28 -10 -32 -1 -2 6 -8 1 -11 -11 -8 -26 -25
-31 -25 -8 0 10 -10 15 -32 15 -25 0 -29 3 -20 12 9 9 9 15 0 25 -21 26 -19
61 4 65 27 4 65 107 45 123 -17 14 -9 62 12 77 21 15 36 42 45 81 5 23 3 27
-15 27 -16 0 -20 5 -16 20 3 11 1 23 -4 26 -5 3 -2 12 6 20 8 9 13 20 10 25
-14 22 66 37 196 38 73 1 135 3 137 6 10 10 58 4 82 -10z m-4335 -543 c38 -7
40 -9 40 -42 0 -42 -14 -46 -113 -35 -68 7 -79 17 -68 60 6 22 11 25 54 24 26
0 65 -3 87 -7z m1664 -13 c78 -14 131 -38 160 -75 19 -24 19 -28 6 -54 -18
-35 -52 -60 -130 -96 -44 -20 -55 -28 -40 -31 128 -26 185 -64 185 -121 0 -31
-8 -44 -53 -87 -58 -54 -128 -92 -252 -137 -68 -24 -68 -31 0 -11 11 3 17 2
13 -1 -6 -7 -201 -66 -216 -66 -4 0 0 5 8 11 11 7 4 8 -25 3 -67 -11 -84 -21
-94 -56 -9 -32 -9 -32 -10 -5 -1 27 -14 36 -26 17 -4 -6 -9 -8 -13 -6 -4 2 -8
-17 -10 -43 -2 -26 -7 -61 -12 -77 -8 -22 -9 -9 -5 49 4 70 3 78 -12 75 -9 -2
-20 -14 -24 -28 l-6 -25 -7 27 c-5 15 -13 25 -19 23 -37 -11 -77 -13 -77 -5 0
6 9 10 20 10 11 0 20 5 20 11 0 5 5 7 11 3 11 -6 71 -7 99 -1 22 5 153 46 237
73 39 13 80 24 90 24 23 0 49 17 40 26 -3 4 -14 1 -22 -6 -14 -11 -17 -10 -22
8 -3 15 -13 22 -29 22 -13 0 -24 4 -24 9 0 4 -39 -2 -87 -15 -93 -25 -115 -29
-98 -16 10 6 35 77 35 98 0 4 -5 3 -12 -4 -15 -15 -54 -16 -63 -2 -3 6 -12 10
-20 10 -18 0 -38 -92 -22 -102 18 -11 -1 -24 -65 -42 -32 -9 -65 -19 -75 -23
-14 -4 -15 -3 -7 6 6 7 33 18 60 25 43 11 50 16 57 47 5 19 17 67 28 107 l20
74 -23 19 c-19 17 -20 22 -8 30 12 7 12 11 2 17 -9 6 -1 13 25 24 35 13 40 21
66 93 l27 78 -37 -7 c-103 -17 -119 -18 -98 -5 19 12 18 13 -10 25 -17 7 -24
13 -17 14 7 0 23 9 34 20 l22 20 -34 -6 -35 -5 30 15 c91 47 388 71 544 45z
m936 -19 c44 5 114 9 155 9 l75 -1 -50 -13 c-42 -11 -45 -13 -20 -14 l30 -2
-30 -14 c-30 -15 -30 -15 20 -10 219 20 383 27 401 17 17 -10 17 -11 2 -12
-30 0 -20 -20 10 -21 20 0 14 -5 -28 -19 -53 -17 -54 -18 -20 -19 69 -3 5 -20
-116 -32 -65 -6 -122 -14 -126 -18 -4 -3 -14 -24 -23 -45 l-17 -39 79 6 c43 3
92 3 108 -1 30 -6 30 -6 5 -12 l-25 -7 25 -11 c22 -9 22 -11 5 -12 -11 0 -27
-5 -35 -10 -13 -9 -13 -11 0 -20 12 -8 10 -10 -9 -10 -65 0 -201 -24 -201 -34
0 -7 -9 -29 -20 -50 l-19 -39 82 7 c101 8 307 9 315 2 3 -4 -9 -6 -26 -6 -17
0 -34 -4 -37 -10 -4 -6 20 -10 66 -10 90 0 82 -12 -14 -22 -40 -4 -84 -10 -99
-14 -18 -4 -28 -2 -28 5 0 6 9 11 19 11 11 0 23 5 26 10 4 6 -6 10 -24 10 -16
0 -31 5 -33 11 -2 7 -39 8 -121 2 -65 -5 -122 -6 -128 -3 -6 4 -3 23 6 50 8
24 13 45 10 48 -3 3 -5 0 -5 -7 0 -9 -9 -12 -25 -9 -14 3 -25 1 -25 -3 0 -5
-5 -9 -11 -9 -5 0 -7 5 -4 10 3 6 0 10 -7 10 -12 0 -48 -72 -48 -97 0 -6 -11
-14 -25 -17 -21 -5 -24 -11 -19 -31 4 -18 2 -25 -8 -25 -8 0 -13 10 -12 27 0
19 8 29 25 35 18 6 29 21 39 56 18 56 18 68 4 65 -6 -1 -11 13 -11 32 0 29 6
37 33 50 18 8 36 27 42 43 5 15 13 35 17 45 5 13 2 17 -13 17 -15 0 -19 5 -15
19 3 14 17 20 53 25 48 6 126 33 118 41 -2 2 -22 -2 -43 -10 -22 -7 -101 -21
-175 -30 -74 -10 -135 -18 -136 -19 -1 0 -27 -68 -59 -151 -98 -253 -114 -291
-114 -274 -1 10 15 58 34 108 39 101 41 113 20 105 -9 -4 -15 0 -15 7 -1 9 -4
8 -11 -4 -7 -13 -14 -15 -23 -8 -6 5 -21 9 -31 7 -15 -2 -28 -26 -55 -104 -19
-55 -38 -104 -42 -107 -10 -11 15 76 67 225 64 184 64 184 34 177 -13 -3 -49
-9 -79 -12 -30 -3 -66 -8 -80 -11 -23 -4 -24 -3 -7 10 18 14 18 15 0 24 -17
10 -17 11 2 32 16 18 17 23 5 30 -22 14 19 25 140 40 58 7 110 16 115 20 15
12 58 17 70 9 6 -4 46 -3 90 1z m1005 -19 c28 -15 35 -24 33 -46 -2 -21 2 -25
14 -21 12 5 14 1 9 -20 -10 -37 -36 -75 -48 -68 -5 3 -16 -2 -23 -12 -13 -18
-14 -18 -15 -1 0 20 -15 23 -27 5 -5 -9 -10 -1 -13 22 -5 35 -6 35 -50 32 -50
-3 -145 -50 -145 -71 0 -10 50 -35 140 -70 210 -84 243 -109 230 -177 -3 -19
-5 -37 -5 -40 1 -4 -14 -16 -32 -27 -44 -27 -23 -33 64 -17 61 11 90 9 77 -4
-2 -3 -52 -9 -110 -14 -70 -7 -119 -17 -145 -30 -22 -11 -79 -36 -128 -56 -50
-20 -92 -39 -95 -44 -10 -14 -89 -44 -99 -38 -11 7 -82 -17 -202 -69 -47 -20
-91 -39 -97 -42 -7 -3 -13 -2 -13 1 0 4 34 23 76 42 42 19 74 37 72 39 -2 2
-78 -20 -168 -50 -154 -51 -214 -65 -158 -37 46 23 367 122 381 117 15 -6 278
82 359 121 46 21 49 25 23 23 -66 -4 -114 2 -129 16 -13 14 -19 13 -58 -4
-102 -47 -260 -112 -264 -108 -2 2 79 41 181 87 215 97 285 135 285 155 0 18
-31 34 -166 85 -177 66 -211 100 -180 175 29 70 224 163 341 165 31 0 64 -7
85 -19z m-1466 -43 c11 -7 7 -20 -99 -323 -16 -44 -36 -100 -44 -125 -26 -74
-23 -21 3 60 13 41 21 81 19 88 -6 14 -63 17 -63 2 0 -5 -11 -10 -25 -10 -26
0 -26 0 -65 -152 -7 -27 -16 -48 -21 -48 -4 0 -2 21 6 48 7 26 23 83 35 127
34 123 80 265 102 314 15 34 22 41 28 30 8 -12 14 -11 39 4 21 12 32 14 37 6
4 -8 10 -6 18 7 10 18 10 18 14 -1 3 -11 9 -23 16 -27z m-2116 -144 c19 -6 23
-12 20 -43 -3 -33 -6 -36 -38 -41 -37 -5 -33 -13 13 -24 23 -5 27 -11 27 -42
0 -44 -13 -49 -103 -38 l-72 9 -3 38 c-3 36 -3 37 32 37 45 0 47 17 4 28 -29
7 -33 13 -36 45 l-3 37 68 0 c37 0 78 -3 91 -6z m4686 -150 c46 -7 46 -7 46
-45 l0 -39 -57 0 c-32 0 -75 3 -95 6 -35 6 -38 9 -38 39 0 17 3 35 7 38 8 9
76 9 137 1z m279 -14 c37 0 37 0 37 -40 l0 -40 -79 0 c-101 0 -111 4 -111 44
0 44 7 49 65 42 28 -3 67 -6 88 -6z m-240 -119 c5 -5 7 -21 5 -37 -3 -26 -7
-29 -43 -32 -22 -2 -64 -1 -92 3 -52 6 -53 7 -53 39 0 18 3 36 8 40 9 10 164
-2 175 -13z m-5449 -80 c30 -26 97 -40 254 -52 204 -15 243 -20 237 -29 -3 -4
41 -11 98 -15 56 -3 138 -10 182 -15 44 -5 202 -17 350 -27 149 -10 256 -19
238 -21 -17 -2 -143 4 -280 13 -363 23 -731 43 -870 48 l-123 4 -1 -41 c-1
-23 -4 -31 -6 -20 -2 12 -13 24 -24 27 -11 3 -19 14 -19 26 0 21 -10 28 -67
45 -22 7 -23 5 -23 -49 0 -35 -4 -54 -10 -50 -14 9 -13 148 2 163 17 17 39 15
62 -7z m5437 -31 c12 -7 19 -21 19 -39 0 -36 -26 -44 -113 -35 -72 7 -92 21
-83 58 6 25 9 26 82 26 41 0 84 -5 95 -10z m-1749 -38 c15 -4 -149 -7 -365 -7
-459 0 -728 -20 -932 -68 -11 -3 -53 -13 -93 -22 -81 -19 -94 -31 -16 -16 27
6 74 12 104 16 115 11 317 36 375 45 111 18 438 35 442 23 3 -8 78 -10 246 -8
l242 4 -230 -14 c-325 -19 -584 -49 -700 -82 -13 -3 -17 -2 -10 5 12 12 172
48 280 63 44 6 82 13 85 16 8 9 -220 -6 -365 -23 -71 -8 -224 -28 -338 -45
-115 -17 -220 -29 -235 -27 l-27 3 32 18 c97 52 440 106 813 127 171 9 649 4
692 -8z m1033 -297 c132 -8 317 -20 410 -27 94 -6 314 -11 490 -11 278 0 325
3 359 17 21 10 41 15 43 12 3 -3 -7 -10 -23 -16 -97 -36 -114 -43 -114 -50 0
-16 -45 -19 -53 -4 -6 11 -17 13 -37 9 -15 -3 -256 8 -536 25 -685 42 -900 57
-834 59 30 0 163 -6 295 -14z"/>
<path d="M3662 4549 l-2 -56 -67 -30 c-180 -80 -371 -121 -507 -108 -66 6 -79
10 -86 28 -6 14 -9 16 -9 7 -1 -13 -15 -16 -77 -15 -72 0 -78 -2 -97 -27 -44
-58 -38 -186 14 -336 39 -110 77 -178 141 -247 40 -44 61 -58 106 -71 71 -21
143 -13 231 25 107 47 139 52 324 50 183 -1 234 6 323 47 102 48 155 124 175
254 24 156 -17 355 -93 451 -24 30 -82 59 -118 59 -39 0 -129 -26 -202 -58
l-47 -21 -4 52 -3 52 -2 -56z m168 -283 c0 -17 -8 -28 -27 -35 l-28 -11 28 5
c28 6 33 0 51 -59 5 -13 10 -15 19 -8 6 6 29 13 50 17 35 7 37 6 37 -18 0 -27
-15 -36 -68 -41 -15 -2 -25 -7 -22 -12 3 -5 10 -7 15 -5 28 10 80 19 87 15 20
-12 6 -45 -24 -59 l-33 -14 38 6 c36 5 38 4 35 -17 -2 -15 -15 -26 -43 -36
-22 -7 -41 -14 -42 -14 -2 0 -3 8 -4 18 0 14 -2 13 -9 -4 -6 -16 -26 -26 -80
-39 -39 -10 -74 -15 -77 -12 -3 4 -15 0 -27 -8 -11 -8 -35 -15 -53 -15 -27 0
-33 4 -33 20 0 12 10 24 23 30 21 8 21 9 -6 9 -50 2 -45 54 6 64 12 2 6 4 -13
3 -29 -1 -36 3 -38 21 -3 18 4 23 51 33 l54 13 -10 34 c-8 26 -8 36 2 42 10 6
9 10 -3 14 -9 4 -16 18 -16 31 0 22 7 28 48 40 26 8 62 15 80 15 27 1 32 -2
32 -23z m-707 -132 c4 -21 0 -28 -17 -32 -20 -6 -20 -6 4 -12 18 -4 26 -14 30
-35 5 -29 8 -30 58 -30 28 1 52 -2 52 -6 0 -4 3 -14 6 -23 4 -10 1 -16 -9 -16
-9 0 -19 -5 -23 -12 -4 -6 -3 -8 4 -5 17 11 42 -3 42 -24 0 -10 -8 -23 -17
-28 -15 -9 -14 -10 10 -11 20 0 27 -5 27 -20 0 -15 -7 -20 -27 -21 -16 0 -37
-2 -48 -3 -111 -15 -135 -17 -135 -10 0 5 -19 9 -42 9 -36 0 -43 3 -43 20 0
11 -5 25 -11 30 -6 6 -14 18 -17 28 -5 14 0 17 36 19 l42 1 -45 6 c-37 5 -46
10 -48 29 -3 20 1 22 37 22 l40 0 -14 27 c-10 18 -11 31 -4 39 6 8 6 13 0 16
-5 1 -13 15 -16 30 -7 29 -13 27 101 36 16 2 23 -5 27 -24z"/>
<path d="M206 2238 c-3 -13 -3 -63 1 -111 6 -82 8 -89 30 -98 13 -5 30 -9 37
-9 19 0 26 91 14 162 -9 51 -13 58 -40 67 -17 6 -32 11 -33 11 -2 0 -5 -10 -9
-22z"/>
<path d="M1602 1490 c-18 -4 -35 -10 -37 -12 -5 -4 -35 -184 -35 -206 0 -17
106 42 167 93 85 71 90 106 18 124 -49 12 -65 12 -113 1z"/>
<path d="M2470 1051 c-14 -3 -26 -15 -28 -26 -2 -11 -12 -39 -22 -62 -11 -24
-16 -43 -12 -43 4 0 41 11 82 25 93 32 185 77 184 90 -2 20 -144 31 -204 16z"/>
<path d="M2415 811 l-50 -6 -37 -108 -37 -107 27 6 c116 27 322 115 356 153
29 32 14 48 -57 60 -66 11 -117 12 -202 2z"/>
</g>
</svg>
