<?xml version="1.0" standalone="no"?>
<!DOCTYPE svg PUBLIC "-//W3C//DTD SVG 20010904//EN"
 "http://www.w3.org/TR/2001/REC-SVG-20010904/DTD/svg10.dtd">
<svg version="1.0" xmlns="http://www.w3.org/2000/svg"
 width="720.000000pt" height="544.000000pt" viewBox="0 0 720.000000 544.000000"
 preserveAspectRatio="xMidYMid meet">
<metadata>
Created by potrace 1.16, written by Peter Selinger 2001-2019
</metadata>
<g transform="translate(0.000000,544.000000) scale(0.100000,-0.100000)"
fill="#000000" stroke="none">
<path d="M3106 5270 c-159 -25 -349 -103 -483 -199 -106 -75 -223 -214 -284
-336 -27 -55 -52 -116 -55 -136 -6 -35 -5 -36 19 -32 28 5 67 -12 67 -29 0 -6
-3 -8 -7 -5 -3 4 -13 -2 -21 -14 -13 -19 -16 -19 -38 -5 -13 9 -26 16 -28 16
-14 0 -37 -65 -42 -118 -6 -54 -4 -61 16 -75 21 -15 22 -18 11 -84 -6 -37 -26
-97 -43 -132 -72 -143 -34 -314 100 -457 44 -47 143 -85 272 -105 88 -13 117
-23 148 -49 l23 -19 -20 -20 c-11 -11 -23 -31 -26 -44 -6 -22 -14 -25 -74 -31
-94 -8 -272 -54 -294 -75 -17 -17 -22 -17 -60 -3 -59 20 -206 19 -292 -2 -85
-22 -128 -44 -178 -91 -22 -20 -78 -55 -125 -79 -73 -36 -102 -60 -179 -139
-88 -91 -91 -96 -98 -150 -4 -31 -12 -60 -19 -65 -13 -11 -135 -52 -153 -52
-7 0 -13 10 -13 23 0 33 -19 47 -63 47 -61 0 -77 -14 -77 -65 l0 -45 -75 0
c-94 0 -132 -17 -137 -61 -3 -29 -8 -32 -143 -83 -529 -201 -544 -208 -569
-235 -17 -19 -18 -32 -12 -148 8 -133 18 -166 55 -178 13 -4 22 -18 25 -38 3
-18 26 -293 51 -612 25 -319 49 -610 52 -646 l6 -66 -33 -13 c-18 -7 -46 -24
-61 -38 -31 -26 -35 -53 -22 -147 6 -45 8 -48 57 -71 60 -27 49 -26 1351 -114
866 -59 1946 -135 2330 -165 105 -8 348 -26 540 -40 193 -14 400 -30 461 -35
60 -6 397 -10 748 -10 l638 0 157 91 c433 253 492 290 501 315 6 14 10 54 10
89 0 61 -1 65 -36 94 l-37 30 6 63 c13 128 38 464 67 886 l29 432 29 30 c28
28 30 34 36 142 12 205 12 207 -15 234 -31 31 -78 38 -359 59 -118 8 -239 18
-267 21 l-53 5 0 43 c0 82 -10 107 -47 123 -41 17 -143 19 -172 4 -15 -8 -40
-6 -103 8 -96 22 -257 47 -373 56 l-80 7 -64 70 -63 69 12 94 c14 107 7 189
-21 254 -10 24 -19 57 -19 73 0 67 -52 143 -124 180 -48 25 -134 34 -176 20
-27 -10 -36 -8 -58 8 -41 30 -210 87 -301 102 l-81 12 0 44 c0 56 -19 90 -76
141 -93 82 -227 129 -330 116 -73 -9 -163 -56 -203 -106 -23 -28 -39 -39 -52
-36 -10 3 -51 -1 -91 -9 -40 -8 -76 -14 -81 -14 -4 0 10 22 31 49 21 26 44 62
51 78 11 27 19 31 64 36 93 12 252 138 303 242 97 200 3 470 -197 562 -63 29
-89 63 -89 116 0 46 -54 126 -100 149 -19 10 -46 34 -60 54 -38 54 -211 155
-345 200 -105 36 -117 37 -260 40 -82 2 -176 -1 -209 -6z m279 -276 c86 -22
201 -83 264 -141 78 -70 101 -108 101 -167 0 -26 7 -63 16 -84 13 -29 17 -73
18 -199 l1 -161 -21 58 c-44 121 -111 203 -179 216 -73 13 -124 -9 -384 -166
-175 -106 -339 -160 -483 -160 l-63 0 -28 84 c-24 73 -28 99 -29 222 -2 111 1
147 14 177 23 50 14 47 -14 -5 -15 -31 -22 -60 -21 -100 1 -113 14 -215 38
-291 l23 -77 -31 0 c-55 -1 -111 -18 -129 -41 -19 -23 -23 -93 -8 -139 l8 -25
2 25 c2 21 4 19 9 -10 4 -19 11 -46 15 -60 6 -20 5 -22 -4 -10 -9 12 -10 10
-4 -10 9 -33 41 -97 51 -102 5 -1 35 -43 68 -92 33 -48 75 -101 93 -117 35
-31 34 -36 -1 -17 -19 10 -20 9 -9 -4 7 -9 27 -21 45 -28 18 -6 40 -16 49 -21
31 -16 125 -22 159 -10 18 6 61 29 94 51 90 59 159 79 311 90 194 15 294 52
384 143 70 71 87 150 68 312 l-7 60 30 -85 c37 -100 53 -149 69 -209 11 -40
13 -43 40 -38 24 5 27 4 23 -14 -9 -34 -107 -132 -195 -197 -263 -190 -534
-271 -776 -232 -35 6 -83 18 -105 26 -23 8 -51 18 -62 21 -16 4 -17 3 -5 -6
13 -9 12 -11 -6 -11 -11 0 -29 -9 -39 -20 -10 -11 -23 -20 -29 -20 -7 0 -7 3
-1 8 6 4 10 14 10 22 0 8 11 17 25 21 21 6 22 7 5 9 -20 1 -20 1 0 9 18 7 15
11 -20 33 -113 72 -257 296 -310 481 -46 160 -56 274 -30 367 8 30 22 82 31
115 25 93 98 208 194 306 177 179 348 246 594 232 48 -2 112 -11 141 -19z
m796 -304 c49 -26 47 -36 -4 -15 -55 23 -82 19 -111 -16 -14 -17 -26 -34 -27
-37 0 -4 -2 -16 -5 -27 -2 -11 -5 -76 -6 -145 -1 -104 3 -137 21 -195 26 -84
66 -167 90 -189 16 -14 20 -13 55 10 23 16 46 24 58 20 12 -3 30 0 41 6 27 14
12 -9 -27 -42 -17 -14 -37 -33 -45 -42 -31 -36 -106 -15 -155 43 -94 111 -145
321 -116 477 20 108 53 159 115 179 32 11 49 7 116 -27z m112 -90 c14 -16 38
-55 53 -86 26 -52 28 -66 28 -184 1 -114 -1 -131 -20 -156 -27 -37 -48 -49
-70 -39 -17 7 -17 8 6 14 36 10 69 96 70 183 0 94 -28 164 -97 238 l-55 60 30
0 c21 0 38 -9 55 -30z m-1973 -305 c9 -11 9 -21 -4 -46 -13 -26 -13 -29 -1
-19 12 10 15 9 15 -3 0 -9 -5 -19 -11 -23 -18 -11 -3 -230 21 -299 38 -112
142 -260 215 -307 l30 -20 -44 6 c-56 8 -151 53 -151 72 0 8 -17 49 -39 92
-81 163 -95 208 -95 317 -1 69 3 108 13 125 8 14 13 45 12 73 -3 50 13 63 39
32z m1166 -99 c3 -14 3 -29 0 -34 -3 -6 1 -12 9 -16 8 -3 15 -17 15 -31 0 -30
-1 -30 50 -4 47 24 70 20 70 -14 0 -14 7 -30 15 -37 8 -7 15 -23 15 -36 0 -13
5 -24 10 -24 6 0 10 -8 10 -19 0 -13 -14 -24 -47 -36 -27 -10 -50 -22 -53 -26
-8 -11 -148 -58 -154 -51 -3 3 -6 0 -6 -6 0 -13 -76 -36 -90 -27 -16 10 -12
33 8 45 14 10 14 11 0 6 -9 -2 -24 1 -34 9 -15 11 -16 15 -5 29 11 13 11 16
-2 16 -8 0 -17 9 -20 20 -4 17 4 25 46 46 l51 26 -22 19 c-19 15 -21 22 -13
38 8 15 7 20 -5 25 -10 4 -14 15 -12 33 2 22 13 30 63 49 78 30 93 30 101 0z
m-682 -218 c30 -104 34 -113 52 -109 11 3 37 5 59 5 35 1 40 -2 43 -24 2 -14
8 -29 13 -34 5 -6 9 -18 9 -29 0 -10 7 -25 16 -34 20 -21 7 -33 -45 -40 -22
-3 -41 -10 -41 -14 0 -5 -27 -9 -59 -9 -33 0 -72 -5 -87 -10 -19 -7 -30 -7
-40 1 -19 15 -76 138 -69 149 3 5 1 12 -5 15 -15 9 7 35 25 29 8 -3 12 1 12
12 -1 11 7 20 23 24 25 7 25 7 -5 11 -39 5 -48 44 -13 58 35 14 108 13 112 -1z
m1748 -121 c94 -46 165 -110 174 -157 l7 -35 -21 25 -20 25 -48 -27 c-29 -15
-76 -56 -114 -101 l-65 -74 -90 45 c-49 25 -108 57 -130 71 -53 32 -92 37
-100 11 -17 -54 30 -123 110 -165 28 -14 39 -23 25 -19 -73 20 -140 89 -160
163 -42 160 87 287 282 278 65 -3 90 -10 150 -40z m-570 -285 c-7 -154 36
-277 139 -387 48 -52 55 -63 29 -44 -36 25 -62 30 -77 15 -4 -5 -3 -6 3 -3 7
4 14 -3 17 -19 4 -21 -2 -18 -40 23 -24 26 -56 65 -70 86 -14 20 -28 37 -30
37 -7 0 18 -39 80 -125 42 -59 42 -77 0 -26 -11 13 -13 13 -13 -3 0 -10 -21
-40 -46 -66 -26 -27 -61 -69 -79 -94 -18 -26 -46 -56 -61 -68 -16 -12 -32 -27
-36 -32 -4 -6 -48 -2 -114 8 -70 12 -128 16 -165 12 -50 -6 -58 -4 -62 11 -4
16 -5 15 -6 -2 -1 -14 -16 -26 -49 -40 -55 -23 -75 -22 -109 5 l-26 20 -19
-22 c-23 -27 -34 -18 -78 70 -27 53 -33 78 -37 157 -5 84 -4 95 11 101 13 5
15 9 5 15 -10 6 -10 11 0 23 8 9 20 16 27 16 8 0 14 9 14 20 0 21 14 27 25 11
13 -22 72 -41 126 -41 92 0 213 64 308 164 19 20 42 36 50 36 9 0 23 5 31 11
11 8 8 9 -15 4 -29 -6 -29 -6 -11 14 11 12 23 21 29 21 5 0 41 24 79 53 39 28
93 68 122 88 28 21 51 37 52 38 0 1 -2 -39 -4 -87z m1009 -28 c63 -20 113 -43
125 -56 19 -21 19 -21 -1 -14 -59 22 -72 19 -120 -25 -47 -44 -102 -128 -126
-193 -7 -20 -17 -36 -21 -36 -16 0 -175 58 -215 79 l-42 21 16 52 c30 101 55
137 138 193 35 23 46 26 90 20 27 -3 97 -22 156 -41z m-2243 -184 c42 -26 41
-31 -5 -18 -39 11 -123 3 -123 -12 0 -5 14 -17 30 -27 17 -9 30 -21 30 -26 0
-5 30 -6 68 -3 l67 5 -57 -15 -57 -16 20 -21 c23 -25 25 -47 4 -47 -8 0 -17
-12 -21 -27 -3 -16 -7 -33 -9 -39 -4 -12 -51 -24 -95 -24 -24 0 -29 5 -35 37
-16 86 -87 169 -156 182 -55 10 -45 15 96 45 139 31 200 32 243 6z m2609 -31
c50 -16 111 -65 135 -111 20 -38 23 -57 23 -168 0 -69 -5 -133 -11 -143 -9
-16 -14 -12 -42 33 -18 28 -32 56 -32 61 0 5 -3 8 -7 7 -5 -1 -32 10 -62 26
-53 27 -192 52 -199 35 -2 -4 -9 -6 -17 -3 -15 6 -81 -33 -110 -66 l-20 -22
-6 68 -6 69 0 -85 c0 -80 -12 -130 -32 -130 -23 0 -23 87 0 225 13 72 27 100
71 141 79 75 197 98 315 63z m-3105 -20 c44 -9 62 -20 105 -64 52 -54 73 -99
73 -162 l0 -32 -82 -7 c-46 -4 -89 -7 -95 -6 -7 2 -14 -5 -14 -15 -1 -10 -5 6
-9 35 -5 30 -20 71 -34 93 -29 44 -101 94 -148 104 -42 10 -135 -3 -152 -21
-16 -16 -61 -19 -51 -4 15 24 97 55 185 71 117 21 154 22 222 8z m843 -119
c25 0 26 -19 3 -42 -31 -31 -38 -132 -12 -191 33 -75 86 -161 122 -199 20 -21
33 -38 29 -38 -4 0 0 -12 10 -26 16 -25 16 -26 -2 -23 -45 9 -158 203 -189
325 -21 80 -20 154 2 223 l17 56 3 -42 c2 -29 8 -43 17 -43z m-1147 -16 c27
-18 42 -53 42 -98 0 -26 -10 -44 -41 -76 l-41 -42 -21 31 c-33 45 -117 55
-117 13 0 -11 -11 -5 -38 21 -40 39 -66 47 -76 22 -7 -20 -45 -19 -53 0 -8 24
25 54 102 93 121 60 190 70 243 36z m2589 -9 c20 -4 41 -19 58 -40 21 -29 41
-39 122 -65 52 -16 122 -35 154 -41 57 -11 59 -13 59 -43 0 -17 3 -47 6 -67 5
-31 1 -41 -26 -72 -17 -20 -38 -57 -46 -82 -16 -54 -44 -100 -44 -72 0 9 -4
17 -10 17 -5 0 -10 9 -10 20 0 14 -7 20 -21 20 -13 0 -18 -4 -13 -12 5 -7 3
-8 -5 -4 -7 5 -28 5 -47 2 -29 -6 -34 -11 -34 -36 0 -17 -7 -33 -17 -39 -17
-10 -17 -10 0 -11 23 0 22 -17 -3 -25 -35 -11 -27 -69 15 -108 45 -43 288
-121 420 -136 50 -6 110 -15 135 -20 25 -6 95 -10 157 -11 102 0 113 -2 123
-20 6 -11 8 -20 5 -20 -3 0 1 -10 10 -23 8 -13 12 -27 8 -30 -3 -4 1 -7 11 -7
9 0 14 -4 11 -10 -4 -6 23 -10 72 -11 l78 -1 -55 -9 c-60 -10 -369 -13 -378
-4 -3 3 41 5 97 5 l101 0 -4 25 c-12 67 4 62 -234 68 -330 7 -609 53 -687 113
l-35 26 -10 -28 c-14 -36 -2 -64 42 -98 51 -38 192 -92 304 -115 215 -44 277
-48 710 -43 322 4 617 74 705 168 35 37 32 94 -6 134 -16 16 -24 30 -19 30 17
0 84 -61 84 -77 0 -9 16 -31 35 -50 26 -25 35 -42 34 -66 0 -27 -2 -29 -9 -12
-5 11 -18 31 -28 44 l-19 24 -44 -40 c-24 -22 -62 -50 -84 -61 -97 -49 -306
-95 -553 -123 l-103 -11 3 -42 c3 -38 5 -41 38 -47 19 -4 -26 -6 -100 -6 -74
0 -111 2 -82 4 48 4 52 6 47 26 -3 12 -7 31 -7 43 -2 20 -9 21 -143 28 -397
19 -643 74 -782 175 -56 40 -75 78 -63 122 8 26 6 37 -6 50 -22 24 -34 85 -24
120 5 18 5 27 -1 24 -5 -4 -9 -13 -9 -21 0 -11 -15 -14 -61 -14 -88 0 -100 9
-94 73 7 75 13 88 57 126 63 54 129 210 143 339 6 52 10 62 24 58 9 -2 30 -7
48 -11z m-2399 -91 c17 -20 35 -55 42 -79 l12 -43 92 -6 c88 -7 137 -13 296
-37 54 -8 87 -8 115 0 22 5 51 12 65 15 14 2 34 7 45 11 16 5 14 1 -8 -19 -19
-18 -40 -26 -65 -27 -36 -1 -36 -1 -10 -10 21 -8 35 -6 70 12 24 12 48 30 55
39 7 10 30 20 52 24 22 3 53 14 70 23 29 17 31 17 50 -2 11 -11 39 -58 62
-105 53 -109 126 -220 145 -220 9 0 12 -4 9 -10 -10 -17 -48 -12 -41 5 7 19 5
19 -38 -2 -33 -15 -37 -15 -55 1 -13 12 -45 19 -117 24 l-99 7 -5 47 c-3 27
-11 53 -18 60 -7 7 -12 10 -13 8 -6 -37 -12 -54 -29 -82 -11 -18 -23 -41 -26
-50 -4 -10 -13 -18 -22 -18 -39 0 -94 -26 -136 -66 -26 -24 -71 -52 -104 -64
-121 -46 -332 -87 -539 -106 l-73 -7 0 -38 c0 -37 1 -38 43 -42 23 -2 4 -4
-43 -5 l-85 -2 -1 36 c0 20 -6 39 -13 43 -7 5 -69 11 -139 15 -293 15 -497 61
-580 130 -40 34 -42 68 -6 101 38 36 53 31 19 -5 -28 -29 -29 -32 -15 -58 34
-59 135 -97 346 -127 120 -17 347 -16 419 2 l40 11 -55 2 c-30 1 -77 5 -105
10 l-50 8 50 0 c28 0 79 1 115 2 l65 1 -50 14 c-27 8 -85 14 -128 15 -50 0
-76 4 -72 10 3 6 45 10 93 10 80 0 89 2 115 26 28 26 30 26 130 20 76 -5 121
-3 177 8 91 19 228 63 255 82 11 8 28 14 38 14 23 0 79 39 72 50 -3 4 5 6 17
3 40 -10 7 12 -52 35 -68 26 -165 48 -250 57 -36 4 -67 8 -68 10 -2 2 31 9 73
16 43 8 79 19 82 26 6 15 33 18 33 3 0 -21 36 -29 64 -14 16 8 38 14 50 15 20
0 20 1 1 8 -27 11 -301 34 -313 27 -5 -3 -15 15 -21 41 -13 49 -33 93 -53 115
-7 7 -22 24 -33 37 l-20 24 22 -11 c12 -7 35 -28 51 -48z m-304 -100 c11 -4
16 -19 16 -46 0 -25 -4 -37 -10 -33 -14 8 -38 -12 -62 -50 -10 -16 -18 -24
-18 -18 0 7 -18 22 -40 33 -22 11 -40 24 -40 29 0 5 20 27 45 50 43 40 72 49
109 35z m3553 -34 c89 -41 213 -160 168 -160 -9 0 -14 4 -10 9 3 6 -10 13 -30
17 -27 5 -41 2 -55 -11 -17 -16 -21 -16 -42 -1 -33 23 -68 20 -100 -11 -26
-25 -29 -25 -46 -10 -24 22 -90 22 -113 1 -27 -24 -39 -8 -39 52 0 104 39 144
140 144 51 0 78 -6 127 -30z m-3229 -125 l3 -81 -40 4 c-36 4 -40 8 -56 48
-27 70 -4 117 54 112 l36 -3 3 -80z m-461 19 c37 -10 36 -34 -3 -91 -42 -61
-69 -83 -101 -83 -32 0 -35 12 -14 53 10 21 22 49 26 64 13 54 41 71 92 57z
m3632 -262 c14 -26 36 -150 28 -158 -3 -4 -18 -4 -32 0 -37 10 -105 127 -91
161 8 23 82 20 95 -3z m-4658 -76 c-6 -7 -39 -21 -73 -31 -89 -25 -288 -122
-288 -140 0 -27 47 -35 333 -55 316 -23 354 -26 282 -29 -36 -1 -46 -4 -35
-11 21 -13 73 -18 440 -40 179 -11 348 -23 375 -26 35 -4 47 -3 40 4 -5 6 -50
15 -100 20 -55 6 -72 10 -45 10 70 2 615 -32 760 -47 73 -8 74 -8 20 -10 -93
-2 -89 -17 7 -25 366 -26 1209 -82 1393 -91 58 -2 144 -8 193 -11 62 -5 87 -4
87 5 0 6 -17 11 -42 11 -23 0 -39 3 -35 6 6 6 433 -20 582 -36 67 -7 57 -8
-65 -5 -262 6 4 -21 490 -50 267 -17 296 -17 287 -9 -3 3 -30 10 -59 14 -78
13 282 2 497 -15 286 -23 454 -28 538 -17 72 9 86 15 164 69 248 169 513 344
513 339 0 -3 -27 -24 -60 -46 -33 -22 -60 -45 -60 -50 0 -13 17 -13 26 1 3 6
15 9 25 6 13 -4 19 0 19 11 0 12 3 13 8 5 11 -18 192 102 192 128 0 16 -62 28
-174 35 -66 4 -131 10 -145 14 l-26 8 25 1 c14 0 84 -4 157 -9 133 -9 183 -24
183 -55 0 -22 -628 -458 -700 -485 l-45 -18 -7 -108 c-4 -60 -10 -114 -13
-121 -2 -7 -20 -13 -39 -13 -27 0 -33 4 -31 18 2 9 6 61 9 115 l5 97 -112 0
c-61 0 -211 7 -332 15 -350 23 -1030 67 -1420 90 -132 8 -402 26 -600 39 -198
14 -436 30 -530 36 -93 6 -264 17 -380 25 -115 8 -376 26 -580 40 -203 14
-460 32 -570 40 -319 24 -788 54 -935 59 -347 14 -437 18 -460 19 -23 2 -25
-2 -28 -43 -2 -25 -1 -68 3 -97 l6 -51 62 -6 c34 -4 96 -11 137 -17 41 -6 122
-17 180 -24 l105 -13 -135 4 c-205 8 -401 23 -443 35 -20 5 -43 20 -51 32 -17
27 -29 235 -15 260 14 24 44 38 230 107 90 34 184 69 209 80 55 23 66 24 51 6z
m3096 -222 c4 -10 -5 -27 -25 -46 -30 -30 -31 -30 -107 -23 -89 8 -104 24 -59
61 25 20 40 23 107 24 62 0 79 -3 84 -16z m-1954 -412 c60 -27 81 -60 74 -115
-5 -36 -15 -51 -67 -99 -33 -31 -57 -58 -53 -61 4 -3 23 -8 41 -12 38 -8 89
-56 98 -92 9 -33 42 -30 50 5 4 15 10 32 14 37 4 6 11 21 15 35 4 14 28 74 53
133 41 95 49 107 68 103 11 -3 29 1 40 9 10 8 27 15 36 15 9 0 18 6 21 13 3 7
7 5 12 -8 4 -11 11 -29 15 -40 5 -11 17 -75 26 -142 17 -117 19 -123 41 -123
17 0 23 -6 24 -22 0 -13 9 3 19 34 35 112 105 199 194 239 45 20 91 25 101 9
3 -5 12 -7 19 -4 19 7 59 -52 58 -87 -1 -47 -21 -99 -36 -93 -8 3 -16 -2 -20
-12 -6 -15 -9 -14 -26 6 -11 13 -20 34 -20 47 0 35 -33 29 -75 -12 -47 -47
-76 -107 -82 -169 -4 -43 -1 -56 18 -80 19 -25 27 -28 62 -23 22 3 58 19 81
35 52 37 97 61 79 41 -14 -14 -18 -49 -5 -49 4 1 17 9 29 19 18 15 26 44 47
173 31 188 37 208 65 201 13 -3 21 -1 21 7 0 7 8 9 20 5 11 -4 20 -2 20 4 0 6
5 11 10 11 6 0 10 -9 10 -19 0 -11 4 -21 9 -23 6 -2 4 -31 -5 -72 -8 -38 -12
-71 -10 -73 2 -2 32 21 67 53 91 81 167 137 177 130 5 -3 20 6 32 19 37 39 46
29 10 -11 -17 -20 -29 -39 -25 -42 3 -3 11 0 17 6 17 17 33 15 19 -2 -6 -7 -9
-20 -6 -28 6 -15 -25 -46 -145 -148 -36 -30 -71 -60 -78 -67 -11 -11 3 -34 83
-134 54 -66 99 -118 102 -115 2 2 -1 13 -8 23 -13 22 -4 97 12 88 5 -4 9 -1 9
5 0 7 6 10 14 7 7 -3 18 -1 23 4 5 5 14 -5 22 -26 8 -23 20 -37 37 -41 36 -9
94 2 124 24 45 34 33 52 -70 105 -111 56 -138 79 -146 122 -11 60 38 120 138
171 119 60 228 31 228 -61 0 -31 -27 -88 -39 -80 -5 3 -12 -3 -16 -13 -6 -16
-7 -16 -16 1 -6 9 -14 15 -20 12 -5 -4 -9 8 -9 24 0 21 -5 31 -15 31 -29 0
-96 -33 -107 -53 -13 -24 -4 -33 91 -80 90 -45 151 -106 151 -151 0 -63 -73
-125 -196 -166 -63 -21 -90 -25 -96 -12 -4 9 -98 54 -98 46 0 -3 21 -33 46
-66 48 -62 40 -64 -30 -9 -36 29 -65 36 -38 9 24 -24 11 -29 -18 -8 -24 17
-39 20 -77 15 -40 -4 -44 -3 -23 5 13 6 26 13 28 15 4 4 -191 224 -195 220 -2
-1 -11 -43 -22 -94 -10 -50 -22 -95 -26 -99 -4 -4 -4 3 -1 16 4 12 3 22 -2 22
-12 0 -32 -45 -34 -78 0 -16 -3 -9 -7 18 -5 36 -10 45 -25 43 -16 -1 -18 5
-14 63 2 35 1 64 -2 64 -3 0 -24 -19 -45 -41 -64 -66 -135 -119 -161 -119 -13
0 -48 12 -79 26 -59 28 -98 78 -111 142 -6 30 -26 43 -38 24 -2 -4 2 -41 10
-82 7 -40 12 -76 9 -78 -3 -3 -5 0 -5 6 0 7 -5 12 -11 12 -6 0 -8 -8 -5 -17 2
-10 7 -34 10 -53 6 -34 6 -34 -15 10 -14 31 -23 40 -28 31 -6 -9 -10 -7 -14 8
-3 13 -11 19 -19 16 -11 -5 -18 11 -29 62 -16 76 -10 74 -115 52 -51 -10 -52
-10 -73 -69 -12 -33 -28 -60 -35 -60 -8 0 -22 -17 -32 -37 -9 -21 -18 -33 -20
-28 -1 6 -5 23 -9 39 -6 27 -7 27 -20 10 -19 -25 -19 -9 1 56 22 75 4 84 -56
25 -25 -24 -76 -64 -115 -89 -38 -26 -63 -46 -55 -46 8 -1 -16 -16 -55 -35
-79 -39 -78 -39 -70 -25 3 6 -1 10 -9 10 -9 0 -18 -12 -22 -27 -9 -44 -12 -50
-13 -25 -1 12 -5 22 -10 22 -14 0 -21 -28 -21 -86 0 -34 -4 -53 -10 -49 -5 3
-10 31 -10 61 0 54 -15 74 -23 32 l-4 -23 -8 23 c-8 24 -15 24 -72 6 -17 -5
-17 -5 1 10 20 16 14 38 -9 29 -8 -3 -15 0 -15 6 0 7 7 14 15 17 8 4 15 11 15
16 0 6 -7 7 -16 4 -30 -11 -2 14 36 34 44 22 46 29 54 168 3 66 1 82 -10 82
-14 0 -18 17 -15 53 1 9 -4 17 -11 17 -7 0 0 9 16 19 40 27 45 37 52 120 l7
72 -24 -10 c-13 -5 -41 -16 -61 -25 -21 -9 -39 -12 -43 -7 -3 5 1 11 7 14 10
4 11 7 1 18 -11 11 -24 9 -75 -9 -33 -12 -63 -21 -64 -19 -2 2 28 19 66 37 39
19 70 38 70 43 0 5 -7 7 -15 3 -8 -3 -15 -1 -15 4 0 21 175 94 263 110 76 13
188 5 240 -18z m-1418 -215 c8 -98 20 -231 25 -295 5 -64 16 -196 24 -292 19
-227 29 -454 16 -386 -23 126 -101 1170 -87 1156 4 -3 13 -86 22 -183z m3903
91 c6 -40 16 -111 23 -158 12 -97 13 -100 39 -100 13 0 17 -5 14 -15 -4 -8 -2
-15 2 -15 5 0 24 34 43 75 57 128 195 235 303 235 66 0 96 -14 115 -55 16 -33
16 -37 -3 -82 -14 -34 -25 -47 -37 -45 -9 2 -17 -2 -17 -8 0 -5 -4 -10 -10
-10 -5 0 -10 7 -10 16 0 8 -4 12 -10 9 -6 -4 -10 7 -10 24 0 21 -5 31 -15 31
-53 0 -149 -80 -185 -155 -25 -51 -26 -122 -3 -147 24 -27 80 -23 127 10 57
39 57 52 2 52 -34 0 -46 4 -47 15 -5 70 -5 70 37 76 21 4 78 10 126 14 l87 7
-4 -33 c-2 -19 -17 -74 -34 -124 -17 -49 -39 -117 -50 -150 -12 -37 -20 -51
-20 -35 -1 34 -18 15 -35 -41 l-14 -44 -1 48 c-1 26 -5 47 -11 47 -5 0 -10 -7
-10 -15 0 -8 -5 -15 -10 -15 -6 0 -8 11 -5 25 3 14 7 36 10 50 3 14 4 25 2 25
-2 0 -25 -11 -51 -25 -58 -31 -78 -31 -135 -2 -58 30 -101 84 -108 136 -5 35
-9 41 -30 41 -19 0 -22 -4 -18 -22 21 -93 22 -169 1 -125 -3 6 -4 -15 -1 -47
6 -62 -2 -67 -20 -15 -5 17 -14 31 -20 31 -5 -1 -15 9 -22 21 -7 12 -12 16
-13 10 0 -7 -4 -13 -8 -13 -5 0 -14 32 -21 70 -15 80 -16 80 -125 58 l-58 -11
-34 -71 c-19 -39 -34 -63 -34 -54 0 29 -27 10 -50 -35 -19 -39 -20 -40 -16
-12 5 33 -11 70 -21 48 -2 -7 -8 -13 -13 -13 -5 0 2 27 16 60 28 69 28 71 11
64 -10 -3 -14 4 -14 26 0 16 5 30 10 30 5 0 4 6 -3 14 -9 12 -5 16 24 21 33 7
38 13 93 124 31 64 59 119 61 123 3 7 -25 5 -143 -13 l-71 -11 -16 -62 c-9
-33 -26 -97 -37 -141 -50 -199 -59 -230 -61 -200 l-1 30 -22 -29 c-12 -16 -28
-43 -35 -60 -12 -30 -12 -30 -8 14 3 25 1 52 -4 60 -7 10 -10 11 -10 3 0 -7
-5 -13 -10 -13 -6 0 -8 17 -4 43 5 38 48 275 59 321 3 16 -1 18 -38 12 -95
-15 -132 -18 -118 -8 11 8 12 14 4 24 -12 16 -10 65 3 78 6 6 51 16 100 22 49
6 95 16 102 21 16 12 256 19 285 7 l22 -8 -24 -9 c-22 -9 -23 -10 -5 -17 18
-7 17 -8 -6 -21 -25 -14 -25 -14 15 -15 36 0 43 4 58 33 15 27 25 34 50 34 47
2 97 14 97 24 0 5 4 9 9 9 4 0 13 -33 19 -72z m1081 -37 c5 -7 22 -14 39 -15
46 -2 49 -14 6 -21 -22 -4 -50 -12 -63 -18 l-23 -12 23 -6 c22 -5 23 -6 4 -12
-11 -3 -51 -8 -90 -12 -169 -14 -173 -15 -178 -38 -3 -12 -9 -33 -13 -45 -7
-24 -6 -24 62 -22 38 1 83 2 99 1 28 -2 29 -2 10 -13 -19 -12 -19 -12 5 -18
25 -7 25 -7 -10 -23 -19 -8 -29 -16 -22 -16 7 -1 11 -5 8 -10 -4 -5 -48 -12
-100 -16 l-94 -7 -13 -47 c-7 -25 -12 -48 -11 -50 1 -2 71 -3 155 -2 88 1 158
-3 167 -9 11 -7 7 -10 -20 -10 -67 -1 -8 -20 65 -21 81 -2 71 -5 -37 -14 -76
-7 -110 -25 -46 -25 73 0 12 -9 -137 -20 -88 -7 -172 -18 -187 -25 -20 -10
-28 -10 -31 -1 -3 6 -9 0 -15 -14 -8 -18 -11 -20 -11 -7 -1 13 -10 17 -37 17
-27 0 -35 4 -31 14 3 8 3 17 -1 21 -4 3 -7 19 -8 35 -1 22 3 30 19 32 27 4 65
107 44 123 -7 5 -12 16 -11 23 1 6 2 21 3 31 0 11 10 23 22 26 20 7 30 24 43
78 5 22 3 27 -12 27 -28 0 -30 6 -19 54 14 61 48 74 191 75 60 1 112 4 115 7
11 11 132 -2 140 -15z m-2630 -566 c33 -10 69 -31 88 -50 33 -33 34 -35 18
-65 -17 -32 -68 -69 -144 -102 l-46 -21 68 -17 c75 -19 115 -43 135 -83 17
-35 -1 -70 -64 -125 -53 -47 -98 -70 -227 -118 -59 -22 -78 -32 -52 -28 61 10
38 -2 -50 -26 -119 -33 -123 -34 -105 -21 13 9 12 11 -5 10 -11 0 -38 -6 -60
-13 -34 -10 -41 -17 -51 -51 l-12 -40 -1 38 c-1 34 -3 37 -20 27 -14 -7 -22
-25 -26 -58 -13 -93 -25 -111 -19 -29 4 71 3 78 -13 75 -9 -2 -20 -14 -24 -28
l-6 -25 -8 27 c-7 29 -12 29 -77 11 -10 -2 -18 0 -18 5 0 11 78 28 86 19 9 -9
70 7 352 93 74 22 135 40 138 40 2 0 4 4 4 10 0 6 -10 5 -26 -2 -20 -9 -30 -9
-45 0 -10 7 -35 12 -54 12 -19 0 -35 4 -35 8 0 5 -37 -2 -81 -15 -81 -23 -125
-30 -103 -15 6 4 15 18 18 32 19 63 19 60 -12 54 -16 -3 -38 -1 -49 5 -17 8
-22 6 -31 -12 -18 -37 -23 -75 -10 -79 23 -8 -3 -26 -54 -38 -63 -15 -94 -29
-63 -30 14 0 16 -3 8 -11 -6 -6 -9 -17 -7 -23 3 -8 -7 -11 -32 -8 l-37 5 29
11 c26 11 27 13 10 23 -16 9 -15 11 11 21 15 6 43 15 62 20 34 8 35 10 58 97
12 50 26 101 29 114 6 20 4 23 -10 18 -11 -4 -15 -3 -10 4 4 6 1 15 -7 19 -10
7 -10 11 0 24 11 13 11 16 0 17 -8 0 4 9 25 19 36 16 42 26 68 95 l28 78 -37
-7 c-95 -16 -118 -17 -104 -8 16 12 6 32 -17 33 -13 0 -14 2 -2 6 8 3 23 15
35 25 20 19 20 19 -10 12 -25 -5 -28 -4 -18 7 7 7 59 23 115 35 90 20 125 23
273 20 126 -2 184 -8 224 -21z m793 -4 c2 -6 33 -6 78 -1 41 5 111 9 155 8
l80 0 -50 -13 c-48 -13 -49 -13 -15 -15 l35 -2 -35 -14 -35 -14 35 4 c19 3
115 10 212 17 131 9 183 10 200 2 l23 -12 -25 -1 c-22 -1 -23 -2 -7 -11 10 -6
25 -8 33 -5 8 3 14 2 14 -3 0 -5 -24 -15 -52 -24 -51 -15 -51 -15 -18 -16 70
-3 5 -20 -121 -32 l-126 -12 -16 -45 -17 -45 82 6 c46 4 94 4 108 0 l25 -7
-25 -7 -25 -6 25 -11 c14 -6 20 -11 13 -11 -6 -1 -24 -6 -40 -12 l-28 -12 25
-7 c18 -4 4 -8 -50 -14 -157 -14 -156 -14 -169 -54 -7 -21 -15 -42 -17 -49 -4
-8 45 -10 193 -8 109 2 181 1 161 -1 -71 -9 -36 -32 52 -35 43 -2 42 -2 -15
-9 -33 -4 -80 -10 -104 -15 -32 -6 -42 -5 -37 3 4 7 16 12 27 12 11 0 17 5 14
10 -3 6 -15 10 -26 10 -13 0 -18 4 -13 11 5 9 -21 10 -102 5 -60 -4 -124 -10
-143 -13 -33 -6 -34 -5 -27 23 4 16 8 33 9 39 1 5 -13 11 -31 13 -18 2 -30 8
-27 13 4 5 0 9 -7 9 -14 0 -38 -53 -38 -84 0 -10 -12 -21 -27 -27 -23 -8 -28
-15 -27 -41 1 -26 6 -33 27 -39 14 -4 28 -5 31 -2 9 9 333 42 406 41 41 -1 57
-3 35 -5 -179 -14 -383 -35 -395 -40 -44 -18 -127 -13 -115 7 3 5 -3 13 -12
19 -10 6 -12 11 -5 11 6 0 12 6 12 14 0 8 -6 16 -12 19 -7 2 3 9 22 15 30 10
38 19 50 60 18 57 18 68 3 65 -9 -2 -11 27 -4 55 1 1 1 5 0 9 0 3 13 12 28 18
19 8 34 26 45 53 15 39 15 42 -2 47 -12 4 -16 13 -12 31 4 22 2 25 -14 21 -11
-3 -53 -8 -94 -12 l-75 -6 -23 -57 c-12 -31 -50 -131 -84 -221 -34 -91 -64
-159 -66 -152 -2 7 7 43 21 80 30 79 40 121 30 122 -5 0 -29 1 -55 2 l-46 2
-22 -64 c-19 -53 -21 -64 -9 -72 10 -6 10 -9 2 -9 -7 0 -21 -17 -32 -37 -11
-21 -20 -33 -21 -26 0 11 82 261 117 355 10 26 15 49 13 51 -3 3 -32 1 -65 -4
-132 -19 -141 -20 -121 -8 19 11 19 12 1 25 -18 13 -18 14 0 34 16 18 17 23 5
30 -22 14 20 26 140 40 58 6 110 15 115 20 6 4 21 10 35 13 14 2 28 5 32 6 3
0 8 -3 10 -8z m1088 -19 c22 -10 36 -26 38 -39 2 -13 8 -23 14 -23 13 0 2 -46
-18 -77 -8 -13 -20 -20 -28 -17 -9 3 -17 -3 -22 -18 l-7 -23 -9 24 c-7 19 -11
21 -22 11 -12 -9 -15 -6 -18 22 -3 32 -4 33 -46 31 -49 -2 -147 -51 -147 -73
0 -10 41 -30 120 -61 202 -77 255 -112 255 -168 0 -16 -4 -33 -10 -36 -5 -3
-10 -15 -10 -26 0 -10 -6 -19 -14 -19 -7 0 -19 -7 -27 -16 -11 -14 -6 -15 52
-9 35 3 74 8 86 11 12 2 25 0 28 -6 3 -6 -4 -10 -17 -10 -116 -1 -203 -21
-333 -76 -74 -32 -133 -60 -130 -63 6 -5 -64 -35 -118 -51 -18 -6 -25 -5 -21
2 9 14 -21 4 -155 -53 -131 -56 -164 -58 -45 -3 43 21 74 39 68 41 -6 2 -82
-21 -169 -52 -88 -30 -163 -55 -169 -55 -21 0 31 28 72 39 23 7 64 21 90 33
26 12 50 21 55 20 4 -1 35 7 68 19 34 11 68 18 75 15 8 -3 14 -2 14 2 0 4 15
7 33 8 36 1 230 68 328 113 l64 30 -57 0 c-32 1 -58 5 -58 10 0 5 -10 11 -22
14 -23 6 -304 -107 -408 -165 -94 -52 -131 -69 -142 -66 -12 4 166 93 367 183
265 119 320 150 310 177 -7 17 -37 31 -197 92 -112 43 -144 65 -153 105 -14
67 69 140 216 191 97 34 168 38 219 12z m-1475 -22 c-4 -11 -2 -20 4 -20 6 0
11 -6 11 -12 0 -14 -119 -358 -157 -453 -21 -53 -23 -55 -17 -20 4 22 13 54
20 72 19 44 34 114 23 107 -5 -3 -9 0 -9 5 0 14 -37 14 -45 1 -3 -5 -17 -10
-30 -10 -21 0 -27 -8 -41 -56 -13 -47 -14 -58 -3 -65 9 -6 10 -9 2 -9 -6 0
-17 -16 -24 -35 -14 -38 -35 -49 -23 -12 4 12 11 36 15 52 4 17 21 77 38 135
70 237 107 333 121 311 6 -11 15 -11 46 -1 22 7 46 16 54 21 22 11 22 11 15
-11z m-2347 -153 c7 -6 12 -24 10 -41 -3 -30 -4 -31 -62 -34 -82 -4 -116 11
-116 53 0 17 2 34 5 37 9 9 149 -4 163 -15z m240 -13 c17 -5 22 -14 22 -40 0
-28 -5 -36 -27 -45 l-27 -10 24 -12 c18 -9 26 -22 28 -45 4 -42 -10 -47 -101
-36 l-72 9 -3 38 c-3 35 -2 37 27 37 39 0 40 12 1 27 -26 10 -30 16 -30 47 l0
36 68 0 c37 0 77 -3 90 -6z m4686 -150 c46 -7 46 -7 46 -45 l0 -39 -64 0 c-35
0 -78 3 -95 6 -27 6 -31 11 -31 39 0 17 3 35 7 38 8 9 76 9 137 1z m257 -14
l59 0 0 -40 0 -40 -76 0 c-90 0 -114 10 -114 49 0 36 9 44 44 37 16 -3 55 -6
87 -6z m-218 -119 c5 -5 7 -21 5 -37 -3 -26 -7 -29 -43 -32 -22 -2 -64 -1 -92
3 -52 6 -53 7 -53 39 0 18 3 36 8 40 9 10 164 -2 175 -13z m-5447 -54 c-17
-13 -17 -14 6 -29 41 -27 95 -37 291 -53 103 -8 195 -19 205 -25 16 -9 245
-29 762 -67 135 -10 237 -19 227 -21 -10 -2 -94 1 -185 7 -551 36 -782 51
-902 56 -74 3 -177 8 -227 11 l-93 5 -1 -43 c0 -37 -2 -40 -10 -20 -5 13 -13
20 -19 17 -6 -4 -13 7 -17 25 -6 32 -33 50 -74 50 -16 0 -19 -7 -19 -45 0 -25
-5 -45 -10 -45 -7 0 -10 29 -8 77 l3 78 35 17 c42 20 61 23 36 5z m6664 -28
c12 -21 24 -13 -255 -164 -99 -54 -229 -126 -290 -160 -60 -34 -138 -73 -172
-85 -35 -12 -60 -26 -57 -31 3 -5 -5 -9 -18 -9 -18 0 -20 -2 -8 -10 8 -5 11
-10 6 -10 -5 0 -17 6 -25 13 -11 10 -100 19 -311 31 -162 10 -506 31 -765 47
-258 16 -483 29 -500 30 -16 1 -23 3 -14 6 9 2 173 -5 365 -17 752 -44 882
-51 964 -49 47 1 92 -1 101 -5 9 -4 45 -5 80 -3 l64 3 -75 4 -75 3 95 7 c52 3
96 3 98 0 5 -13 87 6 145 33 69 31 204 114 215 131 17 27 220 136 241 128 8
-3 11 0 7 7 -4 7 -1 9 8 5 14 -5 108 39 151 72 19 14 19 16 3 28 -22 16 -23
27 -3 20 9 -4 20 -15 25 -25z m-1467 -14 c22 -9 23 -63 1 -72 -9 -3 -50 -2
-92 3 -70 8 -77 11 -80 32 -7 49 2 55 81 49 39 -3 80 -8 90 -12z m238 -15 c27
-15 26 -66 -2 -75 -32 -10 -157 5 -170 21 -6 8 -8 25 -5 39 6 24 10 25 82 25
41 0 84 -5 95 -10z m-1756 -38 c22 -4 -126 -7 -330 -7 -403 0 -534 -6 -755
-34 -131 -17 -376 -68 -368 -76 2 -2 84 7 183 21 380 51 684 77 755 64 25 -5
153 -7 285 -5 225 3 230 3 85 -5 -345 -19 -544 -40 -709 -75 -41 -8 -76 -13
-79 -10 -14 14 257 69 388 78 25 2 6 4 -42 5 -111 2 -425 -29 -681 -69 -108
-17 -212 -29 -230 -27 l-32 3 32 17 c96 53 450 109 808 128 172 9 624 4 690
-8z"/>
<path d="M3844 3840 c-8 -64 -35 -100 -75 -100 -22 0 -29 -5 -29 -20 0 -13 -7
-20 -20 -20 -11 0 -20 -7 -20 -15 0 -8 -5 -15 -10 -15 -6 0 -33 -16 -61 -35
-28 -19 -58 -35 -66 -35 -8 0 -11 -4 -8 -10 3 -5 3 -10 -2 -10 -8 0 -38 42
-61 85 -7 12 -12 15 -12 6 0 -8 11 -34 25 -58 19 -32 22 -43 12 -43 -13 0 -69
-20 -160 -58 -20 -8 -65 -18 -100 -21 -58 -6 -80 -21 -40 -30 27 -5 183 21
183 31 0 5 4 7 9 4 4 -3 36 4 70 15 47 16 61 25 56 37 -4 12 -3 13 9 3 17 -14
40 -5 30 11 -4 7 -2 8 5 4 23 -15 176 104 243 187 27 35 36 55 32 71 -7 31 20
54 35 29 14 -23 14 -8 1 18 -20 35 -39 22 -46 -31z"/>
<path d="M4590 2603 c-34 -13 -70 -46 -70 -64 0 -11 -7 -19 -16 -19 -15 0 -15
2 0 25 20 31 14 45 -20 45 -22 0 -24 -3 -18 -27 9 -36 42 -73 67 -73 16 0 17
-2 7 -15 -7 -9 -10 -19 -6 -22 4 -4 12 -1 17 7 9 13 10 12 6 -2 -11 -33 42
-61 133 -72 52 -6 53 -5 30 9 -22 13 -23 14 -5 15 13 1 3 10 -30 27 -27 14
-58 34 -69 45 -10 11 -25 17 -33 13 -13 -4 -13 -3 -4 8 8 11 34 111 27 106 0
0 -8 -3 -16 -6z"/>
<path d="M2682 2800 c-42 -10 -48 -16 -56 -59 -5 -30 -4 -33 14 -28 11 3 20 1
20 -4 0 -5 -10 -9 -22 -9 -30 0 -90 -37 -143 -87 -8 -7 -29 -13 -47 -13 -22 0
-29 -3 -19 -9 8 -5 36 -3 70 6 31 8 73 17 95 20 27 4 40 11 44 25 4 15 7 17
13 6 7 -10 15 -9 43 6 48 26 66 47 72 88 4 25 1 39 -11 51 -18 18 -23 19 -73
7z"/>
<path d="M2531 2574 c-63 -20 -222 -51 -326 -64 -49 -6 -121 -18 -158 -26 -38
-8 -82 -14 -98 -14 -31 0 -39 -14 -13 -24 47 -18 295 0 434 33 90 21 260 90
260 106 0 9 -55 3 -99 -11z"/>
<path d="M203 2244 c-8 -21 5 -196 15 -206 4 -4 21 -10 38 -14 30 -6 31 -5 37
40 4 25 5 58 2 73 -2 16 -7 44 -10 65 -5 29 -11 38 -37 47 -39 14 -37 14 -45
-5z"/>
<path d="M1625 1493 c-11 -2 -29 -6 -41 -8 -21 -5 -25 -21 -50 -184 l-6 -44
62 34 c91 50 170 124 170 159 0 24 -5 29 -44 39 -46 11 -56 12 -91 4z"/>
<path d="M2470 1054 c-8 -3 -27 -34 -42 -70 l-27 -66 25 6 c52 13 191 67 223
87 31 19 33 22 17 31 -20 11 -171 20 -196 12z"/>
<path d="M2450 815 c-8 -2 -32 -6 -52 -10 l-37 -6 -32 -99 c-18 -55 -30 -103
-27 -105 9 -10 170 46 263 90 94 45 131 75 122 98 -9 24 -172 45 -237 32z"/>
</g>
</svg>
