<?xml version="1.0" standalone="no"?>
<!DOCTYPE svg PUBLIC "-//W3C//DTD SVG 20010904//EN"
 "http://www.w3.org/TR/2001/REC-SVG-20010904/DTD/svg10.dtd">
<svg version="1.0" xmlns="http://www.w3.org/2000/svg"
 width="720.000000pt" height="544.000000pt" viewBox="0 0 720.000000 544.000000"
 preserveAspectRatio="xMidYMid meet">
<metadata>
Created by potrace 1.16, written by Peter Selinger 2001-2019
</metadata>
<g transform="translate(0.000000,544.000000) scale(0.100000,-0.100000)"
fill="#000000" stroke="none">
<path d="M3455 5260 c-176 -23 -349 -87 -485 -181 -88 -60 -232 -214 -284
-304 -51 -88 -58 -116 -26 -108 11 3 34 0 50 -7 23 -10 29 -17 25 -31 -5 -16
-1 -19 27 -18 31 1 31 1 8 9 -23 8 -23 8 8 9 23 1 32 -3 29 -11 -5 -17 -166
-16 -176 1 -5 7 -15 3 -32 -15 -23 -24 -24 -32 -24 -152 0 -114 -2 -130 -22
-162 -82 -127 -99 -214 -68 -335 56 -213 156 -291 425 -330 20 -3 51 -18 69
-33 l34 -28 -60 -57 c-62 -59 -103 -127 -103 -170 0 -30 -3 -32 -155 -99 -134
-58 -119 -63 25 -8 108 41 166 50 210 32 38 -15 146 -135 153 -168 7 -37 7
-37 -158 -98 -98 -36 -115 -30 -170 55 -24 38 -50 69 -57 69 -6 0 -52 20 -102
44 -128 63 -303 93 -386 66 -17 -5 4 -8 65 -9 187 -2 320 -45 367 -118 12 -20
31 -49 41 -64 15 -23 17 -39 11 -89 -5 -49 -9 -58 -20 -49 -8 6 -14 22 -14 35
0 22 -4 24 -51 24 -58 0 -68 8 -95 73 -23 57 -80 117 -128 133 -19 7 -68 18
-108 25 -106 18 -137 9 -325 -92 -35 -18 -63 -37 -63 -41 0 -9 99 29 120 46
26 22 104 46 149 46 53 0 109 -26 123 -55 7 -15 6 -40 -2 -79 -13 -62 -28 -70
-84 -41 -15 8 -53 15 -82 15 -30 0 -65 6 -77 14 -12 8 -61 17 -108 21 l-85 6
-91 -96 c-62 -66 -92 -92 -96 -82 -4 11 -19 14 -54 11 -44 -3 -45 -2 -13 6 35
8 35 8 -10 7 -39 -2 -45 -5 -45 -24 0 -12 -4 -25 -8 -29 -5 -6 -178 -56 -275
-81 -19 -5 -22 -1 -22 25 0 33 -14 42 -66 42 -58 0 -74 -14 -74 -65 l0 -44
-74 1 c-93 0 -133 -18 -138 -64 -2 -25 -9 -33 -33 -41 -16 -5 -97 -35 -180
-67 -82 -32 -222 -86 -310 -119 -87 -34 -170 -71 -182 -83 -25 -24 -28 -68
-14 -222 5 -64 11 -82 29 -96 12 -10 27 -20 33 -22 8 -3 55 -519 115 -1274 l6
-80 -40 -18 c-23 -10 -51 -29 -63 -42 -20 -21 -21 -30 -16 -96 5 -62 10 -76
32 -95 46 -40 110 -49 560 -78 450 -29 1695 -114 2195 -150 846 -61 1455 -107
1695 -127 227 -19 348 -22 952 -25 l691 -4 129 74 c241 139 508 298 522 312 9
9 16 43 19 93 l4 79 -37 31 -38 31 6 63 c13 130 38 457 66 881 l30 438 29 27
c28 26 30 32 36 142 12 204 12 208 -14 235 -14 15 -41 28 -74 34 -68 12 -452
42 -543 41 -56 0 -73 3 -73 14 0 11 -11 9 -49 -10 -53 -25 -67 -39 -51 -49 5
-3 10 -14 10 -24 0 -9 16 -32 35 -51 26 -25 35 -42 35 -66 0 -18 -4 -35 -9
-38 -5 -4 -7 2 -4 13 5 21 -33 71 -54 71 -8 0 -25 -13 -39 -29 -43 -52 -210
-116 -374 -146 -67 -12 -322 -44 -351 -45 -3 0 -6 -19 -5 -43 1 -41 2 -42 41
-48 27 -4 9 -7 -55 -8 l-95 -1 2 49 1 48 -146 7 c-419 19 -710 92 -813 203
-35 39 -40 49 -35 76 7 36 38 73 68 80 18 5 17 2 -7 -23 -136 -142 254 -299
753 -303 520 -5 790 33 940 133 64 43 87 82 76 126 -7 26 -44 34 -44 9 0 -8
-14 -29 -30 -47 l-31 -33 26 39 c32 49 32 60 -2 52 -16 -3 -66 -14 -113 -24
-47 -10 -87 -17 -89 -15 -10 7 12 16 97 37 113 29 118 32 95 59 -18 20 -18 20
9 3 34 -22 84 -18 80 7 -2 14 5 17 36 17 24 0 45 6 52 15 7 9 19 14 27 11 10
-4 13 7 13 45 0 48 -2 51 -35 65 -38 15 -147 19 -173 5 -11 -5 -59 0 -132 15
-177 36 -347 48 -680 48 -268 0 -321 -3 -432 -22 -70 -12 -132 -22 -138 -22
-5 0 -10 13 -10 28 0 40 -17 52 -71 52 -67 0 -79 -7 -79 -45 0 -61 -2 -63 -98
-58 -101 5 -135 -7 -140 -50 -3 -26 -16 -33 -44 -22 -10 4 8 28 57 79 61 62
77 85 104 154 28 74 36 100 63 215 5 20 15 37 22 37 7 0 26 10 41 22 24 19 38
21 114 18 252 -8 360 8 514 80 45 21 100 41 122 45 100 17 166 66 255 188 l35
48 67 -6 c104 -9 160 20 204 107 33 64 32 117 -2 149 -14 13 -44 50 -65 81
-30 43 -39 67 -39 98 0 92 -58 136 -165 127 -131 -12 -390 -81 -415 -112 -6
-8 -33 -26 -58 -41 -55 -31 -72 -50 -113 -126 -37 -68 -67 -82 -174 -83 -63 0
-75 3 -119 33 -86 58 -149 77 -256 77 -104 -1 -128 -10 -226 -89 -38 -30 -49
-33 -133 -39 -88 -5 -97 -8 -189 -60 -53 -29 -112 -59 -130 -66 -54 -22 -48
-4 8 24 29 15 59 32 67 38 43 36 83 80 82 90 0 8 -2 8 -6 0 -2 -7 -12 -13 -20
-13 -9 0 -14 -3 -10 -6 11 -11 -42 -54 -75 -61 -18 -3 -40 -10 -49 -14 -10 -5
-23 -3 -35 5 -10 8 -23 12 -30 9 -6 -2 -17 10 -24 28 -8 18 -16 27 -18 21 -2
-6 3 -23 11 -39 8 -15 17 -39 20 -53 6 -24 4 -26 -36 -27 -57 -2 -193 -21
-231 -33 l-31 -9 30 1 c17 0 41 -2 55 -5 14 -4 72 2 130 12 58 10 107 17 108
15 21 -17 -199 -64 -333 -71 -118 -6 -279 14 -351 42 l-39 16 28 -24 c21 -18
24 -26 15 -35 -7 -7 -18 -12 -25 -12 -7 0 -13 -4 -13 -10 0 -5 -6 -10 -14 -10
-19 0 -49 -48 -43 -71 6 -24 1 -24 -30 1 -31 24 -89 26 -139 5 l-36 -15 7 33
c9 37 56 105 114 161 l40 39 43 -27 43 -27 -40 36 c-22 20 -57 48 -78 62 -31
21 -49 49 -92 138 -53 111 -71 164 -119 347 -27 101 -33 208 -16 283 46 204
61 239 139 337 78 100 192 190 306 244 119 56 167 67 310 67 123 0 280 -28
315 -56 8 -7 33 -19 55 -26 89 -30 230 -152 260 -225 23 -54 37 -247 30 -406
-6 -116 -4 -163 10 -235 24 -125 30 -232 15 -250 -8 -9 -8 -15 -2 -15 6 0 12
5 14 12 6 18 28 -1 28 -25 0 -13 -22 -42 -57 -75 -32 -30 -49 -50 -38 -44 11
6 38 29 60 52 69 72 113 97 184 103 45 5 77 15 110 35 25 16 56 33 68 38 13 5
52 37 87 72 79 78 91 113 91 272 0 111 -1 117 -33 180 -19 36 -50 82 -70 103
-45 47 -152 130 -159 123 -12 -12 11 -48 40 -60 51 -23 154 -127 179 -182 19
-41 23 -66 23 -159 0 -139 -21 -217 -64 -240 -27 -14 -29 -13 -24 5 3 11 10
20 15 20 5 0 7 4 3 9 -3 5 6 26 20 47 22 33 25 47 25 129 0 105 -17 171 -54
216 -14 17 -26 37 -26 44 0 18 -48 55 -71 55 -10 0 -22 7 -27 15 -12 23 -36
10 -59 -33 -17 -31 -22 -62 -27 -187 -6 -150 0 -227 26 -320 l13 -50 54 1 c30
1 57 7 61 14 4 7 10 8 13 3 8 -12 -38 -56 -81 -77 -38 -20 -82 -18 -92 4 -65
132 -82 209 -84 380 -1 170 14 231 73 295 22 24 41 48 41 52 0 5 -27 8 -60 7
-65 -1 -68 7 -12 35 42 22 50 23 74 10 14 -8 19 -4 24 16 14 56 -26 153 -78
189 -21 15 -23 15 -26 0 -6 -28 -71 -2 -72 29 0 11 35 8 48 -5 9 -9 12 -9 12
0 0 6 -29 42 -64 79 -108 114 -282 210 -461 254 -93 23 -286 32 -390 19z
m-803 -868 c3 -21 -3 -60 -14 -92 -16 -49 -17 -67 -8 -172 11 -128 46 -259 86
-320 66 -103 77 -117 101 -123 15 -3 36 -13 47 -21 19 -13 19 -14 -16 -14 -45
0 -81 13 -131 47 -48 33 -76 79 -92 151 -7 31 -21 82 -30 112 -25 83 -32 288
-11 340 9 22 16 60 16 83 0 77 43 84 52 9z m2725 -480 c-8 -9 -41 -30 -71 -46
-31 -16 -56 -33 -56 -37 0 -4 10 -15 21 -23 44 -30 80 -116 49 -116 -5 0 -16
-12 -24 -27 -8 -16 -15 -22 -16 -15 0 7 -4 11 -8 8 -12 -7 -87 29 -110 54 -19
21 -20 25 -7 50 8 16 30 38 50 50 19 12 41 30 48 39 10 15 122 81 136 81 2 0
-3 -8 -12 -18z m-614 -197 c42 -21 77 -43 77 -48 0 -6 -30 -8 -75 -5 -41 3
-72 1 -70 -3 5 -8 -38 -41 -65 -51 -8 -3 -29 -33 -46 -66 -29 -57 -31 -59 -44
-41 -8 10 -20 19 -26 19 -7 0 -19 6 -26 14 -8 7 -27 14 -43 14 -17 0 -45 4
-63 7 -20 5 -38 3 -46 -4 -11 -9 -15 -9 -19 1 -2 7 -8 0 -12 -16 -5 -17 -4
-42 3 -58 6 -15 6 -26 1 -23 -4 3 -14 23 -20 43 -15 52 2 113 48 162 70 79
133 101 268 96 69 -2 90 -8 158 -41z m367 -51 c0 -8 5 -12 10 -9 6 3 10 -1 10
-9 0 -19 17 -21 22 -4 3 7 7 2 10 -10 4 -12 3 -20 -1 -18 -4 3 -5 -22 -3 -55
3 -34 0 -70 -6 -82 -6 -12 -12 -33 -14 -45 -3 -23 -4 -23 -27 9 -20 27 -26 48
-29 116 -5 87 2 138 18 128 6 -3 10 -13 10 -21z m-40 -8 c0 -7 -13 -27 -29
-44 -26 -27 -51 -85 -51 -119 0 -6 -7 -24 -14 -40 -8 -15 -17 -36 -20 -45 -7
-22 -63 -38 -163 -45 -66 -5 -85 -3 -97 10 -46 46 27 196 118 244 16 8 77 22
134 29 58 8 108 16 110 19 9 8 12 6 12 -9z m-850 -176 c-11 -125 16 -275 65
-371 15 -27 5 -49 -22 -49 -7 0 -10 -7 -7 -17 12 -35 -46 63 -67 115 -12 29
-24 51 -26 48 -3 -2 14 -50 37 -106 22 -57 38 -105 35 -108 -3 -3 -5 -1 -5 5
0 6 -11 8 -25 5 -14 -2 -25 -11 -25 -18 0 -8 -4 -13 -8 -12 -4 2 -31 -19 -60
-46 -120 -113 -160 -127 -272 -91 -52 16 -104 25 -146 25 -59 0 -64 2 -65 23
-1 20 -2 19 -11 -5 -7 -21 -16 -28 -36 -28 -15 0 -47 -9 -71 -20 -24 -11 -48
-20 -54 -20 -5 0 -32 20 -59 46 -26 25 -53 42 -58 39 -6 -4 -8 -11 -5 -16 4
-5 -3 -9 -15 -9 -35 0 -81 114 -90 225 -4 49 -8 82 -9 72 0 -11 -9 -31 -20
-45 -28 -41 -34 -104 -15 -175 17 -68 36 -103 99 -187 86 -114 90 -167 5 -65
-95 115 -149 304 -137 482 5 87 21 143 39 143 5 0 7 -13 3 -30 -6 -25 -3 -30
18 -35 18 -5 23 -12 20 -26 -3 -10 0 -19 6 -19 6 0 11 9 11 20 0 12 10 25 24
32 21 9 29 7 57 -16 22 -18 39 -26 53 -22 12 3 35 6 51 6 l30 1 -32 14 c-18 8
-33 19 -33 24 0 6 17 2 38 -8 20 -11 62 -24 93 -31 72 -14 163 5 258 55 65 35
179 122 173 133 -1 3 5 7 14 8 8 1 24 10 33 18 10 9 24 16 33 16 8 0 32 11 52
25 20 14 42 25 48 25 6 0 8 3 4 7 -5 5 72 51 80 48 0 0 -3 -38 -6 -85z m1427
-27 c-49 -61 -129 -139 -166 -161 -32 -19 -62 -26 -116 -30 -43 -3 -75 0 -79
6 -3 5 0 10 7 9 33 -1 44 5 60 33 10 17 26 30 35 30 28 1 107 44 107 58 0 8
23 22 52 32 29 10 62 25 74 34 27 18 44 11 26 -11z m-3532 -515 c49 -24 55
-36 28 -60 -25 -22 -109 -49 -129 -41 -14 5 -16 3 -9 -13 22 -53 18 -63 -34
-116 -28 -28 -51 -52 -51 -54 0 -2 11 -4 25 -4 14 0 25 4 25 10 0 13 84 131
109 154 40 37 32 7 -13 -48 -25 -31 -53 -70 -61 -87 -18 -34 -50 -49 -106 -49
-50 0 -51 14 -5 113 27 61 39 76 65 85 22 8 31 17 31 32 0 26 50 99 67 100 7
0 33 -10 58 -22z m1090 -144 c18 -39 50 -90 70 -113 32 -35 35 -42 20 -47 -9
-4 -30 0 -45 10 -36 21 -88 21 -112 -1 -19 -17 -21 -17 -50 0 -20 12 -63 20
-125 24 l-94 6 3 35 c2 22 9 36 18 37 71 11 132 42 196 102 66 62 69 63 78 41
5 -13 23 -55 41 -94z m-1329 53 c2 -7 -8 -44 -24 -82 -16 -39 -27 -75 -25 -82
3 -7 -4 -9 -18 -6 -15 4 -27 -1 -40 -18 -22 -29 -27 -24 -30 26 -2 47 35 151
59 165 24 14 72 12 78 -3z m574 -23 c24 -63 4 -133 -34 -118 -12 4 -16 0 -16
-15 0 -23 -19 -28 -38 -9 -13 13 -17 149 -5 161 3 4 24 7 45 7 32 0 40 -4 48
-26z m3285 -158 c159 -17 365 -54 418 -75 33 -13 36 -41 5 -41 -13 0 -47 9
-77 21 -84 31 -203 57 -356 76 -195 24 -614 24 -775 -1 -63 -9 -123 -19 -132
-22 -10 -3 -18 -1 -18 4 0 10 199 41 330 52 135 11 431 4 605 -14z m-3085 -43
c0 -22 -53 -74 -100 -98 -76 -39 -264 -81 -465 -106 l-185 -23 0 -37 c0 -36 2
-38 38 -42 20 -2 1 -4 -43 -5 l-80 -2 0 42 0 43 -175 11 c-314 20 -481 58
-553 126 -34 32 -38 41 -33 65 7 27 41 62 61 63 6 0 -3 -10 -19 -23 -38 -31
-38 -71 0 -102 36 -29 177 -70 313 -90 133 -20 377 -24 409 -6 35 19 17 31
-45 31 -115 0 -42 8 122 13 131 4 152 3 90 -4 -44 -5 -91 -12 -104 -15 l-24
-5 29 -16 c23 -12 49 -14 124 -9 238 16 387 46 505 101 90 42 120 73 112 117
-7 33 -7 33 8 8 8 -14 14 -30 15 -37z m2906 -98 c239 -46 113 -134 -194 -135
-176 0 -307 38 -289 84 8 20 65 45 127 56 79 13 275 11 356 -5z m-4910 -33
c-3 -5 -34 -17 -68 -27 -56 -15 -187 -71 -258 -110 -35 -19 -37 -43 -5 -55 15
-6 124 -17 243 -26 363 -27 406 -31 342 -33 -80 -4 -31 -16 117 -30 168 -15
681 -44 695 -38 15 5 -54 11 -297 29 -93 7 -161 14 -150 16 17 4 191 -6 680
-38 83 -5 193 -12 245 -16 52 -3 120 -9 150 -13 l55 -8 -47 -2 c-49 -1 -79
-21 -33 -21 27 0 120 -6 520 -35 110 -8 288 -19 395 -25 107 -6 205 -13 217
-16 13 -2 123 -9 245 -14 123 -5 259 -12 303 -15 54 -3 73 -2 60 4 -11 5 -47
11 -80 12 -45 2 -50 3 -22 6 34 4 234 -8 650 -39 87 -6 152 -15 145 -18 -7 -4
-40 -4 -73 1 -82 10 -137 11 -131 1 5 -9 197 -24 523 -42 208 -12 229 -11 138
5 -65 12 -58 13 110 8 99 -2 234 -8 300 -13 609 -47 673 -41 831 78 85 64 441
294 404 261 -23 -20 -28 -28 -15 -24 37 12 56 14 50 4 -13 -20 15 -7 81 40
114 79 119 102 26 108 -146 8 -266 23 -276 33 -8 8 -7 10 4 6 8 -3 82 -10 164
-15 150 -10 196 -23 196 -55 0 -14 -100 -87 -395 -289 -88 -60 -182 -125 -208
-144 -26 -19 -69 -43 -95 -53 l-47 -18 -7 -108 c-4 -60 -10 -114 -13 -121 -2
-7 -19 -13 -38 -13 -31 0 -33 2 -31 28 2 15 5 66 7 115 l5 87 -117 0 c-64 0
-210 7 -326 15 -115 8 -286 19 -380 25 -522 33 -826 52 -1040 65 -380 23
-2004 133 -2650 180 -110 8 -240 17 -290 20 -49 3 -182 12 -295 20 -113 8
-335 19 -495 25 -159 6 -305 13 -322 16 l-33 5 1 -73 c1 -40 4 -86 8 -102 6
-27 8 -29 76 -33 39 -2 93 -8 120 -13 28 -5 103 -14 168 -21 65 -6 116 -13
114 -15 -5 -5 -396 13 -477 22 -86 9 -129 23 -144 47 -8 13 -16 68 -20 139 -6
111 -6 119 14 135 19 17 471 194 479 187 1 -1 0 -7 -3 -12z m3088 -208 c23 -9
20 -27 -12 -57 -27 -26 -31 -27 -106 -20 -91 7 -106 23 -60 60 24 19 41 23 96
23 36 0 73 -3 82 -6z m-1936 -426 c32 -16 52 -34 65 -59 16 -33 16 -39 2 -71
-8 -20 -39 -58 -70 -85 -55 -50 -60 -63 -21 -63 36 0 83 -36 102 -79 29 -62
49 -54 78 32 9 27 37 98 63 158 42 101 49 110 70 106 13 -2 31 2 40 9 10 7 26
14 36 14 9 0 17 5 17 10 0 6 5 10 10 10 6 0 10 -9 10 -20 0 -11 4 -28 9 -38 5
-9 15 -55 21 -102 19 -132 27 -160 51 -160 15 0 19 -5 16 -15 -4 -8 -2 -17 2
-20 5 -2 14 16 20 41 38 150 176 276 285 260 75 -12 104 -65 80 -146 -9 -31
-19 -48 -26 -44 -5 4 -13 1 -17 -5 -13 -21 -40 0 -47 35 -8 45 -33 45 -79 -1
-47 -47 -76 -107 -82 -169 -4 -43 -1 -56 18 -80 19 -24 27 -28 60 -23 20 3 64
23 98 46 34 23 61 40 61 37 0 -3 -4 -16 -10 -30 -12 -34 8 -35 38 -3 16 17 26
57 46 174 28 167 42 209 62 192 9 -7 15 -5 22 7 6 10 16 15 26 11 9 -4 16 -2
16 3 0 18 15 10 26 -15 9 -18 8 -40 -2 -91 -8 -37 -13 -68 -11 -70 2 -2 41 29
87 69 104 89 147 120 158 113 5 -3 20 6 32 19 13 14 28 25 34 25 5 0 -4 -15
-22 -33 -36 -37 -41 -53 -13 -37 27 14 36 13 22 -4 -6 -7 -9 -20 -6 -28 5 -14
-34 -56 -115 -122 -19 -16 -54 -46 -78 -68 l-43 -39 97 -120 c53 -66 99 -118
101 -115 2 2 -1 13 -8 23 -12 20 -4 102 8 89 3 -3 12 -1 20 5 7 6 13 8 13 4 0
-4 6 -3 13 3 10 9 16 4 26 -23 8 -23 21 -37 37 -41 58 -15 149 22 149 61 0 12
-31 33 -100 69 -103 54 -145 95 -145 141 0 85 196 206 294 181 41 -10 76 -50
76 -86 0 -33 -27 -96 -37 -86 -3 3 -12 -2 -19 -12 -13 -16 -13 -16 -14 0 0 11
-5 15 -15 12 -11 -5 -15 1 -15 25 0 36 -11 38 -70 15 -41 -17 -69 -50 -53 -64
4 -4 41 -25 82 -46 41 -22 94 -57 118 -80 35 -33 43 -47 43 -77 0 -41 -42 -97
-93 -124 -77 -39 -229 -82 -204 -56 7 6 -84 53 -92 47 -2 -1 18 -30 44 -63 25
-34 44 -61 42 -61 -2 0 -28 18 -57 40 -57 43 -85 53 -55 20 26 -28 13 -34 -19
-9 -22 17 -36 20 -74 16 -42 -5 -44 -5 -19 5 15 7 27 15 27 20 0 4 -24 31 -53
60 -29 29 -74 77 -99 105 l-46 53 -10 -43 c-6 -23 -14 -66 -18 -95 -4 -29 -11
-55 -17 -59 -6 -4 -8 2 -5 15 4 12 3 22 -1 22 -10 0 -29 -39 -34 -70 -3 -19
-5 -16 -6 10 -1 19 -6 42 -11 50 -9 13 -11 13 -21 0 -8 -11 -9 4 -6 58 l4 74
-66 -65 c-68 -66 -127 -107 -153 -107 -25 0 -102 38 -130 63 -21 19 -44 69
-64 136 -4 13 -7 13 -19 0 -13 -14 -11 -53 10 -144 5 -24 4 -27 -5 -15 -9 12
-11 3 -7 -40 l5 -55 -19 45 c-14 31 -22 41 -28 31 -6 -10 -11 -6 -19 15 -7 21
-11 24 -11 10 -2 -33 -14 -9 -31 62 -19 75 -17 75 -122 51 -46 -11 -47 -12
-69 -74 -14 -38 -28 -61 -35 -58 -6 2 -18 -10 -25 -26 -18 -39 -25 -39 -33 1
-6 30 -7 31 -21 12 -19 -25 -19 -10 1 56 11 38 13 55 5 58 -6 2 -8 9 -5 15 4
7 -17 -11 -47 -40 -30 -28 -85 -72 -124 -97 -38 -25 -63 -46 -55 -47 8 0 -16
-16 -54 -35 -76 -37 -80 -39 -71 -24 3 6 -1 10 -9 10 -9 0 -18 -12 -22 -27
-10 -46 -12 -49 -13 -19 -1 24 -3 27 -16 16 -10 -8 -15 -33 -16 -74 l-2 -61
-10 58 c-11 59 -22 73 -30 35 l-4 -23 -8 23 c-4 12 -8 22 -9 22 -1 0 -16 -4
-34 -9 -20 -6 -32 -6 -32 0 0 5 5 9 10 9 6 0 10 5 10 10 0 6 -9 10 -20 10 -25
0 -25 9 -2 26 14 11 15 15 3 23 -11 7 -4 14 28 30 23 12 44 27 46 34 2 7 5 58
8 115 3 81 1 102 -10 102 -12 0 -18 25 -14 58 1 6 -4 12 -11 12 -7 0 0 9 17
20 35 23 42 41 51 125 l7 65 -59 -24 c-32 -13 -63 -21 -68 -18 -6 3 -5 7 2 10
20 6 14 32 -8 32 -10 0 -42 -9 -70 -20 -75 -29 -74 -24 3 16 37 19 67 39 67
45 0 5 -4 7 -10 4 -21 -13 -9 13 13 27 36 24 155 69 221 84 87 20 204 12 264
-18z m-1419 -268 c6 -74 16 -187 21 -249 20 -220 39 -467 45 -571 3 -58 8
-116 11 -130 4 -16 2 -21 -4 -15 -5 6 -15 60 -21 120 -27 265 -82 997 -80
1059 2 47 16 -59 28 -214z m3891 213 c0 -4 7 -57 15 -118 9 -60 18 -129 21
-152 4 -33 9 -42 27 -45 15 -2 21 -9 19 -20 -6 -36 16 -16 33 30 53 140 200
262 317 262 65 0 95 -14 114 -52 14 -31 14 -37 -4 -83 -14 -34 -25 -49 -36
-47 -9 2 -16 -2 -16 -8 0 -6 -7 -6 -20 2 -12 8 -20 24 -20 40 0 32 -12 35 -61
14 -42 -18 -93 -67 -131 -125 -51 -80 -32 -181 33 -181 44 0 129 47 129 72 0
4 -20 8 -45 8 -33 0 -45 4 -46 15 -4 67 -4 69 30 76 17 4 75 10 128 14 l95 7
-5 -33 c-3 -19 -18 -72 -35 -119 -16 -47 -38 -112 -47 -145 -14 -46 -20 -55
-26 -40 -6 17 -9 15 -23 -17 -9 -21 -16 -44 -16 -53 0 -8 -4 -15 -9 -15 -5 0
-6 20 -3 45 5 45 -11 64 -22 28 -3 -10 -4 6 -2 35 2 28 2 52 1 52 -1 0 -23
-11 -49 -25 -54 -29 -71 -30 -119 -10 -74 31 -127 97 -127 160 0 20 -5 25 -23
25 -23 0 -23 -2 -16 -47 4 -27 8 -64 8 -83 0 -29 -2 -32 -10 -15 -7 14 -8 3
-5 -37 5 -63 -8 -79 -18 -23 -4 22 -11 32 -20 29 -7 -3 -18 5 -24 18 -6 13
-11 17 -11 11 -1 -7 -5 -13 -10 -13 -5 0 -12 21 -16 48 -14 100 -9 95 -84 87
-36 -3 -74 -9 -84 -11 -9 -3 -33 -36 -52 -72 -19 -37 -34 -61 -35 -54 -1 26
-21 10 -45 -35 -22 -41 -25 -43 -20 -18 5 32 -12 71 -22 48 -2 -7 -8 -13 -13
-13 -5 0 2 26 15 58 18 43 21 59 12 67 -16 13 -20 55 -6 55 8 0 8 4 -1 15 -10
12 -7 15 17 20 15 4 31 7 35 8 3 1 33 55 65 120 l59 117 -39 0 c-21 0 -69 -5
-107 -11 l-68 -12 -15 -56 c-9 -31 -25 -99 -38 -151 -35 -151 -57 -228 -58
-197 -1 41 -13 33 -44 -31 l-28 -57 6 51 c4 33 3 54 -4 59 -6 3 -11 1 -11 -4
0 -6 -5 -11 -11 -11 -7 0 -9 15 -4 43 8 57 55 297 62 321 6 20 15 20 -119 -1
-30 -4 -39 -3 -34 6 4 6 2 18 -4 26 -10 12 -10 18 -1 29 9 11 9 15 -1 19 -10
4 -10 8 3 21 10 11 47 20 105 28 49 6 95 16 102 21 15 11 232 20 276 11 28 -6
29 -7 11 -20 -17 -13 -17 -14 0 -20 15 -6 13 -9 -11 -20 l-29 -12 40 -1 c36
-1 42 3 60 35 14 27 23 34 40 30 20 -5 87 13 101 27 10 9 24 9 24 0z m1100
-102 c4 -7 19 -13 33 -15 45 -5 41 -14 -7 -21 -47 -7 -86 -35 -50 -35 15 0 16
-2 5 -9 -8 -5 -51 -12 -95 -15 -167 -13 -173 -15 -179 -44 -3 -15 -9 -35 -13
-45 -6 -17 -1 -18 57 -17 35 1 80 1 99 0 32 -1 33 -2 15 -12 -19 -12 -19 -12
5 -19 25 -6 25 -7 -8 -19 -21 -8 -30 -15 -22 -20 18 -11 -9 -18 -103 -26 l-85
-7 -12 -41 c-6 -22 -11 -45 -11 -50 1 -5 70 -8 154 -7 88 1 158 -3 167 -9 11
-7 7 -10 -20 -10 -64 -1 -10 -20 60 -21 70 -2 62 -4 -44 -14 -66 -7 -77 -19
-26 -28 20 -3 18 -5 -10 -6 -41 -3 -316 -30 -345 -34 -11 -2 -23 -15 -26 -28
-7 -23 -7 -23 -8 -2 -1 17 -8 22 -33 25 -22 2 -32 9 -35 23 -13 70 -12 74 10
77 16 2 25 16 38 58 13 41 14 57 6 65 -19 16 -9 73 14 80 20 7 30 25 43 78 5
22 3 27 -13 27 -24 0 -36 16 -20 26 8 5 8 8 0 13 -18 12 10 59 44 73 58 24
401 31 415 9z m-2641 -566 c33 -10 69 -31 89 -51 l34 -34 -19 -32 c-13 -23
-45 -46 -103 -77 -59 -32 -79 -47 -65 -49 61 -10 127 -35 154 -58 24 -20 31
-34 31 -62 0 -31 -8 -44 -53 -87 -60 -56 -109 -83 -241 -131 -60 -22 -77 -32
-51 -28 64 11 37 -2 -67 -30 -54 -15 -106 -29 -115 -32 -10 -2 0 4 22 15 35
18 36 20 10 14 -95 -20 -109 -27 -122 -68 l-11 -40 -1 38 c-1 35 -2 36 -21 25
-11 -7 -23 -28 -26 -48 -16 -99 -23 -114 -18 -37 4 71 3 78 -13 75 -9 -2 -20
-14 -24 -28 -6 -21 -7 -22 -8 -4 -1 11 -6 25 -13 32 -9 9 -3 12 27 12 22 0 60
7 85 16 25 9 108 34 184 55 134 38 300 98 293 106 -2 2 -34 -8 -70 -22 -38
-14 -67 -20 -67 -14 0 5 -4 8 -9 4 -5 -3 -13 -1 -16 5 -4 6 -16 8 -27 4 -11
-3 -30 -1 -43 6 -18 10 -37 7 -106 -14 -47 -14 -90 -26 -96 -26 -6 0 -3 15 8
37 19 38 28 92 10 64 -6 -10 -21 -12 -50 -8 -47 6 -55 -2 -65 -56 -5 -29 -4
-37 5 -32 7 5 10 3 7 -5 -4 -14 -20 -20 -97 -40 -30 -8 -40 -14 -31 -20 7 -4
9 -13 6 -19 -4 -6 -2 -11 4 -11 6 0 9 -4 6 -8 -3 -4 -22 -6 -43 -4 -33 4 -35
6 -15 13 24 9 30 29 10 29 -22 1 23 22 71 35 42 10 46 14 54 51 5 21 18 68 28
103 24 79 24 81 -3 82 -22 0 -22 1 -3 9 17 7 17 9 3 9 -10 1 -18 5 -18 10 0 5
8 12 18 16 16 7 15 8 -3 15 -20 8 -15 12 50 34 6 2 23 39 38 81 l27 78 -37 -7
c-53 -10 -122 -16 -100 -10 23 7 22 20 -4 27 -21 6 -21 7 7 32 l29 25 -30 -6
c-29 -6 -29 -5 -10 9 11 8 63 24 115 36 123 26 402 24 489 -4z m871 -4 c41 4
111 8 155 7 l80 0 -50 -13 c-43 -11 -46 -13 -20 -15 30 -2 30 -2 5 -10 -39
-12 40 -12 215 1 104 8 161 8 185 1 26 -7 29 -10 13 -11 -36 -2 -27 -21 10
-22 29 -1 27 -3 -23 -19 -42 -14 -49 -18 -27 -19 57 -2 24 -19 -50 -25 -187
-16 -182 -15 -204 -57 -10 -21 -19 -41 -19 -45 0 -4 39 -4 88 -1 48 4 96 2
107 -3 19 -8 19 -9 -3 -9 -29 -1 -19 -21 11 -22 20 -1 21 -2 2 -6 -11 -3 -31
-10 -45 -16 l-25 -10 25 -7 c18 -4 1 -9 -55 -14 -146 -12 -149 -14 -161 -49
-6 -18 -14 -40 -19 -49 -8 -21 3 -21 175 -9 58 4 130 4 160 0 45 -5 48 -6 18
-8 -80 -3 -26 -29 66 -32 24 -1 7 -5 -39 -9 -44 -4 -93 -11 -109 -15 -21 -6
-27 -5 -22 4 4 6 16 11 27 11 10 0 19 5 19 10 0 6 -12 10 -26 10 -14 0 -23 4
-19 10 7 11 -44 12 -178 2 -49 -4 -90 -6 -92 -4 -2 2 1 17 5 33 8 26 6 31 -13
38 -12 5 -25 7 -29 4 -5 -2 -8 1 -8 6 0 6 -6 11 -14 11 -14 0 -36 -49 -36 -81
0 -21 -53 -52 -78 -47 -11 3 -4 8 19 16 31 11 38 19 52 66 21 64 21 70 3 63
-15 -6 -17 27 -2 51 5 8 1 10 -11 7 -10 -3 1 4 24 15 34 17 45 28 54 61 10 33
10 42 0 49 -8 4 -10 13 -7 19 4 6 2 11 -4 11 -6 0 -8 5 -4 11 4 8 -3 9 -22 6
-16 -3 -59 -9 -95 -12 l-67 -6 -62 -167 c-79 -208 -109 -281 -109 -262 0 8 7
33 15 55 9 22 23 65 33 96 l18 55 -49 1 c-30 1 -54 -4 -63 -13 -8 -8 -26 -52
-40 -97 -24 -79 -45 -124 -45 -101 0 6 25 85 56 175 30 90 60 179 66 196 6 18
9 35 7 38 -3 2 -34 0 -70 -5 -146 -22 -136 -22 -116 -7 15 13 16 16 2 27 -14
12 -14 15 2 32 15 16 15 21 3 28 -22 14 23 27 141 40 57 7 109 16 114 20 14
11 58 17 70 9 6 -3 44 -2 85 2z m1010 -19 c19 -9 37 -26 39 -37 2 -11 8 -23
14 -27 18 -11 -28 -99 -48 -91 -11 4 -18 -2 -22 -17 l-6 -24 -9 23 c-7 19 -11
21 -22 11 -12 -9 -15 -6 -18 22 -4 41 -21 45 -92 23 -66 -21 -116 -58 -100
-75 6 -6 59 -29 117 -50 134 -50 221 -93 241 -122 18 -25 21 -74 6 -83 -5 -3
-10 -14 -10 -23 0 -10 -14 -23 -32 -31 -45 -20 -24 -24 68 -12 72 9 94 8 83
-3 -2 -2 -51 -9 -109 -15 -91 -9 -122 -18 -233 -65 -70 -29 -128 -57 -128 -62
0 -5 -33 -21 -72 -36 -82 -32 -80 -32 -71 -17 9 16 -20 6 -156 -52 -131 -55
-162 -57 -44 -3 43 21 74 39 69 41 -6 2 -82 -22 -169 -52 -87 -30 -164 -55
-170 -55 -15 1 55 39 73 40 7 0 39 11 70 24 91 38 200 68 222 61 16 -5 19 -4
14 5 -6 10 -2 11 16 7 26 -7 178 42 324 104 l80 34 -50 6 c-27 3 -64 12 -82
18 -24 10 -37 10 -54 1 -12 -7 -79 -36 -148 -65 -69 -29 -144 -61 -166 -70
-71 -30 -23 0 60 37 387 175 435 200 435 223 0 18 -48 42 -165 84 -202 71
-239 126 -148 215 97 95 305 152 393 108z m-1493 -155 c-19 -56 -50 -145 -67
-197 -40 -117 -61 -172 -71 -184 -10 -11 4 41 36 138 14 43 24 81 21 83 -2 3
-7 -4 -11 -15 -5 -17 -10 -19 -36 -12 -52 15 -76 -2 -94 -67 -33 -123 -43
-150 -44 -121 -1 15 13 72 29 125 17 54 44 143 61 198 40 130 68 193 79 175 6
-10 14 -11 37 -2 48 19 67 19 82 -1 12 -16 9 -32 -22 -120z m-2079 80 c17 -12
15 -66 -3 -73 -9 -4 -49 -3 -90 1 l-75 7 0 37 c0 21 2 40 4 42 7 7 150 -5 164
-14z m-245 -101 c4 -6 6 -24 5 -41 -3 -28 -6 -30 -50 -33 -26 -2 -65 2 -87 8
-37 10 -41 14 -41 44 0 18 3 36 7 40 11 11 157 -5 166 -18z m238 -16 c12 -7
19 -21 19 -40 0 -24 -6 -33 -32 -44 -25 -11 -28 -15 -12 -15 28 -1 44 -20 44
-53 0 -37 -15 -42 -102 -31 l-73 8 -3 37 -3 37 48 3 48 3 -45 15 c-42 14 -45
18 -48 53 l-3 37 71 0 c39 0 80 -5 91 -10z m-247 -86 c11 -4 16 -19 16 -47 l0
-40 -82 7 c-44 4 -85 9 -90 12 -4 3 -8 21 -8 40 l0 34 74 0 c41 0 81 -3 90 -6z
m4939 -60 c35 -6 37 -8 37 -45 l0 -39 -57 0 c-32 0 -75 3 -95 6 -35 6 -38 9
-38 39 0 17 3 35 7 38 8 9 96 9 146 1z m-25 -121 c57 -6 68 -17 58 -58 -6 -22
-12 -25 -50 -25 -24 0 -64 3 -90 6 -44 6 -46 8 -46 39 0 17 3 35 7 38 8 9 52
9 121 0z m-2406 -99 l-18 -49 340 -2 c188 -1 357 -6 376 -11 23 -6 -51 -8
-215 -4 -430 8 -861 -22 -1114 -78 -92 -20 -161 -45 -96 -35 133 22 497 66
615 74 80 5 294 9 475 9 309 -1 319 -2 160 -9 -248 -12 -492 -37 -634 -64
-119 -24 -161 -26 -110 -7 42 16 244 53 336 62 75 8 65 8 -67 5 -168 -5 -410
-30 -656 -70 -85 -14 -171 -25 -192 -25 -31 0 -34 2 -22 14 41 40 376 103 635
121 154 10 151 9 169 62 9 26 16 60 17 77 l1 31 9 -26 c7 -20 5 -39 -9 -75z
m-2979 27 c-11 -42 67 -61 312 -77 55 -3 132 -12 170 -19 39 -8 99 -16 135
-19 36 -4 108 -10 160 -15 52 -6 239 -20 415 -33 176 -13 310 -24 298 -26 -12
-2 -167 6 -345 18 -548 35 -788 49 -928 52 -133 3 -135 3 -138 -19 -5 -35 -41
-30 -48 6 -5 22 -15 33 -43 44 -42 17 -49 10 -50 -56 -1 -23 -5 -36 -11 -32
-5 3 -10 41 -10 85 l0 78 38 15 c48 21 51 21 45 -2z m6657 -22 c9 -15 1 -23
-52 -52 -35 -19 -186 -103 -336 -186 -151 -83 -299 -160 -330 -171 -31 -10
-56 -24 -55 -30 2 -5 -2 -10 -7 -10 -5 0 -9 -3 -9 -7 1 -5 1 -19 0 -33 -1 -20
-3 -22 -11 -10 -9 13 -11 13 -20 0 -7 -11 -10 -6 -10 20 l0 36 -292 17 c-870
53 -1255 77 -1273 81 -48 8 61 4 370 -14 847 -51 877 -52 1062 -42 98 5 192 8
209 5 22 -3 54 6 107 30 75 35 217 121 217 132 0 4 -6 3 -12 -1 -7 -4 -11 -5
-8 -1 3 3 30 19 60 35 30 16 88 48 128 70 40 22 69 36 66 30 -14 -22 119 38
171 78 19 14 19 16 3 28 -22 16 -23 27 -3 20 9 -4 20 -15 25 -25z m-1480 -8
c21 -6 25 -13 25 -41 0 -34 -1 -35 -45 -38 -25 -1 -65 1 -90 6 -36 6 -46 12
-48 30 -7 45 3 52 70 51 35 -1 74 -4 88 -8z m258 -23 c20 -20 15 -66 -8 -73
-31 -10 -158 6 -171 21 -6 8 -8 25 -5 39 6 24 9 25 89 25 51 0 88 -5 95 -12z"/>
<path d="M204 2235 c-7 -29 5 -193 14 -199 4 -2 22 -7 40 -11 l32 -7 0 89 c0
113 -5 129 -42 142 -40 14 -37 15 -44 -14z"/>
<path d="M1625 1494 c-11 -3 -30 -7 -42 -9 -22 -5 -24 -14 -50 -189 l-5 -38
63 35 c135 76 202 159 150 186 -23 13 -89 21 -116 15z"/>
<path d="M2469 1053 c-15 -4 -74 -133 -61 -133 4 0 41 11 82 25 93 32 185 77
184 90 -2 19 -154 32 -205 18z"/>
<path d="M2440 813 c-78 -8 -76 -6 -111 -113 -18 -54 -31 -102 -28 -105 9 -8
185 53 272 94 97 47 133 76 117 96 -21 25 -145 39 -250 28z"/>
<path d="M3885 4461 c-40 -10 -161 -59 -205 -82 -90 -47 -226 -92 -353 -115
-88 -16 -106 -16 -404 2 l-92 6 -15 -31 c-32 -61 -13 -196 50 -353 73 -184
179 -296 294 -313 47 -6 89 5 215 59 92 39 183 50 297 38 77 -8 114 -8 179 4
142 25 221 79 275 190 28 58 29 62 28 214 -1 131 -4 164 -22 214 -26 71 -63
130 -96 151 -28 19 -109 27 -151 16z m-9 -311 c6 -36 24 -67 24 -41 0 6 20 11
45 11 57 0 58 -16 3 -28 l-43 -10 38 -1 c42 -1 72 -23 63 -46 -3 -8 -1 -15 4
-15 12 0 9 -22 -5 -32 -6 -5 -5 -8 3 -8 22 0 13 -20 -10 -21 -18 -1 -16 -3 10
-10 17 -5 32 -14 32 -19 0 -14 -42 -39 -79 -46 -17 -4 -49 -15 -69 -25 -20
-11 -51 -19 -70 -19 -18 0 -53 -5 -77 -11 -60 -15 -97 -5 -93 24 1 12 0 27 -3
32 -4 6 -10 27 -13 49 l-7 38 66 -7 c54 -5 66 -4 63 7 -3 8 -16 12 -34 10 -16
-1 -42 2 -59 7 -29 9 -29 9 15 11 25 1 49 2 53 1 11 -2 -3 93 -14 97 -13 5
-11 48 4 60 17 14 75 30 114 31 31 1 33 -2 39 -39z m-714 -133 c3 -30 6 -32
48 -35 59 -4 77 -22 25 -23 l-40 -1 42 -11 c47 -14 66 -27 37 -27 -15 -1 -12
-5 11 -17 18 -10 25 -18 17 -21 -10 -3 -10 -7 -1 -18 6 -7 9 -19 6 -26 -2 -7
2 -20 10 -29 7 -9 11 -23 8 -31 -9 -22 -124 -40 -230 -36 -88 3 -90 3 -91 28
0 14 -8 36 -17 51 -9 14 -18 39 -20 55 -2 16 -6 35 -10 41 -4 7 -3 14 3 18 13
8 52 -14 45 -26 -4 -5 3 -9 14 -9 11 0 23 5 26 10 3 6 2 10 -4 10 -6 0 -8 6
-5 14 3 8 1 17 -5 21 -6 3 -11 15 -11 26 0 10 -4 19 -9 19 -5 0 -11 11 -13 24
-5 22 -1 25 31 28 20 2 57 1 83 0 44 -4 47 -5 50 -35z"/>
</g>
</svg>
