<?xml version="1.0" standalone="no"?>
<!DOCTYPE svg PUBLIC "-//W3C//DTD SVG 20010904//EN"
 "http://www.w3.org/TR/2001/REC-SVG-20010904/DTD/svg10.dtd">
<svg version="1.0" xmlns="http://www.w3.org/2000/svg"
 width="720.000000pt" height="544.000000pt" viewBox="0 0 720.000000 544.000000"
 preserveAspectRatio="xMidYMid meet">
<metadata>
Created by potrace 1.16, written by Peter Selinger 2001-2019
</metadata>
<g transform="translate(0.000000,544.000000) scale(0.100000,-0.100000)"
fill="#000000" stroke="none">
<path d="M4195 5254 c-99 -17 -216 -55 -312 -101 -73 -35 -91 -53 -52 -53 23
0 58 -36 59 -61 0 -9 7 -20 16 -23 24 -9 6 -26 -28 -26 -26 0 -29 2 -18 15 11
13 8 15 -13 15 -27 0 -57 23 -57 44 0 8 -14 13 -34 14 -54 2 -144 -78 -146
-129 0 -8 -14 -34 -31 -57 -22 -31 -41 -44 -72 -53 -118 -31 -206 -123 -247
-258 -19 -61 -22 -88 -17 -152 8 -101 36 -160 127 -266 54 -64 79 -85 110 -94
22 -7 42 -19 45 -28 3 -9 12 -42 20 -74 18 -69 52 -138 94 -191 l31 -39 -22
-16 c-12 -8 -42 -16 -67 -18 -24 -1 -48 -6 -51 -10 -17 -18 -20 -51 -6 -65 12
-13 11 -19 -7 -47 -16 -26 -22 -30 -29 -18 -9 18 -39 12 -83 -15 -16 -10 -47
-26 -68 -36 -32 -15 -37 -20 -32 -42 5 -17 -6 -7 -34 31 -46 64 -83 84 -141
76 -22 -3 -40 -1 -40 3 0 14 74 106 110 136 55 47 85 63 147 79 93 24 162 20
228 -15 66 -35 78 -38 44 -11 -64 49 -137 64 -234 49 -120 -18 -231 -97 -290
-205 l-28 -53 -67 0 c-38 0 -71 5 -78 12 -7 7 -12 35 -12 63 0 28 -7 104 -16
170 -15 114 -14 120 3 132 153 109 188 185 135 290 -30 57 -30 193 -1 324 11
52 24 117 29 145 4 27 15 75 23 105 30 106 29 136 -5 175 -36 41 -65 43 -107
9 -31 -26 -64 -110 -75 -191 -3 -22 -14 -67 -24 -100 -23 -72 -37 -156 -22
-134 5 8 10 27 10 42 0 15 4 29 8 32 10 6 -3 -87 -14 -105 -4 -7 -20 3 -44 28
-20 22 -47 47 -61 56 -32 23 -82 22 -104 -3 -15 -16 -26 -19 -74 -14 -50 6
-60 4 -86 -18 -18 -15 -49 -27 -75 -31 -31 -4 -52 -14 -67 -32 -22 -25 -23
-35 -23 -181 0 -102 5 -181 16 -231 11 -53 14 -98 9 -144 -10 -99 22 -147 135
-198 54 -25 183 -29 233 -8 53 23 94 64 101 101 6 32 31 65 41 54 9 -8 24
-104 35 -215 13 -130 19 -165 30 -158 4 2 50 5 101 6 109 2 159 -16 204 -75
28 -37 55 -112 55 -153 0 -21 -4 -23 -59 -23 -33 0 -61 -4 -63 -9 -1 -5 -47
-12 -100 -16 l-96 -7 -7 48 c-3 27 -15 74 -26 105 -10 31 -20 69 -20 85 -1 26
-2 26 -8 -8 -10 -50 -33 -81 -86 -117 -48 -32 -55 -30 -29 7 13 19 15 38 10
100 -4 42 -11 100 -17 127 -6 28 -13 65 -16 83 -5 31 -7 33 -37 25 -41 -10
-214 -10 -247 0 l-26 8 13 -108 c39 -314 35 -297 73 -319 l26 -15 -28 6 c-107
22 -188 78 -207 143 -20 68 -42 305 -38 415 2 91 6 110 20 118 10 6 18 17 18
26 0 22 -26 0 -48 -41 -21 -40 -20 -197 3 -379 17 -141 29 -180 69 -216 20
-19 26 -34 26 -64 0 -115 168 -236 260 -187 14 8 25 4 49 -16 17 -14 45 -30
63 -35 48 -14 261 -23 353 -14 68 6 82 11 104 34 22 23 93 51 129 51 5 0 12
-26 15 -58 13 -122 68 -246 114 -258 22 -6 26 -16 38 -106 l6 -48 -45 0 c-25
0 -46 -4 -46 -10 0 -6 -30 -10 -71 -10 -55 0 -75 4 -84 16 -16 23 -87 24 -109
1 -21 -21 -26 -21 -53 -2 -14 10 -57 18 -118 22 l-95 6 0 44 c0 29 -6 49 -19
62 -44 44 -215 32 -236 -16 -12 -28 -12 -28 -77 -2 -151 59 -426 93 -673 83
-82 -3 -167 -10 -187 -14 -35 -7 -37 -6 -43 21 -6 28 -9 29 -67 29 -59 0 -60
-1 -56 -25 3 -14 0 -29 -6 -33 -9 -6 -160 -49 -274 -79 -19 -5 -22 -2 -22 25
0 34 -13 42 -70 42 -63 0 -70 -6 -70 -60 l0 -49 -73 1 c-93 1 -134 -18 -139
-64 -2 -25 -9 -33 -33 -41 -16 -5 -111 -41 -210 -79 -519 -199 -485 -180 -484
-272 0 -34 4 -96 8 -140 5 -64 11 -82 29 -96 12 -10 27 -20 33 -22 8 -3 56
-528 115 -1274 l6 -80 -40 -18 c-23 -10 -51 -29 -63 -42 -19 -21 -21 -31 -17
-96 5 -62 9 -75 32 -95 52 -44 18 -41 1306 -128 1237 -84 3168 -222 3406 -245
62 -6 388 -10 748 -10 l638 0 277 161 c152 89 299 177 327 194 56 36 64 54 64
151 0 48 -3 55 -35 82 l-36 29 21 259 c11 142 33 454 49 693 l29 434 28 22
c25 20 29 31 35 101 4 44 8 120 8 170 1 82 -1 92 -21 111 -13 11 -31 23 -42
27 -20 7 -467 46 -530 46 -40 0 -196 -66 -196 -83 0 -5 14 -22 30 -39 21 -21
30 -39 30 -63 0 -19 -4 -36 -9 -39 -5 -4 -7 2 -4 12 2 10 -8 33 -24 54 l-29
36 -31 -38 c-68 -80 -263 -143 -558 -179 -93 -12 -173 -21 -176 -21 -3 0 -6
-19 -5 -42 1 -41 3 -43 36 -49 21 -4 -5 -7 -65 -8 -56 0 -94 3 -87 8 8 5 12
24 11 49 l-3 42 -75 0 c-148 0 -556 40 -584 57 -4 3 -30 5 -57 5 -33 -1 -50 4
-54 14 -3 8 -27 24 -53 35 -75 32 -141 78 -162 113 -17 27 -19 38 -10 69 10
37 59 87 86 87 11 0 8 -8 -12 -32 -20 -24 -25 -37 -20 -57 4 -14 8 -30 9 -36
4 -22 32 -55 45 -55 8 0 24 -8 35 -18 90 -80 587 -170 806 -147 36 4 142 8
235 10 251 4 456 49 576 125 54 35 72 60 63 84 -9 23 -19 20 -72 -15 -26 -18
-41 -26 -34 -18 22 24 13 27 -40 13 -79 -21 -266 -42 -441 -50 -86 -4 -154
-11 -151 -15 3 -5 0 -9 -5 -9 -40 0 23 -69 64 -71 17 -1 -3 -5 -44 -10 -41 -5
-110 -5 -155 0 l-81 8 85 2 c47 1 80 5 74 9 -6 4 -15 18 -19 32 -14 46 -34 59
-109 67 l-71 8 90 7 c95 7 356 35 365 38 3 1 -6 5 -19 9 -14 4 -26 12 -28 18
-3 7 8 7 34 -3 21 -7 46 -13 56 -14 44 -1 309 72 335 93 6 5 12 7 12 3 0 -4
11 1 25 10 20 13 23 20 14 30 -9 12 -6 13 20 8 46 -10 81 17 81 61 0 23 -5 35
-14 35 -7 0 -19 7 -26 15 -10 12 -7 15 14 21 14 3 41 4 60 2 19 -2 32 0 30 4
-7 11 -101 10 -122 -1 -11 -5 -59 0 -132 15 -63 13 -168 29 -233 36 -141 15
-149 21 -118 95 31 74 46 185 33 230 -18 60 -60 117 -110 149 -40 24 -58 29
-117 30 -47 1 -80 7 -100 19 -16 9 -66 36 -110 59 -64 33 -84 50 -106 86 -15
25 -28 48 -28 51 -1 3 29 21 65 40 87 44 129 88 173 179 34 70 36 81 36 170 0
83 -4 103 -29 160 -34 76 -35 116 -7 171 27 51 29 163 5 198 -12 17 -15 35
-10 67 11 81 -92 318 -193 444 -125 156 -348 306 -541 364 -145 44 -339 56
-485 30z m363 -245 c96 -24 228 -87 299 -142 60 -46 163 -150 163 -164 0 -4
-28 -37 -62 -72 l-63 -65 55 49 c30 26 60 55 67 63 11 13 15 12 33 -9 30 -36
77 -138 95 -204 8 -33 15 -97 15 -144 0 -46 5 -100 12 -118 13 -36 2 -58 -30
-58 -10 0 -18 -9 -20 -23 -2 -12 -12 -27 -23 -32 -25 -14 -24 -28 4 -32 31 -4
36 -58 7 -98 -28 -39 -44 -39 -36 0 5 26 3 30 -17 30 -17 0 -33 -20 -74 -93
-28 -50 -63 -116 -77 -144 -27 -54 -131 -220 -163 -261 -34 -42 -123 -64 -273
-66 -74 0 -140 2 -147 7 -9 5 -7 24 7 75 21 74 18 94 -4 40 l-15 -35 -67 8
c-36 5 -71 12 -78 17 -17 14 -145 46 -153 39 -8 -9 16 -37 32 -37 7 0 38 -11
69 -25 31 -14 86 -31 121 -37 40 -8 65 -18 65 -25 0 -19 -27 -16 -126 13 -169
49 -299 122 -455 257 -67 57 -84 80 -120 151 -53 108 -59 170 -30 321 25 132
102 377 143 459 73 144 167 237 308 303 91 42 184 73 222 73 16 0 15 -5 -8
-42 -23 -36 -124 -250 -124 -262 0 -3 -13 -33 -29 -68 -16 -35 -34 -80 -41
-100 -6 -21 -14 -38 -16 -38 -2 0 -32 20 -66 45 -122 89 -193 70 -278 -74 -57
-97 -83 -209 -78 -341 5 -125 24 -177 90 -241 59 -58 145 -96 274 -120 128
-24 178 -46 310 -136 180 -122 323 -137 461 -50 129 81 277 351 259 471 -18
118 -76 146 -372 177 -50 5 -125 18 -168 29 -130 33 -308 126 -398 208 l-26
24 50 121 c66 162 161 358 184 379 11 9 33 18 49 21 49 7 165 -4 243 -24z
m436 -185 c98 -81 155 -169 215 -332 26 -72 28 -87 23 -175 -4 -91 -3 -97 14
-97 11 0 27 -9 37 -20 17 -21 23 -42 10 -38 -5 1 -20 -6 -35 -16 -32 -21 -52
-13 -45 20 2 14 -1 24 -7 24 -7 0 -11 37 -11 112 0 136 -16 197 -83 317 -54
96 -137 191 -226 258 -87 66 -89 70 -18 32 35 -19 92 -57 126 -85z m-1386 17
c10 -6 9 -15 -7 -43 -27 -44 -46 -139 -30 -148 6 -4 9 -18 7 -31 -2 -19 -10
-25 -36 -27 -28 -3 -33 -7 -29 -23 3 -13 -4 -29 -19 -44 -13 -13 -24 -34 -24
-47 0 -13 -10 -57 -21 -98 -11 -41 -26 -109 -33 -150 l-12 -75 -31 32 c-40 43
-44 63 -23 110 27 56 92 283 91 318 0 16 -5 31 -11 33 -5 2 -10 10 -10 18 0
16 26 19 35 4 3 -5 10 -10 14 -10 10 0 51 87 51 110 0 21 46 80 63 80 7 0 18
-4 25 -9z m-870 -247 c18 -12 22 -25 22 -63 0 -27 -3 -62 -6 -78 -6 -28 -7
-29 -70 -28 l-64 0 0 33 c0 55 21 122 43 137 27 19 47 19 75 -1z m-143 -61
c-17 -135 -11 -123 -66 -123 -44 0 -49 3 -55 25 -9 36 4 106 23 127 11 12 31
18 60 18 l44 0 -6 -47z m1368 -228 c63 -29 73 -45 48 -76 -26 -32 -16 -54 30
-68 22 -7 39 -18 39 -26 0 -21 -42 -19 -67 4 -13 12 -25 16 -34 10 -18 -11 1
-31 33 -36 23 -4 58 -30 58 -44 0 -4 -7 -15 -16 -23 -8 -9 -12 -21 -9 -27 4
-5 -1 -19 -12 -31 -10 -11 -17 -22 -15 -24 1 -2 2 -11 2 -19 0 -23 -47 -18
-72 8 -13 12 -27 21 -31 19 -16 -5 -117 52 -123 70 -3 10 -15 18 -27 18 -47 1
-74 49 -45 78 7 7 8 12 4 12 -5 0 -1 11 8 25 9 14 15 29 13 33 -3 4 -1 17 4
30 9 23 9 23 39 5 16 -9 30 -21 30 -25 0 -4 7 -8 16 -8 8 0 12 5 9 10 -4 6 0
22 9 35 9 13 16 33 16 43 0 40 18 41 93 7z m-953 -82 c40 -63 39 -95 -4 -128
-32 -24 -38 -25 -75 -15 -29 8 -45 19 -56 40 -19 36 -19 60 -1 60 15 0 26 -21
26 -51 0 -11 4 -17 10 -14 5 3 7 0 4 -8 -4 -10 4 -16 25 -19 24 -4 28 -2 20 9
-7 7 -8 13 -5 13 4 0 1 9 -7 21 -8 11 -13 30 -10 42 4 18 3 19 -6 7 -8 -11
-13 -12 -22 -3 -8 8 -6 13 10 18 12 3 21 10 21 15 0 20 20 60 30 60 6 0 24
-21 40 -47z m2390 -72 c0 -4 -5 -22 -11 -39 -9 -27 -14 -30 -30 -22 -23 13
-25 -2 -3 -21 16 -13 64 -101 64 -118 0 -22 -29 3 -35 30 -4 16 -11 32 -17 35
-12 8 -53 -30 -80 -75 -19 -31 -20 -34 -5 -43 23 -12 22 -55 0 -55 -10 0 -21
5 -25 11 -5 7 -10 8 -17 1 -19 -19 -181 -346 -176 -355 3 -4 23 -11 45 -15 50
-8 62 -25 18 -25 -18 0 -49 -5 -68 -10 -36 -10 -130 -3 -130 10 0 4 9 10 20
13 12 3 27 21 35 44 9 21 52 111 97 201 l82 162 -17 35 c-21 44 -21 55 -1 83
15 22 17 22 35 6 10 -9 19 -23 19 -30 0 -7 6 -11 13 -9 7 3 12 20 12 38 0 30
2 32 33 29 23 -1 32 2 32 13 0 8 -7 15 -15 15 -21 0 -30 27 -15 45 7 8 24 15
37 15 18 0 23 4 20 14 -3 8 -3 17 0 20 10 9 83 7 83 -3z m-742 -132 c46 -15
62 -26 62 -39 0 -10 -4 -22 -10 -25 -5 -3 -10 -17 -10 -30 0 -19 4 -23 22 -20
29 6 58 -3 58 -17 0 -7 -15 -9 -41 -5 -50 7 -70 0 -62 -19 3 -9 20 -14 44 -14
33 0 39 -3 39 -20 0 -12 -10 -24 -22 -30 -13 -5 -17 -9 -10 -9 17 -1 15 -26
-3 -41 -8 -7 -12 -16 -9 -21 3 -5 0 -18 -6 -30 -9 -17 -18 -20 -43 -16 -159
28 -223 48 -214 70 3 9 -6 11 -32 9 -42 -4 -77 17 -68 42 4 9 16 16 27 16 19
0 20 2 6 15 -19 20 -10 45 16 45 17 0 18 3 8 15 -30 36 24 62 66 30 22 -16 58
-20 49 -5 -11 18 6 50 26 50 16 0 18 3 9 19 -13 25 -3 51 19 51 9 0 45 -9 79
-21z m-928 -334 c11 -13 8 -14 -19 -9 -45 9 -80 -16 -74 -53 9 -61 14 -72 31
-76 9 -3 -3 -5 -27 -6 -33 -1 -42 -4 -38 -15 3 -8 -1 -20 -10 -27 -17 -14 -73
-109 -73 -123 0 -6 15 15 33 45 44 73 71 99 105 99 43 0 135 -37 157 -64 11
-13 34 -41 51 -63 45 -55 142 -109 224 -124 65 -11 155 -9 195 6 16 5 17 5 5
-4 -12 -9 -11 -11 10 -12 14 -1 33 -2 43 -1 9 1 17 -3 17 -9 0 -6 42 -9 115
-8 64 1 119 -2 123 -6 4 -4 -7 -5 -23 -2 -39 7 -58 -3 -44 -23 8 -11 12 -12
16 -2 2 6 20 12 39 12 30 0 34 -3 34 -26 0 -26 -30 -247 -35 -252 -1 -1 -10 0
-19 4 -11 4 -16 19 -17 53 -1 25 -5 57 -9 71 -6 20 -8 13 -9 -29 -1 -52 -3
-56 -60 -111 -63 -62 -149 -109 -246 -135 l-58 -15 -44 41 c-41 38 -153 99
-181 99 -8 0 -10 8 -6 26 5 19 4 25 -5 20 -6 -4 -11 -14 -11 -23 0 -10 -5 -13
-17 -8 -10 4 -71 10 -137 13 -105 4 -119 7 -123 23 -3 11 -9 19 -14 19 -5 0
-9 6 -9 13 0 8 -8 21 -19 31 -10 9 -26 34 -36 56 -16 36 -45 55 -45 30 0 -11
-30 -14 -30 -2 -2 43 -14 118 -21 122 -5 3 5 32 22 63 35 67 31 76 -6 13 -32
-54 -55 -76 -55 -52 0 16 -15 22 -23 9 -2 -5 -2 -1 0 7 3 8 7 24 9 35 2 10 29
71 60 134 46 95 69 128 124 183 70 70 104 84 130 53z m1590 -411 c55 -26 100
-51 100 -57 0 -5 -8 -6 -17 -1 -44 19 -102 16 -155 -8 -57 -26 -142 -104 -153
-139 -8 -25 -31 -22 -124 21 -34 17 -68 27 -73 24 -6 -4 -7 2 -3 17 33 106
151 187 272 188 42 1 73 -8 153 -45z m235 -99 c81 -33 154 -137 162 -233 5
-61 -14 -143 -34 -149 -7 -3 -30 24 -52 59 -22 35 -54 80 -72 101 -31 37 -147
113 -156 103 -3 -3 -16 0 -30 5 -18 7 -37 6 -62 -3 -20 -7 -43 -12 -53 -13 -9
0 -20 -3 -24 -7 -4 -5 -14 -8 -23 -8 -14 0 -14 2 -1 11 13 9 13 10 0 6 -8 -2
-15 -10 -15 -18 0 -8 -12 -27 -27 -42 -16 -15 -35 -41 -43 -57 -23 -44 -26
-36 -8 18 12 35 35 65 87 116 89 86 131 114 187 125 51 10 121 4 164 -14z
m-70 -244 c50 -22 195 -155 195 -178 0 -12 -3 -11 -16 1 -21 21 -30 20 -13 -1
13 -17 13 -17 -7 0 -26 21 -52 22 -75 1 -16 -14 -19 -14 -38 5 -28 28 -63 27
-98 -3 l-28 -24 -29 25 c-32 27 -75 26 -107 -3 -15 -13 -17 -13 -23 8 -18 70
7 147 58 180 38 24 112 19 181 -11z m-503 -113 c28 -10 28 -11 13 -34 -8 -13
-15 -29 -15 -37 0 -28 -27 -47 -80 -57 -30 -6 -62 -13 -71 -15 -13 -4 -18 4
-23 34 -7 43 -18 51 -78 51 -31 0 -39 3 -35 14 3 8 9 32 13 53 9 52 7 50 62
43 29 -3 63 -1 83 6 31 10 37 9 68 -18 19 -17 47 -35 63 -40z m-2904 -89 c28
-5 58 -17 68 -25 18 -14 18 -14 -1 -29 -86 -67 -491 -65 -513 3 -4 14 50 39
112 52 61 12 278 12 334 -1z m-947 -86 c-20 -28 -24 -43 -22 -75 2 -25 77 -65
167 -89 218 -56 553 -66 554 -16 0 4 -21 7 -47 7 -25 0 -44 2 -42 4 2 2 78 6
169 9 172 6 193 4 75 -9 -40 -4 -59 -10 -45 -12 23 -4 24 -5 5 -13 -35 -14
148 -10 272 6 176 23 359 81 415 132 29 26 20 -1 -9 -29 -61 -58 -227 -105
-492 -138 -176 -23 -211 -35 -211 -75 0 -19 6 -24 33 -28 17 -2 -2 -5 -43 -5
l-75 -2 -2 32 c-1 17 -6 35 -10 39 -5 5 -71 13 -148 19 -211 16 -300 28 -408
55 -116 29 -146 44 -181 85 -34 41 -33 55 8 96 41 41 65 45 37 7z m4302 -110
c3 -16 9 -56 13 -90 6 -59 5 -63 -14 -63 -35 0 -68 41 -85 104 -9 32 -14 63
-11 67 3 5 25 9 48 9 39 0 44 -3 49 -27z m-4769 -42 c-5 -5 -40 -19 -79 -30
-97 -30 -275 -118 -275 -137 0 -30 26 -34 557 -71 51 -3 90 -10 87 -15 -3 -4
-24 -5 -47 -2 -23 4 -39 4 -36 1 3 -4 37 -11 75 -16 78 -12 874 -64 880 -58 5
5 -199 25 -389 38 -92 7 -165 14 -163 17 5 4 189 -6 701 -38 88 -6 225 -16
305 -22 128 -11 139 -13 92 -19 -60 -8 -81 -19 -36 -19 16 0 153 -9 304 -20
151 -11 388 -26 525 -35 138 -8 268 -17 290 -20 22 -3 141 -10 265 -15 124 -5
259 -13 300 -16 41 -4 72 -3 68 1 -4 4 -71 13 -150 21 l-143 13 125 -5 c69 -3
249 -14 400 -25 151 -10 309 -19 350 -20 41 0 102 -6 135 -14 l60 -13 -76 -1
c-41 -1 -100 3 -130 8 -53 9 -339 23 -309 16 51 -14 909 -70 933 -62 7 2 -17
9 -53 14 -54 9 -36 10 105 6 94 -2 229 -8 300 -13 365 -27 519 -32 609 -19 93
13 94 14 281 142 130 90 289 186 297 181 6 -4 8 -3 5 3 -4 6 12 23 36 37 l42
27 -35 -30 c-33 -29 -33 -42 0 -21 9 5 19 5 27 -2 9 -8 31 2 83 38 88 60 108
80 92 96 -6 6 -82 17 -168 24 -89 8 -162 18 -168 25 -8 8 -6 10 9 5 11 -3 85
-10 164 -15 144 -10 191 -24 191 -55 0 -22 -624 -456 -698 -485 l-47 -19 -7
-108 c-4 -60 -10 -114 -13 -121 -2 -7 -20 -13 -39 -13 -27 0 -33 4 -31 18 2 9
6 61 9 115 l5 97 -112 0 c-61 0 -209 6 -327 15 -344 23 -676 44 -945 60 -137
8 -281 17 -320 20 -38 3 -146 10 -240 15 -93 6 -264 17 -380 25 -115 8 -349
24 -520 35 -170 11 -404 27 -520 35 -115 8 -376 26 -580 40 -499 34 -907 62
-1160 81 -115 8 -343 19 -505 25 -162 5 -304 11 -315 12 -18 2 -20 -5 -23 -58
-1 -33 1 -77 5 -99 l8 -38 60 -4 c33 -2 96 -9 140 -15 44 -6 125 -17 180 -24
l100 -14 -130 5 c-215 9 -408 23 -448 34 -57 17 -65 38 -69 178 -3 114 -2 124
17 135 21 13 185 77 320 126 44 16 96 36 115 44 35 15 52 14 34 -2z m3103
-218 c4 -11 -4 -26 -27 -46 -29 -26 -38 -29 -78 -23 -25 3 -58 6 -74 6 -42 0
-48 28 -12 57 25 20 40 23 107 23 63 0 79 -3 84 -17z m-1951 -414 c101 -50
102 -123 2 -213 -58 -53 -63 -66 -24 -66 36 0 83 -36 102 -79 30 -64 47 -55
83 44 12 33 41 104 64 158 37 88 44 98 64 94 13 -2 31 2 40 9 10 7 26 14 36
14 9 0 17 5 17 10 0 6 5 10 10 10 6 0 10 -10 10 -23 0 -13 4 -27 9 -32 4 -6
14 -50 20 -100 19 -136 28 -165 52 -165 15 0 19 -5 16 -15 -4 -8 -2 -17 2 -20
5 -2 14 17 21 43 38 152 183 279 292 256 71 -15 96 -74 68 -159 -7 -21 -16
-32 -24 -29 -8 3 -16 -2 -20 -11 -5 -15 -8 -15 -21 -1 -8 8 -18 29 -21 45 -9
42 -34 40 -79 -4 -47 -47 -76 -107 -82 -169 -4 -43 -1 -56 18 -80 19 -24 27
-28 60 -23 20 3 64 23 98 46 34 23 61 40 61 37 0 -3 -4 -16 -10 -30 -12 -34 8
-35 38 -3 16 17 26 57 46 173 30 178 39 206 62 197 9 -3 19 -1 23 4 3 5 17 13
31 16 40 10 52 -27 34 -110 -7 -37 -13 -68 -11 -69 1 -2 32 22 67 53 100 85
165 133 182 133 8 0 23 9 33 20 10 11 23 20 29 20 5 0 -4 -15 -22 -33 -36 -37
-41 -53 -13 -37 27 14 36 13 22 -4 -6 -7 -9 -20 -6 -28 5 -14 -34 -56 -115
-122 -19 -16 -54 -46 -78 -68 l-43 -39 97 -120 c53 -66 99 -118 101 -115 2 2
-1 13 -8 23 -12 20 -4 102 8 89 3 -3 12 -1 20 5 7 6 13 8 13 4 0 -4 6 -3 13 3
10 9 16 4 26 -23 8 -23 21 -37 37 -41 58 -15 149 22 149 61 0 12 -30 33 -95
66 -111 58 -138 81 -146 124 -11 60 38 120 138 171 119 60 228 31 228 -61 0
-29 -28 -90 -37 -81 -3 3 -12 -2 -19 -12 -13 -16 -13 -16 -14 0 0 11 -5 15
-15 12 -11 -5 -15 1 -15 25 0 36 -11 38 -70 15 -41 -17 -69 -50 -53 -64 4 -4
41 -25 82 -46 41 -22 94 -57 118 -80 35 -33 43 -47 43 -77 0 -41 -42 -97 -93
-124 -77 -39 -229 -82 -204 -56 7 6 -84 53 -92 47 -2 -1 18 -30 44 -63 25 -34
44 -61 42 -61 -2 0 -28 18 -57 40 -57 43 -85 53 -55 20 26 -28 13 -34 -19 -9
-22 17 -36 20 -74 16 -42 -5 -44 -5 -19 5 33 14 35 31 4 51 -12 8 -56 53 -97
100 l-75 85 -12 -41 c-7 -23 -15 -65 -19 -94 -3 -29 -11 -56 -17 -60 -6 -4 -8
2 -5 15 4 12 3 22 -2 22 -8 0 -25 -40 -33 -75 -3 -11 -5 -5 -6 15 -1 19 -6 42
-11 50 -9 13 -11 13 -21 0 -8 -11 -9 4 -6 58 l4 74 -66 -65 c-68 -66 -127
-107 -153 -107 -32 0 -107 41 -136 75 -28 31 -52 88 -52 123 0 14 -9 15 -26 4
-12 -7 -7 -65 12 -136 5 -23 4 -27 -6 -21 -10 6 -12 -3 -7 -46 5 -52 5 -53 -8
-24 -8 17 -14 36 -15 43 0 6 -4 12 -10 12 -5 0 -10 -6 -11 -12 0 -7 -7 1 -14
17 -10 22 -14 25 -15 11 0 -33 -11 -11 -29 61 -20 76 -18 76 -123 52 -45 -10
-47 -12 -68 -70 -12 -32 -28 -59 -34 -59 -6 0 -20 -15 -31 -32 l-19 -33 -8 34
c-9 31 -10 32 -23 15 -19 -25 -18 -9 1 56 11 38 13 55 5 58 -6 2 -8 9 -5 15 4
7 -17 -11 -47 -40 -30 -28 -85 -72 -124 -97 -38 -25 -63 -46 -55 -47 8 0 -16
-16 -54 -35 -76 -37 -80 -39 -71 -24 3 6 -1 10 -9 10 -9 0 -18 -12 -22 -27 -9
-44 -12 -50 -13 -25 -1 14 -6 22 -13 20 -8 -3 -15 -31 -18 -74 l-5 -69 -9 63
c-8 63 -21 80 -29 40 l-4 -23 -8 23 c-4 12 -8 22 -9 22 -1 0 -16 -4 -34 -9
-20 -6 -32 -6 -32 0 0 5 5 9 10 9 6 0 10 5 10 10 0 6 -10 10 -22 10 -20 0 -20
1 -5 18 22 24 22 36 0 28 -24 -8 14 23 56 46 30 17 31 19 31 90 0 40 3 90 6
111 5 30 4 37 -10 37 -15 0 -21 16 -18 53 1 9 -4 17 -11 17 -6 0 2 10 20 21
26 16 34 30 42 72 17 89 19 118 7 113 -96 -38 -116 -44 -121 -36 -3 6 -1 10 4
10 6 0 11 7 11 15 0 21 -30 19 -91 -5 -72 -29 -71 -19 2 15 55 27 107 65 65
49 -24 -9 -19 11 7 28 36 24 155 69 221 84 90 20 202 13 262 -17z m-1427 -159
c6 -69 16 -174 21 -235 21 -227 50 -594 55 -695 4 -58 9 -116 11 -130 3 -16 2
-21 -4 -15 -14 15 -24 120 -81 845 -15 187 -24 366 -18 360 3 -3 10 -61 16
-130z m3901 103 c0 -4 7 -57 15 -118 9 -60 18 -129 21 -152 4 -33 9 -42 27
-45 15 -2 21 -9 19 -20 -6 -36 16 -16 33 30 53 140 200 262 317 262 65 0 95
-14 114 -52 14 -31 14 -37 -4 -83 -14 -34 -25 -49 -36 -47 -9 2 -16 -2 -16 -8
0 -6 -7 -6 -20 2 -12 8 -20 24 -20 40 0 71 -119 2 -192 -111 -51 -80 -32 -181
33 -181 44 0 129 47 129 72 0 4 -20 8 -44 8 -48 0 -55 9 -48 62 4 29 13 31
170 44 l82 7 0 -36 c0 -20 -4 -38 -9 -41 -9 -6 -17 -29 -67 -191 -20 -65 -29
-84 -34 -70 -7 19 -7 19 -17 0 -6 -11 -14 -35 -18 -52 -10 -49 -23 -40 -17 12
5 45 -11 64 -22 28 -3 -10 -4 6 -2 35 2 28 2 52 1 52 -1 0 -23 -11 -49 -25
-54 -29 -71 -30 -119 -10 -74 31 -127 97 -127 160 0 20 -5 25 -23 25 -23 0
-23 -2 -16 -47 4 -27 8 -64 8 -83 0 -29 -2 -32 -10 -15 -7 14 -8 3 -5 -38 5
-59 -7 -70 -19 -17 -4 17 -11 27 -19 24 -7 -3 -18 5 -24 18 -6 13 -11 17 -11
11 -1 -7 -5 -13 -9 -13 -5 0 -14 32 -21 71 l-13 70 -67 -6 c-97 -10 -98 -11
-136 -83 -19 -37 -34 -61 -35 -54 -1 26 -21 10 -45 -35 -23 -42 -25 -44 -21
-18 5 33 -11 70 -21 48 -2 -7 -8 -13 -13 -13 -5 0 2 26 15 58 19 46 21 58 9
60 -17 4 -18 14 -2 30 9 9 9 12 -1 12 -10 0 -11 3 -2 14 9 11 9 16 -1 22 -9 6
-1 12 24 19 38 10 40 14 156 247 3 7 -25 5 -144 -14 l-71 -10 -16 -57 c-8 -31
-25 -99 -37 -151 -38 -163 -58 -229 -60 -195 -1 29 -1 29 -16 10 -9 -11 -25
-38 -36 -60 l-19 -40 5 45 c3 25 2 52 -4 60 -6 10 -10 11 -10 3 0 -7 -5 -13
-11 -13 -7 0 -9 15 -4 43 8 57 55 297 62 321 6 20 15 20 -119 -1 -30 -4 -39
-3 -34 6 4 6 2 18 -4 26 -10 12 -10 18 -1 29 9 11 9 15 -1 19 -10 3 -9 9 4 22
11 12 45 21 105 29 48 6 94 15 102 20 17 11 233 18 275 10 27 -6 28 -8 12 -19
-12 -10 -14 -15 -5 -20 8 -6 4 -12 -12 -21 -23 -13 -23 -13 16 -14 36 0 42 4
60 36 14 27 23 34 40 30 20 -5 87 13 101 27 10 9 24 9 24 0z m1098 -102 c2 -6
19 -11 38 -11 49 0 42 -18 -11 -25 -47 -8 -84 -34 -49 -36 40 -1 -22 -17 -92
-23 -178 -16 -171 -15 -177 -44 -3 -15 -9 -35 -13 -45 -6 -17 -1 -19 57 -17
35 1 80 2 99 1 32 -1 33 -3 15 -13 -19 -12 -19 -12 5 -18 25 -7 25 -7 -10 -23
-26 -11 -30 -16 -15 -17 l20 -1 -20 -9 c-11 -4 -59 -11 -107 -15 l-86 -7 -12
-42 c-6 -22 -11 -45 -11 -50 1 -5 70 -8 154 -7 88 1 158 -3 167 -9 11 -7 7
-10 -20 -10 -66 -1 -9 -20 65 -21 70 -2 63 -4 -53 -15 -60 -5 -79 -24 -25 -24
15 0 24 -2 22 -4 -2 -2 -76 -10 -164 -16 -88 -7 -172 -18 -187 -25 -20 -10
-28 -10 -31 -1 -3 6 -9 0 -15 -14 -7 -17 -11 -19 -11 -8 -1 11 -11 18 -33 20
-22 2 -32 9 -35 23 -13 70 -12 74 10 77 16 2 25 16 38 58 13 41 14 57 6 65
-19 16 -9 73 14 80 20 7 30 25 43 77 5 22 2 27 -16 30 -16 2 -22 10 -21 28 2
78 32 92 203 101 158 8 253 4 258 -10z m-2639 -566 c33 -10 69 -31 88 -50 33
-33 33 -35 19 -63 -17 -32 -69 -70 -138 -98 -49 -20 -62 -34 -30 -34 38 0 122
-31 152 -56 23 -20 30 -34 30 -62 0 -31 -8 -44 -53 -87 -60 -56 -108 -82 -241
-132 -61 -22 -78 -32 -51 -27 63 9 38 -2 -67 -30 -54 -15 -106 -29 -115 -32
-10 -2 0 4 22 15 35 18 36 20 10 14 -95 -20 -109 -27 -122 -68 l-11 -40 -1 38
c-1 35 -2 36 -21 25 -11 -7 -23 -28 -26 -48 -16 -100 -24 -114 -19 -37 4 70 3
78 -12 75 -9 -2 -20 -14 -23 -28 l-6 -25 -7 28 c-8 28 -12 29 -79 10 -10 -2
-18 -2 -18 2 0 11 48 23 106 26 32 2 77 9 99 17 22 8 103 32 179 53 133 38
300 98 293 106 -2 2 -34 -8 -70 -21 -59 -21 -67 -22 -67 -8 0 14 -2 14 -9 3
-6 -10 -10 -10 -16 -1 -4 7 -17 9 -32 5 -14 -3 -31 -1 -39 6 -10 8 -35 5 -104
-15 -108 -31 -118 -32 -97 -8 8 9 18 35 22 57 4 23 3 35 -2 28 -5 -6 -31 -13
-58 -15 -47 -3 -50 -4 -56 -38 -5 -23 -3 -37 4 -43 18 -12 -17 -34 -66 -41
-47 -7 -86 -26 -54 -26 10 0 15 -5 12 -10 -4 -6 -12 -7 -18 -3 -7 4 -6 0 2
-10 12 -15 10 -17 -25 -16 -34 0 -36 2 -16 9 24 10 30 30 10 30 -22 1 23 22
70 34 l45 12 24 89 c12 50 25 100 29 113 5 17 2 22 -12 22 -16 0 -17 2 -4 10
13 8 12 10 -2 10 -21 0 -24 16 -5 23 9 4 8 8 -3 16 -14 10 -7 15 49 33 8 2 27
39 43 82 l28 79 -37 -7 c-21 -4 -56 -10 -78 -13 -37 -5 -39 -4 -21 10 19 14
19 15 -2 22 l-23 7 26 20 c32 25 27 32 -11 18 l-29 -10 24 18 c13 9 67 27 120
39 83 19 119 22 266 19 126 -2 184 -8 224 -21z m871 -4 c41 4 111 8 155 7 l80
0 -50 -13 c-43 -11 -46 -13 -20 -15 26 -1 27 -3 10 -10 -30 -13 60 -12 210 1
71 6 145 8 172 3 32 -5 40 -9 25 -12 -30 -5 -18 -22 16 -23 20 -1 13 -5 -28
-19 -42 -14 -49 -18 -27 -19 15 -1 27 -5 27 -9 0 -5 -59 -15 -130 -22 l-131
-13 -19 -38 c-11 -21 -20 -41 -20 -45 0 -3 37 -3 83 0 48 5 92 3 107 -3 25
-10 25 -10 2 -10 -29 -1 -19 -21 11 -22 20 -1 21 -2 2 -6 -11 -3 -31 -10 -45
-16 l-25 -10 25 -7 c18 -5 2 -9 -55 -14 -147 -13 -149 -14 -161 -49 -6 -18
-14 -40 -19 -49 -8 -21 -2 -21 170 -9 61 4 133 5 160 1 37 -6 42 -8 18 -9 -18
0 -33 -5 -33 -11 0 -13 64 -24 106 -17 19 3 34 2 34 -2 0 -5 -37 -11 -82 -14
-46 -3 -93 -9 -105 -13 -14 -4 -23 -2 -23 5 0 6 11 11 25 11 14 0 25 5 25 10
0 6 -12 10 -26 10 -15 0 -23 4 -19 11 5 7 -34 8 -134 3 l-140 -7 8 31 c11 35
6 42 -26 42 -12 0 -23 5 -23 10 0 6 -6 10 -14 10 -15 0 -36 -49 -36 -82 0 -20
-61 -53 -83 -45 -7 3 3 9 22 14 30 8 37 16 52 58 23 65 23 79 3 71 -12 -5 -15
-2 -10 10 3 8 2 24 -4 34 -8 15 -4 20 30 34 32 13 41 23 51 57 10 33 10 42 0
49 -8 4 -10 13 -7 19 4 6 2 11 -4 11 -6 0 -8 5 -4 11 4 8 -3 9 -22 6 -16 -3
-59 -9 -95 -12 l-67 -6 -83 -219 c-46 -120 -85 -217 -87 -215 -4 4 8 46 42
143 14 41 26 75 26 76 0 2 -23 2 -52 2 -50 -1 -53 -3 -75 -41 -12 -22 -27 -62
-33 -90 -11 -50 -39 -112 -40 -87 0 7 27 93 61 190 80 234 79 226 43 219 -16
-3 -49 -9 -74 -12 -25 -3 -58 -8 -75 -11 -28 -5 -29 -4 -12 10 18 14 18 15 -3
26 l-21 11 23 19 c19 17 21 21 8 29 -22 15 21 28 141 41 57 7 109 16 114 20
14 11 58 17 70 9 6 -3 44 -2 85 2z m1010 -19 c25 -12 36 -25 38 -45 2 -15 8
-25 13 -22 15 10 10 -13 -11 -55 -13 -25 -25 -37 -34 -34 -9 3 -17 -3 -22 -18
l-7 -23 -9 24 c-7 19 -11 21 -22 11 -12 -9 -15 -6 -18 22 -4 41 -21 45 -92 23
-66 -21 -116 -58 -100 -75 6 -6 59 -29 117 -50 134 -50 221 -93 241 -122 18
-25 21 -74 6 -83 -5 -3 -10 -15 -10 -26 0 -10 -6 -19 -12 -19 -7 0 -22 -8 -33
-16 -19 -15 -15 -15 45 -9 36 3 77 8 93 11 15 3 27 1 27 -4 0 -5 -48 -14 -107
-20 -94 -10 -124 -18 -236 -66 -70 -29 -127 -57 -127 -62 1 -4 -31 -20 -72
-36 -83 -32 -81 -31 -73 -18 9 15 4 13 -117 -36 -159 -64 -158 -64 -158 -58 0
3 34 21 76 40 42 20 74 38 71 40 -3 3 -80 -20 -172 -51 -91 -31 -168 -55 -171
-52 -14 14 346 133 372 123 9 -4 12 -2 8 5 -4 8 1 9 15 4 24 -7 144 31 306 98
97 41 99 42 60 45 -22 1 -49 7 -60 11 -11 5 -28 12 -39 15 -16 6 -132 -38
-303 -115 -63 -29 -99 -41 -88 -32 6 5 46 25 90 45 387 175 435 200 435 223 0
18 -48 42 -165 84 -202 71 -239 126 -148 215 99 96 304 153 393 108z m-1471
-40 c9 -19 4 -42 -25 -125 -20 -56 -56 -160 -81 -232 -25 -71 -49 -134 -53
-139 -11 -11 3 44 29 118 12 33 21 60 21 62 0 1 -14 7 -32 13 -53 19 -86 -3
-104 -69 -29 -110 -42 -146 -43 -122 -2 36 104 390 141 472 15 33 22 41 27 28
6 -15 9 -15 41 2 45 24 66 22 79 -8z m-2099 -38 c6 -6 10 -24 8 -40 -4 -35
-22 -39 -115 -29 l-63 7 0 37 c0 21 2 40 4 42 9 9 156 -7 166 -17z m-247 -98
c4 -6 6 -24 5 -41 -3 -28 -6 -30 -48 -33 -25 -2 -63 1 -85 5 -34 8 -40 13 -43
37 -7 54 0 58 86 51 42 -4 80 -13 85 -19z m235 -12 c17 -5 22 -14 22 -40 0
-29 -5 -36 -32 -48 -25 -11 -28 -15 -12 -15 28 -1 44 -20 44 -53 0 -37 -12
-41 -101 -31 l-74 8 -3 38 -3 37 48 1 48 0 -45 17 c-41 16 -45 21 -48 55 l-3
37 68 0 c37 0 78 -3 91 -6z m-244 -90 c11 -4 16 -19 16 -47 l0 -40 -82 7 c-44
4 -85 9 -90 12 -4 3 -8 21 -8 40 l0 34 74 0 c41 0 81 -3 90 -6z m4930 -60 c46
-7 46 -7 46 -45 l0 -39 -57 0 c-32 0 -75 3 -95 6 -35 6 -38 9 -38 39 0 17 3
35 7 38 8 9 76 9 137 1z m-4 -122 c43 -7 45 -8 45 -42 0 -42 -9 -45 -112 -35
l-73 7 0 39 0 39 48 -1 c26 0 67 -4 92 -7z m-5396 -67 c-17 -43 41 -59 291
-80 99 -8 196 -19 215 -24 19 -5 64 -12 100 -15 36 -3 121 -11 190 -17 69 -6
229 -19 355 -29 127 -10 208 -18 180 -19 -27 0 -219 10 -425 24 -335 22 -673
40 -785 40 -34 0 -40 -3 -43 -22 -5 -36 -40 -30 -50 9 -6 24 -16 34 -44 44
-34 11 -36 11 -42 -9 -3 -12 -6 -38 -6 -56 0 -63 -19 -19 -21 50 -3 76 2 86
45 105 40 17 47 17 40 -1z m6656 -26 c9 -15 1 -23 -52 -52 -35 -19 -185 -102
-334 -185 -149 -82 -299 -160 -333 -172 -33 -13 -58 -26 -55 -31 3 -5 0 -9 -5
-9 -6 0 -11 -13 -11 -30 0 -23 -4 -30 -20 -30 -16 0 -20 7 -20 33 l0 33 -357
22 c-197 12 -524 32 -728 44 -203 13 -353 24 -332 26 21 2 156 -4 300 -12 144
-9 379 -23 522 -32 236 -14 441 -14 600 1 37 4 45 2 30 -5 -14 -7 -6 -8 30 -4
28 4 82 21 120 39 70 32 215 120 215 131 0 3 -6 2 -12 -2 -7 -4 -11 -5 -8 -1
3 3 30 19 60 35 30 16 87 48 127 70 40 22 73 36 75 30 3 -9 126 49 163 78 19
14 19 16 3 28 -22 16 -23 27 -3 20 9 -4 20 -15 25 -25z m-1466 -12 c12 -9 17
-23 14 -42 -3 -28 -6 -30 -53 -33 -79 -4 -129 9 -133 37 -7 45 3 51 81 51 44
0 80 -5 91 -13z m245 -21 c7 -8 11 -27 9 -43 l-3 -28 -84 2 c-90 3 -113 13
-107 47 3 11 5 24 5 29 1 4 39 7 85 7 60 0 87 -4 95 -14z m-1759 -35 c19 -4
-98 -6 -260 -3 -411 7 -766 -17 -1020 -69 -105 -21 -174 -39 -168 -44 1 -1
113 12 248 31 272 37 499 56 635 53 50 -1 196 -2 325 -1 l235 0 -170 -8 c-251
-13 -494 -38 -634 -65 -119 -24 -161 -26 -110 -7 44 17 248 54 342 62 75 7 61
8 -73 4 -175 -4 -380 -26 -648 -68 -90 -14 -180 -26 -200 -26 -35 1 -36 1 -17
16 69 52 428 111 815 134 162 10 646 3 700 -9z"/>
<path d="M205 2229 c-8 -34 3 -187 14 -193 3 -2 21 -7 39 -11 l32 -7 0 89 c0
113 -5 129 -42 142 -17 6 -32 11 -34 11 -1 0 -5 -14 -9 -31z"/>
<path d="M1630 1494 c-74 -13 -67 1 -96 -193 l-6 -43 63 35 c96 54 169 122
169 157 0 19 -6 30 -17 34 -32 9 -88 14 -113 10z"/>
<path d="M2469 1053 c-15 -4 -74 -133 -61 -133 4 0 41 11 82 25 93 32 185 77
184 90 -2 19 -154 32 -205 18z"/>
<path d="M2435 813 c-73 -9 -72 -7 -106 -113 -18 -54 -31 -102 -28 -105 9 -8
185 53 272 94 97 47 133 76 117 96 -21 25 -159 40 -255 28z"/>
</g>
</svg>
