<?xml version="1.0" standalone="no"?>
<!DOCTYPE svg PUBLIC "-//W3C//DTD SVG 20010904//EN"
 "http://www.w3.org/TR/2001/REC-SVG-20010904/DTD/svg10.dtd">
<svg version="1.0" xmlns="http://www.w3.org/2000/svg"
 width="720.000000pt" height="544.000000pt" viewBox="0 0 720.000000 544.000000"
 preserveAspectRatio="xMidYMid meet">
<metadata>
Created by potrace 1.16, written by Peter Selinger 2001-2019
</metadata>
<g transform="translate(0.000000,544.000000) scale(0.100000,-0.100000)"
fill="#000000" stroke="none">
<path d="M3908 5369 c-37 -4 -98 -14 -135 -23 -82 -18 -253 -87 -291 -116 -15
-11 -64 -48 -109 -81 -54 -39 -83 -66 -83 -79 0 -12 -17 -28 -49 -45 -61 -33
-112 -101 -117 -156 -6 -67 -48 -125 -123 -173 -54 -33 -69 -75 -82 -221 -6
-72 -9 -147 -6 -167 3 -21 1 -38 -4 -38 -10 0 -15 90 -11 188 3 51 0 62 -12
62 -9 0 -16 -5 -16 -11 0 -5 4 -8 8 -5 5 3 7 -45 5 -107 -3 -112 -3 -112 35
-187 29 -58 49 -85 92 -118 30 -24 67 -54 81 -67 27 -27 98 -55 135 -55 23 0
54 -33 54 -58 0 -8 16 -36 36 -63 40 -55 43 -51 -56 -69 -36 -6 -84 -20 -108
-31 -48 -20 -176 -138 -198 -181 -14 -27 -17 -28 -98 -28 l-84 0 -7 43 c-4 23
-13 67 -20 97 -7 30 -21 89 -30 131 l-18 77 33 71 c18 39 30 74 27 78 -4 3 -7
1 -7 -7 0 -7 -16 -39 -36 -72 -35 -57 -82 -98 -114 -98 -8 0 0 9 18 20 39 24
62 60 103 162 30 75 49 98 49 61 1 -42 32 58 35 113 l4 62 -49 30 c-36 22 -50
38 -51 54 0 23 0 23 -10 -2 -9 -23 -11 -23 -20 -7 -6 9 -17 17 -25 17 -8 0
-20 14 -25 30 -7 18 -18 30 -28 30 -28 0 -43 23 -147 235 -119 243 -134 265
-181 265 -25 0 -43 -8 -64 -29 -26 -26 -29 -36 -29 -93 0 -51 6 -72 30 -113
16 -27 41 -72 55 -99 15 -27 43 -72 61 -99 23 -33 31 -54 25 -60 -7 -7 -15 -6
-25 2 -19 16 -78 -21 -180 -115 -72 -65 -77 -73 -82 -119 -5 -44 -2 -56 25
-98 36 -56 36 -55 11 -87 l-19 -25 37 -22 c40 -25 31 -31 -15 -11 -61 28 -92
97 -74 163 14 51 5 58 -14 12 -35 -85 -13 -143 82 -208 49 -34 49 -35 18 -119
-19 -52 -16 -113 17 -275 28 -144 51 -200 101 -254 25 -26 48 -61 51 -78 10
-44 69 -108 117 -127 26 -11 65 -16 103 -15 40 1 72 -4 93 -14 52 -28 168 -40
326 -35 148 5 148 5 180 35 21 19 51 34 86 42 30 6 55 10 56 9 2 -2 10 -38 18
-81 26 -130 88 -236 158 -272 15 -8 30 -23 32 -32 3 -10 9 -29 12 -42 4 -14 3
-21 -2 -18 -6 4 -19 0 -29 -8 -28 -21 -153 -20 -169 1 -16 23 -87 24 -109 1
-21 -21 -26 -21 -53 -2 -14 10 -57 18 -118 22 l-95 6 0 44 c0 29 -6 49 -19 62
-43 43 -202 33 -240 -15 l-19 -24 -65 25 c-94 35 -240 62 -406 75 -142 10
-370 5 -444 -10 -36 -8 -38 -7 -44 21 -5 28 -7 29 -65 29 -59 0 -60 -1 -56
-25 3 -14 0 -29 -6 -33 -9 -6 -160 -49 -273 -79 -20 -5 -23 -2 -23 25 0 34
-13 42 -70 42 -63 0 -70 -6 -70 -60 l0 -49 -73 1 c-93 1 -134 -18 -139 -64 -2
-25 -9 -33 -33 -41 -16 -5 -97 -35 -180 -67 -82 -32 -222 -86 -310 -119 -87
-34 -170 -71 -182 -83 -25 -24 -28 -68 -14 -222 5 -64 11 -82 29 -96 12 -10
27 -20 33 -22 8 -3 48 -442 115 -1274 l6 -80 -40 -18 c-23 -10 -51 -29 -63
-42 -19 -21 -21 -31 -17 -96 5 -62 9 -75 32 -95 47 -40 99 -47 566 -78 245
-16 657 -44 1405 -95 814 -56 2080 -149 2485 -182 231 -19 354 -22 952 -25
l687 -4 119 69 c65 38 210 122 322 188 227 133 230 136 230 243 0 56 -2 61
-36 89 l-36 30 16 188 c19 228 40 521 65 907 l19 287 30 28 c28 26 30 32 36
142 12 203 12 208 -13 234 -30 32 -39 34 -293 56 -203 17 -268 16 -268 -5 0
-4 5 -3 10 0 6 3 10 2 10 -4 0 -5 -12 -9 -27 -9 -16 1 -68 -12 -116 -28 -66
-21 -85 -31 -75 -39 40 -30 63 -104 38 -120 -5 -3 -7 0 -4 9 7 18 -22 63 -49
78 -17 9 -19 8 -13 -8 4 -10 4 -15 0 -11 -4 3 -22 -7 -40 -23 -59 -51 -205
-106 -359 -133 -71 -13 -326 -46 -356 -47 -3 0 -6 -19 -5 -42 1 -41 3 -43 36
-49 22 -4 3 -7 -55 -8 l-90 -1 2 49 1 48 -151 7 c-148 7 -436 37 -527 55 -24
5 -52 8 -62 6 -10 -2 -22 5 -28 16 -6 10 -17 19 -24 19 -7 0 -45 16 -84 35
-74 37 -132 92 -132 125 0 28 31 101 51 121 22 22 34 76 20 93 -9 11 -3 14 31
19 55 7 68 -2 30 -20 -16 -8 -32 -24 -35 -36 -2 -12 -8 -31 -12 -41 -7 -16 -5
-18 15 -13 21 5 20 3 -8 -24 -41 -40 -50 -83 -25 -118 11 -14 56 -47 101 -72
65 -36 108 -52 219 -77 240 -56 370 -64 783 -51 285 10 489 54 604 132 37 25
50 40 50 60 1 23 -2 26 -19 21 -11 -4 -33 -16 -49 -27 -23 -16 -28 -17 -24 -5
5 13 0 14 -35 7 -66 -12 -432 -19 -377 -7 227 50 422 104 435 121 5 7 16 12
24 9 9 -3 11 0 6 8 -5 9 -2 10 13 6 14 -5 28 0 41 13 12 12 31 21 44 21 13 0
34 11 47 25 12 13 27 22 31 19 5 -3 9 13 9 34 0 36 -4 41 -36 57 -40 19 -140
23 -170 7 -14 -7 -44 -4 -104 9 -47 10 -128 23 -180 29 -154 18 -158 19 -188
58 -27 35 -27 38 -27 187 0 151 0 151 -30 201 -55 89 -169 142 -246 115 -28
-10 -36 -8 -53 8 -12 10 -74 44 -138 75 -86 41 -118 61 -118 74 0 29 -52 104
-105 150 -27 23 -83 60 -126 81 -43 22 -73 42 -66 44 30 13 -32 5 -121 -14
-89 -19 -101 -25 -145 -66 -30 -28 -54 -43 -63 -39 -9 3 -27 9 -40 12 -13 3
-24 8 -24 10 0 2 17 20 38 40 l37 36 -40 -29 c-73 -53 -90 -61 -176 -79 -59
-12 -128 -17 -234 -17 -181 1 -282 23 -459 103 -176 80 -271 169 -312 293 -15
45 -16 83 -11 316 6 275 14 345 49 444 13 34 17 62 12 67 -5 5 -36 12 -69 17
-32 4 -58 13 -57 18 2 10 34 11 97 5 51 -5 60 -1 80 33 10 17 31 47 47 65 36
42 36 54 -3 35 -23 -11 -36 -13 -52 -5 -21 9 -20 11 15 26 21 9 46 16 56 16
11 0 37 14 58 31 22 17 70 47 109 65 84 41 134 46 59 6 -92 -48 -128 -70 -159
-97 -22 -18 -10 -14 45 17 144 79 233 117 310 129 147 23 370 -10 512 -75 152
-70 188 -107 154 -164 l-17 -27 23 28 c13 15 28 27 33 27 6 -1 31 -20 56 -43
32 -29 63 -74 100 -146 l54 -104 -1 -121 c-1 -114 -3 -129 -43 -251 -23 -71
-55 -182 -71 -245 -16 -63 -42 -152 -59 -198 -17 -46 -31 -90 -31 -98 0 -13
16 -15 90 -13 89 3 91 3 109 33 11 17 22 56 26 86 4 30 25 116 46 190 35 122
49 204 33 187 -12 -11 -64 22 -58 37 6 16 50 30 65 20 17 -10 37 15 74 91 29
61 33 78 25 100 -15 39 -12 55 10 55 24 0 40 -29 40 -74 0 -24 9 -45 29 -68
15 -18 33 -43 40 -55 l12 -23 -36 21 c-40 24 -55 18 -81 -34 -17 -32 -13 -57
10 -57 8 0 23 -11 34 -25 11 -14 26 -25 33 -25 8 0 23 -7 33 -15 16 -12 17
-17 6 -30 -16 -19 -64 -20 -82 -1 -8 7 -24 17 -36 20 -19 6 -25 1 -41 -37 -18
-43 -41 -135 -66 -269 -13 -73 -8 -81 36 -57 11 5 28 9 37 7 22 -5 -62 -60
-85 -56 -9 2 -18 -3 -20 -9 -8 -21 44 -15 95 11 26 13 70 44 97 69 51 46 102
122 87 131 -4 2 -20 -19 -35 -48 -16 -30 -41 -60 -60 -71 l-32 -19 31 36 c78
90 127 272 89 338 -15 26 -20 82 -8 93 3 4 15 0 25 -10 24 -21 23 -3 -1 28
-10 13 -22 34 -26 47 -3 13 -20 39 -37 58 -28 32 -30 39 -24 82 4 26 8 77 9
114 1 54 -2 71 -18 90 -28 33 -41 58 -50 98 -4 19 -20 50 -36 68 -16 18 -29
41 -29 51 0 51 -171 230 -305 321 -100 67 -158 95 -274 129 -161 48 -277 58
-453 40z m495 -275 c141 -36 273 -133 355 -259 25 -38 60 -88 78 -111 39 -47
40 -51 16 -82 -12 -15 -16 -35 -14 -67 4 -39 7 -46 31 -51 39 -10 81 -33 81
-45 0 -13 -88 -3 -106 12 -6 5 -14 40 -16 77 -3 38 -14 84 -25 107 -70 139
-85 160 -174 248 -106 105 -144 130 -244 163 -81 27 -71 31 18 8z m-1249 -454
c0 -66 -4 -123 -9 -128 -5 -4 -5 0 0 8 6 11 5 12 -3 5 -20 -18 -32 -113 -39
-292 l-6 -172 23 -9 c19 -7 20 -10 7 -15 -17 -6 -72 30 -119 78 -38 38 -35 52
10 46 22 -3 29 41 35 209 3 91 13 197 21 235 18 82 20 115 6 115 -5 0 -10 -7
-10 -15 0 -8 -4 -15 -10 -15 -12 0 -13 10 -1 29 8 13 60 37 86 40 6 1 10 -44
9 -119z m-838 -275 c25 -25 63 -99 64 -123 0 -7 -17 -20 -37 -29 -21 -8 -44
-24 -51 -34 -20 -28 -26 -24 -55 34 -47 92 -45 146 6 167 35 14 46 12 73 -15z
m-144 -73 c-8 -2 -4 -18 12 -50 13 -26 27 -61 30 -78 6 -27 3 -35 -24 -58 -17
-14 -35 -26 -39 -26 -3 0 -19 19 -34 42 -38 59 -36 96 11 145 20 21 41 37 47
34 5 -3 4 -6 -3 -9z m583 -2 c20 -16 28 -62 16 -93 -10 -25 -15 -27 -63 -27
-29 0 -59 4 -66 9 -12 7 -29 58 -35 101 -4 28 116 37 148 10z m-37 -567 c17
-76 34 -153 37 -170 l7 -33 81 6 c96 8 180 -7 229 -39 38 -25 98 -135 98 -179
0 -25 -3 -28 -33 -28 -18 0 -57 -6 -87 -14 -30 -8 -85 -17 -122 -20 -75 -6
-68 -12 -88 84 -6 30 -23 77 -39 103 l-28 49 -7 -34 c-4 -18 -14 -43 -24 -56
-17 -22 -17 -22 -70 80 -28 57 -52 114 -52 128 0 14 -3 35 -6 47 -5 20 -8 20
-37 8 -54 -22 -189 -38 -230 -27 -36 10 -37 10 -37 -16 0 -21 54 -265 76 -340
2 -7 3 -15 3 -19 0 -4 8 -10 18 -14 44 -18 -20 -8 -74 11 -65 23 -97 49 -124
102 -24 47 -75 252 -84 340 -8 70 1 148 16 148 5 0 20 -23 34 -50 46 -91 133
-136 245 -128 114 9 213 73 226 147 8 44 12 51 28 51 7 0 24 -52 44 -137z
m662 40 c14 -9 42 -32 63 -50 38 -34 36 -43 -13 -41 -34 1 -109 -13 -115 -22
-2 -4 -7 -22 -10 -40 -6 -32 -34 -94 -35 -76 0 17 -30 -17 -30 -34 0 -10 -7
-20 -15 -22 -13 -2 -10 -11 11 -43 19 -28 7 -19 -39 31 -77 83 -108 99 -177
91 -35 -4 -50 -2 -50 6 0 16 130 141 167 160 34 18 167 55 198 56 11 1 32 -7
45 -16z m148 -110 c2 -8 -5 -13 -16 -13 -21 0 -82 -45 -82 -60 0 -5 7 -15 15
-24 23 -22 19 -54 -7 -59 -15 -3 -9 -5 14 -6 45 -1 91 -18 84 -30 -3 -5 4 -11
17 -15 26 -7 87 -7 69 1 -6 2 -9 9 -6 14 3 5 30 -13 59 -40 78 -71 178 -106
283 -99 52 4 103 16 155 36 47 18 73 25 66 16 -10 -12 3 -14 82 -13 52 1 81 4
64 6 -46 7 -55 23 -13 23 19 0 61 12 92 26 32 14 59 24 61 23 1 -2 6 -86 9
-186 l7 -183 -30 0 c-28 0 -30 2 -40 63 l-10 62 3 -73 3 -74 -46 -45 c-51 -50
-104 -89 -171 -126 -77 -42 -83 -42 -161 4 -39 23 -98 50 -132 59 -46 12 -65
23 -74 41 -12 23 -13 23 -13 3 0 -20 -6 -22 -103 -26 -56 -2 -111 -9 -122 -15
-16 -9 -24 -6 -50 20 -17 18 -46 54 -64 80 -29 43 -34 47 -45 31 -16 -21 -22
-12 -48 61 -23 66 -22 103 2 160 29 68 24 69 -11 3 -20 -40 -35 -58 -48 -58
-11 0 -22 -6 -25 -12 -18 -39 8 91 34 171 39 119 47 134 111 210 49 59 77 73
87 44z m1324 -3 c46 -13 172 -104 209 -150 15 -19 31 -48 34 -65 l6 -30 -22
29 c-12 15 -35 36 -51 46 -27 16 -32 16 -101 -2 -116 -31 -166 -68 -230 -170
-10 -16 -25 -28 -34 -28 -11 0 -9 5 9 20 14 10 31 34 38 51 11 27 11 33 -1 43
-8 6 -23 22 -33 34 -16 18 -16 22 -4 17 20 -8 35 14 17 25 -10 7 -7 13 12 29
22 19 23 20 4 21 -11 1 -27 3 -35 5 -74 15 -90 16 -90 6 0 -6 -13 -11 -28 -11
-15 0 -33 -5 -40 -12 -16 -16 -15 -3 3 31 18 37 100 108 128 114 44 9 173 7
209 -3z m396 -330 c61 -29 112 -57 112 -61 0 -4 -14 -3 -31 3 -39 14 -113 5
-134 -16 -9 -9 -20 -16 -24 -16 -16 0 -108 -98 -120 -128 -16 -38 -15 -38
-138 18 -45 21 -84 35 -87 32 -14 -13 -4 23 18 66 27 54 54 81 111 112 111 62
139 61 293 -10z m251 -106 c58 -17 135 -84 166 -144 29 -56 33 -220 5 -220 -5
0 -25 24 -43 53 -19 28 -50 66 -68 84 -35 33 -117 73 -149 73 -10 0 -22 5 -25
10 -3 6 -17 10 -31 10 -14 0 -23 -4 -20 -9 3 -5 -15 -11 -40 -14 -25 -2 -59
-14 -75 -26 -16 -12 -29 -19 -29 -17 0 12 24 56 31 56 4 0 10 14 14 30 4 17
13 37 22 45 8 8 10 15 5 15 -18 0 -51 -47 -67 -95 -26 -78 -46 -115 -58 -108
-6 3 -7 1 -3 -6 4 -6 -2 -23 -13 -37 -40 -51 -24 9 31 117 39 77 62 109 92
132 93 68 157 81 255 51z m-704 -269 c11 -4 34 -20 50 -36 29 -27 143 -89 164
-89 19 0 20 -18 2 -66 l-19 -49 -91 -16 -91 -15 0 31 c0 17 -5 36 -12 43 -13
13 -116 16 -135 4 -6 -4 -13 -27 -15 -51 l-3 -44 -82 -1 -81 -1 45 45 c52 53
98 145 108 215 l6 51 67 -7 c37 -4 76 -10 87 -14z m730 -10 c52 -25 193 -160
181 -173 -4 -3 -12 0 -18 6 -16 16 -59 15 -85 -3 -18 -13 -22 -12 -38 5 -25
27 -67 25 -95 -5 l-23 -24 -25 19 c-30 24 -94 26 -116 5 -21 -21 -28 -5 -29
65 -2 64 18 103 64 128 35 19 121 8 184 -23z m-3402 -218 c44 -19 47 -32 10
-51 -103 -52 -450 -52 -494 0 -18 22 0 35 78 56 90 24 347 21 406 -5z m-994
-76 c-55 -74 -6 -122 166 -166 156 -39 458 -60 506 -35 32 18 21 30 -28 30
-25 0 -44 2 -42 4 2 2 81 6 174 9 177 6 198 4 80 -9 -40 -4 -59 -10 -45 -12
23 -4 24 -5 5 -13 -35 -14 143 -10 275 6 169 21 335 70 394 116 32 25 44 24
20 -2 -54 -60 -266 -120 -544 -154 -134 -17 -170 -31 -170 -70 0 -19 6 -24 33
-28 17 -2 -2 -5 -43 -5 l-75 -2 -2 32 c-1 17 -6 35 -10 39 -5 4 -96 15 -203
24 -338 28 -508 76 -551 156 -16 30 5 74 44 93 18 9 33 16 35 16 1 0 -7 -13
-19 -29z m4339 -86 c4 -4 22 -123 22 -147 0 -23 -52 -25 -70 -3 -22 26 -49
142 -36 155 9 9 73 6 84 -5z m-4804 -64 c-5 -5 -40 -19 -79 -30 -97 -30 -275
-118 -275 -137 0 -8 12 -19 26 -24 23 -9 214 -26 537 -47 54 -3 93 -10 85 -14
-7 -4 -30 -5 -53 -2 -22 3 -37 2 -34 -1 10 -11 159 -26 404 -41 132 -8 309
-20 393 -26 85 -6 156 -9 158 -7 5 6 -191 26 -391 40 -93 7 -159 14 -146 16
14 2 133 -3 265 -12 133 -9 324 -21 426 -26 223 -13 465 -37 395 -39 -60 -2
-100 -20 -45 -21 19 0 163 -9 320 -20 157 -11 395 -27 530 -35 135 -8 265 -17
290 -20 25 -3 142 -10 260 -15 118 -5 249 -13 290 -16 41 -4 72 -3 68 1 -4 4
-71 13 -150 21 l-143 13 125 -5 c69 -3 217 -12 330 -20 113 -8 281 -18 373
-23 109 -5 173 -13 180 -20 9 -10 -2 -12 -53 -8 -291 21 -394 27 -403 24 -18
-6 359 -36 657 -53 153 -8 280 -13 283 -10 2 2 -24 8 -59 14 -87 13 204 6 487
-13 376 -25 464 -27 546 -12 73 13 85 20 313 171 130 86 242 154 248 150 6 -4
8 -3 5 3 -4 6 12 23 36 37 l42 27 -35 -30 c-33 -29 -33 -42 0 -21 9 5 19 5 27
-2 9 -8 31 2 83 38 88 60 108 80 92 96 -6 6 -79 17 -163 24 -84 7 -156 17
-163 24 -8 8 -7 10 4 6 8 -3 80 -10 159 -16 144 -9 191 -23 191 -54 0 -22
-624 -456 -698 -485 l-47 -19 -7 -108 c-4 -60 -10 -114 -13 -121 -2 -7 -19
-13 -38 -13 -31 0 -33 2 -31 28 2 15 5 66 7 115 l5 87 -112 0 c-61 0 -208 6
-326 15 -223 15 -572 37 -865 55 -93 6 -240 15 -325 20 -85 6 -229 15 -320 20
-91 5 -259 17 -375 25 -115 8 -349 24 -520 35 -170 11 -537 36 -815 56 -278
19 -568 39 -645 44 -77 5 -275 19 -440 30 -165 11 -358 25 -430 30 -71 6 -265
15 -430 20 -165 6 -309 12 -320 13 -18 2 -20 -5 -23 -58 -3 -72 10 -141 27
-137 13 2 119 -10 326 -37 l140 -19 -130 4 c-213 8 -408 23 -448 34 -57 17
-65 38 -69 178 -3 114 -2 124 17 135 21 13 185 77 320 126 44 16 96 36 115 44
35 15 52 14 34 -2z m3103 -218 c4 -11 -4 -26 -26 -45 -31 -28 -35 -29 -104
-22 -100 9 -107 16 -61 59 24 22 36 25 106 25 64 0 80 -3 85 -17z m-1951 -414
c101 -50 102 -123 2 -213 -58 -53 -63 -66 -24 -66 36 0 83 -36 102 -79 30 -64
47 -55 83 44 12 33 41 104 64 158 37 88 44 98 64 94 13 -2 31 2 40 9 10 7 26
14 36 14 9 0 17 5 17 10 0 6 5 10 10 10 6 0 10 -10 10 -23 0 -13 4 -27 9 -32
4 -6 14 -50 20 -100 19 -136 28 -165 52 -165 15 0 19 -5 16 -15 -4 -8 -2 -17
2 -20 5 -2 14 17 21 43 38 152 183 279 292 256 71 -15 96 -74 68 -159 -7 -21
-16 -32 -24 -29 -8 3 -16 -2 -20 -11 -5 -15 -8 -15 -21 -1 -8 8 -18 29 -21 45
-9 42 -34 40 -79 -4 -47 -47 -76 -107 -82 -169 -4 -43 -1 -56 18 -80 19 -24
27 -28 60 -23 20 3 64 23 98 46 34 23 61 40 61 37 0 -3 -4 -16 -10 -30 -12
-34 8 -35 38 -3 16 17 26 57 46 173 30 178 39 206 62 197 9 -3 19 -1 23 4 3 5
17 13 31 16 40 10 52 -27 34 -110 -7 -37 -13 -68 -11 -69 1 -2 32 22 67 53
100 85 165 133 182 133 8 0 23 9 33 20 10 11 23 20 29 20 5 0 -4 -15 -22 -33
-36 -37 -41 -53 -13 -37 27 14 36 13 22 -4 -6 -7 -9 -20 -6 -28 5 -14 -34 -56
-115 -122 -19 -16 -54 -46 -78 -68 l-43 -39 97 -120 c53 -66 99 -118 101 -115
2 2 -1 13 -8 23 -12 20 -4 102 8 89 3 -3 12 -1 20 5 7 6 13 8 13 4 0 -4 6 -3
13 3 10 9 16 4 26 -23 8 -23 21 -37 37 -41 58 -15 149 22 149 61 0 12 -30 33
-95 66 -111 58 -138 81 -146 124 -11 60 38 120 138 171 119 60 228 31 228 -61
0 -29 -28 -90 -37 -81 -3 3 -12 -2 -19 -12 -13 -16 -13 -16 -14 0 0 11 -5 15
-15 12 -11 -5 -15 1 -15 25 0 36 -11 38 -70 15 -41 -17 -69 -50 -53 -64 4 -4
41 -25 82 -46 41 -22 94 -57 118 -80 35 -33 43 -47 43 -77 0 -66 -69 -124
-199 -168 -55 -18 -111 -25 -98 -12 7 6 -84 53 -92 47 -2 -1 18 -30 44 -63 25
-34 44 -61 42 -61 -2 0 -28 18 -57 40 -57 43 -85 53 -55 20 26 -28 13 -34 -19
-9 -22 17 -36 20 -74 16 -42 -5 -44 -5 -19 5 33 14 35 31 4 51 -12 8 -56 53
-97 100 l-75 85 -12 -41 c-7 -23 -15 -65 -19 -94 -3 -29 -11 -56 -17 -60 -6
-4 -8 2 -5 15 4 12 3 22 -2 22 -8 0 -25 -40 -33 -75 -3 -11 -5 -5 -6 15 -1 19
-6 42 -11 50 -9 13 -11 13 -21 0 -8 -11 -9 4 -6 58 l4 74 -66 -65 c-69 -67
-127 -107 -154 -107 -9 0 -42 12 -73 27 -61 29 -88 61 -105 131 -12 46 -19 54
-36 44 -9 -5 -8 -28 3 -87 16 -96 16 -94 3 -75 -8 11 -9 1 -6 -40 l5 -55 -19
45 c-15 33 -22 41 -29 30 -7 -11 -10 -7 -16 15 -6 26 -8 27 -14 10 -8 -21 -9
-17 -38 95 -10 39 -19 40 -114 19 -45 -10 -47 -12 -68 -70 -12 -32 -28 -59
-34 -59 -6 0 -20 -15 -31 -32 l-19 -33 -8 34 c-9 31 -10 32 -23 15 -19 -25
-18 -9 1 56 11 38 13 55 5 58 -6 2 -8 9 -5 15 4 7 -17 -11 -47 -40 -30 -28
-85 -72 -124 -97 -38 -25 -63 -46 -55 -47 8 0 -16 -16 -54 -35 -76 -37 -80
-39 -71 -24 3 6 -1 10 -9 10 -9 0 -18 -12 -22 -27 -9 -44 -12 -50 -13 -25 -1
14 -6 22 -13 20 -8 -3 -15 -30 -18 -69 l-5 -64 -9 58 c-9 59 -21 74 -29 35
l-4 -23 -8 23 c-4 12 -8 22 -9 22 -1 0 -16 -4 -34 -9 -20 -6 -32 -6 -32 0 0 5
5 9 10 9 6 0 10 5 10 10 0 6 -12 10 -27 10 l-27 0 22 16 c26 18 29 39 5 30
-24 -8 14 23 56 46 30 17 31 19 31 90 0 40 3 90 6 111 5 30 4 37 -10 37 -15 0
-21 16 -18 53 1 9 -4 17 -11 17 -6 0 2 10 20 21 26 16 34 30 42 72 17 89 19
118 7 113 -96 -38 -116 -44 -121 -36 -3 6 -1 10 4 10 6 0 11 7 11 15 0 20 -30
19 -90 -5 -75 -30 -74 -24 4 16 52 27 66 38 55 45 -20 13 16 39 104 73 158 62
301 71 393 25z m-1427 -159 c6 -69 16 -174 21 -235 21 -227 50 -594 55 -695 4
-58 8 -116 11 -128 3 -13 1 -21 -4 -18 -5 3 -12 36 -16 73 -41 413 -95 1144
-83 1133 3 -3 10 -61 16 -130z m3901 103 c0 -4 7 -57 15 -118 9 -60 18 -129
21 -152 4 -33 9 -42 27 -45 15 -2 21 -9 19 -20 -6 -36 16 -16 33 30 53 140
200 262 317 262 65 0 95 -14 114 -52 14 -31 14 -37 -4 -83 -14 -34 -25 -49
-36 -47 -9 2 -16 -2 -16 -8 0 -6 -7 -6 -20 2 -12 8 -20 24 -20 40 0 71 -119 2
-192 -111 -51 -80 -32 -181 33 -181 44 0 129 47 129 72 0 4 -20 8 -44 8 -48 0
-55 9 -48 62 4 29 13 31 170 44 l82 7 0 -36 c0 -20 -4 -38 -9 -41 -9 -6 -17
-29 -67 -191 -20 -65 -29 -84 -34 -70 -7 19 -7 19 -17 0 -6 -11 -14 -35 -18
-52 -10 -50 -26 -39 -18 12 4 31 2 45 -6 45 -6 0 -11 -7 -11 -15 0 -8 -4 -15
-8 -15 -5 0 -6 21 -1 48 4 26 6 48 5 50 -2 1 -24 -9 -50 -23 -54 -29 -71 -30
-119 -10 -74 31 -127 97 -127 160 0 20 -5 25 -23 25 -23 0 -23 -2 -16 -47 4
-27 8 -64 8 -83 0 -29 -2 -32 -10 -15 -7 14 -8 3 -5 -38 5 -59 -7 -70 -19 -17
-4 17 -11 27 -19 24 -7 -3 -18 5 -24 18 -6 13 -11 17 -11 11 -1 -7 -5 -13 -10
-13 -5 0 -12 21 -16 48 -14 100 -9 95 -84 87 -36 -3 -74 -9 -84 -11 -9 -3 -33
-36 -52 -72 -19 -37 -34 -61 -35 -54 -1 26 -21 10 -45 -35 -23 -42 -25 -44
-21 -18 5 33 -11 70 -21 48 -2 -7 -8 -13 -13 -13 -5 0 2 26 15 58 19 46 21 58
9 60 -17 4 -18 14 -2 30 9 9 9 12 -1 12 -10 0 -11 3 -2 14 9 11 9 16 -1 22 -9
6 -1 12 24 19 35 9 41 18 95 125 31 63 59 117 60 121 4 6 -51 2 -143 -12 l-71
-11 -16 -57 c-8 -31 -25 -99 -37 -151 -38 -163 -58 -229 -60 -195 -1 29 -1 29
-16 10 -9 -11 -25 -38 -36 -60 l-19 -40 5 45 c3 25 2 52 -4 60 -6 10 -10 11
-10 3 0 -7 -5 -13 -11 -13 -7 0 -9 15 -4 43 8 57 55 297 62 321 6 20 15 20
-119 -1 -30 -4 -39 -3 -34 6 4 6 2 18 -4 26 -10 12 -10 18 -1 29 9 11 9 15 -1
19 -10 4 -10 8 3 21 10 11 47 20 105 28 49 6 95 16 102 21 15 11 232 20 276
11 27 -6 28 -8 12 -19 -12 -10 -14 -15 -5 -20 8 -6 4 -12 -12 -21 -23 -13 -23
-13 16 -14 36 0 42 4 60 36 14 27 23 34 40 30 20 -5 87 13 101 27 10 9 24 9
24 0z m1098 -102 c2 -6 19 -11 38 -11 49 0 42 -18 -11 -25 -47 -8 -84 -34 -49
-36 40 -1 -22 -17 -92 -23 -178 -16 -171 -15 -177 -44 -3 -15 -9 -35 -13 -45
-6 -17 -1 -18 57 -17 35 1 80 1 99 0 32 -1 33 -2 15 -12 -19 -12 -19 -12 5
-18 25 -7 25 -7 -10 -23 -26 -11 -30 -16 -15 -17 l20 -1 -20 -9 c-11 -4 -59
-11 -107 -15 l-86 -7 -12 -42 c-6 -22 -11 -45 -11 -50 1 -5 70 -8 154 -7 88 1
158 -3 167 -9 11 -7 7 -10 -20 -10 -64 -1 -10 -20 60 -21 70 -2 62 -4 -43 -14
-63 -6 -86 -25 -30 -25 15 0 24 -2 22 -4 -2 -2 -76 -10 -164 -16 -88 -7 -172
-18 -187 -25 -20 -10 -28 -10 -31 -1 -3 6 -9 0 -15 -14 -7 -17 -11 -19 -11 -8
-1 11 -11 18 -33 20 -22 2 -32 9 -35 23 -13 70 -12 74 10 77 16 2 25 16 38 58
13 41 14 57 6 65 -19 16 -9 73 14 80 20 7 30 25 43 77 5 22 2 27 -16 30 -16 2
-22 10 -21 28 2 79 42 98 202 99 63 1 117 4 120 7 10 10 135 -3 139 -15z
m-2639 -566 c33 -10 69 -31 88 -50 33 -33 33 -35 19 -63 -17 -32 -69 -70 -138
-98 -49 -20 -62 -34 -30 -34 38 0 122 -31 152 -56 23 -20 30 -34 30 -62 0 -31
-8 -44 -53 -87 -60 -56 -109 -83 -241 -131 -60 -22 -77 -32 -51 -28 64 11 37
-2 -67 -30 -54 -15 -106 -29 -115 -32 -10 -2 0 4 22 15 35 18 36 20 10 14 -95
-20 -109 -27 -122 -68 l-11 -40 -1 38 c-1 35 -2 36 -21 25 -11 -7 -23 -28 -26
-48 -16 -100 -24 -114 -19 -37 4 70 3 78 -12 75 -9 -2 -20 -14 -23 -28 -6 -25
-6 -25 -18 8 -11 32 -11 32 24 33 41 2 33 0 119 26 39 12 120 36 180 53 111
32 268 90 262 97 -2 2 -34 -8 -70 -21 -60 -22 -67 -22 -68 -8 0 11 -2 12 -6 4
-2 -6 -9 -9 -15 -6 -6 4 -25 7 -42 6 -17 0 -34 4 -37 10 -5 7 -37 2 -98 -16
-109 -31 -119 -32 -98 -8 8 9 18 35 21 57 3 22 3 34 0 28 -3 -8 -25 -13 -54
-13 -55 0 -55 0 -64 -53 -5 -29 -4 -37 5 -32 7 5 10 3 7 -6 -5 -14 -21 -21
-97 -40 -29 -7 -40 -13 -31 -19 7 -4 10 -12 6 -18 -3 -6 0 -13 6 -15 7 -3 -7
-5 -32 -6 -37 0 -41 2 -22 9 24 10 30 30 10 30 -22 1 23 22 70 34 l45 12 24
89 c12 50 25 100 29 113 5 17 2 22 -12 22 -16 0 -17 2 -4 10 13 8 12 10 -2 10
-21 0 -24 16 -5 23 9 4 8 8 -3 16 -14 10 -7 15 49 33 8 2 27 39 43 82 l28 79
-37 -7 c-21 -4 -56 -10 -78 -13 -37 -5 -38 -4 -21 9 18 14 18 15 -4 21 l-23 6
29 26 29 25 -30 -6 c-29 -6 -29 -5 -10 9 11 8 63 24 115 36 123 26 402 24 489
-4z m871 -4 c41 4 111 8 155 7 l80 0 -50 -13 c-43 -11 -46 -13 -20 -15 26 -1
27 -3 10 -10 -29 -13 31 -12 210 1 104 8 161 8 185 1 27 -8 29 -10 12 -11 -32
-1 -17 -21 16 -22 20 -1 13 -5 -28 -19 -43 -14 -49 -18 -27 -19 16 -1 26 -5
23 -10 -3 -4 -62 -14 -131 -21 l-126 -13 -20 -38 c-10 -21 -19 -41 -19 -45 0
-3 37 -3 83 0 48 5 92 3 107 -3 25 -10 25 -10 2 -10 -29 -1 -19 -21 11 -22 20
-1 21 -2 2 -6 -11 -3 -31 -10 -45 -16 l-25 -10 25 -7 c18 -5 2 -9 -55 -14
-147 -13 -149 -14 -161 -49 -6 -18 -14 -40 -19 -49 -8 -21 -2 -21 170 -9 61 4
135 4 165 1 45 -6 48 -7 18 -9 -80 -3 -26 -29 66 -32 24 -1 7 -5 -39 -9 -44
-4 -92 -11 -107 -15 -18 -5 -28 -3 -28 4 0 6 11 11 25 11 14 0 25 5 25 10 0 6
-12 10 -26 10 -15 0 -23 4 -19 11 5 7 -34 8 -134 3 l-140 -7 8 31 c11 35 6 42
-26 42 -12 0 -23 5 -23 10 0 6 -6 10 -14 10 -14 0 -36 -49 -36 -81 0 -21 -53
-52 -78 -46 -11 2 -5 7 17 13 30 9 37 17 52 64 22 67 23 74 5 67 -15 -6 -17
27 -2 51 5 8 1 10 -11 7 -10 -3 1 4 24 15 34 17 45 28 54 61 10 33 10 42 0 49
-8 4 -10 13 -7 19 4 6 2 11 -4 11 -6 0 -8 5 -4 11 4 8 -3 9 -22 6 -16 -3 -59
-9 -95 -12 l-67 -6 -62 -167 c-79 -208 -109 -281 -109 -262 0 8 7 33 15 55 9
22 23 65 33 96 l18 55 -54 2 -54 1 -25 -52 c-13 -29 -24 -61 -24 -72 -1 -23
-38 -107 -39 -87 -1 7 24 86 55 175 79 231 78 227 73 232 -3 2 -34 0 -70 -5
-147 -23 -136 -22 -116 -6 18 14 18 15 -3 26 l-21 11 23 19 c19 17 21 21 8 29
-22 15 21 28 141 41 57 7 109 16 114 20 14 11 58 17 70 9 6 -3 44 -2 85 2z
m1010 -19 c25 -12 36 -25 38 -45 2 -15 8 -25 13 -22 15 10 10 -13 -11 -55 -13
-25 -25 -37 -34 -34 -9 3 -17 -3 -22 -18 l-7 -23 -9 24 c-7 19 -11 21 -22 11
-12 -9 -15 -6 -18 22 -3 32 -4 33 -44 31 -41 -2 -136 -42 -149 -64 -12 -18 7
-28 118 -69 134 -50 221 -93 241 -122 18 -25 21 -74 6 -83 -5 -3 -10 -14 -10
-23 0 -10 -14 -23 -32 -31 -45 -20 -24 -24 68 -12 72 9 94 8 83 -3 -2 -2 -51
-9 -109 -15 -91 -9 -122 -18 -233 -65 -70 -29 -128 -57 -128 -62 0 -5 -33 -21
-72 -36 -81 -32 -80 -31 -72 -18 9 15 4 13 -117 -36 -159 -64 -158 -64 -158
-58 0 3 34 21 76 40 42 20 74 38 71 40 -3 3 -80 -20 -172 -51 -91 -31 -168
-55 -171 -52 -14 14 345 133 371 123 10 -4 14 -2 9 5 -4 8 1 9 15 4 28 -8 258
70 371 127 l35 17 -41 1 c-23 0 -59 7 -79 16 -38 15 -39 15 -149 -32 -61 -26
-140 -60 -175 -76 -35 -16 -67 -28 -72 -26 -4 2 87 46 203 98 241 109 308 144
308 165 0 18 -47 42 -165 84 -156 55 -206 95 -192 153 21 81 220 185 357 187
25 1 61 -7 80 -17z m-1475 -12 c-3 -5 -1 -17 6 -27 8 -14 4 -37 -21 -108 -18
-50 -54 -155 -82 -235 -27 -80 -54 -149 -58 -154 -11 -11 3 45 29 119 11 32
21 60 21 61 0 2 -16 8 -35 14 -39 13 -75 6 -75 -16 0 -8 -4 -14 -9 -14 -4 0
-14 -21 -20 -47 -7 -27 -19 -68 -26 -93 l-15 -45 5 42 c3 23 16 80 30 125 14
46 39 128 56 183 39 129 68 193 79 176 6 -11 15 -11 46 -1 22 7 46 16 54 21
20 11 22 11 15 -1z m-2097 -63 c17 -12 15 -66 -3 -73 -9 -4 -49 -3 -90 1 l-75
7 0 37 c0 21 2 40 4 42 7 7 150 -5 164 -14z m-245 -101 c4 -6 6 -24 5 -41 -3
-28 -6 -30 -50 -33 -26 -2 -65 2 -87 8 -37 10 -41 14 -41 44 0 18 3 36 7 40
10 10 157 -5 166 -18z m235 -12 c17 -5 22 -14 22 -40 0 -29 -5 -36 -32 -48
-25 -11 -28 -15 -12 -15 28 -1 44 -20 44 -53 0 -37 -12 -41 -101 -31 l-74 8
-3 38 -3 37 48 1 48 0 -45 17 c-41 16 -45 21 -48 55 l-3 37 68 0 c37 0 78 -3
91 -6z m-231 -94 c2 0 3 -19 3 -41 l0 -42 -82 7 c-44 4 -85 9 -90 12 -4 3 -8
20 -8 39 l0 34 58 3 c31 2 70 0 87 -4 16 -5 31 -8 32 -8z m4917 -56 c46 -7 46
-7 46 -45 l0 -39 -57 0 c-32 0 -75 3 -95 6 -35 6 -38 9 -38 39 0 17 3 35 7 38
8 9 76 9 137 1z m-2419 -213 c-8 -25 -15 -47 -15 -50 0 -3 152 -7 338 -8 185
-1 353 -6 372 -10 21 -6 -101 -8 -310 -7 -362 2 -529 -5 -745 -31 -167 -21
-405 -69 -393 -80 1 -1 113 12 248 31 269 37 499 56 630 53 47 -1 193 -2 325
-1 l240 0 -175 -8 c-247 -13 -484 -37 -629 -65 -119 -24 -161 -26 -110 -7 42
16 244 53 336 62 73 7 60 8 -72 4 -171 -4 -379 -26 -643 -68 -90 -14 -180 -26
-200 -26 -35 1 -36 1 -17 16 54 41 312 91 586 114 201 17 199 17 215 70 8 25
14 61 15 80 l1 35 9 -30 c6 -21 4 -43 -6 -74z m2415 91 c43 -7 45 -8 45 -42 0
-42 -9 -45 -112 -35 l-73 7 0 39 0 39 48 -1 c26 0 67 -4 92 -7z m-5396 -67
c-17 -43 41 -59 291 -80 99 -8 196 -19 215 -24 19 -5 64 -12 100 -15 36 -3
121 -11 190 -17 69 -6 229 -19 355 -29 127 -10 208 -18 180 -19 -27 0 -219 10
-425 24 -335 22 -673 40 -785 40 -34 0 -40 -3 -43 -22 -5 -36 -40 -30 -50 9
-6 25 -16 35 -41 42 -40 11 -51 -1 -51 -58 0 -25 -4 -36 -9 -30 -10 9 -18 150
-10 159 6 6 72 34 81 35 4 0 5 -7 2 -15z m6656 -26 c9 -15 1 -23 -52 -52 -35
-19 -185 -102 -335 -185 -149 -83 -299 -160 -332 -172 -33 -13 -58 -26 -55
-31 3 -5 0 -9 -5 -9 -6 0 -11 -13 -11 -30 0 -23 -4 -30 -20 -30 -16 0 -20 7
-20 33 l0 33 -292 18 c-161 9 -506 30 -767 47 -261 16 -488 30 -505 30 -20 1
-24 3 -10 6 19 4 150 -3 989 -53 235 -14 450 -13 595 2 34 3 40 2 25 -6 -54
-26 88 6 150 35 70 32 215 120 215 131 0 3 -6 2 -12 -2 -7 -4 -11 -5 -8 -1 3
3 30 19 60 35 30 16 88 48 128 70 40 22 69 36 66 30 -14 -22 119 38 171 78 19
14 19 16 3 28 -22 16 -23 27 -3 20 9 -4 20 -15 25 -25z m-1466 -12 c12 -9 17
-23 14 -42 -3 -28 -6 -30 -53 -33 -79 -4 -129 9 -133 37 -7 45 3 51 81 51 44
0 80 -5 91 -13z m245 -21 c7 -8 11 -27 9 -43 l-3 -28 -84 2 c-96 3 -118 15
-107 57 6 25 8 26 90 26 61 0 87 -4 95 -14z"/>
<path d="M204 2153 c3 -59 9 -110 14 -114 4 -4 22 -10 40 -14 l32 -7 0 89 c0
113 -5 129 -42 142 -52 18 -51 18 -44 -96z"/>
<path d="M1630 1494 c-75 -13 -67 4 -97 -198 l-5 -39 58 33 c65 36 129 84 156
115 23 27 23 72 1 79 -32 9 -88 14 -113 10z"/>
<path d="M2469 1053 c-15 -4 -74 -133 -61 -133 4 0 41 11 82 25 93 32 185 77
184 90 -2 19 -154 32 -205 18z"/>
<path d="M2435 813 c-73 -9 -72 -7 -106 -113 -18 -54 -31 -102 -28 -105 9 -8
185 53 272 94 97 47 133 76 117 96 -21 25 -159 40 -255 28z"/>
<path d="M3370 4570 c-15 -16 -38 -57 -50 -91 -21 -56 -23 -76 -21 -223 2
-170 9 -212 46 -286 27 -53 55 -80 110 -108 74 -37 126 -45 295 -47 170 -1
183 -4 290 -53 113 -53 154 -63 245 -65 112 -2 158 16 238 96 99 99 158 257
158 426 1 108 -25 161 -93 197 -37 19 -199 18 -307 -2 -146 -28 -356 -3 -526
61 -83 31 -115 51 -111 68 1 6 1 9 -1 5 -8 -15 -38 -7 -93 22 -77 42 -141 42
-180 0z m268 -257 c44 -13 52 -19 52 -40 0 -13 -6 -26 -14 -29 -17 -7 -10 -34
9 -34 7 0 18 -7 25 -15 7 -8 23 -15 36 -15 14 0 24 -6 24 -15 0 -10 -16 -15
-62 -17 l-63 -3 63 -14 64 -14 -7 -46 c-15 -111 -15 -111 -46 -111 -16 0 -37
4 -47 9 -9 5 -42 14 -72 21 -30 7 -61 18 -69 24 -8 6 -37 18 -65 26 l-51 16 4
39 c1 22 8 43 15 47 8 6 8 8 -1 8 -7 0 -13 12 -13 26 0 26 0 26 56 19 45 -5
55 -4 52 7 -3 7 -23 14 -46 16 -33 2 -42 7 -42 22 0 25 26 32 59 15 34 -17 42
-12 34 26 -12 61 -2 63 105 32z m760 -119 c19 -6 22 -13 22 -60 0 -48 18 -85
28 -56 2 7 17 12 33 12 28 0 29 -2 27 -37 l-3 -38 -55 -6 -55 -6 54 -1 54 -2
-6 -37 c-4 -21 -12 -40 -18 -42 -7 -2 -8 -6 -1 -10 6 -3 6 -15 1 -28 -8 -22
-14 -23 -108 -23 -55 0 -112 5 -128 12 -15 6 -50 11 -78 12 -44 1 -50 4 -53
24 -2 12 1 22 6 22 5 0 9 17 8 37 -1 36 1 38 34 44 l35 6 -32 2 c-25 1 -33 6
-33 20 0 33 81 45 98 15 7 -13 11 -10 21 15 7 16 13 47 14 68 0 21 5 44 10 51
10 12 85 16 125 6z"/>
<path d="M3656 3661 c-4 -5 3 -7 13 -4 11 3 32 -2 48 -10 15 -9 40 -18 55 -21
15 -4 33 -12 40 -20 8 -8 28 -12 53 -10 33 3 36 2 15 -5 -22 -8 -22 -9 -5 -11
11 -1 36 -5 55 -7 59 -9 235 -5 310 6 50 8 83 20 108 38 51 37 61 48 33 33
-13 -7 -65 -13 -115 -14 -50 -2 -104 -8 -121 -15 -22 -9 -68 -11 -175 -6 -123
6 -153 11 -194 31 -50 24 -110 32 -120 15z"/>
</g>
</svg>
