<?xml version="1.0" standalone="no"?>
<!DOCTYPE svg PUBLIC "-//W3C//DTD SVG 20010904//EN"
 "http://www.w3.org/TR/2001/REC-SVG-20010904/DTD/svg10.dtd">
<svg version="1.0" xmlns="http://www.w3.org/2000/svg"
 width="720.000000pt" height="544.000000pt" viewBox="0 0 720.000000 544.000000"
 preserveAspectRatio="xMidYMid meet">
<metadata>
Created by potrace 1.16, written by Peter Selinger 2001-2019
</metadata>
<g transform="translate(0.000000,544.000000) scale(0.100000,-0.100000)"
fill="#000000" stroke="none">
<path d="M3465 5380 c-169 -27 -382 -114 -505 -208 -36 -27 -97 -83 -135 -124
-67 -72 -149 -195 -151 -228 -1 -8 -2 -23 -3 -32 0 -9 -13 -28 -28 -42 -29
-27 -60 -143 -43 -160 13 -13 13 -108 0 -142 -6 -15 -24 -42 -39 -60 -16 -18
-39 -59 -51 -91 -40 -106 -13 -273 64 -388 27 -40 50 -59 120 -97 48 -27 98
-48 112 -48 14 0 35 -5 47 -11 12 -7 35 -12 52 -13 22 -1 41 -13 73 -47 l42
-47 -27 -7 c-16 -3 -42 -17 -60 -31 -30 -23 -33 -23 -68 -8 -49 20 -276 74
-314 74 -38 0 -55 29 -47 80 7 42 -15 123 -69 254 -61 151 -94 216 -122 242
-26 24 -26 26 -11 52 38 65 61 147 60 211 -2 71 -16 100 -68 144 -24 20 -38
45 -50 85 -9 31 -24 73 -34 92 -10 19 -23 60 -30 90 -7 30 -25 96 -41 145 -15
50 -38 128 -50 175 -34 129 -83 162 -151 101 -30 -27 -33 -34 -32 -85 1 -31
11 -87 22 -124 11 -37 30 -105 41 -152 11 -47 24 -96 27 -109 l7 -24 -34 25
c-19 15 -46 29 -60 33 -35 9 -96 -18 -110 -49 -8 -16 -23 -26 -45 -31 -45 -8
-94 -50 -94 -81 0 -17 -7 -25 -25 -30 -14 -3 -34 -18 -45 -31 -38 -49 -23
-115 67 -288 11 -22 37 -74 58 -116 20 -42 49 -89 65 -104 l28 -27 -20 -40
c-19 -37 -20 -45 -9 -105 17 -91 74 -261 126 -370 36 -76 51 -98 88 -124 32
-23 48 -42 57 -71 16 -54 95 -131 155 -152 30 -10 62 -13 90 -9 37 5 44 3 49
-15 15 -47 48 -71 149 -111 56 -22 149 -52 207 -66 86 -23 110 -26 135 -16 22
7 41 8 65 1 19 -6 64 -10 100 -10 36 1 87 -5 115 -12 49 -13 49 -14 72 -78 31
-87 67 -157 112 -216 29 -39 45 -51 79 -58 37 -9 42 -13 42 -38 0 -28 0 -28
-68 -28 -56 0 -74 4 -93 21 -18 16 -32 19 -58 15 -19 -3 -37 -9 -40 -14 -12
-18 -44 -22 -60 -8 -10 9 -52 18 -115 23 l-98 8 -2 44 c-2 31 -9 49 -24 61
-30 25 -117 33 -171 18 -37 -11 -50 -22 -68 -56 -1 -2 -31 8 -67 22 -148 59
-516 91 -798 69 -97 -8 -131 -4 -95 10 9 4 9 6 0 6 -7 1 -13 8 -13 17 0 12 -6
14 -32 8 -18 -4 -43 -7 -55 -6 -16 1 -23 -4 -23 -17 0 -27 -17 -37 -95 -57
-38 -9 -99 -27 -134 -40 -35 -13 -67 -21 -71 -19 -4 3 -11 17 -15 32 -8 34
-21 43 -63 43 -51 0 -72 -16 -72 -53 0 -49 -9 -55 -75 -55 -33 1 -77 -6 -98
-15 -32 -14 -37 -20 -37 -49 l0 -33 -118 -42 c-116 -41 -473 -176 -544 -206
-65 -28 -72 -48 -62 -200 l9 -132 31 -20 c37 -24 34 1 69 -430 14 -170 37
-445 50 -610 14 -165 25 -308 25 -316 0 -9 -14 -22 -31 -30 -18 -7 -45 -23
-60 -37 -25 -21 -29 -31 -29 -77 0 -91 9 -114 50 -135 55 -28 134 -38 470 -60
312 -20 1021 -68 1415 -95 121 -9 315 -22 430 -30 628 -44 807 -56 975 -70
102 -8 376 -28 610 -45 234 -17 506 -38 605 -47 137 -12 347 -17 877 -20 l697
-4 103 59 c300 174 516 305 537 326 19 19 24 38 28 92 5 60 2 73 -17 96 -12
16 -28 28 -36 28 -18 0 -18 11 1 212 8 90 28 368 45 618 39 599 36 571 70 603
24 23 28 36 34 104 3 43 7 115 7 161 2 73 -1 86 -21 107 -27 29 -84 41 -230
50 -58 3 -144 11 -192 16 -60 7 -93 7 -105 0 -16 -9 -15 -10 7 -11 14 0 32 -5
40 -10 10 -7 -7 -10 -58 -10 -51 0 -93 -7 -144 -25 -39 -14 -73 -27 -76 -30
-3 -3 2 -13 11 -23 9 -10 22 -32 28 -50 9 -25 8 -36 -5 -54 -9 -12 -16 -18
-16 -12 0 6 3 14 7 18 13 12 11 35 -3 47 -10 8 -14 8 -14 0 0 -16 -30 -13 -36
4 -5 12 -16 6 -50 -24 -77 -68 -258 -120 -529 -151 -93 -11 -173 -20 -177 -20
-5 0 -8 -18 -8 -40 0 -27 6 -42 18 -49 13 -8 0 -10 -51 -11 -40 0 -66 4 -62 9
3 6 0 28 -7 49 l-12 40 -131 7 c-151 7 -504 43 -518 52 -5 3 -34 5 -63 4 -43
-1 -54 2 -54 15 0 8 -17 22 -37 31 -70 28 -148 82 -171 117 l-24 35 21 63 c12
35 34 78 50 97 34 40 33 47 -10 56 -23 5 -28 9 -18 16 8 5 25 9 39 10 20 1 18
3 -10 9 -27 6 -19 8 35 6 75 -1 92 -16 45 -39 -33 -16 -95 -108 -79 -117 8 -5
6 -15 -5 -33 -19 -28 -14 -70 12 -100 45 -51 220 -120 402 -157 129 -26 379
-44 480 -34 41 4 145 8 230 9 272 3 511 61 606 147 14 12 20 27 17 39 -6 22
-5 22 -37 8 -14 -7 -23 -17 -19 -22 4 -6 0 -8 -11 -4 -9 4 -29 0 -44 -9 -21
-13 -23 -13 -9 -1 10 8 14 17 10 20 -5 3 -92 5 -194 3 -101 -1 -173 -1 -159 1
44 6 175 34 190 40 8 3 29 8 45 10 17 3 38 12 48 20 9 9 20 13 23 10 4 -3 13
0 20 8 8 8 21 12 29 9 8 -4 15 -1 15 5 0 7 6 11 13 10 6 -1 20 1 30 6 17 7 17
9 1 26 -17 18 -16 19 15 8 23 -8 35 -8 45 0 7 6 16 8 19 4 4 -3 7 1 7 10 0 9
8 15 19 14 24 -1 89 42 97 65 9 28 -14 56 -54 68 -44 12 -132 13 -150 2 -6 -5
-66 2 -132 14 -66 12 -166 27 -222 34 -142 16 -138 14 -187 77 l-43 55 11 59
c18 88 5 231 -26 296 -44 95 -131 143 -245 137 -38 -2 -60 1 -65 10 -17 27
-200 115 -274 131 -26 6 -30 10 -25 31 16 64 -101 207 -217 264 -135 66 -294
49 -389 -41 -41 -39 -42 -39 -120 -39 -52 0 -91 -6 -116 -17 -45 -20 -159 -29
-128 -10 105 65 174 118 231 178 l68 72 58 1 c42 1 65 7 86 22 16 12 39 25 52
29 42 13 105 63 154 120 62 75 82 140 82 265 0 132 -27 200 -113 287 -35 35
-76 70 -92 78 -37 19 -72 92 -56 117 14 23 -28 112 -70 147 -17 14 -43 44 -56
66 -82 131 -306 268 -516 316 -101 22 -300 32 -387 19z m207 -261 c29 -6 81
-20 116 -31 l64 -20 -26 -27 c-28 -30 -96 -140 -96 -155 0 -6 15 15 32 46 17
32 46 74 65 93 l34 35 51 -27 c66 -37 180 -142 211 -196 19 -33 26 -63 32
-142 10 -145 10 -160 -4 -269 -14 -105 -5 -246 25 -371 16 -69 18 -129 5 -120
-5 3 -12 -3 -16 -14 -8 -26 -103 -120 -123 -121 -4 -1 -38 -30 -77 -66 -38
-35 -75 -62 -82 -60 -6 3 -22 -3 -35 -14 -20 -16 -21 -19 -7 -25 15 -6 170 69
177 85 1 4 9 16 17 26 15 18 15 18 9 -1 -5 -17 94 78 134 129 10 12 17 14 32
6 14 -8 27 -7 43 0 43 21 -111 -118 -179 -161 -95 -60 -209 -113 -228 -106 -9
4 -30 28 -46 54 -32 50 -40 52 -15 3 l16 -30 -31 0 c-16 0 -47 -6 -67 -14 -59
-23 -162 -36 -228 -30 -44 4 -56 3 -45 -5 8 -6 45 -11 82 -11 37 0 69 -4 73
-9 6 -10 60 -5 111 10 17 5 42 12 55 14 13 3 38 7 54 11 64 13 8 -15 -80 -41
-274 -79 -555 -33 -714 118 -92 88 -175 244 -221 412 -31 112 -38 303 -16 410
27 129 98 263 196 368 77 82 133 129 115 95 -4 -7 3 -1 16 14 96 108 379 176
571 137z m-1754 -263 c13 -19 27 -59 31 -89 l7 -54 -31 -1 c-42 -2 -85 -19
-85 -34 0 -9 -3 -9 -11 -1 -6 6 -13 46 -16 89 -6 93 2 106 77 123 3 0 15 -15
28 -33z m-141 -58 c13 -16 25 -148 14 -148 -5 0 -25 -11 -45 -25 l-37 -25 -9
26 c-6 14 -13 49 -16 78 -6 50 -5 54 26 79 35 30 52 33 67 15z m2778 -104 c18
-13 17 -14 -12 -8 -48 9 -87 -19 -117 -85 -82 -183 -28 -550 86 -590 29 -11
31 -13 15 -22 -48 -28 -133 30 -165 114 -36 89 -43 128 -49 263 l-6 130 33 70
c18 38 49 86 68 107 32 32 42 37 82 37 25 0 54 -7 65 -16z m-2304 -32 c68 -44
83 -65 76 -108 -3 -20 -11 -42 -18 -50 -10 -13 -14 -12 -29 3 -9 10 -32 32
-51 48 -31 27 -34 35 -34 83 0 28 2 52 6 52 3 0 25 -13 50 -28z m411 -229
c-21 -47 -27 -77 -30 -156 -5 -104 18 -237 44 -258 8 -6 14 -18 14 -26 0 -25
57 -128 94 -168 32 -37 33 -40 15 -43 -22 -4 -99 42 -99 59 0 5 -4 8 -8 5 -9
-5 -17 11 -67 143 -39 101 -59 225 -49 301 11 82 37 151 67 176 44 37 48 29
19 -33z m-364 -199 c25 -17 61 -92 127 -259 68 -172 70 -183 51 -247 -16 -55
-77 -148 -98 -148 -6 0 -8 3 -5 7 4 3 -18 53 -48 110 -30 57 -55 111 -55 119
0 7 -10 24 -22 37 -25 24 -25 24 -27 65 -1 19 -4 23 -10 14 -7 -11 -10 -10
-15 3 -3 9 -4 21 0 26 8 13 32 11 37 -3 3 -7 6 -2 6 11 1 18 -3 22 -16 15 -63
-27 -157 -54 -211 -60 l-62 -6 6 -37 c4 -20 15 -47 24 -61 24 -35 90 -171 90
-186 0 -7 6 -19 13 -26 20 -21 47 -75 47 -92 0 -11 10 -16 33 -17 31 0 31 -1
7 -10 -46 -19 -155 14 -190 57 -43 53 -121 242 -159 385 -29 106 -30 134 -6
192 11 27 25 2 25 -46 0 -30 7 -45 29 -66 29 -27 86 -50 132 -52 18 -1 15 -4
-11 -9 -33 -7 -33 -7 15 -9 56 -1 133 17 183 43 34 17 44 33 15 21 -11 -4 -6
6 13 27 58 62 74 90 74 127 0 21 -7 46 -15 57 -27 36 -15 45 23 18z m2433
-464 c82 -33 160 -93 202 -156 20 -31 37 -64 36 -73 0 -11 -3 -9 -9 5 -25 62
-96 69 -197 19 -72 -35 -147 -106 -179 -167 -8 -15 -17 -28 -19 -28 -8 0 8 34
27 59 19 25 25 56 8 46 -15 -9 -116 52 -139 84 -15 21 -28 27 -57 28 -20 1
-40 7 -44 13 -6 9 -10 8 -14 -6 -3 -10 -3 -1 0 21 10 73 60 128 149 162 51 20
177 16 236 -7z m-2009 -151 c174 -45 185 -52 223 -142 l16 -38 -48 5 c-33 4
-42 3 -28 -3 11 -5 30 -23 43 -40 13 -17 27 -29 33 -26 5 4 9 -3 9 -15 0 -21
-3 -21 -107 -16 -60 3 -121 8 -138 12 -24 4 -27 3 -15 -6 13 -10 12 -11 -3 -6
-10 3 -26 6 -35 6 -15 0 -15 2 -2 11 12 8 8 10 -15 8 -54 -2 -55 -2 -43 32 24
70 -16 229 -57 229 -8 0 -17 5 -20 10 -12 19 62 10 187 -21z m1536 -61 c-31
-74 -32 -272 -1 -365 12 -35 17 -61 13 -58 -12 8 -41 -6 -34 -16 3 -5 1 -9 -4
-9 -6 0 -20 25 -33 55 -32 77 -35 62 -4 -20 14 -37 23 -70 20 -73 -3 -3 -5 1
-5 8 0 7 -17 -3 -37 -24 -51 -50 -165 -141 -178 -141 -5 0 -28 -9 -49 -19 -33
-17 -36 -21 -20 -27 17 -7 17 -8 1 -8 -10 -1 -39 10 -65 23 -59 30 -142 54
-202 58 -25 2 -51 7 -58 12 -6 4 -12 2 -12 -3 0 -6 -17 -11 -37 -11 -20 0 -51
-5 -70 -12 -29 -11 -36 -9 -64 11 -24 18 -39 22 -68 17 -33 -5 -39 -2 -53 22
-13 23 -31 88 -54 197 -12 61 -39 56 -48 -9 -11 -71 38 -223 108 -335 12 -20
28 -52 34 -71 l12 -35 -31 35 c-44 50 -107 186 -124 266 -8 38 -15 101 -15
139 0 78 22 187 39 193 6 2 9 8 5 13 -3 5 6 9 19 9 28 0 40 -29 30 -69 -4 -15
-2 -22 4 -18 6 4 13 20 17 37 6 35 25 45 62 36 20 -5 25 -12 21 -27 -5 -18 -2
-20 16 -15 12 3 30 6 41 6 12 0 16 5 12 15 -7 19 -5 19 46 -4 24 -11 55 -22
71 -26 16 -3 27 -12 28 -23 1 -15 2 -15 6 -1 3 11 20 19 51 24 110 16 235 81
336 174 37 34 46 39 33 19 -14 -22 -14 -28 -4 -28 14 0 138 58 147 69 4 5 111
61 117 61 2 0 -7 -24 -19 -52z m871 -143 c58 -25 117 -55 131 -66 20 -17 21
-19 5 -13 -53 19 -143 15 -130 -6 3 -6 -2 -10 -13 -10 -30 0 -105 -72 -136
-131 -16 -30 -30 -55 -31 -56 -3 -5 -113 40 -168 69 -63 34 -63 36 -27 108 41
80 145 150 224 150 23 0 80 -18 145 -45z m305 -156 c76 -21 164 -129 181 -222
8 -42 -1 -134 -15 -157 -8 -13 -12 -12 -27 5 -21 23 -68 96 -68 107 0 9 -14
22 -28 24 -7 2 -46 17 -87 34 -86 36 -141 37 -208 2 l-40 -21 14 27 c8 15 14
34 14 42 0 8 11 37 24 65 14 27 23 52 21 54 -3 2 -20 -8 -39 -22 -36 -28 -73
-113 -62 -142 3 -8 1 -15 -5 -15 -6 0 -9 -10 -8 -22 2 -28 -10 -60 -21 -53 -8
5 -12 -4 -24 -57 -10 -43 -28 -34 -21 10 9 53 43 159 65 202 40 79 156 150
245 150 28 0 67 -5 89 -11z m-3039 -19 c8 -13 81 -13 107 1 26 14 33 6 12 -15
-9 -9 -15 -18 -13 -20 8 -7 215 -78 279 -95 46 -13 60 -21 48 -26 -30 -12
-254 49 -378 103 -44 19 -94 62 -72 62 6 0 14 -4 17 -10z m2292 -201 c24 -12
48 -30 54 -40 11 -22 164 -102 227 -118 48 -13 52 -28 17 -61 -14 -13 -31 -43
-36 -67 -13 -50 -20 -57 -78 -71 -53 -13 -61 -10 -61 27 0 39 -17 51 -76 51
-63 0 -84 -17 -84 -66 l0 -35 -86 2 c-97 2 -136 -16 -142 -64 -4 -29 -11 -31
-73 -21 -32 6 -35 8 -31 36 3 23 14 33 47 49 23 11 54 32 68 47 48 51 115 173
143 262 33 101 38 104 111 69z m775 -102 c60 -29 188 -140 176 -152 -4 -4 -21
-2 -38 5 -34 14 -80 1 -80 -22 0 -7 -7 -2 -16 10 -18 27 -69 30 -103 6 -19
-14 -29 -15 -62 -5 -42 13 -74 8 -100 -16 -14 -12 -18 -10 -29 17 -17 40 -7
103 22 145 28 41 36 44 113 42 43 -2 78 -11 117 -30z m-3338 -220 c37 -16 38
-18 22 -36 -31 -35 -101 -46 -281 -46 -143 0 -175 3 -202 18 -51 27 -33 48 67
76 19 6 107 9 195 8 125 -2 169 -7 199 -20z m-1001 -89 c-26 -29 -23 -65 6
-89 37 -30 202 -77 326 -94 145 -19 351 -20 384 -1 17 10 36 10 75 3 122 -23
464 18 604 73 81 32 125 40 82 15 -73 -42 -299 -95 -515 -120 -152 -18 -170
-26 -162 -77 3 -24 0 -28 -22 -28 -14 0 -37 -3 -50 -7 -23 -6 -24 -4 -19 34
l6 41 -47 5 c-25 3 -59 9 -76 12 -16 4 -55 9 -85 11 -224 17 -389 47 -471 83
-56 25 -99 64 -99 89 0 25 44 65 79 71 3 1 -5 -9 -16 -21z m-238 -47 c-6 -4
-32 -17 -60 -27 -47 -18 -48 -19 -20 -22 37 -4 47 -13 35 -32 -11 -18 -105
-19 -137 -1 -16 8 -24 7 -32 -3 -6 -7 -38 -21 -71 -30 -33 -10 -112 -42 -175
-72 -169 -80 -159 -96 70 -113 328 -25 541 -42 555 -45 8 -2 -19 -5 -60 -6
-129 -3 -39 -17 188 -30 114 -6 268 -15 342 -20 139 -10 233 -12 214 -4 -5 2
-59 9 -120 14 -97 8 -90 8 71 4 99 -3 230 -9 290 -14 61 -5 157 -11 215 -14
58 -3 120 -8 139 -12 33 -7 33 -8 11 -16 -12 -5 -21 -10 -19 -12 2 -3 85 -9
184 -15 99 -6 234 -16 300 -21 242 -21 750 -53 1155 -74 80 -4 86 -4 40 4 -30
5 -100 14 -155 19 l-100 10 105 -5 c58 -2 213 -11 345 -20 132 -8 317 -19 410
-24 94 -5 172 -9 175 -10 2 0 0 -4 -5 -9 -6 -6 -42 -6 -90 -1 -103 11 -391 23
-384 16 9 -9 618 -49 904 -60 140 -5 140 -5 60 8 -80 12 -80 12 75 9 85 -2
209 -8 275 -13 66 -6 224 -14 351 -19 242 -10 334 -2 402 33 49 25 137 99 123
104 -9 3 -9 8 2 21 8 9 18 26 21 38 5 17 1 24 -25 37 -18 9 -38 16 -46 16 -21
0 -15 28 9 41 16 9 23 9 26 1 2 -8 9 -8 22 0 15 10 23 9 39 -6 11 -10 18 -23
15 -27 -3 -5 -2 -15 3 -22 10 -16 10 -38 0 -61 -11 -22 -20 -27 138 77 151 99
156 102 148 81 -5 -14 -3 -15 16 -5 12 7 26 9 31 6 22 -14 180 94 176 120 -4
28 -25 33 -154 40 -69 4 -137 11 -151 16 -16 5 18 7 86 3 165 -8 224 -18 240
-39 16 -24 17 -45 1 -46 -7 0 -58 -34 -113 -74 -55 -41 -159 -115 -231 -164
-73 -49 -165 -112 -206 -140 -41 -28 -100 -62 -131 -76 l-55 -26 -6 -82 c-3
-45 -7 -98 -9 -117 -2 -32 -5 -35 -37 -38 l-35 -3 5 78 c3 43 4 94 2 114 l-3
36 -177 6 c-170 6 -488 25 -772 47 -74 5 -216 14 -315 20 -99 6 -331 19 -515
30 -303 18 -1176 76 -1715 115 -115 8 -316 22 -445 30 -464 31 -526 35 -565
40 -96 12 -990 64 -1188 69 -120 4 -223 7 -230 9 -16 3 -21 -110 -7 -163 9
-35 13 -39 30 -30 19 10 180 -6 190 -20 3 -3 61 -14 130 -22 l125 -16 -120 4
c-203 8 -407 24 -447 35 -57 15 -66 37 -70 171 -2 101 0 120 15 135 9 9 61 34
114 54 54 20 186 70 294 112 184 71 278 105 289 107 2 0 0 -4 -5 -9z m3291
-224 c4 -4 2 -25 -5 -47 -12 -40 -12 -40 -54 -34 -23 3 -57 10 -76 15 -19 4
-37 6 -41 4 -4 -3 -14 2 -21 11 -11 14 -9 20 16 41 26 23 35 25 101 21 40 -2
76 -7 80 -11z m-458 -67 c43 0 52 -3 52 -18 0 -10 -13 -31 -29 -46 -28 -27
-31 -28 -105 -21 -42 4 -78 11 -81 15 -15 24 57 84 90 75 11 -2 44 -5 73 -5z
m-1899 -433 c94 -48 95 -118 0 -209 l-59 -57 35 -11 c46 -15 89 -52 105 -90
16 -39 47 -40 56 -2 8 34 113 282 127 300 5 6 22 12 38 12 15 0 31 5 34 10 3
6 15 10 26 10 10 0 19 5 19 10 0 6 5 10 10 10 6 0 10 -10 10 -23 0 -13 3 -27
8 -31 4 -4 16 -67 27 -139 19 -128 21 -132 44 -129 17 1 22 -2 17 -13 -3 -8
-1 -15 4 -15 5 0 12 12 15 28 19 88 105 206 179 244 48 25 136 29 162 7 30
-25 44 -72 33 -111 -11 -41 -60 -100 -67 -80 -2 7 -7 10 -12 7 -4 -2 -10 13
-14 35 -8 52 -32 53 -81 5 -47 -47 -76 -107 -82 -169 -4 -42 -1 -56 17 -78 30
-39 63 -36 144 13 37 22 70 39 72 36 3 -2 0 -16 -5 -31 -13 -32 -4 -33 31 -1
24 21 30 37 43 122 17 117 42 240 50 253 4 6 11 8 16 4 5 -3 16 0 24 6 8 6 19
9 24 6 5 -4 12 -2 16 4 10 16 19 12 32 -15 9 -20 8 -40 -3 -92 -7 -37 -12 -68
-11 -70 2 -1 48 36 103 83 54 46 126 98 159 114 l60 29 -33 -27 c-36 -30 -45
-60 -13 -42 28 14 35 12 20 -6 -10 -12 -10 -17 -1 -23 13 -8 -7 -29 -128 -131
-36 -30 -75 -65 -88 -78 l-23 -22 85 -108 c46 -60 92 -115 102 -123 16 -13 17
-12 10 11 -16 53 -11 104 9 96 8 -3 15 0 15 6 0 7 5 6 15 -2 12 -10 15 -9 16
6 0 11 6 4 15 -18 21 -49 58 -62 118 -42 51 17 79 44 71 67 -4 8 -43 34 -88
57 -108 56 -132 74 -147 109 -37 91 105 215 247 216 51 0 66 -4 87 -24 32 -30
34 -77 6 -123 -11 -18 -20 -29 -20 -24 0 5 -7 3 -15 -4 -10 -9 -15 -9 -15 -1
0 6 -7 11 -15 11 -9 0 -15 9 -15 25 0 31 -18 32 -76 3 -61 -30 -60 -57 4 -88
130 -66 192 -124 192 -182 0 -31 -45 -87 -93 -117 -36 -22 -179 -62 -187 -52
-6 8 -113 52 -116 48 -2 -2 15 -25 37 -52 46 -56 35 -75 -15 -26 -18 17 -35
31 -39 31 -12 0 -8 -18 9 -34 8 -9 11 -16 6 -16 -5 0 -17 9 -27 20 -12 14 -31
20 -59 20 -29 0 -37 3 -26 10 12 7 12 12 0 34 -7 14 -17 26 -22 26 -10 0 -31
20 -109 108 l-56 62 -17 -77 c-10 -43 -22 -87 -27 -98 -6 -13 -8 -14 -5 -2 3
9 2 17 -3 17 -9 0 -28 -36 -34 -65 -3 -12 -5 -7 -6 13 -1 19 -5 31 -11 27 -5
-3 -10 1 -10 10 0 11 -5 15 -15 11 -18 -6 -19 10 -5 69 5 22 7 42 4 44 -2 3
-33 -22 -67 -55 -105 -103 -145 -116 -226 -75 -62 32 -111 105 -111 169 0 14
-9 15 -29 3 -11 -7 -12 -20 -1 -77 9 -46 10 -69 3 -71 -7 -3 -9 -22 -7 -46 4
-34 3 -38 -5 -19 -6 12 -17 22 -25 22 -9 0 -18 11 -22 24 -3 15 -11 23 -19 20
-8 -3 -15 6 -19 23 -23 93 -26 101 -44 97 -9 -2 -43 -8 -74 -14 -57 -11 -57
-11 -73 -61 -10 -28 -23 -53 -31 -56 -7 -3 -24 -21 -36 -41 l-22 -36 -9 34
c-6 25 -11 30 -17 20 -17 -27 -19 -4 -5 45 8 26 15 52 15 57 0 22 -39 2 -94
-50 -36 -33 -95 -74 -139 -96 -42 -21 -74 -42 -72 -46 7 -11 -20 -20 -56 -20
-22 0 -30 -5 -35 -26 -4 -17 -9 -22 -14 -14 -16 26 -30 -3 -30 -60 0 -32 -5
-62 -11 -65 -7 -5 -8 4 -5 27 3 18 2 49 -3 68 l-8 35 -11 -25 c-9 -20 -11 -21
-11 -6 -1 16 -7 18 -43 13 -36 -5 -39 -4 -20 5 30 15 28 28 -5 28 -24 1 -25 2
-10 11 9 5 17 14 17 19 0 5 -8 10 -17 13 -13 3 -5 10 25 23 49 22 49 22 56
157 5 80 3 97 -9 97 -9 0 -12 6 -9 15 4 8 2 15 -4 15 -16 0 0 51 23 75 17 16
25 39 30 81 4 33 9 67 11 77 7 21 -8 22 -48 1 -17 -9 -45 -18 -62 -20 -17 -2
-25 -1 -18 2 6 3 12 13 12 21 0 12 -8 14 -37 9 l-38 -7 31 20 c42 26 55 46 25
38 -36 -9 -6 20 48 47 152 76 339 95 440 43z m-1420 -267 c52 -555 80 -953 67
-939 -16 15 -109 1184 -93 1169 3 -3 14 -106 26 -230z m3895 178 c3 -24 13
-94 21 -156 8 -62 17 -117 20 -122 3 -6 15 -10 26 -10 10 0 18 -3 17 -7 -2 -5
1 -10 6 -13 5 -3 13 6 16 20 47 172 264 322 390 270 66 -27 77 -125 19 -156
-16 -8 -29 -20 -30 -27 0 -9 -2 -9 -6 1 -2 6 -11 12 -19 12 -8 0 -14 6 -13 13
7 53 -22 62 -81 26 -141 -87 -193 -305 -71 -301 30 1 96 37 120 66 12 14 9 16
-37 16 l-50 0 -4 40 c-2 27 1 41 11 45 23 9 211 27 225 22 14 -6 20 -64 6 -72
-8 -5 -45 -111 -71 -208 -9 -29 -18 -46 -26 -43 -7 3 -17 -10 -24 -32 -14 -46
-29 -63 -29 -35 0 31 -11 54 -22 47 -6 -4 -9 9 -8 32 1 22 2 43 1 47 -1 4 -21
-4 -46 -18 -25 -14 -55 -25 -66 -25 -26 0 -109 42 -131 67 -23 25 -48 87 -48
118 0 25 -14 32 -38 17 -9 -6 -10 -21 -2 -62 5 -29 10 -64 10 -79 0 -21 -2
-23 -11 -11 -8 11 -9 1 -5 -39 5 -53 -9 -63 -16 -11 -2 17 -9 24 -19 22 -10
-1 -19 7 -23 20 -5 18 -8 20 -15 9 -7 -11 -12 -4 -20 25 -6 21 -11 47 -11 56
0 50 -29 59 -130 37 -50 -11 -52 -13 -83 -75 -24 -49 -33 -60 -38 -47 -5 15
-11 11 -30 -21 l-23 -39 -9 27 c-6 18 -14 25 -24 22 -16 -7 -11 18 13 66 18
35 18 48 -2 48 -13 0 -14 3 -5 14 9 11 9 15 -1 20 -11 5 -11 7 0 12 10 5 10 9
1 20 -12 15 -10 16 41 28 20 5 36 28 81 123 31 65 53 119 49 121 -8 3 -202
-26 -207 -32 -3 -3 -64 -242 -82 -326 -22 -95 -23 -99 -32 -70 l-7 25 -7 -22
c-4 -13 -13 -23 -20 -23 -7 0 -18 -17 -24 -37 l-11 -38 4 44 c5 52 -2 80 -15
59 -19 -29 2 146 35 302 8 36 12 67 11 69 -2 1 -36 -2 -75 -9 -39 -7 -74 -9
-77 -6 -4 3 -1 6 7 6 10 0 10 3 -1 16 -8 9 -14 30 -15 46 -2 40 25 55 111 64
39 4 81 11 95 17 30 12 253 17 289 7 l26 -8 -25 -10 c-14 -6 -19 -11 -12 -11
19 -1 14 -17 -10 -29 -21 -9 -18 -11 19 -11 38 -1 45 3 65 34 15 22 28 33 37
30 18 -7 111 16 111 27 0 4 4 8 9 8 4 0 11 -19 15 -42z m901 -59 c106 1 165
-2 170 -8 3 -6 24 -11 45 -11 53 0 59 -17 9 -25 -38 -7 -84 -37 -73 -48 6 -5
-51 -13 -167 -22 -73 -6 -77 -8 -82 -33 -3 -15 -9 -35 -12 -44 -7 -16 2 -18
91 -18 75 -1 95 -3 81 -11 -18 -10 -18 -11 0 -25 17 -13 17 -13 -4 -14 -23 0
-43 -20 -21 -21 36 -1 -43 -19 -112 -25 l-80 -7 -13 -46 -13 -46 155 -3 c86
-1 160 -7 165 -12 7 -7 1 -10 -14 -11 -48 -1 10 -17 70 -20 l55 -2 -69 -8
c-38 -4 -81 -11 -95 -15 -24 -7 -23 -8 14 -14 32 -5 20 -8 -60 -14 -164 -12
-257 -25 -271 -37 -11 -9 -14 -8 -14 2 0 8 -9 3 -20 -11 -16 -20 -20 -22 -20
-7 0 12 -8 17 -26 17 -18 0 -25 4 -21 14 3 7 0 19 -6 25 -18 18 -14 55 7 61
21 6 64 119 49 129 -18 12 -13 60 7 74 11 7 27 33 35 57 19 53 19 50 -4 50
-15 0 -18 7 -16 38 1 20 3 38 5 40 1 1 3 7 4 14 0 7 16 16 34 22 17 5 32 13
32 18 0 5 5 6 11 2 7 -4 85 -6 174 -5z m-4160 -548 c25 -5 31 -12 33 -39 4
-42 -10 -47 -106 -36 -70 8 -77 11 -80 32 -7 44 3 52 65 51 32 -1 72 -4 88 -8z
m1648 -12 c108 -17 177 -60 177 -110 0 -28 -60 -80 -130 -112 l-65 -29 59 -14
c100 -24 146 -62 146 -120 0 -60 -134 -155 -303 -215 -75 -27 -77 -29 -7 -13
61 14 -12 -15 -100 -41 -122 -34 -142 -38 -105 -20 39 19 21 19 -42 0 -42 -13
-52 -20 -61 -47 -10 -33 -10 -33 -11 -5 -1 15 -6 27 -12 27 -22 0 -38 -35 -39
-80 0 -25 -5 -52 -10 -60 -8 -10 -9 7 -4 59 6 67 5 73 -12 69 -10 -2 -21 -14
-24 -28 l-6 -25 -7 28 c-7 25 -10 27 -50 22 -34 -4 -38 -4 -19 5 29 12 18 34
-14 27 -30 -5 -42 9 -14 18 21 7 28 25 9 25 -28 0 8 20 56 31 52 12 55 14 60
48 3 20 15 68 25 108 24 86 24 83 4 83 -8 0 -13 4 -10 9 4 5 0 12 -6 14 -10 4
-9 8 2 16 8 5 11 13 7 18 -4 4 7 14 25 23 28 13 37 26 60 94 l27 78 -37 -6
c-20 -3 -53 -9 -72 -12 -30 -6 -33 -5 -23 8 10 11 10 17 1 26 -9 9 -7 17 7 33
19 20 19 20 -10 15 l-30 -6 30 14 c101 47 367 70 528 45z m1127 -24 c-25 -7
-36 -13 -25 -14 22 -1 10 -16 -20 -25 -21 -6 27 -3 264 15 79 6 155 8 168 4
24 -6 25 -7 7 -20 -18 -13 -17 -14 11 -16 26 -1 23 -3 -18 -14 -62 -17 -70
-25 -26 -26 65 -1 -7 -19 -129 -32 l-113 -12 -19 -43 -19 -43 99 2 c55 1 103
-1 107 -4 3 -4 -1 -7 -10 -7 -23 0 -22 -20 1 -21 10 0 6 -4 -10 -9 -44 -13
-54 -23 -33 -30 13 -4 -4 -9 -45 -14 -152 -16 -147 -14 -175 -63 -14 -25 -25
-47 -25 -48 0 -2 89 -1 198 1 108 2 188 1 177 -2 -46 -13 -37 -24 20 -24 75 0
61 -16 -20 -23 -33 -3 -72 -9 -87 -13 -18 -4 -28 -2 -28 5 0 6 12 11 28 12
l27 1 -27 10 c-16 5 -28 14 -28 19 0 6 -52 7 -135 3 -90 -5 -135 -4 -135 3 0
6 7 27 16 48 8 20 13 40 10 43 -3 3 -6 0 -6 -6 0 -8 -14 -10 -44 -6 -39 6 -44
4 -49 -17 -3 -13 -13 -33 -21 -44 -14 -17 -13 -13 1 29 10 30 12 51 6 55 -5 3
-12 16 -15 28 -6 22 11 44 44 56 10 3 24 23 33 43 19 45 19 54 1 54 -15 0 -28
24 -19 34 4 3 18 6 32 6 37 0 132 27 145 41 8 9 5 10 -14 4 -58 -17 -152 -34
-247 -45 -85 -10 -103 -15 -103 -29 0 -9 -4 -21 -9 -26 -4 -6 -36 -82 -70
-170 -90 -231 -90 -232 -90 -212 -1 10 10 43 23 75 13 31 31 80 39 109 l16 52
-33 -18 c-26 -15 -34 -16 -42 -6 -6 9 -16 11 -30 5 -15 -6 -29 -32 -48 -92
-27 -80 -45 -122 -46 -105 0 12 57 188 95 292 18 50 31 91 30 93 -2 2 -106
-11 -180 -23 -27 -5 -28 -4 -11 8 19 14 19 14 0 25 -18 10 -18 11 -1 30 10 10
15 26 12 34 -7 17 2 20 150 39 50 7 95 15 100 20 6 4 59 7 119 8 60 0 111 3
114 6 3 3 39 5 81 4 l76 -1 -45 -13z m815 -9 c36 -15 38 -20 36 -71 l-1 -30
14 25 c13 21 15 22 16 7 0 -33 -31 -87 -50 -87 -10 0 -21 -6 -23 -12 -4 -10
-7 -10 -15 0 -5 7 -16 10 -27 6 -13 -5 -16 -3 -13 7 3 8 1 22 -4 32 -8 15 -17
17 -51 12 -79 -14 -162 -64 -141 -85 5 -5 63 -30 129 -55 214 -83 252 -113
241 -189 -5 -32 -13 -45 -39 -61 l-32 -19 29 -4 c16 -2 48 1 72 7 52 13 74 14
74 2 0 -5 -39 -12 -87 -16 -49 -3 -106 -12 -128 -20 -56 -19 -222 -91 -268
-115 -21 -12 -43 -18 -49 -14 -6 4 -8 3 -4 -4 7 -12 -29 -26 -44 -17 -5 3 -38
-6 -72 -20 -35 -15 -85 -35 -113 -45 -27 -10 -68 -25 -90 -34 -35 -15 -37 -15
-20 -1 11 9 46 25 79 37 101 37 43 31 -81 -8 -187 -59 -203 -63 -203 -59 0 13
196 126 217 125 15 -1 -33 -31 -90 -57 -31 -14 -56 -27 -54 -29 4 -4 28 3 172
50 44 14 96 28 116 30 47 6 317 96 389 130 44 21 48 25 22 20 -42 -7 -109 4
-127 22 -12 12 -21 11 -67 -10 -72 -33 -160 -67 -164 -63 -2 2 54 29 124 61
166 75 252 124 252 141 0 19 -54 46 -176 90 -165 59 -202 98 -166 174 26 55
154 127 277 154 43 10 107 6 140 -7z m-1464 -46 c5 0 9 -8 9 -18 0 -19 -67
-209 -80 -227 -4 -5 -24 -64 -45 -130 -21 -66 -40 -114 -42 -108 -3 7 4 41 15
75 11 35 22 75 25 91 4 25 2 27 -29 27 -19 0 -34 -4 -34 -10 0 -5 -11 -10 -24
-10 -26 0 -32 -14 -68 -150 -7 -28 -13 -38 -16 -27 -2 10 1 31 6 45 6 15 20
61 32 102 73 260 115 374 130 349 8 -12 14 -11 39 4 21 12 32 14 37 6 4 -8 10
-6 18 7 10 18 11 18 14 -3 2 -13 8 -23 13 -23z m-2352 -15 c17 -10 13 -65 -5
-72 -9 -3 -50 -2 -92 3 -75 9 -77 10 -80 37 -6 51 -1 54 86 46 44 -4 85 -10
91 -14z m245 -18 c12 -9 17 -23 14 -42 -3 -26 -8 -30 -38 -33 -19 -2 -59 -1
-87 3 l-53 6 0 40 0 39 73 0 c44 0 80 -5 91 -13z m-250 -93 c11 -4 16 -19 16
-46 l0 -41 -79 6 c-44 3 -84 8 -90 12 -6 3 -11 22 -11 41 l0 34 74 0 c41 0 81
-3 90 -6z m254 -23 c8 -5 12 -22 10 -42 -2 -26 -8 -35 -25 -37 -31 -4 -29 -18
3 -26 22 -6 25 -11 22 -44 -3 -35 -5 -37 -43 -40 -22 -1 -60 1 -85 6 -41 7
-45 10 -48 40 -2 22 1 34 12 37 51 16 52 17 19 31 -28 12 -33 19 -33 49 l0 35
78 0 c42 0 83 -4 90 -9z m4691 -147 c28 -6 31 -10 31 -45 l0 -39 -42 0 c-24 0
-67 3 -95 6 -52 7 -53 8 -53 39 0 17 3 35 7 38 8 9 110 9 152 1z m272 -14 c27
0 29 -3 29 -40 l0 -40 -64 0 c-35 0 -78 3 -95 6 -27 6 -31 11 -31 39 0 17 3
35 8 39 4 5 34 5 66 2 32 -3 72 -6 87 -6z m-248 -120 c5 -4 7 -20 5 -36 -3
-26 -7 -29 -43 -32 -22 -2 -64 -1 -92 3 -52 6 -53 7 -53 39 0 18 3 36 7 40 10
9 165 -3 176 -14z m-5441 -52 c-18 -18 4 -46 46 -57 20 -5 102 -14 182 -21
217 -16 251 -21 245 -31 -4 -5 6 -9 22 -9 15 0 84 -5 153 -11 69 -5 260 -20
425 -33 165 -13 282 -24 260 -25 -36 -1 -204 9 -651 38 -84 6 -232 13 -330 17
-99 3 -198 9 -221 14 -46 8 -53 5 -53 -21 0 -25 -32 -13 -51 19 -9 17 -30 32
-52 39 l-37 11 0 -60 c0 -37 -4 -57 -10 -53 -5 3 -10 39 -10 79 0 77 12 102
44 90 10 -4 18 0 22 10 3 9 11 16 17 16 8 0 7 -4 -1 -12z m5432 -54 c10 -4 16
-18 16 -39 0 -28 -4 -33 -31 -39 -38 -7 -140 3 -156 17 -14 10 -18 49 -6 60 8
9 156 9 177 1z m-1746 -41 c11 -5 -156 -8 -371 -8 -390 0 -574 -10 -777 -41
-109 -17 -327 -67 -312 -72 6 -2 37 4 71 13 33 8 64 14 68 13 18 -5 258 23
493 57 121 17 327 20 332 5 2 -7 76 -8 228 -2 124 5 234 6 244 2 11 -4 -63
-10 -165 -13 -254 -9 -640 -52 -743 -83 -10 -4 -16 -2 -13 3 7 12 114 36 251
57 54 9 102 19 105 22 8 9 -218 -3 -329 -17 -47 -6 -195 -26 -329 -45 -134
-19 -255 -34 -270 -32 l-26 3 32 18 c95 51 412 102 788 127 149 9 692 4 723
-7z m1047 -298 c149 -8 322 -19 385 -24 152 -13 538 -22 480 -11 -39 7 -37 7
20 4 36 -2 94 -5 130 -6 l65 -2 -80 -7 c-68 -5 -62 -6 35 -3 67 2 137 10 168
19 74 23 76 13 2 -15 -33 -12 -60 -26 -60 -30 0 -12 -44 -20 -50 -10 -4 6 -55
12 -116 14 -60 2 -332 18 -604 35 -678 43 -753 48 -695 50 28 0 172 -6 320
-14z"/>
<path d="M3835 4565 c-22 -7 -98 -38 -170 -70 -255 -113 -407 -150 -568 -139
-77 6 -90 10 -97 28 -6 15 -9 16 -9 5 -1 -14 -12 -15 -73 -11 -69 4 -74 3 -98
-23 -21 -23 -25 -38 -28 -105 -9 -188 123 -483 241 -538 95 -44 163 -39 307
24 64 28 69 29 270 31 273 4 348 23 438 113 76 76 107 223 82 391 -35 247
-134 345 -295 294z m5 -311 c0 -6 -21 -17 -46 -23 -26 -7 -44 -14 -41 -17 3
-3 22 -1 43 5 21 6 42 7 47 2 7 -7 13 -35 16 -76 1 -6 5 -5 9 1 8 14 82 35 94
28 4 -3 8 -14 8 -24 0 -18 -24 -29 -92 -42 -12 -2 -15 -7 -9 -17 8 -12 12 -12
26 2 9 10 32 17 51 17 30 0 34 -3 34 -25 0 -17 -6 -25 -17 -25 -10 0 -25 -5
-33 -11 -11 -7 -5 -8 23 -3 33 6 37 4 37 -15 0 -21 -10 -28 -67 -45 -18 -6
-23 -3 -24 11 0 15 -2 15 -9 -4 -10 -24 -107 -58 -146 -50 -13 2 -25 0 -26 -5
-2 -6 -25 -12 -51 -15 -45 -5 -47 -5 -47 20 0 19 6 27 23 30 19 4 18 4 -6 6
-33 1 -47 29 -23 46 15 12 15 13 -4 18 -50 13 -6 55 62 60 32 2 31 1 19 44
-10 35 0 52 34 54 11 1 4 4 -15 8 -26 4 -36 12 -38 28 -3 19 4 24 50 37 29 8
62 17 73 19 20 4 45 -17 45 -39z m-722 -125 c3 -23 -2 -27 -40 -37 l-43 -11
40 1 c61 0 65 -1 65 -17 0 -8 8 -15 18 -16 10 0 12 -3 5 -6 -31 -12 -9 -25 37
-21 28 1 50 0 50 -4 0 -3 2 -13 5 -20 4 -9 -4 -20 -17 -27 -13 -6 -15 -9 -6
-7 21 6 51 -21 44 -40 -3 -7 -1 -16 4 -19 6 -4 10 -14 10 -24 0 -16 -12 -20
-87 -27 -49 -4 -92 -6 -98 -5 -5 2 -32 4 -60 4 -43 2 -50 5 -50 22 0 11 -6 25
-14 31 -8 6 -12 20 -9 32 4 13 0 23 -8 26 -8 3 -14 12 -14 20 0 17 42 31 65
22 19 -7 19 -1 -2 31 -16 24 -16 26 2 39 17 12 17 14 2 14 -9 0 -17 3 -17 8 0
4 -3 17 -6 29 -5 19 -1 22 33 26 73 8 88 4 91 -24z"/>
<path d="M216 2238 c-3 -13 -6 -62 -6 -111 0 -85 1 -88 26 -97 14 -6 31 -10
38 -10 16 0 26 83 19 158 -5 45 -10 55 -34 67 -36 19 -36 19 -43 -7z"/>
<path d="M1613 1491 c-24 -4 -45 -9 -47 -12 -5 -5 -36 -177 -36 -202 0 -16 8
-14 61 15 64 34 152 107 169 138 16 29 2 47 -45 59 -24 6 -47 10 -52 10 -4 -1
-27 -5 -50 -8z"/>
<path d="M2470 1051 c-14 -3 -25 -10 -25 -16 0 -5 -9 -31 -19 -58 -10 -26 -17
-50 -14 -52 14 -14 263 90 263 110 0 20 -145 32 -205 16z"/>
<path d="M2415 813 c-22 -3 -44 -8 -48 -12 -4 -4 -23 -52 -42 -107 -29 -80
-34 -91 -30 -54 3 25 2 39 -1 33 -7 -16 -35 -17 -69 -1 -30 13 -34 10 -40 -28
-2 -16 -7 -39 -11 -51 -4 -15 -2 -23 5 -23 29 0 -5 -21 -58 -36 -59 -16 -59
-16 -49 -45 11 -32 38 -43 87 -36 17 3 31 1 31 -4 0 -6 6 -5 13 1 15 14 200
79 244 87 18 3 31 9 28 13 -3 5 5 6 17 3 22 -5 21 -4 -5 21 -37 37 -60 39
-145 15 -41 -11 -76 -18 -79 -15 -7 6 -5 7 113 40 169 47 319 126 312 164 -6
31 -137 48 -273 35z"/>
</g>
</svg>
