<?xml version="1.0" standalone="no"?>
<!DOCTYPE svg PUBLIC "-//W3C//DTD SVG 20010904//EN"
 "http://www.w3.org/TR/2001/REC-SVG-20010904/DTD/svg10.dtd">
<svg version="1.0" xmlns="http://www.w3.org/2000/svg"
 width="720.000000pt" height="544.000000pt" viewBox="0 0 720.000000 544.000000"
 preserveAspectRatio="xMidYMid meet">
<metadata>
Created by potrace 1.16, written by Peter Selinger 2001-2019
</metadata>
<g transform="translate(0.000000,544.000000) scale(0.100000,-0.100000)"
fill="#000000" stroke="none">
<path d="M3530 5364 c-266 -31 -524 -158 -673 -332 -77 -89 -137 -184 -137
-214 0 -16 -12 -41 -29 -60 -39 -46 -50 -88 -48 -193 1 -99 -5 -115 -63 -182
-50 -57 -64 -112 -58 -226 6 -104 31 -180 82 -254 48 -69 170 -131 321 -162
27 -5 115 -86 104 -95 -2 -1 -18 -8 -35 -15 -18 -7 -44 -25 -59 -41 -23 -24
-32 -27 -47 -19 -30 16 -299 61 -335 55 -31 -4 -33 -3 -38 32 -3 20 -8 48 -10
62 -4 25 -103 210 -153 285 -56 84 -85 116 -99 110 -17 -6 -17 -6 12 102 24
86 15 122 -47 190 -27 30 -57 72 -65 92 -8 20 -23 45 -33 56 -11 11 -31 47
-45 80 -62 140 -115 243 -145 279 -17 22 -39 59 -49 82 -22 49 -45 59 -100 44
-64 -17 -88 -81 -57 -153 7 -18 25 -41 39 -50 30 -19 54 -57 37 -57 -6 0 -15
11 -20 25 -5 14 -12 25 -15 25 -9 0 7 -53 28 -90 10 -19 28 -52 40 -72 11 -20
25 -34 30 -31 6 3 7 1 3 -6 -4 -6 0 -18 8 -27 26 -26 18 -34 -19 -18 -68 28
-140 13 -215 -47 -27 -22 -62 -59 -76 -82 -15 -23 -42 -55 -60 -70 -31 -26
-34 -34 -34 -81 0 -43 6 -60 33 -98 50 -70 147 -186 198 -237 43 -43 46 -51
53 -112 5 -51 19 -94 61 -183 72 -153 124 -230 196 -291 33 -27 71 -66 85 -86
15 -22 50 -50 85 -69 51 -27 69 -31 116 -28 52 3 59 0 92 -30 40 -37 118 -64
305 -107 102 -24 123 -26 155 -15 25 8 52 9 86 3 28 -5 66 -6 85 -2 23 5 50 3
78 -7 23 -8 48 -14 55 -14 7 0 23 -31 35 -69 47 -146 127 -263 189 -278 28 -6
39 -14 41 -31 3 -21 0 -22 -69 -22 -53 0 -75 4 -83 15 -16 23 -89 24 -110 2
-21 -21 -26 -21 -52 -3 -12 9 -62 18 -120 23 l-99 8 0 48 c-1 53 -8 61 -70 78
-57 16 -152 -3 -182 -37 l-23 -25 -70 25 c-92 34 -180 53 -293 67 -107 12
-433 13 -524 1 l-63 -8 0 28 c0 28 0 28 -65 28 -64 0 -65 0 -65 -28 0 -26 -4
-28 -103 -56 -56 -15 -121 -36 -144 -46 -45 -20 -53 -18 -53 15 0 32 -19 45
-66 45 -67 0 -74 -6 -74 -61 l0 -49 -75 0 c-94 0 -132 -17 -137 -61 -3 -33 2
-30 -412 -185 -190 -71 -269 -106 -293 -127 -25 -23 -28 -68 -14 -221 6 -67
10 -81 31 -97 14 -11 30 -23 36 -28 5 -4 11 -30 12 -57 2 -40 35 -449 98
-1214 l6 -76 -40 -18 c-23 -10 -51 -29 -63 -42 -19 -21 -21 -31 -17 -96 5 -62
9 -75 32 -95 48 -41 79 -45 786 -93 1348 -92 1962 -134 2245 -155 182 -13 609
-45 950 -70 341 -24 670 -49 731 -55 60 -5 354 -10 652 -10 l542 0 0 58 0 58
-372 22 c-749 46 -1004 62 -1043 66 -61 7 208 -3 390 -14 619 -37 711 -41 840
-35 77 3 163 8 190 10 38 4 45 2 30 -5 -50 -25 85 4 145 31 94 43 211 119 204
131 -4 6 -2 8 4 4 5 -3 12 -3 14 2 3 7 76 51 205 123 18 10 33 13 35 8 3 -10
126 48 163 77 19 14 19 16 3 28 -24 18 -23 29 1 17 40 -22 32 -39 -32 -75 -34
-18 -185 -102 -335 -185 -150 -82 -300 -160 -332 -172 -33 -12 -57 -25 -54
-30 3 -5 1 -9 -4 -9 -5 0 -10 -25 -11 -55 l-2 -55 77 0 76 0 277 161 c152 89
299 177 327 194 56 36 64 54 64 151 0 48 -3 55 -36 82 l-36 30 16 188 c19 228
40 520 66 908 l18 289 28 22 c25 20 29 31 35 101 4 44 8 120 8 170 1 141 1
142 -369 169 -118 9 -241 18 -272 21 l-58 6 0 43 c0 81 -10 106 -49 123 -40
17 -138 19 -167 4 -13 -6 -53 -2 -134 14 -63 13 -168 29 -233 36 l-118 12 -51
58 -50 58 10 73 c12 86 1 231 -22 274 -49 96 -117 137 -226 138 -62 0 -80 4
-103 21 -23 19 -159 80 -249 113 -18 7 -28 18 -28 31 0 33 -28 90 -66 137
-144 176 -389 217 -531 89 l-49 -44 -91 -3 c-65 -3 -96 -9 -109 -20 -19 -16
-134 -34 -134 -21 0 4 27 21 59 39 63 35 185 133 226 181 24 29 30 30 93 29
63 -1 73 2 157 48 153 84 218 173 235 321 18 169 -35 293 -175 406 -64 51
-101 108 -77 116 7 2 12 13 12 25 0 34 -59 141 -89 161 -16 11 -34 34 -40 52
-7 18 -42 61 -79 95 -135 125 -286 204 -457 241 -87 18 -283 30 -355 22z m205
-266 c55 -9 155 -44 155 -55 0 -2 -17 -27 -38 -56 -39 -52 -72 -109 -72 -123
0 -4 16 19 36 52 42 70 82 114 103 114 22 0 150 -97 193 -145 20 -22 49 -61
66 -88 26 -42 29 -54 25 -105 -3 -31 0 -77 6 -101 8 -35 6 -64 -11 -140 -22
-103 -21 -240 1 -388 6 -40 16 -105 21 -145 6 -40 13 -74 15 -76 2 -3 16 3 30
12 26 17 26 17 16 -2 -27 -51 -171 -153 -313 -222 l-103 -51 -23 28 c-13 15
-35 51 -49 78 -18 37 -23 42 -18 20 3 -16 19 -52 36 -79 16 -27 28 -50 26 -52
-12 -13 -179 -46 -271 -55 -119 -11 -187 -4 -305 32 -152 48 -243 115 -314
233 -82 137 -122 252 -148 426 -41 284 89 592 317 752 200 140 374 178 619
136z m832 -448 c10 -11 21 -20 26 -20 5 0 20 -9 34 -20 30 -24 17 -26 -23 -5
-47 24 -77 19 -112 -21 -18 -20 -32 -40 -32 -45 0 -5 -8 -21 -17 -36 -14 -22
-17 -52 -18 -177 0 -156 9 -213 47 -289 18 -37 81 -77 96 -62 3 3 -4 8 -16 12
-32 8 -16 23 18 16 20 -3 39 0 56 11 25 17 25 17 14 -3 -15 -30 -107 -74 -136
-67 -45 12 -100 79 -125 152 -21 61 -24 87 -24 224 0 128 3 160 18 185 9 17
17 35 17 40 0 6 16 30 36 55 53 67 109 87 141 50z m-2763 -125 c38 -58 47
-108 21 -122 -11 -7 -12 -12 -2 -29 41 -72 40 -71 14 -41 -18 20 -34 27 -61
27 -30 0 -38 5 -47 28 -6 15 -17 39 -25 54 -23 44 -18 93 12 117 15 12 32 21
39 21 7 0 29 -25 49 -55z m2902 3 c47 -57 66 -111 65 -196 0 -121 -31 -231
-76 -270 -35 -31 -48 -8 -15 28 58 62 88 240 55 326 -10 25 -29 60 -44 78 -55
65 -56 66 -33 66 11 0 33 -15 48 -32z m-3021 -88 c3 -19 8 -47 10 -61 6 -39
-15 -61 -60 -63 -38 -1 -39 0 -52 44 -17 56 -4 110 34 140 l27 21 18 -23 c10
-13 20 -39 23 -58z m1045 51 c0 -6 -5 -13 -11 -17 -6 -3 -21 -27 -32 -53 -17
-39 -20 -65 -19 -167 0 -106 4 -135 31 -220 33 -106 79 -185 133 -228 31 -24
31 -26 10 -26 -109 0 -208 167 -228 386 -5 55 -10 71 -20 67 -8 -3 -14 1 -14
11 0 9 6 16 14 16 7 0 16 14 20 31 10 53 8 61 -15 54 -19 -6 -20 -5 -9 15 6
12 17 19 25 17 8 -4 15 5 19 25 8 43 96 124 96 89z m-567 -70 c54 -23 77 -53
77 -101 0 -32 -5 -38 -35 -53 -45 -21 -97 -22 -136 -1 -38 19 -32 29 7 13 41
-17 77 -21 102 -12 20 8 16 11 -33 33 l-55 24 0 51 c0 73 4 75 73 46z m144
-383 c79 -107 178 -286 189 -343 8 -46 -29 -140 -78 -196 l-37 -44 -1 34 c0
30 -25 83 -92 196 -10 17 -25 45 -34 63 -8 18 -21 35 -29 38 -8 4 -12 10 -9
15 3 5 -1 9 -10 9 -8 0 -16 -3 -18 -7 -8 -18 -88 -46 -143 -49 l-60 -4 50 13
c70 19 113 43 163 91 60 57 75 96 67 174 -4 34 -5 62 -2 62 3 0 22 -24 44 -52z
m-498 -164 c8 -16 21 -35 30 -42 9 -8 10 -11 4 -7 -7 3 -13 2 -13 -4 0 -18 49
-48 87 -54 33 -6 38 -10 40 -34 0 -15 6 -29 12 -31 6 -2 11 -10 11 -19 0 -8
22 -40 49 -71 49 -58 107 -145 129 -195 7 -16 21 -31 32 -34 35 -9 22 -25 -12
-17 -18 4 -51 8 -73 9 -22 1 -50 7 -61 13 -91 49 -244 313 -261 450 -10 78 0
91 26 36z m2933 -124 c102 -40 229 -164 228 -224 -1 -17 -3 -15 -14 9 -26 61
-99 65 -204 11 -51 -26 -128 -101 -158 -153 -10 -18 -22 -33 -25 -33 -4 0 4
20 18 45 14 26 20 45 13 45 -14 0 -95 54 -132 88 -32 29 -106 39 -115 15 -11
-29 19 -95 60 -135 36 -34 37 -37 10 -19 -48 32 -71 67 -79 118 -28 188 187
313 398 233z m-1648 -145 c21 -14 54 -32 74 -41 l37 -16 -30 -9 c-81 -24 -106
-27 -112 -13 -3 8 -12 14 -20 14 -9 0 -11 -5 -7 -12 5 -7 -5 -2 -21 10 -23 18
-37 22 -62 17 -41 -7 -43 7 -4 34 65 47 95 50 145 16z m-347 -19 c66 -13 131
-29 143 -36 19 -10 40 -49 72 -130 7 -20 7 -23 -3 -12 -7 6 -21 12 -31 12 -14
0 -13 -5 10 -29 15 -15 30 -26 35 -24 4 2 7 -10 7 -28 l0 -32 -80 6 c-44 3
-80 3 -80 1 0 -2 15 -10 33 -18 l32 -13 -50 4 c-27 2 -86 11 -130 20 l-80 16
4 80 c4 99 -14 146 -67 172 -33 16 -35 18 -17 26 34 13 77 10 202 -15z m1530
-43 c-20 -38 -37 -133 -37 -208 0 -54 24 -173 45 -228 6 -13 3 -16 -9 -11 -11
4 -16 1 -16 -10 0 -32 -29 -15 -44 27 -9 23 -23 60 -31 82 l-15 40 6 -35 c4
-19 19 -70 35 -113 15 -44 23 -75 16 -70 -29 20 -66 4 -145 -64 -63 -55 -143
-103 -173 -103 -9 0 -41 11 -70 25 -65 29 -161 55 -206 55 -29 0 -33 3 -34 28
l-2 27 -4 -26 c-4 -23 -10 -27 -54 -33 -27 -4 -61 -12 -74 -18 -22 -10 -28 -7
-54 20 -36 37 -66 48 -75 27 -3 -8 -10 -15 -15 -15 -17 0 -50 88 -65 172 -13
80 -26 106 -45 94 -20 -13 -23 -76 -7 -148 13 -59 51 -147 139 -323 8 -17 6
-17 -16 4 -31 28 -90 138 -117 217 -28 81 -35 221 -16 316 15 76 45 152 46
116 0 -12 8 -18 23 -18 19 -1 19 -2 -8 -15 l-30 -13 28 -1 c15 -1 27 -7 27
-13 1 -7 8 0 16 15 14 26 18 28 57 22 46 -8 59 -15 40 -22 -27 -10 -11 -23 27
-23 22 0 40 4 40 9 0 5 23 1 50 -10 28 -10 59 -19 70 -19 11 0 20 -6 20 -12 0
-9 3 -10 8 -2 4 6 33 14 66 17 96 10 222 77 330 176 34 32 38 33 33 14 -3 -13
-1 -23 4 -23 5 0 9 7 9 16 0 12 4 14 13 6 14 -11 50 -1 46 13 -1 6 6 11 17 13
10 2 28 7 39 12 11 5 41 16 68 26 26 9 47 22 48 28 0 7 2 7 5 -1 3 -6 -1 -24
-9 -40z m801 -119 c131 -52 275 -138 165 -98 -53 19 -76 17 -107 -7 -14 -11
-26 -17 -26 -13 0 5 -7 -2 -16 -14 -8 -12 -21 -22 -29 -22 -19 0 -73 -65 -91
-111 -9 -21 -21 -39 -28 -39 -20 0 -216 100 -216 111 0 41 81 147 135 177 88
48 125 51 213 16z m387 -188 c94 -43 149 -133 149 -241 0 -76 -9 -125 -24
-125 -5 0 -27 27 -50 59 -50 71 -100 106 -178 126 -57 14 -163 18 -142 5 7 -5
4 -9 -9 -13 -12 -3 -18 -1 -15 4 7 12 -42 -18 -78 -47 -15 -11 -37 -44 -49
-72 -57 -130 -45 5 13 145 24 59 38 78 82 112 72 55 110 70 186 71 48 0 78 -6
115 -24z m-3001 -43 c23 3 49 8 59 12 16 7 18 4 15 -16 -3 -22 5 -26 97 -57
55 -18 116 -34 135 -36 19 -2 43 -7 52 -11 9 -3 27 -1 40 5 l23 11 -24 -20
c-31 -28 -53 -27 -211 13 -150 37 -229 67 -257 98 -18 21 -18 21 6 8 14 -7 41
-10 65 -7z m2215 -164 c22 -7 48 -23 56 -35 21 -33 110 -76 263 -129 10 -4 9
-11 -7 -33 -10 -15 -31 -53 -44 -84 -25 -56 -26 -56 -79 -65 -49 -8 -53 -7
-56 12 -9 68 -7 66 -80 63 l-67 -3 0 -37 c0 -53 -15 -63 -88 -60 -79 4 -135
-17 -150 -59 -11 -27 -15 -29 -64 -29 -29 0 -53 4 -53 9 0 30 21 59 47 64 40
8 78 40 122 105 42 63 104 197 116 252 10 45 14 52 30 46 7 -2 31 -10 54 -17z
m744 -80 c64 -21 102 -46 175 -113 53 -49 57 -73 7 -49 -34 16 -36 16 -64 -5
-29 -21 -29 -21 -46 -1 -25 27 -64 24 -96 -7 l-28 -26 -28 21 c-21 18 -35 21
-63 16 -19 -4 -42 -13 -51 -21 -15 -13 -17 -11 -23 23 -11 71 -7 100 21 133
46 55 96 63 196 29z m-3345 -220 c175 -37 42 -101 -209 -101 -151 1 -239 20
-239 53 0 44 312 78 448 48z m576 -65 c9 -24 7 -63 -4 -85 -37 -68 -233 -126
-555 -164 -148 -18 -175 -29 -175 -71 0 -18 7 -24 33 -27 17 -2 -3 -5 -45 -5
l-78 -2 0 40 c0 25 -5 40 -12 40 -39 1 -363 32 -418 41 -174 27 -250 52 -305
100 -44 39 -44 62 -1 105 41 41 65 45 36 6 -15 -20 -20 -40 -18 -63 3 -30 9
-37 58 -61 106 -52 339 -90 526 -86 104 3 119 5 122 21 3 14 -4 17 -44 17 -26
0 -45 2 -43 4 2 2 83 6 179 9 157 4 166 4 90 -6 -47 -6 -74 -13 -61 -15 19 -3
21 -6 10 -13 -23 -14 137 -11 264 6 195 26 350 80 412 145 22 23 24 31 16 53
-6 15 -7 27 -2 27 5 0 12 -7 15 -16z m2768 -154 c9 -36 16 -75 17 -88 1 -19
-3 -22 -26 -16 -40 9 -68 41 -87 98 -20 61 -9 78 43 74 35 -3 36 -4 53 -68z
m-4756 -18 c-3 -5 -34 -17 -68 -27 -88 -24 -288 -122 -288 -140 0 -31 25 -35
557 -72 51 -3 90 -10 87 -15 -3 -4 -24 -5 -47 -2 -23 4 -39 4 -36 0 10 -11
242 -34 459 -45 107 -6 238 -13 290 -16 60 -3 86 -2 69 4 -14 4 -84 12 -155
16 -71 5 -120 11 -109 13 11 2 103 -1 205 -7 102 -6 259 -16 350 -22 233 -14
459 -36 388 -38 -58 -1 -95 -21 -39 -21 17 0 187 -11 378 -25 192 -13 436 -29
543 -35 107 -6 206 -13 220 -15 14 -3 120 -9 235 -15 116 -5 251 -12 300 -15
59 -3 81 -2 65 4 -14 5 -43 10 -65 12 -30 1 -34 3 -13 6 46 7 772 -48 783 -59
7 -7 2 -9 -15 -5 -39 9 -411 29 -418 23 -3 -3 6 -6 19 -6 14 0 101 -7 194 -15
231 -20 725 -48 732 -42 2 3 -22 8 -54 12 -32 4 -62 8 -68 10 -23 9 371 -8
611 -26 442 -32 516 -26 634 54 203 137 467 313 480 320 8 5 -1 -5 -20 -22
-39 -34 -39 -35 8 -22 20 6 30 6 27 0 -13 -20 14 -6 85 45 41 29 74 59 72 65
-1 7 2 10 8 6 5 -3 10 -2 10 3 0 19 -57 31 -194 41 -80 5 -143 15 -150 21 -8
9 -6 11 9 6 11 -3 85 -10 164 -15 144 -10 191 -24 191 -55 0 -22 -624 -456
-698 -485 l-47 -19 -7 -108 c-4 -60 -10 -114 -13 -121 -2 -7 -20 -13 -39 -13
-27 0 -33 4 -31 18 2 9 6 61 9 115 l5 97 -112 0 c-61 0 -209 6 -327 15 -329
22 -779 51 -1270 80 -140 9 -383 24 -540 35 -157 11 -487 34 -735 50 -247 16
-547 37 -665 45 -118 8 -379 26 -580 40 -201 14 -527 36 -725 50 -198 14 -496
30 -663 35 -167 6 -308 11 -315 13 -15 3 -21 -101 -10 -157 l8 -38 60 -4 c33
-2 96 -9 140 -15 44 -6 125 -17 180 -24 l100 -14 -130 5 c-215 9 -408 23 -448
34 -54 16 -64 39 -71 173 -6 109 -5 118 14 134 19 17 131 62 345 139 55 20
107 40 115 44 17 10 25 6 16 -8z m3861 -20 c-67 -69 -36 -129 98 -191 178 -84
545 -145 755 -126 47 4 137 7 200 6 275 -5 594 73 681 165 37 39 32 94 -11
140 l-35 37 33 -19 c17 -10 32 -22 32 -25 0 -4 9 -11 20 -14 12 -4 20 -15 20
-27 0 -12 16 -36 35 -55 26 -26 35 -42 35 -68 0 -19 -4 -36 -9 -39 -4 -3 -6 5
-4 18 4 16 -4 30 -27 49 l-31 27 -30 -35 c-69 -79 -280 -145 -559 -175 -52 -6
-114 -13 -138 -16 l-43 -5 3 -42 c3 -39 5 -42 38 -48 19 -4 -12 -6 -70 -7 -58
0 -97 2 -87 5 14 4 17 14 16 47 l-3 42 -200 12 c-111 7 -264 22 -341 33 -77
12 -154 22 -172 23 -17 1 -40 9 -50 18 -10 9 -49 30 -88 47 -67 31 -126 76
-146 114 -16 28 25 104 65 122 43 19 43 18 13 -13z m-773 -188 c24 -9 20 -27
-13 -58 -28 -27 -30 -28 -107 -19 -43 4 -79 13 -81 20 -2 6 9 23 24 37 24 23
37 26 95 26 36 0 73 -3 82 -6z m-1936 -426 c99 -49 99 -123 0 -212 -58 -53
-63 -66 -24 -66 36 0 83 -36 102 -79 30 -64 47 -55 83 44 12 33 41 104 64 158
37 88 44 98 64 94 13 -2 31 2 40 9 10 7 26 14 36 14 9 0 17 5 17 10 0 6 5 10
10 10 6 0 10 -10 10 -23 0 -13 4 -27 9 -32 4 -6 14 -50 20 -100 19 -136 28
-165 52 -165 15 0 19 -5 16 -15 -4 -8 -2 -17 2 -20 5 -2 14 17 21 43 27 108
114 213 205 248 86 32 169 -10 167 -86 -1 -44 -22 -101 -34 -94 -6 4 -13 1
-17 -5 -13 -21 -40 0 -47 35 -8 45 -33 45 -79 -1 -47 -47 -76 -107 -82 -169
-4 -43 -1 -56 18 -80 19 -24 27 -28 60 -23 20 3 64 23 98 46 34 23 61 40 61
37 0 -3 -4 -16 -10 -30 -12 -32 1 -33 34 -3 22 19 29 41 51 174 29 175 39 203
66 196 11 -3 19 0 19 7 0 7 8 9 20 5 11 -4 20 -2 20 4 0 19 15 11 27 -14 9
-20 8 -40 -3 -92 -7 -37 -13 -68 -11 -69 1 -2 32 22 67 53 100 85 165 133 182
133 8 0 23 9 33 20 10 11 23 20 29 20 5 0 -4 -15 -22 -33 -36 -37 -41 -53 -13
-37 27 14 36 13 22 -4 -6 -7 -9 -20 -6 -28 5 -14 -34 -56 -115 -122 -19 -16
-54 -46 -78 -68 l-43 -39 97 -120 c53 -66 99 -118 101 -115 2 2 -1 13 -8 23
-12 20 -4 102 8 89 3 -3 12 -1 20 5 7 6 13 8 13 4 0 -4 6 -3 13 3 10 9 16 4
26 -23 8 -23 21 -37 37 -41 58 -15 149 22 149 61 0 12 -30 33 -95 66 -111 58
-138 81 -146 124 -11 60 38 120 138 171 119 60 228 31 228 -61 0 -29 -28 -90
-37 -81 -3 3 -12 -2 -19 -12 -13 -16 -13 -16 -14 0 0 11 -5 15 -15 12 -11 -5
-15 1 -15 25 0 36 -11 38 -70 15 -41 -17 -69 -50 -53 -64 4 -4 41 -25 82 -46
41 -22 94 -57 118 -80 35 -33 43 -47 43 -77 0 -41 -42 -97 -93 -124 -77 -39
-229 -82 -204 -56 7 6 -84 53 -92 47 -2 -1 19 -31 45 -65 50 -65 47 -67 -24
-12 -47 36 -75 44 -49 15 27 -29 20 -35 -14 -12 -24 18 -39 21 -77 17 -42 -5
-44 -5 -19 5 35 15 34 30 -5 61 -18 14 -62 59 -98 100 l-65 75 -12 -41 c-7
-22 -15 -65 -19 -94 -3 -29 -11 -56 -17 -60 -6 -4 -8 2 -5 15 4 12 3 22 -2 22
-8 0 -25 -40 -33 -75 -3 -11 -5 -5 -6 15 -1 19 -6 42 -11 50 -9 13 -11 13 -21
0 -8 -11 -9 4 -6 58 l4 74 -71 -70 c-69 -68 -119 -102 -151 -102 -28 0 -112
48 -138 80 -24 28 -47 86 -47 118 0 14 -9 15 -26 4 -12 -7 -7 -65 12 -136 5
-23 4 -27 -6 -21 -10 6 -12 -3 -7 -46 5 -52 5 -53 -8 -24 -8 17 -14 36 -15 43
0 6 -4 12 -10 12 -5 0 -10 -6 -11 -12 0 -7 -7 1 -14 17 -10 22 -14 25 -15 11
0 -33 -11 -11 -29 61 -20 76 -18 76 -123 52 -45 -10 -47 -12 -68 -70 -12 -32
-28 -59 -35 -59 -7 0 -19 -13 -27 -30 -17 -38 -24 -38 -32 2 -6 30 -7 31 -21
12 -19 -25 -19 -10 1 56 11 38 13 55 5 58 -6 2 -8 9 -5 15 4 7 -17 -11 -47
-40 -30 -28 -85 -72 -124 -97 -38 -25 -63 -46 -55 -47 8 0 -16 -16 -54 -35
-76 -37 -80 -39 -71 -24 3 6 -1 10 -9 10 -9 0 -18 -12 -22 -27 -9 -44 -12 -50
-13 -25 -1 14 -6 22 -13 20 -8 -3 -15 -31 -18 -74 l-6 -69 -8 63 c-9 63 -21
80 -29 40 l-4 -23 -8 23 c-4 12 -8 22 -9 22 -1 0 -16 -4 -34 -9 -20 -6 -32 -6
-32 0 0 5 5 9 10 9 24 0 7 20 -17 21 l-28 0 23 16 c26 18 29 38 5 29 -24 -8
14 23 56 46 30 17 31 19 31 90 0 40 3 90 6 111 5 30 4 37 -10 37 -15 0 -21 16
-18 53 1 9 -4 17 -11 17 -6 0 2 10 20 21 26 16 34 30 42 72 17 89 19 118 7
113 -96 -38 -116 -44 -121 -36 -3 6 -1 10 4 10 6 0 11 7 11 15 0 20 -19 19
-87 -5 -31 -11 -58 -18 -60 -17 -1 2 24 16 58 32 57 28 109 68 67 52 -26 -9
-22 8 5 25 36 24 155 69 221 84 87 20 204 12 264 -18z m-1419 -258 c6 -74 18
-216 26 -315 8 -99 22 -268 30 -375 8 -107 16 -217 18 -243 8 -94 -10 -30 -22
78 -26 250 -82 995 -80 1059 2 50 16 -53 28 -204z m3895 168 c4 -24 14 -94 22
-157 7 -63 16 -116 18 -118 2 -3 12 -6 23 -7 10 -2 17 -10 15 -20 -6 -35 16
-14 33 32 66 175 260 301 389 252 33 -12 58 -62 50 -97 -12 -50 -33 -83 -49
-77 -8 4 -15 1 -15 -5 0 -8 -6 -7 -20 1 -12 8 -20 24 -20 40 0 71 -119 2 -192
-111 -51 -80 -32 -181 33 -181 44 0 129 47 129 72 0 4 -20 8 -44 8 -48 0 -55
9 -48 62 4 29 13 31 171 44 l84 7 -6 -34 c-2 -19 -14 -59 -25 -89 -11 -30 -33
-95 -48 -145 -20 -65 -29 -84 -34 -70 -7 19 -7 19 -17 0 -6 -11 -14 -35 -18
-53 -9 -44 -20 -32 -16 18 3 40 -13 55 -23 23 -3 -10 -4 6 -2 35 2 28 2 52 1
52 -1 0 -23 -11 -49 -25 -54 -29 -71 -30 -119 -10 -74 31 -127 97 -127 160 0
20 -5 25 -23 25 -23 0 -23 -2 -16 -47 4 -27 8 -64 8 -83 0 -29 -2 -32 -10 -15
-7 14 -8 3 -5 -37 5 -63 -8 -79 -18 -23 -4 22 -11 32 -20 29 -7 -3 -18 5 -24
18 -6 13 -11 17 -11 11 -1 -7 -5 -13 -10 -13 -5 0 -12 21 -16 48 -14 99 -11
95 -74 88 -110 -13 -109 -12 -146 -84 -19 -37 -34 -61 -35 -54 -1 26 -21 10
-45 -35 -22 -41 -25 -43 -20 -18 5 32 -12 71 -22 48 -2 -7 -8 -13 -13 -13 -5
0 2 26 15 58 17 41 20 58 11 60 -15 3 -17 62 -3 62 5 0 4 6 -2 14 -13 15 4 26
38 26 13 0 35 34 77 118 32 64 60 120 62 124 3 7 -25 5 -144 -14 l-71 -10 -16
-57 c-8 -31 -25 -99 -37 -151 -38 -163 -58 -229 -60 -195 -1 29 -1 29 -16 10
-9 -11 -25 -38 -36 -60 l-19 -40 5 45 c3 25 2 52 -4 60 -6 10 -10 11 -10 3 0
-7 -5 -13 -10 -13 -13 0 3 111 44 305 8 38 13 71 11 73 -2 2 -33 -1 -68 -7
-85 -15 -90 -14 -83 6 4 9 1 20 -6 24 -9 6 -9 11 1 22 9 12 9 16 -1 20 -10 4
-10 8 2 20 9 10 47 21 95 27 44 6 91 16 105 22 28 12 240 21 284 12 27 -6 28
-8 12 -19 -12 -10 -14 -15 -5 -20 8 -6 4 -12 -12 -21 -23 -13 -23 -13 16 -14
36 0 42 4 60 36 14 27 23 34 40 30 20 -5 87 13 101 27 15 14 22 6 28 -35z
m1094 -67 c2 -6 19 -11 38 -11 49 0 42 -18 -11 -25 -47 -8 -84 -34 -49 -36 67
-2 -173 -39 -257 -39 -4 0 -9 -12 -12 -27 -3 -16 -9 -36 -13 -46 -6 -17 -1
-19 57 -17 35 1 80 2 99 1 32 -1 33 -3 15 -13 -19 -12 -19 -12 5 -18 25 -7 25
-7 -10 -23 -26 -11 -30 -16 -15 -17 44 -3 -27 -20 -110 -26 l-83 -7 -12 -41
c-6 -23 -10 -45 -8 -50 2 -5 68 -8 148 -8 80 1 154 -3 165 -8 17 -7 14 -9 -15
-9 -65 -2 -9 -21 65 -22 81 -2 71 -5 -38 -14 -42 -4 -75 -11 -71 -16 3 -5 17
-9 31 -9 15 0 24 -2 22 -4 -2 -2 -76 -10 -164 -16 -88 -7 -172 -18 -187 -25
-20 -10 -28 -10 -31 -1 -3 6 -9 0 -15 -14 -8 -18 -11 -20 -11 -7 -1 12 -9 17
-30 17 -23 0 -30 6 -36 28 -16 57 -14 70 9 76 18 4 27 18 39 58 11 39 12 56 3
63 -18 16 -8 73 15 80 20 7 30 25 43 77 5 22 2 27 -16 30 -16 2 -22 10 -21 28
2 78 32 92 203 101 158 8 253 4 258 -10z m-2639 -566 c33 -10 69 -31 88 -50
33 -33 33 -35 19 -63 -16 -31 -65 -67 -133 -96 -42 -19 -56 -36 -30 -36 33 0
119 -33 147 -56 23 -20 30 -34 30 -62 0 -31 -8 -44 -53 -87 -60 -56 -108 -82
-241 -132 -61 -22 -78 -32 -51 -27 63 9 38 -2 -67 -30 -54 -15 -106 -29 -115
-32 -10 -2 0 4 22 15 35 18 36 20 10 14 -95 -20 -109 -27 -122 -68 l-11 -40
-1 38 c-1 35 -2 36 -21 25 -11 -7 -23 -28 -26 -48 -16 -100 -24 -114 -19 -37
4 70 3 78 -12 75 -9 -2 -20 -14 -24 -28 l-6 -25 -8 27 c-7 29 -5 29 -80 12
-20 -5 -20 -5 -1 10 13 11 41 16 80 16 34 0 81 7 106 16 25 9 108 34 184 55
133 38 300 98 293 106 -2 2 -34 -8 -70 -21 -59 -21 -67 -22 -67 -8 0 14 -2 14
-9 3 -6 -10 -10 -10 -16 -1 -4 7 -17 9 -32 5 -14 -3 -31 -1 -39 5 -10 9 -35 5
-103 -14 -108 -31 -120 -32 -98 -8 8 9 18 35 22 57 4 23 3 35 -2 28 -5 -6 -31
-13 -58 -15 -47 -3 -50 -4 -56 -38 -5 -21 -3 -37 3 -41 19 -12 -1 -27 -54 -39
-61 -15 -94 -29 -65 -30 9 0 17 -4 17 -10 0 -5 -5 -10 -11 -10 -5 0 -7 -4 -4
-10 4 -6 -9 -10 -32 -9 -33 0 -35 1 -15 9 24 10 30 30 10 30 -22 1 23 22 70
34 l45 12 24 89 c12 50 25 100 29 113 5 17 2 22 -12 22 -16 0 -17 2 -4 10 13
8 12 10 -2 10 -23 0 -23 19 -1 27 15 6 14 7 -3 14 -20 7 -21 7 36 28 20 7 31
25 53 86 l27 78 -37 -7 c-21 -4 -56 -10 -78 -13 -37 -5 -39 -4 -21 10 19 14
19 15 -3 22 -22 7 -22 7 11 32 l33 25 -35 -7 c-33 -6 -34 -6 -15 8 11 8 63 24
115 36 123 26 402 24 489 -4z m866 -4 c39 4 108 8 155 8 l85 -1 -50 -13 c-43
-11 -46 -13 -20 -15 26 -1 27 -3 10 -10 -29 -13 49 -12 219 1 97 8 152 8 176
1 27 -8 29 -10 12 -11 -32 -1 -17 -21 16 -22 20 -1 13 -5 -28 -19 -42 -14 -49
-18 -27 -19 15 -1 27 -5 27 -10 0 -5 -59 -14 -130 -21 l-131 -13 -19 -38 c-11
-21 -20 -41 -20 -45 0 -4 39 -4 88 -1 48 4 96 2 107 -3 19 -8 19 -9 -3 -9 -29
-1 -19 -21 11 -22 20 -1 21 -2 2 -6 -11 -3 -31 -10 -45 -16 l-25 -10 25 -7
c18 -5 2 -9 -55 -14 -154 -13 -149 -11 -167 -64 -10 -25 -16 -48 -14 -50 2 -1
66 1 142 6 77 5 162 6 189 2 37 -6 42 -8 18 -9 -18 0 -33 -5 -33 -10 0 -12 36
-20 95 -22 40 -2 35 -3 -30 -9 -44 -4 -92 -11 -107 -15 -18 -5 -28 -3 -28 4 0
6 11 11 25 11 14 0 25 5 25 10 0 6 -12 10 -26 10 -15 0 -23 4 -19 11 5 7 -34
8 -134 3 l-140 -7 8 31 c11 35 6 42 -26 42 -12 0 -23 5 -23 10 0 6 -6 10 -14
10 -14 0 -36 -49 -36 -81 0 -21 -53 -52 -78 -46 -11 2 -5 7 17 13 29 8 37 17
52 59 22 63 23 79 5 72 -15 -6 -17 27 -2 51 5 8 1 10 -11 7 -10 -3 1 4 24 15
34 17 45 28 54 61 10 33 10 42 0 49 -8 4 -10 13 -7 19 4 6 2 11 -4 11 -6 0 -8
5 -4 11 4 8 -3 9 -22 6 -16 -3 -59 -9 -95 -12 l-67 -6 -62 -167 c-83 -220
-113 -289 -104 -242 3 19 12 46 19 60 7 14 18 44 25 68 6 24 13 49 16 56 3 9
-9 12 -43 12 -63 -1 -77 -17 -109 -125 -24 -79 -44 -122 -44 -94 0 6 27 91 61
189 81 237 79 228 43 221 -16 -3 -49 -9 -74 -12 -25 -3 -58 -8 -75 -11 -28 -5
-29 -4 -12 10 18 14 18 15 -3 26 l-21 11 23 19 c19 17 21 21 8 29 -22 15 21
28 141 41 57 7 109 16 114 20 14 11 58 17 70 9 6 -3 42 -3 80 2z m1015 -19
c19 -9 37 -26 39 -37 2 -11 8 -23 14 -27 17 -11 -28 -99 -47 -92 -9 3 -17 -3
-22 -18 l-7 -23 -9 24 c-7 19 -11 21 -22 11 -12 -9 -15 -6 -18 22 -4 41 -21
45 -92 23 -66 -21 -116 -58 -100 -75 6 -6 59 -29 117 -50 134 -50 221 -93 241
-122 18 -25 21 -74 6 -83 -5 -3 -10 -15 -10 -26 0 -10 -6 -19 -12 -19 -7 0
-22 -8 -33 -16 -19 -15 -15 -15 45 -9 36 3 77 8 93 11 15 3 27 1 27 -4 0 -5
-48 -14 -107 -20 -93 -11 -126 -20 -237 -66 -71 -30 -132 -59 -135 -65 -6 -9
-124 -61 -138 -61 -3 0 -1 5 2 10 9 15 4 13 -117 -36 -159 -64 -158 -64 -158
-58 0 3 34 21 76 40 42 20 74 37 71 40 -2 2 -79 -21 -171 -52 -93 -30 -170
-53 -173 -51 -2 3 17 13 44 22 26 10 73 28 103 40 78 32 208 68 220 60 5 -3
10 -1 10 5 0 8 9 10 24 6 24 -6 176 43 316 103 91 39 95 43 43 40 -23 -2 -47
2 -55 8 -35 28 -65 23 -193 -33 -70 -30 -129 -53 -131 -51 -3 2 71 39 163 81
198 91 253 122 253 141 0 18 -48 42 -165 84 -202 71 -239 126 -148 215 99 96
304 153 393 108z m-1470 -37 c9 -17 4 -41 -25 -126 -21 -57 -57 -162 -82 -234
-25 -71 -49 -134 -53 -139 -11 -11 3 44 29 119 20 56 20 60 4 69 -10 5 -35 10
-56 10 -36 1 -38 -1 -57 -52 -11 -29 -20 -63 -21 -75 0 -12 -7 -38 -15 -57
l-14 -35 5 44 c3 24 17 81 31 125 14 45 38 126 55 181 40 132 68 193 79 175 7
-12 13 -12 40 1 44 20 67 19 80 -6z m-2099 -42 c6 -6 9 -23 7 -39 -4 -35 -22
-39 -115 -29 l-63 7 0 37 c0 21 2 40 4 42 9 9 157 -8 167 -18z m-248 -97 c4
-6 6 -24 5 -41 -3 -28 -6 -30 -50 -33 -26 -2 -65 2 -87 8 -37 10 -41 14 -41
44 0 18 3 36 7 40 11 11 157 -5 166 -18z m235 -12 c17 -5 22 -14 22 -40 0 -29
-5 -36 -32 -48 -25 -11 -28 -15 -12 -15 28 -1 44 -20 44 -53 0 -37 -12 -41
-101 -31 l-74 8 -3 38 -3 37 48 1 48 0 -45 17 c-41 16 -45 21 -48 55 l-3 37
68 0 c37 0 78 -3 91 -6z m-244 -90 c11 -4 16 -19 16 -47 l0 -40 -82 7 c-44 4
-85 9 -90 12 -4 3 -8 21 -8 40 l0 34 74 0 c41 0 81 -3 90 -6z m4930 -60 c46
-7 46 -7 46 -45 l0 -39 -64 0 c-35 0 -78 3 -95 6 -27 6 -31 11 -31 39 0 17 3
35 7 38 8 9 76 9 137 1z m-4 -122 c43 -7 45 -8 45 -42 0 -31 -3 -35 -30 -38
-16 -2 -58 -1 -92 3 l-63 7 0 39 0 39 48 -1 c26 0 67 -4 92 -7z m-5397 -71
c-6 -23 26 -46 77 -55 19 -3 116 -12 215 -21 99 -8 194 -19 211 -24 16 -5 70
-12 120 -15 49 -4 96 -9 104 -11 8 -2 119 -12 245 -21 343 -24 418 -31 360
-33 -27 0 -219 10 -425 24 -335 22 -672 40 -785 40 -34 0 -40 -3 -43 -22 -5
-36 -40 -30 -50 9 -6 24 -16 34 -44 44 -43 15 -48 8 -48 -59 0 -29 -3 -38 -10
-31 -6 6 -10 43 -8 85 3 74 3 74 38 91 44 23 49 22 43 -1z m5191 -34 c12 -9
17 -23 14 -42 -3 -28 -6 -30 -53 -33 -79 -4 -129 9 -133 37 -7 45 3 51 81 51
44 0 80 -5 91 -13z m244 -20 c7 -5 12 -24 10 -41 l-3 -31 -84 2 c-95 3 -118
15 -107 56 4 16 14 27 29 29 41 6 142 -4 155 -15z m-1758 -36 c19 -4 -104 -6
-275 -3 -447 6 -853 -26 -1091 -87 -77 -20 -112 -35 -58 -26 25 4 324 45 439
60 103 13 300 25 395 24 58 -1 211 -2 340 -1 l235 0 -170 -9 c-245 -12 -482
-37 -624 -64 -119 -24 -161 -26 -110 -7 44 17 246 53 336 61 l88 8 -95 1
c-122 2 -430 -29 -683 -68 -108 -17 -212 -30 -230 -28 l-32 4 47 22 c107 51
431 101 788 122 162 10 646 3 700 -9z"/>
<path d="M3830 4526 c-36 -13 -85 -32 -110 -44 -209 -97 -398 -140 -565 -127
-50 4 -96 10 -102 13 -6 4 -16 23 -22 42 l-11 35 3 -33 4 -33 -69 7 c-77 8
-99 -3 -124 -63 -28 -65 -9 -222 41 -348 14 -37 14 -23 -1 35 -12 44 3 17 35
-65 18 -44 39 -91 48 -104 8 -13 10 -20 4 -17 -6 4 -22 28 -36 54 -13 26 -24
43 -24 37 -1 -19 54 -110 66 -110 6 0 15 -4 20 -9 5 -5 3 -6 -4 -2 -30 17 -9
-16 33 -53 83 -73 156 -78 312 -24 115 41 140 43 407 34 204 -6 336 60 401
202 28 59 29 68 29 207 0 125 -4 154 -23 210 -61 172 -146 215 -312 156z m30
-261 c7 -8 10 -24 7 -35 -3 -11 -1 -23 4 -26 5 -3 9 -18 9 -33 0 -33 9 -44 24
-32 6 5 29 11 51 13 37 3 40 1 42 -22 0 -14 2 -27 3 -30 12 -35 8 -52 -12 -58
-23 -6 -23 -6 2 -12 15 -3 26 -14 28 -26 3 -18 -10 -24 -92 -49 -53 -15 -113
-28 -133 -29 -21 0 -40 -4 -43 -8 -3 -3 -27 -9 -54 -13 l-49 -8 5 31 c3 20 0
33 -9 36 -21 9 -15 46 10 56 21 9 21 9 -4 9 -30 1 -44 24 -25 40 7 6 33 14 58
17 l46 6 -5 42 c-2 22 -9 51 -15 63 -17 34 -5 47 63 65 80 21 74 21 89 3z
m-695 -180 l10 -69 53 3 c52 2 52 2 52 -28 0 -16 5 -33 10 -36 14 -9 13 -45
-2 -45 -6 0 -3 -6 7 -14 31 -23 12 -48 -35 -45 -21 2 -42 0 -46 -4 -9 -9 -98
-9 -107 0 -4 3 -26 7 -50 7 -35 1 -42 4 -42 21 0 11 -6 26 -13 34 -8 8 -11 22
-9 32 3 10 1 19 -3 21 -5 2 -10 12 -12 23 -2 17 3 21 35 23 40 3 40 5 20 60
-3 6 1 12 7 12 9 0 8 6 -3 18 -20 22 -22 48 -4 56 6 2 37 4 67 3 l55 -2 10
-70z"/>
<path d="M204 2158 c3 -61 8 -114 13 -118 4 -4 23 -11 41 -15 l32 -7 0 89 c0
117 -4 128 -51 146 l-39 15 4 -110z"/>
<path d="M1625 1494 c-11 -3 -29 -7 -41 -9 -21 -5 -25 -21 -50 -184 l-6 -44
62 34 c85 47 170 124 170 154 0 14 -8 29 -19 34 -23 13 -89 21 -116 15z"/>
<path d="M2469 1053 c-15 -4 -74 -133 -61 -133 4 0 41 11 82 25 93 32 185 77
184 90 -2 19 -154 32 -205 18z"/>
<path d="M2435 813 c-71 -9 -70 -7 -106 -112 -18 -55 -31 -102 -28 -105 9 -9
184 51 272 93 97 47 133 76 117 96 -21 25 -159 40 -255 28z"/>
</g>
</svg>
