<?xml version="1.0" standalone="no"?>
<!DOCTYPE svg PUBLIC "-//W3C//DTD SVG 20010904//EN"
 "http://www.w3.org/TR/2001/REC-SVG-20010904/DTD/svg10.dtd">
<svg version="1.0" xmlns="http://www.w3.org/2000/svg"
 width="720.000000pt" height="544.000000pt" viewBox="0 0 720.000000 544.000000"
 preserveAspectRatio="xMidYMid meet">
<metadata>
Created by potrace 1.16, written by Peter Selinger 2001-2019
</metadata>
<g transform="translate(0.000000,544.000000) scale(0.100000,-0.100000)"
fill="#000000" stroke="none">
<path d="M3520 5348 c-172 -14 -363 -80 -511 -177 -105 -69 -168 -127 -250
-236 -60 -79 -79 -116 -79 -159 0 -26 -8 -42 -31 -64 -24 -22 -32 -40 -38 -88
-10 -69 -1 -94 34 -94 23 0 30 -10 26 -34 -1 -5 3 -12 9 -16 8 -5 1 -32 -20
-86 -31 -76 -32 -83 -25 -179 15 -230 103 -408 230 -466 35 -16 80 -48 109
-77 43 -45 46 -51 28 -56 -11 -4 -43 -29 -72 -57 l-53 -51 -62 21 c-86 28
-309 62 -274 41 8 -5 54 -14 101 -20 97 -12 192 -41 223 -69 11 -10 35 -26 53
-35 17 -9 32 -19 32 -22 0 -3 -4 -2 -10 1 -16 10 -12 -57 5 -75 8 -9 18 -32
22 -51 6 -31 5 -33 -10 -21 -13 11 -27 12 -64 4 -26 -6 -50 -9 -54 -6 -4 2
-12 -3 -19 -11 -9 -11 -33 -15 -84 -15 -117 0 -112 -4 -113 106 -1 87 -3 97
-28 130 -15 20 -43 42 -61 50 -19 8 -34 21 -34 29 0 8 -4 15 -10 15 -5 0 -10
9 -10 20 0 21 -26 80 -36 80 -2 0 0 -8 5 -17 5 -10 12 -39 16 -65 6 -38 2 -56
-20 -107 -29 -64 -64 -108 -61 -75 0 11 -16 27 -44 44 -28 16 -52 41 -65 66
-11 21 -30 47 -41 56 -27 22 -48 72 -41 98 3 11 4 20 2 20 -1 0 -28 -12 -59
-26 -31 -14 -68 -24 -83 -22 -26 3 -23 5 28 31 37 18 72 46 101 80 l43 52 -6
80 c-5 57 -3 99 8 147 9 37 13 77 9 90 -3 13 -29 47 -57 77 -28 30 -64 81 -80
114 -34 70 -45 85 -83 108 -16 10 -50 47 -75 83 -94 133 -211 274 -233 280
-49 13 -79 6 -109 -23 -54 -55 -28 -129 78 -216 37 -31 72 -63 77 -72 11 -21
-17 -43 -56 -43 -17 0 -42 -12 -65 -33 -21 -18 -57 -45 -81 -61 -23 -16 -52
-44 -63 -63 -12 -19 -32 -46 -45 -58 -36 -36 -33 -103 7 -181 26 -50 41 -67
88 -94 31 -19 63 -43 71 -54 8 -12 29 -37 46 -56 18 -19 37 -53 43 -76 15 -54
41 -56 41 -2 0 21 4 38 8 38 15 0 52 -46 52 -63 0 -32 30 -64 71 -77 34 -12
45 -22 60 -58 11 -24 19 -50 19 -57 0 -7 7 -15 15 -19 8 -3 15 -12 15 -19 0
-17 54 -75 139 -150 47 -42 72 -57 95 -58 l31 -1 -35 -10 c-19 -5 -65 -8 -101
-6 -57 3 -75 9 -125 43 -33 21 -60 37 -61 34 -4 -6 -30 33 -61 90 -35 63 -105
163 -127 181 -30 25 28 -80 86 -155 29 -38 61 -85 73 -106 13 -22 48 -55 91
-83 37 -26 75 -56 83 -67 26 -38 90 -59 179 -59 l82 0 43 -44 c36 -36 58 -48
130 -70 48 -14 120 -31 160 -36 40 -5 92 -12 115 -16 29 -4 55 -1 87 11 39 15
52 16 88 6 30 -8 56 -9 85 -3 61 14 132 -4 146 -37 65 -164 133 -267 191 -295
20 -9 36 -23 36 -31 0 -22 -135 -21 -144 0 -6 17 -106 22 -106 6 0 -18 -41
-23 -59 -7 -11 10 -48 17 -114 22 l-97 7 0 37 c0 21 -8 47 -18 60 -39 48 -195
45 -239 -5 l-22 -25 -66 25 c-37 13 -117 35 -178 47 -102 21 -140 23 -415 23
-281 0 -302 1 -302 18 0 13 -9 17 -37 17 -21 0 -49 3 -62 7 -22 5 -23 4 -18
-19 9 -34 -3 -42 -103 -66 -47 -12 -105 -28 -129 -37 -59 -20 -71 -19 -71 8 0
34 -19 47 -65 47 -54 0 -73 -16 -77 -65 l-3 -40 -80 -5 c-97 -7 -123 -19 -127
-61 -3 -29 -8 -33 -103 -68 -294 -111 -525 -201 -561 -219 -68 -34 -68 -36
-58 -190 l9 -137 32 -20 c21 -13 34 -30 37 -50 3 -16 26 -291 51 -610 25 -319
49 -610 52 -646 l6 -66 -33 -13 c-18 -7 -46 -24 -61 -38 -24 -20 -29 -31 -29
-70 0 -26 3 -64 7 -86 5 -35 11 -41 57 -62 55 -25 101 -30 536 -59 124 -8 389
-26 590 -40 201 -13 565 -38 810 -55 452 -31 1112 -78 1475 -105 110 -8 385
-29 610 -45 226 -17 464 -36 530 -42 70 -6 413 -13 818 -15 l697 -4 153 89
c83 49 228 134 321 188 189 111 196 119 196 223 0 56 -2 61 -36 90 l-37 30 12
123 c16 183 29 348 61 826 l29 432 29 30 c28 28 30 34 36 142 11 195 11 206
-10 229 -30 33 -58 40 -244 54 -96 8 -200 17 -231 21 -42 5 -59 3 -70 -9 -9
-8 -62 -27 -120 -42 -57 -14 -106 -28 -108 -30 -2 -3 10 -20 28 -40 19 -22 31
-46 30 -63 0 -15 -3 -21 -6 -12 -11 29 -45 59 -62 53 -9 -3 -29 -19 -46 -34
-74 -69 -296 -134 -545 -159 -52 -6 -114 -13 -138 -16 l-43 -6 3 -42 c3 -36 6
-42 33 -47 17 -4 -31 -6 -105 -6 -74 0 -109 2 -77 4 53 4 57 6 52 26 -3 12 -7
32 -7 43 -2 20 -9 22 -148 28 -257 13 -573 58 -623 90 -12 8 -46 24 -75 36
-69 26 -114 61 -137 105 -18 32 -18 36 -3 68 9 19 31 45 48 57 30 21 31 21 22
3 -6 -11 -18 -25 -26 -33 -21 -16 -20 -69 0 -98 79 -112 540 -218 864 -198 58
4 177 8 265 10 228 5 426 44 548 109 87 46 118 94 80 123 -17 13 -17 13 0 14
10 0 15 5 12 10 -8 13 -45 -6 -45 -24 0 -19 -37 -50 -42 -36 -5 16 -113 17
-217 2 -47 -7 -86 -10 -88 -8 -2 2 22 10 54 19 32 9 101 28 153 42 93 25 135
48 115 63 -5 4 -17 16 -25 27 -8 11 -1 8 16 -7 30 -28 51 -37 39 -18 -6 9 14
14 43 11 6 -1 12 5 12 14 0 12 8 15 35 12 24 -3 39 1 51 14 9 10 21 16 25 13
5 -3 9 18 9 46 0 49 -1 51 -37 67 -41 17 -141 20 -170 5 -12 -7 -45 -4 -102 8
-46 10 -140 26 -210 35 -69 9 -135 18 -147 20 -11 3 -44 32 -74 65 l-53 61 12
72 c13 86 1 229 -24 277 -50 97 -139 148 -243 137 -46 -5 -59 -2 -84 16 -16
12 -86 47 -156 78 -122 53 -127 57 -133 90 -12 74 -72 146 -181 219 -109 73
-261 81 -364 19 -31 -19 -64 -46 -75 -60 -18 -25 -24 -27 -121 -31 -73 -3
-114 -10 -140 -23 -47 -23 -63 -10 -24 19 68 49 198 170 211 197 14 26 18 27
43 18 40 -15 83 -3 188 52 71 38 105 64 144 109 63 73 79 112 86 208 12 154
-29 271 -128 361 -148 135 -140 125 -133 175 6 37 3 53 -15 83 -58 100 -263
304 -354 355 -187 103 -382 144 -606 126z m200 -275 c41 -8 90 -23 108 -34 18
-10 39 -19 45 -19 21 0 140 -83 185 -129 23 -24 55 -64 70 -90 28 -47 29 -62
34 -286 1 -22 -4 -78 -11 -125 -15 -99 -9 -191 21 -345 l21 -110 -28 -45 c-30
-49 -114 -120 -142 -120 -14 0 -15 -2 -4 -9 9 -6 10 -11 2 -15 -6 -4 -11 -17
-11 -29 -1 -20 -2 -20 -11 -5 -9 17 -12 16 -40 -4 -28 -21 -29 -23 -12 -37 17
-12 16 -13 -5 -8 -13 3 -43 -3 -67 -13 -24 -10 -46 -16 -50 -12 -3 3 -3 -1 0
-10 11 -27 36 -26 104 5 79 35 106 55 121 86 6 13 14 21 17 17 4 -4 32 18 62
48 31 30 68 58 84 61 57 15 24 -41 -74 -120 -77 -64 -287 -162 -419 -196 -182
-48 -400 -39 -540 21 -146 62 -221 137 -304 303 -62 124 -99 243 -116 371 -11
82 -10 105 16 248 6 35 5 37 -27 47 l-34 11 36 -5 c24 -4 38 -1 42 7 3 7 19
49 37 93 55 137 133 230 285 340 75 54 205 110 288 124 65 12 218 4 317 -16z
m835 -424 l30 -18 -38 6 c-24 3 -47 1 -63 -7 -38 -21 -73 -90 -80 -160 -2 -14
-8 -59 -14 -101 -10 -63 -9 -90 4 -161 32 -172 59 -215 131 -213 24 1 50 6 57
12 33 25 39 21 8 -6 -19 -16 -57 -41 -84 -55 l-49 -25 -27 22 c-14 12 -31 36
-37 52 -6 17 -23 58 -37 92 -39 92 -62 332 -37 381 5 9 23 46 39 82 56 121
114 151 197 99z m-2865 -267 c0 -5 18 -27 40 -50 32 -32 40 -48 40 -76 0 -31
-3 -36 -24 -36 -13 0 -40 -11 -61 -25 -20 -15 -40 -24 -43 -21 -12 12 -21 190
-11 203 12 14 59 18 59 5z m440 -166 c53 -19 73 -64 65 -150 -12 -127 -67
-198 -152 -195 l-28 1 30 9 c66 19 135 120 135 195 l-1 39 -18 -22 c-26 -31
-67 -45 -107 -37 -36 7 -69 34 -41 34 11 0 14 10 9 48 -2 26 -9 52 -14 59 -5
7 -7 17 -3 23 8 14 81 11 125 -4z m2540 -441 c92 -19 135 -42 210 -111 67 -63
90 -99 90 -141 l-1 -28 -13 31 c-15 35 -69 81 -74 65 -2 -6 -21 -11 -42 -11
-72 0 -193 -79 -242 -158 -24 -39 -35 -37 -14 3 l15 28 -57 27 c-31 15 -71 39
-88 53 -37 32 -114 48 -114 25 0 -48 17 -86 58 -127 42 -42 43 -43 12 -25 -41
23 -80 94 -80 143 0 84 88 199 167 220 95 24 88 24 173 6z m-340 -123 c0 -5
-13 -21 -30 -37 -83 -80 -93 -334 -20 -504 17 -40 18 -43 3 -24 -13 17 -22 20
-33 13 -12 -8 -12 -10 -1 -10 11 0 11 -3 0 -16 -11 -14 -16 -9 -40 38 -35 66
-36 60 -5 -20 14 -34 21 -60 16 -57 -4 3 -11 -1 -14 -7 -3 -7 -3 -3 0 10 3 12
3 22 0 22 -14 0 -55 -44 -49 -53 3 -6 1 -7 -5 -3 -6 4 -26 -6 -44 -22 -93 -84
-142 -120 -176 -131 -35 -12 -42 -11 -97 17 -37 18 -92 34 -142 42 -47 7 -83
17 -83 24 0 6 -7 3 -14 -6 -7 -10 -22 -18 -33 -18 -11 0 -42 -7 -68 -15 -46
-13 -50 -13 -62 5 -7 10 -26 25 -41 32 -24 13 -30 12 -47 -5 -20 -18 -20 -18
-48 42 -16 33 -33 89 -39 125 -6 36 -15 66 -19 66 -5 0 -9 11 -9 25 0 28 -15
34 -24 9 -12 -32 -5 -134 13 -192 10 -33 36 -91 57 -129 21 -37 49 -90 61
-118 l23 -50 -35 39 c-19 21 -55 80 -79 130 -70 142 -84 292 -40 429 19 60 20
62 44 47 10 -6 11 -10 3 -10 -7 0 -13 -4 -13 -10 0 -5 6 -10 14 -10 8 0 17 -6
20 -12 3 -9 12 -4 25 13 24 30 66 29 76 -2 5 -14 16 -19 46 -19 21 0 39 5 39
10 0 6 15 3 33 -6 50 -26 157 -22 237 8 76 30 164 80 201 115 15 13 37 26 50
28 49 6 85 19 115 42 17 12 37 23 45 23 8 0 25 9 39 20 14 11 30 20 35 20 14
0 85 59 85 71 0 5 -26 10 -57 10 -56 2 -56 2 -18 9 58 10 105 11 105 2z
m-1232 -78 c102 -56 104 -58 38 -83 -64 -24 -76 -25 -76 -10 0 6 -9 8 -21 4
-13 -5 -19 -3 -15 3 8 13 -17 22 -64 22 -22 0 -40 -5 -43 -12 -2 -7 -8 -10
-12 -6 -14 13 89 117 118 118 4 0 38 -16 75 -36z m1950 -128 c65 -23 222 -98
222 -106 0 -4 -20 -5 -44 -3 -70 8 -132 -20 -186 -82 -25 -29 -48 -51 -51 -49
-4 2 -14 -16 -23 -40 -16 -43 -18 -44 -44 -31 -15 7 -57 25 -93 40 -105 45
-105 45 -84 102 23 61 106 145 166 166 56 20 87 20 137 3z m383 -188 c51 -15
108 -65 150 -129 30 -47 33 -60 33 -123 1 -76 -9 -129 -23 -124 -5 2 -26 26
-47 53 -20 28 -29 43 -19 35 18 -14 18 -13 0 12 -11 15 -29 28 -40 30 -11 2
-19 9 -17 16 1 8 -1 11 -6 8 -5 -3 -31 3 -58 13 -27 10 -77 21 -110 24 -53 6
-68 3 -105 -17 -56 -29 -69 -25 -63 22 8 54 -12 18 -20 -38 -6 -42 -6 -44 8
-25 9 11 16 15 16 8 0 -6 -9 -18 -20 -26 -11 -7 -29 -36 -41 -63 -27 -60 -35
-43 -19 38 43 222 201 340 381 286z m-2823 -162 c24 -9 73 -18 110 -22 124
-11 178 -35 116 -50 -36 -9 -123 1 -261 31 -123 27 -170 42 -179 56 -8 14 167
1 214 -15z m2132 -96 c38 -41 137 -92 219 -112 25 -6 49 -14 54 -18 4 -3 -6
-23 -22 -44 -17 -21 -35 -54 -42 -74 -16 -51 -24 -59 -67 -66 -20 -4 -45 -9
-54 -12 -15 -4 -18 1 -18 28 0 46 -15 58 -74 58 -73 0 -79 -6 -85 -91 -1 -14
-12 -15 -74 -11 -92 6 -147 -14 -147 -52 0 -24 -3 -26 -51 -26 -43 0 -50 3
-47 18 2 9 20 25 40 35 49 24 107 90 142 163 35 72 96 233 96 256 0 29 87 -5
130 -52z m737 -63 c66 -34 178 -136 164 -150 -7 -7 -16 -5 -29 6 -25 23 -48
21 -73 -4 l-21 -21 -19 21 c-27 29 -52 26 -91 -8 -33 -29 -33 -29 -57 -10 -13
10 -34 19 -47 19 -30 0 -74 -20 -74 -34 0 -6 -5 -4 -10 4 -5 8 -10 43 -10 77
0 56 3 66 32 99 l32 36 76 -4 c55 -4 89 -12 127 -31z m-3354 -220 c100 -43
-36 -90 -263 -91 -94 0 -138 4 -177 18 -29 10 -53 21 -53 26 0 20 34 39 88 50
31 6 62 13 67 15 6 3 75 3 155 2 109 -3 155 -7 183 -20z m-1001 -80 c-90 -96
136 -189 496 -204 105 -4 153 -2 182 7 22 7 40 17 40 22 0 4 -30 8 -67 8 -128
0 -57 7 122 12 166 5 174 5 100 -6 -75 -12 -78 -13 -52 -24 105 -44 531 29
660 114 38 25 51 19 19 -9 -54 -49 -263 -106 -504 -138 -103 -14 -176 -28
-184 -37 -8 -7 -14 -24 -14 -38 0 -21 5 -24 43 -26 23 -1 4 -4 -43 -7 l-85 -6
-3 32 c-2 19 -11 37 -21 43 -11 5 -83 14 -162 21 -188 14 -415 53 -482 83 -53
23 -107 75 -107 103 0 8 13 28 29 44 35 34 65 40 33 6z m-452 -141 c-8 -8 -44
-23 -80 -34 -36 -11 -113 -43 -172 -70 -109 -51 -128 -71 -90 -91 10 -6 149
-19 308 -31 324 -23 359 -26 292 -29 -26 0 -50 -6 -54 -13 -4 -6 -3 -8 2 -5 5
3 30 1 54 -4 25 -4 203 -18 395 -29 193 -11 368 -23 390 -27 23 -3 36 -2 32 3
-5 5 -18 10 -30 12 -12 1 -56 7 -97 11 -62 8 -51 9 65 5 277 -9 813 -50 685
-53 -93 -2 -89 -17 7 -24 487 -34 1625 -107 1671 -107 12 0 22 5 22 10 0 6
-12 10 -27 10 -14 0 -24 2 -21 5 3 3 103 -1 224 -10 296 -20 342 -23 464 -31
92 -6 101 -9 72 -17 -23 -7 -53 -7 -95 1 -34 6 -123 13 -197 16 -313 11 156
-31 675 -60 123 -7 151 3 48 16 -77 10 265 2 422 -10 247 -20 512 -31 575 -25
109 11 140 24 260 107 178 123 409 273 370 239 -42 -36 -35 -50 11 -22 18 11
36 16 39 11 9 -15 190 109 190 131 0 16 -62 28 -174 35 -66 4 -131 10 -145 14
l-26 8 25 1 c14 1 85 -4 158 -9 133 -10 182 -25 182 -55 0 -21 -643 -467 -702
-487 -18 -6 -36 -13 -39 -17 -4 -3 -10 -55 -14 -116 -3 -60 -9 -113 -11 -117
-9 -14 -74 -9 -69 4 2 7 6 59 10 116 l6 102 -128 0 c-70 0 -180 5 -244 10 -64
5 -194 14 -290 20 -96 5 -349 21 -564 35 -214 14 -500 32 -635 40 -349 21
-2275 151 -2665 180 -310 23 -786 54 -930 59 -71 3 -202 9 -290 13 -88 4 -169
7 -180 8 -17 0 -20 -8 -23 -60 -1 -33 1 -77 5 -99 l8 -38 60 -4 c33 -2 87 -8
120 -14 33 -6 114 -17 180 -24 l120 -14 -135 4 c-196 7 -399 23 -443 35 -20 5
-43 20 -51 32 -17 27 -29 235 -15 260 14 24 44 38 230 107 90 34 184 69 209
80 55 23 69 24 50 6z m3084 -212 c24 -9 20 -27 -13 -58 -29 -28 -32 -28 -106
-21 -89 8 -104 24 -59 61 24 19 41 23 96 24 36 0 73 -3 82 -6z m-1939 -423
c58 -26 79 -59 72 -114 -5 -36 -15 -51 -67 -99 -33 -31 -57 -58 -53 -61 4 -3
23 -8 41 -12 38 -8 89 -56 98 -92 9 -33 42 -30 50 5 4 15 10 32 14 37 4 6 11
21 15 35 4 14 28 74 53 133 41 95 49 107 68 103 11 -3 29 1 40 9 10 8 27 15
36 15 9 0 18 6 21 13 3 7 7 5 12 -8 4 -11 11 -29 15 -40 5 -11 16 -75 26 -142
17 -117 19 -123 41 -123 17 0 23 -6 24 -22 0 -13 9 3 19 34 36 116 115 209
206 244 85 32 168 -11 166 -86 -1 -48 -21 -100 -36 -94 -8 3 -16 -2 -20 -12
-6 -15 -9 -14 -26 6 -11 13 -20 34 -20 47 0 35 -33 29 -75 -12 -47 -47 -76
-107 -82 -169 -4 -43 -1 -56 18 -80 19 -24 27 -28 60 -23 20 3 57 18 81 34 57
39 98 61 81 42 -7 -7 -13 -24 -13 -37 l0 -24 29 24 c26 21 30 34 55 180 31
189 38 208 65 201 13 -3 21 -1 21 7 0 7 7 10 15 7 8 -4 17 -2 20 3 10 17 25
11 25 -9 0 -11 4 -22 8 -25 5 -3 3 -35 -5 -72 -8 -37 -12 -69 -9 -71 3 -3 26
15 53 39 83 78 175 147 187 142 7 -3 23 7 36 21 37 39 46 29 10 -11 -17 -20
-29 -39 -25 -42 3 -3 11 0 17 6 18 18 30 14 20 -5 -5 -10 -8 -23 -5 -29 4 -11
-36 -50 -147 -144 -99 -84 -94 -77 -73 -104 73 -95 176 -216 181 -212 3 3 -1
12 -7 20 -16 19 -10 92 7 89 6 -2 12 2 12 8 0 6 6 9 14 6 7 -3 18 -1 23 4 5 5
14 -5 22 -26 8 -23 20 -37 37 -41 36 -9 94 2 124 24 45 34 33 52 -75 108 -101
51 -145 93 -145 136 0 103 222 224 318 174 36 -19 52 -43 52 -81 0 -29 -28
-90 -37 -81 -3 3 -12 -2 -19 -12 -8 -10 -13 -12 -14 -4 0 6 -7 12 -15 12 -10
0 -15 10 -15 30 0 20 -5 30 -15 30 -29 0 -96 -33 -107 -53 -13 -24 -4 -33 91
-80 90 -45 151 -106 151 -151 0 -63 -73 -125 -196 -166 -63 -21 -90 -25 -96
-12 -4 9 -98 54 -98 46 0 -3 21 -33 47 -66 41 -54 43 -59 17 -42 -16 10 -41
29 -56 43 -27 24 -54 23 -30 -1 24 -24 11 -29 -19 -8 -24 18 -39 21 -77 17
-42 -5 -44 -5 -19 5 15 7 27 15 27 18 0 4 -24 31 -53 61 -29 30 -73 78 -99
106 l-46 53 -10 -43 c-6 -23 -13 -62 -17 -87 -4 -25 -11 -52 -17 -60 -6 -11
-7 -9 -3 8 4 12 2 22 -3 22 -10 0 -27 -37 -35 -75 -3 -11 -5 -4 -6 16 -1 35
-30 79 -32 48 0 -8 -4 -6 -8 5 -4 11 -4 40 0 65 4 25 5 48 3 50 -3 3 -33 -22
-67 -56 -75 -72 -118 -103 -146 -103 -11 0 -45 12 -76 26 -59 28 -98 78 -111
142 -6 30 -26 43 -38 24 -2 -4 2 -41 10 -82 7 -40 12 -76 9 -78 -3 -3 -5 0 -5
6 0 7 -5 12 -11 12 -10 0 -9 -11 7 -85 2 -11 -5 0 -17 25 -14 31 -23 41 -28
31 -6 -9 -11 -5 -16 16 -7 25 -8 26 -15 8 -10 -25 -14 -15 -33 70 -15 67 -10
65 -113 45 -51 -11 -51 -11 -76 -73 -14 -34 -30 -61 -36 -60 -6 1 -16 -11 -24
-27 -17 -38 -24 -38 -32 3 -7 30 -8 31 -21 13 -19 -25 -19 -12 1 54 22 75 4
84 -56 25 -25 -24 -76 -64 -113 -89 -38 -24 -67 -47 -65 -51 2 -3 -23 -19 -54
-34 -32 -15 -58 -24 -58 -19 0 4 -7 8 -15 8 -8 0 -19 -15 -24 -32 -5 -18 -10
-25 -10 -15 -1 10 -7 17 -13 15 -8 -3 -14 -29 -16 -72 -3 -80 -22 -80 -22 0 0
54 -15 74 -23 32 l-4 -23 -8 23 c-8 24 -15 24 -72 6 -17 -5 -17 -5 1 10 20 16
14 38 -9 29 -8 -3 -15 0 -15 6 0 7 7 14 15 17 8 4 15 11 15 16 0 6 -7 7 -16 4
-30 -11 -2 14 36 34 44 22 46 29 54 168 3 66 1 82 -10 82 -8 0 -14 7 -15 15
-4 58 -1 68 20 84 24 18 40 74 41 144 l0 37 -37 -16 c-21 -9 -51 -19 -68 -22
-27 -4 -29 -3 -16 11 23 28 -13 32 -76 8 -31 -12 -57 -20 -59 -18 -2 2 28 19
66 37 39 19 70 38 70 43 0 5 -7 7 -15 3 -8 -3 -15 -1 -15 4 0 21 175 94 263
110 73 13 191 4 242 -19z m-1420 -216 c56 -633 87 -1089 65 -971 -21 118 -100
1169 -87 1156 3 -3 13 -86 22 -185z m3899 123 c4 -24 14 -94 21 -156 8 -62 17
-118 20 -123 4 -5 15 -9 25 -9 13 0 17 -5 14 -15 -4 -8 -2 -15 4 -15 6 0 16
17 23 38 20 63 58 119 117 173 70 64 141 99 204 99 66 0 96 -14 115 -55 16
-33 16 -37 -3 -82 -12 -28 -26 -47 -34 -45 -7 2 -17 -2 -21 -9 -11 -18 -39 14
-39 45 0 68 -122 -5 -192 -113 -33 -53 -39 -132 -11 -163 24 -27 80 -23 127
10 57 39 57 52 2 52 -34 0 -46 4 -47 15 -5 70 -5 70 37 77 21 3 78 9 126 13
l87 7 -4 -33 c-2 -19 -12 -59 -23 -89 -11 -30 -33 -95 -48 -145 -20 -67 -29
-85 -35 -70 -8 22 -7 23 -33 -50 l-15 -40 0 48 c-1 26 -5 47 -11 47 -5 0 -10
-7 -10 -16 0 -8 -4 -13 -9 -10 -4 3 -5 25 -1 48 5 24 7 44 6 46 -2 1 -24 -9
-50 -23 -54 -29 -71 -30 -119 -10 -74 31 -127 97 -127 160 0 20 -5 25 -25 25
-21 0 -24 -4 -20 -27 19 -112 21 -133 14 -133 -4 0 -10 6 -13 13 -3 6 -4 -14
-1 -46 5 -60 -8 -72 -18 -17 -4 16 -13 30 -20 30 -8 0 -19 10 -25 23 -6 12
-11 16 -11 10 -1 -7 -5 -13 -9 -13 -5 0 -15 32 -22 71 l-12 72 -59 -7 c-106
-11 -108 -12 -145 -90 -19 -39 -34 -63 -34 -54 0 29 -27 10 -50 -35 -19 -39
-20 -40 -16 -12 5 33 -11 70 -21 48 -2 -7 -8 -13 -13 -13 -5 0 2 27 16 60 28
69 28 71 11 64 -10 -3 -14 4 -14 26 0 16 5 30 10 30 5 0 4 6 -3 14 -9 12 -5
16 25 22 30 5 39 13 57 53 11 25 38 81 59 123 l39 77 -38 -5 c-152 -19 -180
-26 -185 -48 -7 -31 -65 -259 -87 -341 -13 -48 -19 -61 -19 -40 l-1 30 -25
-30 c-13 -16 -27 -42 -30 -57 -4 -16 -10 -28 -15 -28 -4 0 -4 18 1 41 6 25 6
46 -1 57 -5 10 -10 12 -10 5 0 -7 -4 -13 -10 -13 -14 0 12 171 55 364 3 16 -1
18 -38 12 -95 -15 -132 -18 -118 -8 11 8 12 14 4 24 -12 16 -10 65 3 78 6 6
48 15 94 21 47 6 94 15 104 21 25 13 258 20 288 9 l23 -9 -24 -9 c-22 -9 -23
-10 -5 -17 18 -7 17 -8 -6 -21 -25 -14 -25 -14 15 -15 36 0 42 4 59 35 14 26
24 34 38 29 18 -5 84 13 103 28 17 15 22 8 29 -34z m1086 -67 c4 -7 24 -13 44
-14 47 -1 46 -14 -1 -22 -21 -4 -48 -12 -61 -18 -21 -10 -21 -12 -6 -17 29
-10 4 -18 -81 -24 -161 -13 -173 -16 -178 -39 -3 -12 -9 -32 -13 -45 -7 -23
-5 -23 57 -22 35 1 80 1 99 0 32 -1 33 -2 15 -12 -19 -12 -19 -12 5 -19 25 -6
25 -7 -8 -19 -22 -8 -30 -15 -22 -20 20 -12 0 -17 -98 -25 l-92 -7 -11 -42
c-5 -22 -11 -45 -12 -49 -1 -5 71 -8 160 -8 102 1 164 -2 168 -9 4 -6 -7 -10
-27 -11 -60 -1 0 -17 72 -19 76 -3 65 -6 -42 -15 -76 -7 -110 -25 -46 -25 75
0 10 -10 -137 -21 -88 -6 -171 -16 -185 -22 -14 -6 -29 -11 -33 -11 -4 -1 -11
-7 -16 -14 -7 -11 -9 -11 -14 2 -4 10 -18 16 -38 16 -23 0 -30 4 -26 14 3 8 3
17 -1 21 -4 3 -7 19 -8 35 -1 22 3 30 19 32 16 2 25 17 38 61 13 44 14 59 5
63 -20 8 -7 72 16 80 19 6 29 24 42 77 5 22 3 27 -13 27 -13 0 -20 9 -23 30
-3 17 -1 30 4 30 4 0 8 8 8 18 0 34 64 51 194 52 66 0 122 3 125 6 11 11 113
-3 121 -15z m-2618 -570 c32 -12 68 -35 82 -52 24 -29 25 -32 11 -60 -17 -31
-61 -63 -140 -99 l-50 -22 68 -18 c107 -27 155 -74 135 -131 -13 -36 -95 -111
-153 -139 -25 -12 -87 -37 -138 -56 -67 -25 -81 -33 -52 -29 52 7 39 1 -70
-30 -126 -36 -135 -38 -90 -15 35 17 36 19 10 13 -90 -19 -108 -28 -121 -63
l-12 -35 -1 33 c-1 29 -3 32 -21 22 -11 -6 -21 -25 -25 -48 -3 -20 -10 -55
-15 -77 -7 -32 -8 -24 -4 38 4 71 3 78 -13 75 -9 -2 -20 -14 -24 -28 l-6 -25
-7 27 c-5 15 -13 25 -19 23 -7 -2 -27 -6 -44 -9 -37 -6 -45 8 -10 18 18 5 20
8 7 16 -8 5 -26 10 -40 10 -25 1 -25 1 -2 10 24 10 30 30 10 30 -22 1 23 22
71 35 42 10 46 14 54 51 5 21 18 70 29 107 l19 69 -22 19 c-17 15 -19 22 -10
33 9 11 9 15 -1 18 -6 2 6 11 28 20 37 15 42 22 67 93 l27 78 -37 -7 c-97 -16
-118 -18 -103 -7 16 11 15 13 -15 29 -11 6 -14 12 -7 12 7 0 23 9 35 21 l22
20 -30 -7 c-25 -5 -28 -4 -18 7 7 7 59 23 115 36 90 20 125 22 278 19 151 -3
183 -6 232 -25z m780 0 c2 -6 33 -6 78 -1 41 5 111 9 155 8 l80 0 -50 -13
c-48 -13 -49 -13 -15 -15 l35 -2 -35 -13 -35 -14 35 4 c205 25 489 28 410 5
-24 -7 -24 -8 9 -15 l34 -8 -54 -18 c-52 -16 -53 -17 -19 -18 69 -3 6 -20
-121 -32 l-126 -12 -16 -45 -17 -45 87 6 c49 3 97 2 108 -3 19 -8 19 -9 -3 -9
-29 -1 -19 -21 11 -22 20 -1 21 -2 2 -6 -11 -3 -31 -10 -45 -15 -24 -10 -24
-11 -5 -18 13 -4 -5 -9 -55 -14 -147 -14 -144 -13 -162 -64 -10 -25 -15 -48
-14 -50 2 -2 66 0 143 5 76 4 163 5 193 2 44 -5 47 -6 18 -7 -21 -1 -38 -6
-38 -11 0 -13 59 -22 97 -15 19 4 33 2 33 -4 0 -5 -30 -12 -67 -16 -38 -3 -83
-9 -102 -12 -24 -5 -32 -3 -27 5 4 6 16 11 27 11 11 0 17 5 14 10 -3 6 -15 10
-25 10 -10 0 -20 5 -22 11 -3 9 -38 9 -133 1 -72 -5 -132 -9 -134 -7 -2 2 1
17 6 32 14 41 7 53 -29 46 -22 -4 -29 -3 -24 5 4 7 1 12 -7 12 -12 0 -42 -67
-42 -94 0 -5 -5 -11 -12 -13 -12 -4 -8 21 16 80 11 29 7 52 -9 42 -5 -3 -7 8
-5 25 2 18 -1 30 -8 31 -7 0 6 9 28 18 32 14 45 28 58 61 16 40 15 42 -3 47
-15 4 -17 9 -9 30 9 24 8 25 -28 19 -21 -3 -65 -8 -98 -11 l-61 -6 -52 -137
c-29 -75 -68 -175 -85 -220 -18 -46 -33 -77 -35 -69 -2 8 4 32 13 54 18 40 54
144 55 154 0 7 -31 5 -45 -2 -6 -3 -23 -5 -40 -5 -25 1 -33 -5 -46 -35 -9 -20
-20 -52 -24 -70 -10 -45 -34 -103 -40 -97 -3 3 22 86 55 184 80 233 79 228 49
221 -13 -3 -49 -9 -79 -12 -30 -3 -66 -8 -80 -11 -23 -4 -24 -3 -7 10 17 13
17 15 2 24 -16 8 -16 11 -1 35 13 19 14 26 4 30 -24 9 35 24 142 37 58 7 110
16 115 20 6 5 21 10 35 13 14 2 28 5 32 6 3 0 8 -3 10 -8z m1088 -19 c25 -12
36 -25 38 -45 2 -16 8 -25 14 -21 7 5 9 -2 4 -22 -11 -43 -34 -74 -50 -68 -9
3 -17 -3 -22 -18 l-7 -23 -9 24 c-7 19 -11 21 -22 11 -12 -9 -15 -6 -18 22 -4
41 -21 45 -92 23 -63 -20 -116 -59 -101 -74 6 -6 59 -29 119 -51 193 -73 256
-114 256 -167 0 -15 -7 -37 -15 -47 -8 -10 -12 -23 -9 -27 3 -5 -1 -9 -9 -9
-8 0 -21 -7 -28 -16 -12 -15 -7 -15 56 -9 39 4 78 9 88 11 9 3 17 1 17 -5 0
-6 -8 -11 -17 -11 -10 0 -58 -5 -106 -10 -71 -7 -111 -19 -210 -61 -67 -28
-126 -57 -132 -64 -15 -19 -102 -48 -116 -40 -7 5 -10 4 -6 -1 3 -6 -9 -10
-26 -10 -18 0 -86 -24 -152 -52 -133 -57 -171 -62 -51 -6 43 19 76 38 73 41
-3 3 -80 -21 -172 -52 -91 -31 -168 -55 -171 -52 -5 5 59 37 75 37 6 0 39 11
73 24 116 43 204 67 223 60 12 -5 16 -4 12 3 -5 7 0 9 12 6 20 -5 222 63 347
116 l67 29 -71 4 c-74 4 -96 13 -72 28 27 18 -2 10 -59 -14 -31 -14 -108 -47
-171 -75 -139 -60 -178 -75 -165 -63 6 5 89 44 185 87 296 132 345 160 334
189 -6 16 -28 26 -164 77 -130 49 -176 78 -185 118 -10 45 18 87 87 132 119
76 274 108 348 71z m-1477 -22 c-3 -11 0 -20 6 -20 19 0 13 -23 -54 -206 -36
-98 -65 -183 -65 -190 0 -6 -11 -36 -25 -65 -28 -62 -24 -33 12 80 26 85 26
84 13 76 -5 -3 -10 -1 -10 4 0 6 -11 11 -25 11 -14 0 -25 -4 -25 -10 0 -5 -11
-10 -25 -10 -21 0 -27 -8 -41 -57 -12 -41 -13 -58 -5 -61 16 -5 14 -22 -3 -22
-8 0 -17 -14 -21 -30 -4 -16 -11 -30 -16 -30 -6 0 -7 9 -3 23 4 12 11 36 15
52 58 226 144 470 157 448 7 -11 93 4 108 20 11 11 13 9 7 -13z m-2345 -153
c7 -6 12 -24 10 -41 -3 -30 -4 -31 -62 -34 -82 -4 -116 11 -116 53 0 17 2 34
5 37 9 9 149 -4 163 -15z m240 -13 c19 -6 23 -12 20 -43 -3 -31 -7 -37 -33
-41 l-30 -6 30 -14 c23 -12 31 -23 33 -48 4 -42 -10 -47 -101 -36 l-72 9 -3
38 c-3 35 -2 37 27 37 39 0 40 12 1 27 -26 10 -30 16 -30 47 l0 36 68 0 c37 0
77 -3 90 -6z m-240 -96 c7 -7 12 -28 12 -46 l0 -35 -81 6 c-44 4 -84 9 -90 12
-5 4 -9 22 -9 41 l0 34 78 0 c47 0 83 -5 90 -12z m4926 -54 c46 -7 46 -7 46
-45 l0 -39 -64 0 c-35 0 -78 3 -95 6 -27 6 -31 11 -31 39 0 17 3 35 7 38 8 9
76 9 137 1z m272 -14 l44 0 0 -40 0 -40 -72 1 c-88 1 -110 8 -115 39 -7 45 3
53 54 46 25 -3 65 -6 89 -6z m-271 -108 c38 -7 40 -9 40 -42 0 -31 -3 -35 -30
-38 -16 -2 -58 -1 -92 3 -63 7 -63 7 -63 39 0 18 3 36 7 39 8 9 86 8 138 -1z
m-5402 -59 c-19 -7 -16 -26 6 -40 35 -22 97 -33 284 -48 103 -8 195 -19 205
-25 17 -9 319 -36 752 -65 124 -9 234 -17 245 -19 43 -7 -77 -5 -205 4 -303
21 -954 59 -1077 63 l-133 4 -1 -41 c-1 -23 -3 -33 -6 -23 -2 9 -11 17 -19 17
-8 0 -17 13 -21 30 -7 36 -7 36 -56 45 l-37 7 0 -46 c0 -74 -18 -53 -22 25 -2
52 1 74 11 82 17 14 62 35 76 35 6 0 4 -2 -2 -5z m6657 -33 c11 -21 22 -14
-265 -171 -93 -51 -220 -121 -282 -155 -62 -34 -139 -72 -172 -85 -33 -12 -58
-25 -55 -30 3 -5 -5 -9 -18 -9 -18 0 -20 -2 -8 -10 8 -5 11 -10 6 -10 -5 0
-17 6 -25 13 -12 10 -215 26 -806 61 -434 26 -792 50 -794 52 -7 6 24 5 384
-16 791 -47 860 -50 1090 -44 227 6 230 6 295 35 74 34 206 114 217 132 17 26
221 137 240 130 12 -4 134 55 168 82 19 15 19 17 3 29 -22 16 -23 27 -3 20 9
-4 20 -15 25 -24z m-1459 -15 c15 -10 11 -65 -7 -72 -9 -3 -50 -2 -92 3 -70 8
-77 11 -80 32 -7 50 2 55 89 49 44 -4 84 -9 90 -12z m237 -17 c20 -20 15 -66
-9 -73 -32 -10 -157 5 -170 21 -6 8 -8 25 -5 39 6 24 9 25 89 25 51 0 88 -5
95 -12z m-1763 -36 c22 -4 -115 -6 -305 -5 -477 4 -773 -19 -1043 -84 -59 -14
-107 -27 -105 -28 2 -2 118 12 259 30 304 40 621 66 680 55 24 -5 151 -7 283
-5 l241 4 -230 -14 c-317 -18 -467 -35 -637 -70 -82 -18 -85 -18 -73 -6 14 14
249 61 352 71 75 8 65 8 -63 5 -163 -5 -405 -31 -662 -71 -90 -14 -178 -24
-195 -22 l-32 3 32 17 c96 53 438 107 813 128 167 9 619 4 685 -8z"/>
<path d="M3750 4496 c-58 -24 -143 -60 -190 -81 -147 -64 -256 -88 -403 -88
-71 0 -132 4 -137 9 -5 5 -14 34 -19 64 l-10 55 4 -53 4 -52 -74 2 c-89 2
-119 -14 -136 -73 -17 -54 1 -158 46 -285 33 -89 82 -194 92 -194 2 0 1 5 -3
12 -4 7 -3 8 5 4 6 -4 8 -12 5 -18 -3 -5 9 -25 27 -45 42 -43 116 -103 104
-84 -6 11 -4 13 11 6 63 -26 95 -29 152 -13 31 9 86 29 122 44 64 29 67 29
265 30 209 0 267 9 353 53 83 43 142 131 163 244 24 130 -16 354 -77 434 -67
88 -144 96 -304 29z m80 -262 c0 -15 7 -49 17 -78 9 -28 18 -58 21 -66 4 -13
5 -13 10 0 7 22 23 30 60 30 29 0 32 -3 32 -30 0 -23 -5 -30 -19 -30 -11 0
-22 -4 -25 -8 -3 -5 8 -6 24 -4 26 4 29 1 36 -32 3 -21 4 -39 1 -42 -5 -5 -49
-19 -177 -54 -59 -17 -66 -17 -77 -3 -11 14 -14 12 -23 -12 -7 -19 -15 -25
-26 -21 -9 3 -24 6 -34 6 -11 0 -22 12 -29 32 -13 35 -7 44 29 51 18 3 15 5
-12 6 -35 1 -38 3 -38 31 0 31 7 34 83 33 15 0 17 6 11 44 -5 38 -4 43 12 43
11 0 25 4 33 9 10 7 4 9 -19 8 -32 -2 -35 0 -41 36 -3 22 -2 41 5 46 20 15 70
29 109 30 33 1 37 -1 37 -25z m-707 -121 c3 -10 10 -41 17 -69 l11 -51 52 4
c38 3 48 2 37 -6 -13 -9 -13 -11 3 -11 9 0 18 -7 19 -15 0 -8 1 -21 2 -27 1
-7 -12 -16 -29 -19 -30 -7 -30 -7 6 -8 35 -1 37 -3 41 -38 3 -21 4 -40 2 -42
-2 -2 -30 -5 -61 -7 -32 -2 -76 -4 -98 -6 -33 -3 -41 1 -52 22 -12 25 -13 25
-13 3 0 -48 -79 -19 -80 29 0 12 10 18 38 21 l37 4 -42 1 c-24 1 -43 6 -43 11
0 5 -3 16 -6 25 -4 11 0 16 12 17 16 0 15 2 -3 9 -13 5 -23 17 -23 26 0 13 8
15 35 12 40 -5 41 -1 20 68 -8 27 -15 52 -15 57 0 4 29 7 64 7 53 0 66 -3 69
-17z"/>
<path d="M204 2245 c-8 -21 4 -197 14 -207 4 -4 21 -10 38 -14 31 -6 31 -5 37
43 6 58 -8 152 -25 169 -24 22 -58 27 -64 9z"/>
<path d="M1625 1494 c-11 -3 -30 -7 -42 -9 -22 -5 -24 -14 -49 -188 l-6 -39
62 34 c87 46 181 136 174 165 -3 12 -12 24 -19 27 -22 8 -99 15 -120 10z"/>
<path d="M2469 1054 c-8 -3 -27 -34 -41 -70 l-26 -66 24 6 c52 13 191 67 223
87 31 19 33 22 17 31 -20 11 -171 20 -197 12z"/>
<path d="M2435 813 c-74 -9 -72 -7 -106 -113 -18 -55 -30 -103 -27 -105 9 -10
170 46 263 90 94 45 131 75 122 98 -10 26 -152 43 -252 30z"/>
<path d="M2192 663 c-17 -32 -25 -96 -11 -88 7 5 10 3 7 -6 -2 -7 -36 -23 -74
-35 -38 -12 -61 -22 -51 -23 21 -1 23 -21 2 -21 -13 0 -12 -4 4 -21 14 -15 31
-21 58 -20 46 1 40 -1 243 61 91 28 182 55 203 60 20 6 37 15 37 20 0 5 -11 4
-26 -2 -20 -9 -30 -9 -45 0 -10 7 -28 12 -39 12 -11 0 -20 5 -20 10 0 12 -33
7 -120 -20 -65 -20 -116 -27 -94 -12 7 4 17 25 23 47 14 51 14 62 -1 47 -15
-15 -54 -16 -63 -2 -9 15 -23 12 -33 -7z"/>
<path d="M2610 4440 c-8 -31 -22 -57 -42 -75 -53 -47 -73 -107 -73 -215 1
-118 40 -244 92 -296 48 -48 261 -145 318 -144 30 1 4 14 -80 41 -84 27 -145
65 -145 90 0 11 -4 19 -10 19 -5 0 -10 7 -10 15 0 8 -11 38 -24 67 -31 68 -44
117 -52 200 -4 37 -10 65 -15 63 -13 -9 -16 20 -2 30 7 6 16 33 19 60 4 28 20
78 35 112 34 72 33 69 15 76 -10 4 -18 -8 -26 -43z"/>
</g>
</svg>
