<?xml version="1.0" standalone="no"?>
<!DOCTYPE svg PUBLIC "-//W3C//DTD SVG 20010904//EN"
 "http://www.w3.org/TR/2001/REC-SVG-20010904/DTD/svg10.dtd">
<svg version="1.0" xmlns="http://www.w3.org/2000/svg"
 width="720.000000pt" height="544.000000pt" viewBox="0 0 720.000000 544.000000"
 preserveAspectRatio="xMidYMid meet">
<metadata>
Created by potrace 1.16, written by Peter Selinger 2001-2019
</metadata>
<g transform="translate(0.000000,544.000000) scale(0.100000,-0.100000)"
fill="#000000" stroke="none">
<path d="M3350 5245 c-282 -50 -547 -236 -663 -466 -26 -52 -47 -102 -47 -112
0 -20 27 -32 93 -42 49 -8 65 -25 23 -25 -14 0 -37 -5 -52 -10 -21 -8 -31 -7
-45 6 -16 14 -21 15 -35 3 -39 -32 -55 -114 -32 -163 9 -20 16 -24 35 -20 56
14 68 -53 25 -143 -24 -52 -27 -68 -25 -153 4 -144 41 -257 116 -357 26 -34
61 -73 77 -87 39 -32 38 -37 -7 -24 -46 13 -107 54 -153 104 -19 21 -27 32
-17 25 23 -18 22 -14 -21 92 -75 180 -75 275 0 414 38 70 39 72 19 83 -19 10
-21 8 -21 -22 0 -18 -11 -51 -25 -73 -53 -86 -72 -140 -79 -220 -12 -142 19
-230 113 -319 59 -54 125 -87 226 -112 54 -13 80 -26 116 -58 25 -23 57 -49
70 -58 12 -10 20 -18 15 -18 -12 0 17 -24 44 -37 23 -11 21 -12 -26 -12 -28
-1 -65 6 -83 15 -20 10 -44 14 -62 10 -37 -7 -38 11 -3 54 15 17 24 33 21 36
-2 3 -19 -12 -36 -33 -23 -28 -31 -48 -31 -76 0 -23 4 -36 10 -32 6 3 7 -1 4
-9 -5 -12 -11 -13 -24 -6 -31 16 -138 10 -260 -14 l-115 -24 -45 43 c-65 63
-259 152 -360 166 -41 6 -82 14 -91 19 -19 10 -114 -10 -184 -38 -27 -11 -74
-30 -102 -41 -70 -26 -114 -61 -190 -150 l-63 -74 0 -83 c0 -112 19 -160 69
-174 109 -32 226 -57 243 -52 27 7 42 50 29 80 -11 24 -31 22 -31 -3 0 -8 -9
-19 -20 -25 -14 -7 -20 -7 -20 0 0 5 4 10 9 10 5 0 13 10 16 23 11 35 77 130
84 120 7 -11 127 -61 159 -68 13 -2 38 -18 55 -35 43 -43 68 -54 165 -75 45
-11 82 -22 82 -26 0 -3 15 -10 33 -14 l32 -8 -45 -7 c-44 -6 -43 -6 30 -13 41
-4 135 -19 208 -34 132 -25 133 -25 275 -10 l142 15 30 36 c25 30 37 36 68 36
21 0 56 9 78 21 22 11 45 19 52 16 6 -2 21 -45 34 -97 33 -137 101 -258 157
-280 15 -6 -1 -9 -50 -9 -52 -1 -73 3 -77 13 -9 22 -75 25 -102 4 -28 -22 -43
-23 -65 -3 -12 11 -49 18 -118 22 l-101 6 -3 36 c-2 22 -8 35 -15 33 -7 -1
-13 4 -13 10 -1 7 -9 -3 -20 -23 -10 -19 -26 -41 -34 -48 -9 -8 -16 -22 -16
-32 0 -15 -7 -19 -32 -19 -41 0 -84 -22 -111 -56 -57 -73 -279 -130 -654 -169
l-63 -7 0 -38 c0 -37 1 -39 38 -43 20 -2 0 -4 -46 -5 -57 -1 -81 1 -77 9 4 6
4 26 1 45 l-7 34 -72 0 c-92 0 -266 16 -382 35 -239 40 -350 121 -268 196 l26
24 -23 -32 c-22 -30 -22 -32 -4 -62 29 -49 138 -87 331 -116 117 -18 389 -21
408 -5 9 8 34 8 79 2 138 -18 438 21 576 75 72 28 134 63 126 70 -3 3 -51 -6
-108 -20 -134 -33 -211 -44 -388 -58 -144 -10 -193 -19 -110 -19 71 0 42 -8
-74 -20 -78 -9 -111 -9 -119 -1 -8 8 6 11 51 11 59 0 80 11 46 24 -9 3 -48 6
-86 6 -80 0 -85 8 -12 16 27 4 56 12 65 20 8 8 23 14 31 14 9 0 18 6 20 12 3
9 9 8 22 -5 10 -9 27 -17 39 -17 86 0 368 69 477 117 64 28 85 50 68 70 -8 11
-7 12 6 7 37 -14 13 8 -28 25 -117 51 -408 84 -684 79 -166 -3 -183 -1 -188
15 -4 14 -17 17 -65 17 -59 0 -59 0 -59 -30 0 -24 -5 -31 -27 -36 -70 -15
-178 -46 -210 -59 -49 -21 -63 -19 -63 8 0 33 -19 47 -63 47 -61 0 -77 -14
-77 -65 l0 -44 -73 1 c-94 1 -137 -19 -137 -63 0 -16 -6 -31 -12 -34 -7 -2
-62 -23 -123 -46 -60 -23 -173 -65 -250 -94 -213 -79 -298 -116 -324 -139 -23
-21 -23 -23 -17 -156 8 -147 2 -133 73 -191 7 -5 13 -31 13 -57 0 -26 20 -288
44 -582 25 -294 48 -573 51 -621 l7 -85 -40 -18 c-23 -10 -51 -29 -63 -42 -20
-21 -21 -30 -15 -95 7 -82 15 -95 71 -120 48 -21 132 -28 1265 -104 1201 -81
3086 -217 3402 -245 64 -5 359 -10 656 -10 l541 0 4 23 4 22 2 -22 c1 -22 5
-23 92 -23 71 0 99 4 123 19 17 10 130 76 251 146 327 191 366 215 376 242 5
13 9 53 9 88 0 61 -2 65 -35 93 l-36 29 25 324 c24 313 31 406 61 852 l14 207
29 29 c26 27 29 37 35 122 4 51 7 124 7 164 0 120 -10 124 -375 150 -121 8
-244 18 -272 21 l-53 5 0 43 c0 76 -10 106 -43 122 -33 17 -146 21 -174 5 -12
-6 -46 -3 -103 9 -47 10 -118 23 -158 30 -66 11 -73 14 -78 38 -3 15 -15 58
-26 96 -23 74 -51 109 -154 189 -27 21 -69 54 -92 72 -24 19 -69 42 -100 51
-82 22 -124 39 -122 49 1 4 -4 12 -12 16 -18 12 17 12 62 0 53 -14 133 -20
122 -9 -5 5 -47 21 -93 35 -93 28 -220 36 -254 15 -19 -11 -19 -11 4 -12 20 0
17 -4 -20 -23 -50 -27 -107 -105 -190 -263 l-22 -42 -95 44 c-57 26 -103 42
-114 38 -22 -7 -24 14 -3 42 8 10 15 29 15 41 0 13 18 40 42 64 l42 41 -27 15
c-38 19 -35 37 6 30 62 -11 264 -14 235 -3 -21 7 -28 17 -28 35 0 125 -133
289 -270 334 -80 26 -184 25 -258 -2 -54 -21 -62 -21 -84 -8 -38 25 -164 31
-228 11 -64 -19 -161 -24 -167 -8 -2 6 24 30 57 53 62 44 170 147 198 189 13
21 20 22 71 16 53 -6 59 -4 91 22 18 16 60 47 93 69 53 35 66 51 109 132 40
76 50 104 55 160 13 159 -62 308 -208 415 -58 42 -68 55 -78 94 -6 25 -9 49
-6 54 8 14 -42 96 -73 120 -17 14 -29 17 -36 10 -5 -5 -19 -10 -31 -9 -17 1
-16 2 5 9 21 7 21 8 5 9 -11 0 -31 -2 -44 -6 -23 -6 -23 -7 -5 -14 15 -6 12
-8 -13 -8 -19 -1 -42 -10 -53 -21 -26 -26 -36 -25 -65 5 -38 37 -32 53 23 60
26 4 64 11 85 17 31 7 44 6 64 -7 23 -16 24 -16 14 3 -16 29 -96 108 -146 142
-87 60 -226 119 -329 140 -116 24 -345 26 -466 5z m251 -244 c48 -5 107 -19
132 -30 25 -12 50 -21 55 -21 17 0 157 -97 189 -131 67 -73 83 -107 83 -179 0
-36 7 -89 15 -116 10 -36 12 -60 5 -89 -5 -22 -10 -94 -11 -160 l-1 -120 -13
63 c-20 91 -81 200 -134 237 -35 25 -52 30 -94 29 -72 -3 -126 -23 -322 -120
-259 -128 -390 -156 -612 -130 -40 4 -83 6 -96 2 -80 -20 -54 -193 65 -429 58
-117 107 -173 187 -216 77 -41 110 -40 212 10 116 56 198 72 325 64 87 -6 113
-4 179 14 95 26 164 61 216 108 67 61 82 101 89 238 4 66 7 107 8 92 1 -16 9
-43 16 -60 39 -84 79 -256 57 -242 -5 2 -11 -4 -14 -15 -3 -12 -11 -18 -19
-15 -8 3 -23 -3 -33 -15 -18 -20 -18 -20 7 -20 14 0 36 12 53 30 19 20 33 27
43 21 8 -5 24 -6 36 -3 16 3 10 -6 -23 -41 -58 -61 -175 -144 -281 -201 -89
-48 -123 -58 -100 -31 7 8 19 15 28 15 26 0 5 12 -28 16 -18 2 -30 -1 -30 -8
0 -6 -14 1 -31 18 l-31 29 21 -42 c11 -22 26 -43 33 -46 54 -22 -209 -88 -352
-89 -81 0 -225 29 -305 63 -54 22 -85 44 -132 92 -66 68 -170 231 -202 317
-30 83 -69 238 -77 303 -7 63 11 199 31 232 7 11 24 54 39 95 15 41 47 106 73
143 103 152 320 306 477 337 57 11 165 11 267 1z m845 -361 c22 -7 54 -22 70
-36 l29 -24 -35 6 c-19 4 -46 13 -58 21 -33 20 -65 10 -97 -33 -43 -56 -56
-106 -56 -215 -1 -122 14 -195 56 -284 40 -84 84 -123 123 -109 14 5 25 14 25
19 -2 14 25 28 37 20 6 -4 8 -11 5 -16 -12 -18 5 -9 41 24 35 30 36 30 20 5
-22 -34 -63 -61 -78 -52 -6 4 -8 3 -4 -4 9 -15 -47 -52 -82 -52 -37 0 -104 48
-136 97 -13 21 -34 67 -47 103 -21 57 -24 84 -24 210 0 138 1 148 29 207 15
34 39 71 52 84 13 12 22 25 20 28 -7 11 69 12 110 1z m154 -110 c24 -24 52
-80 75 -149 26 -81 18 -212 -18 -273 -27 -46 -61 -64 -89 -47 -10 7 -9 9 5 9
9 0 20 0 25 0 4 1 17 17 29 38 68 111 44 289 -52 396 -19 21 -35 40 -35 42 0
12 43 1 60 -16z m-860 -365 c0 -19 4 -35 9 -35 5 0 12 -8 14 -17 23 -84 32
-113 37 -113 3 0 4 16 2 36 -5 41 7 54 51 54 20 0 27 -5 27 -20 0 -11 6 -29
13 -40 10 -17 9 -22 -3 -30 -10 -6 -11 -10 -2 -10 6 0 12 -7 12 -15 0 -8 5
-15 10 -15 20 0 9 -27 -15 -38 -40 -18 -65 -15 -65 8 0 11 -4 20 -9 20 -5 0
-8 -14 -7 -32 1 -31 -1 -32 -69 -55 -76 -26 -100 -24 -92 7 6 22 0 25 -23 10
-10 -6 -11 -10 -2 -10 18 0 15 -37 -4 -44 -9 -3 -27 -6 -40 -6 -20 0 -24 5
-24 30 0 17 -4 30 -10 30 -5 0 -10 9 -10 19 0 11 -4 23 -10 26 -5 3 -10 19
-10 36 0 27 3 29 38 29 54 0 65 10 52 45 -6 16 -8 35 -5 42 3 8 -2 21 -11 30
-8 8 -14 23 -12 31 3 17 98 59 136 61 19 1 22 -4 22 -34z m-684 -165 c1 -14 8
-39 16 -55 9 -17 19 -45 23 -62 3 -18 13 -33 21 -33 10 0 11 6 5 23 -11 31 -3
47 24 47 29 0 41 -15 49 -62 4 -21 11 -38 16 -38 8 0 11 -8 26 -62 4 -13 -4
-18 -33 -23 -21 -4 -50 -11 -65 -17 -41 -15 -168 0 -175 21 -3 9 -16 38 -29
65 -34 71 -32 80 16 73 38 -5 53 4 30 18 -5 3 -10 18 -10 32 0 13 -9 36 -20
50 -11 14 -20 29 -20 34 0 11 30 17 80 16 41 -2 45 -4 46 -27z m1725 -429 c69
-26 166 -112 196 -172 11 -24 24 -64 28 -88 l7 -44 -33 37 c-31 35 -36 38 -73
32 -44 -7 -142 -54 -192 -92 -49 -38 -74 -31 -158 39 -41 34 -75 68 -75 75 -1
6 -7 12 -13 13 -7 0 -21 2 -30 4 -39 7 -26 -63 19 -102 14 -13 32 -23 40 -23
7 0 13 -3 13 -8 0 -4 14 -14 32 -21 18 -8 27 -16 20 -19 -7 -2 -10 -8 -7 -12
15 -24 -18 -16 -56 13 -202 153 -100 408 156 394 39 -3 95 -14 126 -26z
m-2773 -48 c17 -37 15 -66 -5 -102 -27 -47 -37 -47 -107 3 -24 17 -31 18 -66
6 -32 -10 -48 -11 -77 -1 -21 6 -49 11 -63 10 -38 -3 -50 0 -50 12 0 26 219
97 305 98 45 1 51 -2 63 -26z m180 4 c20 -13 66 -34 102 -47 149 -53 219 -133
228 -260 l4 -67 -98 33 c-55 19 -109 34 -121 34 -22 0 -23 4 -23 83 0 75 -3
88 -27 125 -33 48 -70 78 -106 87 -15 4 -30 11 -33 16 -3 5 3 6 12 2 12 -4 15
-3 10 5 -11 19 11 14 52 -11z m2054 -78 c-33 -64 -37 -79 -40 -167 -4 -109 13
-198 54 -271 30 -54 30 -53 -1 -39 -13 6 -22 14 -20 18 2 4 -2 7 -9 7 -8 0
-11 -8 -8 -20 3 -13 1 -18 -5 -14 -20 13 -63 95 -77 149 -8 29 -15 44 -15 33
-1 -32 19 -95 50 -160 16 -33 23 -52 15 -42 -7 9 -17 17 -22 17 -5 0 -50 -30
-99 -66 -91 -67 -176 -114 -204 -114 -9 0 -55 15 -103 34 -48 19 -99 37 -115
40 -51 11 -166 15 -188 6 -16 -6 -27 -4 -39 8 -13 13 -16 13 -16 2 0 -11 -3
-11 -12 -2 -8 8 -15 8 -24 2 -13 -12 -38 33 -49 85 -7 38 -7 167 1 203 13 58
46 151 57 160 21 17 66 1 84 -29 34 -57 123 -72 244 -41 91 24 183 82 307 193
39 36 43 23 5 -15 l-27 -27 27 12 c15 7 27 16 27 21 0 4 8 8 18 8 9 0 23 9 30
20 7 11 21 20 32 20 12 0 32 7 45 16 13 9 28 13 33 10 5 -3 22 -1 38 4 16 4
32 9 36 9 3 1 -10 -31 -30 -70z m-908 -65 c-10 -8 -13 -13 -6 -9 6 3 12 1 12
-4 0 -6 -7 -11 -17 -11 -9 0 -13 -3 -10 -7 4 -3 -1 -11 -10 -18 -9 -7 -17 -21
-18 -31 0 -11 -5 -26 -10 -33 -5 -9 -4 -12 2 -8 6 4 8 -3 5 -18 -2 -14 -8 -23
-12 -20 -9 6 -30 -80 -30 -121 0 -36 47 -218 75 -289 29 -75 38 -105 31 -105
-13 0 -77 144 -96 216 -42 161 -15 375 56 451 19 20 37 33 41 29 4 -3 -2 -13
-13 -22z m-1470 -11 c20 -20 26 -33 21 -51 -9 -38 -53 -89 -82 -96 -27 -7 -70
14 -80 40 -3 7 -10 11 -16 7 -11 -6 12 29 61 95 30 40 60 41 96 5z m997 14
c37 -17 95 -86 118 -140 16 -38 18 -47 6 -47 -8 0 -18 -7 -23 -16 -13 -24
-253 -97 -268 -81 -2 2 -11 31 -20 63 -23 88 -42 116 -102 145 -30 14 -52 30
-51 35 1 5 34 15 73 22 191 35 228 37 267 19z m-662 -113 c21 -15 23 -22 17
-62 -10 -73 -54 -103 -101 -68 -25 18 -26 83 -2 119 20 31 51 35 86 11z m-462
-69 c24 -17 21 -40 -11 -100 -9 -16 -16 -42 -16 -57 0 -24 -4 -28 -27 -28 -52
0 -56 9 -43 96 6 44 13 85 15 92 6 17 56 15 82 -3z m3773 -111 c19 -8 51 -30
70 -48 51 -48 111 -86 138 -86 17 0 27 -9 37 -34 8 -19 19 -37 25 -41 5 -3 10
-15 10 -26 0 -14 -7 -19 -25 -19 -19 0 -25 5 -25 21 0 11 4 17 10 14 6 -4 7 1
3 11 -4 11 -8 13 -11 6 -2 -7 -11 -12 -19 -12 -9 0 -13 6 -9 15 3 8 1 15 -3
15 -5 0 -12 -7 -15 -16 -5 -13 -14 -15 -44 -9 -44 8 -86 47 -69 64 18 18 3 21
-44 8 -38 -11 -44 -16 -41 -37 6 -40 62 -70 62 -33 0 14 3 13 16 -5 8 -12 21
-22 28 -22 21 0 66 -40 66 -58 0 -9 5 -24 10 -32 8 -12 14 -10 38 13 41 39 53
35 46 -15 -12 -90 -10 -88 -47 -76 -17 6 -39 17 -48 24 -8 8 -20 14 -26 14 -6
0 -22 9 -37 21 -14 11 -29 18 -33 16 -5 -3 -7 18 -5 46 2 37 0 48 -7 37 -8
-12 -14 -11 -35 9 -14 13 -39 25 -57 26 -46 4 -56 20 -20 33 51 18 36 23 -46
16 -74 -6 -79 -5 -101 19 -24 26 -34 99 -17 126 25 41 143 49 225 15z m-761
-250 c47 -29 96 -50 133 -58 40 -8 63 -19 74 -34 8 -12 19 -20 23 -18 4 3 8
-1 8 -9 0 -9 -20 -18 -56 -25 -31 -6 -71 -15 -88 -20 -32 -8 -33 -8 -33 25 0
44 -23 57 -98 53 l-57 -3 -5 -50 c-3 -31 -10 -50 -17 -49 -7 1 -42 2 -78 3
l-65 1 33 43 c17 23 49 75 70 115 46 88 55 89 156 26z m752 0 c9 -5 19 -29 22
-57 l7 -48 -33 5 c-19 3 -42 8 -53 12 -13 4 -10 -3 12 -23 30 -28 54 -71 54
-98 0 -8 -9 -19 -21 -26 -18 -9 -25 -7 -49 16 -16 15 -31 42 -34 60 -4 18 -15
40 -26 50 -29 26 -25 52 14 91 35 35 69 41 107 18z m-3382 -127 c72 -34 1 -72
-164 -87 -102 -10 -133 -9 -212 5 -90 16 -127 35 -102 51 7 4 9 3 6 -3 -3 -5
9 -14 27 -20 38 -12 119 12 94 28 -9 6 -5 9 14 9 15 0 39 5 55 11 72 30 226
33 282 6z m-1448 -221 c-6 -7 -39 -21 -74 -31 -90 -25 -287 -121 -287 -140 0
-9 11 -20 26 -25 20 -8 455 -45 603 -52 l36 -1 -32 -4 c-18 -2 -33 -8 -33 -12
0 -11 70 -19 275 -31 94 -6 238 -15 320 -21 83 -5 191 -12 240 -14 l90 -4 -70
9 c-173 21 -263 29 -445 42 -107 7 -178 14 -157 16 22 2 170 -6 330 -17 161
-11 382 -25 492 -31 170 -9 340 -23 420 -34 11 -2 -6 -4 -37 -5 -32 0 -58 -5
-58 -11 0 -5 9 -10 20 -10 10 0 178 -11 372 -25 667 -46 813 -56 1003 -65 105
-5 233 -12 285 -16 99 -7 118 5 27 18 -79 10 132 0 448 -23 287 -20 396 -33
200 -23 -221 12 -260 12 -235 5 32 -10 724 -61 819 -61 59 0 46 11 -26 21 -99
13 273 -1 552 -22 454 -33 516 -27 643 59 201 137 454 300 424 275 -41 -36
-44 -63 -3 -34 18 13 36 18 47 14 13 -5 15 -3 9 7 -5 9 -4 11 3 6 17 -10 182
102 182 123 0 17 -58 30 -160 37 -105 6 -209 21 -160 23 14 0 85 -4 159 -9
181 -12 223 -40 144 -95 -21 -14 -87 -61 -148 -103 -283 -200 -472 -325 -514
-341 -35 -14 -46 -24 -48 -42 -1 -13 -5 -68 -8 -121 l-7 -98 -38 0 c-31 0 -37
3 -35 18 2 9 6 61 9 115 l5 97 -112 0 c-61 0 -211 7 -332 15 -374 25 -519 35
-855 55 -179 11 -431 27 -560 35 -255 16 -1345 88 -1580 105 -80 5 -309 21
-510 35 -201 14 -457 32 -570 40 -525 38 -817 56 -1085 66 -159 5 -301 11
-315 12 -25 2 -25 2 -25 -85 0 -48 5 -92 11 -98 6 -6 51 -15 100 -20 136 -14
347 -40 364 -45 20 -5 -211 4 -385 16 -162 10 -210 21 -229 52 -20 33 -30 251
-12 269 16 17 56 34 226 98 74 28 162 61 195 74 72 29 81 30 66 12z m4575 -16
c36 -15 93 -74 82 -85 -8 -9 -154 16 -187 32 -44 22 -53 55 -19 70 27 13 68 7
124 -17z m-725 -15 c-41 -47 -42 -91 -3 -128 41 -40 165 -96 266 -122 206 -52
322 -61 772 -57 339 3 643 81 712 182 30 45 28 73 -9 115 -17 19 -27 35 -22
35 6 0 18 -9 28 -20 10 -11 26 -22 36 -25 11 -4 19 -13 19 -22 0 -9 16 -33 35
-54 40 -44 48 -97 18 -120 -15 -11 -16 -11 -5 1 19 21 15 39 -17 75 l-28 32
-27 -33 c-69 -87 -268 -150 -593 -189 -70 -8 -134 -15 -141 -15 -9 0 -12 -13
-10 -42 3 -42 4 -43 43 -49 22 -3 -23 -6 -100 -6 -77 0 -118 2 -92 4 l48 4 -2
45 -3 44 -67 0 c-95 0 -305 18 -422 36 -257 39 -426 106 -484 193 -29 43 -24
64 27 114 49 47 62 48 21 2z m-767 -181 c23 -9 20 -27 -12 -57 -28 -27 -31
-27 -107 -20 -44 5 -80 13 -82 20 -2 6 9 23 24 37 24 23 37 26 95 26 36 0 73
-3 82 -6z m-1936 -426 c63 -31 89 -81 69 -130 -8 -19 -40 -57 -72 -85 l-57
-52 43 -11 c46 -13 96 -58 105 -96 4 -14 14 -24 24 -24 13 0 25 20 44 73 15
39 46 116 69 170 37 86 45 97 63 93 11 -3 29 1 40 9 10 8 27 15 37 15 9 0 17
5 17 10 0 6 5 10 10 10 6 0 10 -9 10 -20 0 -11 4 -28 9 -38 6 -9 18 -71 28
-137 17 -110 20 -120 41 -123 15 -2 22 -11 23 -25 0 -12 9 4 19 35 35 112 105
199 194 239 45 20 91 25 101 9 3 -5 12 -7 19 -4 22 8 56 -44 56 -86 0 -53 -18
-100 -36 -93 -8 3 -14 0 -14 -6 0 -6 -4 -11 -9 -11 -18 0 -41 32 -41 56 0 36
-32 31 -75 -11 -47 -47 -76 -107 -82 -169 -4 -43 -1 -56 18 -80 19 -24 27 -28
60 -23 20 3 57 18 81 34 57 39 98 61 81 42 -7 -7 -13 -21 -13 -31 0 -16 2 -16
30 0 16 9 30 21 30 26 0 24 53 312 61 333 7 20 12 23 23 14 10 -9 15 -8 20 4
4 11 13 14 26 10 11 -4 20 -2 20 4 0 19 15 12 26 -14 9 -18 8 -40 -2 -91 -8
-37 -13 -69 -11 -71 2 -2 42 30 88 70 99 86 142 117 161 117 8 0 23 9 33 20
10 11 22 20 28 20 5 0 -5 -16 -23 -36 -17 -20 -29 -39 -25 -42 3 -3 11 0 17 6
17 17 33 15 18 -3 -6 -8 -9 -19 -5 -25 9 -14 -13 -39 -90 -103 -33 -27 -79
-67 -103 -89 l-43 -39 97 -120 c53 -66 99 -118 101 -115 2 2 -1 13 -8 23 -13
22 -4 97 12 88 5 -4 9 -1 9 5 0 7 6 10 14 7 7 -3 18 -1 23 4 5 5 14 -5 22 -26
8 -23 20 -37 37 -41 58 -15 149 22 149 61 0 12 -31 34 -100 70 -101 52 -145
94 -145 137 0 103 222 224 318 174 36 -19 52 -43 52 -81 0 -29 -28 -90 -37
-81 -3 3 -12 -2 -19 -12 -8 -10 -13 -12 -14 -4 0 6 -7 12 -15 12 -10 0 -15 10
-15 30 0 37 -18 39 -80 8 -67 -34 -61 -52 35 -103 44 -24 99 -60 123 -82 34
-32 42 -46 42 -75 0 -64 -71 -125 -195 -168 -56 -19 -115 -27 -102 -13 7 6
-66 43 -85 43 -5 0 12 -28 38 -62 50 -65 46 -67 -24 -10 -45 36 -69 37 -37 2
24 -26 11 -26 -26 1 -24 17 -39 20 -77 16 -42 -5 -44 -5 -19 5 15 7 27 15 27
18 0 4 -24 31 -53 61 -29 30 -73 77 -98 106 l-46 52 -17 -75 c-9 -41 -16 -83
-16 -94 0 -11 -4 -20 -10 -20 -5 0 -7 7 -4 15 4 8 2 15 -3 15 -12 0 -33 -44
-34 -73 -1 -12 -5 -4 -8 18 -5 31 -10 40 -25 38 -16 -1 -18 5 -14 68 l4 69
-71 -70 c-39 -38 -75 -70 -82 -70 -6 0 -16 -7 -23 -15 -7 -8 -23 -15 -37 -15
-31 0 -112 41 -140 72 -26 27 -53 88 -53 118 0 23 -12 26 -28 7 -8 -9 -7 -32
3 -82 18 -83 18 -95 4 -75 -8 11 -9 1 -6 -40 5 -53 5 -54 -8 -25 -8 17 -14 35
-15 42 0 7 -6 10 -14 7 -7 -3 -16 3 -20 13 -6 14 -9 15 -16 4 -8 -14 -16 7
-38 99 -9 39 -9 39 -109 19 l-51 -10 -23 -64 c-14 -40 -27 -61 -34 -58 -7 2
-19 -9 -26 -26 -18 -39 -25 -39 -33 1 -6 30 -7 31 -21 12 -19 -25 -19 -10 1
56 22 75 4 84 -56 25 -25 -24 -75 -63 -113 -88 -37 -24 -65 -46 -62 -49 3 -3
-20 -18 -52 -34 -76 -38 -77 -38 -69 -25 4 6 1 11 -8 11 -9 0 -18 -12 -22 -27
-9 -44 -12 -50 -13 -25 -1 12 -5 22 -10 22 -12 0 -21 -37 -21 -94 0 -27 -3
-46 -7 -42 -8 8 -9 14 -12 79 -1 41 -17 50 -24 15 l-4 -23 -8 23 c-8 24 -15
24 -72 6 -17 -5 -17 -5 1 10 20 16 13 41 -10 32 -8 -3 -14 -1 -14 5 0 5 7 12
15 15 21 8 19 25 -2 18 -25 -8 14 25 56 48 31 17 31 18 31 96 0 44 3 94 6 111
5 24 3 31 -10 31 -15 0 -21 16 -18 53 1 9 -4 17 -11 17 -6 0 2 10 20 21 32 20
43 51 56 157 3 29 1 32 -17 26 -12 -4 -33 -13 -48 -20 -32 -16 -83 -20 -58 -4
12 7 12 12 2 22 -10 10 -23 9 -65 -6 -84 -30 -86 -29 -15 8 61 32 102 65 64
50 -9 -3 -16 -1 -16 5 0 22 157 89 261 111 74 15 193 5 247 -22z m-1424 -203
c9 -94 20 -231 26 -305 5 -74 16 -209 24 -300 8 -91 18 -214 21 -275 3 -60 8
-121 11 -135 4 -16 2 -21 -4 -15 -15 16 -28 156 -82 845 -14 192 -23 366 -17
360 3 -3 13 -82 21 -175z m3896 147 c0 -5 6 -53 14 -108 8 -54 18 -122 21
-151 6 -43 10 -52 30 -57 16 -4 22 -11 19 -21 -4 -8 -2 -15 4 -15 5 0 17 21
27 48 38 100 126 195 222 239 45 21 66 24 115 21 53 -4 64 -8 84 -34 13 -16
24 -38 24 -49 -1 -33 -38 -107 -51 -99 -6 3 -15 1 -19 -6 -12 -19 -40 12 -40
44 0 73 -149 -23 -200 -130 -25 -50 -26 -121 -3 -146 24 -27 80 -23 127 10 57
39 57 52 2 52 -34 0 -46 4 -47 15 -5 70 -5 70 37 76 21 4 78 10 126 14 l87 7
-3 -33 c-2 -19 -18 -72 -34 -119 -17 -47 -38 -112 -48 -145 -13 -46 -19 -55
-25 -40 -6 18 -9 16 -22 -15 -8 -19 -17 -42 -20 -50 -3 -8 -6 4 -6 28 -1 23
-5 42 -11 42 -5 0 -10 -7 -10 -16 0 -8 -4 -13 -9 -10 -4 3 -5 25 -1 48 5 24 7
44 6 46 -2 1 -24 -9 -50 -23 -57 -30 -74 -31 -131 -4 -59 28 -103 81 -111 136
-5 36 -10 43 -29 43 -22 0 -22 0 -10 -77 13 -80 11 -98 -6 -73 -8 11 -9 -2 -5
-43 7 -63 -7 -71 -18 -11 -4 21 -12 34 -19 31 -7 -2 -17 5 -24 17 -7 12 -12
15 -13 9 0 -7 -4 -13 -9 -13 -5 0 -12 21 -16 48 -14 100 -10 95 -79 88 -105
-12 -105 -12 -142 -90 -19 -39 -34 -63 -34 -53 0 31 -19 18 -45 -30 -23 -42
-25 -44 -21 -18 5 33 -11 70 -21 48 -2 -7 -8 -13 -13 -13 -5 0 2 26 15 57 22
54 24 80 6 69 -4 -3 -8 8 -8 24 0 17 5 30 10 30 5 0 4 6 -2 14 -13 15 4 26 38
26 16 0 61 80 139 243 2 5 -11 6 -29 3 -19 -3 -68 -10 -109 -16 l-75 -12 -17
-57 c-8 -31 -33 -128 -54 -216 -29 -119 -40 -152 -44 -130 l-5 30 -22 -36
c-12 -19 -27 -46 -33 -60 -8 -19 -9 -14 -4 27 3 33 2 54 -5 59 -6 3 -11 1 -11
-4 0 -6 -4 -11 -10 -11 -13 0 -5 60 30 235 16 77 26 142 24 144 -2 3 -33 -1
-68 -7 -86 -16 -102 -16 -87 2 7 8 8 17 3 20 -12 7 -8 64 4 76 5 5 45 14 89
20 44 6 91 16 105 22 32 13 263 20 293 9 l22 -9 -24 -9 c-22 -9 -23 -10 -5
-17 18 -7 18 -8 1 -21 -16 -11 -15 -13 13 -17 27 -4 33 0 51 32 17 29 27 37
52 37 47 2 97 14 97 24 0 5 5 9 10 9 6 0 10 -4 10 -8z m1105 -106 c10 -9 25
-14 35 -11 10 3 21 1 24 -4 4 -5 -13 -13 -38 -16 -25 -4 -53 -13 -63 -21 -17
-12 -16 -13 7 -14 55 -1 -5 -18 -84 -24 -160 -13 -174 -16 -179 -39 -3 -12 -9
-33 -13 -46 -7 -23 -6 -23 62 -21 38 2 82 2 98 1 28 -1 29 -2 10 -16 -19 -14
-18 -14 4 -15 33 0 27 -16 -10 -25 -28 -6 -30 -8 -13 -14 18 -7 17 -8 -5 -14
-14 -3 -62 -9 -107 -13 l-81 -7 -13 -46 c-7 -25 -12 -48 -11 -49 1 -2 71 -3
155 -3 86 1 159 -3 167 -9 12 -8 9 -10 -13 -10 -16 0 -26 -4 -22 -10 3 -5 39
-11 78 -11 72 -2 65 -4 -51 -15 -60 -5 -79 -24 -25 -24 15 0 24 -2 22 -4 -2
-2 -76 -10 -164 -16 -88 -7 -172 -18 -187 -25 -20 -10 -28 -10 -31 -1 -3 6 -9
0 -15 -14 -8 -18 -11 -20 -11 -7 -1 13 -10 17 -37 17 -27 0 -35 4 -31 14 3 8
3 17 -1 21 -4 3 -7 19 -8 35 -1 22 3 30 19 32 27 4 65 108 44 120 -8 4 -13 17
-11 30 1 13 3 28 3 35 1 6 10 14 20 18 18 5 31 29 46 82 5 17 1 22 -16 25 -23
3 -35 43 -17 54 4 3 8 13 8 24 0 29 55 44 185 51 177 9 250 5 270 -15z m-2646
-561 c33 -10 69 -31 89 -51 l34 -34 -19 -32 c-13 -23 -44 -46 -102 -77 l-84
-44 67 -17 c106 -26 154 -74 134 -131 -12 -36 -93 -108 -155 -139 -25 -13 -87
-38 -137 -57 -77 -29 -83 -37 -11 -16 11 3 17 3 14 -1 -6 -6 -206 -66 -219
-66 -3 0 2 5 10 10 12 8 12 10 -5 9 -11 0 -38 -6 -60 -13 -34 -10 -41 -17 -51
-51 l-12 -40 -1 37 c-1 28 -5 36 -15 32 -17 -7 -31 -41 -45 -114 -10 -54 -10
-53 -5 23 5 71 3 78 -13 75 -9 -2 -20 -14 -24 -28 l-6 -25 -8 27 c-7 29 -12
29 -77 11 -10 -2 -18 -1 -18 4 0 14 45 29 70 23 32 -8 85 2 190 35 47 15 99
31 115 35 114 31 183 53 240 76 69 28 85 45 19 20 -22 -8 -48 -17 -59 -22 -37
-14 -50 -14 -86 1 -20 8 -40 11 -43 7 -4 -3 -12 0 -17 8 -8 11 -12 12 -16 2
-2 -6 -8 -10 -12 -8 -4 3 -41 -4 -82 -14 -91 -24 -96 -24 -77 -2 20 22 36 103
17 85 -7 -7 -34 -13 -60 -13 -47 0 -47 0 -51 -37 -3 -21 -1 -41 5 -44 15 -10
0 -26 -30 -33 -87 -21 -106 -28 -94 -35 22 -14 1 -41 -33 -40 -28 0 -29 1 -8
9 24 10 30 30 10 30 -22 1 23 22 71 35 42 10 46 14 54 51 5 21 18 70 29 107
l19 69 -22 19 c-18 15 -20 21 -9 34 10 12 10 15 0 15 -20 0 -2 14 32 26 27 9
35 21 60 88 l28 79 -37 -7 c-69 -11 -118 -16 -105 -10 19 9 14 24 -10 34 -15
6 -17 9 -7 9 9 1 24 10 35 22 18 20 18 20 -11 13 -25 -5 -28 -4 -18 7 7 7 59
23 115 35 90 20 125 23 273 20 126 -2 184 -8 224 -21z m793 -3 c2 -5 37 -5 78
-1 41 4 111 8 155 7 l80 0 -50 -13 c-48 -13 -49 -13 -15 -14 l35 -2 -30 -14
-30 -14 30 4 c101 13 360 26 392 20 36 -7 36 -8 13 -15 -24 -7 -24 -8 10 -16
l35 -8 -55 -17 c-44 -14 -49 -18 -26 -18 19 -1 26 -5 20 -10 -5 -5 -64 -15
-132 -22 l-124 -13 -19 -37 c-10 -21 -19 -41 -19 -45 0 -4 35 -3 79 0 43 4 91
4 107 0 l29 -8 -25 -7 -25 -6 25 -11 c14 -6 20 -11 13 -11 -6 -1 -24 -6 -40
-12 l-28 -12 25 -7 c18 -4 4 -8 -50 -14 -157 -14 -156 -14 -169 -54 -7 -21
-15 -42 -17 -49 -4 -8 45 -10 193 -8 109 2 181 1 161 -1 -71 -9 -36 -32 52
-35 37 -2 33 -3 -25 -9 -38 -4 -85 -11 -104 -15 -25 -6 -32 -5 -27 3 4 7 16
12 27 12 11 0 17 5 14 10 -3 6 -15 10 -26 10 -12 0 -17 4 -13 11 6 10 -94 8
-253 -5 -19 -1 -20 2 -9 47 6 26 5 27 -29 27 -22 0 -34 4 -30 10 3 6 0 10 -7
10 -14 0 -38 -53 -38 -83 0 -9 -13 -23 -28 -31 -24 -12 -28 -20 -24 -45 3 -22
10 -31 23 -31 11 0 19 -4 19 -9 0 -6 -12 -9 -27 -7 -16 1 -27 8 -25 14 1 7 -5
15 -13 18 -12 5 -13 9 -3 21 9 11 9 16 -1 23 -9 5 -3 11 20 19 29 9 37 19 52
64 21 64 21 67 4 67 -12 0 -15 29 -7 50 1 3 2 8 1 12 0 3 12 11 27 16 20 7 33
22 45 52 15 40 15 42 -2 47 -13 3 -17 11 -13 30 4 23 2 25 -24 20 -16 -4 -59
-9 -95 -13 l-67 -6 -61 -162 c-34 -88 -71 -187 -84 -219 -34 -88 -32 -50 2 50
19 55 27 91 21 97 -5 5 -29 10 -54 11 l-44 1 -22 -64 c-15 -41 -19 -66 -13
-71 20 -12 22 -47 5 -96 l-17 -50 340 -1 c187 -1 353 -5 369 -10 19 -7 -84 -9
-300 -8 -461 3 -731 -15 -974 -66 -226 -48 -190 -51 113 -10 312 41 681 68
692 50 3 -5 100 -7 233 -5 l227 4 -165 -9 c-257 -15 -493 -39 -630 -66 -144
-28 -137 -27 -125 -15 20 18 229 58 390 75 22 2 -25 2 -105 0 -157 -4 -408
-30 -615 -64 -71 -12 -161 -23 -200 -26 -65 -5 -69 -4 -50 11 55 44 376 104
648 121 56 4 111 10 122 14 29 11 62 140 36 140 -5 0 -12 -13 -16 -30 -6 -28
-25 -52 -25 -32 0 10 100 312 122 369 6 18 10 35 7 37 -3 3 -34 1 -70 -4 -147
-22 -136 -22 -116 -6 17 13 17 15 2 24 -16 8 -16 11 -1 35 13 19 14 26 4 30
-24 9 35 24 142 37 58 7 110 16 115 20 6 5 21 10 35 13 14 2 28 5 32 6 3 0 8
-3 10 -7z m1088 -20 c19 -9 37 -26 39 -37 2 -11 8 -23 14 -27 17 -11 -28 -99
-47 -92 -9 3 -17 -3 -22 -18 l-7 -23 -9 24 c-7 19 -11 21 -22 11 -12 -9 -15
-6 -18 22 -3 32 -4 33 -46 31 -49 -2 -147 -51 -147 -73 0 -10 41 -30 120 -61
240 -92 290 -136 239 -214 -9 -14 -12 -25 -8 -25 5 0 -6 -8 -25 -17 -45 -22
-29 -26 65 -14 71 9 95 8 83 -3 -2 -2 -50 -8 -105 -13 -90 -9 -117 -16 -238
-68 -75 -32 -134 -60 -131 -63 3 -3 -20 -16 -50 -28 -83 -34 -99 -38 -90 -24
10 17 -15 8 -154 -51 -63 -27 -116 -47 -119 -44 -3 2 30 21 73 42 43 20 74 38
69 40 -6 2 -82 -21 -169 -52 -150 -52 -199 -66 -165 -46 57 33 344 125 365
117 10 -4 14 -2 9 5 -4 8 1 9 15 4 23 -7 235 64 346 115 l60 28 -53 1 c-30 1
-63 8 -77 17 -22 14 -28 13 -92 -14 -37 -16 -124 -53 -193 -82 -69 -29 -138
-63 -155 -74 -37 -27 -113 -61 -120 -54 -6 5 216 117 335 168 112 48 312 146
333 162 39 30 8 51 -163 112 -143 51 -191 92 -176 150 14 55 110 123 229 162
87 28 159 30 207 6z m-1474 -19 c-4 -9 -1 -20 6 -24 9 -6 1 -37 -29 -126 -23
-65 -53 -154 -68 -198 -48 -137 -76 -205 -69 -164 3 19 16 67 29 105 13 39 20
73 15 79 -11 14 -60 18 -60 5 0 -6 -5 -10 -11 -10 -5 0 -7 5 -4 10 3 6 -1 10
-10 10 -9 0 -14 -4 -10 -9 3 -5 -2 -16 -10 -25 -8 -8 -22 -46 -31 -85 -9 -38
-22 -78 -30 -88 -23 -29 -17 -6 87 332 40 131 68 193 79 176 6 -11 15 -11 46
-1 22 7 46 16 54 21 22 11 23 11 16 -8z m-2108 -49 c17 -5 22 -14 22 -40 0
-44 -12 -48 -105 -39 l-75 7 0 39 0 39 68 0 c37 0 77 -3 90 -6z m-240 -99 c15
-5 16 -71 1 -81 -17 -10 -97 -6 -135 6 -29 10 -34 16 -34 44 0 18 3 36 7 40 7
6 133 -1 161 -9z m251 -29 c21 -25 9 -69 -19 -77 -24 -6 -24 -7 -5 -14 27 -11
35 -24 35 -58 0 -36 -15 -41 -102 -30 l-73 8 -3 37 c-3 35 -2 37 30 40 l33 3
-32 18 c-28 15 -33 23 -33 52 l0 35 79 0 c56 0 82 -4 90 -14z m4675 -142 c46
-7 46 -7 46 -45 l0 -39 -64 0 c-35 0 -78 3 -95 6 -27 6 -31 11 -31 39 0 17 3
35 7 38 8 9 76 9 137 1z m1 -122 c38 -7 40 -9 40 -42 0 -31 -3 -35 -30 -38
-16 -2 -58 -1 -92 3 l-63 7 0 39 0 39 53 -1 c28 0 70 -3 92 -7z m-5416 -88 c1
5 9 2 19 -7 27 -24 85 -35 282 -51 102 -9 199 -20 215 -25 33 -11 257 -32 610
-57 301 -21 409 -31 360 -33 -22 0 -101 3 -175 9 -536 38 -1197 73 -1212 64
-4 -3 -8 -20 -8 -37 0 -18 -4 -27 -8 -21 -4 6 -15 13 -24 17 -9 3 -18 18 -20
32 -2 21 -11 30 -40 40 -43 14 -48 9 -48 -58 0 -68 -18 -29 -21 44 -2 72 3 86
35 98 15 6 23 4 28 -8 4 -9 7 -12 7 -7z m6671 -4 c11 -21 24 -13 -265 -170
-93 -51 -220 -121 -282 -156 -62 -34 -139 -72 -172 -85 -38 -13 -63 -29 -66
-40 -4 -11 -12 -19 -18 -19 -9 0 -9 -2 0 -8 8 -5 9 -13 3 -22 -7 -11 -10 -12
-10 -2 0 7 -4 10 -10 7 -6 -4 -10 6 -10 22 l0 29 -307 18 c-666 41 -1155 74
-1098 75 33 0 164 -6 291 -14 722 -45 940 -51 1132 -29 30 3 42 1 37 -6 -8
-13 28 -5 99 21 73 27 238 128 230 141 -4 6 -3 8 4 4 5 -3 12 -2 14 2 9 22
200 124 241 128 28 4 123 50 162 80 19 14 19 16 3 28 -22 16 -23 27 -3 20 9
-4 20 -15 25 -24z m-1475 -10 c22 -8 26 -15 23 -42 -3 -32 -5 -33 -53 -36 -79
-4 -129 9 -133 37 -7 44 3 51 72 51 36 0 77 -4 91 -10z m253 -22 c7 -7 12 -24
12 -39 0 -36 -23 -43 -111 -34 -62 6 -71 10 -79 31 -18 46 -5 54 84 54 50 0
87 -5 94 -12z"/>
<path d="M207 2253 c-9 -8 -8 -113 1 -172 6 -40 10 -46 41 -53 18 -5 35 -7 38
-4 7 7 4 162 -3 192 -4 14 -18 27 -36 33 -37 13 -33 13 -41 4z"/>
<path d="M1625 1493 c-11 -2 -29 -6 -41 -8 -21 -5 -25 -21 -50 -184 l-6 -44
62 34 c91 50 170 124 170 159 0 26 -4 29 -50 39 -28 6 -54 10 -58 10 -4 -1
-16 -3 -27 -6z"/>
<path d="M2469 1054 c-8 -3 -27 -34 -41 -70 l-26 -66 24 6 c52 13 191 67 223
87 31 19 33 22 17 31 -20 11 -171 20 -197 12z"/>
<path d="M2450 815 c-8 -2 -32 -6 -52 -10 -37 -6 -37 -6 -69 -105 -18 -55 -31
-102 -28 -104 9 -10 167 44 262 88 101 47 147 85 124 104 -24 21 -182 38 -237
27z"/>
<path d="M2692 2798 c-32 -7 -45 -16 -53 -34 -13 -35 -12 -42 9 -47 13 -3 10
-7 -13 -18 -16 -7 -51 -28 -76 -46 -26 -18 -51 -33 -58 -33 -6 0 -11 -4 -11
-9 0 -5 -15 -11 -32 -14 -56 -8 -91 -18 -107 -28 -13 -8 -11 -9 6 -4 13 4 35
8 50 11 91 15 220 50 230 63 7 8 16 12 19 8 9 -8 73 29 97 55 27 31 22 58 -10
59 l-28 1 25 7 c27 7 34 35 10 37 -8 1 -34 -2 -58 -8z"/>
</g>
</svg>
