<?xml version="1.0" standalone="no"?>
<!DOCTYPE svg PUBLIC "-//W3C//DTD SVG 20010904//EN"
 "http://www.w3.org/TR/2001/REC-SVG-20010904/DTD/svg10.dtd">
<svg version="1.0" xmlns="http://www.w3.org/2000/svg"
 width="720.000000pt" height="544.000000pt" viewBox="0 0 720.000000 544.000000"
 preserveAspectRatio="xMidYMid meet">
<metadata>
Created by potrace 1.16, written by Peter Selinger 2001-2019
</metadata>
<g transform="translate(0.000000,544.000000) scale(0.100000,-0.100000)"
fill="#000000" stroke="none">
<path d="M3513 5260 c-88 -11 -228 -50 -308 -85 -114 -50 -250 -150 -325 -238
-76 -89 -128 -177 -134 -227 -2 -17 -14 -42 -26 -55 -12 -13 -28 -50 -36 -81
-11 -48 -11 -61 1 -84 26 -50 9 -124 -46 -209 -60 -93 -76 -157 -62 -257 24
-167 132 -296 288 -343 125 -38 133 -52 71 -124 -29 -32 -46 -61 -46 -77 0
-22 3 -19 19 15 10 22 32 53 49 69 l31 29 78 -59 c43 -32 80 -60 82 -61 12 -8
-15 -17 -50 -17 -39 1 -40 0 -34 -25 5 -24 5 -24 -14 6 -24 38 -49 53 -91 53
-23 0 -33 -6 -42 -25 -11 -26 -21 -28 -93 -25 -22 1 -87 -6 -144 -14 -134 -20
-128 -21 -136 12 -3 15 -36 67 -73 114 -152 196 -153 197 -146 254 8 70 -13
117 -65 144 -33 16 -48 34 -75 88 -19 37 -46 78 -61 92 -15 14 -59 67 -97 118
-101 135 -179 212 -215 212 -37 0 -67 -22 -83 -60 -20 -49 3 -103 73 -173 32
-33 56 -61 54 -64 -3 -2 -29 -11 -58 -18 -29 -8 -57 -21 -62 -30 -5 -9 -28
-25 -52 -35 -29 -12 -53 -34 -74 -64 -18 -25 -36 -46 -42 -46 -5 0 -21 -11
-34 -25 -37 -36 -35 -103 6 -167 17 -26 35 -48 39 -48 5 0 31 -22 57 -48 26
-27 60 -52 74 -55 14 -4 41 -18 60 -32 19 -14 57 -36 84 -49 28 -14 47 -25 44
-25 -18 -2 -96 32 -135 59 -25 16 -48 30 -51 30 -3 0 17 -24 46 -54 28 -31 52
-65 52 -78 1 -17 3 -18 6 -5 6 23 9 22 56 -15 61 -49 86 -59 147 -60 137 -4
266 121 278 269 3 29 8 55 12 58 4 3 16 -8 25 -23 10 -15 54 -71 97 -125 89
-110 108 -147 108 -209 -1 -51 -33 -144 -48 -141 -7 2 -9 -4 -5 -15 6 -15 5
-15 -10 -3 -9 7 -17 19 -17 26 0 7 -7 18 -15 25 -8 6 -14 15 -13 18 4 33 -4
62 -18 62 -18 0 -72 56 -85 88 -11 28 -38 39 -51 21 -7 -10 -8 -5 -3 15 l6 29
-42 -37 c-42 -39 -109 -74 -157 -82 -15 -3 -28 -7 -30 -9 -2 -2 9 -21 25 -43
15 -22 35 -50 43 -62 8 -13 25 -32 38 -44 12 -12 35 -34 50 -51 15 -16 43 -46
62 -67 l36 -36 -29 -6 c-68 -14 -122 -6 -168 22 -49 32 -152 141 -176 187 -9
17 -29 50 -46 74 -17 25 -39 61 -48 80 -10 20 -18 30 -19 22 0 -23 88 -183
143 -256 42 -56 74 -84 167 -146 116 -78 149 -92 251 -104 47 -6 57 -4 62 10
6 14 12 13 52 -10 72 -43 153 -49 335 -25 149 19 155 21 177 49 19 24 33 31
81 37 31 3 69 13 84 20 15 8 31 14 35 15 4 0 14 -38 24 -83 31 -153 87 -264
149 -295 l35 -18 -69 -3 c-51 -2 -71 1 -80 12 -17 22 -69 23 -109 1 -34 -18
-37 -18 -55 -2 -14 13 -45 19 -116 24 -53 3 -99 10 -102 15 -3 4 -6 21 -6 36
-1 36 -25 38 -43 3 -7 -14 -22 -34 -33 -44 -11 -11 -18 -25 -15 -33 4 -10 -3
-14 -25 -14 -46 0 -81 -17 -123 -59 -72 -72 -278 -127 -606 -162 l-113 -12 0
-38 c0 -37 1 -38 43 -42 23 -2 3 -4 -45 -5 -78 -2 -86 0 -81 16 2 10 0 29 -6
43 -9 26 -10 26 -158 33 -143 6 -276 22 -376 45 -27 6 -53 9 -58 6 -5 -4 -9
-2 -9 3 0 5 -21 15 -46 22 -56 16 -114 68 -114 101 0 31 24 65 50 72 24 6 26
-5 5 -23 -22 -18 -18 -60 7 -87 30 -32 180 -78 316 -97 128 -18 363 -21 393
-6 12 7 42 8 84 2 137 -18 437 21 575 75 71 28 134 63 126 70 -2 2 -51 -7
-108 -21 -123 -30 -207 -42 -393 -56 -142 -11 -187 -20 -100 -20 76 0 50 -7
-74 -20 -82 -9 -116 -9 -124 -1 -8 8 8 11 56 11 53 0 67 3 67 15 0 9 -9 15
-22 16 -54 2 -106 19 -57 19 13 0 36 11 49 23 21 20 28 22 38 10 7 -7 30 -13
51 -13 49 0 201 26 266 46 28 9 74 22 102 30 29 7 83 27 119 44 57 25 66 33
61 51 -4 15 -2 19 9 15 8 -3 14 -2 14 3 0 27 -182 75 -345 91 -120 13 -485 13
-537 1 -35 -8 -37 -7 -43 20 -6 28 -9 29 -66 29 -58 0 -59 0 -59 -29 0 -28 -3
-29 -85 -50 -47 -12 -109 -30 -138 -41 -67 -26 -77 -25 -77 3 0 34 -19 47 -70
47 -57 0 -70 -12 -70 -67 l0 -42 -74 0 c-95 1 -136 -18 -136 -62 0 -16 -6 -31
-12 -34 -7 -2 -62 -23 -123 -46 -60 -23 -173 -65 -250 -94 -213 -79 -298 -116
-324 -139 -23 -21 -23 -23 -17 -156 8 -147 2 -133 74 -191 6 -5 12 -31 12 -57
0 -27 20 -289 44 -582 25 -294 48 -573 51 -621 l7 -85 -40 -18 c-23 -10 -51
-29 -63 -42 -20 -21 -21 -30 -16 -95 7 -80 16 -95 72 -120 45 -20 163 -30 900
-79 1358 -91 2891 -201 3510 -252 217 -18 359 -22 857 -25 l596 -4 5 23 4 23
2 -22 c1 -22 5 -23 92 -23 71 0 99 4 123 19 17 10 130 76 251 146 327 191 366
215 376 242 5 13 9 53 9 88 0 61 -2 65 -36 93 l-36 30 16 188 c15 175 33 428
70 977 l15 218 29 29 c26 26 29 37 35 121 4 51 7 124 7 164 0 119 -11 124
-370 150 -118 8 -241 18 -272 21 l-58 6 0 43 c0 76 -10 105 -43 122 -35 18
-142 22 -172 6 -15 -8 -49 -5 -131 12 -61 13 -168 28 -237 35 l-126 13 -83 95
c-186 214 -225 242 -348 242 -63 0 -84 -5 -126 -28 -64 -33 -176 -153 -203
-215 -22 -50 -43 -66 -93 -68 -30 -2 -31 -2 -5 -6 16 -3 27 -11 27 -20 0 -14
-11 -15 -74 -9 -89 8 -126 1 -126 -24 0 -11 -5 -22 -10 -25 -8 -5 -8 -11 -1
-19 12 -14 -4 -36 -26 -36 -37 0 0 -88 50 -119 75 -46 263 -101 405 -118 75
-9 140 -21 144 -26 3 -6 58 -9 125 -9 141 2 151 -1 152 -36 2 -53 5 -62 18
-62 8 0 11 -4 8 -10 -4 -6 24 -11 77 -11 82 -2 82 -2 28 -9 -30 -5 -129 -8
-220 -7 -105 1 -128 2 -63 4 99 4 102 4 99 26 -11 72 -35 84 -145 71 -211 -25
-667 30 -763 92 -46 29 -55 30 -63 4 -27 -86 208 -187 540 -231 85 -12 183
-14 520 -11 340 3 644 81 713 182 30 45 28 73 -9 115 -17 19 -27 35 -22 35 6
0 18 -9 28 -20 10 -11 26 -22 36 -25 11 -4 19 -13 19 -22 0 -9 16 -33 35 -54
40 -44 48 -97 18 -120 -15 -11 -16 -11 -5 1 19 21 15 44 -13 70 -14 13 -25 30
-25 38 0 8 -10 0 -23 -19 -67 -100 -271 -165 -655 -210 l-103 -11 3 -42 c3
-40 4 -41 43 -47 22 -4 -10 -6 -75 -6 -63 0 -105 2 -92 4 20 4 23 10 21 49
l-3 44 -61 0 c-88 0 -314 19 -426 35 -146 22 -247 49 -334 89 -130 60 -179
110 -168 169 6 28 -18 67 -42 67 -6 0 -19 23 -28 52 -20 62 -13 79 52 125 33
23 83 89 131 173 5 8 12 12 15 8 8 -7 -16 -61 -46 -107 l-23 -34 25 16 c13 9
37 42 54 75 l29 58 34 -33 c38 -37 49 -40 54 -16 3 15 4 15 21 -1 14 -15 31
-17 102 -14 47 2 85 6 85 11 0 4 -8 7 -19 7 -12 0 -20 9 -24 29 -4 17 -14 32
-26 36 -11 3 -18 12 -15 19 3 7 -2 21 -11 30 -21 21 -75 49 -75 39 0 -4 -5 -2
-11 4 -28 28 106 167 172 179 19 4 40 11 47 17 20 16 69 0 143 -48 38 -25 72
-45 75 -45 15 0 -16 26 -76 65 l-69 44 2 53 c1 43 -5 66 -33 122 -70 140 -195
226 -340 234 -68 4 -85 1 -134 -21 l-57 -26 -40 21 c-64 33 -173 36 -249 8
-49 -19 -66 -21 -85 -12 -33 15 -31 28 8 48 52 27 151 101 193 144 37 38 42
40 102 40 71 0 96 10 182 76 75 57 143 136 171 199 26 62 36 189 20 267 -19
89 -96 192 -195 261 -38 27 -56 58 -60 108 -11 148 -262 407 -483 499 -145 61
-362 90 -520 70z m169 -265 c172 -30 328 -121 423 -246 25 -34 45 -64 46 -67
9 -55 4 -276 -7 -312 -8 -25 -14 -76 -15 -115 0 -38 -4 -90 -8 -115 l-7 -45
-6 66 c-12 121 -70 240 -136 281 -69 42 -186 19 -397 -78 -118 -54 -238 -92
-329 -106 -82 -11 -102 -10 -314 22 -83 13 -90 10 -117 -47 -13 -26 -16 -49
-11 -87 9 -73 38 -186 49 -186 4 0 5 -4 2 -10 -3 -5 -1 -10 4 -10 6 0 11 -5
11 -12 0 -28 91 -197 131 -241 93 -107 166 -125 277 -68 93 47 152 55 307 40
116 -11 139 -10 215 5 203 42 296 141 316 337 l7 74 18 -75 c10 -41 23 -102
27 -135 9 -58 9 -60 -24 -94 -20 -22 -29 -38 -22 -42 6 -4 3 -9 -9 -13 -11 -3
-37 -22 -59 -42 -21 -20 -55 -43 -74 -53 -19 -9 -46 -23 -60 -31 -35 -20 -91
-40 -115 -40 -15 0 -17 -2 -7 -9 37 -23 163 16 219 68 12 12 26 21 30 21 5 0
23 13 41 29 17 17 32 27 32 24 0 -3 9 2 20 12 11 10 17 22 14 27 -3 4 0 7 7 6
7 -2 18 8 25 21 11 22 12 22 22 5 9 -17 14 -17 43 -7 l32 12 -24 -25 c-24 -26
-201 -154 -213 -154 -3 0 -54 -23 -112 -51 -58 -27 -109 -47 -113 -44 -3 4 2
13 12 20 13 9 15 15 6 20 -6 4 -15 1 -20 -6 -8 -11 -19 -4 -51 31 -40 45 -41
45 -23 10 9 -19 28 -47 42 -61 l24 -26 -63 -16 c-224 -55 -387 -47 -564 29
-139 59 -211 143 -330 385 -47 95 -80 295 -69 409 15 147 84 322 172 432 91
113 303 251 435 283 73 18 189 18 290 0z m917 -452 c28 -21 49 -38 47 -40 -6
-7 -75 11 -70 18 3 5 -3 6 -12 2 -13 -5 -16 -3 -11 10 5 13 0 17 -22 17 -38 0
-89 -36 -126 -89 -25 -35 -30 -52 -29 -94 1 -35 -1 -44 -6 -27 -6 24 -7 23
-13 -11 -18 -92 0 -249 40 -335 28 -63 57 -90 119 -114 l49 -18 -30 -12 c-38
-15 -100 -25 -70 -12 18 8 16 11 -20 26 -79 33 -132 122 -161 272 -9 46 13
232 33 288 25 66 83 131 130 144 72 19 99 14 152 -25z m84 -90 c14 -16 38 -54
52 -85 22 -48 26 -72 26 -148 1 -83 -2 -97 -33 -163 -37 -76 -71 -107 -105
-91 -15 7 -14 8 9 12 30 4 53 32 84 102 14 33 19 67 19 135 0 103 -16 144 -87
221 -39 42 -40 44 -16 44 13 0 36 -12 51 -27z m-1919 -15 c-4 -13 -7 -35 -6
-49 1 -14 -6 -37 -17 -50 -39 -51 -52 -92 -58 -177 -9 -147 46 -293 157 -414
32 -34 57 -64 55 -66 -1 -2 -23 6 -47 18 -94 44 -142 103 -181 225 -22 68 -46
224 -36 231 5 3 9 22 9 42 1 49 29 110 75 161 33 37 35 41 16 41 -14 0 -21 6
-21 18 0 23 19 42 43 42 15 0 17 -5 11 -22z m1024 -290 c-3 -16 -1 -31 4 -34
4 -3 8 -21 8 -41 0 -32 2 -35 23 -29 63 17 94 18 100 2 3 -8 0 -22 -8 -30 -13
-13 -13 -15 5 -21 29 -9 25 -42 -7 -53 l-28 -10 33 -1 c63 -2 28 -51 -37 -51
-16 0 -31 -5 -33 -10 -5 -15 -147 -49 -155 -37 -3 5 -8 5 -12 -2 -4 -6 -28
-14 -54 -17 l-47 -7 0 31 c0 17 -4 34 -10 37 -14 9 -12 42 3 48 7 3 6 6 -5 6
-24 1 -31 17 -18 40 7 14 23 21 53 23 l42 3 0 45 c0 41 2 45 30 51 29 6 29 7
-7 8 -33 1 -38 4 -38 25 0 20 8 26 48 37 113 31 116 31 110 -13z m-1970 -71
c25 -26 77 -136 68 -144 -3 -3 -12 -1 -20 6 -10 9 -15 9 -19 -1 -7 -19 -77
-42 -89 -30 -16 16 -23 159 -8 177 18 21 43 19 68 -8z m1282 -52 c0 -19 5 -37
10 -40 6 -3 10 -18 10 -33 0 -26 2 -27 49 -24 46 4 49 3 54 -25 14 -71 19 -89
29 -110 14 -29 10 -32 -38 -38 -21 -2 -62 -7 -89 -11 l-50 -6 -18 37 c-10 21
-21 35 -24 31 -4 -3 -1 -12 5 -18 18 -18 14 -38 -7 -38 -24 0 -43 23 -35 44 3
9 1 16 -5 16 -6 0 -11 5 -11 10 0 6 -9 29 -20 52 -22 45 -18 63 10 48 10 -5
22 -10 25 -10 10 0 -5 93 -17 108 -17 20 9 41 55 44 59 4 67 0 67 -37z m-1386
-160 c-21 -15 -64 -28 -71 -22 -2 3 -9 35 -15 71 -13 80 -3 111 45 131 l32 13
14 -89 c13 -85 12 -91 -5 -104z m518 65 c43 -12 68 -42 68 -81 0 -30 -15 -39
-65 -39 -67 0 -95 11 -95 37 0 13 -7 37 -15 52 -8 16 -11 31 -8 35 10 9 74 7
115 -4z m2555 -399 c34 -17 85 -51 113 -77 53 -50 110 -151 109 -193 0 -25 -1
-25 -9 -4 -10 25 -42 37 -90 34 -52 -4 -172 -57 -219 -97 -29 -25 -41 -31 -41
-20 0 25 -145 170 -163 163 -9 -3 -17 -2 -19 4 -2 5 -13 11 -26 14 -18 3 -22
-1 -22 -21 0 -29 26 -95 43 -109 7 -6 23 -23 37 -39 24 -27 24 -28 3 -17 -52
27 -103 121 -103 191 0 94 49 155 155 193 67 24 150 16 232 -22z m-521 -76
c-9 -14 -23 -36 -32 -50 -67 -104 -52 -352 28 -469 l22 -31 -30 25 c-44 38
-51 44 -37 36 9 -5 11 -2 6 10 -5 14 -8 12 -20 -10 -7 -14 -17 -26 -22 -26
-10 0 -61 133 -61 161 0 10 -4 19 -9 19 -11 0 1 -53 28 -134 22 -62 20 -76 -7
-75 -11 0 -12 3 -4 6 6 2 12 9 12 15 0 5 -15 -2 -32 -17 -55 -45 -100 -74
-168 -107 -72 -36 -121 -39 -173 -13 -114 59 -302 98 -345 71 -7 -4 -12 -1
-12 8 0 9 -5 16 -11 16 -5 0 -7 -4 -4 -10 3 -5 -1 -10 -9 -10 -9 0 -16 6 -17
13 0 6 -4 3 -8 -7 -6 -16 -10 -14 -25 18 -31 66 -41 149 -28 238 13 91 56 187
93 205 13 7 30 20 38 30 12 17 13 16 8 -6 -8 -33 15 -72 60 -104 31 -21 51
-27 94 -27 78 0 163 25 243 70 47 27 73 37 80 30 7 -5 23 -6 37 -2 22 6 22 7
-10 12 l-35 5 75 59 c41 33 65 50 55 37 -24 -27 -29 -51 -10 -51 8 0 13 6 12
13 -2 6 3 11 10 10 6 -2 12 1 12 7 0 12 93 40 134 40 17 0 38 5 46 10 26 17
33 11 16 -15z m-1378 -49 c60 -31 118 -113 126 -178 4 -33 4 -34 -33 -30 -25
2 -32 0 -22 -6 10 -7 3 -11 -25 -15 -22 -3 -73 -12 -114 -21 -110 -23 -128
-22 -135 12 -26 123 -50 167 -94 177 -21 4 -31 13 -31 25 0 15 13 20 73 30 39
6 77 13 82 15 28 10 149 3 173 -9z m487 -6 c-4 -6 -10 -8 -15 -5 -5 3 -11 1
-15 -5 -3 -5 0 -10 7 -10 8 -1 4 -9 -9 -19 -13 -11 -23 -30 -23 -45 0 -29 -19
-76 -32 -76 -4 0 -8 -9 -8 -20 0 -11 -4 -20 -9 -20 -5 0 -13 -25 -17 -56 -7
-58 13 -187 43 -274 18 -53 42 -150 37 -150 -10 0 -56 109 -75 176 -30 108
-25 313 10 389 33 74 71 125 93 125 11 0 16 -5 13 -10z m2071 -460 c87 -42
190 -137 170 -157 -3 -4 -15 2 -25 12 -19 17 -21 16 -55 -4 -31 -19 -36 -20
-49 -6 -22 21 -70 19 -101 -6 -24 -19 -27 -19 -48 -5 -29 20 -77 20 -105 1
-20 -14 -23 -14 -33 4 -18 35 -12 105 13 142 43 65 123 71 233 19z m-3323
-223 c44 -19 47 -32 9 -51 -102 -53 -502 -46 -502 8 0 43 110 66 305 62 113
-2 159 -6 188 -19z m3270 -145 c9 -10 21 -41 27 -68 5 -27 12 -59 16 -71 6
-20 3 -23 -24 -23 -22 0 -36 8 -50 28 -25 34 -52 99 -52 122 0 33 57 41 83 12z
m-4722 -76 c-6 -7 -39 -21 -74 -31 -90 -25 -287 -121 -287 -140 0 -9 11 -20
26 -25 20 -8 470 -46 598 -51 l31 -1 -30 -7 c-74 -16 45 -31 465 -56 341 -21
443 -25 365 -15 -91 11 -281 30 -470 45 -146 12 -154 14 -55 10 63 -2 214 -11
335 -19 121 -8 306 -20 410 -26 176 -10 400 -28 435 -35 8 -1 -13 -3 -47 -4
-35 0 -63 -5 -63 -11 0 -5 10 -10 23 -10 13 0 181 -11 373 -25 192 -13 387
-27 434 -30 47 -3 182 -12 300 -20 118 -8 276 -17 349 -19 74 -3 171 -9 215
-12 88 -7 97 6 13 18 -122 16 487 -21 688 -42 l80 -9 -100 5 c-55 2 -147 7
-205 10 -58 4 -102 4 -99 0 8 -8 297 -33 534 -46 105 -5 231 -13 280 -16 95
-7 111 6 22 17 -100 13 301 -3 559 -22 452 -33 515 -28 642 59 202 137 454
300 423 274 -19 -16 -32 -34 -30 -41 3 -8 14 -4 31 14 16 16 29 22 33 15 3 -5
11 -10 16 -10 6 0 7 5 3 12 -4 7 -3 8 5 4 12 -8 133 68 166 104 14 15 16 23 7
32 -6 6 -82 17 -168 24 -87 8 -160 16 -162 19 -7 7 30 6 181 -4 128 -9 177
-24 177 -55 0 -22 -624 -456 -698 -485 -36 -14 -47 -24 -49 -42 -1 -13 -5 -68
-8 -121 l-7 -98 -38 0 c-31 0 -37 3 -35 18 2 9 6 61 9 115 l5 97 -116 0 c-65
0 -214 7 -333 15 -418 28 -837 55 -1415 90 -317 19 -1853 123 -2155 145 -74 6
-232 17 -350 25 -118 8 -379 26 -580 40 -201 14 -502 30 -669 35 -167 6 -309
12 -315 13 -14 3 -20 -109 -8 -155 9 -37 10 -37 187 -58 55 -6 145 -18 200
-25 l100 -14 -130 5 c-215 9 -408 23 -448 34 -20 6 -43 21 -51 33 -20 33 -30
251 -12 269 16 17 55 34 221 96 72 27 159 61 195 75 77 30 86 32 71 13z m3096
-222 c4 -10 -5 -27 -24 -45 -29 -30 -30 -30 -108 -22 -47 5 -80 13 -82 20 -3
7 8 24 23 38 24 22 35 25 106 25 63 0 80 -3 85 -16z m-1949 -416 c58 -28 85
-74 71 -121 -5 -19 -33 -55 -69 -89 l-61 -57 42 -11 c46 -13 96 -58 105 -96 4
-14 14 -24 24 -24 13 0 25 20 44 73 15 39 46 116 69 170 37 86 45 97 63 93 11
-3 29 1 40 9 10 8 27 15 37 15 9 0 17 5 17 10 0 6 5 10 10 10 6 0 10 -9 10
-20 0 -11 4 -28 9 -38 6 -9 18 -71 28 -137 17 -110 20 -120 41 -123 15 -2 22
-11 23 -25 0 -12 9 4 19 35 36 114 106 200 197 240 91 40 173 1 173 -82 0 -47
-19 -102 -32 -94 -6 4 -13 1 -17 -5 -13 -21 -40 0 -47 35 -8 45 -33 45 -79 -1
-47 -47 -76 -107 -82 -169 -4 -43 -1 -56 18 -80 19 -24 27 -28 60 -23 20 3 57
18 81 34 57 39 98 61 81 42 -7 -7 -13 -21 -13 -32 0 -17 1 -17 30 0 17 9 30
21 30 26 0 24 53 313 61 334 7 20 12 23 23 14 10 -9 15 -8 20 4 4 11 13 14 26
10 11 -4 20 -2 20 4 0 19 15 12 26 -14 9 -18 8 -40 -2 -91 -8 -37 -13 -69 -11
-71 2 -2 42 30 88 70 99 86 142 117 161 117 8 0 23 9 33 20 10 11 22 20 28 20
5 0 -5 -16 -23 -36 -17 -20 -29 -39 -25 -42 3 -3 11 0 17 6 17 17 33 15 18 -3
-6 -8 -9 -19 -5 -25 9 -14 -13 -39 -90 -103 -33 -27 -79 -67 -103 -89 l-43
-39 97 -120 c53 -66 98 -118 101 -115 2 2 -1 13 -8 23 -13 22 -4 97 12 88 5
-4 9 -1 9 5 0 7 6 10 14 7 7 -3 18 -1 23 4 5 5 14 -5 22 -26 8 -23 20 -37 37
-41 58 -15 149 22 149 61 0 12 -31 34 -100 70 -101 52 -145 94 -145 137 0 103
222 224 318 174 36 -19 52 -43 52 -81 0 -29 -28 -90 -37 -81 -3 3 -12 -2 -19
-12 -8 -10 -13 -12 -14 -4 0 6 -7 12 -15 12 -10 0 -15 10 -15 30 0 37 -18 39
-80 8 -67 -34 -61 -52 35 -103 44 -24 99 -60 123 -82 34 -32 42 -46 42 -75 0
-64 -71 -125 -195 -168 -56 -19 -115 -27 -102 -13 7 6 -84 53 -92 47 -2 -1 19
-31 45 -65 50 -66 46 -68 -24 -11 -45 36 -69 37 -37 2 24 -26 11 -26 -26 1
-24 17 -39 20 -77 16 -42 -5 -44 -5 -19 5 15 7 27 15 27 18 0 4 -24 31 -53 61
-29 30 -73 77 -98 106 l-46 52 -17 -75 c-9 -41 -16 -83 -16 -94 0 -11 -4 -20
-10 -20 -5 0 -7 7 -4 15 4 8 2 15 -3 15 -12 0 -33 -44 -34 -73 -1 -12 -5 -4
-8 18 -5 31 -10 40 -25 38 -16 -1 -18 5 -14 68 l4 69 -71 -70 c-39 -38 -75
-70 -82 -70 -6 0 -16 -7 -23 -15 -7 -8 -23 -15 -37 -15 -31 0 -112 41 -140 72
-26 27 -53 88 -53 118 0 23 -12 26 -28 7 -8 -9 -7 -32 3 -82 18 -83 18 -95 4
-75 -8 11 -9 1 -6 -40 5 -53 5 -54 -8 -25 -8 17 -14 35 -15 42 0 7 -6 10 -14
7 -7 -3 -16 3 -20 13 -6 14 -9 15 -16 4 -8 -14 -16 7 -38 99 -9 39 -9 39 -108
19 -52 -10 -52 -10 -74 -69 -12 -33 -28 -60 -35 -60 -7 0 -19 -13 -27 -30 -17
-38 -24 -38 -32 2 -6 30 -7 31 -21 12 -19 -25 -19 -10 1 56 22 75 4 84 -56 25
-25 -24 -75 -63 -113 -88 -37 -24 -65 -46 -62 -49 3 -3 -20 -18 -52 -34 -76
-38 -77 -38 -69 -25 4 6 1 11 -8 11 -9 0 -18 -12 -22 -27 -9 -44 -12 -50 -13
-25 -1 12 -5 22 -10 22 -12 0 -21 -37 -21 -94 0 -27 -3 -46 -7 -42 -8 8 -9 14
-12 79 -1 41 -17 50 -24 15 l-4 -23 -8 23 c-8 24 -15 24 -72 6 -17 -5 -17 -5
1 10 20 16 13 41 -10 32 -8 -3 -14 -1 -14 5 0 5 7 12 15 15 21 9 19 27 -2 20
-24 -8 14 23 56 46 31 17 31 18 31 96 0 44 3 94 6 111 5 24 3 31 -10 31 -15 0
-21 16 -18 53 1 9 -4 17 -11 17 -6 0 2 10 20 21 26 16 34 30 42 72 17 89 19
118 7 113 -92 -37 -116 -44 -121 -37 -3 5 1 11 7 14 10 4 10 7 0 18 -10 11
-21 11 -65 -5 -84 -30 -86 -29 -15 8 61 32 102 65 64 50 -9 -3 -16 -1 -16 5 0
22 157 89 261 111 74 15 193 5 247 -22z m-1419 -273 c11 -132 25 -289 31 -350
5 -60 17 -202 25 -315 8 -113 16 -227 18 -253 3 -27 1 -45 -3 -40 -13 14 -59
517 -90 1003 -11 164 -12 205 -6 199 3 -3 14 -112 25 -244z m3899 153 c6 -40
16 -111 23 -158 10 -81 19 -100 46 -100 7 0 10 -7 7 -15 -4 -8 -2 -15 4 -15 5
0 17 21 27 48 38 100 126 195 222 239 45 21 66 24 115 21 53 -4 64 -8 84 -34
13 -16 24 -38 24 -49 -1 -33 -38 -107 -51 -99 -6 3 -15 1 -19 -6 -12 -19 -40
12 -40 44 0 73 -149 -23 -200 -130 -25 -50 -26 -121 -3 -146 24 -27 80 -23
127 10 57 39 57 52 2 52 -34 0 -46 4 -47 15 -5 70 -5 70 37 76 21 4 78 10 126
14 l87 7 -3 -33 c-2 -19 -13 -59 -24 -89 -11 -30 -33 -95 -48 -145 -20 -67
-29 -85 -35 -70 -6 18 -9 16 -22 -15 -8 -19 -17 -42 -20 -50 -3 -8 -6 4 -6 28
-1 42 -15 57 -25 25 -3 -10 -4 6 -3 35 1 28 2 52 1 52 -1 0 -22 -11 -48 -25
-58 -31 -78 -31 -135 -2 -58 30 -101 84 -108 136 -5 34 -9 41 -28 41 -21 0
-22 -2 -13 -57 4 -32 10 -68 13 -80 6 -27 -11 -31 -19 -5 -3 9 -3 -11 -1 -46
5 -66 -8 -77 -19 -16 -4 21 -12 34 -19 31 -7 -2 -17 5 -24 17 -7 12 -12 15
-13 9 0 -7 -4 -13 -9 -13 -5 0 -12 21 -16 48 -14 100 -10 95 -79 88 -105 -12
-105 -12 -142 -90 -19 -39 -34 -63 -34 -53 0 31 -19 18 -45 -30 -23 -42 -25
-44 -21 -18 5 33 -11 70 -21 48 -2 -7 -8 -13 -13 -13 -5 0 2 26 15 57 22 54
24 80 6 69 -4 -3 -8 8 -8 24 0 17 5 30 10 30 5 0 4 6 -2 14 -13 15 4 26 38 26
16 0 41 43 139 242 2 4 -9 6 -25 3 -15 -2 -65 -9 -109 -16 l-81 -11 -15 -57
c-9 -31 -33 -128 -54 -216 -29 -121 -40 -152 -44 -130 l-6 30 -27 -46 c-15
-25 -27 -51 -27 -57 0 -7 -4 -12 -9 -12 -4 0 -4 20 2 45 8 34 7 49 -1 57 -9 9
-12 9 -12 0 0 -7 -4 -12 -10 -12 -13 0 -5 60 30 235 16 77 26 142 24 144 -2 3
-33 -1 -68 -7 -86 -16 -102 -16 -87 2 7 8 8 17 3 20 -12 7 -8 64 4 76 5 5 45
14 89 20 44 6 91 16 105 22 28 12 264 21 294 12 19 -6 19 -7 2 -19 -12 -10
-14 -15 -5 -20 8 -6 5 -12 -11 -20 -22 -12 -22 -13 14 -17 34 -4 39 -1 57 32
17 29 27 37 52 37 47 2 97 14 97 24 0 5 4 9 9 9 4 0 13 -33 19 -72z m1097 -42
c10 -9 25 -14 35 -11 10 3 21 1 24 -4 4 -5 -13 -13 -38 -16 -25 -4 -53 -13
-63 -21 -17 -12 -16 -13 7 -14 55 -1 -5 -18 -84 -24 -160 -13 -174 -16 -179
-39 -3 -12 -9 -33 -13 -46 -7 -23 -6 -23 62 -21 38 2 82 2 98 1 28 -1 29 -2
10 -16 -19 -14 -18 -14 4 -15 33 0 27 -16 -10 -25 -28 -6 -30 -8 -13 -14 18
-7 17 -8 -5 -14 -14 -3 -62 -9 -107 -13 l-81 -7 -13 -46 c-7 -25 -12 -48 -11
-49 1 -2 71 -3 155 -3 86 1 159 -3 167 -9 12 -8 9 -10 -13 -10 -16 0 -26 -4
-22 -10 3 -5 36 -11 73 -11 72 -2 65 -4 -41 -14 -63 -6 -86 -25 -30 -25 15 0
24 -2 22 -4 -2 -2 -76 -10 -164 -16 -88 -7 -172 -18 -187 -25 -20 -10 -28 -10
-31 -1 -3 6 -9 0 -15 -14 -8 -18 -11 -20 -11 -7 -1 13 -10 17 -37 17 -27 0
-35 4 -31 14 3 8 3 17 -1 21 -4 3 -7 19 -8 35 -1 22 3 30 19 32 27 4 65 107
45 123 -7 5 -12 17 -12 25 1 8 2 23 3 32 0 9 10 19 20 23 18 5 31 29 46 82 5
17 1 22 -16 25 -23 3 -35 43 -17 54 4 3 8 13 8 23 0 32 65 50 184 50 60 1 112
4 115 7 13 13 140 -3 156 -20z m-2646 -561 c33 -10 69 -31 89 -51 l34 -34 -19
-32 c-13 -23 -45 -46 -103 -77 -59 -32 -79 -47 -65 -49 61 -10 127 -35 154
-58 24 -20 31 -34 31 -62 0 -31 -8 -44 -53 -87 -60 -56 -108 -82 -241 -132
-77 -29 -83 -37 -11 -16 11 3 17 3 14 -1 -6 -6 -202 -66 -216 -66 -4 0 -1 5 7
10 12 8 12 10 -5 9 -11 0 -38 -6 -60 -13 -34 -10 -41 -17 -51 -51 l-12 -40 -1
37 c-2 68 -50 17 -52 -55 -1 -18 -5 -43 -10 -57 -6 -16 -7 2 -3 53 4 71 3 78
-13 75 -9 -2 -20 -14 -24 -28 l-6 -25 -7 27 c-5 15 -13 25 -19 23 -37 -11 -77
-13 -77 -5 0 6 9 10 20 10 11 0 20 5 20 11 0 5 5 7 11 3 19 -11 103 -5 140 10
19 8 108 35 199 61 162 46 295 93 287 102 -3 2 -22 -3 -43 -11 -22 -8 -48 -17
-59 -22 -37 -14 -50 -14 -86 1 -20 8 -40 11 -43 7 -4 -3 -12 0 -17 8 -8 11
-12 12 -16 2 -2 -6 -8 -10 -12 -8 -4 3 -41 -4 -82 -14 -93 -25 -92 -25 -75 3
8 12 17 38 21 57 6 29 5 33 -6 23 -7 -7 -34 -13 -60 -13 -47 0 -47 0 -51 -37
-3 -21 -1 -41 5 -44 18 -12 -3 -27 -55 -39 -54 -13 -93 -29 -71 -30 6 0 11 -9
10 -20 -1 -16 -8 -20 -37 -19 -31 0 -32 1 -12 9 24 10 30 30 10 30 -22 1 23
22 70 34 l45 12 24 89 c12 50 25 100 29 113 5 16 2 22 -11 22 -9 0 -14 4 -11
9 4 5 0 11 -6 14 -10 3 -10 7 1 20 11 14 11 17 1 17 -20 0 -2 14 32 26 27 9
35 21 60 88 l28 79 -37 -7 c-97 -16 -118 -18 -103 -7 16 11 15 13 -15 29 -11
6 -14 12 -7 12 7 0 23 9 35 21 l22 20 -30 -7 c-25 -5 -28 -4 -18 7 7 7 59 23
115 35 90 20 125 23 273 20 126 -2 184 -8 224 -21z m793 -3 c2 -5 37 -5 78 -1
41 4 111 8 155 7 l80 0 -50 -13 c-48 -13 -49 -13 -15 -14 l35 -2 -30 -14 c-27
-13 -27 -14 -5 -10 73 12 364 26 397 20 36 -7 36 -8 13 -15 -24 -7 -24 -8 9
-15 l35 -8 -55 -18 c-44 -14 -49 -18 -25 -18 19 -1 26 -5 20 -10 -5 -5 -64
-15 -132 -22 l-123 -12 -20 -38 c-10 -21 -19 -41 -19 -45 0 -4 35 -3 79 0 43
4 91 4 107 0 l29 -8 -25 -7 -25 -6 25 -11 c14 -6 20 -11 13 -11 -6 -1 -24 -6
-40 -12 l-28 -12 25 -7 c18 -4 4 -8 -50 -14 -157 -14 -156 -14 -169 -54 -7
-21 -15 -42 -17 -49 -4 -8 45 -10 193 -8 109 2 181 1 161 -1 -72 -10 -30 -32
66 -36 26 0 15 -4 -34 -8 -41 -4 -90 -11 -109 -15 -25 -6 -32 -5 -27 3 4 7 17
12 29 13 20 1 19 2 -6 13 -15 7 -24 16 -20 20 6 7 -129 2 -254 -8 -19 -1 -20
2 -9 47 6 26 5 27 -29 27 -22 0 -34 4 -30 10 3 6 0 10 -7 10 -14 0 -38 -53
-38 -83 0 -9 -13 -23 -29 -32 -22 -11 -28 -20 -24 -35 4 -16 0 -20 -17 -20
-19 0 -21 2 -9 16 10 13 10 17 0 24 -9 5 -3 11 20 19 29 9 37 19 52 64 20 64
21 67 5 67 -7 0 -14 14 -15 31 -2 26 3 32 31 44 23 10 37 25 49 55 15 40 15
42 -2 47 -13 3 -17 11 -13 30 4 23 2 25 -24 20 -16 -4 -59 -9 -95 -13 l-67 -6
-61 -162 c-34 -88 -71 -187 -84 -219 -34 -90 -32 -47 3 50 21 58 27 90 21 96
-6 6 -30 11 -55 11 l-44 1 -22 -64 c-18 -49 -20 -65 -10 -71 16 -10 15 -68 -2
-110 l-15 -35 341 -2 c188 0 356 -5 374 -10 19 -5 -132 -8 -370 -9 -394 0
-565 -9 -762 -39 -99 -15 -223 -40 -271 -54 -28 -9 -28 -9 -5 -10 14 0 106 10
205 24 307 42 743 76 731 57 -5 -9 55 -11 226 -8 231 5 232 5 68 -4 -257 -15
-493 -39 -629 -65 -119 -24 -161 -26 -110 -7 41 16 240 53 329 61 l85 8 -87 2
c-111 1 -438 -32 -682 -70 -105 -16 -208 -29 -230 -29 l-41 1 36 19 c81 43
280 81 539 105 248 23 240 21 256 75 16 53 18 90 5 90 -5 0 -12 -13 -16 -30
-6 -28 -25 -52 -25 -32 0 5 27 90 61 188 80 236 79 228 43 221 -16 -3 -49 -9
-74 -12 -25 -3 -58 -8 -75 -11 -28 -5 -29 -4 -12 10 17 13 17 15 2 24 -16 8
-16 11 -1 35 13 19 14 26 4 30 -24 9 35 24 142 37 58 7 110 16 115 20 6 5 21
10 35 13 14 2 28 5 32 6 3 0 8 -3 10 -7z m1088 -20 c19 -9 37 -26 39 -37 2
-11 8 -23 14 -27 17 -11 -28 -99 -47 -92 -9 3 -17 -3 -22 -18 l-7 -23 -9 24
c-7 19 -11 21 -22 11 -12 -9 -15 -6 -18 22 -3 31 -5 33 -40 32 -46 -1 -153
-53 -153 -74 0 -10 41 -31 120 -61 205 -78 255 -111 255 -167 0 -12 -7 -34
-16 -47 -9 -14 -12 -25 -8 -25 5 0 -6 -8 -25 -17 -45 -22 -29 -26 65 -14 71 9
95 8 83 -3 -2 -2 -51 -9 -109 -14 -92 -10 -121 -18 -233 -65 -70 -30 -127 -58
-125 -62 2 -4 -23 -17 -55 -30 -85 -35 -101 -39 -92 -25 10 17 -15 8 -154 -51
-63 -27 -116 -47 -119 -44 -3 2 30 21 73 42 43 20 74 38 69 40 -5 2 -81 -22
-168 -52 -88 -30 -164 -55 -170 -55 -19 1 18 18 95 46 41 14 78 30 84 35 5 5
17 9 27 9 10 0 46 9 80 21 34 11 70 18 80 16 11 -3 15 -1 12 5 -4 6 1 8 15 3
23 -7 235 64 346 115 l60 28 -53 1 c-30 1 -63 8 -77 17 -22 14 -28 13 -92 -14
-37 -16 -124 -53 -193 -82 -69 -30 -136 -61 -150 -70 -43 -30 -111 -61 -123
-57 -11 3 197 108 333 167 113 49 313 146 333 162 39 30 8 51 -163 112 -143
51 -191 92 -176 150 9 36 68 89 135 123 127 62 235 78 301 45z m-1474 -19 c-4
-9 -1 -20 6 -24 9 -6 1 -37 -29 -126 -23 -65 -53 -154 -68 -198 -48 -137 -76
-205 -69 -164 3 19 16 67 29 105 16 49 20 73 13 82 -12 14 -58 16 -58 2 0 -5
-5 -10 -11 -10 -5 0 -7 6 -3 13 3 6 -5 0 -20 -15 -18 -19 -32 -50 -42 -97 -9
-38 -22 -78 -29 -88 -12 -15 -12 -12 -4 27 5 25 21 81 35 125 14 44 39 125 55
180 40 130 68 193 79 176 6 -11 15 -11 46 -1 22 7 46 16 54 21 22 11 23 11 16
-8z m-2108 -49 c17 -5 22 -14 22 -40 0 -44 -12 -48 -105 -39 l-75 7 0 39 0 39
68 0 c37 0 77 -3 90 -6z m-240 -107 c15 -12 16 -63 1 -73 -17 -10 -97 -6 -135
6 -29 10 -34 16 -34 44 0 18 3 36 7 40 10 9 145 -4 161 -17z m250 -19 c20 -20
15 -68 -9 -76 l-20 -8 20 -18 c24 -22 28 -74 6 -82 -8 -3 -47 -2 -87 3 l-73 8
-3 38 c-3 34 -1 37 22 37 33 0 33 13 1 28 -20 9 -25 19 -25 47 l0 35 78 0 c47
0 83 -5 90 -12z m4692 -147 c20 -5 26 -14 28 -44 l3 -37 -64 0 c-36 0 -79 3
-96 6 -27 6 -31 11 -31 39 0 17 3 35 7 38 8 9 120 7 153 -2z m-15 -119 c38 -7
40 -9 40 -42 0 -31 -3 -35 -30 -38 -16 -2 -58 -1 -92 3 l-63 7 0 39 0 39 53
-1 c28 0 70 -3 92 -7z m-5408 -86 c36 -33 85 -43 307 -61 104 -9 196 -20 205
-24 17 -9 340 -38 760 -68 135 -9 239 -19 233 -21 -7 -2 -88 1 -180 7 -841 54
-1219 74 -1234 65 -4 -3 -8 -20 -8 -37 0 -18 -4 -27 -8 -21 -4 6 -15 13 -24
17 -9 3 -18 18 -20 32 -2 21 -11 30 -40 40 -43 14 -48 9 -48 -58 0 -69 -18
-28 -21 47 -2 61 0 71 20 88 29 23 27 23 58 -6z m6663 -6 c11 -21 23 -13 -265
-170 -93 -51 -219 -121 -280 -155 -60 -34 -138 -73 -172 -85 -59 -21 -64 -25
-74 -63 -7 -27 -13 -36 -19 -28 -6 11 -9 11 -13 0 -3 -8 -6 2 -6 21 l-1 36
-377 23 c-208 12 -551 33 -763 47 -212 13 -401 24 -420 25 -20 1 -26 3 -14 6
11 2 178 -5 370 -17 814 -48 882 -51 1029 -45 83 3 170 8 193 11 28 3 41 1 37
-5 -10 -17 54 -1 124 30 92 42 212 119 204 132 -3 5 -1 7 5 3 5 -3 12 -2 14 2
8 21 237 142 255 135 12 -4 109 44 148 73 19 14 19 16 3 28 -22 16 -23 27 -3
20 9 -4 20 -15 25 -24z m-1475 -10 c22 -8 26 -15 23 -42 -3 -31 -5 -33 -48
-36 -25 -1 -65 1 -90 6 -36 6 -46 12 -48 30 -7 45 3 52 72 52 36 0 77 -4 91
-10z m253 -22 c7 -7 12 -24 12 -39 0 -36 -23 -43 -111 -34 -62 6 -71 10 -79
31 -18 46 -5 54 84 54 50 0 87 -5 94 -12z"/>
<path d="M203 2244 c-7 -19 5 -197 15 -205 4 -4 22 -10 40 -14 l32 -7 0 89 c0
113 -5 129 -42 142 -39 14 -37 14 -45 -5z"/>
<path d="M1625 1493 c-11 -2 -29 -6 -41 -8 -21 -5 -25 -21 -50 -184 l-6 -44
62 34 c91 50 170 124 170 159 0 26 -4 29 -50 39 -28 6 -54 10 -58 10 -4 -1
-16 -3 -27 -6z"/>
<path d="M2469 1054 c-8 -3 -27 -34 -41 -70 l-26 -66 24 6 c52 13 191 67 223
87 31 19 33 22 17 31 -20 11 -171 20 -197 12z"/>
<path d="M2450 815 c-8 -2 -32 -6 -52 -10 l-38 -6 -31 -100 c-18 -55 -30 -102
-27 -104 8 -9 177 50 268 92 95 45 139 83 117 101 -24 21 -182 38 -237 27z"/>
<path d="M2701 2800 c-38 -9 -56 -25 -66 -57 -5 -17 -2 -23 9 -23 23 0 19 -18
-6 -26 -12 -3 -42 -22 -68 -40 -26 -19 -53 -34 -59 -34 -7 0 -20 -8 -29 -17
-16 -15 -15 -16 8 -11 14 4 51 12 82 18 32 6 64 18 72 25 7 8 16 12 19 9 9 -9
85 35 101 58 23 33 21 62 -4 55 -11 -3 -20 -1 -20 4 0 5 6 9 14 9 21 0 31 21
15 31 -16 10 -22 10 -68 -1z"/>
</g>
</svg>
