<?xml version="1.0" standalone="no"?>
<!DOCTYPE svg PUBLIC "-//W3C//DTD SVG 20010904//EN"
 "http://www.w3.org/TR/2001/REC-SVG-20010904/DTD/svg10.dtd">
<svg version="1.0" xmlns="http://www.w3.org/2000/svg"
 width="720.000000pt" height="544.000000pt" viewBox="0 0 720.000000 544.000000"
 preserveAspectRatio="xMidYMid meet">
<metadata>
Created by potrace 1.16, written by Peter Selinger 2001-2019
</metadata>
<g transform="translate(0.000000,544.000000) scale(0.100000,-0.100000)"
fill="#000000" stroke="none">
<path d="M3515 5404 c-143 -26 -305 -88 -416 -160 -132 -84 -272 -236 -318
-344 -13 -30 -34 -68 -47 -83 -39 -47 -59 -156 -31 -174 12 -7 17 -9 48 -11
23 -3 18 -86 -7 -132 -16 -30 -19 -57 -19 -185 0 -170 12 -223 79 -364 6 -13
33 -42 60 -63 45 -36 47 -39 20 -33 -112 25 -146 55 -177 157 -41 131 -50 197
-44 315 5 123 17 169 52 207 13 14 20 26 16 26 -5 0 -12 10 -15 23 -7 21 -7
21 -16 2 -5 -11 -11 -31 -14 -45 -3 -14 -17 -38 -32 -55 -81 -92 -98 -135 -96
-245 3 -156 82 -299 197 -357 62 -32 181 -73 211 -73 14 0 37 -17 63 -46 41
-47 44 -64 13 -64 -30 0 -119 -58 -156 -102 -21 -24 -51 -72 -68 -107 -25 -53
-28 -67 -19 -88 17 -38 15 -40 -51 -45 -44 -3 -98 -19 -181 -52 l-118 -48 -46
17 c-39 15 -67 17 -176 12 -121 -5 -135 -8 -193 -38 -35 -17 -65 -37 -68 -44
-3 -8 -44 -33 -93 -56 -67 -33 -108 -62 -171 -123 -45 -43 -92 -94 -103 -112
-14 -24 -28 -34 -45 -34 -20 0 -24 -5 -24 -29 0 -28 -3 -30 -72 -46 -40 -10
-104 -29 -142 -42 -85 -28 -86 -28 -86 0 0 35 -19 47 -72 47 -55 0 -68 -15
-68 -77 0 -43 13 -69 28 -59 6 4 16 -2 22 -14 10 -19 11 -19 38 8 15 15 19 18
10 7 -25 -30 -22 -41 15 -55 63 -23 288 -70 409 -85 68 -9 128 -17 133 -19 6
-2 -73 -6 -175 -10 -170 -6 -226 -4 -380 20 -31 4 -42 3 -35 -4 21 -21 158
-62 262 -77 137 -21 404 -25 426 -7 12 10 29 11 81 2 53 -10 95 -9 223 5 313
34 513 112 501 197 -3 15 -1 25 4 22 4 -3 8 -20 8 -38 0 -93 -189 -164 -554
-207 l-186 -22 0 -38 c0 -37 1 -38 43 -42 23 -2 2 -4 -46 -5 -60 -1 -86 1 -82
9 4 6 4 26 1 45 l-7 34 -67 0 c-94 0 -279 17 -392 36 -114 19 -186 43 -248 82
-26 17 -78 40 -117 52 -38 13 -82 29 -96 36 -23 12 -38 8 -160 -42 -74 -31
-210 -84 -304 -119 -213 -80 -257 -99 -279 -124 -17 -18 -18 -33 -11 -156 l7
-136 34 -22 c23 -15 35 -32 38 -52 3 -16 26 -291 51 -610 25 -319 49 -610 52
-646 l6 -66 -33 -13 c-18 -7 -46 -24 -61 -38 -31 -26 -35 -53 -23 -146 6 -43
9 -47 58 -71 60 -28 25 -25 1276 -110 928 -63 1488 -102 2070 -145 223 -17
466 -35 540 -40 521 -38 689 -51 792 -60 64 -5 359 -10 656 -10 l541 0 4 23 4
22 2 -22 c1 -22 5 -23 91 -23 l90 0 128 74 c312 181 508 298 521 311 9 9 16
43 19 93 l4 79 -37 30 -37 31 21 258 c24 306 35 450 61 837 l19 287 29 29 c26
27 29 37 35 122 4 51 7 124 7 164 0 120 -10 124 -375 150 -121 8 -244 18 -272
21 l-53 5 0 43 c0 82 -10 107 -49 123 -41 18 -140 19 -170 4 -15 -8 -35 -7
-78 4 -32 8 -121 25 -198 37 -123 19 -181 22 -485 23 -286 0 -364 -3 -457 -18
-61 -10 -125 -22 -142 -27 -30 -8 -31 -8 -31 24 0 45 -21 60 -82 58 -61 -1
-71 -9 -73 -59 -1 -21 -3 -41 -4 -45 0 -3 -34 -4 -73 -1 -94 7 -145 -11 -150
-54 -3 -27 -4 -28 -58 -25 -30 2 -56 5 -59 8 -3 2 0 17 5 32 6 18 27 37 62 55
85 46 194 204 225 328 13 50 17 55 53 67 21 7 50 24 65 38 15 14 37 24 55 24
16 0 47 9 67 19 31 16 43 17 72 8 45 -14 108 5 263 79 107 50 172 99 172 129
0 7 19 17 43 23 86 22 167 103 185 185 5 25 23 62 39 83 17 22 38 62 47 89 21
64 56 300 55 368 l-2 52 -9 -65 c-20 -149 -50 -318 -64 -361 -18 -57 -56 -94
-123 -119 -66 -25 -84 -26 -72 -2 5 9 17 62 26 117 9 55 21 114 26 130 4 17
11 57 15 91 l6 61 -96 6 c-53 4 -107 2 -120 -3 -13 -5 -33 -6 -45 -3 -20 5
-20 4 -6 -23 20 -38 19 -50 -5 -67 -21 -15 -79 -165 -80 -205 0 -13 -4 -20
-10 -17 -20 13 -9 -13 13 -29 l22 -17 -22 11 c-33 15 -91 97 -99 137 -6 32 -1
104 13 196 3 22 2 37 -5 37 -13 0 -35 -154 -30 -211 l3 -42 -92 -38 -93 -39
-57 30 c-79 41 -156 54 -235 40 -78 -14 -140 -41 -183 -79 -31 -27 -37 -29
-77 -19 -45 10 -123 4 -142 -11 -12 -9 -126 -25 -126 -18 0 3 30 22 66 41 71
39 228 166 245 198 9 17 17 18 65 12 52 -6 60 -4 168 50 161 80 223 156 247
306 10 64 0 180 -21 234 -21 56 -92 146 -149 190 -64 50 -82 88 -60 125 11 17
9 29 -16 80 -17 36 -44 73 -68 92 -31 25 -37 27 -28 10 11 -20 10 -21 -39 -21
-37 0 -50 4 -50 15 0 9 6 12 15 9 8 -4 15 -1 15 6 0 6 -8 10 -17 8 -11 -2 -18
-13 -18 -26 -1 -27 -44 -58 -68 -49 -22 8 -32 53 -17 72 7 8 27 15 46 15 18 0
45 5 59 10 18 7 33 7 46 0 10 -6 19 -8 19 -5 0 25 -44 77 -123 145 -175 154
-403 239 -652 246 -77 2 -149 -2 -200 -12z m192 -245 c83 -9 224 -48 245 -68
4 -4 -8 -29 -28 -56 -43 -60 -57 -86 -85 -157 -29 -74 -12 -53 22 27 37 88 94
165 123 165 52 0 189 -121 256 -226 30 -47 31 -52 24 -124 -3 -44 -2 -91 4
-114 9 -30 7 -52 -5 -100 -18 -68 -24 -301 -10 -446 19 -208 16 -192 45 -186
23 5 18 -3 -33 -50 -74 -69 -180 -133 -283 -169 -42 -14 -86 -31 -97 -36 -96
-43 -373 -62 -501 -34 -134 29 -278 108 -346 190 -36 42 -122 217 -146 295
-46 150 -55 399 -19 525 24 82 92 217 139 272 126 150 330 272 488 292 94 12
101 12 207 0z m916 -470 c33 -17 99 -71 94 -76 -3 -2 -28 8 -56 23 l-51 28
-27 -20 c-35 -25 -87 -124 -73 -138 15 -15 12 -30 -11 -57 -19 -22 -21 -32
-16 -119 5 -95 29 -232 48 -282 12 -28 45 -32 74 -8 8 7 15 9 15 5 0 -4 6 -2
14 4 11 9 20 10 35 1 12 -6 21 -12 21 -14 0 -8 -120 -76 -133 -76 -31 0 -83
64 -110 135 -34 95 -39 130 -38 270 1 119 1 120 41 202 58 118 111 154 173
122z m170 -181 c14 -29 28 -76 32 -104 9 -72 -11 -200 -41 -262 -29 -60 -54
-78 -84 -62 -25 13 -26 20 -1 13 43 -11 101 130 101 245 0 73 -13 134 -33 154
-7 7 -22 28 -32 46 -11 17 -23 32 -28 32 -4 0 -5 4 -2 10 13 21 63 -20 88 -72z
m-7 -770 c26 -13 49 -29 51 -34 2 -7 -19 -13 -51 -17 -101 -10 -195 -95 -220
-200 -7 -28 -47 -53 -70 -43 -6 2 -3 5 6 5 26 1 48 29 48 60 0 23 -5 29 -22
30 -13 0 -39 3 -58 5 -19 2 -56 2 -82 -1 -39 -5 -49 -10 -57 -32 l-9 -26 -1
29 c-3 106 87 206 218 243 69 19 188 10 247 -19z m289 22 c4 -6 -7 -24 -24
-40 -53 -53 -61 -117 -30 -232 12 -47 78 -122 131 -149 52 -26 98 -24 143 7
37 25 38 25 24 4 -34 -51 -305 -180 -378 -180 -54 0 -42 18 26 40 36 12 89 33
117 47 28 15 74 32 101 39 40 10 44 13 20 13 -70 3 -176 81 -205 152 -9 20
-16 26 -24 20 -26 -22 -124 -52 -170 -53 -27 0 -61 -4 -74 -9 l-24 -9 4 62 c2
35 12 79 21 98 36 71 59 89 193 145 142 60 140 59 149 45z m-1908 -109 c69
-45 74 -50 48 -50 -31 0 -47 -3 -80 -15 -89 -34 -87 -30 -49 -75 l26 -31 -28
0 c-15 0 -24 -3 -21 -6 4 -4 -2 -15 -13 -24 -35 -30 -71 -92 -65 -109 3 -9
-16 5 -42 31 -26 26 -65 54 -86 63 -32 13 -37 19 -31 38 11 36 73 125 107 153
33 28 123 74 144 74 7 0 47 -22 90 -49z m1177 10 c3 -5 -1 -14 -9 -21 -7 -6
-24 -42 -37 -78 -32 -94 -33 -275 -1 -377 12 -38 20 -71 18 -74 -3 -2 -5 0 -5
6 0 6 -10 10 -22 9 -13 -1 -22 -7 -20 -15 1 -7 -2 -10 -7 -6 -6 3 -18 30 -27
60 -10 30 -19 53 -21 51 -4 -3 21 -98 35 -134 2 -7 1 -12 -4 -11 -20 3 -31 -2
-67 -35 -36 -32 -180 -132 -221 -154 -15 -7 -36 -1 -99 31 -55 27 -102 43
-153 50 -69 10 -74 13 -75 36 -2 26 -2 26 -6 -1 -4 -26 -8 -28 -47 -28 -24 0
-62 -6 -84 -14 l-40 -14 -43 44 c-24 24 -46 44 -49 44 -4 0 -12 -12 -19 -27
l-13 -28 -22 45 c-13 25 -28 79 -35 119 -6 41 -16 80 -21 86 -6 7 -7 15 -3 18
3 4 -1 7 -9 7 -20 0 -28 -30 -28 -105 0 -68 32 -168 76 -242 16 -27 39 -72 51
-102 22 -53 22 -54 2 -35 -28 25 -85 128 -108 196 -30 87 -45 223 -33 298 14
94 40 176 63 202 20 22 20 22 10 1 -16 -32 -13 -43 9 -43 16 0 19 -5 14 -32
-5 -31 -4 -32 10 -14 8 10 17 22 18 26 3 8 30 13 61 11 11 -1 17 -9 17 -27 0
-20 4 -25 16 -20 9 3 29 6 46 6 l31 0 -19 22 -19 22 29 -22 c36 -27 117 -52
170 -52 105 1 252 59 350 140 50 42 68 51 46 25 -7 -9 -11 -17 -9 -19 7 -7
103 37 145 65 21 15 56 32 77 39 36 11 63 41 50 54 -3 3 -34 6 -67 7 -43 0
-55 3 -41 9 27 11 132 12 139 1z m-1508 -332 c52 -25 105 -81 139 -150 15 -28
25 -52 23 -53 -2 -1 -30 -13 -63 -25 -33 -12 -94 -35 -137 -51 -85 -32 -81
-34 -118 40 -25 52 -82 115 -122 136 -15 8 -42 14 -60 14 -21 0 -29 3 -22 10
14 14 265 100 293 100 14 0 44 -9 67 -21z m-460 -62 c28 -7 67 -26 87 -41 49
-38 99 -117 104 -169 l5 -42 -61 -3 c-34 -2 -72 -7 -85 -12 -21 -8 -24 -4 -35
40 -7 27 -16 50 -19 52 -4 2 -19 22 -34 45 -20 30 -45 50 -92 73 -76 38 -132
38 -208 2 -52 -26 -65 -28 -49 -8 25 30 107 59 186 66 125 11 147 11 201 -3z
m-282 -101 c82 -34 90 -122 18 -198 -29 -31 -42 -35 -42 -13 0 45 -91 75 -121
39 -11 -13 -15 -12 -36 15 -28 36 -64 40 -92 12 -18 -18 -19 -18 -30 5 -6 13
-18 24 -28 24 -28 0 1 23 89 70 105 56 182 71 242 46z m1116 -203 c44 -132
101 -214 166 -239 43 -16 61 -45 48 -78 -9 -22 -136 -23 -154 -1 -17 20 -81
19 -118 -2 -29 -16 -32 -16 -49 -1 -14 13 -46 19 -116 24 l-97 7 0 37 c0 57
-27 83 -91 90 l-54 5 103 34 c103 33 156 65 167 100 3 11 23 23 50 31 24 7 59
23 77 36 18 13 36 23 39 24 4 0 16 -30 29 -67z m-884 -97 c16 -12 19 -27 19
-94 0 -73 -2 -79 -16 -66 -8 8 -27 14 -42 14 -32 0 -42 18 -52 87 -6 49 -5 54
17 62 33 14 52 13 74 -3z m-441 -50 c17 -13 18 -15 2 -47 -27 -57 -79 -109
-110 -109 -31 0 -36 24 -12 56 8 10 15 25 15 32 0 8 7 29 16 48 13 26 22 34
43 34 15 0 36 -6 46 -14z m3756 -136 c242 -19 533 -74 559 -105 7 -9 6 -16 -5
-25 -12 -10 -24 -9 -63 8 -74 31 -176 58 -317 84 -119 21 -156 23 -440 22
-270 -1 -325 -4 -429 -23 -66 -12 -121 -19 -123 -17 -7 6 22 13 132 31 201 32
465 42 686 25z m-26 -165 c66 -18 91 -35 82 -59 -30 -77 -514 -89 -589 -14
-25 25 -20 39 24 61 76 38 359 45 483 12z m-4950 -21 c-11 -8 -45 -22 -75 -31
-30 -8 -106 -40 -167 -69 -118 -56 -136 -76 -86 -95 14 -5 166 -20 337 -32
230 -16 295 -24 251 -28 -33 -3 -51 -7 -40 -8 11 -1 29 -5 40 -7 44 -11 201
-24 410 -34 121 -6 261 -15 310 -20 50 -5 113 -9 140 -8 46 1 44 2 -20 8 -211
22 -300 30 -500 47 -121 9 -212 19 -203 21 9 2 81 -1 160 -7 463 -34 562 -41
748 -51 253 -15 488 -37 410 -39 -58 -1 -111 -21 -58 -21 15 0 153 -9 305 -20
444 -31 894 -60 1088 -70 99 -5 220 -12 269 -16 67 -5 87 -4 82 4 -4 7 -21 12
-38 12 -17 0 -29 3 -25 6 5 6 748 -43 777 -51 16 -5 -157 2 -310 11 -52 4 -93
4 -90 1 10 -10 768 -67 889 -67 51 0 32 10 -40 20 -94 13 254 2 476 -15 303
-24 473 -29 555 -16 76 12 83 16 260 138 126 87 351 231 322 206 -42 -36 -43
-57 -2 -37 16 9 32 19 35 24 3 5 12 7 19 4 21 -8 186 104 186 125 0 16 -52 31
-105 31 -35 0 -55 4 -55 11 0 16 128 2 158 -17 43 -28 46 -25 -163 -172 -282
-199 -472 -325 -514 -341 l-46 -19 -7 -108 c-4 -60 -10 -114 -13 -121 -6 -17
-76 -17 -71 -1 3 7 7 59 10 116 l6 102 -112 0 c-62 0 -212 7 -333 15 -224 15
-718 47 -1015 65 -91 6 -273 17 -405 25 -132 8 -373 24 -535 35 -162 11 -434
29 -605 40 -170 11 -400 27 -510 35 -110 8 -337 24 -505 35 -168 11 -393 27
-500 35 -458 35 -887 60 -1210 71 -96 3 -184 6 -195 7 -17 2 -21 -5 -23 -43
-2 -25 -1 -68 3 -97 l6 -52 57 -6 c31 -3 91 -10 132 -16 41 -5 125 -16 185
-24 l110 -14 -135 5 c-206 8 -401 23 -443 35 -20 5 -43 20 -51 32 -15 24 -30
245 -18 263 10 16 60 40 149 73 217 80 327 121 331 126 3 3 10 5 16 5 6 0 2
-7 -9 -16z m3856 -29 c-44 -51 -43 -93 6 -136 112 -98 416 -170 733 -172 326
-3 536 8 673 37 192 40 300 87 338 149 27 45 24 71 -12 112 -17 19 -28 35 -24
35 15 0 85 -56 85 -69 0 -7 16 -31 35 -52 26 -29 35 -48 34 -72 0 -17 -3 -25
-6 -17 -3 8 -18 29 -33 46 l-27 31 -27 -33 c-72 -91 -279 -153 -644 -195
l-103 -11 3 -42 c3 -40 4 -41 43 -47 22 -4 -10 -6 -75 -6 -63 0 -105 2 -92 4
19 4 22 11 22 47 l0 43 -151 7 c-307 14 -556 59 -694 127 -89 43 -155 103
-155 140 0 12 19 41 44 65 52 53 71 58 27 9z m-767 -181 c24 -9 20 -27 -13
-58 -29 -28 -31 -28 -107 -20 -43 5 -79 14 -81 21 -2 6 9 23 24 37 24 23 37
26 95 26 36 0 73 -3 82 -6z m-1941 -422 c60 -27 81 -60 74 -115 -5 -36 -15
-51 -66 -98 -61 -56 -66 -69 -27 -69 36 0 83 -36 102 -79 28 -61 47 -53 78 32
15 39 46 116 69 170 37 86 45 97 63 93 11 -3 29 1 40 9 10 8 27 15 37 15 9 0
17 5 17 10 0 6 5 10 10 10 6 0 10 -9 10 -20 0 -11 4 -28 9 -38 6 -9 18 -71 28
-137 17 -112 20 -120 41 -123 15 -2 22 -9 18 -17 -3 -8 -1 -17 3 -20 5 -2 14
16 20 41 26 104 97 195 184 239 50 25 97 32 111 18 4 -4 14 -8 23 -8 24 0 56
-50 55 -85 -1 -50 -21 -100 -38 -93 -8 3 -14 0 -14 -6 0 -6 -4 -11 -9 -11 -18
0 -41 32 -41 56 0 57 -86 0 -132 -89 -29 -57 -31 -146 -3 -177 26 -29 78 -23
137 17 23 17 54 36 68 43 23 12 24 12 12 -3 -8 -9 -12 -23 -10 -31 2 -13 8
-12 30 7 25 20 30 36 53 174 31 185 37 203 64 196 13 -3 21 -1 21 7 0 7 8 9
20 5 11 -4 20 -2 20 4 0 21 16 11 26 -16 7 -20 6 -47 -3 -92 -7 -35 -12 -66
-10 -68 3 -2 26 16 53 40 94 84 176 146 188 141 7 -3 23 7 36 21 37 39 46 29
10 -11 -17 -20 -29 -39 -25 -42 3 -3 11 0 17 6 17 17 33 15 18 -3 -6 -8 -9
-19 -5 -25 9 -14 -13 -39 -90 -103 -33 -27 -79 -67 -103 -89 l-43 -39 97 -120
c53 -66 99 -117 102 -114 3 3 0 11 -6 17 -20 20 -12 105 9 92 5 -3 9 0 9 6 0
7 6 10 14 7 7 -3 18 -1 23 4 5 5 14 -5 22 -26 8 -23 20 -37 37 -41 36 -9 94 2
124 24 44 34 33 51 -70 104 -111 58 -138 80 -146 123 -11 60 38 120 138 171
119 60 228 31 228 -61 0 -29 -28 -90 -37 -81 -3 3 -12 -2 -19 -12 -8 -10 -13
-12 -14 -4 0 6 -7 12 -15 12 -10 0 -15 10 -15 30 0 37 -18 39 -80 8 -67 -34
-61 -52 35 -104 44 -23 99 -60 123 -81 35 -32 42 -45 42 -75 0 -64 -71 -125
-195 -168 -63 -22 -110 -26 -100 -10 3 6 1 10 -5 10 -6 0 -29 9 -50 19 -22 11
-40 17 -40 14 0 -2 21 -31 46 -64 25 -32 43 -59 41 -59 -2 0 -27 18 -57 40
-29 22 -56 38 -59 35 -2 -3 1 -11 7 -17 24 -24 11 -29 -19 -8 -24 18 -39 21
-77 17 -42 -5 -44 -5 -19 5 15 7 27 15 27 19 0 4 -28 36 -63 71 -35 35 -79 82
-99 105 l-35 43 -16 -75 c-10 -42 -17 -84 -17 -95 0 -11 -4 -20 -10 -20 -5 0
-7 7 -4 15 4 8 2 15 -3 15 -12 0 -33 -44 -34 -73 -1 -12 -5 -4 -8 18 -5 31
-10 40 -24 38 -17 -1 -18 6 -15 63 2 35 1 64 -2 64 -3 0 -30 -25 -60 -56 -62
-63 -120 -104 -149 -104 -35 0 -109 40 -140 75 -17 20 -36 56 -42 80 -10 41
-30 58 -43 37 -2 -4 2 -41 10 -82 17 -89 17 -89 3 -70 -8 11 -9 1 -6 -40 l5
-55 -16 38 c-9 22 -20 36 -28 33 -7 -3 -15 6 -19 22 -7 25 -8 25 -15 7 -10
-25 -14 -15 -33 70 -15 67 -10 65 -113 44 -51 -10 -52 -10 -73 -69 -12 -33
-28 -60 -36 -60 -7 0 -19 -13 -27 -30 -17 -38 -24 -38 -32 2 -6 30 -7 31 -21
12 -19 -25 -19 -10 1 56 22 75 4 84 -56 25 -25 -24 -75 -63 -113 -88 -37 -24
-64 -46 -61 -50 4 -3 -20 -19 -52 -34 -80 -38 -78 -37 -70 -24 4 6 1 11 -8 11
-9 0 -18 -12 -22 -27 -9 -44 -12 -50 -13 -25 -1 12 -5 22 -10 22 -14 0 -21
-28 -21 -87 0 -31 -3 -53 -7 -49 -9 8 -9 13 -11 74 -2 45 -18 57 -25 20 l-4
-23 -8 23 c-8 24 -15 24 -72 6 -17 -5 -17 -5 1 10 20 16 13 41 -10 32 -8 -3
-14 -1 -14 5 0 5 7 12 15 15 21 9 19 27 -2 20 -24 -8 14 23 56 46 31 17 31 18
31 96 0 44 3 94 6 111 5 24 3 31 -10 31 -15 0 -21 17 -16 49 1 8 -4 17 -10 21
-8 5 -1 12 18 21 35 15 39 27 48 121 l7 68 -59 -24 c-54 -22 -95 -25 -63 -5
11 7 11 11 1 21 -10 10 -23 9 -65 -6 -84 -30 -86 -29 -15 8 61 33 105 69 65
53 -10 -3 -17 -2 -17 3 0 21 161 89 261 110 68 14 190 5 242 -18z m-1414 -277
c22 -255 35 -411 51 -590 14 -163 21 -384 10 -315 -16 103 -69 736 -86 1040
-11 197 4 115 25 -135z m3899 153 c6 -40 16 -111 23 -158 10 -81 19 -100 46
-100 7 0 10 -7 7 -15 -4 -8 -2 -15 4 -15 5 0 17 21 27 48 26 68 55 111 114
165 64 60 141 97 203 97 66 0 96 -14 115 -55 16 -33 16 -37 -3 -82 -12 -28
-26 -47 -34 -45 -7 2 -17 -2 -21 -9 -11 -18 -39 14 -39 45 0 73 -150 -26 -200
-131 -24 -52 -26 -120 -3 -145 24 -27 80 -23 127 10 57 39 57 52 2 52 -34 0
-46 4 -47 15 -5 70 -5 70 37 76 21 4 78 10 126 14 l87 7 -3 -33 c-2 -19 -13
-59 -24 -89 -11 -30 -33 -95 -48 -145 -19 -64 -29 -84 -34 -70 -8 23 -17 11
-36 -49 l-13 -41 0 48 c-1 26 -5 47 -11 47 -5 0 -10 -7 -10 -15 0 -8 -4 -15
-8 -15 -5 0 -6 21 -1 48 4 26 6 48 5 50 -2 1 -24 -9 -50 -23 -57 -30 -78 -31
-135 -2 -58 28 -101 83 -108 136 -5 35 -9 41 -30 41 -19 0 -22 -4 -18 -22 13
-57 21 -138 14 -138 -4 0 -10 8 -13 18 -3 9 -3 -12 -1 -47 5 -66 -2 -73 -20
-20 -5 17 -14 31 -20 31 -5 -1 -15 9 -22 21 -7 12 -12 16 -13 10 0 -7 -4 -13
-8 -13 -5 0 -15 32 -22 71 l-12 71 -62 -6 c-105 -12 -105 -12 -142 -90 -19
-39 -34 -63 -34 -54 0 28 -25 10 -49 -35 -20 -39 -21 -40 -17 -12 5 33 -11 70
-21 48 -2 -7 -8 -13 -13 -13 -5 0 2 26 15 58 17 41 20 58 11 60 -15 3 -17 62
-3 62 5 0 4 7 -3 15 -10 12 -7 15 17 20 15 4 31 7 35 8 7 2 128 240 124 244
-3 3 -210 -27 -213 -31 -2 -2 -27 -99 -57 -217 -30 -118 -55 -200 -55 -184 -2
29 -2 29 -17 10 -9 -11 -25 -38 -36 -60 l-19 -40 6 52 c3 31 1 54 -5 58 -5 3
-10 1 -10 -4 0 -6 -4 -11 -10 -11 -12 0 -5 57 30 235 16 77 27 142 24 144 -2
2 -29 -1 -60 -8 -32 -6 -68 -11 -82 -11 -20 0 -22 3 -13 14 7 8 8 17 3 20 -12
7 -8 64 4 76 5 5 45 14 89 20 44 6 91 16 105 22 31 13 264 20 293 8 l22 -8
-24 -9 c-22 -9 -23 -10 -5 -17 18 -7 17 -8 -5 -20 -24 -13 -24 -13 13 -18 34
-4 39 -1 57 32 17 29 27 37 52 37 47 2 97 14 97 24 0 5 4 9 9 9 4 0 13 -33 19
-72z m1097 -42 c10 -9 25 -14 35 -11 10 3 21 1 24 -4 4 -5 -13 -13 -38 -16
-25 -4 -53 -13 -63 -21 -17 -12 -16 -13 7 -14 55 -1 -5 -18 -84 -24 -160 -13
-174 -16 -179 -39 -3 -12 -9 -33 -13 -46 -7 -23 -6 -23 62 -21 38 2 82 2 98 1
28 -1 29 -2 10 -16 -19 -14 -18 -14 4 -15 33 0 27 -16 -10 -25 -28 -6 -30 -8
-14 -14 30 -11 4 -18 -100 -26 l-90 -7 -11 -37 c-6 -20 -14 -43 -17 -51 -5
-13 14 -15 148 -12 97 3 161 0 173 -7 15 -9 13 -10 -17 -11 -67 -1 -8 -20 65
-21 81 -2 71 -5 -38 -14 -42 -4 -75 -11 -71 -16 3 -5 17 -9 31 -9 15 0 24 -2
22 -4 -2 -2 -76 -10 -164 -16 -88 -7 -172 -18 -187 -25 -20 -10 -28 -10 -31
-1 -3 6 -9 0 -15 -14 -9 -22 -11 -23 -17 -7 -5 11 -18 17 -37 17 -22 0 -29 4
-25 14 3 8 3 17 -1 21 -4 3 -7 19 -8 35 -1 22 3 30 19 32 27 4 65 107 45 123
-20 16 -10 73 13 80 20 7 30 25 43 77 5 22 2 27 -16 30 -22 3 -34 43 -16 54 4
3 8 13 8 23 0 32 65 50 184 50 60 1 112 4 115 7 13 13 140 -3 156 -20z m-2646
-561 c33 -10 69 -31 88 -50 33 -33 34 -35 18 -64 -14 -28 -80 -73 -160 -110
-26 -13 -27 -15 -10 -18 125 -25 185 -64 185 -121 0 -31 -8 -44 -53 -87 -60
-56 -108 -82 -241 -132 -68 -25 -81 -32 -51 -29 46 6 34 1 -79 -33 -75 -23
-100 -26 -76 -11 12 8 12 10 -5 9 -11 0 -38 -6 -59 -12 -31 -10 -42 -19 -52
-47 l-12 -35 -1 32 c-1 24 -5 31 -15 27 -17 -7 -31 -42 -44 -114 l-11 -55 2
75 c2 60 -1 75 -13 75 -8 0 -17 -11 -21 -25 l-6 -25 -7 27 c-5 15 -13 25 -19
23 -35 -10 -77 -13 -77 -5 0 8 28 14 130 24 86 9 561 158 547 172 -2 2 -30 -5
-62 -17 -32 -11 -64 -18 -71 -15 -8 3 -14 1 -14 -5 0 -6 -7 -6 -19 1 -11 5
-31 11 -45 12 -15 1 -26 5 -26 9 0 3 -7 6 -15 6 -8 0 -15 -3 -15 -6 0 -4 -12
-8 -26 -9 -15 -1 -49 -9 -77 -17 -54 -16 -89 -20 -71 -7 9 6 34 65 34 81 0 10
-101 4 -110 -6 -4 -4 -11 -25 -14 -46 -6 -29 -4 -37 5 -32 7 5 10 3 7 -6 -3
-8 -33 -22 -68 -31 -65 -18 -86 -28 -55 -28 13 0 15 -3 6 -13 -6 -8 -8 -17 -4
-20 3 -4 -11 -7 -33 -6 -33 0 -36 2 -16 9 24 10 30 30 10 30 -22 1 23 22 70
34 l45 12 24 89 c12 50 26 101 29 114 6 20 4 23 -10 18 -11 -4 -15 -3 -10 4 4
6 1 15 -7 19 -10 7 -10 11 0 24 11 13 11 16 1 16 -20 0 -2 14 32 26 27 9 35
21 60 88 l28 79 -37 -7 c-95 -16 -118 -17 -104 -8 16 12 6 32 -17 33 -13 0
-14 2 -2 6 8 3 23 15 35 25 20 19 20 19 -10 12 -25 -5 -28 -4 -18 7 7 7 59 23
115 35 90 20 125 23 273 20 126 -2 184 -8 224 -21z m793 -4 c2 -6 33 -6 78 -1
41 5 111 9 155 8 l80 0 -50 -13 c-48 -13 -49 -13 -15 -15 l35 -2 -30 -14 -30
-14 30 4 c92 15 382 27 405 18 l25 -11 -25 -1 c-22 -1 -23 -2 -7 -11 10 -6 25
-8 33 -5 8 3 14 2 14 -3 0 -5 -24 -15 -52 -24 -43 -12 -47 -16 -24 -16 68 -2
4 -20 -112 -32 l-124 -13 -19 -37 c-10 -21 -19 -41 -19 -45 0 -4 36 -4 80 0
44 3 92 3 107 -1 l28 -7 -25 -7 -25 -6 25 -11 c14 -6 20 -11 13 -11 -6 -1 -24
-6 -40 -12 -26 -10 -26 -12 -8 -19 13 -5 -4 -9 -55 -14 -146 -13 -146 -13
-159 -54 -7 -20 -15 -42 -17 -49 -4 -8 45 -10 193 -8 109 2 178 1 153 -3 -58
-9 -40 -22 43 -30 l62 -7 -60 -6 c-33 -3 -80 -9 -104 -14 -32 -6 -42 -5 -37 3
4 7 16 12 27 12 11 0 17 5 14 10 -3 6 -15 10 -26 10 -12 0 -17 4 -13 11 5 9
-23 10 -107 4 -63 -4 -125 -8 -139 -9 -25 -1 -27 4 -19 49 3 16 -2 21 -29 23
-18 2 -30 8 -27 13 4 5 0 9 -8 9 -13 0 -45 -75 -39 -93 1 -4 -9 -12 -23 -17
-18 -7 -25 -17 -25 -35 0 -19 -5 -25 -21 -25 -18 0 -20 2 -8 16 10 13 10 17 0
24 -9 5 -3 11 21 19 28 9 36 19 48 59 18 58 19 68 1 64 -9 -2 -11 3 -7 13 3 9
1 25 -4 35 -9 16 -8 18 6 13 11 -4 15 -2 11 4 -4 6 4 14 19 17 37 10 74 106
40 106 -9 0 -12 8 -8 26 4 24 3 26 -24 21 -16 -4 -59 -9 -95 -13 l-67 -6 -51
-137 c-98 -258 -116 -302 -120 -290 -2 6 8 41 22 78 47 122 46 125 -30 126
l-41 0 -23 -64 c-16 -46 -19 -66 -11 -69 7 -2 12 -8 12 -13 0 -4 -6 -6 -13 -3
-8 3 -18 -9 -26 -31 -7 -20 -15 -34 -18 -32 -5 5 63 221 108 344 13 35 21 65
18 68 -3 2 -34 0 -70 -5 -147 -22 -136 -22 -116 -6 18 14 18 15 0 24 -17 10
-17 11 2 32 16 18 17 23 5 30 -22 14 19 25 140 40 58 7 110 16 115 20 6 5 21
10 35 13 14 2 28 5 32 6 3 0 8 -3 10 -8z m1088 -19 c19 -9 37 -26 39 -37 2
-11 8 -23 14 -27 17 -11 -28 -99 -47 -92 -9 3 -17 -3 -22 -18 l-7 -23 -9 24
c-7 19 -11 21 -22 11 -12 -9 -15 -6 -18 22 -4 41 -21 45 -92 23 -62 -20 -116
-59 -101 -74 6 -5 62 -30 126 -54 203 -79 249 -110 249 -167 0 -14 -7 -34 -15
-44 -8 -10 -12 -23 -9 -27 3 -5 -1 -9 -9 -9 -8 0 -20 -7 -28 -16 -11 -14 -6
-15 52 -9 35 3 74 8 87 11 12 2 22 0 22 -4 0 -5 -47 -14 -105 -20 -94 -9 -121
-17 -240 -68 -74 -32 -132 -60 -129 -63 5 -5 -66 -36 -119 -51 -18 -6 -25 -5
-21 2 9 14 -21 4 -155 -53 -63 -27 -116 -47 -119 -44 -3 2 30 21 73 42 43 20
74 38 68 40 -5 2 -81 -21 -169 -52 -87 -30 -162 -54 -167 -52 -11 3 35 23 138
60 126 45 213 69 224 62 6 -3 11 -1 11 5 0 7 8 9 20 5 22 -7 230 63 342 114
l63 30 -57 0 c-32 1 -58 5 -58 10 0 5 -10 11 -22 14 -24 7 -311 -111 -418
-171 -81 -46 -121 -63 -133 -59 -12 4 196 107 375 186 191 84 294 137 301 155
7 19 -12 39 -50 54 -15 6 -77 30 -138 53 -114 44 -165 81 -165 119 0 35 26 75
67 102 79 52 100 62 168 84 85 28 158 30 205 6z m-1474 -19 c-4 -9 -1 -20 6
-24 9 -6 1 -37 -29 -126 -23 -65 -53 -154 -68 -198 -46 -131 -77 -205 -70
-165 4 19 16 61 26 93 26 73 23 99 -13 104 -16 2 -28 -1 -28 -7 0 -5 -7 -10
-16 -10 -27 0 -44 -27 -60 -99 -9 -38 -22 -78 -29 -88 -12 -15 -12 -12 -4 27
5 25 21 81 35 125 14 44 39 125 55 180 40 130 68 193 79 176 6 -11 15 -11 46
-1 22 7 46 16 54 21 22 11 23 11 16 -8z m-2348 -156 c7 -6 12 -24 10 -41 -3
-30 -5 -31 -53 -34 -27 -2 -67 2 -87 8 -34 10 -38 14 -38 44 0 18 3 36 7 40
10 10 145 -4 161 -17z m250 -19 c20 -20 15 -69 -8 -75 -11 -3 -20 -8 -20 -12
0 -3 9 -12 20 -19 24 -15 28 -70 5 -78 -8 -3 -47 -2 -87 3 l-73 8 -3 37 c-3
35 -2 37 30 40 l33 3 -32 18 c-28 15 -33 23 -33 52 l0 35 78 0 c47 0 83 -5 90
-12z m4685 -144 c35 -6 37 -8 37 -45 l0 -39 -64 0 c-35 0 -78 3 -95 6 -28 6
-31 10 -31 45 l0 39 58 0 c31 0 74 -3 95 -6z m-8 -122 c38 -7 40 -9 40 -42 0
-34 -2 -35 -40 -38 -22 -2 -64 -1 -92 3 l-53 6 0 40 0 39 53 -1 c28 0 70 -3
92 -7z m-2405 -42 c0 -5 -8 -31 -18 -58 l-18 -47 340 -1 c192 -1 354 -5 371
-11 20 -6 -70 -8 -280 -5 -456 7 -876 -29 -1100 -92 -41 -12 -45 -14 -20 -15
17 0 62 4 100 10 354 51 808 89 820 68 3 -4 108 -6 233 -4 208 3 215 3 87 -5
-379 -24 -530 -40 -694 -75 -41 -8 -76 -13 -79 -10 -15 15 252 68 398 78 25 2
4 4 -45 5 -134 3 -488 -35 -786 -84 -52 -8 -111 -14 -130 -12 l-34 3 32 17
c38 22 200 63 303 78 142 20 325 40 377 40 83 0 97 10 113 74 7 31 17 56 22
56 4 0 8 -4 8 -10z m-2935 -79 c24 -6 129 -18 235 -26 106 -9 200 -20 209 -24
19 -10 264 -32 676 -61 160 -11 299 -22 310 -24 43 -7 -76 -5 -205 4 -226 16
-937 58 -1077 64 l-133 6 -1 -42 c-1 -24 -4 -33 -6 -20 -3 14 -11 22 -21 20
-11 -2 -18 6 -22 26 -4 22 -12 32 -35 38 -44 12 -55 4 -55 -42 0 -22 -5 -40
-10 -40 -7 0 -10 28 -8 77 3 70 5 79 27 89 20 11 27 9 49 -11 14 -13 44 -28
67 -34z m6595 29 c11 -21 25 -12 -255 -165 -88 -48 -214 -118 -280 -155 -66
-37 -149 -78 -183 -90 -35 -13 -67 -30 -70 -39 -8 -19 -42 -24 -42 -7 0 9 -87
17 -307 30 -628 38 -1156 74 -1098 75 33 0 166 -6 295 -14 564 -36 802 -46
900 -41 58 4 155 7 215 8 92 1 119 5 163 24 71 31 222 123 222 135 0 5 8 13
18 16 9 4 40 21 67 39 76 48 155 85 165 79 10 -6 126 51 165 81 19 14 19 16 3
28 -22 16 -23 27 -3 20 9 -4 20 -15 25 -24z m-1475 -10 c22 -8 26 -15 23 -42
-3 -31 -5 -33 -48 -36 -25 -1 -65 1 -90 6 -36 6 -46 12 -48 30 -7 45 3 52 72
52 36 0 77 -4 91 -10z m253 -22 c20 -20 15 -66 -8 -73 -30 -10 -153 5 -169 20
-9 8 -11 23 -7 39 6 25 8 26 89 26 51 0 88 -5 95 -12z"/>
<path d="M3772 4558 c-2 -36 -3 -37 -79 -66 -220 -85 -426 -102 -613 -52 -85
22 -122 25 -152 9 -31 -17 -58 -86 -58 -154 0 -87 42 -261 61 -250 5 4 9 -5 9
-19 0 -13 4 -26 8 -28 16 -6 72 -119 66 -130 -4 -6 -3 -8 3 -5 5 4 23 -7 38
-23 16 -17 25 -30 21 -30 -17 0 19 -32 55 -51 58 -29 134 -25 242 13 82 29
104 33 197 33 58 -1 150 -4 205 -9 118 -10 186 1 274 45 142 71 197 212 172
440 -16 146 -36 204 -92 262 -44 46 -47 47 -105 47 -41 0 -89 -10 -149 -30
-49 -16 -90 -30 -91 -30 -2 0 -5 15 -7 33 l-4 32 -1 -37z m154 -273 c1 -16 4
-37 8 -45 3 -8 8 -26 10 -40 2 -15 9 -23 17 -21 8 3 33 6 57 9 39 4 42 2 42
-21 0 -19 -6 -27 -22 -30 -20 -4 -19 -4 5 -6 22 -1 27 -6 27 -26 0 -24 -7 -27
-90 -38 -10 -2 -15 -14 -15 -37 l0 -35 -70 -17 c-43 -11 -71 -13 -73 -7 -3 6
-9 6 -17 -1 -7 -6 -33 -12 -57 -13 -38 -2 -43 1 -46 21 -2 13 2 22 10 22 8 0
6 4 -4 11 -21 11 -24 49 -5 49 6 0 4 5 -5 11 -37 21 -21 45 37 59 52 13 66 22
46 34 -4 3 -9 32 -9 65 l-1 59 57 15 c80 22 97 19 98 -18z m-715 -76 c4 -8 11
-40 15 -71 l7 -58 53 0 c43 0 54 -3 59 -19 3 -10 5 -23 4 -27 -1 -5 0 -16 4
-24 15 -40 15 -89 0 -94 -24 -10 -61 -7 -68 5 -5 6 -11 4 -19 -6 -10 -13 -22
-15 -62 -10 -27 3 -66 8 -88 10 -47 4 -49 6 -70 78 -23 74 -18 87 36 87 41 0
42 0 20 16 -22 15 -31 54 -11 54 6 0 3 7 -5 16 -17 16 -21 46 -8 58 12 13 123
1 133 -15z"/>
<path d="M4170 3880 c-33 -34 -41 -66 -14 -56 14 6 15 4 4 -9 -9 -11 -15 -13
-20 -5 -5 8 -9 6 -14 -5 -3 -9 -11 -13 -17 -10 -6 4 -19 -1 -29 -11 -27 -27
-41 -37 -75 -54 -16 -8 -32 -17 -35 -20 -8 -8 -75 -30 -92 -30 -9 0 -21 15
-28 33 -6 17 -16 41 -20 52 -15 35 -11 -9 4 -53 14 -39 14 -40 -7 -46 -26 -6
-254 -36 -265 -35 -20 3 -75 -4 -59 -8 9 -2 17 -8 17 -12 0 -5 24 -6 53 -4 35
3 47 1 38 -5 -17 -12 89 -5 179 11 52 10 65 16 64 30 -2 17 -1 17 17 1 10 -9
19 -12 19 -6 0 6 17 14 38 18 20 3 51 17 69 30 18 14 41 28 51 32 39 15 172
128 181 154 17 48 -16 52 -59 8z"/>
<path d="M206 2244 c-8 -20 -7 -106 2 -164 6 -39 11 -45 40 -54 18 -5 35 -6
38 -3 8 7 6 161 -2 193 -4 14 -18 27 -36 33 -38 14 -35 14 -42 -5z"/>
<path d="M1630 1493 c-75 -11 -67 5 -97 -197 l-5 -39 62 34 c91 50 170 124
170 159 0 24 -5 29 -44 39 -25 6 -48 10 -53 10 -4 -1 -19 -3 -33 -6z"/>
<path d="M2469 1054 c-8 -3 -27 -34 -41 -70 l-26 -66 24 6 c52 13 191 67 223
87 31 19 33 22 17 31 -20 11 -171 20 -197 12z"/>
<path d="M2450 815 c-8 -2 -31 -6 -51 -9 -35 -6 -36 -8 -69 -106 -19 -55 -31
-102 -28 -105 8 -9 165 44 253 85 97 45 150 86 135 105 -19 23 -179 42 -240
30z"/>
<path d="M5526 5359 c-28 -22 -74 -105 -96 -173 -7 -21 -28 -70 -46 -107 -19
-37 -39 -90 -46 -116 -7 -26 -24 -62 -39 -80 -15 -17 -32 -49 -39 -70 -17 -51
-22 -57 -84 -87 -68 -33 -80 -60 -74 -159 3 -50 14 -95 36 -146 18 -43 28 -78
22 -81 -24 -15 -71 -160 -52 -160 5 0 13 17 17 37 9 47 43 115 54 108 5 -3 5
-20 -1 -38 -9 -30 -8 -37 17 -61 17 -17 25 -34 22 -46 -7 -27 16 -44 30 -21 8
13 7 22 -3 36 -8 10 -14 28 -14 39 0 16 4 13 17 -12 9 -19 27 -38 40 -43 27
-10 29 -26 6 -52 -17 -18 -17 -19 2 -33 28 -21 83 -34 143 -34 81 0 91 9 88
76 -2 41 1 57 12 61 8 3 18 0 23 -8 6 -11 11 -11 21 -1 21 21 27 13 17 -20 -6
-21 -5 -36 2 -43 15 -15 56 36 65 80 8 44 20 44 38 3 13 -29 14 -30 15 -10 1
13 -4 32 -9 42 -9 16 2 36 62 120 139 190 164 246 137 297 -7 14 -30 33 -51
44 -25 13 -38 26 -38 40 0 35 -18 57 -64 74 -33 13 -48 25 -55 46 -6 18 -23
35 -44 45 -32 15 -38 15 -83 0 -26 -9 -51 -16 -56 -16 -4 0 4 26 18 58 15 31
32 75 39 98 7 23 24 63 38 90 34 68 50 144 38 176 -11 30 -56 68 -81 68 -10 0
-29 -9 -44 -21z m139 -481 c26 -20 27 -25 21 -75 -3 -30 -13 -71 -21 -90 -14
-33 -17 -35 -33 -21 -9 8 -36 24 -59 34 -23 10 -43 22 -43 26 0 4 9 31 21 60
35 91 63 107 114 66z m128 -111 c21 -24 18 -69 -9 -137 l-16 -39 -40 29 c-21
16 -43 30 -48 32 -7 2 3 42 36 137 6 19 54 6 77 -22z m-517 -33 c-3 -9 -6 -33
-6 -54 0 -36 -2 -38 -44 -50 -25 -7 -52 -20 -61 -30 -15 -16 -15 -19 0 -34 9
-9 12 -16 7 -16 -16 0 -42 36 -48 67 -9 46 11 71 79 104 71 33 82 35 73 13z"/>
</g>
</svg>
