<?xml version="1.0" standalone="no"?>
<!DOCTYPE svg PUBLIC "-//W3C//DTD SVG 20010904//EN"
 "http://www.w3.org/TR/2001/REC-SVG-20010904/DTD/svg10.dtd">
<svg version="1.0" xmlns="http://www.w3.org/2000/svg"
 width="720.000000pt" height="544.000000pt" viewBox="0 0 720.000000 544.000000"
 preserveAspectRatio="xMidYMid meet">
<metadata>
Created by potrace 1.16, written by Peter Selinger 2001-2019
</metadata>
<g transform="translate(0.000000,544.000000) scale(0.100000,-0.100000)"
fill="#000000" stroke="none">
<path d="M3643 5410 c-117 -30 -268 -95 -348 -150 -79 -55 -225 -207 -225
-236 0 -18 -10 -31 -36 -46 -44 -26 -75 -91 -79 -168 -5 -95 -14 -118 -59
-153 -58 -45 -74 -65 -103 -127 -38 -80 -44 -220 -13 -322 19 -63 29 -81 78
-128 57 -55 202 -142 258 -154 22 -5 40 -24 73 -74 34 -54 59 -78 117 -116 40
-26 78 -54 85 -62 18 -21 3 -29 -17 -9 -23 23 -101 17 -167 -13 l-48 -21 21
-23 c12 -13 26 -30 30 -39 7 -13 5 -15 -13 -12 -13 3 -31 -4 -44 -16 -12 -12
-26 -21 -30 -21 -5 0 -14 -9 -21 -20 -7 -11 -20 -20 -29 -20 -16 0 -16 -1 0
-13 16 -11 14 -14 -19 -32 -29 -15 -35 -23 -31 -43 4 -19 -7 -12 -49 35 -29
33 -67 66 -84 73 -16 7 -30 14 -30 16 0 2 14 27 31 56 68 116 164 186 271 196
32 2 58 9 58 15 0 15 -108 -2 -164 -27 -67 -30 -134 -97 -181 -180 l-37 -67
17 -45 c9 -25 15 -48 12 -51 -3 -2 -20 0 -39 7 -30 11 -45 7 -168 -39 -74 -29
-148 -61 -163 -72 -24 -18 -32 -19 -64 -8 -37 12 -160 8 -265 -10 -64 -10
-151 -53 -178 -89 -10 -13 -47 -37 -82 -54 -86 -41 -207 -144 -272 -230 -24
-33 -34 -38 -67 -38 -36 0 -39 -2 -39 -29 0 -28 -3 -30 -72 -46 -40 -10 -104
-29 -142 -42 -85 -28 -86 -28 -86 0 0 13 -5 28 -12 35 -18 18 -94 15 -112 -4
-28 -27 -16 -138 12 -120 6 4 16 -2 22 -14 10 -19 11 -19 38 8 15 15 19 18 10
7 -25 -30 -22 -41 15 -55 63 -23 244 -61 397 -83 l155 -22 -135 -8 c-153 -9
-313 -2 -413 17 -53 10 -65 10 -55 1 20 -19 125 -55 208 -71 118 -23 364 -36
435 -23 69 13 75 13 170 6 143 -10 459 44 563 97 57 29 112 73 112 89 0 7 -7
25 -15 41 -20 39 -12 44 19 13 33 -33 33 -67 1 -106 -68 -80 -287 -136 -647
-166 l-78 -7 0 -38 c0 -37 1 -39 38 -43 20 -2 0 -4 -46 -5 -57 -1 -81 1 -77 9
4 6 4 26 1 45 l-7 34 -67 0 c-94 0 -279 17 -392 36 -112 19 -189 44 -242 79
-32 21 -202 90 -243 98 -5 1 -102 -35 -215 -79 -113 -45 -266 -105 -340 -134
-74 -28 -146 -62 -159 -75 -23 -23 -23 -24 -16 -160 l7 -136 34 -22 c23 -15
35 -32 38 -52 3 -16 26 -291 51 -610 25 -319 49 -610 52 -646 l6 -66 -33 -13
c-18 -7 -46 -24 -61 -38 -31 -26 -35 -53 -23 -146 6 -43 9 -47 58 -71 60 -28
25 -25 1276 -110 898 -61 1456 -100 2070 -145 223 -17 466 -35 540 -40 74 -6
257 -19 405 -30 149 -11 320 -24 381 -30 60 -5 356 -10 656 -10 l547 0 4 22 4
23 2 -22 c1 -22 5 -23 91 -23 l90 0 128 74 c312 181 508 298 521 311 9 9 16
43 19 93 l4 79 -37 30 -37 31 16 188 c15 175 35 452 70 982 l15 212 29 29 c26
27 29 37 35 122 4 51 7 124 7 164 0 120 -9 124 -385 150 -132 9 -258 20 -280
24 -37 7 -40 9 -37 36 2 17 1 49 -3 73 -6 38 -11 46 -43 59 -42 18 -141 20
-171 4 -14 -8 -36 -7 -79 4 -154 40 -324 57 -613 62 -293 6 -498 -8 -643 -41
l-56 -13 0 32 c0 41 -20 58 -68 58 -65 0 -82 -10 -82 -48 0 -61 -4 -64 -83
-58 -93 7 -144 -12 -149 -54 -2 -15 -9 -28 -15 -27 -7 1 -31 2 -54 3 -51 1
-48 19 7 38 83 29 236 217 270 330 15 51 17 53 56 59 22 4 59 21 82 38 27 21
53 32 77 33 20 0 49 8 64 16 21 11 36 12 61 4 28 -9 49 -4 141 28 203 71 268
107 299 166 9 19 24 29 51 34 89 16 161 87 185 181 7 29 25 63 44 84 43 46 60
95 89 265 31 174 33 292 6 336 l-19 31 28 42 c148 222 180 283 180 341 0 48
-12 68 -55 94 -22 13 -35 28 -35 41 0 27 -43 67 -82 75 -20 5 -33 16 -39 35
-9 25 -29 40 -72 54 -10 3 -35 -1 -55 -9 -59 -25 -64 -15 -32 67 16 40 29 80
30 89 0 9 14 46 31 82 17 36 33 90 36 119 5 47 2 58 -18 81 -33 38 -77 44
-112 17 -29 -23 -44 -53 -82 -160 -13 -36 -38 -101 -57 -145 -19 -44 -38 -96
-42 -115 -3 -19 -15 -44 -26 -55 -11 -12 -31 -48 -43 -81 -21 -54 -28 -62 -82
-91 -66 -35 -84 -62 -85 -130 0 -46 47 -186 83 -246 l23 -39 -27 -29 c-14 -16
-29 -41 -33 -56 -10 -47 -43 -223 -60 -318 -9 -49 -15 -107 -14 -128 l3 -39
-94 -34 -94 -33 -76 37 c-72 35 -80 37 -171 36 -106 -1 -139 -12 -213 -68 -41
-31 -49 -34 -79 -25 -51 14 -124 11 -138 -6 -7 -8 -17 -12 -23 -8 -5 3 -26 6
-45 5 -44 -2 -31 11 28 27 55 15 219 111 271 158 l38 34 48 -17 c47 -17 49
-17 125 10 42 14 85 26 96 26 30 0 137 83 175 136 57 78 72 133 72 264 0 112
-1 116 -35 179 -19 36 -57 89 -84 118 -51 56 -51 55 -47 174 1 41 -26 108 -59
145 -16 19 -30 42 -30 52 0 42 -138 206 -249 294 -110 88 -242 147 -441 198
-125 32 -321 28 -467 -10z m308 -225 c46 -8 110 -23 142 -34 70 -24 185 -80
194 -94 3 -6 -5 -20 -18 -32 -13 -12 -37 -37 -54 -56 -16 -18 -4 -10 27 19 31
28 62 52 69 52 7 0 46 -35 88 -77 53 -55 88 -101 115 -155 35 -70 38 -81 31
-125 -4 -26 -9 -84 -10 -128 -2 -56 -11 -101 -29 -150 -41 -114 -55 -191 -61
-349 -3 -81 -8 -152 -11 -157 -3 -6 -3 -28 1 -50 6 -35 10 -40 29 -35 18 4 18
2 -7 -19 -76 -66 -269 -152 -383 -171 -37 -5 -42 -4 -47 16 -4 16 -2 19 7 11
8 -7 28 -6 62 3 60 16 224 93 224 106 0 5 8 11 18 14 25 9 82 65 82 82 0 12
-4 12 -20 4 -16 -9 -18 -8 -14 5 4 8 3 15 0 15 -11 0 -126 -92 -126 -101 0 -5
-9 -9 -21 -9 -11 0 -17 -5 -14 -10 3 -6 -2 -13 -12 -16 -10 -3 -36 -14 -58
-24 -56 -27 -144 -50 -149 -41 -3 4 -8 27 -12 50 -4 23 -11 44 -16 47 -9 6 -4
-27 13 -80 11 -37 11 -56 -1 -36 -7 13 -23 14 -97 8 -99 -8 -231 -1 -250 15
-9 7 -13 5 -13 -5 0 -18 33 -35 85 -44 75 -12 192 -15 244 -6 47 9 74 2 57
-15 -12 -13 -257 -15 -337 -4 -211 30 -404 135 -486 264 -35 56 -87 207 -108
312 -23 118 -16 337 13 435 46 151 114 265 217 361 55 51 165 129 183 129 4 0
23 8 42 19 117 62 264 82 411 56z m1798 -341 c9 -20 7 -39 -9 -96 -11 -39 -22
-73 -25 -76 -3 -3 -15 4 -28 16 -13 12 -37 27 -55 33 -20 7 -32 18 -32 29 0
31 37 107 60 123 29 20 73 6 89 -29z m86 -64 c39 -15 48 -52 29 -121 -9 -33
-21 -62 -25 -65 -5 -2 -28 8 -51 23 -24 15 -44 28 -46 29 -9 5 44 144 55 144
6 0 23 -4 38 -10z m-2838 -102 c-41 -56 -67 -151 -45 -164 4 -3 8 -15 8 -27
-1 -22 -1 -22 -14 1 -12 23 -13 22 -17 -20 -16 -187 26 -378 105 -467 l21 -23
-40 16 c-66 28 -90 59 -116 149 -20 67 -24 105 -24 209 0 71 -3 128 -7 128 -5
0 -8 9 -8 21 0 13 5 19 13 16 10 -4 20 17 36 70 23 79 56 123 91 123 21 0 21
0 -3 -32z m1930 -141 c36 -34 42 -45 30 -50 -9 -3 -27 6 -46 24 -36 34 -50 36
-84 9 -57 -45 -81 -119 -38 -120 9 0 25 -7 35 -15 16 -12 18 -19 8 -39 -11
-24 -12 -24 -41 -10 -36 18 -70 11 -69 -14 0 -9 -4 -30 -9 -47 -5 -16 -9 -88
-9 -160 1 -101 5 -139 18 -169 18 -38 18 -38 43 -22 24 16 75 22 75 10 0 -4
-8 -13 -17 -21 -16 -12 -15 -13 12 -7 23 4 26 3 15 -5 -8 -6 -31 -8 -50 -6
-19 3 -29 2 -22 -1 21 -10 2 -24 -33 -24 -45 0 -81 38 -102 110 -19 65 -21
286 -3 321 7 11 9 36 6 54 -8 41 1 64 29 75 12 5 29 24 39 43 9 20 32 52 51
71 29 30 42 36 75 36 35 0 48 -7 87 -43z m65 -94 c9 -10 22 -31 30 -48 51
-102 13 -330 -68 -411 -37 -36 -64 -43 -83 -20 -10 12 -9 14 6 10 36 -8 91 60
122 154 35 104 24 217 -28 291 -28 39 -9 58 21 24z m276 -216 c-13 -43 -11
-46 28 -49 32 -2 64 -24 64 -45 0 -19 -18 -16 -32 6 -10 17 -13 17 -27 4 -14
-14 -11 -20 32 -58 48 -44 118 -75 169 -75 l28 0 0 95 c0 69 3 95 13 95 6 0
30 -32 52 -70 l39 -69 21 39 c22 43 80 110 95 110 5 0 17 -12 26 -26 41 -61
-9 -444 -71 -550 -27 -45 -91 -83 -154 -90 -20 -2 -30 -2 -23 2 6 3 12 21 12
40 0 19 9 74 19 122 11 48 25 119 31 157 6 39 13 78 16 88 5 15 -2 17 -53 17
-32 0 -85 7 -118 16 -101 26 -97 27 -111 -46 -7 -36 -24 -103 -39 -150 -14
-47 -28 -98 -31 -113 -2 -16 -6 -34 -7 -40 -1 -7 3 -11 9 -10 6 1 11 -4 11
-12 0 -11 -4 -11 -22 1 -39 25 -87 103 -92 148 -5 43 47 350 72 425 13 40 43
86 51 78 2 -2 -2 -20 -8 -40z m-405 -549 c31 -15 57 -32 57 -37 0 -6 -21 -11
-49 -11 -55 0 -130 -35 -169 -78 -13 -15 -37 -55 -53 -89 -24 -51 -33 -63 -52
-62 -14 1 -16 3 -6 6 18 4 39 44 39 73 0 17 -7 20 -51 20 -47 0 -84 18 -84 42
0 4 -3 8 -7 8 -5 0 -12 0 -18 0 -5 0 -10 -8 -11 -17 0 -16 -1 -16 -8 1 -6 16
-11 12 -29 -25 -18 -35 -21 -38 -15 -14 11 53 21 73 59 115 69 76 131 100 249
97 74 -2 101 -7 148 -29z m297 16 c0 -3 -15 -20 -34 -37 -26 -25 -36 -44 -41
-82 -17 -108 31 -232 110 -287 66 -46 120 -47 183 -2 13 10 22 12 22 5 0 -21
-105 -80 -221 -125 -131 -50 -177 -61 -211 -50 -20 6 -16 10 32 25 30 9 91 32
135 49 44 17 93 35 110 39 29 7 29 7 -20 25 -61 24 -126 83 -150 136 -10 22
-21 37 -24 31 -10 -14 -144 -51 -190 -51 -23 0 -51 -5 -62 -10 -18 -10 -19 -7
-19 43 0 66 37 146 86 185 51 41 294 129 294 106z m-1794 -131 c-27 -39 -26
-53 5 -53 23 0 23 -3 3 -41 -21 -41 -11 -49 12 -10 21 36 36 38 95 11 24 -11
38 -20 30 -20 -21 0 -8 -9 29 -20 26 -7 31 -7 22 2 -7 7 -12 18 -12 25 0 8 16
-2 35 -21 21 -21 56 -42 90 -52 35 -11 55 -23 56 -33 0 -11 2 -12 6 -3 3 7 24
12 56 12 85 0 184 27 264 70 42 22 78 38 81 35 3 -3 -1 -5 -8 -5 -11 0 -11 -3
-3 -11 9 -9 20 -9 40 -1 15 5 56 16 91 23 34 6 65 16 68 20 3 5 14 9 24 9 10
0 21 6 24 13 3 6 3 -31 -1 -83 -10 -121 -10 -240 -1 -310 4 -30 5 -47 2 -37
-3 9 -14 17 -25 17 -11 0 -19 -7 -19 -17 -1 -41 -23 23 -35 101 -7 45 -13 68
-14 51 0 -16 4 -59 9 -93 6 -35 8 -71 5 -80 -3 -10 -32 -35 -65 -56 -33 -22
-60 -43 -60 -46 0 -4 -6 -7 -13 -7 -6 0 -32 -12 -57 -28 -25 -16 -64 -34 -88
-41 -42 -13 -44 -12 -90 20 -51 36 -122 69 -189 86 -37 9 -43 15 -44 38 l-2
27 -4 -27 c-4 -26 -7 -27 -81 -31 -42 -2 -86 -7 -98 -11 -17 -6 -28 2 -63 48
-46 61 -58 68 -63 34 -5 -39 -21 -25 -39 34 -16 53 -35 164 -31 181 1 4 -2 7
-7 7 -5 0 -7 10 -3 22 3 13 1 19 -5 15 -6 -4 -18 -35 -27 -69 -15 -57 -16 -71
-3 -143 9 -47 30 -113 52 -160 40 -84 59 -145 44 -145 -13 0 -78 140 -96 210
-10 40 -17 107 -17 175 -1 95 3 121 27 194 33 98 61 157 90 189 30 32 31 27 3
-15z m-507 -173 c21 -10 52 -30 68 -44 32 -27 103 -136 103 -158 0 -14 -215
-105 -260 -110 -21 -3 -29 6 -57 57 -17 33 -53 79 -78 103 -42 38 -52 42 -98
42 -39 0 -48 3 -39 12 16 16 272 116 300 117 12 1 40 -8 61 -19z m-448 -101
c85 -18 170 -112 185 -205 l6 -42 -63 -7 c-84 -9 -97 -13 -101 -33 -3 -9 -10
7 -16 36 -16 73 -67 133 -145 172 -77 38 -134 40 -203 5 -64 -33 -76 -31 -37
5 34 31 62 40 188 63 103 19 123 19 186 6z m-251 -149 c50 -53 40 -129 -23
-181 -20 -16 -23 -16 -31 -1 -26 49 -84 66 -119 35 -16 -15 -21 -15 -25 -4 -8
23 -41 51 -61 51 -10 0 -29 -8 -42 -19 -23 -18 -23 -18 -34 3 -6 11 -19 20
-28 20 -32 -3 -17 13 50 52 101 59 140 73 216 73 64 1 71 -1 97 -29z m1089
-132 c12 -46 36 -110 54 -143 26 -49 40 -64 80 -83 42 -20 47 -26 47 -56 0
-23 7 -39 23 -50 15 -12 17 -16 5 -12 -11 3 -22 -2 -28 -14 -9 -17 -21 -20
-84 -20 -56 0 -75 4 -80 15 -8 21 -77 19 -114 -2 -29 -16 -32 -16 -49 -1 -14
13 -46 19 -116 24 l-97 7 0 31 c0 78 -25 96 -131 99 -71 1 -119 -16 -133 -49
l-9 -21 -69 26 c-64 24 -86 41 -54 41 8 0 28 13 46 30 30 28 33 29 87 19 50
-9 64 -7 156 21 238 73 242 75 271 131 6 12 33 28 63 38 28 10 62 25 75 34 12
9 26 16 29 16 3 1 16 -36 28 -81z m-892 -143 c18 -13 22 -27 25 -95 l3 -79
-22 14 c-12 8 -31 15 -41 15 -29 0 -43 23 -49 84 -5 52 -4 56 18 65 34 14 42
13 66 -4z m3398 -195 c210 -24 424 -69 445 -95 7 -9 6 -16 -5 -25 -13 -10 -21
-11 -43 0 -71 33 -180 63 -317 88 -143 25 -165 27 -455 26 -265 -1 -321 -4
-429 -23 -68 -12 -125 -20 -128 -17 -12 12 196 44 362 56 148 10 437 5 570
-10z m-140 -155 c66 -18 91 -35 82 -59 -30 -77 -514 -89 -589 -14 -25 25 -20
39 24 61 76 38 359 45 483 12z m-4950 -21 c-11 -8 -45 -22 -75 -31 -30 -8
-106 -40 -167 -69 -118 -56 -136 -76 -86 -95 14 -5 166 -20 337 -32 230 -16
295 -24 251 -28 -33 -3 -51 -7 -40 -8 11 -1 29 -4 40 -7 53 -11 200 -24 400
-34 121 -6 263 -15 315 -20 52 -5 118 -9 145 -8 46 1 44 2 -20 8 -212 22 -300
30 -499 46 -120 10 -214 20 -208 22 11 3 209 -9 512 -32 102 -8 280 -19 395
-26 250 -14 497 -37 415 -39 -60 -1 -110 -20 -55 -21 17 0 120 -7 230 -15 110
-7 308 -21 440 -30 132 -8 303 -20 380 -26 77 -5 228 -14 335 -19 107 -5 233
-12 279 -16 63 -5 82 -4 77 4 -4 7 -22 12 -39 13 -18 0 -26 3 -20 6 7 2 108
-2 225 -11 117 -9 256 -18 308 -22 52 -4 131 -10 175 -15 84 -8 35 -7 -245 6
-118 5 -58 -10 75 -19 50 -3 149 -10 220 -16 197 -15 456 -30 495 -29 29 0 31
2 15 9 -11 5 -40 9 -65 10 -25 1 -39 4 -32 7 15 6 437 -14 662 -31 91 -8 228
-13 305 -12 128 2 145 4 195 28 30 14 82 45 115 70 88 65 426 284 387 251 -38
-33 -45 -60 -9 -41 12 7 26 19 30 26 5 7 17 10 27 7 12 -4 36 5 62 21 58 38
128 94 128 103 0 16 -52 31 -105 31 -35 0 -55 4 -55 11 0 17 126 2 156 -18 33
-21 30 -37 -13 -68 -21 -14 -87 -61 -148 -103 -283 -200 -472 -325 -514 -341
l-46 -19 -7 -108 c-4 -60 -10 -114 -13 -121 -2 -7 -20 -13 -39 -13 -27 0 -33
4 -31 18 2 9 6 61 9 115 l5 97 -112 0 c-61 0 -211 7 -332 15 -347 23 -670 44
-935 60 -444 27 -717 44 -1390 90 -1054 70 -1545 104 -1680 115 -378 30 -974
65 -1280 76 -96 3 -184 6 -195 7 -17 2 -21 -5 -23 -43 -2 -25 -1 -68 3 -97 l6
-52 57 -6 c31 -3 91 -10 132 -16 41 -5 125 -16 185 -23 l110 -14 -135 4 c-206
8 -401 23 -443 35 -20 5 -43 20 -51 32 -15 24 -30 245 -18 263 10 16 60 40
149 73 217 80 327 121 331 126 3 3 10 5 16 5 6 0 2 -7 -9 -16z m3856 -29 c-44
-51 -43 -93 6 -136 112 -98 416 -170 733 -172 332 -3 536 8 673 36 192 41 300
88 338 150 27 45 24 71 -12 112 -17 19 -28 35 -24 35 17 0 85 -56 85 -71 0 -8
16 -32 35 -53 25 -28 35 -47 34 -70 0 -17 -3 -24 -6 -16 -3 8 -18 29 -33 46
l-27 31 -27 -33 c-71 -89 -265 -150 -601 -190 -66 -7 -126 -14 -133 -14 -9 0
-12 -13 -10 -42 3 -42 4 -43 43 -49 22 -4 -10 -6 -75 -6 -63 0 -105 2 -92 4
19 4 22 11 22 47 l0 43 -151 7 c-306 14 -557 60 -696 128 -87 42 -153 102
-153 139 0 12 19 41 44 65 52 53 71 58 27 9z m-767 -181 c24 -9 20 -27 -13
-58 -29 -28 -31 -28 -107 -20 -43 5 -79 14 -81 21 -2 6 9 23 24 37 24 23 37
26 95 26 36 0 73 -3 82 -6z m-1941 -422 c60 -27 81 -60 74 -115 -5 -36 -15
-51 -66 -98 -61 -56 -66 -69 -27 -69 36 0 83 -36 102 -79 28 -61 47 -53 78 32
15 39 46 116 69 170 37 86 45 97 63 93 11 -3 29 1 40 9 10 8 27 15 37 15 9 0
17 5 17 10 0 6 5 10 10 10 6 0 10 -9 10 -20 0 -11 4 -28 9 -38 6 -9 18 -71 28
-137 17 -112 20 -120 41 -123 15 -2 22 -9 18 -17 -3 -8 -1 -17 3 -20 5 -2 14
16 20 41 26 104 97 195 184 239 50 25 97 32 111 18 4 -4 14 -8 23 -8 24 0 56
-50 55 -85 -1 -50 -21 -100 -38 -93 -8 3 -14 0 -14 -6 0 -6 -4 -11 -9 -11 -18
0 -41 32 -41 56 0 57 -86 0 -132 -89 -29 -57 -31 -146 -3 -177 26 -29 78 -23
137 17 23 17 54 36 68 43 23 12 24 12 12 -3 -8 -9 -12 -23 -10 -31 2 -13 8
-12 30 7 25 20 30 36 53 174 31 185 37 203 64 196 13 -3 21 -1 21 7 0 7 8 9
20 5 11 -4 20 -2 20 4 0 19 15 12 26 -14 9 -18 8 -39 -2 -87 -7 -35 -13 -67
-14 -71 0 -10 19 4 139 105 50 43 97 75 104 72 7 -2 24 7 37 21 37 39 46 29
10 -11 -17 -20 -29 -39 -25 -42 3 -3 11 0 17 6 17 17 33 15 18 -3 -6 -8 -9
-19 -5 -25 9 -14 -13 -39 -90 -103 -33 -27 -79 -67 -103 -89 l-43 -39 97 -120
c53 -66 98 -118 101 -115 2 2 -1 13 -8 23 -13 22 -4 97 12 88 5 -4 9 -1 9 5 0
7 6 10 14 7 7 -3 18 -1 23 4 5 5 14 -5 22 -26 8 -23 20 -37 37 -41 36 -9 94 2
124 24 45 34 33 52 -70 105 -111 56 -138 79 -146 122 -11 60 38 120 138 171
119 60 228 31 228 -61 0 -29 -28 -90 -37 -81 -3 3 -12 -2 -19 -12 -8 -10 -13
-12 -14 -4 0 6 -7 12 -15 12 -10 0 -15 10 -15 30 0 37 -18 39 -80 8 -67 -34
-61 -52 35 -104 44 -23 99 -60 123 -81 35 -32 42 -45 42 -75 0 -44 -33 -87
-94 -123 -76 -44 -219 -83 -201 -55 3 6 1 10 -5 10 -6 0 -29 9 -50 19 -22 11
-40 17 -40 14 0 -2 21 -31 46 -64 25 -32 43 -59 41 -59 -2 0 -27 18 -57 40
-29 22 -56 38 -59 35 -2 -3 1 -11 7 -17 24 -24 11 -29 -19 -8 -24 18 -39 21
-77 17 -42 -5 -44 -5 -19 5 15 7 27 15 27 19 0 4 -28 36 -63 71 -35 35 -79 82
-99 105 l-35 43 -16 -75 c-10 -42 -17 -84 -17 -95 0 -11 -4 -20 -10 -20 -5 0
-7 7 -4 15 4 8 2 15 -3 15 -12 0 -33 -44 -34 -73 -1 -12 -5 -4 -8 18 -5 31
-10 40 -24 38 -17 -1 -18 6 -15 63 2 35 1 64 -2 64 -3 0 -30 -25 -60 -56 -62
-63 -120 -104 -149 -104 -35 0 -109 40 -140 75 -17 20 -36 56 -42 80 -10 41
-30 58 -43 37 -3 -5 2 -40 10 -78 17 -82 17 -94 3 -74 -8 11 -9 1 -6 -40 l5
-55 -16 38 c-9 22 -20 36 -28 33 -7 -3 -15 6 -19 22 -7 25 -8 25 -15 7 -10
-25 -14 -15 -33 70 -15 67 -10 65 -113 44 -51 -10 -52 -10 -73 -69 -12 -33
-28 -60 -36 -60 -7 0 -19 -13 -27 -30 -17 -38 -24 -38 -32 2 -6 30 -7 31 -21
12 -19 -25 -19 -10 1 56 22 75 4 84 -56 25 -25 -24 -75 -63 -113 -88 -37 -24
-64 -46 -61 -50 4 -3 -20 -19 -52 -34 -80 -38 -78 -37 -70 -24 4 6 1 11 -8 11
-9 0 -18 -12 -22 -27 -9 -44 -12 -50 -13 -25 -1 12 -5 22 -10 22 -14 0 -21
-28 -21 -87 0 -31 -3 -53 -7 -49 -9 8 -9 13 -11 74 -2 45 -18 57 -25 20 l-4
-23 -8 23 c-8 24 -15 24 -72 6 -17 -5 -17 -5 1 10 20 16 13 41 -10 32 -8 -3
-14 -1 -14 5 0 5 7 12 15 15 21 9 19 27 -2 20 -24 -8 14 23 55 45 29 16 30 19
31 95 1 44 4 94 7 112 5 25 3 32 -10 32 -15 0 -21 17 -16 49 1 8 -4 17 -10 21
-8 5 -1 12 18 21 35 15 39 27 48 121 l7 68 -59 -24 c-54 -22 -95 -25 -63 -5
11 7 11 11 1 21 -10 10 -23 9 -65 -6 -84 -30 -86 -29 -15 8 61 33 105 69 65
53 -10 -3 -17 -2 -17 3 0 21 161 89 261 110 68 14 190 5 242 -18z m-1414 -282
c12 -135 26 -294 31 -355 21 -223 40 -499 39 -549 l-1 -51 -8 55 c-17 111 -71
775 -86 1035 -11 200 3 125 25 -135z m3891 222 c0 -5 6 -53 14 -108 8 -54 18
-122 21 -151 6 -43 10 -52 30 -57 16 -4 22 -11 19 -21 -4 -8 -2 -15 4 -15 5 0
17 21 27 48 26 68 55 111 114 165 64 60 141 97 203 97 66 0 96 -14 115 -55 16
-33 16 -37 -3 -82 -12 -28 -26 -47 -34 -45 -7 2 -17 -2 -21 -9 -11 -18 -39 14
-39 45 0 72 -150 -25 -200 -129 -25 -51 -26 -122 -3 -147 24 -27 80 -23 127
10 57 39 57 52 2 52 -34 0 -46 4 -47 15 -5 70 -5 70 37 76 21 4 78 10 126 14
l87 7 -3 -33 c-2 -19 -13 -59 -24 -89 -11 -30 -33 -95 -48 -145 -19 -64 -29
-84 -34 -70 -8 23 -17 11 -36 -49 l-13 -41 0 48 c-1 47 -15 63 -25 30 -3 -10
-4 6 -2 35 2 28 2 52 1 52 -1 0 -23 -11 -49 -25 -56 -30 -71 -31 -128 -6 -70
30 -118 94 -118 157 0 19 -5 24 -25 24 -21 0 -24 -4 -20 -27 19 -112 21 -133
14 -133 -4 0 -10 6 -13 13 -3 6 -4 -14 -1 -46 6 -63 -8 -71 -19 -11 -4 21 -12
34 -19 31 -7 -2 -17 5 -24 17 -7 12 -12 15 -13 9 0 -7 -4 -13 -8 -13 -5 0 -15
32 -22 71 l-12 71 -62 -6 c-105 -12 -105 -12 -142 -90 -19 -39 -34 -63 -34
-54 0 28 -25 10 -49 -35 -20 -39 -21 -40 -17 -12 5 33 -11 70 -21 48 -2 -7 -8
-13 -13 -13 -5 0 2 26 15 58 17 41 20 58 11 60 -15 3 -17 62 -3 62 5 0 4 7 -3
15 -10 12 -7 15 17 20 15 4 31 7 35 8 7 2 128 240 124 244 -3 3 -210 -27 -213
-31 -2 -2 -27 -99 -57 -217 -30 -118 -55 -200 -55 -184 -2 29 -2 29 -17 10 -9
-11 -25 -38 -36 -60 l-19 -40 6 52 c3 31 1 54 -5 58 -5 3 -10 1 -10 -4 0 -6
-4 -11 -10 -11 -12 0 -5 58 30 235 16 77 26 142 24 144 -2 2 -29 -1 -60 -8
-77 -15 -112 -15 -96 1 8 8 9 15 1 25 -8 9 -8 17 0 26 7 9 7 17 0 24 -18 18
14 32 97 43 43 6 90 16 104 22 31 13 264 20 293 8 l22 -8 -24 -9 c-22 -9 -23
-10 -5 -17 18 -7 17 -8 -5 -20 -24 -13 -24 -13 13 -18 34 -4 39 -1 57 32 17
29 27 37 52 37 47 2 97 14 97 24 0 5 5 9 10 9 6 0 10 -4 10 -8z m1105 -106
c10 -9 25 -14 35 -11 10 3 21 1 24 -4 4 -5 -13 -13 -38 -16 -25 -4 -53 -13
-63 -21 -17 -12 -16 -13 7 -14 55 -1 -5 -18 -84 -24 -160 -13 -174 -16 -179
-39 -3 -12 -9 -33 -13 -46 -7 -23 -6 -23 62 -21 38 2 82 2 98 1 28 -1 29 -2
10 -16 -19 -14 -18 -14 4 -15 33 0 27 -16 -10 -25 -28 -6 -30 -8 -14 -14 30
-11 4 -18 -100 -26 l-90 -7 -11 -37 c-6 -20 -14 -43 -17 -51 -5 -13 14 -15
148 -12 97 3 161 0 173 -7 15 -9 13 -10 -17 -11 -67 -1 -8 -20 65 -21 81 -2
71 -5 -38 -14 -42 -4 -75 -11 -71 -16 3 -5 17 -9 31 -9 15 0 24 -2 22 -4 -2
-2 -76 -10 -164 -16 -88 -7 -172 -18 -187 -25 -20 -10 -28 -10 -31 -1 -3 6 -9
0 -15 -14 -9 -22 -11 -23 -17 -7 -5 11 -18 17 -37 17 -22 0 -29 4 -25 14 3 8
3 17 -1 21 -4 3 -7 19 -8 35 -1 22 3 30 19 32 27 4 65 107 45 123 -20 16 -10
73 13 80 20 7 30 25 43 77 5 22 2 27 -16 30 -22 3 -34 43 -16 54 4 3 8 13 8
23 0 32 65 50 184 50 60 1 112 4 115 7 13 13 140 -3 156 -20z m-2646 -561 c33
-10 69 -31 88 -50 33 -33 34 -35 18 -64 -14 -28 -82 -74 -160 -110 l-30 -14
35 -8 c88 -22 111 -31 140 -55 23 -20 30 -34 30 -62 0 -31 -8 -44 -53 -87 -60
-56 -108 -82 -241 -132 -68 -25 -81 -32 -51 -29 51 7 41 2 -68 -29 -95 -27
-110 -30 -87 -15 12 8 12 10 -5 9 -11 0 -38 -6 -59 -12 -31 -10 -42 -19 -52
-47 l-12 -35 -1 32 c-1 24 -5 31 -15 27 -17 -7 -31 -41 -45 -114 -10 -54 -10
-53 -5 23 5 71 3 78 -13 75 -9 -2 -20 -14 -24 -28 l-6 -25 -7 26 c-7 25 -10
26 -49 18 -23 -4 -44 -6 -45 -4 -11 10 49 27 106 30 41 2 114 17 187 40 66 20
150 45 187 56 77 22 201 70 195 75 -2 2 -30 -5 -62 -17 -32 -11 -64 -18 -71
-15 -7 3 -15 0 -17 -7 -3 -9 -7 -9 -19 0 -8 7 -27 14 -42 15 -14 1 -26 5 -26
9 0 3 -7 6 -15 6 -8 0 -15 -3 -15 -6 0 -4 -12 -8 -26 -9 -15 -1 -49 -9 -77
-17 -54 -16 -89 -20 -71 -7 10 7 34 65 34 83 0 12 -98 5 -109 -7 -5 -5 -12
-26 -15 -47 -6 -29 -4 -37 5 -32 7 5 10 3 7 -6 -3 -8 -33 -22 -68 -31 -65 -18
-86 -28 -56 -28 9 0 14 -5 11 -10 -4 -6 -12 -7 -18 -3 -7 4 -6 0 2 -10 12 -15
10 -17 -25 -16 -34 0 -36 2 -16 9 24 10 30 30 10 30 -22 1 23 22 70 34 l45 12
24 89 c12 50 26 101 29 114 6 20 4 23 -10 18 -11 -4 -15 -3 -10 4 4 6 1 15 -7
19 -10 7 -10 11 0 24 11 13 11 16 1 16 -20 0 -2 14 32 26 27 9 35 21 60 88
l28 79 -37 -7 c-95 -16 -118 -17 -104 -8 16 12 6 32 -17 33 -13 0 -14 2 -2 6
8 3 23 15 35 25 20 19 20 19 -10 12 -25 -5 -28 -4 -18 7 7 7 59 23 115 35 90
20 125 23 273 20 126 -2 184 -8 224 -21z m793 -3 c2 -5 37 -5 78 -1 41 4 111
8 155 7 l80 0 -50 -13 c-48 -13 -49 -13 -15 -15 l35 -2 -35 -14 c-34 -13 -34
-14 -5 -10 101 15 393 27 415 18 l25 -11 -25 -1 c-22 -1 -23 -2 -7 -11 10 -6
25 -8 33 -5 8 3 14 2 14 -3 0 -5 -24 -15 -52 -24 -43 -12 -47 -16 -24 -16 68
-2 4 -20 -112 -32 l-124 -13 -19 -37 c-10 -21 -19 -41 -19 -45 0 -4 35 -3 79
0 43 4 91 4 107 0 l29 -8 -25 -7 -25 -6 25 -11 c14 -6 20 -11 13 -11 -6 -1
-24 -6 -40 -12 -26 -10 -26 -12 -8 -19 14 -5 -2 -9 -50 -14 -154 -15 -151 -14
-164 -54 -7 -21 -15 -42 -17 -49 -4 -8 45 -10 193 -8 109 2 181 1 161 -1 -70
-9 -31 -32 61 -36 25 -1 18 -3 -24 -8 -33 -4 -80 -10 -104 -15 -32 -6 -42 -5
-37 3 4 7 16 12 27 12 11 0 17 5 14 10 -3 6 -15 10 -26 10 -13 0 -18 4 -13 11
5 9 -21 10 -102 5 -60 -4 -124 -10 -143 -13 -33 -6 -34 -5 -27 23 4 16 8 33 9
39 1 5 -13 11 -30 13 -18 2 -33 7 -33 13 0 5 -4 9 -8 9 -9 0 -39 -80 -34 -93
1 -4 -11 -12 -26 -18 -24 -8 -28 -15 -24 -34 3 -21 0 -25 -18 -25 -19 0 -21 2
-9 16 10 13 10 17 0 24 -9 5 -3 11 21 19 28 9 36 19 48 59 18 57 18 68 3 65
-10 -2 -11 33 -3 57 2 3 2 8 1 12 0 4 11 11 25 14 39 10 74 104 39 104 -12 0
-12 5 -5 26 10 26 9 26 -22 21 -18 -3 -63 -9 -99 -13 l-67 -6 -51 -137 c-100
-263 -116 -303 -119 -288 -2 8 7 38 19 68 37 94 42 118 25 134 -9 10 -17 11
-21 5 -4 -6 -21 -9 -39 -7 -33 4 -34 3 -56 -61 -15 -41 -19 -66 -13 -71 21
-13 23 -50 5 -97 l-18 -49 335 -2 c185 -1 352 -5 371 -10 22 -6 -82 -8 -275
-5 -450 6 -774 -19 -1072 -84 -40 -9 -73 -18 -73 -21 0 -7 71 1 305 32 263 35
640 61 650 45 3 -5 108 -7 233 -5 212 3 218 3 82 -5 -368 -22 -534 -40 -699
-75 -41 -8 -76 -13 -79 -10 -15 15 252 68 398 78 25 2 7 4 -40 5 -134 3 -497
-36 -791 -84 -52 -8 -111 -14 -130 -12 l-34 3 31 17 c73 40 279 80 534 103
248 23 240 21 256 75 24 81 12 127 -15 54 -7 -19 -15 -33 -18 -31 -5 5 63 221
108 344 13 35 21 65 18 68 -3 2 -34 0 -70 -5 -147 -22 -136 -22 -116 -6 18 14
18 15 0 24 -17 10 -17 11 2 32 16 18 17 23 5 30 -22 14 19 25 140 40 58 7 110
16 115 20 6 5 21 10 35 13 14 2 28 5 32 6 3 0 8 -3 10 -7z m1088 -20 c19 -9
37 -26 39 -37 2 -11 8 -23 14 -27 17 -11 -28 -99 -47 -92 -9 3 -17 -3 -22 -18
l-7 -23 -9 24 c-7 19 -11 21 -22 11 -12 -9 -15 -6 -18 22 -3 31 -5 33 -40 32
-45 -1 -153 -53 -153 -73 0 -10 47 -33 130 -66 160 -63 209 -88 229 -117 20
-28 20 -67 1 -92 -8 -10 -12 -23 -9 -27 3 -5 -1 -9 -8 -9 -7 0 -22 -8 -33 -16
-18 -14 -15 -15 50 -9 39 3 80 8 93 11 12 2 22 0 22 -4 0 -5 -48 -14 -108 -20
-74 -8 -124 -19 -162 -36 -30 -13 -90 -39 -133 -56 -43 -18 -75 -35 -72 -38 6
-6 -62 -36 -118 -52 -18 -6 -25 -5 -21 2 9 14 -21 4 -155 -53 -63 -27 -116
-47 -119 -44 -3 2 30 21 73 42 43 20 74 38 68 40 -5 2 -81 -21 -168 -52 -88
-30 -164 -55 -169 -55 -19 0 17 19 69 36 28 10 70 26 95 37 25 11 49 19 54 18
4 -1 33 8 64 19 31 12 74 21 97 22 43 1 253 70 357 117 l63 30 -57 0 c-32 1
-58 5 -58 10 0 5 -10 11 -22 14 -24 7 -311 -111 -418 -171 -80 -46 -121 -63
-133 -59 -12 4 197 107 375 186 192 84 294 137 301 155 7 19 -12 39 -50 54
-15 6 -77 30 -138 53 -114 44 -165 81 -165 119 0 35 26 75 67 102 74 49 93 58
165 83 86 29 159 32 208 7z m-1477 -18 c-3 -9 0 -20 7 -24 11 -7 5 -33 -27
-127 -23 -65 -53 -154 -69 -198 -44 -130 -76 -205 -69 -165 4 19 16 61 26 93
26 73 23 99 -13 104 -16 2 -28 -1 -28 -7 0 -5 -7 -10 -16 -10 -27 0 -44 -27
-60 -99 -9 -38 -22 -78 -29 -88 -12 -15 -12 -12 -4 27 5 25 20 79 33 120 13
41 38 122 55 180 42 136 70 198 81 180 7 -11 14 -12 35 -2 14 7 35 12 45 12
11 0 20 5 20 10 0 6 4 10 10 10 5 0 7 -7 3 -16z m-2345 -157 c15 -12 16 -63 1
-73 -17 -10 -97 -6 -135 6 -29 10 -34 16 -34 44 0 18 3 36 7 40 10 9 145 -4
161 -17z m250 -19 c20 -20 15 -69 -8 -75 -11 -3 -20 -8 -20 -12 0 -3 9 -12 20
-19 24 -15 28 -70 5 -78 -8 -3 -47 -2 -87 3 l-73 8 -3 37 c-3 35 -2 37 30 40
l33 3 -32 18 c-28 15 -33 23 -33 52 l0 35 78 0 c47 0 83 -5 90 -12z m4685
-144 c35 -6 37 -8 37 -45 l0 -39 -64 0 c-35 0 -78 3 -95 6 -28 6 -31 10 -31
45 l0 39 58 0 c31 0 74 -3 95 -6z m-8 -122 c38 -7 40 -9 40 -42 0 -34 -2 -35
-40 -38 -22 -2 -64 -1 -92 3 l-53 6 0 40 0 39 53 -1 c28 0 70 -3 92 -7z
m-5340 -121 c24 -6 128 -18 232 -26 104 -8 205 -20 224 -25 42 -12 265 -32
664 -60 165 -11 307 -22 315 -24 32 -7 -71 -5 -210 4 -250 17 -760 49 -885 55
-66 3 -166 8 -222 11 l-103 5 -1 -43 c-1 -24 -4 -33 -6 -20 -3 14 -11 22 -21
20 -11 -2 -18 6 -22 26 -4 22 -12 32 -35 38 -44 12 -55 4 -55 -42 0 -22 -5
-40 -10 -40 -7 0 -10 28 -8 77 3 70 5 79 27 89 20 11 27 9 49 -11 14 -13 44
-28 67 -34z m6595 29 c11 -21 23 -13 -265 -170 -93 -51 -219 -121 -280 -155
-60 -34 -139 -73 -173 -85 -35 -13 -67 -30 -70 -39 -8 -19 -42 -24 -42 -7 0
12 -30 15 -660 52 -420 24 -822 54 -670 49 74 -3 286 -14 470 -25 355 -22 567
-27 820 -21 134 3 162 7 207 26 72 32 193 104 217 129 39 40 240 151 256 141
10 -6 126 51 165 81 19 14 19 16 3 28 -22 16 -23 27 -3 20 9 -4 20 -15 25 -24z
m-1475 -10 c22 -8 26 -15 23 -42 -3 -31 -5 -33 -48 -36 -25 -1 -65 1 -90 6
-36 6 -46 12 -48 30 -7 45 3 52 72 52 36 0 77 -4 91 -10z m253 -22 c20 -20 15
-66 -8 -73 -30 -10 -153 5 -169 20 -9 8 -11 23 -7 39 6 25 8 26 89 26 51 0 88
-5 95 -12z"/>
<path d="M3182 4573 c-29 -6 -67 -57 -81 -110 -15 -57 -16 -196 -1 -266 15
-75 23 -69 10 9 -6 32 -9 82 -9 109 1 43 3 37 14 -40 7 -49 18 -114 24 -144 6
-30 9 -57 6 -59 -3 -3 -5 1 -5 8 0 7 -2 11 -5 8 -8 -7 16 -69 25 -63 4 2 12
-7 19 -21 14 -32 14 -37 -1 -28 -8 4 -10 3 -5 -2 5 -5 13 -10 18 -10 22 -3 23
-5 11 -13 -21 -13 33 -69 92 -96 76 -35 131 -40 220 -20 108 24 242 17 365
-19 82 -25 106 -28 200 -24 91 3 114 7 162 31 130 63 199 215 199 437 0 121
-17 193 -56 240 -54 63 -116 74 -259 44 -65 -13 -79 -14 -86 -2 -7 10 -9 10
-9 -3 0 -36 -253 -75 -415 -65 -108 7 -161 20 -296 72 -86 34 -93 35 -137 27z
m225 -259 c20 -5 22 -14 25 -78 l3 -71 40 -5 c57 -8 63 -14 63 -70 0 -31 -5
-50 -12 -50 -8 0 -8 -2 1 -8 6 -4 13 -16 15 -27 2 -16 -3 -21 -30 -23 -22 -2
-41 3 -53 14 -16 15 -19 15 -19 2 0 -13 -7 -14 -47 -6 -27 5 -55 12 -63 15 -8
3 -25 7 -37 9 -45 6 -63 16 -63 35 0 10 5 19 12 19 7 0 6 6 -4 18 -8 9 -15 37
-16 61 l-1 43 40 -4 39 -4 -6 33 c-4 22 -2 33 5 33 8 0 9 5 1 19 -21 40 -13
51 38 51 26 0 57 -3 69 -6z m750 -49 c0 -16 2 -49 2 -72 l1 -43 49 0 c52 0 65
-8 55 -34 -4 -12 -20 -16 -55 -16 -27 0 -49 -3 -49 -7 0 -5 24 -8 52 -8 46 0
53 -3 53 -20 0 -16 -8 -21 -40 -24 l-40 -5 40 -5 c31 -5 40 -10 40 -26 0 -17
-8 -20 -49 -23 l-48 -3 4 30 c3 17 1 31 -4 31 -4 0 -8 -15 -8 -34 l0 -33 -77
-5 c-52 -4 -80 -2 -85 6 -5 8 -8 7 -8 -2 0 -9 -15 -12 -52 -10 -46 3 -53 6
-56 26 -2 12 1 22 7 22 8 0 7 7 -1 20 -10 16 -10 24 0 40 8 13 9 20 1 20 -6 0
-9 10 -7 23 3 19 10 22 62 25 l58 3 -6 29 c-3 19 0 34 10 45 9 8 11 15 5 15
-6 0 -11 13 -11 29 0 26 4 30 33 34 17 2 52 4 77 3 43 -1 45 -3 47 -31z"/>
<path d="M204 2234 c-4 -15 -3 -65 2 -112 9 -86 9 -86 42 -96 18 -5 35 -6 38
-3 8 7 6 161 -2 193 -4 14 -18 27 -36 33 -40 14 -37 15 -44 -15z"/>
<path d="M1630 1493 c-75 -11 -67 5 -97 -197 l-5 -39 62 34 c91 50 170 124
170 159 0 24 -5 29 -44 39 -25 6 -48 10 -53 10 -4 -1 -19 -3 -33 -6z"/>
<path d="M2469 1054 c-8 -3 -27 -34 -41 -70 l-26 -66 24 6 c52 13 191 67 223
87 31 19 33 22 17 31 -20 11 -171 20 -197 12z"/>
<path d="M2450 815 c-8 -2 -32 -6 -52 -10 l-37 -6 -32 -99 c-18 -55 -30 -103
-27 -105 8 -9 166 44 253 85 97 45 150 86 135 105 -19 23 -179 42 -240 30z"/>
</g>
</svg>
