<?xml version="1.0" standalone="no"?>
<!DOCTYPE svg PUBLIC "-//W3C//DTD SVG 20010904//EN"
 "http://www.w3.org/TR/2001/REC-SVG-20010904/DTD/svg10.dtd">
<svg version="1.0" xmlns="http://www.w3.org/2000/svg"
 width="720.000000pt" height="544.000000pt" viewBox="0 0 720.000000 544.000000"
 preserveAspectRatio="xMidYMid meet">
<metadata>
Created by potrace 1.16, written by Peter Selinger 2001-2019
</metadata>
<g transform="translate(0.000000,544.000000) scale(0.100000,-0.100000)"
fill="#000000" stroke="none">
<path d="M3445 5390 c-228 -49 -376 -126 -531 -276 -69 -67 -146 -176 -150
-212 -1 -13 -17 -39 -34 -57 -32 -33 -67 -135 -54 -156 4 -8 8 -8 13 -1 4 7
12 8 21 2 13 -8 13 -10 -1 -10 -13 0 -18 -14 -23 -62 -8 -70 -26 -110 -58
-132 -12 -9 -32 -31 -43 -50 -26 -42 -188 -186 -237 -209 -42 -20 -48 -21 -48
-7 0 6 9 10 20 10 12 0 69 49 146 125 121 119 126 126 121 159 -3 18 -25 62
-49 98 -45 64 -45 65 -56 194 -7 71 -12 199 -12 285 0 137 -3 163 -21 208 -23
54 -41 66 -95 59 -19 -2 -36 -14 -51 -37 -22 -33 -23 -42 -23 -247 0 -153 -3
-214 -11 -214 -7 0 -31 18 -55 40 -24 22 -48 40 -54 40 -6 0 -40 -13 -77 -30
-36 -16 -75 -30 -85 -30 -11 0 -33 -14 -49 -31 -15 -17 -55 -43 -88 -60 -44
-20 -62 -36 -67 -53 -11 -47 68 -347 113 -425 l25 -43 -26 -48 c-22 -40 -26
-60 -26 -126 0 -105 47 -357 82 -447 6 -15 25 -40 43 -55 22 -19 38 -44 49
-82 18 -64 39 -97 81 -132 49 -41 93 -59 143 -60 41 0 49 -4 67 -32 25 -39
125 -89 288 -145 129 -43 156 -48 189 -30 15 8 35 7 81 -6 37 -10 75 -15 98
-11 29 5 47 1 71 -14 18 -11 45 -20 59 -20 22 0 27 -6 38 -51 18 -70 82 -195
126 -246 24 -28 47 -44 70 -49 33 -6 45 -23 45 -66 0 -16 -10 -18 -70 -18 -54
0 -72 4 -76 15 -7 17 -104 22 -104 6 0 -18 -33 -21 -57 -6 -15 10 -60 19 -121
23 l-97 7 -3 47 c-4 55 -14 65 -72 72 l-45 6 37 -13 c50 -16 54 -23 19 -30
-23 -5 -30 -12 -33 -34 -2 -18 -10 -29 -22 -31 -15 -3 -17 0 -12 14 4 11 -4 6
-18 -11 -14 -16 -25 -33 -26 -37 0 -5 -7 -8 -15 -8 -8 0 -24 -19 -36 -42 -12
-24 -29 -49 -38 -56 -36 -30 -139 -72 -220 -91 -74 -17 -406 -61 -462 -61 -15
0 -19 -7 -19 -39 0 -39 1 -40 38 -44 20 -2 0 -4 -46 -5 -45 -1 -81 1 -81 6 1
4 1 24 0 45 l-1 37 -82 0 c-106 0 -337 25 -425 45 -109 25 -179 55 -210 88
l-28 31 33 -27 c77 -62 280 -101 527 -101 505 0 668 16 840 83 74 29 167 93
153 106 -3 3 -35 -9 -72 -26 -76 -36 -265 -76 -401 -86 -55 -4 -80 -9 -65 -13
25 -6 25 -6 -5 -12 -107 -22 -236 -30 -320 -21 l-90 10 89 2 c129 2 98 19 -55
31 -68 5 -133 10 -144 11 -11 1 45 5 125 9 100 5 154 11 175 22 37 19 100 34
92 21 -3 -5 3 -9 14 -9 10 0 19 3 19 6 0 3 19 6 43 7 91 3 193 26 287 66 14 5
30 11 35 13 46 14 103 38 116 50 8 8 24 14 33 14 12 0 16 5 13 14 -3 8 -1 17
6 19 25 9 -159 58 -276 73 -93 12 -176 15 -347 11 -124 -2 -232 -6 -240 -8
-10 -3 -16 5 -18 24 -3 26 -5 27 -63 27 -58 0 -59 -1 -59 -28 0 -27 -4 -29
-127 -65 -187 -55 -173 -53 -173 -25 0 35 -18 48 -66 48 -67 0 -74 -6 -74 -61
l0 -49 -74 1 c-94 1 -136 -18 -136 -62 0 -19 -6 -31 -17 -35 -18 -5 -246 -92
-523 -200 -80 -30 -156 -66 -169 -79 -24 -23 -24 -24 -15 -162 l9 -138 32 -20
c25 -16 33 -29 37 -60 5 -33 34 -394 102 -1235 l6 -76 -40 -18 c-23 -10 -51
-29 -63 -42 -20 -21 -21 -30 -16 -96 5 -62 10 -76 32 -95 46 -40 99 -47 560
-78 1183 -77 2537 -173 3490 -247 l670 -52 687 -4 687 -3 128 74 c255 147 508
299 522 312 9 9 16 43 19 93 l4 79 -37 31 -38 31 6 63 c11 109 46 572 62 823
32 494 32 494 64 524 27 25 29 32 35 141 12 204 12 208 -14 235 -30 32 -75 40
-350 59 -124 9 -249 19 -277 22 l-53 5 0 54 c0 84 -11 102 -74 120 -53 16
-109 13 -146 -6 -9 -4 -43 -1 -75 7 -212 50 -540 74 -850 63 -165 -6 -250 -15
-427 -45 -37 -6 -38 -6 -38 23 0 17 -7 36 -15 43 -17 14 -112 17 -126 3 -5 -5
-13 -29 -17 -54 l-8 -44 -70 3 c-92 5 -142 -14 -150 -58 -7 -33 -21 -36 -97
-23 -34 5 -38 9 -35 31 2 19 17 34 55 56 28 17 68 49 87 71 38 41 129 217 141
270 13 57 16 65 29 65 7 0 33 13 59 30 26 16 47 28 47 26 0 -2 21 1 48 6 26 5
81 10 122 12 49 2 113 14 185 36 125 37 170 58 217 99 22 18 49 30 81 34 49 7
115 36 135 59 6 8 16 27 22 43 l10 30 -20 -25 c-11 -14 -20 -28 -20 -31 0 -11
-92 -47 -135 -53 -36 -6 -34 -4 20 17 73 28 83 34 126 72 60 54 55 44 140 285
59 167 66 309 20 395 -11 22 -21 49 -21 60 0 32 39 204 66 285 13 41 24 96 24
122 0 53 -12 65 -83 88 -24 7 -43 22 -52 41 -18 34 -43 49 -82 49 -16 0 -47
13 -69 29 -63 45 -79 45 -161 0 l-73 -40 0 90 c0 50 4 91 9 91 5 0 6 -20 4
-44 -3 -26 -1 -46 6 -50 6 -4 11 -18 11 -32 0 -13 4 -24 9 -24 4 0 11 85 15
188 9 214 0 259 -56 288 -76 39 -115 -20 -128 -195 -5 -64 -14 -132 -19 -151
-6 -19 -11 -66 -11 -104 0 -38 -7 -105 -16 -150 -14 -71 -22 -87 -59 -126 -30
-33 -46 -61 -55 -98 -11 -48 -10 -56 9 -93 24 -45 95 -144 111 -154 5 -3 10
-15 10 -26 0 -10 4 -19 10 -19 5 0 25 -31 44 -68 41 -81 98 -136 158 -153 89
-24 247 12 263 60 5 16 11 18 28 12 48 -17 57 -5 57 74 0 41 4 76 9 79 5 4 21
-26 36 -64 25 -64 26 -78 20 -153 -8 -90 -51 -243 -93 -325 -22 -44 -36 -57
-77 -76 -53 -25 -132 -47 -87 -24 12 6 22 14 22 17 4 168 10 261 18 281 5 14
12 37 15 51 l7 26 -123 7 c-67 3 -135 8 -152 12 l-30 5 -1 -50 c-1 -28 -6 -57
-13 -65 -7 -8 -13 -36 -14 -63 -2 -39 -5 -48 -19 -47 -11 1 -18 -5 -18 -17 0
-35 -29 -19 -54 29 -23 46 -24 51 -15 172 4 69 11 158 15 198 4 46 3 72 -4 72
-10 0 -14 -23 -33 -200 -18 -173 -20 -180 -43 -195 -35 -23 -104 -35 -116 -20
-5 6 -41 26 -78 44 -162 74 -310 63 -416 -30 -37 -32 -40 -33 -118 -30 -63 2
-85 -1 -106 -16 -28 -18 -122 -28 -122 -13 0 5 13 11 30 15 35 8 172 104 250
175 35 32 60 48 70 44 61 -24 93 -16 240 61 87 46 178 159 199 247 17 70 13
178 -7 245 -21 66 -89 161 -152 212 -49 39 -76 92 -60 120 15 30 -16 119 -57
160 -19 19 -40 46 -48 61 -53 103 -243 262 -381 320 -147 62 -242 82 -414 86
-127 3 -171 0 -245 -16z m278 -240 c195 -28 388 -149 482 -302 39 -62 39 -64
37 -153 -2 -50 1 -102 6 -115 5 -14 6 -35 1 -47 -18 -47 -39 -174 -40 -243 -2
-84 -14 -74 -22 17 -8 95 -50 196 -100 239 -42 36 -42 36 -117 31 -41 -3 -107
-17 -147 -30 l-72 -25 -4 21 c-4 19 -4 19 -6 -4 -1 -23 -10 -29 -98 -58 -167
-54 -283 -73 -403 -67 -60 3 -135 14 -175 26 -140 40 -194 21 -216 -76 -10
-43 -10 -72 -1 -131 16 -102 51 -215 65 -206 6 3 7 1 3 -6 -9 -14 2 -53 13
-46 4 2 14 -8 22 -23 7 -15 24 -44 37 -65 12 -21 20 -42 17 -47 -9 -15 74 -77
121 -90 54 -15 135 -7 198 19 101 44 166 48 384 22 97 -12 209 2 281 34 112
51 179 151 204 303 l12 77 6 -60 c4 -33 7 -94 8 -135 1 -41 4 -92 8 -113 6
-40 9 -41 58 -21 30 12 -60 -72 -124 -115 -87 -59 -260 -141 -297 -141 -23 0
-22 25 1 26 28 2 130 52 159 78 13 12 38 29 57 39 35 18 107 77 95 77 -4 0
-25 -14 -46 -31 -21 -17 -43 -28 -48 -25 -6 3 -17 -1 -25 -9 -9 -8 -19 -15
-22 -15 -4 0 -21 -10 -38 -22 -18 -13 -37 -22 -44 -20 -6 1 -14 -2 -18 -8 -3
-5 -13 -10 -22 -10 -8 0 -26 -9 -39 -19 -38 -30 -57 -20 -78 38 -23 64 -34 60
-12 -5 9 -26 16 -51 16 -55 0 -4 -23 -10 -52 -14 -29 -4 -59 -11 -68 -15 -8
-4 -26 -13 -40 -18 -24 -10 -23 -11 13 -11 23 -1 36 3 32 9 -3 6 -1 10 4 10 6
0 11 -4 11 -10 0 -11 33 -13 68 -4 21 6 21 7 5 20 -15 11 -15 13 -2 14 8 0 21
-6 28 -12 10 -11 11 -9 5 7 l-7 20 20 -20 c25 -25 19 -28 -72 -50 -95 -23
-304 -24 -405 -1 -117 26 -232 85 -301 156 -161 165 -263 569 -205 812 25 108
110 264 196 361 39 44 158 137 175 137 4 0 19 8 33 18 37 26 127 63 187 78 61
15 206 17 298 4z m-1545 -250 c18 -17 22 -32 22 -84 l0 -63 -57 -10 c-32 -6
-60 -9 -61 -8 -2 2 -6 31 -9 64 -5 57 -4 61 25 90 36 36 50 38 80 11z m-134
-72 c3 -13 6 -44 6 -70 0 -46 -1 -47 -46 -68 -26 -11 -48 -20 -49 -20 -11 0
-26 66 -23 101 3 39 7 46 38 61 47 24 66 23 74 -4z m3388 -65 c14 -13 18 -31
18 -95 0 -91 -2 -92 -95 -56 l-57 22 6 53 c9 75 22 93 70 93 23 0 47 -7 58
-17z m113 -47 c40 -17 50 -44 43 -118 -6 -57 -18 -69 -60 -57 -54 15 -61 27
-56 100 7 95 12 100 73 75z m-900 -82 c31 -25 53 -49 50 -52 -3 -4 -9 -2 -13
3 -12 16 -69 45 -76 38 -3 -3 -6 -1 -6 5 0 37 -71 -11 -99 -66 -24 -48 -36
-86 -24 -79 5 3 7 -8 5 -26 -3 -18 -10 -35 -16 -39 -15 -10 -18 -211 -5 -285
13 -72 45 -131 81 -149 17 -9 28 -10 28 -4 0 5 -8 10 -17 11 -14 0 -15 2 -3 6
8 3 23 12 33 21 12 10 17 11 17 3 0 -7 5 -9 12 -5 7 4 8 3 4 -4 -4 -6 -12 -9
-20 -6 -7 3 -13 -1 -13 -9 0 -15 33 -12 43 4 3 5 10 9 15 9 21 0 -2 -18 -56
-45 l-56 -27 -39 26 c-27 18 -48 45 -72 93 l-33 68 -2 170 c-1 159 7 225 27
225 5 0 14 16 20 36 7 20 31 56 54 80 57 59 86 59 161 -2z m-2104 -58 c19 -42
25 -95 12 -97 -51 -8 -63 -6 -63 6 0 8 -13 21 -30 30 -35 18 -40 53 -15 111
l15 36 31 -23 c17 -12 40 -40 50 -63z m219 -5 c0 -6 -5 -13 -11 -17 -6 -3 -22
-30 -35 -58 -20 -43 -24 -67 -24 -152 0 -212 72 -411 172 -475 28 -18 29 -20
8 -14 -67 17 -135 61 -162 105 -39 64 -66 183 -75 324 -4 66 -9 112 -11 101
-7 -43 -12 -51 -22 -35 -6 9 -2 23 11 41 11 15 26 46 34 68 19 55 43 89 74
106 31 17 41 18 41 6z m1989 -47 c82 -104 61 -378 -35 -453 -42 -33 -54 -24
-19 14 18 19 41 58 50 87 9 29 20 61 26 70 12 23 11 91 -2 148 -11 50 -67 140
-87 140 -7 0 -10 5 -7 10 12 19 53 10 74 -16z m295 -26 c8 -40 43 -79 64 -71
11 5 13 3 6 -8 -4 -8 -9 -20 -11 -28 -1 -8 -9 -21 -19 -30 -9 -9 -14 -10 -9
-3 16 30 12 58 -12 69 -18 9 -23 8 -23 -3 0 -8 5 -14 10 -14 6 0 -6 -14 -25
-32 l-36 -31 28 -13 28 -13 -35 6 c-27 3 -31 2 -20 -6 11 -8 11 -11 2 -11 -25
0 -62 48 -62 80 0 44 23 93 55 118 38 30 51 28 59 -10z m-2492 -223 c-5 -141
31 -246 109 -323 43 -42 225 -132 266 -132 25 0 36 -7 52 -33 11 -18 31 -43
45 -56 14 -14 26 -28 26 -31 0 -4 -21 -15 -47 -25 -27 -10 -62 -26 -78 -36
-21 -12 -35 -15 -45 -9 -26 16 -161 58 -247 76 l-82 17 0 76 c0 117 -58 412
-84 428 -6 4 -8 -3 -3 -18 27 -93 67 -318 68 -389 3 -107 -13 -142 -99 -214
-20 -16 -23 -17 -23 -3 0 8 6 17 13 19 10 2 11 13 4 46 -6 30 -13 42 -22 39
-9 -4 -13 4 -13 26 -1 41 -18 141 -32 187 -5 19 -10 50 -10 69 0 28 -3 32 -17
26 -54 -22 -128 -35 -204 -35 l-86 0 16 -69 c8 -38 19 -67 23 -65 4 3 10 -5
12 -18 12 -57 16 -77 32 -138 8 -36 18 -78 21 -95 3 -16 13 -35 22 -42 14 -11
14 -12 -3 -13 -38 0 -97 24 -136 57 -32 28 -43 47 -64 116 -61 204 -81 423
-43 492 9 17 17 28 17 25 1 -3 3 -27 6 -55 6 -72 20 -98 66 -128 52 -34 111
-42 194 -28 84 15 108 27 167 86 37 38 47 55 47 81 0 45 33 105 81 149 21 19
42 35 47 35 4 0 6 -43 4 -95z m1334 23 c8 -12 14 -53 17 -105 l2 -32 56 6 56
6 7 -53 c5 -37 3 -55 -5 -60 -8 -6 -6 -11 6 -18 32 -17 10 -39 -52 -51 -162
-33 -175 -34 -194 -23 -15 10 -19 9 -19 -3 0 -11 -11 -15 -40 -15 -22 0 -43
-1 -47 -2 -5 -2 -9 9 -11 24 -3 21 2 27 20 31 20 4 20 4 -4 6 -16 0 -29 6 -29
11 -5 29 -2 35 21 41 l25 7 -27 1 c-23 1 -28 6 -28 26 0 26 13 32 80 37 25 2
34 7 31 18 -2 8 -4 26 -5 40 -2 14 -6 33 -10 42 -17 37 -3 52 59 64 82 16 83
16 91 2z m-720 -76 c10 -6 18 -41 28 -117 2 -16 11 -21 52 -23 49 -3 68 -16
59 -41 -3 -7 0 -20 6 -27 6 -8 9 -23 6 -34 -3 -11 -1 -23 4 -26 5 -3 9 -13 9
-24 0 -15 -9 -19 -56 -22 -105 -6 -154 2 -164 26 -7 17 -9 17 -9 4 -1 -14 -10
-18 -36 -18 -20 0 -37 5 -39 13 -2 6 -8 28 -14 47 -6 19 -14 52 -18 73 l-6 37
47 0 c41 0 46 2 35 15 -7 8 -10 26 -8 40 3 14 1 28 -3 31 -5 3 -9 16 -9 30 0
22 3 24 53 24 28 0 57 -4 63 -8z m1545 -461 c77 -27 149 -63 143 -73 -3 -4
-33 -8 -67 -8 -116 0 -207 -66 -239 -173 -8 -26 -20 -42 -36 -48 -14 -5 -27
-8 -29 -5 -3 2 5 7 16 11 23 7 24 9 15 42 -4 14 -17 23 -39 27 -19 4 -35 12
-37 18 -2 6 -27 13 -55 14 -39 2 -55 -1 -72 -17 l-21 -20 0 24 c0 13 12 48 28
78 29 57 98 118 156 137 54 17 178 14 237 -7z m309 -67 c0 -8 -9 -32 -19 -53
-36 -69 -10 -211 53 -293 36 -48 33 -60 -5 -19 -46 51 -76 101 -91 151 l-13
45 -3 -39 c-4 -44 -21 -66 -51 -66 -11 0 -23 -4 -26 -10 -3 -5 -46 -10 -96
-10 l-89 0 0 38 c0 67 26 134 68 175 32 31 60 45 143 71 106 33 129 35 129 10z
m-2340 -18 c182 -46 243 -78 257 -136 3 -14 10 -31 16 -38 5 -7 12 -43 15 -82
4 -63 3 -69 -14 -65 -11 2 -41 6 -68 9 -41 5 -47 4 -36 -8 14 -17 -12 -12
-153 32 l-87 27 7 45 c19 112 0 190 -53 210 -13 5 -24 14 -24 20 0 16 36 12
140 -14z m470 -39 c78 -49 78 -51 -27 -77 -29 -8 -53 -19 -53 -25 0 -7 -18 5
-40 27 -31 29 -49 38 -75 38 -19 0 -35 5 -35 11 0 12 116 68 142 69 10 0 49
-20 88 -43z m1104 -98 c-24 -94 -20 -256 9 -358 17 -58 20 -78 10 -74 -7 3
-20 0 -27 -7 -16 -12 -29 4 -53 65 -19 49 -15 13 6 -51 13 -38 17 -63 11 -74
-8 -13 -9 -13 -10 3 0 10 -7 17 -17 17 -22 -1 -53 -23 -53 -39 0 -6 -4 -10 -8
-9 -4 2 -43 -23 -87 -55 -111 -81 -134 -85 -226 -43 -41 19 -94 37 -119 40
-88 13 -100 17 -101 34 -1 15 -2 15 -6 0 -3 -11 -14 -18 -27 -18 -12 0 -48 -7
-80 -15 l-58 -15 -34 36 c-32 33 -64 41 -64 15 0 -5 -9 -7 -19 -4 -20 5 -44
70 -57 153 -3 25 -10 50 -14 55 -5 6 -10 25 -13 43 -8 50 -12 48 -27 -12 -21
-87 2 -179 90 -359 27 -56 47 -103 44 -106 -15 -15 -102 142 -129 229 -26 88
-31 251 -10 335 21 82 54 154 55 118 0 -16 6 -23 19 -23 16 0 19 -6 15 -32
l-4 -33 16 29 c15 27 18 28 67 21 29 -4 59 -8 67 -10 8 -1 31 -11 50 -23 19
-12 55 -24 80 -28 25 -4 48 -12 52 -18 5 -8 8 -7 8 2 0 7 14 12 38 12 88 0
225 61 316 141 38 34 47 38 42 21 -8 -24 0 -23 54 5 14 7 31 13 38 13 6 0 12
7 12 15 0 9 6 12 15 8 10 -3 15 0 13 8 -2 9 20 21 62 36 36 12 66 20 68 18 2
-1 -4 -31 -14 -66z m995 -254 c-55 -47 -56 -47 -184 -83 -132 -37 -210 -49
-219 -33 -5 7 4 11 24 11 17 0 47 8 68 19 39 19 142 54 230 77 30 8 66 21 80
29 45 24 46 17 1 -20z m-2846 -4 c30 -15 45 -17 70 -10 17 5 33 9 34 9 1 0 0
-6 -3 -14 -3 -9 9 -18 38 -28 24 -9 84 -32 133 -51 50 -20 102 -39 118 -42 15
-3 27 -10 27 -15 0 -28 -120 2 -333 84 -71 27 -127 61 -127 77 0 12 0 12 43
-10z m-290 -560 c44 -14 50 -42 12 -59 -77 -35 -397 -44 -459 -12 -58 29 -38
53 64 77 67 15 329 11 383 -6z m3642 -51 c197 -23 413 -67 442 -92 13 -10 13
-14 -2 -24 -13 -10 -31 -7 -96 17 -97 35 -287 74 -433 88 -204 20 -567 9 -750
-23 -49 -9 -91 -14 -94 -11 -3 2 1 7 9 9 31 11 238 39 343 46 132 10 455 4
581 -10z m-141 -154 c64 -15 92 -36 83 -60 -21 -55 -337 -87 -499 -50 -69 16
-113 44 -106 67 7 20 69 46 138 56 85 13 309 6 384 -13z m-4950 -25 c-5 -5
-40 -19 -79 -30 -99 -30 -275 -118 -275 -136 0 -9 12 -20 26 -25 22 -9 202
-25 532 -47 51 -3 90 -9 87 -12 -3 -3 -45 -5 -93 -4 l-87 1 80 -8 c220 -22
331 -31 560 -45 138 -8 264 -15 280 -14 67 3 -54 17 -240 29 -185 12 -246 20
-152 20 26 0 142 -6 259 -14 117 -8 301 -20 408 -26 216 -13 467 -37 405 -39
-87 -3 -64 -18 37 -25 56 -4 193 -14 303 -21 355 -26 815 -56 1005 -65 102 -5
228 -11 280 -15 63 -3 88 -2 75 4 -11 5 -47 11 -80 12 -44 2 -50 3 -23 6 39 4
786 -45 803 -52 6 -3 -44 -3 -110 0 -66 3 -165 7 -220 9 -92 4 -94 4 -30 -4
134 -16 312 -30 588 -45 267 -15 380 -16 232 -1 -38 4 -74 9 -80 11 -21 9 351
-7 555 -22 264 -21 538 -23 597 -5 23 7 77 36 119 65 207 141 475 314 444 286
-23 -20 -28 -28 -15 -24 39 13 56 14 49 3 -12 -19 17 -4 88 46 106 74 111 92
28 103 -35 5 -42 3 -35 -8 7 -12 6 -12 -7 -1 -9 7 -64 17 -123 22 -59 5 -110
12 -113 15 -17 17 307 -12 334 -30 45 -29 45 -30 -211 -208 -327 -228 -424
-292 -465 -308 l-45 -17 -8 -108 c-4 -60 -9 -115 -12 -122 -2 -6 -19 -12 -38
-12 -31 0 -33 2 -31 28 2 15 5 66 7 115 l5 87 -117 0 c-64 0 -210 7 -326 15
-115 8 -392 26 -615 40 -223 14 -470 29 -550 35 -80 6 -226 14 -325 20 -99 5
-277 16 -395 25 -118 8 -318 22 -445 30 -325 22 -1513 103 -1675 115 -461 34
-911 62 -1150 70 -151 5 -291 11 -310 12 l-35 3 -3 -60 c-1 -33 1 -77 5 -99
l8 -38 60 -4 c33 -2 94 -9 135 -14 41 -6 122 -17 180 -25 l105 -13 -125 4
c-216 9 -414 23 -453 34 -57 17 -65 38 -69 177 -4 143 -10 133 121 181 47 18
149 56 226 86 131 50 162 58 139 37z m5628 -39 c16 -9 28 -23 28 -31 0 -7 16
-31 35 -52 26 -29 35 -48 35 -73 0 -19 -4 -37 -9 -40 -4 -3 -6 5 -4 18 4 17
-2 28 -18 40 -13 9 -19 16 -14 17 6 0 1 4 -10 8 -14 6 -25 1 -42 -20 -69 -81
-326 -161 -598 -184 -38 -3 -87 -8 -108 -11 -38 -6 -38 -6 -35 -47 3 -41 4
-42 43 -48 25 -4 2 -7 -65 -7 -58 -1 -99 2 -92 7 8 5 12 24 11 49 l-3 42 -65
0 c-80 0 -274 15 -391 30 -285 37 -511 134 -535 231 -7 28 28 79 68 101 18 9
17 6 -6 -21 -67 -80 -14 -148 170 -217 152 -57 508 -103 688 -89 50 4 142 6
205 5 270 -4 595 74 677 162 12 13 24 39 28 59 6 33 3 42 -32 80 -26 30 -30
38 -13 26 14 -10 37 -25 52 -35z m-2534 -170 c20 -7 14 -26 -17 -56 -28 -27
-30 -28 -107 -19 -46 5 -79 13 -81 20 -3 7 8 24 23 38 25 24 35 26 99 24 38
-1 76 -4 83 -7z m-1940 -424 c32 -16 52 -34 65 -59 16 -33 16 -39 2 -71 -8
-20 -39 -58 -70 -85 -55 -50 -60 -63 -21 -63 36 0 83 -36 102 -79 29 -62 49
-54 78 32 9 27 37 98 63 158 42 101 49 110 70 106 13 -2 31 2 40 9 10 7 26 14
36 14 9 0 17 5 17 10 0 6 5 10 10 10 6 0 10 -9 10 -20 0 -11 4 -28 9 -38 5 -9
15 -55 21 -102 19 -132 27 -160 51 -160 15 0 19 -5 16 -15 -4 -8 -2 -17 2 -20
5 -2 14 17 21 43 27 108 114 213 205 248 86 32 169 -10 167 -86 -1 -44 -22
-101 -34 -94 -6 4 -13 1 -17 -5 -13 -21 -40 0 -47 35 -8 45 -33 45 -79 -1 -47
-47 -76 -107 -82 -169 -4 -43 -1 -56 18 -80 19 -24 27 -28 60 -23 20 3 64 23
98 46 34 23 61 40 61 37 0 -3 -4 -16 -10 -30 -12 -32 1 -33 34 -3 22 19 28 41
51 174 27 167 41 209 61 192 9 -7 15 -5 22 7 6 10 16 15 26 11 9 -4 16 -2 16
3 0 19 15 10 27 -15 9 -20 8 -40 -3 -92 -7 -37 -13 -68 -11 -69 1 -2 32 22 67
53 103 88 168 135 178 129 5 -3 20 6 32 19 13 14 28 25 34 25 5 0 -4 -15 -22
-33 -36 -37 -41 -53 -13 -37 27 14 36 13 22 -4 -6 -7 -9 -20 -6 -28 5 -14 -34
-56 -115 -122 -19 -16 -54 -46 -78 -68 l-43 -39 97 -120 c53 -66 99 -118 101
-115 2 2 -1 13 -8 23 -12 20 -4 102 8 89 3 -3 12 -1 20 5 7 6 13 8 13 4 0 -4
6 -3 13 3 10 9 16 4 26 -23 8 -23 21 -37 37 -41 58 -15 149 22 149 61 0 12
-30 33 -95 66 -111 58 -139 83 -146 130 -6 44 21 89 81 132 137 97 285 83 285
-28 0 -29 -28 -90 -37 -81 -3 3 -12 -2 -19 -12 -8 -10 -13 -12 -14 -4 0 6 -7
12 -15 12 -10 0 -15 10 -15 30 0 35 -11 37 -70 14 -41 -17 -69 -50 -53 -64 4
-4 41 -25 82 -46 41 -22 94 -57 118 -80 36 -34 43 -47 43 -79 0 -57 -61 -113
-167 -153 -74 -29 -147 -43 -130 -25 7 6 -84 53 -92 47 -2 -1 18 -30 44 -63
25 -34 44 -61 42 -61 -2 0 -28 18 -57 40 -57 43 -85 53 -55 20 26 -28 13 -34
-19 -9 -22 17 -36 20 -74 16 -42 -5 -44 -5 -19 5 15 7 27 15 27 20 0 4 -24 31
-53 60 -29 29 -73 76 -98 105 l-46 51 -11 -46 c-6 -26 -14 -68 -18 -95 -3 -26
-11 -50 -17 -54 -6 -4 -8 2 -5 15 4 12 3 22 -2 22 -8 0 -25 -40 -33 -75 -3
-11 -5 -5 -6 15 -1 19 -6 42 -11 50 -9 13 -11 13 -21 0 -8 -11 -9 4 -6 58 l4
72 -82 -79 c-102 -98 -125 -105 -209 -65 -63 30 -100 75 -111 138 -7 33 -27
48 -39 28 -2 -4 2 -41 10 -82 17 -89 17 -89 3 -70 -8 11 -9 1 -6 -40 l5 -55
-16 38 c-9 23 -20 36 -28 33 -7 -3 -17 7 -23 22 -7 20 -10 22 -10 8 -2 -33
-14 -9 -31 62 -19 75 -17 75 -122 51 -46 -11 -47 -12 -69 -74 -14 -38 -28 -61
-35 -58 -6 2 -18 -10 -25 -26 -18 -39 -25 -39 -33 1 -6 30 -7 31 -21 12 -18
-24 -18 -13 0 56 9 34 11 56 5 58 -6 2 -7 9 -4 15 4 7 -17 -11 -47 -40 -30
-28 -85 -72 -124 -97 -38 -25 -63 -46 -55 -47 8 0 -16 -16 -54 -35 -76 -37
-80 -39 -71 -24 3 6 -1 10 -9 10 -9 0 -18 -12 -22 -27 -10 -46 -12 -49 -13
-19 -1 24 -3 27 -16 16 -10 -8 -15 -32 -16 -74 -1 -46 -3 -55 -9 -36 -4 14 -8
40 -9 58 -1 31 -21 48 -21 17 0 -8 -4 -15 -10 -15 -5 0 -10 7 -10 15 0 18 3
17 -38 6 -20 -6 -32 -6 -32 0 0 5 5 9 10 9 6 0 10 5 10 10 0 6 -9 10 -20 10
-25 0 -25 9 -2 26 14 11 15 15 3 23 -11 7 -4 14 28 30 23 12 44 27 46 34 2 7
5 58 8 115 3 81 1 102 -10 102 -12 0 -18 25 -14 58 1 6 -4 12 -11 12 -7 0 1
10 19 21 26 16 34 30 42 72 17 89 19 118 7 113 -96 -38 -116 -44 -121 -36 -3
6 -1 10 4 10 6 0 11 7 11 15 0 20 -30 19 -90 -5 -75 -29 -74 -24 3 16 37 19
67 39 67 45 0 5 -4 7 -10 4 -21 -13 -9 13 13 27 36 24 155 69 221 84 87 20
204 12 264 -18z m-1399 -509 c22 -261 43 -521 46 -579 3 -58 9 -116 11 -130 4
-16 2 -21 -4 -15 -10 11 -23 126 -47 410 -40 491 -60 803 -51 794 3 -3 24
-219 45 -480z m3871 454 c0 -4 7 -57 15 -118 9 -60 18 -129 21 -152 4 -33 9
-42 27 -45 15 -2 21 -9 19 -20 -6 -36 16 -16 33 30 53 140 200 262 317 262 65
0 95 -14 114 -52 14 -31 14 -37 -4 -83 -14 -34 -25 -49 -36 -47 -9 2 -16 -2
-16 -8 0 -6 -7 -6 -20 2 -12 8 -20 24 -20 40 0 71 -119 2 -192 -111 -51 -80
-32 -181 33 -181 44 0 129 47 129 72 0 4 -20 8 -45 8 -33 0 -45 4 -46 15 -4
67 -4 69 30 76 17 4 75 10 128 14 l95 7 -5 -33 c-3 -19 -18 -72 -35 -119 -16
-47 -38 -112 -47 -145 -14 -45 -20 -55 -25 -40 -7 19 -7 19 -17 0 -6 -11 -14
-35 -18 -53 -9 -44 -20 -32 -16 18 3 40 -13 55 -23 23 -3 -10 -4 6 -2 35 2 28
1 52 -1 52 -2 0 -21 -11 -43 -25 -48 -30 -73 -33 -121 -12 -77 34 -129 99
-129 162 0 20 -5 25 -23 25 -23 0 -23 -2 -16 -47 12 -73 11 -121 -2 -103 -8
11 -9 1 -6 -37 5 -59 -7 -72 -17 -18 -4 22 -11 32 -20 29 -7 -3 -18 5 -24 18
-6 13 -11 17 -11 11 -1 -7 -5 -13 -10 -13 -5 0 -12 21 -16 48 -14 100 -9 95
-84 87 -36 -3 -74 -9 -84 -11 -9 -3 -33 -36 -52 -72 -19 -37 -34 -61 -35 -54
-1 26 -21 10 -45 -35 -23 -42 -25 -44 -21 -18 5 33 -11 70 -21 48 -2 -7 -8
-13 -13 -13 -5 0 2 26 15 58 18 43 21 59 12 67 -16 13 -20 55 -6 55 8 0 8 4 0
14 -13 15 4 26 38 26 16 0 41 43 139 242 2 4 -9 6 -25 3 -15 -2 -65 -9 -109
-16 l-81 -11 -16 -57 c-8 -31 -25 -99 -37 -151 -36 -153 -58 -228 -59 -197 -1
41 -13 33 -44 -31 l-29 -57 6 45 c3 25 2 52 -4 60 -6 10 -10 11 -10 3 0 -7 -5
-13 -11 -13 -13 0 -6 47 32 235 15 76 26 141 24 143 -2 2 -33 -1 -68 -7 -86
-15 -89 -15 -82 9 3 11 2 20 -3 20 -13 0 -10 56 4 70 6 6 51 16 100 22 49 6
95 16 102 21 15 11 232 20 276 11 28 -6 29 -7 11 -20 -17 -13 -17 -14 0 -20
15 -6 13 -9 -11 -20 l-29 -12 40 -1 c36 -1 42 3 59 34 14 26 24 34 38 29 18
-5 84 13 103 28 11 10 25 10 25 1z m1104 -108 c8 -12 21 -16 34 -12 12 3 24 1
27 -3 3 -5 -15 -12 -39 -15 -47 -7 -86 -35 -50 -35 15 0 16 -2 5 -9 -8 -5 -51
-12 -95 -15 -167 -13 -173 -15 -179 -44 -3 -15 -9 -35 -13 -45 -6 -17 -1 -18
57 -17 35 1 80 1 99 0 32 -1 33 -2 15 -12 -19 -12 -19 -12 5 -18 25 -7 25 -7
-10 -23 -26 -11 -30 -16 -15 -17 l20 -1 -20 -9 c-11 -4 -59 -11 -107 -15 l-86
-7 -12 -42 c-6 -22 -11 -45 -11 -50 1 -5 70 -8 154 -7 88 1 158 -3 167 -9 11
-7 7 -10 -20 -10 -64 -1 -10 -20 60 -21 64 -2 60 -3 -47 -15 -54 -6 -74 -24
-26 -24 14 0 24 -2 22 -4 -2 -2 -76 -10 -164 -16 -88 -7 -172 -18 -187 -25
-20 -10 -28 -10 -31 -1 -3 6 -9 0 -15 -14 -7 -17 -11 -19 -11 -8 -1 11 -11 18
-33 20 -22 2 -32 9 -35 23 -13 70 -12 73 11 79 18 4 27 18 39 58 11 39 12 56
3 63 -18 16 -8 73 15 80 20 7 30 25 43 78 5 22 3 27 -13 27 -24 0 -36 16 -20
26 8 5 8 8 0 13 -18 12 10 59 44 73 32 13 236 27 343 23 47 -2 67 -7 76 -20z
m-2645 -560 c33 -10 69 -31 89 -51 l34 -34 -19 -32 c-13 -23 -45 -46 -103 -77
-59 -32 -79 -47 -65 -49 61 -10 127 -35 154 -58 24 -20 31 -34 31 -62 0 -31
-8 -44 -53 -87 -60 -56 -108 -82 -241 -132 -61 -22 -78 -32 -51 -27 63 9 38
-2 -67 -30 -54 -15 -106 -29 -115 -32 -10 -2 0 4 22 15 35 18 36 20 10 14 -95
-20 -109 -27 -122 -68 l-11 -40 -1 38 c-1 35 -2 36 -21 25 -11 -7 -23 -28 -26
-48 -16 -99 -23 -114 -18 -37 5 72 3 78 -13 75 -10 -2 -20 -14 -22 -28 l-4
-25 -7 25 c-7 26 -14 27 -75 16 -28 -5 -29 -5 -11 9 13 9 42 15 80 15 34 0 81
7 106 16 25 9 108 34 184 55 134 38 300 98 293 106 -2 2 -34 -8 -70 -22 -38
-14 -67 -20 -67 -14 0 5 -4 8 -9 4 -5 -3 -13 0 -16 6 -4 6 -18 8 -32 4 -14 -3
-31 -1 -39 6 -10 8 -35 5 -104 -15 -50 -14 -95 -26 -99 -26 -5 0 0 17 10 37
19 38 28 92 10 64 -7 -10 -21 -12 -55 -8 -51 7 -50 8 -61 -56 -5 -29 -3 -37 6
-32 7 5 10 3 7 -5 -4 -14 -19 -20 -98 -41 -37 -10 -42 -13 -25 -20 11 -4 14
-8 7 -8 -8 -1 -11 -8 -8 -19 5 -16 1 -17 -31 -14 -33 4 -35 6 -15 13 24 9 30
29 10 29 -22 1 23 22 70 34 l45 12 24 89 c12 50 25 100 29 113 5 18 2 22 -17
23 -23 0 -23 1 -4 9 17 7 17 9 3 9 -10 1 -18 4 -18 7 0 4 8 13 18 20 16 13 16
13 -2 14 -25 0 -13 12 26 26 27 9 35 21 60 88 l28 79 -37 -7 c-21 -4 -56 -10
-78 -13 -37 -5 -38 -4 -21 9 18 14 18 15 -4 21 l-24 6 28 22 c33 26 29 33 -10
19 l-29 -10 24 18 c13 9 67 27 120 39 83 19 119 22 266 19 126 -2 184 -8 224
-21z m871 -4 c41 4 111 8 155 7 l80 0 -50 -13 c-43 -11 -46 -13 -20 -15 26 -1
27 -3 10 -10 -30 -13 60 -12 210 1 71 6 145 8 172 3 32 -5 40 -9 26 -12 -35
-5 -27 -22 10 -23 29 -1 27 -3 -23 -19 -45 -15 -50 -18 -26 -19 68 -2 4 -20
-112 -32 l-123 -12 -20 -38 c-10 -21 -19 -41 -19 -45 0 -4 39 -4 88 -1 48 4
96 2 107 -3 19 -8 19 -9 -3 -9 -29 -1 -19 -21 11 -22 20 -1 21 -2 2 -6 -11 -3
-31 -10 -45 -16 l-25 -10 25 -7 c18 -5 2 -9 -55 -14 -154 -13 -149 -11 -167
-64 -10 -25 -16 -48 -14 -50 2 -2 66 1 143 5 76 5 163 6 193 2 45 -5 48 -6 18
-8 -21 0 -38 -5 -38 -10 0 -12 36 -20 95 -22 43 -2 40 -3 -25 -9 -41 -4 -90
-11 -109 -15 -25 -6 -32 -5 -27 3 4 7 16 12 27 12 10 0 19 5 19 10 0 6 -12 10
-26 10 -16 0 -23 4 -18 11 5 8 -29 9 -122 4 -71 -4 -133 -8 -139 -9 -5 0 -9 4
-8 9 9 60 9 60 -25 63 -18 2 -30 8 -27 13 4 5 0 9 -8 9 -15 0 -37 -48 -37 -82
0 -20 -61 -53 -83 -45 -7 3 3 9 22 14 30 8 37 16 52 58 22 63 23 79 5 72 -16
-6 -17 28 -1 52 5 10 4 12 -3 7 -7 -4 -12 -4 -12 -1 0 3 16 13 35 20 27 12 37
24 46 56 10 33 10 42 0 49 -8 4 -10 13 -7 19 4 6 2 11 -4 11 -6 0 -8 5 -4 11
4 8 -3 9 -22 6 -16 -3 -59 -9 -95 -12 l-66 -6 -63 -167 c-80 -211 -109 -281
-109 -262 0 8 7 33 15 55 9 22 23 65 33 96 l18 56 -57 0 -56 0 -21 -56 c-11
-31 -26 -76 -33 -101 -14 -46 -30 -74 -30 -52 0 6 27 92 61 189 80 235 79 227
43 220 -16 -3 -49 -9 -74 -12 -25 -3 -58 -8 -75 -11 -27 -4 -28 -4 -12 9 15
13 15 16 2 27 -12 10 -12 15 1 35 12 18 12 24 2 28 -25 9 39 25 143 37 57 7
109 16 114 20 14 11 58 17 70 9 6 -3 44 -2 85 2z m1010 -19 c22 -10 36 -26 38
-39 2 -13 8 -23 14 -23 13 0 2 -46 -18 -77 -8 -13 -20 -20 -28 -17 -9 3 -17
-3 -22 -18 l-7 -23 -9 24 c-7 19 -11 21 -22 11 -12 -9 -15 -6 -18 22 -4 40
-20 45 -90 24 -65 -19 -118 -59 -102 -76 6 -6 59 -29 117 -50 134 -50 221 -93
241 -122 18 -25 21 -74 6 -83 -5 -3 -10 -14 -10 -23 0 -10 -14 -23 -32 -31
-45 -20 -24 -24 68 -12 72 9 95 8 83 -3 -2 -2 -51 -9 -109 -15 -90 -10 -123
-19 -233 -65 -70 -29 -127 -57 -125 -61 2 -4 -23 -17 -55 -30 -85 -35 -101
-39 -92 -25 11 18 -26 5 -237 -84 -69 -29 -39 -5 38 30 42 20 74 38 71 41 -3
2 -79 -20 -169 -51 -90 -31 -168 -56 -173 -56 -18 1 19 18 115 52 185 67 228
80 251 73 16 -5 19 -4 14 5 -6 10 -1 11 17 7 27 -7 171 40 323 104 l80 34 -50
6 c-27 3 -64 12 -82 18 -24 10 -37 10 -54 1 -12 -7 -79 -36 -148 -65 -69 -29
-144 -61 -166 -70 -71 -30 -23 0 60 37 387 175 435 200 435 223 0 18 -48 42
-165 84 -158 56 -206 95 -191 155 9 38 68 90 142 127 117 58 229 74 294 41z
m-1493 -155 c-19 -56 -50 -145 -67 -197 -40 -117 -61 -172 -71 -184 -10 -12 5
47 30 118 12 33 21 62 21 66 0 4 -24 6 -52 6 -65 -1 -70 -8 -97 -116 -12 -46
-23 -86 -26 -88 -14 -14 -1 52 31 161 84 287 119 381 134 357 6 -10 14 -11 37
-2 48 19 67 19 82 -1 12 -16 9 -32 -22 -120z m-2076 76 c6 -6 9 -23 7 -39 -4
-35 -22 -39 -115 -29 l-63 7 0 37 c0 21 2 40 4 42 9 9 157 -8 167 -18z m-248
-97 c4 -6 6 -24 5 -41 -3 -28 -6 -30 -50 -33 -26 -2 -65 2 -87 8 -37 10 -41
14 -41 44 0 18 3 36 7 40 11 11 157 -5 166 -18z m235 -12 c17 -5 22 -14 22
-40 0 -22 -6 -36 -15 -39 -47 -15 -51 -18 -30 -23 32 -7 45 -22 45 -54 0 -37
-14 -42 -102 -31 l-73 8 -3 38 -3 37 48 1 48 0 -45 17 c-41 16 -45 21 -48 55
l-3 37 68 0 c37 0 78 -3 91 -6z m-231 -94 c2 0 3 -19 3 -41 l0 -42 -82 7 c-44
4 -85 9 -90 12 -4 3 -8 20 -8 39 l0 34 58 3 c31 2 70 0 87 -4 16 -5 31 -8 32
-8z m4926 -56 c35 -6 37 -8 37 -45 l0 -39 -57 0 c-32 0 -75 3 -95 6 -35 6 -38
9 -38 39 0 17 3 35 7 38 8 9 96 9 146 1z m-25 -121 c57 -6 68 -17 58 -58 -6
-22 -12 -25 -50 -25 -24 0 -64 3 -90 6 -46 7 -46 7 -46 45 0 38 1 39 38 39 20
0 61 -3 90 -7z m-2406 -99 l-18 -49 340 -2 c188 -1 357 -6 376 -11 23 -6 -54
-8 -225 -4 -424 8 -856 -22 -1100 -77 -103 -23 -166 -44 -105 -36 388 56 804
97 860 86 8 -1 137 -3 285 -3 l270 -1 -165 -8 c-303 -16 -577 -47 -735 -84
-22 -6 -27 -5 -19 4 14 15 232 60 347 71 81 8 74 8 -63 5 -168 -5 -403 -30
-654 -70 -88 -14 -176 -25 -195 -25 -34 1 -35 1 -16 16 24 18 123 47 230 68
103 20 394 56 449 56 87 0 103 8 120 58 9 25 16 59 17 76 l1 31 9 -26 c7 -20
5 -39 -9 -75z m-2979 27 c-11 -42 67 -61 312 -77 55 -3 132 -12 170 -19 82
-16 309 -38 630 -61 301 -21 409 -31 360 -33 -22 0 -101 4 -175 9 -325 23
-956 59 -1080 62 -133 3 -135 3 -138 -19 -5 -35 -41 -30 -48 6 -5 22 -15 33
-43 44 -42 17 -49 10 -50 -57 -1 -66 -19 -28 -22 45 -3 76 2 86 45 105 41 18
45 17 39 -5z m6657 -22 c9 -15 1 -23 -52 -52 -35 -19 -186 -103 -336 -186
-151 -83 -299 -160 -330 -171 -31 -10 -56 -24 -55 -30 2 -5 -2 -10 -7 -10 -5
0 -9 -3 -9 -7 5 -31 -3 -49 -21 -49 -16 0 -20 7 -20 31 l0 31 -292 17 c-866
53 -1255 77 -1273 81 -50 9 75 4 370 -14 790 -49 885 -52 1066 -42 96 5 188 8
205 5 22 -3 53 5 105 29 74 35 219 123 219 134 0 3 -6 2 -12 -2 -7 -4 -11 -5
-8 -1 3 3 30 19 60 35 30 16 87 48 127 70 40 22 73 36 75 30 3 -9 126 49 163
78 19 14 19 16 3 28 -22 16 -23 27 -3 20 9 -4 20 -15 25 -25z m-1480 -8 c21
-6 25 -13 25 -41 0 -34 -1 -35 -45 -38 -25 -1 -65 1 -90 6 -36 6 -46 12 -48
30 -7 45 3 52 70 51 35 -1 74 -4 88 -8z m258 -23 c20 -20 15 -66 -8 -73 -31
-10 -158 6 -171 21 -6 8 -8 25 -5 39 6 24 9 25 89 25 51 0 88 -5 95 -12z"/>
<path d="M205 2239 c-8 -24 4 -197 14 -203 3 -2 21 -7 39 -11 l32 -7 0 89 c0
113 -5 129 -42 142 -39 14 -36 15 -43 -10z"/>
<path d="M1625 1493 c-11 -2 -29 -6 -41 -8 -21 -5 -26 -21 -49 -183 l-7 -42
45 24 c109 58 187 127 187 167 0 23 -6 28 -44 38 -46 11 -56 12 -91 4z"/>
<path d="M2469 1053 c-16 -4 -67 -119 -57 -128 14 -14 264 91 262 110 -2 19
-154 32 -205 18z"/>
<path d="M2440 813 c-78 -8 -76 -6 -111 -113 -18 -54 -31 -102 -28 -105 9 -8
185 53 272 94 97 47 133 76 117 96 -21 25 -145 39 -250 28z"/>
<path d="M2604 2745 c-4 -15 -11 -22 -20 -18 -10 4 -12 0 -7 -13 4 -12 3 -15
-5 -10 -7 4 -12 3 -12 -3 0 -6 -21 -23 -47 -38 -27 -15 -50 -30 -53 -33 -7 -8
-108 -40 -126 -40 -8 0 -14 -7 -14 -15 0 -18 -6 -18 79 0 39 8 105 29 146 47
72 31 92 52 60 64 -8 4 -15 11 -15 17 0 6 11 0 25 -13 l25 -23 40 28 c45 31
51 52 18 59 -83 17 -88 16 -94 -9z"/>
</g>
</svg>
