<?xml version="1.0" standalone="no"?>
<!DOCTYPE svg PUBLIC "-//W3C//DTD SVG 20010904//EN"
 "http://www.w3.org/TR/2001/REC-SVG-20010904/DTD/svg10.dtd">
<svg version="1.0" xmlns="http://www.w3.org/2000/svg"
 width="720.000000pt" height="544.000000pt" viewBox="0 0 720.000000 544.000000"
 preserveAspectRatio="xMidYMid meet">
<metadata>
Created by potrace 1.16, written by Peter Selinger 2001-2019
</metadata>
<g transform="translate(0.000000,544.000000) scale(0.100000,-0.100000)"
fill="#000000" stroke="none">
<path d="M3770 5433 c-53 -9 -178 -47 -249 -75 -143 -56 -346 -212 -366 -280
-7 -23 -20 -37 -42 -47 -42 -18 -96 -115 -88 -157 9 -48 -27 -125 -73 -157
-153 -104 -199 -356 -97 -532 36 -62 233 -205 282 -205 13 0 26 -15 41 -45 12
-25 41 -66 64 -91 l41 -45 -40 7 c-132 21 -299 -80 -372 -224 -30 -60 -31 -63
-16 -98 24 -58 21 -64 -29 -58 -37 6 -64 -1 -178 -45 -73 -29 -145 -61 -161
-72 -22 -16 -31 -18 -49 -8 -41 22 -228 9 -340 -23 -20 -6 -58 -28 -85 -49
-55 -44 -80 -61 -161 -107 -32 -18 -97 -70 -144 -115 -69 -65 -89 -91 -98
-124 -9 -38 -14 -43 -38 -42 -17 1 -20 3 -10 6 16 4 16 6 4 19 -23 22 -39 17
-34 -11 3 -14 0 -29 -6 -33 -9 -6 -160 -49 -274 -79 -18 -4 -22 -1 -22 19 0
35 -18 48 -70 48 -57 0 -70 -12 -70 -67 l0 -42 -73 1 c-93 1 -134 -18 -139
-64 -2 -25 -9 -33 -33 -41 -16 -5 -109 -40 -205 -77 -96 -37 -237 -91 -312
-120 -78 -30 -146 -63 -159 -76 -21 -23 -22 -27 -13 -161 l9 -138 32 -20 c21
-13 34 -30 37 -50 3 -16 25 -289 51 -605 25 -316 48 -607 52 -645 l5 -71 -40
-18 c-23 -10 -51 -29 -63 -42 -19 -21 -21 -31 -17 -96 5 -62 9 -75 32 -95 49
-42 71 -45 716 -88 1538 -104 1739 -118 2525 -175 1034 -76 1350 -99 1471
-110 60 -6 354 -10 652 -10 l542 0 0 58 0 58 -272 16 c-150 10 -478 30 -728
45 -250 15 -438 29 -417 31 21 2 158 -4 305 -13 711 -42 794 -46 922 -40 74 3
162 8 195 11 45 4 56 2 45 -6 -29 -21 62 1 130 32 73 33 206 113 217 131 17
27 240 147 260 140 12 -4 109 44 148 73 20 15 20 15 1 30 -11 7 -17 16 -14 20
4 3 16 -4 28 -16 12 -12 18 -26 13 -30 -4 -5 -118 -69 -253 -143 -135 -73
-281 -154 -325 -179 -44 -25 -108 -56 -142 -68 -49 -17 -63 -27 -63 -43 0 -14
-5 -18 -20 -14 -11 3 -20 1 -20 -4 0 -5 7 -9 15 -9 8 0 15 -7 15 -16 0 -10 -6
-14 -15 -10 -11 4 -15 -2 -15 -24 l0 -30 91 0 91 0 277 161 c152 89 299 177
327 194 56 36 64 54 64 151 0 48 -3 55 -36 82 l-36 30 16 188 c16 184 41 536
70 978 l15 219 27 22 c25 20 29 31 35 101 4 44 8 120 8 170 1 141 1 142 -369
169 -344 25 -330 23 -330 51 0 13 -4 24 -10 24 -5 0 -10 -4 -10 -8 0 -5 -18
-14 -39 -21 -21 -6 -42 -18 -45 -26 -3 -8 -13 -15 -21 -15 -14 0 -13 -4 4 -26
12 -15 21 -31 21 -36 0 -5 16 -24 35 -42 27 -26 35 -41 34 -67 0 -19 -3 -27
-6 -19 -3 8 -18 29 -34 47 l-27 32 -27 -34 c-67 -89 -272 -153 -601 -190 -75
-8 -138 -15 -141 -15 -2 0 -3 -19 -1 -42 3 -40 5 -43 38 -49 19 -4 -14 -6 -75
-6 -60 0 -100 2 -87 4 20 4 23 10 21 49 l-3 44 -61 0 c-256 0 -596 51 -740
112 -125 53 -204 124 -189 172 7 25 51 74 79 88 15 8 14 4 -7 -18 -50 -54 -55
-100 -14 -139 104 -100 424 -176 745 -177 467 -1 560 6 765 58 106 27 174 57
225 99 26 22 31 34 31 68 0 69 -1 69 -135 43 -153 -30 -181 -21 -44 14 57 15
129 38 159 52 30 14 66 29 80 33 53 15 70 33 70 76 0 37 -3 41 -37 55 -32 14
-92 15 -193 3 -8 -1 -76 10 -150 24 -196 37 -323 47 -600 47 -243 0 -407 -13
-555 -44 l-65 -14 0 33 c0 44 -22 59 -83 58 -59 -1 -77 -18 -77 -73 l0 -35
-94 0 c-78 0 -97 -3 -115 -19 -12 -11 -21 -27 -21 -38 0 -15 -8 -18 -47 -18
l-48 1 40 22 c56 31 118 91 174 167 61 83 72 104 86 165 l11 50 50 5 c49 5
101 30 117 57 5 8 26 13 56 13 26 0 56 6 67 14 12 10 33 13 59 10 45 -6 148
28 301 100 88 42 134 81 134 116 0 12 16 21 58 33 102 28 171 119 172 224 0
41 4 54 19 62 45 25 82 175 80 326 -1 78 -15 26 -23 -85 -9 -119 -21 -166 -53
-209 -30 -38 -114 -81 -158 -80 -23 1 -25 3 -7 6 20 4 22 10 22 71 0 76 18
288 26 315 4 12 0 17 -15 17 -12 0 -21 6 -21 14 0 10 -23 15 -87 20 -49 3
-103 9 -121 12 -32 6 -33 5 -21 -13 10 -17 9 -24 -4 -44 -10 -13 -17 -36 -17
-51 0 -15 -9 -66 -20 -114 -11 -48 -21 -107 -22 -131 -2 -24 -7 -42 -12 -40
-5 2 -28 25 -50 51 l-41 48 -3 111 c-2 62 -8 117 -14 122 -11 11 -5 -205 6
-240 6 -17 0 -22 -36 -33 -24 -7 -62 -23 -84 -34 l-42 -20 -57 26 c-141 67
-305 52 -413 -39 -25 -21 -34 -24 -57 -15 -33 13 -128 13 -140 1 -11 -11 -105
-2 -105 9 0 4 17 10 38 14 67 11 269 114 306 155 23 25 34 26 72 6 36 -19 87
-19 122 -1 15 7 51 16 81 19 41 5 69 17 122 53 65 43 129 119 129 151 0 21 -8
15 -25 -17 -39 -76 -109 -124 -130 -90 -3 6 3 10 13 10 22 0 82 62 108 112 10
18 22 53 27 78 15 66 14 187 -1 202 -6 6 -12 20 -12 29 0 9 -7 22 -15 29 -19
16 -5 33 18 25 23 -9 48 -81 56 -160 6 -58 8 -65 14 -40 18 72 -41 231 -114
310 -40 43 -62 116 -40 129 25 16 -4 155 -38 178 -10 8 -26 37 -34 65 -40 135
-233 341 -408 436 -76 42 -217 93 -312 113 -64 13 -322 18 -387 7z m307 -253
c89 -21 190 -63 264 -111 l46 -29 -71 -73 c-39 -39 -79 -87 -89 -104 -28 -50
-15 -39 28 23 44 64 120 134 145 134 20 0 102 -90 148 -164 17 -27 41 -78 53
-113 20 -62 21 -67 5 -122 -9 -32 -16 -79 -16 -105 0 -32 -12 -79 -36 -139
-41 -102 -68 -225 -83 -375 -10 -105 -9 -104 -72 -179 -16 -21 3 -15 27 8 l22
21 7 -32 c6 -26 11 -31 28 -26 38 9 -31 -41 -108 -79 -114 -56 -345 -115 -345
-88 0 6 18 13 41 17 54 9 109 32 109 47 0 7 -12 9 -37 5 -21 -3 -59 -9 -84
-12 l-46 -6 -11 53 -11 54 5 -51 4 -51 -46 -7 c-116 -15 -225 -2 -310 40 -51
25 -104 73 -104 95 0 5 -5 7 -10 4 -6 -4 -8 -10 -5 -15 3 -5 1 -18 -4 -29 -9
-15 -7 -20 12 -26 12 -4 28 -6 35 -6 6 1 12 -3 12 -9 0 -5 6 -10 13 -10 18 0
67 -24 67 -32 0 -5 9 -8 20 -8 13 0 18 -5 14 -15 -4 -10 0 -15 15 -15 12 0 21
4 21 10 0 5 7 7 15 4 8 -4 13 -10 10 -14 -7 -12 35 -17 146 -19 89 -2 99 0
100 16 0 16 1 16 9 -2 5 -11 9 -23 9 -27 2 -14 -245 -8 -326 7 -176 33 -320
103 -409 197 -71 75 -98 127 -131 253 -26 102 -28 123 -27 295 0 220 12 282
81 411 53 102 110 174 184 236 62 50 152 107 189 118 23 7 22 4 -12 -31 -35
-37 -103 -175 -96 -196 2 -5 18 26 36 69 19 47 51 100 77 130 37 42 54 53 107
68 135 38 235 39 385 5z m-1005 -440 c-51 -48 -72 -102 -88 -223 -26 -197 7
-398 76 -467 9 -8 11 -12 6 -7 -6 4 -19 7 -29 7 -11 0 -34 15 -51 33 -17 17
-44 40 -59 50 -15 10 -37 32 -47 50 -32 51 -23 55 10 5 30 -46 71 -78 51 -40
-20 37 -33 187 -26 295 6 87 5 107 -6 107 -9 0 -5 7 8 18 12 9 29 37 38 62 9
24 27 63 40 87 24 40 33 45 94 52 8 0 0 -12 -17 -29z m1863 -210 c18 -7 25
-15 21 -25 -3 -9 0 -15 9 -15 14 0 67 -61 60 -69 -3 -2 -13 7 -24 20 -29 37
-89 65 -109 53 -26 -16 -82 -93 -82 -113 0 -16 63 -48 83 -43 11 3 9 -6 -10
-36 -9 -15 -18 -28 -18 -30 -1 -1 -18 4 -37 12 -28 12 -39 13 -51 3 -23 -17
-47 -151 -47 -260 0 -104 15 -155 52 -181 16 -11 18 -16 8 -17 -59 -5 -94 24
-115 95 -21 71 -19 207 5 300 15 59 17 81 8 95 -18 29 -2 67 29 75 18 4 42 25
66 57 36 48 89 89 114 89 6 0 24 -5 38 -10z m-1629 -765 c27 -14 65 -39 84
-56 l35 -30 -35 7 c-19 4 -48 6 -65 5 -36 -2 -135 -29 -135 -37 0 -3 12 -20
26 -39 22 -29 23 -33 6 -28 -21 5 -39 -9 -138 -105 -35 -34 -69 -60 -75 -56
-12 7 15 -40 39 -68 8 -10 13 -18 10 -18 -3 0 -34 34 -69 76 -35 42 -76 82
-91 90 -34 17 -36 9 -6 -23 16 -17 19 -26 11 -34 -9 -9 -16 -1 -28 27 -15 37
-15 41 7 88 84 181 280 274 424 201z m1562 -105 c28 -13 52 -26 52 -30 0 -4
-30 -14 -66 -21 -111 -22 -177 -78 -215 -181 -7 -21 -16 -38 -20 -38 -4 0 -16
-3 -26 -6 -14 -5 -14 -3 3 9 27 20 28 64 3 78 -10 5 -51 10 -90 11 -59 1 -74
-2 -85 -17 -13 -18 -14 -18 -14 3 0 35 45 116 82 147 34 29 80 52 133 66 53
14 185 3 243 -21z m272 25 c0 -14 -33 -54 -41 -49 -5 3 -6 -1 -3 -9 3 -8 1
-18 -5 -22 -15 -8 -14 -143 0 -186 19 -56 80 -127 127 -150 55 -27 122 -22
158 12 13 12 24 18 24 13 0 -34 -102 -93 -270 -156 -111 -42 -154 -49 -173
-28 -9 10 -9 11 0 6 6 -3 70 19 142 49 71 31 149 60 173 64 l43 9 -43 1 c-24
1 -57 8 -73 17 -45 23 -107 82 -125 119 l-15 33 -67 -28 c-43 -18 -94 -30
-144 -34 -76 -6 -78 -5 -78 17 1 54 20 111 52 160 29 43 48 59 104 87 110 54
214 91 214 75z m-1770 -115 l-32 -40 31 0 32 0 -17 -32 -16 -33 24 29 c23 27
25 28 66 16 23 -7 39 -16 37 -21 -3 -4 -1 -10 4 -14 6 -3 8 -12 5 -20 -4 -10
0 -12 15 -8 12 3 21 10 21 15 0 5 -4 7 -9 4 -5 -3 -11 1 -14 9 -5 11 -1 12 18
5 16 -6 25 -6 25 0 0 6 16 -8 36 -30 38 -42 105 -72 185 -84 76 -11 175 10
269 57 108 54 108 53 91 34 -12 -15 -10 -17 25 -17 42 0 192 37 212 53 14 11
15 3 1 -68 -5 -27 -12 -68 -16 -90 -4 -22 -7 -90 -7 -151 1 -97 -1 -111 -15
-109 -9 1 -21 -2 -28 -7 -15 -12 -19 5 -33 117 l-9 80 4 -75 c3 -41 7 -100 11
-130 4 -38 3 -51 -4 -41 -8 11 -14 12 -24 4 -27 -23 -218 -122 -263 -137 l-47
-16 -38 30 c-55 43 -147 88 -197 96 -40 6 -43 9 -44 38 -2 27 -3 28 -6 6 -4
-25 -7 -26 -66 -25 -34 0 -78 -3 -97 -7 -34 -7 -36 -5 -74 49 -37 53 -40 55
-49 35 -6 -12 -14 -22 -19 -22 -15 0 -36 62 -43 130 -7 69 -24 130 -37 130
-12 0 -28 -71 -28 -126 0 -60 26 -166 62 -249 45 -103 44 -175 -1 -87 -42 82
-63 175 -68 297 -5 103 -2 132 16 200 27 97 62 169 104 213 42 44 45 40 7 -8z
m-522 -165 c52 -22 119 -90 153 -157 34 -67 35 -73 11 -75 -10 -1 -57 -20
-105 -42 -48 -22 -104 -43 -124 -47 -38 -6 -38 -5 -62 46 -47 100 -116 160
-185 160 -31 0 -37 3 -28 12 11 11 276 117 295 118 4 0 24 -7 45 -15z m-423
-116 c52 -15 146 -110 163 -166 12 -41 16 -91 7 -81 -5 4 -114 -12 -154 -23
-10 -3 -17 9 -23 35 -10 48 -84 128 -150 162 -65 33 -147 33 -213 -1 -59 -29
-68 -26 -23 8 47 36 80 47 183 62 119 16 162 17 210 4z m-323 -119 c11 0 33
-13 49 -29 42 -43 41 -104 -3 -159 -34 -42 -48 -51 -48 -30 0 6 -10 22 -22 35
-25 27 -73 31 -104 8 -19 -13 -22 -12 -32 10 -6 14 -22 27 -35 30 -28 7 -77
-10 -77 -27 0 -7 -6 -2 -13 12 -7 14 -21 24 -30 24 -25 -2 -22 2 26 34 96 66
210 109 255 96 8 -2 23 -4 34 -4z m1124 -97 c22 -101 37 -149 58 -192 26 -49
67 -91 92 -91 20 0 32 -29 40 -98 l7 -62 -76 0 c-57 0 -76 4 -81 15 -4 11 -20
15 -55 15 -34 0 -51 -4 -55 -15 -7 -19 -35 -19 -56 0 -11 10 -49 17 -113 22
l-96 6 -3 45 c-4 65 -33 84 -129 84 -84 0 -129 -13 -136 -42 -7 -25 -2 -25
-84 2 l-68 22 32 19 c18 10 41 29 52 42 19 21 23 22 71 12 46 -9 62 -7 161 21
197 57 235 74 261 120 19 35 31 43 76 56 29 9 59 23 66 31 18 22 29 18 36 -12z
m-874 -205 c12 -10 17 -34 20 -89 l3 -75 -25 13 c-14 7 -35 13 -47 13 -18 0
-24 9 -33 43 -6 23 -13 48 -15 55 -6 18 31 52 58 52 13 0 30 -6 39 -12z m-429
-68 c7 -12 0 -31 -27 -73 -38 -59 -60 -77 -95 -77 -23 0 -28 27 -11 58 5 9 18
39 29 65 20 46 22 48 57 45 20 -2 41 -10 47 -18z m3702 -120 c273 -19 566 -76
573 -113 5 -25 -23 -22 -130 14 -201 68 -453 95 -787 85 -149 -5 -262 -13
-339 -26 -63 -11 -117 -18 -120 -15 -7 7 14 12 133 30 221 33 432 41 670 25z
m-4485 -29 c-5 -11 -15 -23 -20 -26 -16 -10 -11 -61 8 -77 71 -63 253 -105
495 -115 128 -5 149 -4 165 11 10 9 22 13 25 9 4 -3 7 -1 7 5 0 8 -20 12 -57
12 -31 0 -54 2 -52 4 2 2 87 6 189 9 163 4 175 3 100 -6 -47 -6 -75 -13 -62
-15 13 -2 20 -8 16 -14 -9 -15 219 -4 343 17 194 32 341 98 354 160 l7 30 1
-31 c0 -16 -5 -37 -11 -46 -50 -63 -257 -124 -549 -162 -127 -17 -179 -38
-179 -73 0 -17 7 -23 33 -26 17 -2 -3 -5 -45 -5 l-78 -2 0 28 c0 15 -4 32 -8
39 -5 8 -64 16 -167 23 -132 9 -288 30 -401 54 -62 13 -139 54 -167 88 -28 34
-29 39 -17 68 10 25 42 49 78 59 1 1 -2 -8 -8 -18z m4474 -136 c99 -26 113
-54 44 -85 -99 -43 -380 -52 -495 -16 -58 18 -83 47 -63 72 42 49 368 68 514
29z m-4950 -24 c-5 -5 -39 -18 -75 -29 -95 -29 -279 -120 -279 -138 0 -8 11
-19 25 -24 23 -9 520 -50 604 -50 19 0 32 -3 28 -6 -3 -3 -23 -6 -44 -6 -29 0
-33 -2 -17 -8 41 -16 259 -32 724 -55 168 -8 31 12 -180 27 -107 7 -181 15
-165 16 17 2 140 -3 275 -12 135 -9 322 -21 415 -26 226 -15 463 -37 398 -39
-28 0 -54 -5 -57 -9 -5 -9 90 -17 624 -52 168 -11 400 -27 515 -35 116 -8 266
-17 335 -20 69 -2 166 -8 215 -11 103 -8 109 6 7 17 -50 6 -39 7 48 3 148 -5
542 -32 645 -44 70 -8 64 -8 -50 -4 -71 2 -164 7 -205 10 -41 4 -73 4 -70 1
12 -13 895 -75 906 -64 3 3 -21 8 -53 12 -32 4 -62 8 -68 10 -24 9 363 -8 620
-27 448 -33 526 -23 670 84 142 105 354 236 373 231 11 -2 23 0 26 6 4 6 16
11 27 11 14 0 18 -4 12 -12 -4 -8 3 -7 17 3 14 9 39 24 55 34 45 28 115 85
115 94 0 18 -60 30 -194 40 -76 5 -144 15 -150 21 -8 8 -7 10 4 6 8 -3 82 -10
163 -15 149 -9 197 -23 197 -55 0 -22 -629 -460 -700 -487 l-45 -17 -7 -108
c-4 -60 -10 -114 -13 -121 -2 -7 -19 -13 -38 -13 -31 0 -33 2 -31 28 2 15 5
66 7 115 l5 87 -122 0 c-66 0 -173 5 -236 10 -63 5 -196 14 -295 20 -99 5
-355 21 -570 35 -214 14 -469 29 -565 35 -96 6 -303 20 -460 30 -157 11 -487
34 -735 50 -579 38 -1255 85 -1610 110 -601 43 -740 51 -1010 60 -154 5 -295
10 -314 10 l-34 0 5 -85 c2 -47 9 -90 14 -94 5 -5 50 -14 99 -20 307 -36 361
-42 370 -46 31 -13 -516 21 -568 35 -57 17 -65 38 -69 177 -4 143 -10 133 121
181 47 18 149 56 226 85 132 51 161 59 139 38z m3103 -217 c4 -10 -5 -27 -24
-46 -30 -30 -30 -30 -108 -21 -47 5 -80 13 -82 20 -3 7 8 24 23 38 24 22 35
25 106 25 63 0 80 -3 85 -16z m-1951 -415 c60 -29 87 -74 73 -122 -5 -19 -32
-54 -68 -88 -61 -56 -66 -69 -27 -69 36 0 83 -36 102 -79 30 -64 47 -55 83 44
12 33 41 104 64 158 37 88 44 98 64 94 13 -2 31 2 40 9 10 7 26 14 36 14 9 0
17 5 17 10 0 6 5 10 10 10 6 0 10 -9 10 -20 0 -11 4 -28 9 -38 6 -9 18 -71 28
-137 17 -110 20 -120 41 -123 15 -2 22 -11 23 -25 0 -12 9 4 19 35 24 77 60
137 111 182 105 96 211 99 258 8 17 -31 -12 -134 -34 -126 -8 4 -15 1 -15 -5
0 -6 -4 -11 -9 -11 -18 0 -41 32 -41 56 0 36 -32 31 -75 -11 -47 -47 -76 -107
-82 -169 -4 -43 -1 -56 18 -80 19 -24 27 -28 60 -23 20 3 64 23 98 46 34 23
61 40 61 37 0 -3 -4 -16 -10 -30 -7 -20 -6 -26 4 -26 28 0 55 46 66 115 15 92
51 268 56 277 3 4 12 4 20 1 9 -3 19 -1 23 4 3 5 17 13 31 16 40 10 52 -27 34
-110 -7 -37 -12 -68 -10 -70 2 -2 25 16 52 40 89 79 178 147 193 147 8 0 28
12 43 27 15 15 28 22 28 17 0 -6 -13 -23 -30 -39 -34 -33 -40 -51 -11 -35 30
15 36 12 17 -9 -13 -15 -14 -20 -4 -24 13 -5 -38 -61 -112 -121 -19 -16 -54
-46 -78 -68 l-43 -39 97 -120 c53 -66 99 -118 101 -115 2 2 -1 13 -8 23 -12
20 -4 102 8 89 3 -3 12 -1 20 5 7 6 13 8 13 4 0 -4 6 -3 13 3 10 9 16 4 26
-23 8 -23 21 -37 37 -41 36 -9 94 2 124 24 45 34 33 51 -70 104 -112 59 -138
80 -146 123 -11 60 38 120 138 171 119 60 228 31 228 -61 0 -29 -28 -90 -37
-81 -3 3 -12 -2 -19 -12 -13 -16 -13 -16 -14 0 0 11 -5 15 -15 12 -11 -5 -15
1 -15 25 0 36 -11 38 -70 15 -39 -16 -66 -46 -56 -62 3 -5 40 -26 82 -48 106
-53 164 -109 164 -157 0 -64 -61 -117 -186 -162 -64 -23 -126 -34 -111 -18 7
6 -84 53 -92 47 -2 -1 18 -30 44 -63 25 -34 44 -61 42 -61 -2 0 -28 18 -57 40
-56 42 -85 53 -57 22 27 -29 20 -35 -14 -12 -24 18 -39 21 -77 17 -42 -5 -44
-5 -19 5 15 7 27 15 27 20 0 4 -24 31 -53 60 -29 29 -74 76 -99 105 l-45 52
-17 -75 c-9 -41 -16 -83 -16 -94 0 -11 -4 -20 -10 -20 -5 0 -7 7 -4 15 4 8 2
15 -4 15 -9 0 -27 -37 -35 -75 -3 -11 -5 -5 -6 15 -1 19 -6 42 -11 50 -9 13
-11 13 -21 0 -8 -11 -9 4 -6 58 l4 74 -71 -70 c-68 -67 -119 -102 -149 -102
-31 0 -107 42 -136 75 -16 19 -35 54 -41 77 -6 24 -12 47 -13 51 -1 4 -10 2
-19 -5 -16 -12 -16 -18 -3 -83 17 -79 18 -99 4 -70 -7 14 -8 2 -5 -40 5 -57 4
-59 -9 -30 -8 17 -14 36 -15 44 0 10 -3 11 -14 2 -11 -9 -15 -7 -20 11 -5 18
-8 20 -15 9 -7 -11 -13 0 -25 40 -8 30 -16 63 -18 74 -4 22 -26 23 -109 4 -45
-10 -48 -12 -68 -70 -12 -33 -28 -59 -36 -59 -7 0 -19 -13 -27 -30 -17 -38
-24 -38 -32 2 -6 30 -7 31 -21 12 -19 -25 -19 -10 1 56 11 38 13 55 5 58 -6 2
-8 9 -5 15 4 7 -17 -11 -47 -40 -30 -29 -84 -72 -121 -96 -37 -24 -65 -46 -62
-49 2 -3 -21 -18 -53 -34 -76 -38 -77 -38 -69 -25 4 6 1 11 -7 11 -16 0 -26
-19 -28 -53 -1 -17 -3 -15 -9 8 l-7 30 -11 -28 c-7 -16 -12 -48 -12 -73 0 -24
-5 -44 -11 -44 -5 0 -8 4 -5 9 8 13 -5 101 -15 101 -4 0 -10 -10 -12 -22 l-4
-23 -8 23 c-4 12 -8 22 -9 22 -1 0 -16 -4 -34 -9 -20 -6 -32 -6 -32 0 0 5 5 9
10 9 6 0 10 5 10 10 0 6 -9 10 -20 10 -23 0 -27 15 -5 24 21 8 19 27 -2 20
-10 -3 -5 5 12 20 17 14 35 26 41 26 24 0 32 29 36 133 4 85 2 107 -9 107 -13
0 -18 17 -15 53 1 9 -4 17 -11 17 -6 0 2 10 20 21 26 16 34 30 42 72 17 89 19
118 7 113 -96 -38 -116 -44 -121 -36 -3 6 -1 10 4 10 6 0 11 7 11 15 0 20 -19
19 -87 -5 -31 -11 -58 -18 -60 -17 -1 2 24 16 58 32 57 28 109 68 67 52 -10
-3 -18 -2 -18 3 0 12 98 62 166 84 132 43 259 45 340 5z m-1421 -214 c9 -99
20 -234 25 -300 5 -66 16 -194 24 -285 8 -91 17 -212 21 -270 3 -58 8 -121 11
-140 4 -22 2 -31 -4 -25 -5 6 -17 87 -26 180 -14 153 -22 245 -56 670 -14 184
-23 361 -16 355 3 -3 12 -87 21 -185z m3899 123 c4 -24 14 -94 22 -157 13
-109 22 -130 51 -131 7 0 10 -7 7 -15 -4 -8 -2 -15 3 -15 5 0 22 30 37 66 69
157 238 272 357 241 51 -13 82 -57 73 -102 -11 -50 -33 -85 -49 -79 -8 4 -15
1 -15 -5 0 -8 -6 -7 -20 1 -12 8 -20 24 -20 40 0 53 -68 30 -143 -48 -71 -74
-100 -182 -60 -226 28 -31 102 -17 156 30 27 24 20 32 -28 32 -33 0 -45 4 -46
15 -4 67 -4 69 30 76 17 4 75 10 127 14 l94 7 0 -30 c0 -17 -7 -43 -15 -59 -8
-15 -31 -82 -52 -147 -26 -87 -38 -115 -44 -100 -6 16 -9 14 -23 -18 -9 -21
-16 -45 -16 -54 0 -10 -3 -14 -7 -10 -4 4 -6 25 -4 46 3 40 -13 55 -23 23 -3
-10 -4 6 -2 35 2 28 2 52 1 52 -1 0 -23 -11 -49 -25 -58 -31 -78 -31 -135 -2
-58 30 -101 84 -108 136 -5 34 -9 41 -28 41 -21 0 -22 -1 -10 -82 11 -72 10
-79 -3 -62 -13 17 -14 13 -9 -39 6 -59 -6 -70 -18 -16 -4 16 -12 28 -18 26 -7
-2 -17 5 -24 17 -7 12 -12 15 -13 9 0 -7 -4 -13 -9 -13 -5 0 -12 21 -16 48
-14 100 -9 95 -84 87 -99 -9 -100 -10 -136 -89 -19 -39 -34 -63 -34 -53 -1 30
-20 18 -46 -30 -22 -41 -25 -43 -20 -18 6 38 -10 68 -24 45 -21 -31 -18 -2 4
50 17 40 20 56 11 58 -15 3 -17 62 -3 62 5 0 4 6 -3 14 -9 12 -6 16 24 21 35
7 44 20 154 247 2 4 -9 6 -25 3 -15 -2 -65 -9 -109 -16 l-81 -11 -15 -57 c-9
-31 -33 -128 -54 -216 -29 -119 -40 -152 -44 -130 l-5 30 -22 -36 c-12 -19
-27 -46 -33 -60 -8 -19 -9 -14 -4 27 3 33 2 54 -5 59 -6 3 -11 1 -11 -4 0 -6
-5 -11 -10 -11 -6 0 -8 17 -4 43 7 52 53 295 61 321 6 20 -1 20 -121 0 -28 -5
-37 -4 -32 4 4 7 4 18 -1 25 -13 20 -12 66 2 77 7 6 53 16 101 22 49 6 95 16
102 21 15 11 232 20 276 11 28 -6 29 -7 11 -20 -17 -13 -17 -14 0 -20 15 -6
13 -9 -11 -20 l-29 -12 40 -1 c36 -1 42 3 60 35 14 27 23 34 40 30 20 -5 87
13 101 27 15 14 22 6 28 -35z m1101 -72 c10 -9 25 -14 35 -11 10 3 21 1 24 -4
4 -5 -13 -13 -38 -16 -25 -4 -53 -13 -63 -21 -17 -12 -16 -13 7 -14 46 -2 -9
-17 -86 -24 -178 -16 -171 -15 -177 -44 -3 -15 -9 -35 -13 -45 -6 -17 -1 -19
62 -17 84 3 123 0 107 -7 -20 -8 -15 -23 7 -23 32 0 23 -17 -12 -25 -28 -6
-30 -8 -14 -14 30 -11 3 -18 -102 -26 l-90 -7 -13 -47 c-7 -25 -12 -48 -11
-50 1 -2 71 -3 155 -2 88 1 158 -3 167 -9 12 -8 9 -10 -13 -10 -16 0 -26 -4
-22 -10 3 -5 39 -11 78 -12 40 0 56 -3 37 -5 -111 -10 -140 -15 -140 -24 0 -5
12 -9 27 -9 14 0 24 -2 22 -4 -2 -2 -76 -10 -164 -16 -88 -7 -172 -18 -187
-25 -20 -10 -28 -10 -31 -1 -3 6 -9 0 -15 -14 -8 -18 -11 -20 -11 -7 -1 12 -9
17 -30 17 -23 0 -30 6 -36 28 -16 57 -14 70 9 76 18 4 27 18 39 58 11 39 12
56 3 63 -18 16 -8 73 15 80 20 7 30 25 42 76 6 22 3 28 -16 33 -15 3 -22 13
-23 31 -1 14 2 25 7 25 5 0 9 9 9 19 0 30 54 45 185 52 177 9 250 5 270 -15z
m-2646 -561 c33 -10 69 -31 88 -50 33 -33 33 -35 19 -63 -16 -31 -62 -65 -141
-102 -38 -18 -45 -25 -30 -27 124 -24 185 -64 185 -121 0 -31 -8 -44 -53 -87
-58 -55 -128 -92 -252 -137 -62 -22 -71 -27 -40 -23 50 6 41 2 -70 -31 -114
-33 -138 -38 -100 -20 38 19 9 20 -50 2 -34 -10 -41 -17 -51 -51 l-12 -40 -1
37 c-2 68 -50 17 -52 -55 -1 -18 -5 -43 -10 -57 -6 -16 -7 2 -3 53 4 71 3 78
-13 75 -9 -2 -20 -14 -23 -28 l-6 -25 -7 28 c-8 28 -10 29 -82 10 -17 -4 -18
-3 -7 8 8 8 45 17 90 20 72 6 368 87 498 137 27 10 58 22 68 26 10 3 17 8 14
11 -2 2 -37 -7 -76 -20 -73 -25 -73 -25 -121 -6 -28 10 -55 15 -62 10 -7 -4
-16 -6 -20 -4 -3 3 -38 -4 -78 -15 -88 -25 -99 -25 -79 -2 9 9 19 32 23 51 6
29 5 33 -10 28 -9 -4 -36 -7 -60 -7 -42 0 -42 0 -48 -42 -3 -25 -1 -45 5 -49
14 -9 4 -14 -71 -35 -46 -12 -59 -19 -46 -24 13 -5 15 -9 7 -14 -7 -4 -10 -12
-7 -17 4 -5 -11 -9 -32 -9 l-38 1 30 13 c27 11 28 13 11 23 -16 9 -15 11 11
21 15 6 43 15 62 20 34 8 35 10 58 97 12 50 25 100 29 113 5 18 2 22 -17 23
-23 0 -23 1 -4 9 17 7 17 9 3 9 -23 1 -23 20 -1 28 15 6 14 7 -3 14 -19 7 -12
11 51 33 6 2 23 39 38 81 l27 78 -37 -7 c-53 -10 -122 -16 -100 -10 23 7 22
20 -4 27 -21 6 -21 7 7 32 l29 25 -30 -6 c-29 -6 -29 -5 -10 9 11 8 63 24 115
36 123 26 402 24 489 -4z m871 -4 c41 4 111 8 155 7 l80 0 -50 -13 c-43 -11
-46 -13 -20 -15 26 -1 27 -3 10 -10 -29 -13 31 -12 210 1 104 8 161 8 185 1
27 -8 29 -10 12 -11 -32 -1 -17 -21 16 -22 20 -1 13 -5 -28 -19 -42 -14 -49
-18 -27 -19 15 -1 27 -5 27 -10 0 -5 -59 -14 -130 -21 l-131 -13 -19 -38 c-11
-21 -20 -41 -20 -45 0 -3 37 -3 83 0 48 5 92 3 107 -3 25 -10 25 -10 2 -10
-29 -1 -19 -21 11 -22 20 -1 21 -2 2 -6 -11 -3 -31 -10 -45 -16 l-25 -10 25
-7 c18 -5 6 -8 -45 -14 -149 -14 -165 -18 -165 -32 0 -8 -7 -29 -16 -45 -8
-17 -13 -33 -11 -36 3 -2 70 0 149 5 79 5 163 6 188 2 39 -6 40 -8 13 -9 -18
0 -33 -5 -33 -11 0 -15 46 -23 100 -18 27 3 47 2 45 -2 -3 -4 -40 -10 -82 -13
-43 -3 -91 -9 -107 -13 -21 -5 -27 -4 -22 5 4 6 16 11 27 11 11 0 17 5 14 10
-3 6 -15 10 -26 10 -12 0 -17 4 -13 11 4 8 -29 9 -117 4 -68 -4 -126 -7 -129
-7 -25 -1 -28 4 -20 32 10 35 8 37 -45 42 -40 3 -40 3 -51 -41 -7 -30 -17 -47
-31 -52 -26 -9 -37 -26 -23 -34 15 -9 2 -25 -22 -25 -17 0 -19 2 -7 16 10 13
10 17 0 24 -9 5 -3 11 21 19 30 10 37 19 51 65 21 64 21 70 3 63 -16 -6 -17
28 -1 52 6 10 4 12 -6 7 -8 -4 -5 0 5 8 11 9 27 16 36 16 11 0 21 14 28 39 16
51 15 61 -4 61 -14 0 -14 3 -4 15 9 11 9 15 1 15 -7 0 -9 5 -5 11 4 8 -3 9
-22 5 -16 -3 -59 -8 -96 -12 -60 -6 -68 -9 -76 -33 -40 -109 -133 -352 -147
-381 l-16 -35 7 35 c4 19 15 54 25 77 10 24 20 53 21 66 2 12 6 27 10 32 4 7
-12 10 -48 8 -38 -1 -53 1 -48 9 4 6 3 8 -3 5 -6 -4 -25 -53 -43 -109 -31 -98
-60 -159 -44 -93 9 40 80 254 110 333 13 34 20 62 16 62 -4 0 -36 -5 -72 -10
-149 -23 -137 -22 -115 -5 19 15 19 16 -3 22 l-23 6 23 24 c19 20 20 26 8 33
-22 14 23 27 141 40 57 7 109 16 114 20 14 11 58 17 70 9 6 -3 44 -2 85 2z
m1010 -19 c19 -9 37 -26 39 -37 2 -11 8 -23 14 -27 17 -11 -28 -99 -47 -92 -9
3 -17 -3 -22 -18 l-7 -23 -9 24 c-7 19 -11 21 -22 11 -12 -9 -15 -6 -18 22 -4
41 -21 45 -92 23 -62 -20 -116 -59 -101 -74 6 -5 62 -30 126 -54 199 -77 249
-110 249 -166 0 -16 -4 -33 -10 -36 -5 -3 -10 -14 -10 -23 0 -10 -14 -23 -32
-31 -45 -20 -24 -24 68 -12 44 5 83 6 87 2 4 -4 -42 -12 -103 -18 -100 -10
-123 -17 -245 -68 -75 -32 -133 -60 -130 -63 5 -6 -83 -45 -128 -57 -20 -5
-20 -5 3 10 l25 16 -25 -7 c-34 -9 -216 -81 -252 -100 -17 -9 -32 -13 -36 -10
-3 3 30 22 72 42 43 19 76 37 74 40 -3 2 -79 -21 -169 -51 -90 -30 -168 -54
-174 -52 -5 2 13 12 40 21 28 10 77 28 110 41 93 36 206 67 244 67 35 0 250
74 351 121 l55 25 -50 1 c-27 1 -59 8 -70 17 -20 15 -68 11 -90 -7 -6 -4 -47
-22 -90 -40 -44 -17 -109 -45 -144 -61 -35 -16 -65 -27 -67 -25 -4 4 84 46
226 108 147 65 275 134 278 151 4 20 -26 36 -193 99 -116 45 -165 80 -165 121
0 62 93 135 233 183 85 29 159 32 207 7z m-1475 -12 c-3 -5 -1 -17 5 -27 9
-14 3 -42 -28 -133 -22 -63 -52 -151 -67 -195 -35 -101 -57 -158 -66 -169 -9
-11 3 39 30 123 12 35 19 66 17 68 -10 10 -66 13 -66 4 0 -6 -5 -11 -11 -11
-5 0 -7 5 -4 10 3 6 -2 10 -11 10 -10 0 -15 -3 -11 -6 3 -4 0 -13 -8 -20 -7
-8 -20 -45 -29 -82 -9 -38 -20 -80 -25 -93 l-10 -24 0 26 c-1 14 13 71 29 125
17 55 44 144 61 199 41 132 68 193 79 175 7 -11 14 -11 42 1 18 7 38 13 45 11
6 -1 14 2 18 8 3 5 8 10 11 10 3 0 3 -4 -1 -10z m-2095 -66 c6 -6 10 -24 8
-40 -4 -35 -22 -39 -115 -29 l-63 7 0 37 c0 21 2 40 4 42 9 9 156 -7 166 -17z
m-248 -98 c12 -18 9 -64 -4 -72 -18 -11 -108 -8 -140 5 -23 9 -28 17 -28 44 0
19 3 37 7 41 11 11 157 -5 165 -18z m242 -12 c21 -8 22 -73 1 -79 -47 -15 -51
-18 -30 -23 32 -7 45 -22 45 -54 0 -38 -16 -43 -103 -32 l-72 9 -3 37 c-3 36
-2 37 35 40 l38 3 -37 17 c-34 15 -38 21 -38 52 l0 36 74 0 c41 0 81 -3 90 -6z
m-246 -96 c7 -7 12 -28 12 -46 l0 -35 -81 6 c-44 4 -84 9 -90 12 -5 4 -9 22
-9 41 l0 34 78 0 c47 0 83 -5 90 -12z m4942 -57 c20 -5 26 -14 28 -44 l3 -37
-58 0 c-32 0 -75 3 -95 6 -35 6 -38 9 -38 39 0 17 3 35 7 38 8 9 120 7 153 -2z
m-20 -119 c43 -7 45 -8 45 -42 0 -34 -2 -35 -40 -38 -22 -2 -64 -1 -92 3 l-53
6 0 40 0 39 48 -1 c26 0 67 -4 92 -7z m-2400 -42 c0 -5 -8 -31 -18 -57 l-18
-48 340 -2 c188 0 357 -6 376 -11 24 -6 -55 -8 -240 -4 -467 9 -950 -31 -1165
-97 l-30 -9 30 -1 c17 0 57 3 90 9 276 44 719 82 801 70 27 -5 150 -6 274 -5
l225 4 -165 -9 c-257 -15 -493 -39 -630 -66 -145 -28 -137 -27 -124 -14 14 14
245 60 354 70 83 8 75 8 -65 5 -168 -5 -390 -28 -663 -71 -90 -14 -178 -24
-195 -22 l-32 3 31 17 c71 39 270 78 524 103 271 26 252 20 269 88 8 31 19 57
23 57 4 0 8 -4 8 -10z m-2996 -25 c-17 -43 42 -59 297 -80 102 -9 201 -20 220
-25 31 -9 253 -30 689 -64 96 -7 150 -14 120 -15 -30 0 -183 8 -340 19 -349
23 -626 38 -785 42 -118 3 -120 3 -123 -19 -5 -36 -40 -30 -49 8 -7 24 -17 34
-45 44 -21 7 -40 10 -43 7 -3 -3 -5 -28 -5 -56 -1 -39 -3 -47 -11 -34 -5 10
-9 48 -7 85 3 67 4 68 38 85 43 22 51 22 44 3z m5181 -35 c22 -8 26 -15 23
-42 -3 -32 -5 -33 -53 -36 -79 -4 -129 9 -133 37 -7 44 3 51 72 51 36 0 77 -4
91 -10z m253 -22 c7 -7 12 -24 12 -39 0 -36 -23 -43 -111 -34 -62 6 -71 10
-79 31 -18 46 -5 54 84 54 50 0 87 -5 94 -12z"/>
<path d="M3410 4630 c0 -27 -4 -50 -9 -50 -5 0 -28 9 -52 20 -48 22 -100 26
-129 10 -36 -19 -70 -93 -80 -175 -22 -173 39 -444 114 -503 42 -32 116 -65
166 -73 26 -4 88 -1 148 7 122 17 175 10 307 -37 114 -41 280 -52 363 -25 147
49 247 245 247 481 0 119 -19 179 -70 224 -44 38 -98 46 -215 31 -77 -10 -94
-10 -101 1 -7 11 -9 11 -9 -2 0 -12 -22 -20 -100 -32 -185 -31 -366 -19 -509
35 l-65 25 3 56 c1 31 0 57 -3 57 -3 0 -6 -22 -6 -50z m14 -277 c50 -9 55 -18
52 -90 -2 -41 1 -66 8 -68 6 -2 28 -6 49 -10 31 -5 37 -10 37 -30 0 -14 -6
-25 -12 -25 -10 0 -10 -2 -1 -8 7 -4 12 -32 12 -66 0 -54 -2 -57 -22 -53 -12
3 -40 8 -62 12 -81 13 -135 27 -135 37 0 5 -5 6 -10 3 -6 -4 -26 -1 -45 5 -31
10 -35 16 -35 43 0 18 -2 53 -5 79 -3 26 -1 49 3 52 4 3 25 1 45 -4 l37 -8 0
75 0 75 26 -6 c15 -4 40 -10 58 -13z m781 -93 c0 -22 -5 -26 -45 -31 l-45 -6
43 -1 42 -2 1 -52 c0 -29 3 -47 6 -40 3 7 24 12 55 12 46 0 49 -2 46 -22 -2
-17 -12 -25 -38 -29 l-35 -6 33 -2 c27 -1 32 -5 32 -25 0 -13 -6 -27 -12 -29
-10 -4 -10 -7 0 -15 7 -5 10 -16 6 -25 -9 -25 -91 -24 -97 1 -4 13 -5 11 -6
-5 -1 -22 -5 -23 -81 -23 -76 0 -80 1 -81 23 l0 22 -9 -23 c-9 -21 -14 -22
-52 -17 -24 4 -47 10 -52 15 -16 16 3 40 31 41 l28 1 -30 7 c-27 6 -31 11 -26
41 0 6 22 11 49 12 l47 2 -47 3 c-43 4 -48 7 -48 29 0 23 3 24 60 24 l60 0 1
43 c1 23 1 57 0 75 l-3 33 84 -3 c81 -3 83 -4 83 -28z"/>
<path d="M201 2202 c0 -37 4 -89 7 -117 6 -45 10 -50 40 -59 18 -5 35 -6 39
-2 8 7 6 148 -3 187 -3 19 -16 31 -45 42 l-39 15 1 -66z"/>
<path d="M1625 1494 c-11 -3 -29 -7 -41 -9 -21 -5 -25 -21 -50 -184 l-6 -44
62 34 c85 47 170 124 170 154 0 14 -8 28 -17 33 -23 12 -92 21 -118 16z"/>
<path d="M2469 1054 c-8 -3 -27 -34 -41 -70 l-26 -66 24 6 c52 13 191 67 223
87 22 13 30 24 24 30 -11 11 -177 21 -204 13z"/>
<path d="M2450 815 c-8 -2 -31 -6 -51 -9 -35 -6 -36 -8 -69 -106 -19 -55 -31
-102 -29 -105 9 -8 169 45 253 84 102 47 153 88 134 107 -22 22 -180 41 -238
29z"/>
<path d="M5347 5412 c-26 -29 -44 -82 -57 -167 -6 -44 -23 -118 -36 -164 -13
-46 -24 -99 -24 -118 0 -20 -9 -50 -19 -67 -11 -17 -27 -57 -36 -88 -13 -45
-23 -61 -50 -78 -19 -12 -46 -35 -61 -52 -24 -30 -25 -36 -19 -97 7 -67 74
-222 115 -266 18 -20 18 -21 -6 -48 -13 -15 -24 -33 -24 -40 0 -7 14 4 30 23
16 19 30 33 30 30 0 -3 3 -32 5 -64 4 -51 10 -65 37 -93 28 -29 33 -31 48 -18
21 19 40 19 41 0 1 -8 2 -20 3 -26 2 -19 36 -28 107 -28 91 -1 103 9 97 87 -4
55 -2 61 16 65 12 2 30 7 41 11 15 5 14 4 -2 -5 -27 -14 -28 -22 -9 -38 11 -9
18 -5 35 21 19 31 21 31 21 10 0 -13 -8 -37 -17 -53 -9 -15 -14 -32 -9 -36 20
-20 91 68 81 102 -4 11 -9 28 -12 39 -9 29 19 15 42 -22 11 -17 23 -31 27 -32
13 0 -4 34 -30 62 -20 22 -23 30 -13 42 21 25 102 227 147 365 18 56 4 89 -49
114 -24 12 -45 33 -57 58 -16 31 -27 39 -57 44 -58 10 -63 13 -73 40 -20 54
-101 63 -167 20 -31 -21 -37 -16 -23 20 6 15 17 66 25 113 8 48 22 112 30 142
8 30 15 76 15 103 0 40 -5 53 -29 78 -35 34 -88 40 -114 11z m233 -482 c11
-11 20 -31 20 -45 0 -34 -20 -124 -29 -130 -5 -2 -25 5 -47 15 -21 11 -44 20
-51 20 -8 0 -16 6 -19 14 -6 16 21 112 37 132 17 20 66 17 89 -6z m129 -76
c21 -15 23 -22 18 -68 -3 -28 -10 -63 -16 -78 l-10 -27 -48 21 c-26 11 -50 22
-52 24 -3 3 12 77 26 127 6 22 51 23 82 1z"/>
</g>
</svg>
