<?xml version="1.0" standalone="no"?>
<!DOCTYPE svg PUBLIC "-//W3C//DTD SVG 20010904//EN"
 "http://www.w3.org/TR/2001/REC-SVG-20010904/DTD/svg10.dtd">
<svg version="1.0" xmlns="http://www.w3.org/2000/svg"
 width="720.000000pt" height="544.000000pt" viewBox="0 0 720.000000 544.000000"
 preserveAspectRatio="xMidYMid meet">
<metadata>
Created by potrace 1.16, written by Peter Selinger 2001-2019
</metadata>
<g transform="translate(0.000000,544.000000) scale(0.100000,-0.100000)"
fill="#000000" stroke="none">
<path d="M1925 5368 c-26 -30 -27 -37 -22 -99 3 -37 15 -89 26 -116 11 -26 28
-90 36 -142 9 -52 21 -103 26 -114 18 -32 2 -31 -45 3 -37 27 -51 32 -78 26
-34 -7 -78 -41 -78 -61 0 -8 -10 -10 -25 -7 -65 12 -134 -65 -115 -127 5 -14
14 -42 21 -63 10 -32 9 -39 -10 -66 -11 -17 -21 -36 -21 -42 0 -7 -13 4 -30
25 -42 53 -42 109 0 133 16 9 30 20 30 25 0 14 -19 7 -49 -19 -47 -39 -43 -87
16 -194 25 -47 55 -103 66 -125 11 -21 27 -51 36 -65 10 -14 32 -47 49 -73 35
-53 39 -72 17 -101 -10 -14 -15 -45 -15 -100 1 -87 7 -110 96 -331 42 -103 56
-127 101 -170 30 -30 61 -74 76 -106 22 -49 59 -90 117 -125 8 -5 47 -11 85
-14 69 -5 70 -5 88 -43 19 -38 59 -65 127 -85 19 -6 73 -25 120 -42 176 -65
171 -64 214 -52 32 8 48 7 76 -4 21 -9 61 -14 100 -13 45 1 74 -3 91 -13 13
-9 37 -19 54 -23 38 -8 55 -23 55 -44 0 -30 85 -193 129 -248 33 -42 50 -55
86 -64 38 -10 45 -15 45 -35 0 -23 -3 -24 -71 -24 -56 0 -75 4 -84 17 -17 23
-86 23 -109 0 -21 -21 -26 -21 -54 -1 -15 10 -55 18 -117 21 l-95 6 0 33 c0
18 -4 44 -9 58 -22 56 -206 56 -250 -1 l-20 -25 -63 25 c-35 14 -112 36 -173
49 -99 20 -137 23 -390 23 -154 0 -292 -3 -307 -8 -24 -6 -27 -4 -30 20 -3 26
-7 28 -56 31 -40 2 -54 -1 -58 -13 -4 -9 -4 -18 -2 -21 9 -8 38 8 32 17 -3 5
12 9 33 8 30 0 34 -2 18 -9 l-20 -9 20 -1 c11 -1 0 -6 -25 -11 -25 -5 -54 -13
-65 -19 -16 -8 -121 -38 -272 -77 -19 -4 -23 -1 -23 19 0 35 -18 48 -70 48
-57 0 -70 -12 -70 -66 l0 -43 -73 1 c-92 1 -134 -18 -139 -63 -3 -33 2 -30
-412 -185 -190 -71 -269 -106 -293 -127 -25 -23 -28 -68 -14 -221 6 -67 10
-81 31 -97 14 -11 31 -24 38 -29 6 -6 12 -32 12 -57 0 -25 20 -292 45 -592 25
-300 48 -580 51 -621 l6 -76 -40 -18 c-23 -10 -51 -29 -63 -42 -19 -21 -21
-31 -17 -93 6 -80 16 -97 73 -122 48 -21 89 -25 1485 -120 564 -38 1147 -78
1295 -89 1010 -74 1401 -103 1625 -122 216 -18 350 -22 873 -25 l617 -4 0 35
c0 37 -15 49 -23 18 -3 -9 -5 1 -6 24 l-1 40 -377 23 c-208 12 -553 33 -767
47 -213 13 -400 25 -415 25 -14 1 -19 3 -10 6 15 4 273 -10 974 -53 237 -14
428 -14 605 1 41 4 50 3 35 -5 -48 -24 74 4 133 31 91 41 213 119 205 132 -3
5 -1 7 5 3 5 -3 12 -3 14 2 3 7 73 49 206 123 18 11 30 14 26 8 -14 -23 118
36 171 77 20 15 20 15 1 30 -11 7 -17 16 -14 20 4 3 16 -4 29 -17 21 -21 22
-22 3 -36 -10 -8 -44 -27 -74 -43 -31 -15 -173 -93 -317 -173 -143 -79 -283
-153 -309 -163 -67 -24 -80 -40 -83 -101 l-2 -53 76 0 77 0 157 91 c433 253
492 290 501 315 6 14 10 54 10 89 0 61 -2 65 -35 93 l-36 29 21 259 c11 142
34 454 49 693 l29 434 28 22 c25 20 29 31 35 101 4 44 8 120 8 170 1 140 2
140 -352 169 -108 8 -187 10 -200 5 -20 -8 -20 -9 -3 -9 28 -1 13 -12 -22 -16
-48 -6 -202 -56 -202 -66 0 -5 4 -9 8 -9 13 0 42 -57 42 -82 -1 -22 -1 -22
-16 5 -8 15 -21 28 -29 28 -8 1 -21 2 -27 3 -7 1 -28 -11 -47 -27 -58 -50
-204 -103 -356 -130 -70 -13 -325 -46 -355 -47 -3 0 -6 -19 -5 -43 0 -41 1
-42 40 -48 25 -4 2 -7 -65 -7 -58 -1 -99 2 -92 7 8 5 12 24 11 47 l-3 40 -215
13 c-119 6 -259 19 -311 27 -52 8 -124 17 -160 21 -42 4 -71 12 -84 25 -11 10
-25 18 -30 18 -16 0 -104 46 -140 74 -17 13 -40 40 -51 59 -18 35 -18 36 1 78
10 24 19 46 19 49 0 4 8 14 17 23 19 19 33 71 23 87 -3 5 -16 10 -29 10 -29 0
-39 10 -25 27 13 15 135 18 158 4 11 -7 4 -14 -27 -30 -29 -15 -47 -33 -57
-57 -19 -47 -19 -47 8 -39 19 6 18 3 -10 -25 -45 -44 -46 -103 -5 -143 15 -15
33 -27 39 -27 7 0 18 -6 25 -13 43 -41 254 -100 452 -127 172 -24 688 -15 841
15 237 45 368 102 372 163 2 28 -12 28 -66 -3 -25 -15 -38 -19 -31 -10 12 14
3 15 -81 10 -205 -11 -364 -13 -329 -5 32 8 222 51 245 56 58 11 156 39 178
51 31 16 34 28 10 57 -10 12 -2 8 16 -9 19 -16 31 -24 26 -16 -6 10 -2 12 13
7 14 -5 27 -1 39 11 10 10 32 18 49 19 17 1 43 10 57 20 21 15 26 27 27 62 0
40 -2 44 -37 59 -43 18 -138 21 -168 6 -15 -8 -41 -6 -103 7 -71 16 -132 25
-378 56 -34 4 -48 14 -93 65 l-54 61 12 69 c17 92 6 249 -20 306 -42 89 -157
153 -252 140 -32 -4 -47 -1 -71 18 -41 30 -155 87 -233 115 -62 22 -63 23 -63
60 0 99 -177 260 -320 290 -121 26 -249 -10 -307 -86 -24 -32 -24 -32 -131
-36 -78 -3 -116 -9 -141 -22 -35 -18 -91 -28 -91 -15 0 4 29 26 65 49 67 44
178 154 197 196 10 20 18 24 58 24 94 0 208 64 294 164 68 80 89 145 84 266
-7 157 -63 263 -186 349 -66 47 -106 106 -91 133 14 24 -21 92 -77 148 -24 25
-68 71 -97 104 -143 161 -373 258 -640 272 -291 15 -587 -92 -791 -286 -118
-112 -216 -262 -216 -328 0 -17 -12 -44 -29 -66 -34 -43 -53 -142 -29 -160 9
-7 13 -32 12 -73 -1 -54 -6 -70 -38 -117 -62 -94 -69 -119 -63 -226 7 -124 17
-154 80 -242 63 -87 110 -114 275 -156 92 -24 117 -34 150 -64 l41 -37 -34
-25 -34 -26 -33 19 c-40 24 -187 69 -262 81 -31 5 -72 17 -91 26 l-36 17 7 53
c3 31 1 66 -6 88 -17 54 -30 53 -14 -1 23 -75 -6 -147 -90 -224 l-49 -44 21
39 c21 39 18 70 -10 103 -6 7 -7 13 -2 13 5 0 4 4 -2 8 -6 4 -21 26 -34 50
-13 23 -29 42 -36 42 -6 0 -14 14 -18 31 -3 18 -17 42 -31 55 -26 24 -35 74
-13 74 6 0 9 3 6 6 -4 3 -15 1 -27 -5 -18 -10 -106 -30 -204 -46 -21 -3 -35
-10 -32 -16 4 -5 10 -7 15 -4 5 3 14 -14 20 -37 13 -46 66 -191 81 -220 5 -10
9 -25 9 -33 0 -8 9 -24 19 -34 24 -24 55 -81 44 -81 -5 0 -1 -5 7 -10 8 -5 26
-7 40 -4 22 4 22 3 5 -5 -50 -24 -151 -7 -193 31 -33 31 -143 266 -183 393
-14 45 -18 166 -6 207 10 37 41 27 34 -11 -6 -32 13 -79 43 -106 18 -17 36
-20 109 -20 113 0 180 29 240 105 37 47 41 57 41 108 l0 55 42 -59 c22 -32 50
-81 60 -109 16 -42 18 -44 13 -15 -7 47 -50 130 -87 171 -29 32 -30 34 -14 58
47 71 70 138 74 208 l4 73 -51 52 c-35 35 -53 63 -57 87 -4 20 -19 61 -34 91
-16 30 -39 102 -53 160 -14 58 -30 119 -35 135 -6 17 -20 66 -32 110 -31 116
-47 139 -97 143 -35 3 -44 -1 -68 -30z m1712 -253 c40 -9 75 -20 78 -25 2 -4
-10 -27 -28 -51 -19 -24 -36 -53 -40 -64 -6 -19 -6 -19 6 -1 42 63 80 106 96
106 22 0 125 -66 179 -114 22 -20 56 -60 76 -89 34 -49 36 -57 39 -142 2 -50
8 -99 14 -109 6 -11 7 -34 2 -60 -5 -22 -9 -101 -9 -174 0 -115 3 -149 29
-250 30 -118 47 -210 43 -226 -3 -8 16 -5 51 9 16 7 16 4 -3 -29 -52 -87 -348
-282 -396 -261 -16 8 -15 9 9 13 16 2 31 10 34 18 3 8 9 14 15 14 32 0 253
184 242 202 -3 4 -2 13 2 19 5 8 9 8 14 -1 5 -9 9 -9 14 -1 4 6 2 11 -4 11 -6
0 -8 10 -4 25 4 15 2 25 -5 25 -6 0 -11 -8 -11 -18 0 -10 -9 -24 -20 -32 -11
-8 -20 -22 -20 -32 0 -9 -9 -22 -20 -28 -11 -6 -18 -15 -15 -20 3 -4 -8 -11
-25 -15 -17 -4 -28 -10 -25 -15 3 -5 -4 -11 -15 -15 -11 -3 -20 -10 -20 -15 0
-11 -118 -70 -140 -70 -10 0 -22 -4 -25 -10 -11 -19 -23 -10 -44 33 -12 23
-21 35 -21 26 0 -8 16 -41 35 -74 20 -32 34 -59 32 -61 -2 -2 -44 -17 -94 -33
-239 -78 -469 -61 -652 48 -172 102 -313 356 -352 633 -18 128 6 273 65 395
58 120 114 202 172 250 25 21 65 54 87 74 79 68 210 129 320 149 72 13 247 5
334 -15z m-1708 -247 c5 -18 13 -49 16 -68 6 -35 6 -35 -47 -54 -29 -10 -58
-21 -65 -23 -13 -5 -30 74 -25 117 4 34 37 60 77 60 29 0 35 -4 44 -32z m-161
-41 c12 -14 33 -127 26 -139 -2 -3 -20 -12 -40 -18 -52 -17 -74 5 -74 76 0 45
4 56 26 73 31 24 47 26 62 8z m2664 -80 c7 -6 28 -24 46 -40 22 -17 28 -27 18
-27 -9 0 -16 5 -16 10 0 6 -6 10 -14 10 -8 0 -16 7 -20 15 -6 17 -48 20 -76 5
-30 -16 -67 -89 -79 -154 -29 -161 7 -348 88 -455 16 -21 22 -23 48 -13 17 6
36 6 44 1 9 -5 23 -2 37 7 47 31 32 5 -24 -40 -49 -40 -61 -46 -88 -41 -55 11
-116 96 -162 227 -24 70 -36 280 -18 319 7 13 19 45 28 70 17 48 67 104 101
112 38 9 74 7 87 -6z m-2174 -63 c29 -19 57 -45 61 -57 16 -43 2 -169 -25
-224 -25 -53 -88 -113 -118 -113 -14 0 -13 4 4 23 12 12 30 38 40 58 11 20 30
49 43 65 22 26 57 86 57 97 0 3 -16 8 -35 11 -19 4 -48 18 -65 32 -27 23 -30
31 -30 85 0 32 3 59 8 59 4 0 31 -16 60 -36z m2310 -60 c50 -60 75 -155 70
-271 -5 -141 -47 -222 -107 -206 -22 6 -22 6 6 20 16 7 40 34 53 59 22 39 25
57 25 147 0 99 -1 104 -38 169 -20 37 -49 76 -62 87 -26 20 -24 23 17 30 3 0
20 -15 36 -35z m-1999 -213 c-31 -62 -31 -64 -26 -184 5 -126 6 -130 76 -292
24 -54 77 -114 129 -147 18 -11 32 -22 30 -24 -9 -9 -98 20 -133 44 -22 14
-44 27 -49 27 -5 0 -11 6 -14 14 -3 8 0 11 7 7 6 -4 -2 15 -18 43 -85 144
-111 359 -59 484 18 42 74 104 84 94 2 -2 -10 -32 -27 -66z m2141 -607 c115
-55 221 -170 219 -238 l-1 -31 -12 34 c-21 58 -70 85 -114 62 -9 -5 -38 -17
-64 -26 -57 -20 -134 -87 -178 -155 -26 -41 -37 -50 -59 -49 -23 2 -23 2 -4 6
24 5 63 51 63 75 0 8 -28 30 -62 50 -35 19 -74 47 -88 61 -17 16 -39 26 -69
29 l-43 4 5 -36 c7 -53 45 -109 96 -141 47 -30 49 -39 3 -15 -66 35 -112 111
-112 186 0 63 18 106 61 146 65 61 104 74 204 72 77 -3 99 -7 155 -34z m-2117
-130 c82 -8 257 -72 290 -105 15 -16 27 -34 27 -40 0 -11 -37 -3 -57 13 -9 7
-13 7 -13 0 0 -7 -10 -8 -32 -1 -28 8 -30 7 -17 -6 8 -8 41 -20 73 -28 72 -16
88 -37 21 -27 -25 4 -45 4 -45 1 0 -3 13 -21 29 -40 16 -19 27 -40 24 -48 -6
-16 -90 -18 -95 -2 -3 8 -15 7 -41 -6 -40 -19 -62 -16 -139 17 -44 19 -46 22
-37 45 5 14 12 58 16 98 l6 73 -42 27 c-22 15 -41 32 -41 37 0 5 5 6 10 3 6
-4 34 -9 63 -11z m1603 -56 c-53 -107 -23 -343 58 -463 17 -25 17 -28 2 -16
-15 13 -19 13 -27 0 -7 -11 -9 -11 -9 4 0 9 -4 17 -9 17 -5 0 -11 -8 -13 -17
-3 -12 -19 11 -46 62 -50 98 -53 93 -7 -14 19 -45 31 -82 27 -83 -4 0 -12 -2
-19 -2 -7 -1 -53 -39 -104 -86 -50 -47 -110 -94 -132 -106 l-40 -21 -60 23
c-120 47 -239 56 -334 26 -54 -17 -64 -18 -74 -5 -14 16 -63 43 -79 43 -5 0
-10 -9 -10 -20 0 -45 -30 -16 -61 58 -26 63 -32 91 -33 154 -1 76 -7 95 -20
61 -6 -14 -9 -15 -15 -4 -14 23 -31 -69 -21 -119 12 -61 74 -212 108 -263 33
-51 64 -117 54 -117 -24 1 -122 174 -158 280 -26 79 -27 275 0 345 22 58 40
83 27 37 -5 -18 -8 -33 -5 -33 2 -1 10 -2 16 -3 7 0 15 -14 18 -31 l5 -30 18
37 c18 37 19 38 74 37 31 -1 75 -10 97 -20 23 -10 55 -19 73 -19 17 0 35 -5
38 -10 4 -6 13 -7 23 -1 9 4 35 12 56 15 50 9 138 54 198 99 33 26 53 34 74
31 24 -3 25 -2 6 4 -22 7 -22 8 18 50 22 24 40 39 40 33 0 -5 -4 -13 -10 -16
-5 -3 -10 -11 -10 -17 0 -6 10 0 23 14 32 37 65 52 82 38 8 -7 15 -7 19 -1 3
5 0 12 -6 15 -7 3 0 4 15 2 16 -2 34 3 43 11 8 8 14 12 14 8 0 -3 19 7 43 24
23 17 45 30 48 31 4 0 -3 -19 -15 -42z m737 -118 c60 0 317 -114 317 -141 0
-12 -2 -12 -39 7 -29 14 -36 14 -88 -2 -66 -21 -147 -94 -183 -164 -12 -25
-24 -47 -25 -48 -6 -7 -225 111 -225 120 0 20 53 110 83 142 18 18 52 43 75
55 l42 22 -27 25 -28 26 29 -21 c18 -13 44 -21 69 -21z m511 -248 c33 -18 63
-46 90 -85 l41 -59 0 -103 c0 -74 -4 -108 -14 -117 -11 -11 -15 -10 -25 6 -86
142 -123 166 -276 182 -65 6 -65 6 -137 -41 -59 -40 -72 -54 -78 -81 -5 -31
-32 -70 -41 -61 -7 6 16 119 37 184 22 68 55 117 71 107 6 -4 8 -2 4 4 -9 15
62 70 114 87 63 20 152 11 214 -23z m-2974 16 c0 -4 -10 -9 -22 -11 -13 -2 -4
-5 19 -6 23 0 44 -5 47 -10 13 -20 241 -101 285 -101 19 0 22 -3 14 -11 -23
-23 -94 -11 -226 35 -72 26 -151 54 -175 63 -23 8 -46 22 -51 31 -8 15 -2 17
50 17 32 0 59 -3 59 -7z m2155 -169 c34 -9 50 -20 66 -45 15 -25 46 -46 120
-83 54 -28 115 -53 135 -57 19 -4 38 -13 41 -20 3 -7 -10 -34 -29 -60 -18 -25
-42 -69 -54 -97 -18 -47 -24 -52 -57 -58 -36 -6 -37 -5 -37 26 0 44 -21 59
-81 57 -60 -1 -69 -6 -70 -40 -1 -61 -7 -64 -106 -66 -101 -1 -133 -17 -133
-64 0 -18 -4 -23 -16 -18 -9 3 -36 6 -61 6 l-45 0 7 46 c9 65 10 67 59 92 24
13 58 43 75 67 46 65 110 202 123 267 7 32 14 58 16 58 2 0 23 -5 47 -11z
m805 -157 c62 -29 193 -151 172 -159 -7 -3 -21 2 -31 11 -23 20 -40 20 -63 -1
-18 -16 -21 -16 -47 0 -40 24 -64 21 -95 -9 -25 -26 -27 -26 -45 -9 -25 21
-83 22 -115 1 -22 -14 -25 -14 -30 0 -3 9 -6 39 -6 67 0 64 27 114 67 123 15
3 33 7 38 9 24 8 104 -9 155 -33z m-3307 -225 c44 -19 47 -32 10 -51 -48 -24
-142 -38 -263 -38 -124 0 -211 14 -231 38 -18 22 0 35 78 56 90 24 347 21 406
-5z m-997 -78 c-35 -42 -33 -72 7 -102 76 -57 253 -94 498 -104 151 -6 157 -5
180 16 l23 21 -54 0 c-112 0 -38 8 125 13 155 4 162 4 85 -6 -51 -7 -73 -13
-56 -15 22 -3 26 -6 15 -13 -22 -14 120 -11 261 6 167 19 391 87 414 124 4 6
12 11 18 11 6 0 5 -7 -3 -16 -55 -66 -253 -124 -544 -159 -152 -19 -175 -27
-175 -66 0 -25 4 -28 38 -32 20 -2 1 -4 -43 -5 l-80 -2 -2 32 c-1 17 -6 35
-10 39 -5 5 -74 13 -153 19 -394 29 -600 94 -600 189 0 24 8 36 37 56 48 32
50 32 19 -6z m-462 -148 c-5 -5 -39 -18 -75 -29 -98 -30 -279 -119 -279 -137
0 -9 11 -20 25 -25 23 -9 514 -49 605 -50 29 -1 32 -2 17 -11 -9 -5 -21 -8
-26 -4 -5 3 -12 1 -15 -3 -3 -5 23 -12 57 -16 70 -8 644 -45 782 -51 84 -3 85
-3 25 4 -62 8 -218 22 -435 40 -79 7 -88 9 -40 9 33 1 112 -3 175 -8 63 -5
201 -14 305 -20 525 -31 633 -39 639 -49 2 -3 -15 -5 -37 -3 -23 2 -53 -1 -66
-6 -26 -9 -35 -8 322 -32 82 -5 244 -16 360 -24 117 -8 264 -18 327 -21 63 -3
124 -8 135 -10 12 -2 120 -9 240 -14 121 -6 256 -13 300 -17 58 -4 76 -2 65 5
-8 6 -42 12 -75 13 -47 1 -51 2 -20 5 22 3 143 -3 270 -12 126 -9 301 -20 387
-25 86 -4 165 -13 175 -19 14 -8 8 -10 -32 -11 -27 0 -77 4 -110 9 -60 9 -354
23 -325 16 49 -13 937 -71 946 -62 3 3 -23 9 -58 15 -90 14 227 5 482 -14 349
-25 451 -28 541 -14 80 13 89 17 214 100 275 185 439 290 405 261 -39 -34 -39
-35 8 -22 20 6 30 6 27 0 -10 -15 3 -10 48 18 58 37 127 93 127 102 0 17 -59
30 -166 36 -61 4 -127 11 -145 15 l-34 8 30 1 c17 0 88 -4 159 -9 128 -9 176
-24 176 -54 0 -22 -629 -460 -700 -487 l-45 -17 -8 -108 c-4 -60 -9 -115 -12
-122 -2 -6 -20 -12 -39 -12 -27 0 -33 4 -31 18 2 9 6 61 9 115 l5 97 -118 0
c-65 0 -174 4 -242 10 -68 5 -203 14 -299 20 -96 5 -317 19 -490 30 -173 11
-427 26 -565 35 -137 8 -281 17 -320 20 -38 3 -371 25 -740 50 -650 44 -1171
79 -1615 111 -788 55 -1059 71 -1320 79 -113 3 -213 8 -222 11 -16 5 -18 -3
-17 -68 1 -40 4 -86 8 -101 6 -27 10 -29 66 -32 33 -3 94 -9 135 -15 41 -6
122 -17 180 -25 l105 -13 -135 4 c-206 8 -401 23 -443 35 -57 16 -65 37 -69
177 -3 115 -2 124 17 135 30 18 469 185 474 181 3 -3 0 -8 -5 -13z m3090 -207
c24 -9 20 -27 -13 -58 -28 -27 -30 -28 -107 -19 -46 5 -79 13 -81 20 -3 7 8
24 23 38 23 22 36 25 95 25 37 0 74 -3 83 -6z m-1938 -425 c101 -50 102 -123
2 -213 -58 -53 -63 -66 -24 -66 36 0 83 -36 102 -79 30 -64 47 -55 83 44 12
33 41 104 64 158 37 88 44 98 64 94 13 -2 31 2 40 9 10 7 26 14 36 14 9 0 17
5 17 10 0 6 5 10 10 10 6 0 10 -10 10 -23 0 -13 4 -27 9 -32 4 -6 14 -50 20
-100 19 -134 28 -165 51 -165 14 0 20 -7 21 -22 0 -13 9 3 19 34 36 116 115
209 206 244 85 32 168 -11 166 -86 -1 -44 -22 -101 -34 -94 -6 4 -13 1 -17 -5
-13 -21 -40 0 -47 35 -8 45 -33 45 -79 -1 -47 -47 -76 -107 -82 -169 -4 -43
-1 -56 18 -80 19 -24 27 -28 60 -23 20 3 64 23 98 46 34 23 61 40 61 37 0 -3
-4 -16 -10 -30 -7 -20 -6 -26 4 -26 24 0 56 46 60 86 7 65 45 257 57 287 9 21
14 25 25 16 11 -9 15 -7 20 5 4 11 13 15 25 11 11 -4 19 -2 19 4 0 19 15 12
26 -14 11 -22 7 -65 -11 -144 -6 -23 -5 -22 32 8 160 131 199 161 212 161 8 0
28 12 43 27 15 15 28 22 28 16 0 -5 -9 -18 -21 -29 -11 -10 -25 -27 -31 -37
-8 -16 -7 -17 11 -8 27 15 36 14 22 -3 -6 -7 -9 -20 -6 -28 5 -14 -27 -48
-120 -127 -22 -19 -57 -49 -78 -68 l-38 -34 97 -120 c53 -66 99 -118 101 -115
2 2 -1 13 -8 23 -12 20 -4 102 8 89 3 -3 12 -1 20 5 7 6 13 8 13 4 0 -4 6 -3
13 3 10 9 16 4 26 -23 8 -23 21 -37 37 -41 58 -15 149 22 149 61 0 12 -30 33
-95 66 -111 58 -138 81 -146 124 -11 60 38 120 138 171 119 60 228 31 228 -61
0 -29 -28 -90 -37 -81 -3 3 -12 -2 -19 -12 -13 -16 -13 -16 -14 0 0 11 -5 15
-15 12 -11 -5 -15 1 -15 25 0 36 -11 38 -70 15 -39 -16 -66 -46 -56 -62 3 -5
40 -26 82 -48 43 -21 97 -57 121 -80 36 -34 43 -47 43 -79 0 -57 -61 -113
-167 -153 -77 -30 -140 -42 -130 -24 3 4 -18 17 -45 29 l-50 23 17 -28 c10
-15 31 -44 47 -64 16 -21 28 -38 26 -38 -3 0 -29 18 -58 40 -56 42 -85 53 -57
22 27 -29 20 -35 -14 -12 -24 18 -39 21 -77 17 -42 -5 -44 -5 -19 5 15 7 27
15 27 20 0 4 -24 31 -53 60 -29 29 -74 76 -99 105 l-45 52 -17 -75 c-9 -41
-16 -83 -16 -94 0 -10 -5 -22 -11 -26 -8 -4 -9 0 -4 15 3 11 2 21 -3 21 -10 0
-27 -37 -35 -75 -3 -13 -5 -8 -6 12 -2 51 -10 66 -29 51 -13 -12 -14 -5 -10
60 l5 73 -72 -68 c-94 -88 -100 -92 -132 -99 -39 -7 -114 28 -152 72 -17 19
-37 55 -43 80 -9 31 -17 44 -30 44 -10 0 -18 -1 -18 -3 0 -9 22 -125 27 -141
4 -13 2 -16 -8 -11 -9 6 -11 -4 -6 -46 l5 -54 -19 45 c-14 31 -22 41 -28 31
-6 -10 -11 -6 -19 15 -7 21 -11 24 -11 10 -2 -34 -15 -6 -31 62 -18 75 -17 75
-122 51 -45 -10 -47 -12 -68 -70 -12 -32 -28 -59 -35 -59 -7 0 -19 -13 -27
-30 -17 -38 -24 -38 -32 2 -6 30 -7 31 -21 12 -19 -25 -19 -10 1 56 11 38 13
55 5 58 -6 2 -8 9 -5 15 4 7 -17 -11 -47 -40 -30 -28 -85 -72 -122 -96 -38
-25 -64 -46 -57 -49 6 -2 -18 -18 -54 -35 -36 -17 -66 -27 -66 -22 0 22 -30 6
-36 -18 -9 -44 -12 -50 -13 -25 -1 14 -6 22 -13 20 -8 -3 -14 -28 -16 -66 -2
-34 -6 -62 -11 -62 -4 0 -8 8 -8 18 1 58 -4 92 -13 92 -5 0 -10 -7 -10 -15 0
-8 -4 -15 -10 -15 -5 0 -10 7 -10 15 0 18 3 17 -38 6 -20 -6 -32 -6 -32 0 0 5
5 9 10 9 6 0 10 5 10 10 0 6 -10 10 -22 10 -20 0 -20 1 -5 18 22 24 22 36 0
28 -24 -8 14 23 56 46 30 17 31 19 31 90 0 40 3 90 6 111 5 30 4 37 -10 37
-15 0 -21 16 -18 53 1 9 -4 17 -11 17 -6 0 2 10 20 21 26 16 34 30 42 72 17
89 19 118 7 113 -96 -38 -116 -44 -121 -36 -3 6 -1 10 4 10 6 0 11 7 11 15 0
21 -30 19 -91 -5 -72 -29 -71 -19 2 15 55 27 107 65 65 49 -24 -9 -19 11 7 28
36 24 152 67 219 83 92 21 204 14 264 -16z m-1421 -214 c8 -99 22 -261 30
-360 13 -153 21 -261 48 -617 2 -27 1 -48 -3 -48 -4 0 -10 28 -13 63 -3 34
-15 165 -26 291 -21 223 -61 772 -61 830 0 73 10 6 25 -159z m3899 123 c4 -24
14 -94 21 -156 16 -125 19 -134 43 -130 11 2 16 -3 14 -14 -6 -36 16 -16 33
30 49 127 164 234 284 261 91 20 170 -33 155 -104 -11 -50 -33 -85 -49 -79 -8
4 -15 1 -15 -5 0 -8 -6 -7 -20 1 -12 8 -20 24 -20 40 0 34 -16 36 -69 9 -112
-57 -185 -209 -135 -280 14 -20 23 -23 60 -18 43 4 114 47 114 68 0 5 -20 9
-45 9 -33 0 -45 4 -46 15 -4 67 -4 69 30 76 17 4 75 10 127 14 l94 7 0 -35 c0
-20 -4 -38 -9 -41 -9 -6 -17 -29 -67 -191 -20 -67 -29 -85 -35 -70 -6 17 -9
15 -23 -17 -9 -21 -16 -44 -16 -53 0 -8 -4 -15 -9 -15 -5 0 -6 20 -3 45 3 30
1 45 -7 45 -6 0 -11 -7 -11 -16 0 -8 -4 -13 -9 -10 -4 3 -5 25 -1 48 5 24 7
44 6 45 -1 1 -28 -11 -59 -27 l-57 -29 -48 21 c-81 35 -132 98 -132 163 0 19
-5 25 -23 25 -22 0 -23 -2 -16 -52 12 -82 11 -116 -2 -98 -8 11 -9 -1 -5 -43
7 -62 -7 -72 -18 -13 -4 23 -11 33 -20 30 -7 -3 -18 5 -24 18 -6 13 -11 17
-11 11 -1 -7 -5 -13 -10 -13 -5 0 -12 21 -16 48 -14 99 -8 94 -89 86 -39 -4
-78 -10 -86 -14 -9 -5 -29 -36 -45 -69 -16 -34 -31 -57 -35 -52 -9 15 -25 0
-49 -44 -20 -37 -21 -38 -16 -10 5 32 -12 71 -22 48 -2 -7 -8 -13 -13 -13 -5
0 2 26 15 58 19 46 21 58 9 60 -17 4 -18 14 -2 30 9 9 9 12 -1 12 -10 0 -11 3
-2 14 9 11 9 16 0 21 -15 10 8 25 37 25 20 0 37 30 142 242 2 4 -9 6 -25 3
-15 -2 -65 -9 -109 -16 l-81 -11 -16 -57 c-8 -31 -25 -99 -37 -151 -38 -163
-58 -229 -60 -195 -1 29 -1 29 -16 10 -9 -11 -25 -38 -36 -60 l-19 -40 6 47
c7 51 -1 80 -16 57 -18 -30 -19 4 -4 97 9 55 22 124 30 154 7 30 16 70 19 89
l6 34 -40 -7 c-22 -3 -59 -9 -82 -13 -35 -5 -40 -4 -35 9 3 9 1 20 -5 26 -8 8
-8 15 1 26 9 11 9 15 -1 19 -10 4 -10 8 2 20 9 10 47 21 95 27 44 6 91 16 105
22 32 13 263 20 293 9 l22 -9 -25 -10 -25 -9 24 -8 25 -8 -30 -12 -29 -12 38
-4 c35 -5 39 -3 60 33 16 30 26 38 42 34 20 -5 87 13 101 27 15 14 22 6 28
-35z m1094 -67 c2 -6 19 -11 38 -11 49 0 42 -18 -11 -26 -48 -7 -66 -21 -45
-34 17 -11 -8 -17 -95 -25 -175 -14 -172 -14 -178 -43 -3 -15 -9 -35 -13 -45
-6 -17 -1 -18 57 -17 35 1 80 1 99 0 32 -1 33 -2 15 -12 -19 -12 -19 -12 5
-18 25 -7 25 -7 -10 -23 -26 -11 -30 -16 -15 -17 l20 -1 -20 -9 c-11 -4 -59
-11 -107 -15 l-86 -7 -13 -47 c-7 -25 -12 -48 -11 -50 1 -2 71 -3 155 -2 88 1
158 -3 167 -9 12 -8 9 -10 -13 -10 -16 0 -26 -4 -22 -10 3 -5 39 -11 78 -11
83 -1 74 -5 -36 -14 -42 -4 -75 -11 -71 -16 3 -5 17 -9 31 -9 15 0 24 -2 22
-4 -2 -2 -76 -10 -164 -16 -88 -7 -172 -18 -187 -25 -20 -10 -28 -10 -28 -2 0
17 -17 -4 -23 -28 -4 -18 -5 -18 -6 3 -1 17 -7 22 -30 22 -23 0 -30 6 -36 28
-14 50 -12 64 10 72 27 10 60 109 41 125 -18 16 -8 73 15 80 20 7 30 25 43 77
5 22 2 27 -16 30 -16 2 -22 10 -21 28 1 45 14 69 47 82 59 24 406 32 414 9z
m-2639 -566 c33 -10 69 -31 88 -50 33 -33 33 -35 19 -63 -16 -31 -65 -67 -133
-96 -42 -19 -56 -36 -30 -36 33 0 119 -33 147 -56 23 -20 30 -34 30 -62 0 -31
-8 -44 -53 -87 -60 -56 -108 -82 -241 -132 -61 -22 -78 -32 -51 -27 63 9 38
-2 -67 -30 -54 -15 -106 -29 -115 -32 -10 -2 0 4 22 15 l40 20 -35 -6 c-80
-14 -104 -28 -117 -69 l-11 -39 -1 38 c-1 35 -2 36 -21 25 -12 -7 -23 -22 -25
-33 -2 -11 -8 -45 -14 -75 -10 -54 -10 -54 -6 23 4 70 3 78 -12 75 -9 -2 -20
-14 -24 -28 -6 -23 -9 -21 -13 13 -2 12 -18 13 -71 3 -24 -5 -27 -4 -17 6 7 7
48 16 90 19 105 8 597 157 579 175 -2 2 -34 -7 -70 -20 -44 -16 -67 -20 -68
-13 0 9 -2 9 -5 0 -5 -12 -48 -3 -87 18 -13 7 -43 3 -107 -15 -107 -31 -119
-32 -97 -8 8 9 18 35 21 57 3 22 3 34 0 28 -3 -8 -26 -13 -60 -13 -39 0 -54
-4 -54 -14 0 -7 -3 -28 -7 -46 -5 -26 -3 -31 7 -25 8 5 11 3 8 -6 -3 -8 -33
-22 -68 -31 -65 -18 -86 -28 -55 -28 14 0 15 -3 5 -15 -6 -8 -9 -18 -7 -22 3
-5 -11 -7 -31 -5 -33 4 -34 6 -14 13 24 9 30 29 10 29 -22 1 23 22 70 34 l45
12 24 89 c12 50 25 100 29 113 5 18 2 22 -17 23 -23 0 -23 1 -4 9 17 7 17 9 3
9 -23 1 -23 20 -1 28 15 6 14 7 -3 14 -20 7 -21 7 36 28 20 7 31 25 53 86 l27
78 -37 -7 c-53 -10 -122 -16 -100 -10 23 7 22 21 -3 29 -19 6 -18 8 8 31 l27
24 -30 -6 c-29 -6 -29 -5 -10 9 11 8 63 24 115 36 123 26 402 24 489 -4z m787
-7 c5 -3 41 -2 79 3 39 4 108 8 155 8 l85 -1 -50 -13 c-43 -11 -46 -13 -20
-15 26 -1 27 -3 10 -10 -29 -13 31 -12 210 1 102 8 161 8 185 1 25 -7 29 -10
13 -11 -36 -2 -27 -21 10 -22 29 -1 27 -3 -23 -19 -42 -14 -48 -19 -27 -19 15
-1 27 -5 27 -10 0 -5 -59 -14 -130 -21 l-131 -13 -19 -38 c-11 -21 -20 -41
-20 -45 0 -3 37 -3 83 0 48 5 92 3 107 -3 25 -10 25 -10 2 -10 -29 -1 -19 -21
11 -22 20 -1 21 -2 2 -6 -11 -3 -31 -10 -45 -16 l-25 -10 25 -7 c18 -5 2 -9
-55 -14 -144 -12 -142 -12 -165 -63 -11 -25 -18 -48 -16 -50 2 -2 70 0 150 5
81 4 166 5 189 1 38 -6 39 -7 10 -8 -35 -1 -44 -15 -17 -25 9 -3 41 -7 72 -7
53 -2 52 -2 -23 -9 -44 -4 -93 -11 -109 -15 -21 -6 -27 -5 -22 4 4 6 16 11 27
11 10 0 19 5 19 10 0 6 -12 10 -26 10 -15 0 -23 4 -19 10 5 8 -37 9 -134 4
l-140 -7 8 31 c11 35 6 42 -26 42 -12 0 -23 5 -23 10 0 6 -6 10 -14 10 -14 0
-36 -49 -36 -81 0 -10 -13 -25 -31 -34 -23 -12 -28 -19 -20 -29 13 -16 4 -26
-22 -26 -17 0 -18 2 -6 16 10 13 10 17 -1 24 -10 6 -4 11 20 17 29 8 36 16 51
58 21 61 23 79 6 72 -9 -3 -13 6 -14 30 -1 30 3 37 33 49 26 11 36 23 45 55
10 33 10 42 0 49 -8 4 -10 13 -7 19 4 6 2 11 -4 11 -6 0 -8 5 -4 11 4 8 -3 9
-22 6 -16 -3 -59 -9 -95 -12 l-66 -6 -63 -167 c-80 -211 -109 -281 -109 -262
0 8 7 33 15 55 28 73 53 159 49 164 -3 2 -5 -2 -5 -9 0 -9 -12 -11 -45 -7 -60
6 -68 -3 -101 -111 -24 -80 -44 -123 -44 -95 0 6 27 91 61 189 81 237 79 228
43 220 -27 -5 -51 -9 -141 -21 -34 -5 -36 -4 -20 9 18 14 18 15 0 24 -17 10
-17 11 2 32 16 18 17 23 5 30 -22 14 20 26 142 40 60 7 112 18 117 24 10 12
49 14 67 4z m1094 -16 c25 -12 36 -25 38 -45 2 -16 8 -25 14 -21 7 5 9 -2 4
-22 -11 -43 -34 -74 -50 -68 -9 3 -17 -3 -21 -15 -3 -12 -11 -19 -16 -15 -5 3
-7 9 -4 14 3 5 1 11 -4 14 -5 4 -13 1 -18 -6 -5 -9 -10 -1 -13 22 -6 44 -27
48 -103 20 -71 -27 -106 -54 -91 -70 6 -6 59 -29 117 -50 134 -50 221 -93 241
-122 20 -28 20 -67 1 -92 -8 -10 -12 -23 -9 -27 3 -5 -1 -9 -8 -9 -7 0 -22 -8
-33 -16 -19 -15 -15 -15 45 -9 36 3 77 8 93 11 15 3 27 1 27 -4 0 -5 -48 -14
-107 -20 -94 -10 -124 -18 -236 -66 -70 -29 -127 -57 -127 -62 1 -4 -31 -20
-72 -36 -83 -32 -81 -32 -72 -17 10 17 -31 2 -238 -85 -69 -29 -39 -5 38 30
42 20 74 38 71 41 -3 2 -80 -21 -172 -52 -91 -31 -169 -55 -171 -52 -3 3 16
13 43 22 26 10 73 28 103 40 82 34 217 68 231 59 8 -5 10 -3 4 6 -5 9 -2 10
14 5 23 -7 229 62 343 115 l63 29 -40 -1 c-22 0 -57 7 -78 16 l-39 17 -111
-47 c-62 -26 -141 -60 -176 -76 -35 -16 -67 -28 -72 -26 -4 2 87 46 203 98
242 109 308 144 308 165 0 17 -41 37 -195 96 -116 45 -165 80 -165 121 0 63
98 140 233 184 87 28 159 30 207 6z m-1471 -14 c-1 -7 1 -21 5 -30 5 -11 -7
-61 -34 -135 -23 -65 -54 -152 -67 -193 -33 -96 -55 -153 -64 -164 -10 -12 5
47 30 118 12 33 21 62 21 65 0 4 -24 7 -54 8 -52 1 -55 0 -70 -32 -9 -19 -20
-55 -25 -82 -6 -26 -14 -59 -20 -73 -24 -62 -9 23 29 155 76 267 115 369 130
345 7 -11 15 -10 49 3 31 13 41 14 41 4 0 -6 5 -4 11 6 12 20 21 22 18 5z
m-2099 -64 c6 -6 10 -24 8 -40 -3 -25 -8 -29 -38 -32 -19 -2 -59 -1 -87 3
l-53 6 0 38 c0 21 2 40 4 42 9 9 156 -7 166 -17z m-247 -98 c4 -6 6 -24 5 -41
-3 -25 -8 -31 -30 -33 -37 -4 -36 -18 2 -25 27 -6 30 -10 30 -47 0 -45 -1 -46
-119 -34 l-61 7 0 38 0 39 45 0 c25 0 45 4 45 9 0 5 -20 14 -45 20 -42 11 -45
13 -45 44 0 19 3 37 7 41 10 10 157 -5 166 -18z m245 -18 c22 -22 14 -67 -13
-80 l-25 -11 23 -11 c27 -14 37 -73 13 -82 -9 -3 -48 -2 -88 3 l-73 8 -3 37
-3 37 48 3 48 3 -45 15 c-42 14 -45 18 -48 53 l-3 37 78 0 c48 0 84 -5 91 -12z
m4676 -144 c46 -7 46 -7 46 -45 l0 -39 -57 0 c-32 0 -75 3 -95 6 -35 6 -38 9
-38 39 0 17 3 35 7 38 8 9 76 9 137 1z m-2419 -213 c-8 -25 -15 -47 -15 -50 0
-3 152 -7 338 -8 185 -1 349 -5 364 -10 16 -4 -138 -8 -365 -8 -471 0 -729
-21 -987 -82 -126 -29 -52 -26 193 7 249 35 561 58 642 50 28 -3 156 -5 285
-4 l235 3 -170 -9 c-265 -14 -498 -38 -634 -65 -119 -23 -162 -26 -110 -7 48
18 254 55 348 62 l96 7 -105 1 c-147 2 -407 -24 -698 -69 -107 -17 -208 -29
-225 -27 l-32 4 48 23 c87 41 348 86 641 110 60 5 112 13 116 18 11 13 30 88
31 124 l1 34 9 -30 c6 -21 4 -43 -6 -74z m2415 91 c43 -7 45 -8 45 -42 0 -31
-3 -35 -30 -38 -16 -2 -58 -1 -92 3 l-63 7 0 39 0 39 48 -1 c26 0 67 -4 92 -7z
m-5396 -67 c-17 -43 40 -58 300 -80 98 -8 182 -17 186 -20 18 -11 787 -78 995
-86 17 -1 22 -3 13 -6 -10 -2 -163 5 -340 16 -532 34 -806 50 -943 53 -128 3
-130 3 -133 -19 -5 -35 -39 -30 -47 6 -5 22 -16 33 -43 44 -43 17 -50 10 -51
-57 -1 -66 -19 -28 -22 45 -3 76 2 86 45 105 40 17 47 17 40 -1z m5181 -35
c22 -8 26 -15 23 -42 -3 -31 -5 -33 -48 -36 -25 -1 -65 1 -90 6 -36 6 -46 12
-48 30 -7 45 3 52 72 52 36 0 77 -4 91 -10z m254 -24 c7 -8 11 -27 9 -43 l-3
-28 -84 2 c-96 3 -118 15 -107 57 6 25 8 26 90 26 61 0 87 -4 95 -14z"/>
<path d="M3554 4565 l0 -60 -75 -37 c-155 -77 -316 -118 -459 -118 -103 0
-115 5 -128 48 l-10 37 5 -36 5 -36 -58 5 c-104 9 -144 -32 -144 -148 0 -84
86 -320 136 -370 8 -8 -1 17 -21 55 -19 39 -35 75 -35 80 1 6 10 -8 22 -30 33
-64 79 -138 107 -169 14 -16 19 -25 11 -21 -8 5 -4 -4 10 -19 76 -84 181 -91
323 -20 104 53 179 66 321 59 104 -6 132 -4 200 14 235 62 322 220 270 492
-56 296 -156 366 -378 265 -43 -20 -82 -36 -87 -36 -4 0 -10 24 -12 53 -4 52
-4 52 -3 -8z m188 -290 c13 -70 20 -105 23 -105 1 0 16 7 31 15 43 22 84 20
84 -5 0 -23 -20 -35 -74 -44 -24 -5 -35 -11 -29 -17 6 -6 23 -4 46 6 54 23 69
20 65 -12 -2 -19 -10 -29 -28 -34 -23 -6 -22 -6 10 -10 68 -8 42 -31 -80 -71
-216 -70 -243 -74 -248 -38 -2 14 -8 29 -13 35 -13 13 -11 42 4 48 7 3 5 6 -5
6 -12 1 -18 9 -18 26 0 19 7 26 28 31 15 3 33 8 41 10 8 3 18 -1 23 -8 6 -8 7
-2 3 17 -4 17 -7 45 -7 63 0 17 -4 32 -9 32 -5 0 -9 13 -9 30 0 27 4 31 63 49
82 26 91 24 99 -24z m-702 -160 c0 -19 5 -35 10 -35 6 0 10 -14 10 -31 0 -30
1 -31 43 -29 73 4 77 3 77 -29 0 -17 5 -33 10 -36 6 -3 10 -17 10 -30 0 -13 5
-27 10 -30 6 -3 10 -13 10 -21 0 -10 -13 -14 -49 -14 -27 0 -51 -4 -53 -9 -1
-6 -39 -10 -83 -11 -123 -2 -125 -2 -125 18 0 9 -11 40 -25 67 -13 28 -25 53
-25 57 0 4 18 11 41 14 28 5 37 10 30 17 -6 6 -11 21 -11 34 0 12 -5 33 -11
47 -21 44 -7 56 66 56 l65 0 0 -35z"/>
<path d="M205 2158 c2 -61 7 -114 12 -118 4 -4 23 -11 41 -15 l32 -7 0 89 c0
116 -4 128 -50 146 l-38 15 3 -110z"/>
<path d="M1625 1494 c-11 -3 -30 -7 -42 -9 -22 -5 -24 -14 -50 -189 l-5 -38
63 35 c133 75 202 159 152 185 -23 12 -92 21 -118 16z"/>
<path d="M2469 1054 c-9 -3 -28 -34 -42 -70 l-26 -66 25 6 c52 13 191 67 223
87 22 13 30 24 24 30 -11 11 -177 21 -204 13z"/>
<path d="M2440 813 c-77 -8 -75 -6 -111 -112 -18 -55 -31 -103 -28 -106 9 -9
181 51 271 94 98 47 134 76 118 96 -21 25 -145 39 -250 28z"/>
</g>
</svg>
