<?xml version="1.0" standalone="no"?>
<!DOCTYPE svg PUBLIC "-//W3C//DTD SVG 20010904//EN"
 "http://www.w3.org/TR/2001/REC-SVG-20010904/DTD/svg10.dtd">
<svg version="1.0" xmlns="http://www.w3.org/2000/svg"
 width="720.000000pt" height="544.000000pt" viewBox="0 0 720.000000 544.000000"
 preserveAspectRatio="xMidYMid meet">
<metadata>
Created by potrace 1.16, written by Peter Selinger 2001-2019
</metadata>
<g transform="translate(0.000000,544.000000) scale(0.100000,-0.100000)"
fill="#000000" stroke="none">
<path d="M3765 5318 c-175 -17 -343 -78 -507 -184 -83 -53 -168 -134 -168
-159 0 -15 3 -16 12 -7 21 21 45 13 79 -25 40 -46 55 -45 129 11 30 23 66 49
80 58 26 16 157 71 198 83 39 11 23 -5 -25 -27 -79 -34 -208 -124 -261 -183
-47 -51 -129 -173 -125 -185 1 -3 -30 -2 -68 3 -85 12 -87 30 -3 37 56 5 60 7
76 40 32 63 25 85 -39 123 -35 20 -60 29 -62 23 -5 -13 -22 -26 -35 -26 -4 0
-1 12 9 26 16 26 16 26 -7 19 -31 -9 -96 -77 -102 -107 -29 -150 -27 -146
-130 -231 -57 -47 -68 -68 -96 -180 -31 -123 -26 -253 14 -315 34 -55 96 -116
138 -138 18 -9 45 -27 60 -40 31 -25 71 -39 141 -49 38 -5 50 -12 61 -33 13
-25 107 -145 138 -175 7 -7 25 -21 41 -31 15 -10 27 -22 27 -26 0 -13 -53 -22
-60 -10 -7 12 -59 -3 -98 -28 -20 -13 -23 -21 -18 -52 5 -33 2 -40 -47 -88
-28 -29 -61 -59 -72 -67 -17 -13 -18 -16 -5 -25 8 -5 10 -10 4 -10 -5 0 -23
13 -39 30 -19 20 -41 31 -69 35 -56 7 -111 -7 -110 -27 1 -11 -4 -14 -13 -11
-42 16 48 181 131 241 55 40 158 74 224 75 44 1 50 3 32 11 -31 14 -140 -7
-208 -40 -32 -15 -77 -49 -102 -74 -52 -54 -110 -160 -110 -202 0 -24 -6 -32
-36 -44 -19 -8 -48 -17 -64 -21 -28 -5 -31 -2 -59 58 -34 75 -93 159 -99 141
-2 -6 10 -30 27 -51 51 -64 102 -183 108 -251 5 -51 2 -68 -17 -105 -34 -66
-50 -76 -50 -32 0 19 -7 40 -15 47 -8 7 -15 19 -15 26 0 14 -9 25 -62 86 -16
18 -28 37 -28 44 0 26 -33 21 -114 -17 -47 -22 -88 -39 -93 -38 -55 9 -81 -33
-44 -72 11 -12 23 -32 27 -43 18 -64 70 -150 102 -169 23 -14 30 -22 21 -28
-8 -5 -4 -9 12 -12 13 -2 -1 -5 -31 -6 -96 -2 -190 60 -257 169 -28 45 -103
250 -103 281 0 13 -6 50 -14 82 -15 64 -3 79 15 18 11 -37 16 -41 72 -58 34
-10 54 -19 45 -21 -9 -2 -33 4 -54 13 -20 8 -39 13 -42 10 -10 -10 29 -55 75
-87 40 -27 59 -33 115 -36 85 -5 127 9 182 63 54 52 80 101 96 180 6 33 21 90
32 127 26 88 19 115 -43 167 -36 31 -58 61 -83 116 -19 41 -46 89 -59 107 -32
42 -104 197 -113 242 -3 19 -22 63 -43 98 -42 73 -69 88 -129 70 -44 -14 -62
-42 -62 -102 0 -51 13 -83 54 -133 19 -23 46 -68 60 -100 24 -55 24 -57 4 -46
-31 17 -125 -6 -154 -38 -13 -14 -41 -30 -63 -36 -25 -8 -64 -36 -110 -80 -62
-58 -71 -72 -71 -102 0 -49 44 -131 79 -149 17 -9 37 -34 50 -61 13 -27 34
-54 51 -63 32 -18 51 -58 70 -152 27 -128 119 -332 178 -396 69 -74 146 -120
212 -129 30 -3 71 -15 90 -26 l35 -20 -45 7 c-25 3 -62 12 -82 19 -23 8 -38 9
-38 3 0 -6 -7 -8 -14 -5 -8 3 -100 11 -203 18 -167 10 -329 5 -415 -13 -7 -2
-14 8 -16 20 -3 19 -8 23 -25 18 -12 -3 -39 -6 -59 -6 -31 0 -38 -4 -38 -20 0
-13 -9 -22 -27 -26 -16 -4 -73 -20 -128 -36 -156 -46 -145 -45 -145 -10 0 34
-13 42 -74 42 -53 0 -66 -13 -66 -67 l0 -43 -74 1 c-92 1 -133 -17 -138 -62
-3 -29 -8 -32 -143 -83 -528 -201 -544 -208 -569 -235 -17 -19 -18 -32 -11
-156 7 -131 8 -136 34 -155 14 -11 32 -25 39 -30 6 -6 12 -32 12 -57 0 -25 20
-292 45 -592 25 -300 48 -580 51 -621 l6 -76 -40 -18 c-23 -10 -51 -29 -63
-42 -20 -21 -21 -30 -16 -95 12 -138 0 -135 742 -184 211 -14 460 -30 1265
-85 586 -40 2270 -163 2670 -195 247 -20 1256 -22 1263 -2 4 9 6 9 6 0 1 -10
26 -13 92 -13 l91 0 217 127 c119 69 241 141 271 158 30 17 80 47 111 67 62
39 69 56 69 154 0 48 -3 55 -36 83 l-37 30 6 63 c13 132 38 459 66 881 l30
437 29 29 c26 27 29 37 35 122 4 51 7 124 7 164 0 62 -3 74 -22 92 -35 31 -47
33 -296 53 -222 18 -293 17 -246 -1 15 -6 13 -8 -12 -8 -25 -1 -109 -25 -192
-56 -9 -3 -6 -15 13 -42 25 -38 33 -87 15 -98 -6 -3 -10 4 -10 17 0 13 -7 34
-16 46 -13 18 -19 21 -30 11 -12 -9 -13 -9 -9 3 4 9 -14 -3 -38 -26 -89 -86
-290 -140 -670 -181 l-58 -7 3 -41 c3 -41 4 -42 43 -48 23 -4 -6 -6 -70 -6
-60 -1 -102 1 -92 4 13 3 17 15 17 47 l0 43 -157 7 c-177 8 -393 30 -497 52
-48 10 -73 11 -80 4 -7 -7 -17 -3 -31 13 -11 13 -50 36 -87 51 -76 32 -143 88
-154 131 -9 36 10 72 55 102 47 31 60 29 28 -5 -37 -38 -38 -99 -2 -130 14
-12 27 -22 30 -22 3 0 23 -12 44 -26 111 -73 426 -135 700 -137 260 -3 504 10
611 32 135 27 203 47 260 76 57 30 111 74 90 75 -13 0 -13 1 0 10 12 8 12 10
-3 16 -19 7 -42 -2 -87 -33 -14 -9 -19 -11 -12 -3 21 23 14 28 -25 18 -21 -5
-141 -11 -268 -13 -126 -2 -212 -1 -190 1 85 9 440 96 493 121 32 15 32 16 16
42 l-17 26 27 -24 c14 -14 26 -19 26 -12 0 7 5 9 11 5 6 -3 24 3 40 15 15 11
38 21 49 21 35 0 90 51 90 83 0 23 -7 31 -37 44 -42 19 -138 22 -168 6 -15 -8
-50 -4 -132 12 -237 49 -629 68 -907 45 -121 -10 -315 -37 -341 -47 -11 -4
-15 3 -15 28 0 54 -12 63 -74 63 -68 -1 -84 -14 -88 -67 l-3 -42 -76 3 c-98 5
-149 -14 -149 -55 0 -27 -2 -28 -39 -25 l-38 4 42 43 c52 54 112 167 125 236
6 29 12 54 14 56 1 2 23 -4 47 -13 30 -10 61 -14 96 -10 43 5 63 1 125 -25
104 -44 150 -55 259 -63 72 -5 113 -3 163 8 37 9 94 16 126 16 87 0 151 17
217 57 32 19 89 51 126 70 53 28 71 43 82 70 21 49 20 49 -24 8 -48 -45 -168
-112 -224 -125 -24 -5 -57 -5 -77 0 -32 7 -33 8 -7 9 39 1 71 21 140 87 32 31
125 68 197 79 19 3 47 8 62 11 15 3 36 3 45 -1 10 -4 26 -9 36 -10 11 -1 22
-6 25 -11 4 -5 16 -10 27 -9 23 0 79 78 93 128 15 53 -1 140 -33 193 -38 60
-148 152 -240 198 -88 44 -212 61 -286 40 -42 -13 -148 -74 -210 -123 -26 -20
-89 -136 -89 -164 0 -9 -25 -43 -55 -75 -65 -71 -94 -129 -96 -197 -1 -30 -4
-39 -6 -22 -5 28 -13 32 -70 28 -18 -2 -33 1 -33 6 0 5 -27 15 -60 21 -34 7
-68 16 -77 19 -13 5 -15 2 -11 -15 3 -12 0 -23 -7 -26 -18 -6 -1 62 29 122 31
60 68 95 131 122 43 19 63 21 143 17 54 -2 88 -1 80 4 -7 5 -27 9 -45 9 -53 0
-80 16 -123 74 -90 118 -204 176 -348 176 -83 0 -133 -17 -197 -66 -31 -23
-39 -25 -63 -15 -66 27 -124 30 -202 10 -41 -10 -89 -19 -107 -19 -17 0 -34
-4 -37 -9 -3 -5 -54 -9 -113 -10 -269 -3 -558 99 -691 245 -103 112 -101 100
-98 437 3 275 13 406 38 487 29 96 143 239 244 307 127 85 367 135 544 114
146 -18 327 -90 402 -159 27 -25 27 -25 9 -51 -9 -14 -23 -53 -30 -86 -8 -33
-31 -127 -53 -210 -22 -82 -43 -160 -45 -172 -9 -40 -28 -46 -176 -50 -166 -5
-284 13 -432 68 l-90 34 -6 65 -6 65 -1 -57 c-1 -32 -5 -58 -9 -58 -5 0 -35
14 -68 30 -46 23 -74 30 -121 30 -78 0 -101 -18 -146 -108 -33 -67 -33 -68
-32 -207 2 -253 41 -349 169 -413 89 -45 147 -54 348 -55 l192 -2 105 -45
c198 -84 318 -65 450 71 104 107 180 424 127 526 -39 74 -111 102 -218 84 -39
-6 -74 -9 -77 -7 -5 6 89 375 117 460 9 27 22 51 30 54 7 2 42 -26 78 -64 71
-75 137 -196 168 -312 17 -59 17 -68 1 -174 -10 -61 -27 -134 -38 -162 -11
-28 -35 -114 -54 -191 -64 -266 -88 -313 -195 -375 -39 -23 -68 -44 -66 -47 7
-7 63 23 129 69 53 38 60 40 107 33 55 -7 243 19 300 42 56 24 124 101 156
178 27 63 30 81 30 180 0 130 -11 165 -86 263 l-51 67 7 83 c6 84 -4 141 -30
172 -7 8 -22 43 -34 78 -41 128 -208 325 -362 428 -183 123 -458 187 -704 162z
m-789 -716 c0 -118 2 -122 64 -122 46 0 50 -2 50 -24 0 -27 -15 -42 -25 -26
-3 5 -21 10 -39 10 l-34 0 -6 -117 c-8 -138 -29 -258 -53 -314 l-18 -40 -47
30 c-54 34 -60 47 -22 46 23 0 28 6 40 50 8 28 16 114 19 193 l5 142 -23 0
c-12 0 -29 5 -37 10 -13 9 -12 12 5 23 11 6 29 14 40 17 17 5 20 16 23 68 4
81 -11 90 -78 46 -19 -12 -18 -10 5 10 62 55 101 82 125 85 3 1 5 -38 6 -87z
m1929 -257 c127 -139 137 -405 21 -542 -43 -51 -50 -39 -10 17 69 96 87 194
63 339 -12 74 -27 110 -39 91 -5 -9 -13 -6 -29 11 -27 29 -35 20 -35 -39 -1
-41 2 -47 22 -50 12 -2 22 -8 22 -14 0 -5 -7 -7 -16 -4 -10 4 -13 2 -8 -6 5
-7 2 -9 -7 -6 -10 4 -19 -4 -26 -21 -13 -29 -49 -151 -57 -191 -3 -14 -12 -43
-20 -65 -26 -74 -30 -111 -10 -119 10 -4 20 -3 23 2 10 15 45 22 60 13 23 -15
-47 -53 -81 -45 -16 3 -28 1 -28 -4 0 -11 -98 -37 -106 -29 -3 3 4 10 15 17
12 6 21 20 21 32 0 23 31 153 55 228 21 66 38 167 32 187 -2 10 -8 25 -11 34
-5 11 -1 18 13 22 13 3 24 19 31 48 22 79 45 129 59 129 7 0 28 -16 46 -35z
m-1352 -97 l39 -12 -8 -55 c-12 -91 -11 -96 10 -93 11 2 34 1 53 -3 l33 -6 0
-59 c0 -55 -2 -60 -22 -60 -20 0 -20 -1 -3 -20 25 -28 13 -50 -29 -50 -19 0
-37 4 -40 9 -3 4 -29 11 -58 14 -29 3 -75 17 -103 31 -27 14 -60 26 -72 26
-35 0 -55 27 -47 64 4 17 9 42 10 56 1 14 3 28 3 33 1 4 14 7 30 7 20 0 35 -8
48 -26 l19 -26 -4 36 c-4 32 -7 36 -33 36 -33 0 -42 10 -24 27 11 10 17 9 30
-3 15 -15 17 -15 30 2 8 11 15 33 15 50 0 17 3 34 7 37 8 8 61 1 116 -15z
m777 -138 c0 -33 -4 -42 -22 -50 l-23 -9 23 0 c12 -1 22 -5 22 -10 0 -5 18 -7
40 -4 36 5 40 3 40 -16 0 -18 -6 -21 -45 -21 -57 0 -59 -18 -2 -22 42 -3 42
-3 39 -38 -2 -19 -8 -36 -13 -38 -5 -2 -6 -14 -3 -26 10 -42 -25 -59 -124 -60
-48 -1 -105 2 -127 6 -22 4 -55 7 -72 7 -28 1 -33 5 -33 24 0 13 3 26 6 30 3
3 8 27 10 53 2 26 6 55 9 64 7 22 65 33 72 13 8 -20 23 -16 23 7 0 17 -7 20
-40 20 -22 0 -40 4 -40 9 0 15 23 19 49 9 31 -11 61 14 61 52 0 15 3 30 7 33
3 4 37 7 75 7 l68 0 0 -40z m-2291 -126 c20 -26 25 -43 35 -137 5 -44 4 -47
-13 -37 -24 12 -122 14 -103 1 11 -7 10 -10 -3 -15 -9 -3 -17 -6 -19 -6 -1 0
-1 41 -1 91 0 83 2 93 24 110 32 26 56 24 80 -7z m-130 -116 c1 -95 -6 -113
-42 -106 -21 4 -27 0 -31 -19 -5 -19 -13 -23 -46 -23 -30 0 -42 5 -51 21 -12
23 -6 74 12 96 14 16 49 17 50 1 1 -7 5 5 8 27 5 30 14 45 40 62 54 36 58 32
60 -59z m532 -75 c49 -20 65 -52 53 -100 -6 -25 -16 -39 -28 -41 -11 -2 -26
-10 -34 -18 -13 -14 -58 -19 -84 -9 -17 7 -12 176 6 187 13 9 35 4 87 -19z
m954 -192 c16 -7 14 -9 -16 -15 -50 -9 -77 -41 -80 -96 -2 -25 -8 -48 -14 -52
-5 -4 1 -8 14 -8 22 0 23 -1 9 -17 -18 -20 -48 -78 -48 -90 1 -4 8 6 17 22 30
58 53 75 100 75 29 0 42 -4 38 -11 -4 -6 -20 -7 -38 -4 -55 12 -17 -14 43 -29
58 -15 84 -11 56 9 -15 11 -15 13 -1 19 10 4 27 -7 47 -30 35 -39 98 -74 171
-94 68 -18 208 -8 272 20 42 18 67 22 153 20 117 -1 130 -4 142 -34 8 -20 9
-19 9 5 1 30 -16 38 -84 40 l-40 1 35 8 c19 5 63 14 97 21 41 9 65 19 70 31 4
10 8 -69 8 -176 0 -107 -2 -190 -6 -184 -4 5 -16 7 -27 4 -18 -6 -21 0 -30 61
l-11 68 4 -83 c5 -92 10 -83 -85 -163 -58 -49 -118 -85 -187 -112 l-42 -16
-51 34 c-29 19 -77 42 -109 51 -106 29 -106 29 -112 60 l-7 29 -1 -27 c-1 -27
-3 -28 -54 -28 -29 0 -86 -8 -125 -19 l-72 -19 -40 42 c-22 22 -54 57 -71 76
-20 22 -34 30 -36 23 -8 -22 -40 4 -52 39 -13 42 -17 122 -7 168 6 29 3 26
-19 -20 -18 -38 -29 -50 -34 -41 -6 9 -10 5 -15 -14 -14 -53 -17 -16 -6 64 10
72 54 221 82 275 14 29 110 126 123 125 5 0 19 -4 30 -8z m1356 -27 c84 -19
174 -76 224 -142 20 -25 33 -47 31 -49 -2 -2 -20 5 -40 17 -50 27 -100 28
-163 0 -54 -23 -124 -90 -155 -148 -14 -27 -23 -32 -53 -32 -19 0 -35 4 -35 8
0 5 13 7 29 4 23 -3 33 1 44 19 34 54 31 65 -20 91 -26 12 -54 31 -61 41 -7 9
-18 15 -23 12 -17 -11 -9 12 11 30 24 22 26 35 4 35 -8 0 -22 6 -30 14 -16 17
-74 13 -85 -6 -4 -7 -11 -9 -15 -5 -9 9 31 52 74 79 78 48 152 57 263 32z
m1164 -125 c26 -24 42 -46 38 -55 -3 -7 -9 -12 -13 -9 -5 3 -12 -20 -16 -51
-4 -36 -13 -62 -27 -75 -24 -22 -33 -18 -18 9 9 16 5 27 -20 58 -28 36 -30 43
-24 89 5 43 19 75 31 75 3 0 24 -18 49 -41z m-533 -6 c30 -27 24 -83 -15 -126
-37 -42 -52 -46 -69 -17 -7 11 -16 20 -19 20 -10 0 -29 -50 -29 -76 0 -13 -16
-56 -36 -95 -19 -39 -33 -77 -30 -85 3 -8 2 -14 -3 -14 -12 0 -41 81 -41 115
0 41 41 125 80 165 18 18 38 48 46 66 24 58 79 81 116 47z m-2459 -127 c35
-15 71 -51 111 -110 31 -47 34 -76 7 -76 -11 0 -72 -21 -136 -46 -64 -25 -122
-43 -129 -41 -6 3 -18 17 -26 33 -7 16 -28 54 -46 84 -18 30 -35 71 -39 91 -7
36 -7 36 47 56 63 25 165 29 211 9z m216 -414 c2 -47 69 -159 117 -196 26 -20
51 -36 55 -36 5 0 9 -9 9 -20 0 -15 -7 -20 -25 -20 -14 0 -28 7 -31 15 -7 17
-104 22 -104 6 0 -18 -41 -23 -59 -7 -12 11 -49 18 -117 23 l-99 8 -2 44 c-1
24 -8 51 -16 58 -18 18 -147 28 -202 16 -31 -7 -41 -14 -43 -32 -3 -17 -8 -21
-20 -16 -9 4 -37 13 -62 21 -83 26 -81 34 11 34 109 0 381 34 438 54 26 10 62
35 88 64 41 43 46 45 53 27 5 -11 9 -30 9 -43z m-1016 -185 c20 -9 37 -21 37
-27 0 -23 -90 -50 -197 -61 -119 -11 -213 -5 -285 18 -78 24 -61 50 49 78 82
20 343 15 396 -8z m3637 -47 c265 -42 329 -54 379 -69 36 -11 57 -23 59 -34 5
-23 -19 -22 -104 7 -97 33 -234 61 -394 82 -209 26 -596 12 -848 -32 -20 -3
-32 -1 -28 4 3 5 34 12 68 16 35 4 87 11 117 17 129 26 609 32 751 9z m-4634
-41 c-15 -17 -25 -38 -22 -46 4 -8 6 -19 6 -23 0 -17 85 -59 160 -79 210 -58
549 -69 550 -18 0 4 -25 7 -57 7 -31 0 -54 2 -52 4 2 2 87 6 189 9 170 4 178
4 100 -7 -75 -10 -83 -13 -63 -24 47 -26 301 -6 473 38 47 12 120 39 164 60
l79 39 -29 -30 c-50 -52 -194 -94 -465 -134 -192 -28 -239 -44 -239 -80 0 -19
6 -24 33 -28 17 -2 -3 -5 -45 -5 l-78 -2 0 28 c0 15 -4 32 -8 39 -4 6 -69 16
-162 23 -346 27 -544 80 -583 157 -19 36 -7 67 35 93 42 25 47 18 14 -21z
m4478 -110 c57 -10 96 -33 96 -54 0 -8 -17 -23 -37 -34 -103 -51 -407 -57
-526 -9 -34 13 -53 44 -38 62 39 47 331 67 505 35z m-4938 -27 c-3 -5 -34 -17
-68 -27 -91 -25 -288 -121 -288 -140 0 -27 46 -35 333 -55 295 -21 348 -26
283 -29 -22 0 -37 -3 -34 -6 16 -17 342 -43 728 -60 175 -8 48 12 -165 25
-104 7 -192 14 -194 16 -8 7 80 4 309 -11 124 -8 302 -19 395 -25 94 -6 235
-16 315 -23 123 -10 136 -13 88 -17 -31 -3 -59 -8 -62 -11 -7 -7 -3 -7 624
-49 250 -16 516 -34 590 -39 74 -6 200 -13 280 -16 80 -3 174 -8 210 -11 47
-4 61 -3 50 5 -8 6 -33 11 -55 12 -25 1 -31 3 -16 6 13 3 125 -2 250 -11 124
-9 287 -18 361 -22 74 -3 153 -11 175 -17 l40 -12 -43 -3 c-24 -2 -66 2 -93 7
-60 13 -132 14 -125 3 5 -9 71 -15 371 -32 88 -5 207 -12 265 -16 111 -7 131
3 33 16 -89 13 250 1 502 -17 256 -18 466 -21 548 -10 49 7 76 21 190 97 291
193 410 270 378 242 -19 -16 -32 -34 -30 -41 3 -8 11 -5 26 9 12 11 35 21 50
22 47 3 189 100 177 120 -4 7 -2 8 4 4 7 -4 12 -3 12 2 0 18 -56 31 -165 37
-129 7 -175 14 -175 26 0 5 6 6 13 4 6 -3 77 -9 156 -15 144 -9 191 -23 191
-54 0 -22 -629 -460 -700 -487 l-45 -17 -7 -108 c-4 -60 -10 -114 -13 -121 -6
-17 -76 -17 -71 -1 3 7 7 59 10 116 l6 102 -112 0 c-62 0 -171 4 -243 10 -71
5 -209 14 -305 19 -96 6 -317 20 -490 31 -173 11 -427 27 -565 35 -137 9 -380
25 -540 35 -159 11 -427 29 -595 40 -273 18 -968 66 -1530 105 -113 8 -277 19
-365 25 -88 6 -250 17 -360 25 -189 13 -261 17 -654 30 -91 4 -169 7 -175 8
-15 3 -14 -169 0 -183 6 -6 107 -22 225 -35 272 -31 283 -34 119 -28 -204 7
-400 22 -443 34 -57 15 -65 37 -69 176 -3 108 -1 124 15 135 10 8 95 42 190
78 95 35 197 73 227 85 56 22 67 24 56 7z m3088 -208 c24 -9 20 -27 -13 -58
-28 -27 -30 -28 -107 -19 -46 5 -79 13 -81 20 -3 7 8 24 23 38 23 22 36 25 95
25 37 0 74 -3 83 -6z m-1936 -426 c63 -31 89 -81 69 -130 -8 -19 -40 -57 -71
-84 -56 -51 -61 -64 -22 -64 36 0 83 -36 102 -79 27 -59 47 -53 74 22 31 85
101 249 113 265 6 7 19 11 28 9 10 -3 26 1 36 9 10 7 26 14 36 14 9 0 17 5 17
10 0 6 5 10 10 10 6 0 10 -9 10 -20 0 -11 4 -28 9 -38 6 -9 18 -71 28 -137 17
-110 20 -120 41 -123 15 -2 22 -11 23 -25 0 -12 9 4 19 35 36 117 113 209 203
243 88 33 171 -8 169 -85 -1 -44 -22 -101 -34 -94 -6 4 -13 1 -17 -5 -13 -21
-40 0 -47 35 -8 45 -33 45 -79 -1 -47 -47 -76 -107 -82 -169 -4 -43 -1 -56 18
-80 19 -24 27 -28 60 -23 20 3 64 23 98 46 34 23 61 40 61 37 0 -3 -4 -16 -10
-30 -11 -30 -8 -32 29 -10 27 16 29 25 54 173 32 190 38 211 66 204 13 -3 21
-1 21 7 0 7 8 9 20 5 11 -4 20 -2 20 4 0 19 15 11 27 -14 9 -20 8 -40 -3 -92
-7 -37 -12 -68 -11 -70 2 -2 45 33 96 77 95 82 128 106 147 102 6 -1 21 9 34
23 13 14 28 25 34 25 5 0 -4 -15 -22 -33 -36 -37 -41 -53 -13 -37 27 14 36 13
21 -5 -6 -8 -9 -19 -5 -25 9 -14 -13 -39 -90 -103 -33 -27 -79 -67 -103 -89
l-43 -40 97 -119 c53 -66 98 -118 101 -115 2 2 -1 13 -8 23 -13 22 -4 97 12
88 5 -4 9 -1 9 5 0 7 6 10 14 7 7 -3 19 0 25 6 8 8 11 6 11 -9 0 -11 7 -30 16
-43 15 -21 23 -23 71 -19 59 5 108 34 108 63 0 12 -30 33 -95 66 -111 58 -138
81 -146 124 -11 60 38 120 138 171 119 60 228 31 228 -61 0 -29 -28 -90 -37
-81 -3 3 -12 -2 -19 -12 -8 -10 -13 -12 -14 -4 0 6 -7 12 -15 12 -10 0 -15 10
-15 30 0 37 -18 39 -80 8 -67 -34 -61 -53 35 -103 111 -59 165 -111 165 -158
0 -64 -72 -125 -196 -167 -57 -19 -114 -27 -101 -13 7 6 -84 53 -92 47 -2 -1
18 -30 44 -63 25 -34 44 -61 42 -61 -2 0 -27 18 -57 40 -55 41 -78 46 -45 10
24 -26 11 -26 -26 1 -24 17 -39 20 -77 16 -42 -5 -44 -5 -19 5 15 7 27 15 27
18 0 3 -33 39 -73 80 -40 41 -84 90 -98 108 l-26 33 -11 -53 c-6 -29 -15 -72
-18 -96 -4 -23 -11 -45 -16 -48 -6 -4 -7 2 -3 15 3 11 2 21 -3 21 -12 0 -31
-39 -35 -75 -3 -25 -4 -23 -6 10 -1 22 -6 47 -11 55 -9 13 -11 13 -21 0 -7
-11 -9 5 -7 58 l4 72 -71 -70 c-39 -38 -74 -70 -78 -70 -5 0 -15 -7 -23 -15
-9 -8 -26 -15 -38 -15 -31 0 -105 34 -135 61 -25 24 -60 94 -61 122 0 17 -25
24 -34 9 -2 -4 2 -41 10 -82 17 -89 17 -89 3 -70 -8 11 -9 1 -6 -40 5 -53 5
-54 -8 -25 -8 17 -14 36 -15 44 0 10 -3 11 -14 2 -12 -10 -16 -8 -21 10 -5 16
-9 18 -15 9 -8 -13 -10 -8 -38 100 -10 39 -12 39 -109 19 l-52 -10 -22 -63
c-14 -39 -28 -62 -35 -59 -6 2 -18 -10 -25 -26 -18 -39 -25 -39 -33 1 -6 30
-7 31 -21 12 -19 -25 -19 -10 1 56 11 38 13 55 5 58 -6 2 -8 9 -5 15 4 7 -17
-11 -47 -40 -30 -29 -84 -72 -121 -96 -37 -24 -65 -46 -62 -49 2 -3 -21 -18
-53 -34 -76 -38 -77 -38 -69 -25 4 6 1 11 -8 11 -9 0 -18 -12 -22 -27 -9 -44
-12 -50 -13 -25 -1 12 -5 22 -10 22 -12 0 -21 -37 -21 -87 0 -24 -5 -43 -11
-43 -5 0 -7 5 -4 10 8 13 -5 100 -15 100 -5 0 -11 -10 -13 -22 l-4 -23 -8 23
c-8 24 -15 24 -72 6 -16 -5 -16 -4 2 11 17 13 18 17 5 25 -8 5 -18 6 -22 4 -4
-3 -8 -1 -8 4 0 6 7 12 15 16 21 8 19 29 -2 22 -24 -8 14 23 54 45 27 15 29
19 31 90 1 41 5 91 8 112 5 30 3 37 -10 37 -15 0 -21 16 -18 53 1 9 -4 17 -11
17 -6 0 2 10 20 21 32 20 43 51 56 157 4 36 1 36 -76 2 -23 -10 -46 -16 -51
-12 -6 3 -5 7 2 10 20 6 14 32 -8 32 -10 0 -43 -9 -71 -20 -72 -29 -71 -19 2
15 57 28 109 68 67 52 -26 -9 -22 8 5 25 36 24 155 69 221 84 87 20 204 12
264 -18z m-1423 -211 c9 -98 20 -233 25 -300 5 -67 16 -198 24 -292 8 -93 18
-222 21 -285 4 -63 9 -123 12 -134 3 -10 1 -16 -5 -13 -5 4 -12 35 -16 69 -38
375 -95 1149 -83 1138 3 -3 13 -85 22 -183z m3903 91 c6 -40 16 -111 23 -158
10 -81 19 -100 46 -100 7 0 10 -7 7 -15 -4 -8 -2 -15 4 -15 5 0 17 21 27 48
38 100 126 195 222 239 45 21 66 24 115 21 53 -4 64 -9 85 -34 19 -23 22 -36
17 -64 -9 -52 -32 -90 -49 -84 -8 4 -15 1 -15 -5 0 -8 -6 -7 -20 1 -12 8 -20
24 -20 40 0 53 -68 30 -143 -48 -71 -74 -100 -182 -60 -226 24 -27 80 -23 127
10 57 39 57 52 2 52 -34 0 -46 4 -47 15 -5 70 -5 69 37 76 21 4 78 10 126 14
l87 7 -3 -34 c-2 -18 -13 -58 -24 -88 -11 -30 -33 -95 -48 -145 -19 -64 -29
-84 -34 -70 -8 23 -17 11 -36 -49 l-13 -41 0 48 c-1 46 -15 63 -25 30 -2 -10
-4 2 -4 27 0 25 -1 48 -1 52 -1 3 -21 -4 -47 -18 -52 -28 -69 -29 -117 -9 -74
31 -127 97 -127 160 0 20 -5 25 -25 25 -21 0 -25 -4 -20 -22 13 -57 21 -138
14 -138 -4 0 -10 8 -13 18 -3 9 -3 -11 -1 -46 5 -66 -8 -78 -19 -17 -7 33 -25
49 -26 23 -1 -7 -7 1 -15 17 -7 17 -14 24 -14 18 -2 -32 -19 -8 -26 35 -14
100 -10 95 -79 88 -105 -12 -105 -12 -142 -90 -19 -39 -34 -63 -34 -53 0 31
-19 18 -45 -30 -23 -42 -25 -44 -21 -18 5 33 -11 70 -21 48 -2 -7 -8 -13 -13
-13 -5 0 2 26 15 58 17 41 20 58 11 60 -15 3 -17 62 -3 62 5 0 4 6 -2 14 -13
15 4 26 38 26 13 0 35 34 77 118 32 64 60 120 62 123 1 4 -8 5 -20 3 -13 -1
-62 -8 -109 -14 l-86 -12 -15 -56 c-9 -31 -33 -129 -54 -217 -29 -119 -40
-152 -44 -130 l-5 30 -22 -36 c-12 -19 -27 -46 -33 -60 -8 -19 -9 -14 -4 27 3
33 2 54 -5 59 -6 3 -11 1 -11 -4 0 -6 -5 -11 -10 -11 -6 0 -8 17 -4 43 7 52
53 295 61 321 6 20 -1 20 -121 0 -34 -6 -38 -5 -33 9 3 9 2 19 -2 22 -11 6 -7
63 6 76 5 5 47 14 93 20 47 6 93 15 104 21 21 11 260 21 290 12 19 -6 19 -7 1
-20 -17 -13 -17 -14 0 -20 15 -6 13 -9 -11 -19 l-29 -12 38 -4 c35 -5 39 -2
58 31 17 29 27 37 52 37 47 2 97 14 97 24 0 5 4 9 9 9 4 0 13 -33 19 -72z
m1094 -43 c7 -11 17 -15 33 -11 13 3 26 2 29 -3 4 -5 -13 -12 -36 -16 -24 -4
-52 -14 -63 -21 -19 -14 -19 -14 5 -14 49 -1 -3 -17 -75 -24 -191 -17 -182
-15 -188 -44 -3 -15 -9 -35 -13 -45 -6 -17 -1 -18 57 -17 35 1 79 1 98 1 33
-1 34 -2 15 -16 -19 -14 -18 -14 4 -15 33 0 27 -16 -10 -25 -28 -6 -30 -8 -13
-14 18 -7 17 -8 -5 -14 -14 -3 -62 -9 -107 -13 l-81 -7 -12 -41 c-6 -22 -11
-45 -11 -49 1 -5 70 -8 154 -8 86 1 159 -3 167 -9 12 -8 9 -10 -13 -10 -16 0
-26 -4 -22 -10 3 -5 36 -11 73 -11 66 -2 62 -3 -45 -15 -54 -6 -74 -24 -26
-24 14 0 24 -2 22 -4 -2 -2 -76 -10 -164 -16 -88 -7 -172 -18 -187 -25 -20
-10 -28 -10 -32 -1 -2 6 -8 1 -11 -11 -8 -26 -25 -31 -25 -8 0 9 -9 15 -24 15
-25 0 -36 19 -41 72 -2 21 2 28 18 30 27 4 63 106 44 123 -19 16 -9 73 14 80
20 7 30 25 43 77 5 22 2 27 -16 30 -22 3 -34 43 -16 54 4 3 8 13 8 23 0 32 65
50 189 50 63 1 117 4 120 7 3 3 35 4 70 1 46 -4 67 -10 73 -22z m-4357 -534
c26 -5 30 -10 30 -41 0 -34 -1 -35 -45 -38 -25 -1 -65 1 -90 6 -36 6 -46 12
-48 30 -7 44 3 52 65 51 32 -1 72 -4 88 -8z m1714 -26 c33 -10 69 -31 88 -50
33 -33 33 -35 19 -63 -16 -31 -62 -65 -141 -102 -38 -18 -45 -25 -30 -27 124
-24 185 -64 185 -121 0 -31 -8 -44 -53 -87 -60 -56 -108 -82 -241 -132 -68
-25 -81 -32 -51 -29 51 7 41 2 -68 -29 -95 -27 -110 -30 -87 -15 12 8 12 10
-5 9 -11 0 -38 -6 -60 -13 -34 -10 -41 -17 -51 -51 l-12 -40 -1 38 c-1 34 -3
37 -21 27 -11 -6 -21 -25 -25 -48 -3 -20 -10 -55 -15 -77 -7 -32 -8 -24 -4 38
4 71 3 78 -13 75 -9 -2 -20 -14 -24 -28 l-6 -25 -7 27 c-5 15 -13 25 -19 23
-7 -2 -28 -6 -47 -9 l-35 -6 24 19 c17 13 32 16 50 12 14 -4 43 -4 66 0 63 12
403 114 478 144 71 29 88 47 21 21 -22 -8 -48 -17 -59 -22 -43 -16 -83 -11
-140 19 -13 7 -20 6 -23 -2 -2 -6 -7 -9 -11 -7 -4 3 -41 -4 -82 -14 -41 -11
-77 -20 -80 -20 -4 0 2 17 12 37 29 56 26 61 -31 55 -38 -3 -50 -1 -50 9 -1
26 -17 -14 -25 -60 -6 -33 -4 -42 5 -36 8 5 11 3 8 -6 -3 -8 -33 -22 -68 -31
-65 -18 -86 -28 -57 -28 9 0 17 -4 17 -10 0 -5 -8 -6 -17 -3 -16 6 -16 5 -4
-10 12 -15 10 -17 -25 -16 -34 0 -36 2 -16 9 24 10 30 30 10 30 -22 1 23 22
70 34 l45 12 24 89 c12 50 25 100 29 113 5 17 2 22 -12 22 -16 0 -17 2 -4 10
13 8 12 10 -2 10 -21 0 -24 16 -5 23 9 4 8 8 -3 16 -14 10 -7 15 49 33 8 2 27
39 43 82 l28 79 -37 -7 c-21 -4 -56 -9 -78 -12 -34 -4 -37 -3 -21 7 18 11 17
12 -10 25 -16 7 -22 13 -13 13 9 1 24 10 35 22 18 20 18 20 -11 13 -25 -5 -28
-4 -18 7 7 7 59 23 115 35 90 20 125 23 273 20 126 -2 184 -8 224 -21z m793
-3 c2 -5 35 -5 73 -1 39 4 108 8 155 8 l85 -1 -50 -13 c-49 -12 -49 -13 -15
-15 33 -2 33 -3 10 -10 -22 -7 -20 -8 15 -9 22 -1 108 4 190 10 104 8 161 8
185 1 27 -8 29 -10 12 -11 -32 -1 -17 -21 16 -22 20 0 13 -5 -28 -19 -46 -15
-50 -18 -26 -19 67 -2 4 -20 -112 -32 l-123 -12 -20 -38 c-10 -21 -19 -41 -19
-45 0 -4 35 -4 78 0 42 3 91 2 107 -3 26 -8 27 -9 7 -10 -29 -1 -19 -21 11
-22 20 -1 21 -2 2 -6 -11 -3 -31 -10 -45 -16 l-25 -10 25 -7 c18 -5 6 -8 -45
-14 -171 -17 -159 -12 -177 -64 -10 -25 -15 -48 -14 -50 2 -2 69 1 148 6 78 5
166 6 193 2 46 -7 47 -7 13 -9 -21 0 -38 -5 -38 -10 0 -12 82 -25 107 -17 10
3 24 2 31 -3 9 -5 -18 -11 -70 -14 -45 -3 -96 -8 -113 -12 l-30 -5 28 13 c29
14 27 27 -5 27 -12 0 -16 4 -12 11 6 10 -94 8 -253 -5 -10 0 -17 4 -16 9 9 60
9 60 -24 63 -18 2 -33 7 -33 13 0 5 -4 9 -8 9 -9 0 -32 -59 -32 -83 0 -10 -11
-22 -24 -27 -29 -11 -40 -26 -26 -35 15 -9 2 -25 -22 -25 -17 0 -19 2 -7 16
10 13 10 17 0 24 -9 5 -3 11 21 19 30 10 37 19 51 65 20 64 21 66 4 66 -14 0
-16 27 -4 48 6 8 2 10 -10 7 -10 -3 0 3 22 14 39 19 64 55 65 94 0 9 -6 17
-14 17 -8 0 -12 9 -10 26 2 22 -1 25 -24 20 -15 -3 -57 -8 -93 -12 l-67 -6
-51 -137 c-100 -264 -116 -303 -119 -288 -2 8 8 42 22 75 33 84 41 122 24 123
-45 4 -93 -2 -100 -13 -4 -7 -20 -51 -34 -98 -26 -84 -52 -136 -39 -75 7 30
94 293 117 352 7 18 10 35 7 38 -3 3 -30 1 -60 -4 -30 -5 -74 -12 -99 -15 -40
-5 -43 -4 -27 8 18 14 18 15 0 24 -17 10 -17 11 2 32 16 18 17 23 5 30 -22 14
23 27 141 40 57 7 109 16 114 20 6 5 21 10 35 13 14 2 28 5 32 6 3 0 8 -3 10
-7z m1088 -20 c22 -10 36 -26 38 -39 2 -13 8 -23 14 -23 13 0 2 -44 -18 -75
-9 -13 -22 -21 -29 -19 -8 3 -16 -4 -21 -18 l-7 -23 -9 24 c-7 19 -11 21 -22
11 -12 -9 -15 -6 -18 22 -4 41 -21 45 -92 23 -62 -20 -116 -59 -101 -74 6 -5
62 -30 126 -54 199 -77 249 -110 249 -166 0 -16 -4 -33 -10 -36 -5 -3 -10 -15
-10 -26 0 -10 -6 -19 -12 -19 -7 0 -22 -8 -33 -16 -18 -14 -15 -15 50 -9 39 3
80 8 93 11 12 2 22 0 22 -4 0 -5 -48 -14 -108 -20 -74 -8 -124 -19 -162 -36
-30 -13 -90 -39 -133 -56 -43 -18 -75 -35 -72 -38 5 -6 -82 -45 -128 -57 -20
-5 -20 -4 3 9 14 9 22 15 19 16 -12 0 -116 -39 -208 -79 -114 -50 -136 -46
-27 5 43 19 75 38 72 41 -3 3 -80 -20 -171 -52 -91 -31 -168 -55 -171 -52 -3
3 16 13 43 22 26 9 70 26 97 37 85 34 209 69 251 70 39 0 250 72 355 121 l55
25 -53 1 c-29 1 -63 8 -76 16 -25 17 -33 15 -119 -24 -23 -10 -98 -42 -167
-71 -69 -29 -143 -65 -165 -80 -47 -31 -103 -55 -111 -47 -6 6 235 125 348
173 92 39 300 139 321 156 11 8 16 20 12 30 -7 17 -28 27 -190 89 -134 52
-170 82 -162 137 18 114 319 234 437 174z m-1475 -12 c-3 -5 -1 -17 6 -27 9
-15 3 -41 -29 -133 -22 -63 -52 -151 -68 -195 -15 -44 -38 -107 -51 -140 -30
-76 -22 -22 13 84 20 59 22 76 12 82 -18 12 -58 11 -58 -1 0 -5 -5 -10 -11
-10 -5 0 -7 6 -3 13 3 6 -5 0 -19 -15 -18 -18 -34 -54 -49 -115 -14 -53 -24
-79 -26 -65 -2 13 10 69 27 125 18 56 45 147 62 202 39 127 68 193 78 176 7
-10 15 -10 42 2 19 7 39 12 46 10 6 -2 14 1 18 6 3 6 8 11 11 11 3 0 3 -4 -1
-10z m-2347 -163 c16 -12 16 -64 0 -73 -18 -11 -108 -8 -140 5 -23 9 -28 17
-28 44 0 19 3 37 7 41 10 9 145 -4 161 -17z m250 -19 c20 -20 15 -69 -8 -75
-11 -3 -20 -8 -20 -12 0 -3 9 -12 20 -19 25 -15 28 -70 4 -79 -8 -3 -48 -2
-87 3 l-72 9 -3 37 c-3 35 -2 37 30 40 l33 3 -32 18 c-28 15 -33 23 -33 52 l0
35 78 0 c47 0 83 -5 90 -12z m4687 -147 c26 -5 30 -11 33 -44 l3 -37 -58 0
c-32 0 -75 3 -95 6 -36 6 -38 8 -38 45 l0 39 63 -1 c34 -1 76 -4 92 -8z m253
-11 l52 0 0 -40 0 -40 -83 0 c-90 0 -107 8 -107 50 0 36 9 43 50 36 19 -3 59
-6 88 -6z m-225 -119 c5 -5 7 -21 5 -37 -3 -26 -7 -29 -43 -32 -22 -2 -64 -1
-92 3 -52 6 -53 7 -53 39 0 18 3 36 8 40 9 10 164 -2 175 -13z m-2461 -84
l-17 -52 340 -1 c196 -1 353 -6 370 -12 21 -7 -45 -8 -215 -5 -376 8 -776 -15
-1010 -58 -80 -14 -231 -51 -228 -55 2 -1 118 12 258 31 319 42 661 69 709 55
20 -5 126 -8 255 -5 l221 4 -165 -9 c-313 -18 -579 -48 -735 -85 -22 -6 -27
-5 -19 4 13 14 226 58 341 71 81 8 76 9 -57 5 -160 -4 -407 -31 -658 -71 -89
-14 -177 -24 -195 -22 l-32 3 31 17 c82 45 496 116 689 119 28 0 59 4 69 8 20
8 45 75 46 126 1 29 2 29 11 7 6 -16 4 -38 -9 -75z m-2978 28 c-17 -43 42 -59
291 -80 99 -8 195 -19 214 -25 36 -10 259 -31 536 -51 281 -19 471 -36 430
-38 -22 0 -101 3 -175 9 -268 19 -778 50 -915 55 -77 3 -177 8 -222 10 l-83 5
0 -30 c0 -26 -2 -28 -22 -21 -14 5 -24 18 -26 34 -2 20 -12 29 -39 38 -43 14
-53 4 -53 -55 0 -67 -18 -27 -21 45 -3 76 2 86 45 105 40 17 47 17 40 -1z
m6656 -25 c9 -16 -1 -24 -68 -61 -42 -23 -192 -106 -333 -185 -140 -78 -283
-152 -317 -164 -40 -14 -64 -29 -68 -42 -3 -11 -12 -17 -19 -14 -8 3 -15 -4
-18 -17 -3 -16 -5 -14 -6 8 l-1 31 -292 17 c-161 10 -507 31 -768 48 -261 16
-488 30 -505 30 -21 1 -24 3 -9 6 12 2 178 -5 370 -17 803 -48 883 -51 1014
-46 74 4 162 9 195 12 45 4 56 2 45 -6 -31 -23 65 3 140 37 81 37 204 113 196
121 -12 11 252 152 271 145 12 -4 109 44 148 73 19 14 19 16 3 28 -22 16 -23
27 -3 20 9 -4 20 -15 25 -24z m-1472 -11 c19 -7 23 -15 20 -41 -3 -32 -5 -33
-53 -36 -79 -4 -129 9 -133 37 -7 46 3 52 76 50 37 -1 78 -6 90 -10z m250 -21
c7 -7 12 -24 12 -39 0 -36 -23 -43 -111 -34 -62 6 -71 10 -79 31 -18 46 -5 54
84 54 50 0 87 -5 94 -12z"/>
<path d="M207 2253 c-9 -8 -8 -101 1 -167 6 -46 10 -50 41 -58 18 -5 35 -7 38
-4 7 7 4 162 -3 192 -4 14 -18 27 -36 33 -37 13 -33 13 -41 4z"/>
<path d="M1625 1494 c-11 -3 -29 -7 -41 -9 -21 -5 -25 -21 -50 -184 l-6 -44
62 34 c85 47 170 124 170 154 0 14 -8 28 -17 33 -23 12 -92 21 -118 16z"/>
<path d="M2469 1054 c-8 -3 -27 -34 -41 -70 l-26 -66 24 6 c52 13 191 67 223
87 31 19 33 22 17 31 -20 11 -171 20 -197 12z"/>
<path d="M2450 815 c-8 -2 -32 -6 -52 -10 l-38 -6 -31 -100 c-17 -55 -29 -102
-26 -105 8 -8 184 54 269 95 94 45 137 81 115 99 -24 21 -182 38 -237 27z"/>
<path d="M4052 3605 c1 -19 -2 -38 -6 -43 -10 -9 -218 -4 -269 8 -24 5 -48 5
-57 0 -11 -6 -26 -3 -46 9 -27 16 -30 17 -47 1 -16 -16 -14 -18 40 -30 86 -19
117 -22 248 -29 96 -5 131 -3 175 10 30 10 81 24 112 33 60 18 76 30 57 42 -8
4 -9 3 -5 -5 6 -9 -8 -12 -56 -11 -34 0 -79 -2 -99 -5 -35 -6 -36 -6 -31 24 2
18 0 31 -7 31 -6 0 -10 -16 -9 -35z"/>
</g>
</svg>
