<?xml version="1.0" standalone="no"?>
<!DOCTYPE svg PUBLIC "-//W3C//DTD SVG 20010904//EN"
 "http://www.w3.org/TR/2001/REC-SVG-20010904/DTD/svg10.dtd">
<svg version="1.0" xmlns="http://www.w3.org/2000/svg"
 width="720.000000pt" height="544.000000pt" viewBox="0 0 720.000000 544.000000"
 preserveAspectRatio="xMidYMid meet">
<metadata>
Created by potrace 1.16, written by Peter Selinger 2001-2019
</metadata>
<g transform="translate(0.000000,544.000000) scale(0.100000,-0.100000)"
fill="#000000" stroke="none">
<path d="M3709 5365 c-223 -44 -389 -129 -539 -274 -46 -45 -70 -75 -62 -78 7
-3 19 1 27 7 12 10 15 9 15 -3 0 -9 9 -18 19 -22 33 -10 37 -75 4 -75 -23 0
-93 44 -93 58 0 22 -56 -24 -90 -73 -21 -30 -29 -52 -25 -67 9 -38 -27 -112
-88 -179 -80 -88 -115 -153 -132 -244 -19 -99 -7 -185 38 -269 26 -49 49 -73
122 -129 98 -75 139 -97 182 -97 24 0 35 -10 72 -70 24 -38 48 -70 53 -70 10
0 5 11 -28 55 -42 58 -53 93 -69 231 -14 117 -15 166 -6 309 6 94 17 193 25
220 43 147 52 173 73 204 13 19 23 48 23 65 0 27 11 39 81 94 151 118 236 151
439 173 152 15 328 -4 452 -51 206 -77 394 -294 413 -476 10 -87 -8 -208 -50
-338 -18 -55 -40 -139 -49 -186 -9 -47 -28 -136 -43 -197 -20 -89 -23 -116
-14 -127 10 -12 5 -20 -31 -46 -97 -71 -246 -131 -361 -145 -47 -6 -57 -5 -57
8 0 8 7 18 16 21 10 4 13 2 8 -6 -5 -8 0 -9 17 -4 13 4 49 14 79 22 30 8 75
24 99 36 37 18 41 23 25 28 -10 4 -30 3 -44 -3 -14 -5 -35 -9 -47 -9 -12 1
-25 -3 -28 -8 -3 -6 -26 -10 -50 -10 -34 0 -47 -5 -59 -22 -15 -22 -16 -20
-16 30 0 30 -4 52 -11 52 -6 0 -9 -15 -7 -37 4 -48 -7 -51 -157 -52 -92 -1
-126 3 -142 14 -14 10 -24 12 -28 5 -3 -5 -18 -10 -33 -10 -21 0 -24 2 -12 10
13 8 12 10 -5 11 -11 1 -29 1 -40 1 -16 -2 -17 0 -5 7 12 9 12 11 -3 17 -23 8
-47 -2 -47 -20 0 -15 53 -32 69 -22 5 4 11 2 13 -3 1 -5 40 -19 86 -31 67 -17
105 -21 193 -18 77 2 110 0 113 -9 7 -17 -89 -27 -191 -18 -113 9 -262 46
-343 84 -36 17 -70 31 -75 31 -6 0 -43 26 -82 59 l-72 58 -56 -9 c-74 -11
-157 -59 -225 -128 l-55 -56 -123 10 c-121 9 -122 9 -128 35 -27 117 -88 330
-99 348 -23 34 -19 48 30 114 45 61 75 138 75 191 0 17 -16 53 -40 88 -22 32
-40 71 -40 85 0 15 -4 24 -10 20 -6 -4 -10 7 -10 25 0 18 -4 29 -10 25 -12 -8
-12 11 -1 95 5 36 6 83 2 105 -7 37 -8 35 -13 -32 -5 -71 -21 -109 -40 -97
-13 8 0 141 18 178 10 21 13 62 12 140 -1 83 -3 93 -5 41 -4 -72 -14 -96 -42
-94 -13 1 -13 2 2 6 14 4 17 17 17 88 0 54 4 85 12 87 18 6 -13 61 -45 76 -44
21 -86 7 -104 -36 -13 -30 -16 -74 -14 -234 2 -215 0 -225 -49 -173 -18 19
-34 25 -66 25 -31 0 -51 -7 -72 -25 -19 -16 -42 -25 -64 -25 -21 0 -49 -10
-69 -25 -19 -13 -50 -33 -69 -44 -19 -10 -46 -30 -58 -44 -26 -28 -27 -23 9
-182 45 -199 61 -259 79 -296 20 -38 20 -38 -1 -73 -37 -62 -28 -179 31 -403
34 -130 59 -183 98 -212 17 -12 37 -41 47 -68 26 -70 58 -108 117 -137 55 -28
100 -32 143 -16 24 9 32 6 65 -24 44 -40 102 -52 280 -61 63 -3 132 -8 152
-10 28 -4 43 0 65 18 22 19 37 23 65 19 21 -2 60 1 88 8 28 7 54 10 57 7 3 -3
11 -36 18 -74 27 -140 87 -258 147 -286 26 -12 38 -26 46 -55 7 -22 12 -44 12
-51 0 -17 -136 -15 -143 3 -10 25 -65 28 -107 4 -36 -21 -39 -22 -57 -5 -14
12 -47 19 -119 24 l-99 8 -11 44 -10 44 -13 -30 c-7 -17 -23 -41 -37 -54 -13
-12 -24 -28 -24 -36 0 -7 -11 -13 -25 -13 -41 0 -90 -25 -132 -67 -66 -66
-203 -104 -518 -144 -93 -12 -176 -26 -182 -31 -7 -6 -13 -23 -13 -39 0 -25 4
-28 38 -32 20 -2 0 -4 -45 -5 l-83 -2 0 35 c0 20 -6 38 -12 40 -7 3 -96 11
-198 20 -208 17 -403 54 -470 88 -55 28 -92 79 -81 110 8 23 70 71 79 62 3 -3
-4 -15 -16 -28 -29 -30 -28 -68 2 -96 30 -28 143 -67 255 -87 106 -20 411 -31
411 -16 0 6 15 12 33 14 23 3 10 7 -43 14 l-75 11 110 2 c61 1 135 3 165 6 39
4 49 3 35 -4 -11 -5 -38 -10 -60 -10 -50 -2 -79 -16 -51 -27 38 -15 318 5 427
30 95 22 285 93 275 103 -2 2 -64 -8 -137 -23 -113 -23 -167 -28 -346 -31
-183 -4 -213 -3 -213 10 0 17 37 30 46 15 19 -31 420 60 572 130 27 12 33 20
29 38 -3 15 0 21 10 17 7 -3 13 -2 13 1 0 15 -111 56 -205 75 -145 29 -401 43
-567 32 -75 -5 -141 -12 -146 -15 -5 -3 -12 8 -16 24 -5 29 -7 30 -66 30 -59
0 -60 0 -60 -28 0 -27 -4 -29 -127 -65 -187 -55 -173 -53 -173 -25 0 35 -18
48 -70 48 -57 0 -70 -12 -70 -67 l0 -43 -75 0 c-94 0 -132 -17 -137 -61 -3
-29 -8 -32 -143 -83 -530 -202 -549 -210 -574 -240 -11 -13 -12 -45 -5 -153
l9 -138 32 -20 c21 -13 34 -30 37 -50 3 -16 26 -291 51 -610 25 -319 49 -609
52 -645 l5 -66 -40 -18 c-23 -10 -51 -29 -63 -42 -20 -21 -21 -30 -16 -95 11
-135 17 -137 592 -174 216 -14 489 -32 1550 -105 242 -16 532 -37 645 -45 113
-9 480 -36 815 -60 336 -25 727 -55 870 -66 219 -19 354 -23 862 -26 l601 -4
5 23 4 23 2 -22 c1 -22 5 -23 92 -23 l91 0 252 146 c356 208 396 234 407 261
5 13 9 53 9 88 0 61 -1 65 -36 94 l-37 30 6 63 c13 128 38 464 67 886 l29 432
29 29 c27 27 29 37 35 128 4 54 7 128 7 164 0 112 -14 118 -370 144 -118 8
-241 18 -272 21 l-58 6 0 43 c0 76 -10 105 -43 122 -36 18 -142 22 -172 6 -15
-9 -36 -8 -80 3 -78 18 -325 54 -374 54 -34 0 -43 6 -75 47 -26 33 -35 54 -31
68 3 11 9 64 12 117 7 115 -8 167 -65 230 -52 57 -104 81 -187 84 -62 3 -85
11 -201 66 -119 56 -133 65 -138 92 -17 83 -119 190 -234 245 -106 50 -179 51
-274 2 -37 -18 -77 -44 -89 -57 -27 -28 -40 -29 -103 -8 l-48 17 51 27 c28 16
69 43 91 60 34 27 46 31 73 26 70 -14 147 -18 160 -8 6 6 38 15 70 21 60 11
147 62 199 117 47 51 115 212 80 190 -7 -4 -12 -14 -12 -23 0 -34 -73 -153
-106 -174 -32 -20 -54 -19 -54 2 0 6 4 8 9 5 17 -11 98 89 121 150 30 80 31
211 0 253 -23 34 -26 51 -6 51 26 0 49 -52 55 -129 6 -62 9 -71 15 -48 10 35
-7 126 -35 183 -11 23 -37 62 -58 86 -21 23 -43 53 -49 65 -15 27 -16 90 -2
98 28 17 4 115 -42 170 -13 17 -30 48 -36 71 -41 143 -280 381 -460 460 -215
92 -479 128 -673 89z m606 -277 c92 -30 157 -72 225 -144 82 -89 118 -140 129
-183 4 -20 16 -71 26 -113 l18 -78 35 0 c22 0 32 -4 29 -12 -4 -13 -66 -13
-79 1 -4 4 -11 29 -14 56 -14 104 -145 297 -253 373 -32 23 -100 62 -152 88
-96 47 -84 51 36 12z m-1331 -435 c-4 -27 -9 -86 -9 -133 -2 -109 -4 -121 -15
-95 -8 19 -9 19 -9 -2 -1 -12 5 -24 12 -26 9 -4 8 -8 -3 -16 -12 -8 -15 -38
-15 -153 0 -122 3 -147 18 -170 10 -15 17 -37 15 -49 -3 -21 -5 -21 -48 13
l-45 34 0 212 c0 163 -3 212 -12 212 -23 0 -14 28 9 32 19 3 24 12 31 58 6 46
5 57 -10 67 -14 11 -14 13 -2 13 9 0 21 11 27 25 8 17 20 25 38 25 26 0 26 -1
18 -47z m-730 12 c16 -17 30 -86 24 -129 -3 -29 -2 -29 -108 -39 -24 -2 -25 1
-28 61 -3 58 -1 65 27 92 32 33 62 38 85 15z m-140 -57 c3 -13 6 -49 6 -80 l0
-57 -41 -11 c-54 -15 -65 -9 -73 35 -10 54 10 104 48 121 43 19 53 17 60 -8z
m2824 -185 c18 -21 38 -47 44 -58 11 -19 10 -19 -13 -2 -13 9 -35 25 -48 34
-16 12 -28 14 -40 7 -19 -12 -66 -102 -58 -111 3 -3 21 -8 39 -12 24 -5 34
-13 36 -29 4 -28 -14 -35 -65 -24 l-40 9 -13 -61 c-19 -96 -29 -164 -36 -263
l-7 -93 26 0 c14 0 37 4 50 9 29 11 45 -10 23 -28 -21 -17 -96 -41 -130 -41
l-31 0 3 107 c1 60 6 140 12 178 24 175 24 202 1 214 -33 18 -25 39 20 53 30
8 48 22 65 50 13 21 24 41 24 45 0 5 9 22 20 40 18 30 21 31 52 23 18 -5 48
-27 66 -47z m-2401 -470 c34 -90 93 -326 93 -374 0 -33 -8 -55 -32 -91 -37
-54 -57 -67 -51 -34 3 13 -10 54 -27 92 -17 38 -38 89 -46 114 -28 83 -36 100
-51 100 -12 0 -13 3 -4 14 9 11 -4 10 -60 -5 -43 -11 -106 -19 -156 -19 -75 0
-100 -8 -73 -25 6 -3 10 -17 10 -30 0 -13 5 -27 10 -30 6 -3 10 -16 10 -29 0
-19 29 -119 48 -166 3 -8 7 -19 7 -25 9 -54 31 -105 46 -105 10 0 21 -4 24
-10 8 -13 3 -12 -70 5 -87 20 -132 72 -168 191 -54 183 -80 324 -71 386 13 84
44 108 44 34 0 -55 31 -103 90 -136 61 -34 183 -35 248 -1 65 33 120 93 127
138 14 82 23 83 52 6z m768 -250 c35 -27 64 -52 64 -58 1 -6 -30 -9 -80 -7
-77 3 -80 3 -70 -16 11 -21 -5 -41 -62 -77 -19 -12 -27 -24 -24 -37 7 -26 3
-23 -28 22 -35 50 -99 78 -144 62 -49 -17 -39 9 22 61 79 68 140 97 204 97 48
0 60 -5 118 -47z m1530 -57 c79 -38 163 -114 195 -175 11 -23 19 -41 16 -41
-2 0 -20 16 -40 36 -35 35 -39 36 -83 30 -127 -17 -216 -71 -269 -162 -14 -24
-31 -44 -37 -44 -5 0 -3 8 6 18 8 9 18 29 22 43 6 25 -10 43 -77 90 -12 8 14
72 37 91 11 9 17 19 14 23 -4 3 -43 7 -88 8 -44 1 -81 5 -81 9 0 5 27 28 60
52 114 84 186 89 325 22z m-1415 -26 c13 -9 11 -12 -6 -9 -17 3 -60 -54 -62
-83 -2 -18 -10 -40 -19 -50 -15 -17 -15 -18 0 -18 20 0 21 -7 2 -40 -21 -37
-18 -50 3 -15 32 52 46 59 96 46 25 -6 54 -11 66 -11 12 0 33 -14 47 -30 89
-106 308 -119 473 -29 30 16 46 23 36 14 -18 -14 -13 -15 65 -13 75 1 79 2 34
8 -37 5 -42 7 -18 8 17 1 35 7 38 12 5 8 11 8 19 1 8 -7 22 -4 44 9 18 11 42
20 53 20 11 0 17 5 14 10 -4 6 5 10 19 10 14 0 26 4 26 8 0 5 7 9 15 9 19 0
19 0 -1 -72 -18 -65 -24 -239 -11 -315 4 -26 4 -39 -1 -32 -7 10 -13 5 -25
-19 l-15 -33 -17 60 c-24 85 -25 86 -19 19 6 -61 6 -61 -32 -94 -102 -86 -244
-156 -293 -144 -13 3 -52 22 -85 42 -32 19 -89 42 -125 51 -54 13 -67 20 -72
41 -7 23 -7 23 -8 2 -1 -22 -5 -23 -83 -25 -46 0 -89 -1 -95 -1 -7 1 -10 -3
-7 -8 3 -5 0 -9 -5 -9 -6 0 -11 4 -11 8 0 5 -22 33 -50 63 -31 34 -50 48 -50
38 0 -31 -29 -30 -45 1 -21 40 -38 215 -24 242 6 11 9 22 6 24 -2 2 -12 -14
-22 -36 -10 -23 -24 -44 -31 -48 -41 -23 -4 -218 66 -349 29 -54 39 -103 21
-103 -11 0 -65 104 -85 165 -17 55 -35 206 -30 257 9 96 16 132 38 196 21 62
80 163 124 215 17 20 21 20 42 7z m-488 -67 c54 -25 88 -76 112 -168 21 -78
20 -85 -6 -84 -22 0 -22 1 -3 9 14 6 0 8 -45 8 -55 -1 -59 -2 -25 -7 31 -5 15
-8 -70 -14 -60 -4 -125 -5 -142 -1 -32 6 -33 8 -33 54 0 56 -21 121 -56 172
-39 56 -29 61 105 56 88 -4 128 -10 163 -25z m2244 -227 c61 -29 114 -58 117
-63 4 -6 -15 -8 -48 -5 -46 4 -61 0 -102 -23 -43 -25 -143 -115 -128 -115 3 0
-3 -10 -15 -22 -11 -12 -20 -25 -20 -30 0 -4 -8 -5 -17 -2 -17 6 -193 85 -202
91 -2 1 9 28 25 58 30 61 70 97 149 138 76 39 112 35 241 -27z m271 -108 c54
-13 130 -85 163 -153 21 -41 25 -65 25 -132 0 -45 -4 -85 -8 -89 -10 -10 -46
25 -67 66 -10 19 -33 49 -52 66 -41 39 -128 84 -163 84 -14 0 -25 5 -25 11 0
17 -76 3 -132 -24 -26 -13 -46 -21 -44 -18 1 3 10 24 20 46 9 22 21 48 26 57
8 14 6 16 -6 11 -20 -7 -67 -110 -58 -125 4 -7 2 -8 -4 -4 -9 6 -43 -42 -42
-59 1 -11 -32 -67 -36 -62 -8 7 15 87 38 132 63 124 201 222 293 208 17 -2 49
-9 72 -15z m-2947 -68 c10 -6 61 -13 112 -16 51 -3 111 -9 133 -14 78 -17 201
-23 223 -11 16 8 22 8 22 1 0 -6 -15 -17 -33 -25 -27 -11 -59 -12 -168 -4
-198 14 -293 34 -314 69 -8 13 1 13 25 0z m2229 -194 c18 -10 48 -33 67 -51
20 -21 63 -45 109 -62 41 -15 75 -32 75 -36 0 -5 -8 -21 -18 -35 -10 -15 -24
-39 -32 -55 -7 -15 -23 -29 -34 -32 -80 -15 -86 -15 -86 5 0 28 -14 32 -76 24
-44 -5 -58 -11 -62 -26 -2 -10 -16 -25 -31 -33 l-26 -14 33 -1 c20 0 31 -4 27
-10 -3 -5 -14 -10 -24 -10 -9 0 -27 -11 -39 -25 -12 -14 -23 -26 -24 -28 -2
-1 7 -13 20 -27 12 -13 22 -27 22 -31 0 -30 216 -109 405 -149 89 -18 237 -31
347 -29 112 1 131 -3 121 -26 -3 -8 0 -15 6 -15 6 0 10 -3 9 -7 -1 -5 5 -20
12 -35 13 -27 16 -28 94 -29 l81 -2 -60 -7 c-79 -10 -179 -14 -290 -9 l-90 3
101 5 101 6 -11 45 -11 45 -235 1 c-321 1 -551 30 -652 80 -26 13 -49 24 -50
24 -2 0 -3 -11 -3 -25 0 -14 3 -25 8 -25 4 0 7 -6 7 -14 0 -37 172 -113 325
-145 211 -43 281 -48 711 -43 319 4 617 74 704 166 11 13 23 39 26 58 5 29 1
41 -26 71 -18 21 -28 37 -23 37 6 0 18 -9 28 -20 10 -11 26 -22 36 -25 11 -4
19 -13 19 -22 0 -9 16 -33 35 -54 40 -44 48 -97 18 -120 -15 -11 -16 -11 -5 1
19 21 15 39 -16 75 l-29 32 -31 -38 c-74 -87 -279 -148 -640 -190 l-103 -11 3
-42 c3 -40 4 -41 43 -47 22 -4 -10 -6 -75 -6 -63 0 -105 2 -92 4 17 3 22 11
22 36 0 18 -4 37 -8 43 -4 7 -65 14 -152 18 -314 15 -535 57 -683 129 -107 52
-150 92 -149 136 0 25 -6 34 -41 54 -23 14 -51 34 -61 46 -23 25 -32 26 -53 6
-12 -13 -28 -14 -77 -9 -33 4 -63 8 -65 11 -3 2 3 11 12 20 13 14 32 17 91 14
l75 -2 -2 53 c-2 41 1 53 13 53 8 1 14 6 12 13 -1 7 5 12 14 12 8 0 13 4 9 9
-3 5 3 12 12 16 22 7 98 99 115 136 9 21 68 58 68 43 0 -15 -72 -114 -104
-141 -43 -38 -41 -41 8 -12 60 35 119 137 140 240 5 22 11 25 38 24 18 -1 48
-9 67 -19z m733 -23 c66 -31 202 -153 180 -161 -7 -2 -24 3 -37 12 -25 16 -65
10 -80 -14 -4 -7 -15 -3 -32 10 -35 27 -61 25 -95 -7 -26 -24 -29 -25 -45 -10
-30 26 -65 29 -105 9 l-37 -19 -6 48 c-11 77 8 126 60 158 32 19 127 7 197
-26z m-3339 -216 c44 -19 47 -32 9 -51 -46 -24 -139 -36 -269 -36 -129 0 -204
12 -224 37 -18 21 0 34 78 55 89 24 346 21 406 -5z m3276 -150 c6 -8 15 -36
21 -63 6 -27 13 -61 16 -76 6 -25 4 -28 -20 -28 -37 0 -72 41 -93 107 -15 47
-15 56 -3 64 22 13 66 11 79 -4z m-4728 -71 c-6 -7 -39 -21 -74 -31 -90 -25
-287 -121 -287 -140 0 -9 11 -20 26 -25 20 -8 456 -45 598 -51 23 -1 25 -3 9
-6 -36 -7 -27 -20 20 -27 23 -3 159 -13 302 -21 143 -8 311 -20 374 -25 63 -6
115 -9 117 -7 9 8 -175 30 -396 47 -129 10 -218 18 -197 19 22 0 168 -8 325
-18 158 -11 379 -25 492 -32 249 -14 473 -36 388 -38 -31 0 -60 -5 -63 -11 -3
-6 4 -10 16 -10 12 0 218 -13 458 -30 679 -46 875 -59 1021 -65 74 -3 169 -7
210 -10 51 -4 69 -2 55 4 -11 5 -42 11 -70 12 -45 2 -46 3 -12 6 39 4 775 -45
792 -52 11 -5 -174 2 -320 11 -49 4 -87 4 -84 0 12 -13 904 -74 916 -63 2 3
-17 8 -44 12 -26 3 -55 8 -63 10 -39 9 363 -9 596 -26 453 -33 515 -28 642 59
202 137 454 300 423 274 -19 -16 -32 -34 -30 -41 3 -8 12 -5 27 9 15 15 29 19
43 15 16 -5 19 -4 14 5 -5 9 -4 11 4 6 12 -8 133 68 166 104 14 15 16 23 7 32
-6 6 -81 17 -167 24 -87 7 -160 15 -163 18 -7 8 16 7 177 -4 133 -9 181 -23
181 -53 0 -23 -625 -457 -699 -487 l-46 -18 -7 -108 c-4 -60 -10 -114 -13
-121 -2 -7 -20 -13 -39 -13 -27 0 -33 4 -31 18 2 9 6 61 9 115 l5 97 -117 0
c-64 0 -211 7 -327 15 -318 22 -977 64 -1416 90 -264 16 -1186 77 -1874 125
-1479 104 -1639 114 -2009 125 -98 3 -184 7 -190 8 -15 3 -14 -169 0 -183 6
-6 107 -22 225 -35 118 -14 223 -27 234 -29 29 -6 -228 4 -385 15 -157 11
-205 22 -224 52 -20 33 -30 251 -12 269 16 17 56 34 226 98 74 28 162 61 195
74 72 29 81 30 66 12z m3083 -212 c24 -9 20 -27 -13 -58 -28 -27 -30 -28 -107
-19 -43 4 -79 13 -81 20 -2 6 9 23 24 37 24 23 37 26 95 26 36 0 73 -3 82 -6z
m-1936 -426 c63 -31 89 -81 69 -130 -8 -19 -40 -57 -72 -85 l-57 -52 43 -11
c46 -13 96 -58 105 -96 12 -46 40 -29 64 39 13 34 43 111 68 170 41 97 48 108
67 103 12 -3 30 1 41 9 10 8 27 15 37 15 9 0 17 5 17 10 0 6 5 10 10 10 6 0
10 -9 10 -20 0 -11 4 -28 9 -38 6 -9 18 -71 28 -137 17 -110 20 -120 41 -123
15 -2 22 -11 23 -25 0 -12 9 4 19 35 36 117 113 209 203 243 88 33 171 -8 169
-85 -1 -44 -22 -101 -34 -94 -6 4 -13 1 -17 -5 -13 -21 -40 0 -47 35 -8 45
-33 45 -79 -1 -47 -47 -76 -107 -82 -169 -4 -43 -1 -56 18 -80 19 -24 27 -28
60 -23 20 3 57 18 81 34 23 17 53 35 65 42 21 11 21 10 8 -16 -18 -34 -5 -41
28 -16 22 16 28 37 51 175 28 169 40 213 56 203 6 -4 17 -2 24 4 7 6 21 9 30
5 9 -3 16 -1 16 5 0 19 15 12 26 -14 9 -18 8 -40 -2 -91 -8 -37 -13 -69 -11
-71 2 -2 42 30 88 70 99 86 142 117 161 117 8 0 23 9 33 20 10 11 22 20 28 20
5 0 -5 -16 -22 -35 -36 -41 -39 -50 -12 -35 27 14 36 13 21 -5 -6 -8 -9 -19
-5 -25 9 -14 -6 -31 -90 -103 -38 -33 -87 -75 -108 -94 l-38 -34 97 -120 c53
-66 99 -118 101 -115 2 2 -1 13 -8 23 -13 22 -4 97 12 88 5 -4 9 -1 9 5 0 7 6
10 14 7 7 -3 18 -1 23 4 5 5 14 -5 22 -26 8 -23 20 -37 37 -41 58 -15 149 22
149 61 0 12 -30 33 -95 66 -111 58 -138 81 -146 124 -11 60 38 120 138 171
119 60 228 31 228 -61 0 -29 -28 -90 -37 -81 -3 3 -12 -2 -19 -12 -8 -10 -13
-12 -14 -4 0 6 -7 12 -15 12 -10 0 -15 10 -15 30 0 37 -18 39 -80 8 -66 -34
-60 -52 34 -101 44 -23 99 -60 123 -83 35 -33 43 -47 43 -77 0 -63 -71 -124
-195 -167 -56 -19 -115 -27 -102 -13 7 6 -84 53 -92 47 -2 -1 18 -30 44 -63
25 -34 44 -61 42 -61 -2 0 -27 18 -57 40 -29 22 -56 38 -59 35 -2 -3 1 -11 7
-17 24 -24 11 -29 -19 -8 -24 18 -39 21 -77 17 -42 -5 -44 -5 -19 5 15 7 27
15 27 18 0 4 -28 36 -63 71 -35 35 -79 83 -99 107 l-35 42 -18 -87 c-10 -49
-22 -95 -27 -103 -6 -11 -7 -8 -3 8 4 12 2 22 -3 22 -10 0 -27 -37 -35 -75 -3
-11 -5 -4 -6 16 -1 39 -24 70 -35 47 -3 -7 -5 20 -3 60 l3 72 -71 -68 c-116
-113 -131 -118 -221 -75 -61 29 -87 61 -106 131 -11 38 -30 54 -42 34 -2 -4 2
-41 10 -82 17 -89 17 -89 3 -70 -8 11 -9 1 -6 -40 l5 -55 -17 38 c-9 20 -21
35 -28 33 -7 -3 -15 4 -19 16 -4 15 -8 17 -14 8 -8 -13 -10 -8 -38 100 -10 39
-12 39 -108 19 -52 -10 -52 -10 -74 -69 -12 -33 -28 -60 -35 -60 -7 0 -19 -13
-27 -30 -17 -38 -24 -38 -32 2 -6 30 -7 31 -21 12 -19 -25 -19 -10 1 56 11 38
13 55 5 58 -6 2 -8 9 -5 15 4 7 -17 -11 -47 -40 -30 -28 -84 -71 -122 -96 -37
-24 -65 -46 -62 -49 3 -3 -20 -18 -52 -34 -76 -38 -77 -38 -69 -25 4 6 1 11
-8 11 -9 0 -18 -12 -22 -27 -9 -44 -12 -50 -13 -25 -1 12 -5 22 -10 22 -12 0
-21 -37 -21 -87 0 -24 -4 -43 -10 -43 -5 0 -10 25 -10 55 0 55 -15 75 -23 33
l-4 -23 -8 23 c-8 24 -15 24 -72 6 -16 -5 -16 -4 2 11 17 13 18 17 5 25 -8 5
-18 6 -22 4 -4 -3 -8 0 -8 6 0 6 7 13 15 16 21 9 19 27 -2 20 -24 -8 14 23 54
45 27 15 29 19 31 90 1 41 5 91 8 112 5 30 3 37 -10 37 -15 0 -20 16 -17 53 1
9 -4 17 -11 17 -7 0 1 10 19 21 26 16 34 31 43 74 6 30 10 68 8 84 l-3 29 -55
-23 c-50 -21 -91 -24 -59 -4 11 7 11 11 1 21 -10 10 -23 9 -65 -6 -84 -30 -86
-29 -15 8 61 33 105 69 65 53 -25 -9 -21 8 6 25 36 24 155 69 221 84 87 20
204 12 264 -18z m-1419 -278 c12 -135 25 -297 31 -360 22 -253 29 -340 35
-450 4 -63 9 -123 12 -134 3 -10 1 -16 -4 -13 -14 9 -29 155 -67 657 -31 401
-40 557 -33 550 3 -3 15 -115 26 -250z m3899 158 c6 -40 16 -111 23 -158 10
-81 19 -100 46 -100 7 0 10 -7 7 -15 -4 -8 -2 -15 4 -15 5 0 17 21 27 48 38
100 126 195 222 239 45 21 66 24 115 21 53 -4 64 -9 85 -34 19 -23 22 -36 17
-64 -8 -47 -33 -92 -46 -84 -5 4 -14 1 -18 -6 -12 -19 -40 12 -40 44 0 73
-149 -23 -200 -130 -25 -50 -26 -121 -3 -146 24 -27 80 -23 127 10 57 39 57
52 2 52 -34 0 -46 4 -47 15 -5 70 -5 69 37 76 21 4 78 10 126 14 l86 7 -3 -34
c-2 -18 -17 -71 -33 -118 -16 -47 -38 -112 -47 -145 -14 -44 -20 -54 -25 -40
-8 23 -17 11 -36 -49 l-13 -41 0 48 c-1 46 -15 64 -24 30 -3 -10 -5 5 -6 34
l-1 51 -46 -24 c-54 -29 -70 -30 -126 -5 -70 30 -118 94 -118 157 0 19 -5 24
-25 24 -21 0 -25 -4 -20 -22 21 -93 22 -169 1 -125 -3 6 -4 -14 -1 -46 6 -61
-8 -72 -19 -16 -4 21 -10 29 -20 26 -9 -4 -17 4 -21 21 -4 15 -10 21 -12 15
-9 -26 -21 -12 -28 35 -14 100 -10 95 -79 88 -105 -12 -105 -12 -142 -90 -19
-39 -34 -63 -34 -53 0 31 -19 18 -45 -30 -23 -42 -25 -44 -21 -18 5 33 -11 70
-21 48 -2 -7 -8 -13 -13 -13 -5 0 2 26 15 57 22 54 24 80 6 69 -4 -3 -8 8 -8
24 0 17 5 30 10 30 5 0 4 6 -2 14 -13 15 4 26 38 26 16 0 41 43 139 242 2 4
-9 6 -25 3 -15 -2 -65 -9 -109 -16 l-81 -11 -15 -57 c-9 -31 -33 -128 -54
-216 -29 -119 -40 -152 -44 -130 l-5 30 -22 -36 c-12 -19 -27 -46 -33 -60 -8
-19 -9 -14 -4 27 3 33 2 54 -5 59 -6 3 -11 1 -11 -4 0 -6 -5 -11 -10 -11 -6 0
-8 17 -4 43 7 52 53 295 61 321 6 20 -1 20 -121 0 -34 -6 -38 -5 -33 9 3 9 2
19 -2 22 -11 6 -7 63 5 75 5 5 45 14 89 20 44 6 91 16 105 22 28 12 264 21
294 11 19 -5 19 -6 1 -19 -17 -13 -17 -14 0 -20 15 -6 13 -9 -11 -19 l-29 -12
38 -4 c35 -5 39 -2 58 31 17 29 27 37 52 37 47 2 97 14 97 24 0 5 4 9 9 9 4 0
13 -33 19 -72z m1097 -42 c10 -9 25 -14 35 -11 10 3 21 1 24 -4 4 -5 -13 -13
-38 -16 -25 -4 -53 -13 -63 -21 -17 -12 -16 -13 7 -14 19 0 21 -3 10 -9 -8 -5
-71 -14 -139 -20 -69 -6 -125 -13 -126 -14 -7 -17 -25 -75 -25 -81 0 -4 28 -7
63 -6 114 3 121 2 107 -15 -10 -13 -9 -15 9 -15 33 0 25 -17 -11 -25 -28 -6
-30 -8 -13 -14 18 -7 17 -8 -5 -14 -14 -3 -62 -9 -107 -13 l-81 -7 -13 -46
c-7 -25 -12 -48 -11 -49 1 -2 71 -3 155 -3 86 1 159 -3 167 -9 12 -8 9 -10
-13 -10 -16 0 -26 -4 -22 -10 3 -5 36 -11 73 -11 75 -1 68 -5 -30 -14 -65 -6
-96 -25 -41 -25 68 0 3 -9 -142 -20 -88 -7 -171 -17 -185 -23 -14 -6 -31 -9
-37 -8 -7 1 -13 -5 -13 -14 0 -8 -4 -15 -10 -15 -5 0 -10 7 -10 15 0 10 -10
15 -31 15 -23 0 -30 4 -26 14 3 8 3 17 -1 21 -4 3 -7 19 -8 35 -1 22 3 30 19
32 27 4 65 107 45 123 -20 16 -10 73 13 80 20 7 30 25 43 77 5 22 2 27 -16 30
-22 3 -34 43 -16 54 4 3 8 13 8 23 0 32 65 50 184 50 60 1 112 4 115 7 13 13
140 -3 156 -20z m-4360 -535 c26 -5 30 -10 30 -41 0 -33 -2 -35 -35 -38 -19
-2 -58 -1 -87 3 -55 7 -71 24 -58 65 5 17 15 20 63 19 31 -1 71 -4 87 -8z
m1714 -26 c33 -10 69 -31 88 -50 33 -33 34 -35 18 -64 -14 -28 -80 -73 -160
-110 -26 -13 -27 -15 -10 -18 125 -25 185 -64 185 -121 0 -31 -8 -44 -53 -87
-60 -56 -108 -82 -241 -132 -79 -29 -83 -35 -11 -17 16 4 17 3 5 -4 -8 -6 -59
-22 -112 -36 -54 -15 -106 -29 -115 -31 -10 -3 -4 1 12 9 38 19 9 20 -49 3
-31 -10 -42 -19 -52 -47 l-12 -35 -1 32 c-2 64 -50 8 -52 -60 -1 -18 -5 -43
-10 -57 -6 -16 -7 2 -3 53 4 71 3 78 -13 75 -9 -2 -20 -14 -24 -28 l-6 -25 -7
27 c-5 15 -13 25 -19 23 -7 -2 -28 -6 -47 -9 -32 -5 -33 -4 -16 9 11 8 42 14
82 14 34 0 71 4 81 9 16 9 131 44 305 93 79 22 201 70 195 76 -3 2 -22 -3 -43
-11 -22 -8 -48 -17 -59 -22 -38 -14 -50 -14 -87 1 -21 8 -38 12 -38 9 0 -4 -7
0 -17 7 -13 11 -17 11 -20 1 -3 -6 -8 -10 -12 -8 -4 3 -41 -4 -82 -14 -93 -25
-92 -25 -75 3 8 12 17 38 21 57 7 31 6 33 -8 21 -9 -7 -31 -12 -49 -11 -18 1
-38 2 -44 1 -15 -1 -24 -74 -11 -82 15 -10 0 -26 -30 -33 -94 -23 -106 -28
-92 -37 12 -8 12 -10 -1 -19 -10 -6 -11 -10 -2 -10 6 0 12 -4 12 -8 0 -4 -17
-6 -37 -4 -33 4 -35 6 -15 13 24 9 30 29 10 29 -22 1 23 22 70 34 l45 12 24
89 c12 50 25 100 29 113 5 16 2 22 -11 22 -9 0 -14 4 -11 9 4 5 0 11 -6 14
-10 3 -10 7 1 20 11 14 11 17 1 17 -20 0 -2 14 32 26 27 9 35 21 60 88 l28 79
-37 -7 c-97 -16 -118 -18 -103 -7 16 11 15 13 -15 29 -11 6 -14 12 -7 12 7 0
23 9 35 21 l22 20 -30 -7 c-25 -5 -28 -4 -18 7 7 7 59 23 115 35 90 20 125 23
273 20 126 -2 184 -8 224 -21z m866 -4 c39 4 108 8 155 7 l85 0 -50 -13 c-48
-13 -49 -13 -15 -15 29 -1 32 -3 15 -10 -29 -13 28 -12 201 1 143 11 249 5
194 -11 -24 -7 -24 -8 9 -15 l35 -8 -55 -18 c-44 -14 -49 -18 -25 -18 19 -1
26 -5 20 -10 -5 -5 -64 -15 -132 -22 l-124 -13 -19 -37 c-10 -21 -19 -41 -19
-45 0 -4 35 -4 78 0 42 3 91 2 107 -3 26 -8 27 -9 7 -10 -29 -1 -19 -21 11
-22 15 -1 11 -4 -13 -11 -46 -13 -61 -28 -29 -29 29 -2 -49 -14 -142 -24 -66
-6 -66 -7 -78 -43 -7 -20 -15 -42 -17 -49 -4 -8 45 -10 193 -8 109 2 181 1
161 -1 -70 -9 -31 -32 61 -35 20 -1 6 -5 -34 -9 -38 -4 -85 -11 -104 -15 -25
-6 -32 -5 -27 3 4 7 17 12 29 13 20 1 19 2 -6 13 -15 7 -24 16 -20 20 6 7
-129 2 -254 -8 -19 -1 -20 2 -9 47 6 26 4 27 -29 27 -19 0 -35 5 -35 10 0 6
-4 10 -8 10 -9 0 -32 -59 -32 -83 0 -9 -12 -22 -27 -29 -20 -10 -27 -20 -25
-36 3 -17 -2 -22 -19 -22 -18 0 -20 2 -8 16 10 13 10 17 0 24 -9 5 -3 11 21
19 30 10 37 19 51 65 20 63 20 66 5 66 -7 0 -14 14 -15 31 -2 26 3 32 31 44
23 10 37 25 45 46 15 42 14 59 -3 59 -8 0 -12 9 -10 26 2 22 -1 25 -24 20 -15
-3 -57 -8 -93 -12 l-67 -6 -67 -177 c-37 -97 -75 -196 -86 -221 -30 -72 -22
-21 11 69 36 98 31 112 -33 105 -23 -3 -45 -11 -49 -17 -19 -29 -40 -110 -31
-116 20 -12 22 -47 5 -96 l-17 -50 340 -1 c187 -1 352 -6 367 -10 17 -6 -131
-9 -365 -9 -422 -1 -591 -11 -821 -51 -149 -25 -257 -52 -218 -53 13 -1 125
12 250 29 285 37 601 61 662 50 25 -5 144 -7 265 -5 l220 4 -220 -13 c-284
-17 -421 -32 -575 -62 -145 -28 -137 -27 -124 -14 15 15 247 61 359 70 90 8
84 8 -60 5 -170 -4 -422 -30 -672 -71 -84 -13 -171 -24 -195 -24 l-43 1 37 19
c84 45 393 101 642 116 132 9 139 12 154 68 21 80 10 121 -16 54 -6 -17 -14
-29 -17 -26 -4 3 22 86 56 184 80 235 79 228 43 221 -16 -3 -49 -9 -74 -12
-25 -3 -58 -8 -75 -11 -28 -5 -29 -4 -12 10 17 13 17 15 2 24 -16 9 -16 11 0
36 10 15 13 26 6 26 -6 0 -11 4 -11 9 0 9 81 25 190 36 36 4 70 11 75 15 14
11 58 17 70 9 6 -3 42 -3 80 2z m1015 -19 c19 -9 37 -26 39 -37 2 -11 8 -23
14 -27 17 -11 -28 -99 -47 -92 -9 3 -17 -3 -21 -15 -3 -12 -10 -21 -15 -21 -5
0 -7 6 -4 14 7 18 -12 30 -23 14 -5 -9 -10 -1 -13 22 -5 34 -6 35 -46 33 -41
-2 -136 -42 -149 -64 -11 -18 5 -27 127 -73 145 -56 212 -90 232 -118 18 -25
21 -74 6 -83 -5 -3 -10 -15 -10 -26 0 -10 -6 -19 -12 -19 -7 0 -22 -8 -33 -16
-19 -15 -15 -15 45 -9 36 3 77 8 93 11 15 3 27 1 27 -4 0 -5 -48 -14 -108 -20
-74 -8 -124 -19 -162 -36 -30 -13 -90 -39 -133 -56 -43 -18 -75 -35 -72 -38 3
-3 -20 -16 -50 -28 -83 -34 -99 -38 -90 -24 10 17 -15 8 -154 -51 -131 -56
-164 -58 -45 -3 43 21 74 39 68 41 -5 2 -82 -21 -169 -52 -150 -52 -199 -66
-165 -46 60 35 344 126 366 117 9 -4 12 -2 8 5 -4 8 1 9 15 4 23 -7 227 61
343 114 l63 30 -53 0 c-30 1 -63 8 -77 17 -22 14 -28 13 -92 -14 -37 -16 -124
-53 -193 -83 -69 -29 -143 -64 -165 -79 -48 -32 -103 -55 -112 -47 -6 7 184
100 372 182 151 67 308 148 312 161 6 19 -24 41 -84 64 -217 79 -251 98 -267
143 -23 65 68 148 217 199 95 32 167 35 217 10z m-1480 -22 c-8 -16 -8 -20 2
-18 24 5 10 -55 -52 -224 -33 -91 -60 -169 -60 -174 0 -5 -12 -36 -26 -69 -31
-74 -24 -27 12 84 20 59 22 76 12 82 -18 12 -58 11 -58 -1 0 -5 -5 -10 -11
-10 -5 0 -7 6 -3 13 3 6 -5 0 -20 -15 -18 -19 -32 -50 -42 -97 -9 -38 -22 -78
-29 -88 -17 -22 -4 33 44 197 80 266 106 334 121 310 6 -10 15 -10 46 0 22 7
46 16 54 21 22 11 22 11 10 -11z m-2342 -153 c15 -12 16 -63 0 -73 -19 -12
-105 -8 -138 6 -25 10 -30 18 -30 45 0 17 3 35 7 38 9 10 146 -4 161 -16z
m250 -19 c20 -20 15 -68 -9 -76 l-20 -8 20 -18 c25 -23 28 -74 5 -83 -8 -3
-48 -2 -87 3 l-72 9 -3 38 c-3 34 -1 37 22 37 33 0 33 13 1 28 -20 9 -25 19
-25 47 l0 35 78 0 c47 0 83 -5 90 -12z m-250 -90 c7 -7 12 -27 12 -45 0 -37
-5 -38 -119 -27 l-61 7 0 38 0 39 78 0 c47 0 83 -5 90 -12z m4961 -63 c6 -3
11 -22 11 -41 l0 -34 -64 0 c-35 0 -78 3 -95 6 -27 6 -31 11 -31 39 0 17 3 35
8 39 8 9 155 2 171 -9z m-39 -113 c43 -7 45 -8 45 -42 0 -34 -2 -35 -40 -38
-22 -2 -64 -1 -92 3 l-53 6 0 40 0 39 48 -1 c26 0 67 -4 92 -7z m-5401 -86
c31 -33 82 -43 296 -61 99 -8 196 -19 215 -24 42 -11 287 -34 605 -57 127 -9
268 -19 315 -24 152 -13 16 -10 -212 5 -521 34 -710 45 -1015 60 l-123 6 0
-38 c0 -21 -4 -33 -8 -27 -4 6 -15 13 -24 17 -9 3 -18 18 -20 32 -2 21 -11 30
-40 40 -34 11 -37 11 -42 -9 -3 -12 -6 -37 -6 -55 0 -65 -19 -18 -21 53 -2 61
0 71 20 88 30 23 33 23 60 -6z m6661 -6 c9 -16 -12 -30 -168 -116 -97 -54
-248 -137 -334 -185 -86 -48 -184 -97 -217 -109 -61 -23 -74 -37 -80 -92 -1
-9 -4 -8 -11 2 -5 8 -10 11 -11 5 -1 -5 -4 6 -8 25 -5 31 -9 35 -33 32 -15 -2
-141 4 -280 12 -139 9 -437 27 -663 41 -559 34 -623 38 -604 42 15 4 294 -11
989 -53 238 -14 454 -13 599 3 40 4 52 3 47 -6 -9 -14 25 -7 98 20 58 22 240
128 232 136 -11 12 239 147 254 138 10 -6 126 51 165 81 19 14 19 16 3 28 -22
16 -23 27 -3 20 9 -4 20 -14 25 -24z m-1475 -10 c22 -8 26 -15 23 -42 -3 -31
-5 -33 -48 -36 -25 -1 -65 1 -90 6 -36 6 -46 12 -48 30 -7 45 3 52 72 52 36 0
77 -4 91 -10z m253 -22 c7 -7 12 -24 12 -39 0 -36 -23 -43 -111 -34 -62 6 -71
10 -79 31 -18 46 -5 54 84 54 50 0 87 -5 94 -12z"/>
<path d="M4468 2649 c-38 -19 -68 -62 -68 -96 0 -55 72 -111 105 -83 13 11 15
9 13 -11 -3 -21 1 -24 25 -22 15 1 25 -2 22 -7 -9 -15 38 -40 75 -40 19 0 57
-7 84 -15 58 -18 69 -19 61 -5 -3 6 -19 10 -36 10 -16 0 -29 4 -29 9 0 5 -8
11 -17 15 -10 3 -24 9 -32 12 -9 4 -11 2 -7 -5 4 -6 3 -11 -3 -11 -5 0 -13 5
-16 10 -3 6 -15 10 -26 10 -10 0 -19 5 -19 11 0 5 -6 7 -12 3 -9 -5 -9 -2 1 9
14 17 10 21 -21 18 -10 -1 -18 4 -18 13 0 9 -5 16 -11 16 -7 0 -9 11 -5 28 3
15 3 21 0 15 -12 -26 -22 -12 -14 18 9 29 7 32 -21 42 -38 15 -34 37 11 59 25
12 29 17 15 17 -11 0 -37 -9 -57 -20z"/>
<path d="M203 2244 c-7 -19 5 -197 15 -205 4 -4 22 -10 40 -14 l32 -7 0 89 c0
113 -5 129 -42 142 -39 14 -37 14 -45 -5z"/>
<path d="M1625 1493 c-11 -2 -29 -6 -41 -8 -21 -5 -25 -21 -50 -184 l-6 -44
62 34 c91 50 170 124 170 159 0 26 -4 29 -50 39 -28 6 -54 10 -58 10 -4 -1
-16 -3 -27 -6z"/>
<path d="M2469 1054 c-8 -3 -27 -34 -41 -70 l-26 -66 24 6 c52 13 191 67 223
87 31 19 33 22 17 31 -20 11 -171 20 -197 12z"/>
<path d="M2450 815 c-8 -2 -32 -6 -52 -10 -37 -6 -37 -6 -69 -105 -18 -55 -31
-102 -27 -105 8 -9 180 51 270 94 94 45 137 81 115 99 -24 21 -182 38 -237 27z"/>
<path d="M3518 5023 c-8 -10 -18 -36 -21 -58 -38 -274 -63 -424 -72 -434 -3
-2 -29 5 -58 17 -29 12 -73 22 -99 22 -40 0 -50 -4 -76 -35 -17 -19 -36 -51
-43 -72 -13 -43 -23 -339 -10 -308 6 14 9 2 13 -45 11 -129 75 -244 160 -288
57 -29 149 -41 226 -30 118 18 221 12 302 -17 150 -54 167 -57 279 -53 122 5
162 20 241 94 59 55 92 117 126 232 49 172 22 342 -63 398 -58 38 -201 38
-304 -1 -54 -20 -234 -38 -314 -30 -109 10 -213 34 -292 67 -67 28 -72 31 -68
56 3 15 12 68 21 117 8 50 20 129 25 177 5 47 18 112 29 144 10 32 18 60 16
61 -2 2 -10 -5 -18 -14z m-29 -739 c3 -3 5 -37 4 -75 l-2 -69 34 0 c38 0 67
-26 44 -40 -11 -7 -11 -12 -1 -22 15 -15 16 -50 0 -66 -8 -8 -8 -15 2 -26 7
-9 10 -23 6 -31 -6 -18 -53 -20 -58 -3 -3 8 -19 11 -43 10 -50 -4 -185 36
-207 60 -22 24 -22 115 0 127 10 6 11 10 3 15 -6 4 -11 16 -11 28 0 15 4 18
18 13 9 -5 32 -10 50 -13 32 -4 33 -3 21 16 -10 15 -10 24 -1 34 6 8 10 23 8
33 -2 13 4 22 18 26 21 5 105 -6 115 -17z m741 -83 c14 -27 13 -41 -5 -41 -8
0 -15 -4 -15 -9 0 -5 7 -11 15 -15 8 -3 15 -12 15 -21 0 -11 11 -15 40 -15 22
0 40 -4 40 -10 0 -5 -23 -10 -52 -10 -62 0 -56 -12 10 -20 26 -3 46 -8 45 -12
-2 -5 -3 -26 -3 -47 0 -31 -4 -41 -20 -46 -18 -6 -19 -8 -4 -23 15 -14 15 -17
-2 -29 -19 -14 -234 -19 -248 -6 -3 4 -29 6 -56 4 l-49 -2 1 80 c1 96 9 106
73 98 25 -4 45 -3 46 1 0 4 3 21 5 37 4 26 8 57 13 95 0 6 32 10 71 10 58 0
71 -3 80 -19z"/>
<path d="M2715 2803 c-42 -9 -75 -26 -75 -38 0 -8 -3 -20 -6 -29 -5 -12 0 -16
17 -16 22 0 22 0 3 -19 -10 -10 -22 -17 -25 -15 -4 2 -13 -4 -22 -14 -9 -9
-41 -31 -73 -47 -68 -36 -54 -41 41 -16 64 16 70 20 67 42 -2 23 -2 23 12 4
13 -19 14 -19 55 0 42 19 81 61 81 87 0 10 -10 13 -32 10 -18 -2 -44 1 -58 7
-21 8 -16 10 33 10 42 1 57 5 57 15 0 22 -28 30 -75 19z"/>
</g>
</svg>
