<?xml version="1.0" standalone="no"?>
<!DOCTYPE svg PUBLIC "-//W3C//DTD SVG 20010904//EN"
 "http://www.w3.org/TR/2001/REC-SVG-20010904/DTD/svg10.dtd">
<svg version="1.0" xmlns="http://www.w3.org/2000/svg"
 width="720.000000pt" height="544.000000pt" viewBox="0 0 720.000000 544.000000"
 preserveAspectRatio="xMidYMid meet">
<metadata>
Created by potrace 1.16, written by Peter Selinger 2001-2019
</metadata>
<g transform="translate(0.000000,544.000000) scale(0.100000,-0.100000)"
fill="#000000" stroke="none">
<path d="M4007 5321 c-132 -29 -213 -58 -307 -108 -140 -75 -162 -95 -117
-107 13 -3 34 -22 48 -43 20 -31 32 -40 69 -47 41 -8 50 -6 95 23 60 38 149
67 230 75 l60 5 -95 -30 c-52 -17 -113 -39 -135 -50 -22 -11 -31 -17 -20 -13
11 3 79 24 150 46 119 36 137 39 215 34 106 -6 226 -30 304 -62 65 -26 263
-167 283 -202 12 -19 10 -23 -15 -36 -26 -14 -65 -61 -131 -158 -53 -79 -27
-54 33 31 88 126 142 155 178 98 41 -63 98 -209 108 -275 18 -113 4 -171 -85
-347 -41 -82 -75 -154 -75 -159 0 -15 -96 -247 -124 -300 -14 -27 -26 -59 -26
-71 0 -29 -44 -69 -103 -94 -62 -27 -332 -40 -447 -22 -207 32 -449 144 -582
269 -33 31 -44 35 -105 39 -74 6 -153 -11 -228 -49 -60 -31 -142 -104 -171
-154 l-26 -44 -98 0 -98 0 -12 83 c-17 107 -59 271 -59 232 0 -16 6 -59 15
-95 23 -95 44 -229 44 -279 0 -53 -26 -98 -83 -143 -23 -18 -37 -26 -30 -18 6
8 12 20 12 25 1 6 6 10 11 10 6 0 10 4 11 8 1 9 -17 56 -30 77 -5 8 -13 38
-19 65 -6 28 -17 76 -25 108 -8 31 -12 57 -8 57 3 0 0 4 -8 9 -9 6 -26 1 -50
-12 -30 -18 -52 -22 -138 -22 -109 0 -112 -1 -93 -50 5 -14 14 -56 20 -93 17
-115 43 -214 57 -219 7 -3 13 -11 13 -18 0 -7 5 -15 12 -17 7 -3 8 -7 3 -10
-6 -3 -45 8 -89 25 -63 25 -83 38 -103 69 -28 42 -75 211 -93 337 -11 73 -9
225 3 237 2 3 12 2 21 -2 12 -4 16 -19 16 -55 0 -40 5 -54 32 -85 69 -79 209
-108 304 -65 56 26 120 85 128 119 3 15 33 56 67 92 139 146 163 232 87 314
-22 24 -35 69 -43 147 -5 48 -9 56 -24 52 -16 -4 -17 2 -14 54 2 32 10 103 18
158 8 55 17 138 21 186 6 82 5 86 -21 117 -20 24 -35 32 -59 32 -71 0 -106
-54 -106 -164 0 -61 3 -77 18 -85 16 -9 16 -10 0 -16 -15 -6 -18 -20 -18 -74
0 -36 4 -81 10 -100 12 -44 3 -57 -24 -34 -63 55 -87 65 -131 58 -24 -3 -54
-14 -67 -24 -13 -10 -45 -21 -73 -26 -27 -4 -60 -15 -73 -26 -14 -10 -34 -19
-44 -19 -11 0 -36 -16 -55 -35 l-36 -36 7 -77 c3 -42 20 -129 37 -192 46 -173
45 -163 10 -216 -24 -38 -31 -58 -31 -98 0 -61 20 -181 56 -335 23 -95 33
-121 60 -150 18 -20 44 -63 59 -96 28 -64 73 -118 118 -141 44 -24 128 -36
158 -24 21 9 32 7 60 -9 49 -29 143 -41 321 -41 l157 0 20 28 c17 24 31 30 88
39 37 6 71 8 76 6 4 -2 7 -15 7 -29 0 -14 7 -60 16 -102 17 -87 60 -161 110
-191 23 -14 33 -28 38 -57 3 -22 9 -49 12 -61 5 -20 2 -23 -20 -23 -14 0 -26
-4 -26 -10 0 -6 -30 -10 -71 -10 -55 0 -75 4 -84 16 -16 23 -87 24 -109 1 -21
-21 -26 -21 -53 -2 -14 10 -57 18 -118 22 l-95 6 0 44 c0 56 -22 78 -88 87
-69 9 -142 -8 -168 -40 l-20 -25 -65 25 c-169 63 -437 92 -708 76 -89 -6 -167
-12 -171 -15 -4 -3 -10 9 -14 25 -5 29 -7 30 -67 30 -60 0 -61 0 -56 -25 6
-33 -3 -37 -133 -70 -57 -14 -115 -32 -130 -40 -31 -16 -40 -11 -40 20 0 32
-20 45 -70 45 -57 0 -70 -12 -70 -67 l0 -42 -74 0 c-93 1 -133 -17 -138 -62
-3 -33 39 -15 -448 -199 -200 -76 -242 -95 -264 -119 -17 -19 -18 -33 -12
-148 8 -133 18 -166 55 -178 24 -7 20 29 76 -660 25 -302 48 -584 51 -625 l6
-76 -40 -18 c-23 -10 -51 -29 -63 -42 -19 -21 -21 -31 -17 -96 5 -62 9 -75 32
-95 52 -44 18 -41 1306 -128 1217 -83 3145 -221 3406 -245 60 -5 397 -10 748
-10 l638 0 277 161 c152 89 299 177 327 194 56 36 64 54 64 151 0 48 -3 55
-35 82 l-36 29 21 264 c12 145 34 457 50 693 l28 429 28 22 c25 20 29 31 35
101 4 44 8 120 8 170 1 82 -1 92 -21 111 -13 11 -31 23 -41 27 -10 3 -127 15
-260 26 -133 11 -275 22 -314 26 l-73 6 0 73 c0 55 -4 76 -17 86 -22 19 -171
26 -186 9 -10 -10 2 -11 55 -6 74 7 121 0 115 -18 -2 -6 -15 -12 -30 -14 -24
-3 -97 -71 -97 -91 0 -4 -19 -17 -42 -28 -64 -31 -259 -120 -288 -131 -23 -10
-23 -11 -4 -11 12 -1 34 3 50 8 16 5 50 12 76 15 37 4 46 3 42 -8 -6 -16 -151
-52 -264 -65 -225 -26 -293 -35 -282 -39 7 -2 10 -8 7 -13 -12 -18 16 -48 48
-51 17 -2 -13 -7 -68 -11 -55 -4 -136 -3 -180 2 l-80 8 110 2 c61 1 105 5 99
9 -6 4 -13 13 -15 20 -10 31 -108 51 -303 62 -297 17 -487 55 -518 104 -11 17
-6 16 62 -4 88 -26 392 -60 542 -60 110 0 304 12 428 27 38 4 42 6 25 16 -22
11 -35 27 -35 41 0 6 6 2 13 -8 11 -15 23 -17 68 -13 79 6 197 35 254 61 28
13 61 26 75 30 14 3 32 10 40 16 13 9 11 13 -10 30 l-25 20 32 -11 c67 -22 51
-3 -19 25 -75 29 -230 66 -283 66 -29 0 -64 15 -55 23 13 12 353 -45 413 -68
12 -5 17 -2 17 8 0 16 -54 35 -173 61 -34 8 -53 14 -42 15 11 0 60 -8 109 -19
97 -22 136 -25 96 -8 -41 17 -269 56 -369 64 -75 6 -97 11 -112 27 -23 25 -23
34 -4 79 24 58 35 214 19 267 -28 94 -116 155 -224 156 -49 0 -74 5 -100 22
-19 12 -69 37 -110 56 -83 37 -93 47 -131 121 -18 35 -40 60 -72 81 -25 17
-46 33 -46 36 -1 4 14 12 32 19 64 23 119 51 114 57 -3 3 18 51 48 107 68 128
107 235 103 284 -2 24 -8 36 -16 34 -24 -5 -51 18 -54 45 -2 18 -10 29 -23 32
-11 2 -23 8 -26 13 -9 15 -26 2 -59 -44 -33 -45 -31 -58 7 -58 16 0 27 -7 30
-20 3 -11 9 -20 14 -20 15 0 10 -67 -6 -80 -23 -19 -45 -4 -45 30 0 31 -7 35
-48 24 -16 -5 -31 -24 -49 -63 -31 -70 -72 -193 -82 -248 -8 -40 -7 -42 20
-52 19 -7 29 -17 29 -30 0 -18 -3 -19 -26 -11 -32 13 -86 13 -64 1 8 -5 31
-12 50 -16 63 -13 151 -99 165 -161 7 -28 6 -28 -12 6 -25 48 -129 104 -230
125 -18 4 -35 10 -37 14 -3 4 1 27 8 51 8 25 21 79 31 120 17 71 65 213 87
254 18 33 28 78 20 90 -15 25 -12 44 7 39 14 -4 20 1 23 18 2 18 11 25 33 29
23 4 32 13 40 36 21 65 58 81 96 43 14 -14 24 -18 31 -11 15 15 -1 55 -19 48
-20 -8 -53 11 -81 45 -19 24 -31 29 -67 29 -23 0 -47 6 -52 13 -6 6 -15 66
-21 132 -10 104 -16 129 -46 191 -70 140 -150 225 -305 319 -35 22 -59 41 -53
43 19 6 160 -66 221 -112 71 -55 105 -96 160 -197 52 -95 82 -181 70 -200 -10
-16 -12 -93 -3 -127 9 -31 73 -62 130 -62 37 0 47 -4 51 -20 8 -31 18 -24 34
23 17 51 16 108 -2 162 l-14 40 -88 -4 -87 -3 0 30 c0 21 6 33 18 36 27 9 122
-1 138 -15 24 -20 17 15 -17 89 -142 307 -334 492 -609 590 -186 66 -423 88
-583 53z m-1508 -845 l2 -84 -57 -7 c-69 -8 -74 -3 -74 86 0 75 11 87 86 88
l41 1 2 -84z m-171 27 c17 -34 23 -118 9 -137 -16 -21 -84 -39 -94 -23 -3 6
-8 43 -11 83 -4 70 -4 74 19 83 38 15 67 13 77 -6z m472 -265 c33 -46 40 -101
15 -134 -14 -19 -14 -19 -31 5 -15 21 -18 21 -26 7 -5 -9 -6 -21 -3 -26 14
-23 -73 8 -94 33 -14 18 -24 60 -11 52 18 -11 42 9 66 56 13 27 31 49 39 49 8
0 28 -19 45 -42z m718 -482 c34 -32 43 -46 32 -49 -8 -3 -35 -11 -60 -18 -25
-8 -48 -13 -52 -12 -12 4 -19 -36 -9 -54 6 -13 5 -24 -6 -38 -12 -15 -14 -16
-10 -3 6 18 -13 10 -100 -44 -18 -11 -33 -17 -33 -14 0 4 -14 0 -30 -9 -30
-16 -30 -16 -15 -53 12 -30 12 -33 1 -17 -8 11 -29 41 -47 67 -47 65 -125 98
-157 66 -6 -6 -15 -9 -18 -5 -11 11 36 76 89 121 93 78 163 104 285 105 l83 1
47 -44z m88 -71 c18 -14 17 -14 -12 -15 -16 0 -39 -6 -50 -14 -17 -13 -17 -18
-6 -36 10 -16 10 -20 1 -14 -9 5 -10 1 -6 -17 4 -13 7 -27 7 -31 0 -5 8 -9 18
-10 9 0 -3 -4 -28 -8 -38 -5 -41 -7 -20 -13 14 -3 46 -9 72 -12 26 -3 54 -13
62 -21 11 -10 16 -11 20 -1 3 8 12 4 26 -13 53 -64 96 -101 151 -130 35 -18
59 -38 60 -48 0 -11 2 -12 6 -4 4 10 26 11 91 6 87 -6 120 -1 197 30 l40 17
-24 -20 -25 -19 75 -6 c191 -14 234 -16 219 -6 -18 11 -8 22 26 26 25 3 26 1
21 -34 -3 -20 -9 -104 -13 -187 -7 -135 -9 -147 -20 -120 -7 17 -13 26 -14 20
0 -5 -7 -1 -15 9 -10 13 -16 48 -17 105 l-1 86 -6 -90 c-5 -63 -12 -98 -25
-118 -39 -59 -206 -162 -292 -181 -26 -6 -38 -1 -79 33 -42 34 -118 73 -187
95 -11 3 -19 16 -19 33 -1 21 -3 23 -6 7 -4 -19 -10 -20 -135 -19 l-130 2 -17
29 c-9 15 -21 34 -28 41 -6 7 -21 28 -33 48 -22 36 -34 43 -45 25 -12 -20 -23
0 -35 65 -12 63 -11 98 4 140 5 14 1 12 -14 -8 -17 -22 -25 -25 -36 -16 -11 9
-15 8 -18 -2 -13 -41 -14 -43 -15 -23 -1 31 35 137 80 233 27 59 56 101 96
142 32 32 63 59 69 59 5 0 19 -7 30 -15z m1144 -120 c14 -8 39 -14 57 -15 19
0 44 -10 61 -25 20 -17 42 -25 66 -25 20 0 36 -4 36 -9 0 -5 12 -12 28 -14 26
-4 26 -4 -5 -6 -17 0 -33 4 -35 10 -4 13 -293 19 -360 8 -21 -3 -38 -3 -38 1
0 22 109 90 145 90 11 -1 31 -7 45 -15z m-1691 -29 c61 -32 119 -119 128 -192
l5 -44 -55 0 c-66 0 -96 -8 -75 -21 7 -5 -29 -9 -88 -9 -109 0 -114 2 -114 55
0 33 -37 130 -55 145 -15 13 -21 61 -8 73 13 14 233 8 262 -7z m2210 -231
c101 -50 141 -76 91 -60 -41 13 -117 7 -156 -13 -37 -19 -125 -95 -124 -107 1
-18 -2 -25 -15 -38 -18 -19 -63 -9 -148 34 -32 17 -63 27 -68 23 -16 -9 -2 32
28 84 22 38 57 67 148 119 11 7 45 12 76 12 48 1 71 -7 168 -54z m216 -96 c68
-19 121 -64 162 -137 34 -59 38 -75 37 -132 0 -71 -20 -143 -37 -137 -5 1 -35
41 -66 87 -58 88 -107 131 -173 151 -21 7 -35 16 -32 20 9 15 -89 8 -137 -9
-25 -9 -56 -26 -70 -37 -29 -24 -79 -90 -79 -104 0 -6 -4 -11 -10 -11 -13 0
13 69 45 119 96 153 233 225 360 190z m-2590 -118 c115 -1 211 -4 214 -7 3 -3
-1 -9 -9 -14 -61 -38 -473 -7 -487 37 -3 8 7 7 34 -2 26 -9 106 -13 248 -14z
m2552 -153 c45 -16 76 -39 137 -99 81 -79 93 -102 40 -74 -37 19 -47 19 -74
-3 -23 -18 -24 -18 -42 0 -25 25 -76 23 -104 -3 l-23 -21 -27 21 c-31 24 -72
27 -100 6 -28 -21 -31 -19 -37 32 -6 57 14 115 51 143 33 27 105 26 179 -2z
m-587 -31 c10 -13 42 -36 72 -51 29 -16 54 -30 56 -31 5 -4 -60 -120 -71 -126
-7 -4 -33 -10 -59 -13 -46 -7 -48 -6 -54 21 -11 46 -23 53 -82 53 -53 0 -59
-2 -92 -39 -32 -36 -40 -40 -100 -44 -54 -5 -61 -3 -43 6 32 18 77 87 64 100
-6 6 -11 16 -11 21 0 15 49 -46 50 -61 0 -7 5 -13 10 -13 19 0 48 61 60 126
l12 63 67 4 c36 2 74 4 85 5 10 1 26 -8 36 -21z m-2782 -178 c99 -21 106 -56
14 -79 -170 -43 -442 -26 -460 28 -4 14 50 39 112 52 61 12 278 12 334 -1z
m617 -19 c-3 -5 -17 -10 -30 -10 -28 0 -41 -15 -20 -24 9 -3 15 -19 15 -40 0
-107 -177 -176 -565 -222 -148 -17 -175 -28 -175 -70 0 -18 7 -24 33 -27 17
-2 -3 -5 -45 -5 l-78 -2 0 39 0 39 -87 7 c-280 21 -411 39 -536 76 -69 20
-131 64 -142 99 -8 25 21 75 52 89 35 16 36 14 15 -16 -26 -39 -31 -55 -21
-80 25 -67 307 -132 572 -133 83 0 126 4 122 10 -3 6 1 10 9 10 9 0 16 5 16
10 0 6 -21 10 -47 10 -25 0 -44 2 -42 4 2 2 78 6 169 9 172 6 193 4 75 -9 -40
-4 -59 -10 -45 -12 23 -4 24 -5 5 -13 -35 -14 148 -10 272 6 138 18 214 37
302 77 120 53 158 101 114 140 -19 17 -8 17 -233 -17 -76 -11 -40 2 65 25 192
42 241 48 230 30z m2727 -220 c23 -99 23 -100 -10 -100 -38 0 -58 24 -83 100
-25 71 -19 82 41 78 34 -3 34 -3 52 -78z m-4758 1 c-5 -5 -40 -19 -79 -30 -97
-30 -275 -118 -275 -137 0 -8 12 -19 26 -24 23 -9 214 -26 537 -47 57 -3 93
-10 85 -14 -7 -5 -31 -6 -53 -2 -22 3 -37 3 -34 0 3 -4 37 -11 75 -16 91 -13
871 -63 893 -58 9 3 -3 5 -26 6 -23 0 -75 5 -115 11 -40 5 -154 15 -253 21
-99 7 -174 14 -167 17 16 5 723 -37 1002 -60 135 -11 141 -13 91 -20 -62 -9
-79 -18 -35 -18 16 0 153 -9 304 -20 151 -11 388 -26 525 -35 138 -8 268 -17
290 -20 22 -3 135 -9 250 -15 116 -5 251 -12 300 -16 100 -7 111 2 19 15 -106
15 2 12 291 -9 149 -11 304 -20 345 -21 41 0 107 -7 145 -14 l70 -13 -81 -1
c-44 -1 -105 3 -135 8 -54 10 -333 24 -314 16 24 -9 838 -66 920 -64 40 1 22
7 -50 18 -86 13 238 3 495 -14 372 -25 464 -28 542 -15 83 14 119 30 203 92
125 92 357 238 367 232 6 -4 8 -2 5 3 -4 6 12 23 36 37 l42 27 -35 -30 c-33
-29 -33 -42 0 -21 9 5 19 5 27 -2 10 -8 29 0 76 32 69 48 107 80 107 91 0 16
-63 28 -194 38 -80 5 -143 15 -150 21 -8 9 -6 11 9 6 11 -3 85 -10 164 -15
144 -10 191 -24 191 -55 0 -22 -624 -456 -698 -485 l-47 -19 -7 -108 c-4 -60
-10 -114 -13 -121 -2 -7 -20 -13 -39 -13 -27 0 -33 4 -31 18 2 9 6 61 9 115
l5 97 -112 0 c-61 0 -209 6 -327 15 -118 8 -289 19 -380 25 -388 25 -474 30
-635 40 -93 6 -280 17 -415 25 -135 8 -339 22 -455 30 -115 8 -316 21 -445 30
-129 8 -363 24 -520 35 -157 11 -451 31 -655 45 -509 35 -911 63 -1159 80
-169 13 -673 34 -813 35 l-33 0 1 -67 c1 -38 4 -81 8 -97 6 -26 9 -28 66 -32
33 -2 96 -9 140 -15 44 -6 125 -17 180 -24 l100 -14 -130 5 c-215 9 -408 23
-448 34 -57 17 -65 38 -69 178 -3 114 -2 124 17 135 21 13 185 77 320 126 44
16 96 36 115 44 35 15 52 14 34 -2z m5688 -1 c-12 -10 -28 -20 -34 -22 -7 -3
-8 -9 -3 -19 5 -8 8 -22 6 -32 -1 -11 13 -33 33 -53 27 -27 36 -43 36 -69 0
-19 -4 -36 -9 -39 -5 -4 -7 3 -4 14 3 13 -5 31 -24 53 l-30 34 -31 -38 c-52
-62 -196 -119 -382 -153 -67 -12 -321 -45 -351 -46 -3 0 -6 -19 -5 -42 1 -41
3 -43 36 -49 19 -4 -12 -6 -70 -7 -58 0 -97 2 -87 5 14 4 17 14 16 49 l-3 44
-75 0 c-101 0 -342 18 -411 31 -108 19 -236 52 -280 71 -24 11 -56 24 -70 30
-14 5 -47 23 -73 40 -71 46 -97 109 -60 150 24 27 33 22 22 -14 -13 -47 -12
-53 17 -87 80 -96 439 -182 764 -185 307 -2 519 10 652 38 242 49 353 112 350
198 0 17 -10 40 -21 52 -27 28 -27 39 -1 31 14 -4 20 -2 18 6 -3 12 35 26 77
27 19 1 19 0 -3 -18z m-2598 -206 c24 -9 20 -27 -13 -58 -27 -26 -31 -27 -105
-20 -91 8 -106 24 -60 61 24 19 41 23 96 23 36 0 73 -3 82 -6z m-1938 -425
c101 -50 102 -123 2 -213 -58 -53 -63 -66 -24 -66 36 0 83 -36 102 -79 30 -64
47 -55 83 44 12 33 41 104 64 158 37 88 44 98 64 94 13 -2 31 2 40 9 10 7 26
14 36 14 9 0 17 5 17 10 0 6 5 10 10 10 6 0 10 -10 10 -23 0 -13 4 -27 9 -32
4 -6 14 -50 20 -100 19 -136 28 -165 52 -165 15 0 19 -5 16 -15 -4 -8 -2 -17
2 -20 5 -2 14 17 21 43 38 152 183 279 292 256 71 -15 96 -74 68 -159 -7 -21
-16 -32 -24 -29 -8 3 -16 -2 -20 -11 -5 -15 -8 -15 -21 -1 -8 8 -18 29 -21 45
-9 42 -34 40 -79 -4 -47 -47 -76 -107 -82 -169 -4 -43 -1 -56 18 -80 19 -24
27 -28 60 -23 20 3 64 23 98 46 34 23 61 40 61 37 0 -3 -4 -16 -10 -30 -12
-32 1 -33 34 -3 22 19 28 41 51 174 28 173 38 203 66 196 11 -3 19 0 19 7 0 7
7 10 15 7 8 -4 17 -2 20 3 10 16 19 11 32 -15 9 -20 8 -40 -3 -92 -7 -37 -13
-68 -11 -69 1 -2 32 22 67 53 100 85 165 133 182 133 8 0 23 9 33 20 10 11 23
20 29 20 5 0 -4 -15 -22 -33 -36 -37 -41 -53 -13 -37 27 14 36 13 22 -4 -6 -7
-9 -20 -6 -28 5 -14 -34 -56 -115 -122 -19 -16 -54 -46 -78 -68 l-43 -39 97
-120 c53 -66 99 -118 101 -115 2 2 -1 13 -8 23 -12 20 -4 102 8 89 3 -3 12 -1
20 5 7 6 13 8 13 4 0 -4 6 -3 13 3 10 9 16 4 26 -23 8 -23 21 -37 37 -41 58
-15 149 22 149 61 0 12 -30 33 -95 66 -111 58 -138 81 -146 124 -11 60 38 120
138 171 119 60 228 31 228 -61 0 -29 -28 -90 -37 -81 -3 3 -12 -2 -19 -12 -13
-16 -13 -16 -14 0 0 11 -5 15 -15 12 -11 -5 -15 1 -15 25 0 36 -11 38 -70 15
-41 -17 -69 -50 -53 -64 4 -4 41 -25 82 -46 41 -22 94 -57 118 -80 35 -33 43
-47 43 -77 0 -41 -42 -97 -93 -124 -77 -39 -229 -82 -204 -56 7 6 -84 53 -92
47 -2 -1 18 -30 44 -63 25 -34 44 -61 42 -61 -2 0 -28 18 -57 40 -57 43 -85
53 -55 20 26 -28 13 -34 -19 -9 -22 17 -36 20 -74 16 -42 -5 -44 -5 -19 5 33
14 35 31 4 51 -12 8 -56 53 -97 100 l-75 85 -12 -41 c-7 -23 -15 -65 -19 -94
-3 -29 -11 -56 -17 -60 -6 -4 -8 2 -5 15 4 12 3 22 -2 22 -8 0 -25 -40 -33
-75 -3 -11 -5 -5 -6 15 -1 19 -6 42 -11 50 -9 13 -11 13 -21 0 -8 -11 -9 4 -6
58 l4 74 -71 -69 c-71 -68 -121 -103 -149 -103 -31 0 -106 42 -135 75 -28 31
-52 88 -52 123 0 14 -9 15 -26 4 -12 -7 -7 -65 12 -136 5 -23 4 -27 -6 -21
-10 6 -12 -3 -7 -46 5 -52 5 -53 -8 -24 -8 17 -14 36 -15 43 0 6 -4 12 -10 12
-5 0 -10 -6 -11 -12 0 -7 -7 1 -14 17 -10 22 -14 25 -15 11 0 -33 -11 -11 -29
61 -20 76 -18 76 -123 52 -45 -10 -47 -12 -68 -70 -12 -32 -28 -59 -35 -59 -7
0 -19 -13 -27 -30 -17 -38 -24 -38 -32 2 -6 30 -7 31 -21 12 -19 -25 -19 -10
1 56 11 38 13 55 5 58 -6 2 -8 9 -5 15 4 7 -17 -11 -47 -40 -30 -28 -85 -72
-124 -97 -38 -25 -63 -46 -55 -47 8 0 -16 -16 -54 -35 -76 -37 -80 -39 -71
-24 3 6 -1 10 -9 10 -9 0 -18 -12 -22 -27 -9 -44 -12 -50 -13 -25 -1 14 -6 22
-13 20 -8 -3 -15 -31 -18 -74 l-5 -69 -9 63 c-8 63 -21 80 -29 40 l-4 -23 -8
23 c-4 12 -8 22 -9 22 -1 0 -16 -4 -34 -9 -20 -6 -32 -6 -32 0 0 5 5 9 10 9 6
0 10 5 10 10 0 6 -9 10 -20 10 -23 0 -27 15 -5 24 21 8 19 29 -2 22 -24 -8 14
23 56 46 30 17 31 19 31 90 0 40 3 90 6 111 5 30 4 37 -10 37 -15 0 -21 16
-18 53 1 9 -4 17 -11 17 -6 0 2 10 20 21 26 16 34 30 42 72 17 89 19 118 7
113 -96 -38 -116 -44 -121 -36 -3 6 -1 10 4 10 6 0 11 7 11 15 0 21 -30 19
-91 -5 -72 -29 -71 -19 2 15 57 28 109 68 67 52 -26 -9 -22 8 5 25 36 24 155
69 221 84 90 20 202 13 262 -17z m-1421 -214 c9 -99 20 -236 26 -305 5 -69 16
-199 24 -290 8 -91 17 -214 20 -275 3 -60 8 -121 11 -135 3 -16 2 -21 -4 -15
-13 15 -27 161 -81 845 -15 191 -24 366 -17 360 3 -3 12 -87 21 -185z m3895
158 c0 -4 7 -57 15 -118 9 -60 18 -129 21 -152 4 -33 9 -42 27 -45 15 -2 21
-9 19 -20 -6 -36 16 -16 33 30 66 175 260 301 389 252 33 -12 58 -62 50 -97
-12 -50 -33 -83 -49 -77 -8 4 -15 1 -15 -5 0 -8 -6 -7 -20 1 -12 8 -20 24 -20
40 0 71 -119 2 -192 -111 -51 -80 -32 -181 33 -181 44 0 129 47 129 72 0 4
-20 8 -44 8 -48 0 -55 9 -48 62 4 29 13 31 170 44 l82 7 0 -36 c0 -20 -4 -38
-9 -41 -9 -6 -17 -29 -67 -191 -20 -65 -29 -84 -34 -70 -7 19 -7 19 -17 0 -6
-11 -14 -35 -18 -52 -10 -49 -23 -40 -17 12 5 45 -11 64 -22 28 -3 -10 -4 6
-2 35 2 28 2 52 1 52 -1 0 -23 -11 -49 -25 -54 -29 -71 -30 -119 -10 -74 31
-127 97 -127 160 0 20 -5 25 -23 25 -23 0 -23 -2 -16 -47 4 -27 8 -64 8 -83 0
-29 -2 -32 -10 -15 -7 14 -8 3 -5 -38 5 -59 -7 -70 -19 -17 -4 17 -11 27 -19
24 -7 -3 -18 5 -24 18 -6 13 -11 17 -11 11 -1 -7 -5 -13 -10 -13 -5 0 -12 21
-16 48 -14 100 -9 95 -84 87 -36 -3 -74 -9 -84 -11 -9 -3 -33 -36 -52 -72 -19
-37 -34 -61 -35 -54 -1 26 -21 10 -45 -35 -22 -41 -25 -43 -20 -18 5 32 -12
71 -22 48 -2 -7 -8 -13 -13 -13 -5 0 2 26 15 58 18 44 20 58 10 60 -13 3 -15
46 -2 59 4 3 2 12 -4 19 -8 10 -3 14 24 19 33 6 38 14 93 123 32 65 60 120 62
124 3 7 -25 5 -144 -14 l-71 -10 -16 -57 c-8 -31 -25 -99 -37 -151 -38 -163
-58 -229 -60 -195 -1 29 -1 29 -16 10 -9 -11 -25 -38 -36 -60 l-19 -40 5 45
c3 25 2 52 -4 60 -6 10 -10 11 -10 3 0 -7 -5 -13 -10 -13 -6 0 -8 17 -4 43 7
52 53 295 61 321 6 20 15 20 -119 -1 -30 -4 -39 -3 -34 6 4 6 2 18 -4 26 -10
12 -10 18 -1 29 9 11 9 15 -1 19 -10 4 -10 8 3 21 10 11 47 20 105 28 49 6 95
16 102 21 15 11 232 20 276 11 27 -6 28 -8 12 -19 -12 -10 -14 -15 -5 -20 8
-6 4 -12 -12 -21 -23 -13 -23 -13 16 -14 36 0 42 4 60 36 14 27 23 34 40 30
20 -5 87 13 101 27 10 9 24 9 24 0z m1098 -102 c2 -6 19 -11 38 -11 49 0 42
-18 -11 -25 -47 -8 -84 -34 -49 -36 67 -2 -173 -39 -257 -39 -4 0 -9 -12 -12
-27 -3 -16 -9 -36 -13 -46 -6 -17 -1 -19 57 -17 35 1 80 2 99 1 32 -1 33 -3
15 -13 -19 -12 -19 -12 5 -18 25 -7 25 -7 -10 -23 -26 -11 -30 -16 -15 -17 44
-3 -27 -20 -110 -26 l-83 -7 -13 -46 c-7 -25 -12 -48 -11 -50 1 -2 71 -3 155
-2 88 1 158 -3 167 -9 11 -7 7 -10 -20 -10 -66 -1 -9 -20 65 -21 70 -2 63 -4
-53 -15 -60 -5 -79 -24 -25 -24 15 0 24 -2 22 -4 -2 -2 -76 -10 -164 -16 -88
-7 -172 -18 -187 -25 -20 -10 -28 -10 -28 -2 0 17 -17 -4 -23 -28 -4 -18 -5
-18 -6 3 -1 17 -7 22 -30 22 -23 0 -30 6 -36 28 -16 57 -14 71 8 74 27 4 63
106 44 123 -19 16 -9 73 14 80 20 7 30 25 43 77 5 22 2 27 -16 30 -16 2 -22
10 -21 28 1 45 14 69 47 82 59 24 406 32 414 9z m-2639 -566 c33 -10 69 -31
88 -50 33 -33 33 -35 19 -63 -16 -31 -65 -67 -133 -96 -42 -19 -56 -36 -30
-36 33 0 119 -33 147 -56 23 -20 30 -34 30 -62 0 -31 -8 -44 -53 -87 -60 -56
-108 -82 -241 -132 -61 -22 -78 -32 -51 -27 63 9 38 -2 -67 -30 -54 -15 -106
-29 -115 -32 -10 -2 0 4 22 15 35 18 36 20 10 14 -95 -20 -109 -27 -122 -68
l-11 -40 -1 38 c-1 35 -2 36 -21 25 -11 -7 -23 -28 -26 -48 -16 -99 -23 -114
-18 -37 4 71 3 78 -13 75 -9 -2 -20 -14 -23 -28 l-6 -25 -7 28 c-8 28 -10 29
-82 10 -16 -4 -18 -3 -7 8 7 7 42 15 80 17 37 2 87 11 112 19 25 8 108 33 184
54 133 38 300 98 293 106 -2 2 -34 -8 -70 -21 -59 -21 -67 -22 -67 -8 0 14 -2
14 -9 3 -6 -10 -10 -10 -16 -1 -4 7 -17 9 -32 5 -14 -3 -31 -1 -39 5 -10 9
-35 5 -103 -14 -108 -31 -120 -32 -98 -8 8 9 18 35 22 57 4 23 3 35 -2 28 -5
-6 -31 -13 -58 -15 -47 -3 -50 -4 -56 -38 -5 -23 -3 -37 4 -43 18 -12 -17 -34
-66 -41 -47 -7 -86 -26 -54 -26 9 0 17 -4 17 -10 0 -5 -8 -6 -17 -3 -16 6 -16
5 -4 -10 12 -15 10 -17 -25 -16 -34 0 -36 2 -16 9 24 10 30 30 10 30 -22 1 23
22 70 34 l45 12 24 89 c12 50 25 100 29 113 5 17 2 22 -12 22 -16 0 -17 2 -4
10 13 8 12 10 -2 10 -21 0 -24 16 -5 23 9 4 8 8 -3 16 -13 9 -13 11 0 15 66
23 65 23 93 101 l27 78 -37 -7 c-21 -4 -56 -10 -78 -13 -37 -5 -39 -4 -21 10
19 14 19 15 -2 22 l-23 7 26 20 c32 25 27 32 -11 18 l-29 -10 24 18 c13 9 67
27 120 39 83 19 119 22 266 19 126 -2 184 -8 224 -21z m871 -4 c41 4 111 8
155 7 l80 0 -50 -13 c-43 -11 -46 -13 -20 -15 26 -1 27 -3 10 -10 -30 -13 60
-12 210 1 71 6 145 8 172 3 32 -5 40 -9 25 -12 -30 -5 -18 -22 16 -23 20 -1
13 -5 -28 -19 -42 -14 -49 -18 -27 -19 15 -1 27 -5 27 -10 0 -5 -59 -14 -130
-21 l-131 -13 -19 -38 c-11 -21 -20 -41 -20 -45 0 -3 37 -3 83 0 48 5 92 3
107 -3 25 -10 25 -10 2 -10 -29 -1 -19 -21 11 -22 20 -1 21 -2 2 -6 -11 -3
-31 -10 -45 -16 l-25 -10 25 -7 c18 -5 2 -9 -55 -14 -147 -13 -149 -14 -161
-49 -6 -18 -14 -40 -19 -49 -8 -21 -2 -21 170 -9 61 4 133 5 160 1 37 -6 42
-8 18 -9 -18 0 -33 -5 -33 -10 0 -12 36 -20 95 -22 40 -2 35 -3 -30 -9 -44 -4
-92 -11 -107 -15 -18 -5 -28 -3 -28 4 0 6 11 11 25 11 14 0 25 5 25 10 0 6
-12 10 -26 10 -15 0 -23 4 -19 11 5 7 -34 8 -134 3 l-140 -7 8 31 c11 35 6 42
-26 42 -12 0 -23 5 -23 10 0 6 -6 10 -14 10 -14 0 -36 -49 -36 -81 0 -21 -53
-52 -78 -46 -11 2 -5 7 17 13 29 8 37 17 52 59 22 62 23 79 6 72 -10 -4 -14 4
-14 24 0 16 4 29 9 29 5 0 7 4 4 9 -3 5 7 14 23 19 23 8 33 20 42 52 10 34 10
43 0 50 -8 4 -10 13 -7 19 4 6 2 11 -4 11 -6 0 -8 5 -4 11 4 8 -3 9 -22 6 -16
-3 -59 -9 -96 -12 -38 -4 -68 -8 -68 -9 0 -2 -34 -93 -76 -202 -42 -109 -80
-210 -84 -224 -7 -20 -8 -21 -9 -5 0 11 7 38 15 60 11 29 53 154 54 161 0 0
-21 0 -47 0 -62 -1 -77 -18 -108 -120 -24 -78 -45 -123 -45 -100 0 6 27 92 61
190 81 237 79 228 43 221 -16 -3 -49 -9 -74 -12 -25 -3 -58 -8 -75 -11 -28 -5
-29 -4 -12 10 18 14 18 15 -3 26 l-21 11 23 19 c19 17 21 21 8 29 -22 15 22
28 141 41 57 6 108 15 114 20 14 11 58 17 70 9 6 -3 44 -2 85 2z m1010 -19
c25 -12 36 -25 38 -45 2 -16 8 -25 14 -21 7 5 9 -2 4 -21 -10 -40 -36 -75 -51
-69 -8 3 -16 -4 -21 -18 l-7 -23 -9 24 c-7 19 -11 21 -22 11 -12 -9 -15 -6
-18 22 -4 41 -21 45 -92 23 -66 -21 -116 -58 -100 -75 6 -6 59 -29 117 -50
134 -50 221 -93 241 -122 18 -25 21 -74 6 -83 -5 -3 -10 -14 -10 -23 0 -10
-14 -23 -32 -31 -45 -20 -24 -24 68 -12 44 5 83 6 87 2 4 -4 -43 -13 -105 -19
-101 -10 -127 -17 -241 -66 -70 -29 -127 -57 -127 -62 1 -4 -31 -20 -72 -36
-83 -32 -81 -31 -73 -18 9 15 4 13 -117 -36 -159 -64 -158 -64 -158 -58 0 3
34 21 76 40 42 20 74 37 71 40 -2 2 -79 -21 -171 -52 -93 -30 -170 -53 -173
-51 -2 3 22 15 54 26 32 12 81 30 108 40 100 38 191 62 208 55 10 -3 17 -1 17
6 0 6 8 9 18 6 19 -6 180 47 317 105 l80 34 -40 3 c-22 1 -49 7 -60 11 -11 5
-28 12 -39 15 -16 6 -132 -38 -303 -115 -61 -28 -99 -41 -91 -33 4 3 105 51
224 105 244 111 304 143 304 164 0 18 -48 42 -165 84 -202 71 -239 126 -148
215 99 96 304 153 393 108z m-1500 -24 c0 -10 2 -10 8 0 6 9 12 6 21 -11 11
-20 7 -37 -24 -128 -21 -57 -57 -162 -82 -234 -25 -71 -49 -134 -53 -139 -11
-11 3 44 29 118 12 33 21 60 21 62 0 1 -14 7 -32 13 -24 8 -38 8 -60 -1 -30
-13 -30 -14 -69 -163 -7 -27 -15 -42 -17 -32 -6 28 99 386 140 476 14 33 22
41 28 31 7 -12 14 -12 42 2 41 21 48 21 48 6z m-2069 -55 c6 -6 9 -23 7 -39
-4 -35 -22 -39 -115 -29 l-63 7 0 37 c0 21 2 40 4 42 9 9 157 -8 167 -18z
m-248 -97 c4 -6 6 -24 5 -41 -3 -28 -6 -30 -48 -33 -25 -2 -63 1 -85 5 -34 8
-40 13 -43 37 -7 54 0 58 86 51 42 -4 80 -13 85 -19z m235 -12 c17 -5 22 -14
22 -40 0 -29 -5 -36 -32 -48 -25 -11 -28 -15 -12 -15 28 -1 44 -20 44 -53 0
-37 -12 -41 -101 -31 l-74 8 -3 38 -3 37 48 1 48 0 -45 17 c-41 16 -45 21 -48
55 l-3 37 68 0 c37 0 78 -3 91 -6z m235 -26 c25 -13 19 -60 -10 -73 -13 -5
-23 -12 -23 -15 0 -3 10 -10 23 -15 25 -11 36 -63 16 -76 -17 -10 -140 1 -157
14 -7 6 -12 22 -10 36 3 24 7 26 61 29 31 2 57 6 57 10 0 5 -27 14 -60 21 -58
13 -60 15 -60 46 0 17 2 34 5 37 9 8 137 -3 158 -14z m-479 -64 c11 -4 16 -19
16 -47 l0 -40 -82 7 c-44 4 -85 9 -90 12 -4 3 -8 21 -8 40 l0 34 74 0 c41 0
81 -3 90 -6z m4930 -60 c46 -7 46 -7 46 -45 l0 -39 -57 0 c-32 0 -75 3 -95 6
-35 6 -38 9 -38 39 0 17 3 35 7 38 8 9 76 9 137 1z m-4 -122 c43 -7 45 -8 45
-42 0 -42 -9 -45 -112 -35 l-73 7 0 39 0 39 48 -1 c26 0 67 -4 92 -7z m-5396
-67 c-17 -43 41 -59 291 -80 99 -8 196 -19 215 -24 19 -5 64 -12 100 -15 36
-3 121 -11 190 -17 69 -6 229 -19 355 -29 127 -10 208 -18 180 -19 -27 0 -219
10 -425 24 -335 22 -673 40 -785 40 -34 0 -40 -3 -43 -22 -5 -36 -40 -30 -50
9 -6 24 -16 34 -44 44 -34 11 -36 11 -42 -9 -3 -12 -6 -38 -6 -56 0 -63 -19
-19 -21 50 -3 76 2 86 45 105 40 17 47 17 40 -1z m6656 -26 c9 -15 1 -23 -52
-52 -35 -19 -186 -103 -336 -186 -150 -82 -300 -160 -332 -172 -33 -12 -57
-25 -54 -30 3 -5 0 -9 -5 -9 -6 0 -11 -13 -11 -30 0 -23 -4 -30 -20 -30 -16 0
-20 7 -20 33 l0 33 -277 17 c-968 59 -1174 72 -1141 75 20 2 234 -9 475 -24
423 -27 806 -35 938 -21 43 5 54 4 40 -3 -49 -25 85 4 143 31 91 41 213 119
205 132 -3 5 -1 7 5 3 5 -3 12 -3 14 2 3 7 76 51 205 123 18 10 33 13 35 8 3
-10 126 48 163 77 19 14 19 16 3 28 -22 16 -23 27 -3 20 9 -4 20 -15 25 -25z
m-1466 -12 c12 -9 17 -23 14 -42 -3 -28 -6 -30 -53 -33 -79 -4 -129 9 -133 37
-7 45 3 51 81 51 44 0 80 -5 91 -13z m244 -20 c7 -5 12 -24 10 -41 l-3 -31
-84 2 c-95 3 -118 15 -107 56 4 16 14 27 29 29 41 6 142 -4 155 -15z m-1758
-36 c19 -4 -104 -6 -275 -3 -447 6 -853 -26 -1091 -87 -76 -20 -112 -36 -58
-26 16 3 130 19 253 35 256 35 464 51 601 49 52 -1 201 -2 330 -1 l235 0 -170
-8 c-251 -13 -494 -38 -634 -65 -119 -24 -161 -26 -110 -7 44 17 248 54 342
62 75 7 62 8 -73 5 -91 -3 -176 -7 -190 -9 -14 -3 -74 -10 -135 -16 -60 -6
-195 -24 -298 -41 -104 -16 -205 -29 -225 -29 -35 1 -36 1 -17 16 69 52 428
111 815 134 162 10 646 3 700 -9z"/>
<path d="M205 2229 c-8 -34 3 -187 14 -193 3 -2 21 -7 39 -11 l32 -7 0 89 c0
113 -5 129 -42 142 -17 6 -32 11 -34 11 -1 0 -5 -14 -9 -31z"/>
<path d="M1630 1494 c-75 -13 -67 4 -97 -198 l-5 -39 62 34 c91 51 170 124
170 159 0 19 -6 30 -17 34 -32 9 -88 14 -113 10z"/>
<path d="M2469 1054 c-9 -3 -28 -34 -42 -70 l-26 -66 25 6 c52 13 191 67 223
87 22 13 30 24 24 30 -11 11 -177 21 -204 13z"/>
<path d="M2435 813 c-71 -9 -70 -7 -106 -112 -18 -55 -31 -102 -28 -105 9 -9
184 51 272 93 97 47 133 76 117 96 -21 25 -159 40 -255 28z"/>
<path d="M3469 5075 c-32 -17 -77 -81 -90 -127 -15 -57 -51 -101 -109 -135
-85 -50 -95 -58 -138 -122 -53 -80 -77 -176 -68 -279 8 -93 20 -132 56 -186
38 -56 134 -142 191 -171 41 -21 52 -35 92 -112 66 -128 87 -147 26 -24 l-52
104 7 106 c12 197 70 469 120 573 43 86 137 208 202 261 52 41 52 47 1 17
l-35 -21 -20 25 c-10 14 -37 32 -60 41 -22 9 -48 28 -57 41 -18 27 -29 29 -66
9z m-84 -255 c3 -5 -6 -32 -20 -59 -14 -28 -25 -60 -25 -71 0 -23 -51 -182
-61 -190 -21 -16 -48 -325 -30 -343 6 -6 11 -17 11 -24 0 -21 -88 43 -105 77
-19 36 -19 66 -1 73 8 3 18 35 25 84 6 43 20 113 31 157 11 43 20 94 20 113 0
28 3 34 16 29 16 -6 44 46 44 83 0 44 76 102 95 71z"/>
<path d="M3550 4613 c-14 -9 -30 -24 -37 -33 -32 -40 -84 -228 -82 -295 0 -26
2 -28 10 -10 8 17 9 17 4 -5 -39 -191 4 -316 133 -383 90 -47 118 -54 250 -67
131 -12 188 -32 316 -105 106 -62 154 -76 251 -79 60 -1 80 4 137 31 74 35
104 62 153 138 95 148 125 235 125 361 0 128 -56 175 -217 182 -51 3 -93 5
-93 7 0 1 9 28 20 60 11 32 18 60 16 62 -2 2 -12 -20 -21 -49 -10 -29 -22 -59
-28 -65 -6 -9 -43 -13 -116 -13 -89 0 -126 5 -217 31 -116 32 -283 106 -324
143 -27 24 -107 73 -154 93 -40 18 -97 16 -126 -4z m225 -286 c38 -21 40 -25
43 -75 3 -43 6 -52 21 -52 33 0 41 -21 31 -89 -5 -35 -14 -69 -19 -74 -6 -6
-11 -26 -11 -44 0 -37 -20 -44 -55 -19 -11 7 -34 17 -52 20 -41 9 -113 44
-113 55 0 5 -20 14 -45 21 -31 9 -45 18 -45 30 0 31 23 135 32 141 4 3 9 17
10 32 3 30 24 43 44 26 8 -6 14 -8 14 -3 0 5 4 3 9 -5 15 -24 44 -5 37 25 -13
51 19 54 99 11z m718 -194 l38 -6 -7 -78 c-6 -75 -6 -79 14 -79 26 0 38 18 18
26 -28 11 -17 24 20 24 l36 0 -7 -42 c-3 -24 -16 -76 -28 -115 l-21 -72 -91 5
c-49 3 -105 10 -122 16 -30 9 -33 13 -35 51 -1 37 -2 38 -5 10 -4 -31 -7 -33
-43 -33 -78 0 -84 14 -46 120 24 67 36 77 82 66 16 -4 24 -13 24 -28 0 -28 15
-13 24 23 5 25 4 26 -32 25 -20 -1 -38 4 -39 9 -1 6 16 9 40 9 46 -1 57 7 57
49 0 25 3 27 43 27 23 0 59 -3 80 -7z"/>
</g>
</svg>
