<?xml version="1.0" standalone="no"?>
<!DOCTYPE svg PUBLIC "-//W3C//DTD SVG 20010904//EN"
 "http://www.w3.org/TR/2001/REC-SVG-20010904/DTD/svg10.dtd">
<svg version="1.0" xmlns="http://www.w3.org/2000/svg"
 width="720.000000pt" height="544.000000pt" viewBox="0 0 720.000000 544.000000"
 preserveAspectRatio="xMidYMid meet">
<metadata>
Created by potrace 1.16, written by Peter Selinger 2001-2019
</metadata>
<g transform="translate(0.000000,544.000000) scale(0.100000,-0.100000)"
fill="#000000" stroke="none">
<path d="M3320 5289 c-191 -40 -363 -129 -506 -262 -123 -116 -241 -304 -203
-328 8 -5 25 -9 39 -9 41 0 55 -14 35 -34 -25 -25 -73 -21 -77 6 l-3 21 -28
-24 c-22 -19 -30 -38 -38 -88 -7 -45 -7 -67 1 -76 16 -19 10 -142 -7 -157 -8
-6 -30 -40 -50 -76 -31 -55 -37 -77 -41 -141 -7 -131 45 -281 121 -346 42 -36
151 -83 267 -114 59 -16 81 -28 105 -55 30 -33 148 -108 194 -121 27 -8 20
-16 -34 -34 -59 -20 -87 -41 -80 -60 4 -9 -5 -5 -22 10 -57 53 -102 63 -127
27 -22 -31 -30 -17 -13 24 8 18 33 46 55 62 39 27 53 46 34 46 -20 0 -91 -73
-105 -109 -16 -38 -17 -39 -55 -34 -52 7 -246 -14 -305 -33 l-49 -16 -30 36
c-33 40 -91 73 -189 107 -55 18 -84 22 -199 20 -84 0 -169 -7 -225 -18 l-90
-18 60 -3 c93 -4 102 -7 109 -47 9 -44 -1 -63 -20 -38 -13 17 -14 17 -20 -4
-5 -17 -14 -23 -34 -23 -22 0 -36 11 -65 50 -20 28 -45 55 -55 60 -19 10 -134
-1 -195 -19 -16 -5 -47 -12 -67 -16 -89 -14 -213 -102 -233 -164 -10 -31 18
-68 59 -79 24 -7 52 -6 93 4 80 19 113 17 148 -7 54 -36 160 -87 198 -94 33
-6 37 -11 37 -37 0 -40 40 -78 83 -78 18 0 38 5 44 11 8 8 28 4 75 -14 108
-44 218 -78 267 -84 36 -4 62 1 113 21 l66 27 67 -37 67 -37 195 6 c190 6 195
6 213 30 15 18 33 26 76 31 31 4 72 14 90 22 57 27 84 10 114 -72 36 -95 74
-162 127 -223 l45 -51 -42 0 c-27 0 -43 5 -46 15 -7 17 -104 22 -104 6 0 -18
-41 -23 -59 -7 -11 10 -48 17 -114 22 l-97 7 0 39 c0 62 -33 88 -112 88 -78 0
-128 -14 -148 -41 l-16 -20 -79 26 c-117 38 -191 52 -380 70 -160 15 -356 15
-467 -1 -32 -5 -37 -3 -40 18 -3 21 -9 23 -61 26 l-57 3 2 -32 c3 -32 2 -33
-57 -47 -33 -8 -97 -25 -141 -38 -101 -29 -104 -30 -104 -1 0 34 -19 47 -65
47 -54 0 -73 -16 -77 -65 l-3 -40 -72 -2 c-91 -3 -131 -21 -135 -64 -3 -29 -8
-32 -143 -83 -531 -202 -549 -210 -575 -241 -10 -12 -11 -43 -4 -153 l9 -137
32 -20 c21 -13 34 -30 37 -50 3 -16 26 -291 51 -610 25 -319 49 -610 52 -646
l6 -66 -33 -13 c-18 -7 -46 -24 -61 -38 -24 -20 -29 -31 -29 -70 0 -26 3 -64
7 -86 5 -35 11 -41 57 -62 55 -25 115 -31 761 -74 165 -11 428 -29 585 -40
157 -11 454 -31 660 -45 416 -28 1380 -97 1675 -120 105 -8 348 -26 540 -40
193 -14 400 -30 461 -35 60 -6 397 -10 748 -10 l638 0 152 89 c83 48 227 133
320 187 189 111 196 119 196 223 0 56 -2 61 -36 89 l-36 30 16 188 c20 237 31
388 61 837 l24 357 29 30 c28 28 30 34 36 142 12 202 12 206 -14 233 -30 32
-76 40 -365 60 -132 9 -258 20 -280 24 l-40 7 -3 72 -3 73 -37 16 c-44 19
-138 21 -169 5 -17 -10 -39 -8 -106 8 -46 10 -142 27 -213 36 -71 9 -138 18
-150 20 -11 2 -44 31 -73 65 l-52 62 6 91 c4 50 2 129 -4 176 -9 73 -16 92
-50 140 -27 39 -54 63 -92 84 -49 25 -61 28 -126 23 -40 -3 -73 -2 -73 2 0 14
-119 72 -224 110 l-101 37 -6 41 c-9 69 -107 172 -214 225 -149 74 -273 57
-389 -52 -43 -41 -59 -50 -78 -45 -13 3 -54 1 -92 -5 -38 -6 -71 -8 -74 -6 -3
3 35 45 84 92 l89 87 50 -2 c42 -2 58 3 100 31 28 18 69 44 91 58 52 32 131
121 155 175 29 65 42 174 30 242 -21 110 -62 168 -215 304 -56 51 -71 81 -53
109 10 17 7 29 -18 77 -18 33 -43 64 -63 76 -18 10 -43 38 -57 61 -29 49 -144
143 -258 209 -83 48 -193 87 -301 106 -97 18 -298 12 -406 -10z m313 -255 c37
-7 81 -21 98 -29 l29 -16 -26 -37 -26 -37 33 37 c32 35 36 36 67 25 67 -25
179 -114 229 -184 l48 -68 3 -95 c1 -52 3 -111 4 -130 0 -19 -4 -69 -10 -110
-6 -41 -12 -102 -13 -135 l-1 -60 -14 64 c-39 178 -132 278 -237 255 -42 -9
-166 -60 -297 -121 -135 -64 -209 -89 -317 -108 -108 -20 -248 -12 -263 14 -6
10 -10 11 -10 3 0 -9 -17 -11 -70 -6 -55 5 -74 3 -94 -9 -57 -38 -60 -164 -6
-304 32 -84 45 -106 34 -55 -3 15 12 -8 34 -50 42 -82 55 -116 53 -134 -1 -7
24 -35 55 -63 40 -36 71 -55 111 -67 67 -19 102 -14 204 31 110 50 163 59 315
52 146 -7 235 8 331 57 121 61 194 206 180 360 l-6 61 15 -60 c8 -33 22 -97
31 -142 l17 -83 -24 -25 c-13 -14 -28 -25 -32 -25 -12 0 -38 -26 -38 -37 0 -5
-15 -25 -32 -44 -18 -19 -44 -49 -58 -67 -14 -17 -33 -32 -42 -32 -9 0 -20 -4
-23 -10 -3 -5 -14 -10 -24 -10 -10 0 -24 -7 -31 -15 -7 -9 -19 -14 -25 -11
-20 7 -35 -15 -24 -35 8 -17 16 -15 92 24 65 34 101 61 177 138 86 87 97 96
118 86 12 -5 22 -13 22 -17 0 -4 -37 -43 -83 -86 -69 -66 -100 -87 -192 -131
-238 -113 -324 -136 -505 -136 -219 0 -345 46 -465 167 -109 109 -204 310
-241 503 -16 85 -15 231 2 305 5 22 2 27 -17 31 -23 4 -23 4 2 6 24 1 30 10
59 92 56 154 162 275 345 393 153 99 327 125 538 80z m870 -422 c26 -20 47
-37 47 -38 0 -1 -12 -1 -27 -1 -16 0 -22 2 -15 5 21 7 -38 42 -71 42 -56 0
-107 -92 -107 -193 0 -25 -3 -29 -11 -17 -20 28 -1 -232 22 -301 22 -67 58
-129 75 -129 6 0 31 7 57 16 31 11 51 13 63 6 15 -8 13 -12 -17 -27 -19 -10
-46 -27 -61 -38 -42 -31 -84 -14 -130 52 -54 77 -78 149 -81 239 -3 98 4 214
13 227 4 6 13 32 20 58 7 26 26 66 41 87 16 22 29 43 29 47 0 5 24 6 52 4 42
-2 63 -10 101 -39z m87 -88 c94 -80 117 -276 47 -413 -25 -50 -70 -82 -88 -64
-8 8 -8 11 2 10 8 -1 15 2 16 6 1 5 13 17 27 28 54 43 77 233 38 321 -23 54
-78 118 -101 118 -14 0 -14 2 -1 10 21 14 25 13 60 -16z m-1982 -174 c-32 -52
-33 -55 -33 -169 1 -100 5 -127 28 -194 54 -155 128 -262 195 -285 71 -23 40
-25 -38 -2 -111 33 -137 63 -188 213 -23 68 -42 139 -42 158 0 44 -10 80 -20
74 -5 -3 -11 -1 -15 5 -3 5 1 10 9 10 9 0 16 3 16 8 4 65 26 160 43 182 16 21
69 61 74 56 2 -2 -11 -27 -29 -56z m1152 -149 c0 -23 -5 -30 -27 -34 -40 -8
-87 -27 -81 -32 2 -3 28 2 58 11 58 17 70 12 70 -35 0 -18 4 -22 18 -15 9 4
35 8 57 8 36 1 40 -1 40 -24 0 -17 -7 -26 -25 -31 -23 -6 -22 -7 8 -8 17 -1
33 -5 34 -11 4 -30 0 -35 -27 -41 -29 -6 -28 -7 8 -8 52 -1 47 -29 -8 -47 -22
-8 -48 -18 -57 -24 -22 -13 -214 -60 -244 -60 -19 0 -24 5 -24 25 0 19 5 25
23 26 17 1 15 3 -8 8 -23 5 -30 12 -31 31 0 14 -6 35 -12 47 -15 26 2 39 58
45 31 3 35 0 35 -22 0 -17 -7 -26 -25 -31 -21 -6 -20 -7 12 -8 l38 -1 -8 48
c-4 26 -7 64 -7 85 0 21 -5 37 -11 37 -16 0 -25 38 -11 47 17 11 109 41 130
42 12 1 17 -7 17 -28z m-700 -154 c0 -18 4 -37 9 -42 5 -6 11 -21 13 -35 3
-23 7 -25 58 -25 49 0 55 -2 58 -22 3 -18 -2 -23 -20 -24 -19 -1 -17 -3 7 -8
24 -5 31 -12 33 -36 2 -17 9 -36 14 -43 16 -19 6 -24 -89 -37 -121 -17 -189
-18 -200 -2 -5 6 -18 39 -28 72 -10 33 -20 66 -23 73 -3 8 8 12 37 12 38 0 41
2 31 19 -16 32 -12 51 13 52 17 1 15 3 -8 8 -30 6 -42 28 -31 57 4 10 22 14
66 14 l60 0 0 -33z m1654 -276 c69 -34 180 -134 196 -177 6 -14 10 -40 10 -57
l-1 -32 -14 40 c-27 77 -67 87 -165 42 -44 -20 -148 -116 -183 -167 -17 -24
-17 -24 -1 8 8 19 14 35 12 36 -2 2 -30 15 -63 31 -33 15 -76 39 -95 54 -37
27 -90 40 -90 21 0 -6 -5 -8 -11 -4 -18 11 -1 -66 22 -98 11 -15 31 -36 46
-48 33 -26 20 -26 -17 0 -39 28 -71 98 -72 158 0 88 64 175 158 212 75 31 183
23 268 -19z m-509 -208 c-4 -10 -12 -47 -18 -83 -19 -119 17 -297 76 -383 11
-16 17 -31 13 -34 -3 -3 -11 6 -17 21 l-13 27 -21 -27 -21 -26 -42 83 c-49 99
-55 97 -11 -3 l31 -71 -29 -24 c-15 -13 -62 -57 -103 -97 -89 -88 -147 -120
-184 -106 -15 5 -26 8 -26 6 0 -2 -27 4 -60 15 -33 10 -90 21 -127 25 -38 4
-71 12 -75 18 -5 7 -8 5 -8 -5 0 -11 -10 -16 -30 -17 -16 0 -49 -10 -75 -21
-25 -11 -45 -15 -45 -10 0 16 -42 48 -62 49 -10 0 -18 -4 -18 -9 0 -5 -8 -11
-17 -13 -23 -5 -70 92 -83 171 -19 114 -22 122 -39 119 -20 -4 -27 -112 -11
-176 13 -53 68 -167 120 -251 49 -79 51 -100 6 -46 -53 62 -112 182 -135 274
-23 93 -28 228 -10 280 11 30 24 40 31 23 2 -5 15 -12 31 -16 23 -5 29 -2 39
19 16 36 56 32 71 -7 4 -13 17 -18 42 -18 37 0 43 8 23 28 -7 7 7 3 29 -8 87
-42 230 -15 350 67 45 30 92 52 138 64 l70 18 -54 -4 c-42 -4 -52 -2 -43 7 6
6 22 13 34 15 12 2 29 10 38 18 9 8 21 15 26 15 6 0 31 14 57 30 26 17 52 30
58 30 5 0 27 11 47 25 43 29 57 32 47 8z m-1999 -72 c137 -44 196 -87 228
-169 18 -47 21 -109 6 -132 -7 -12 -19 -13 -80 -2 -39 7 -76 9 -82 6 -6 -4 -8
-2 -5 3 4 7 -14 13 -48 18 l-55 6 0 66 c0 40 -6 78 -17 100 -22 47 -81 103
-115 110 -16 3 -31 10 -35 16 -10 16 132 0 203 -22z m2857 -35 c102 -37 172
-70 182 -86 8 -13 3 -13 -30 0 -18 7 -40 6 -71 -1 -58 -15 -165 -116 -195
-184 -14 -32 -24 -44 -32 -37 -7 5 -34 17 -62 27 -99 36 -145 64 -145 88 1 86
145 227 232 227 15 0 69 -15 121 -34z m-3401 -8 c9 -7 18 -22 20 -33 5 -29
-58 -55 -133 -55 -52 0 -61 3 -69 23 -7 18 -9 19 -9 3 -1 -12 -6 -16 -17 -12
-9 3 -18 6 -20 6 -2 0 -4 5 -4 10 0 9 74 48 120 63 29 10 96 7 112 -5z m1207
-99 c32 -31 50 -57 47 -66 -3 -8 -1 -11 4 -8 15 9 12 -5 -5 -21 -8 -9 -15 -24
-15 -34 0 -10 -9 -22 -21 -25 -14 -5 -19 -13 -16 -26 3 -12 0 -19 -10 -19 -8
0 -36 -7 -63 -16 -29 -9 -71 -14 -106 -12 l-59 3 -7 53 c-8 56 -36 120 -62
141 -23 19 -83 30 -95 18 -8 -8 -11 -8 -11 0 0 34 117 61 271 62 l96 1 52 -51z
m2540 -75 c36 -10 69 -30 102 -61 67 -62 89 -112 89 -200 0 -78 -8 -133 -20
-133 -9 0 -47 59 -67 103 -7 15 -16 26 -20 25 -4 -1 -34 10 -65 25 -31 15 -89
32 -129 37 -68 10 -76 9 -121 -13 -27 -13 -51 -20 -54 -16 -3 5 0 9 5 9 6 0
11 4 11 10 0 5 -7 7 -15 4 -12 -5 -15 3 -16 32 -1 33 -3 29 -13 -26 -16 -82
-48 -180 -60 -180 -13 0 1 113 25 192 48 161 190 239 348 192z m-3425 -67 c19
-26 19 -29 4 -55 -8 -15 -39 -39 -68 -54 -51 -27 -52 -28 -27 -37 14 -5 50 -7
81 -4 39 4 56 2 56 -6 0 -6 4 -11 10 -11 5 0 38 -14 72 -30 83 -40 139 -55
148 -40 4 7 16 10 26 8 36 -8 -41 -38 -96 -38 -60 0 -189 41 -240 75 -19 13
-47 28 -62 34 -17 6 -28 20 -33 40 -7 33 -29 56 -45 46 -18 -11 -11 2 21 36
69 75 116 86 153 36z m2667 -142 c24 -9 60 -31 79 -50 25 -24 69 -46 155 -78
132 -49 144 -61 101 -106 -14 -15 -34 -51 -44 -81 -18 -56 -20 -57 -99 -73
-32 -6 -33 -5 -33 26 0 45 -16 57 -74 57 -65 0 -74 -7 -82 -55 -3 -22 -8 -42
-10 -44 -1 -2 -43 -4 -93 -5 -95 -1 -131 -17 -131 -58 0 -15 -8 -18 -45 -18
-57 0 -60 20 -9 64 77 66 110 104 142 164 34 64 82 209 82 249 0 27 4 28 61 8z
m825 -134 c61 -32 173 -135 161 -147 -7 -7 -22 -1 -49 18 -14 10 -22 9 -46 -9
-28 -20 -28 -20 -52 -1 -30 24 -66 17 -98 -18 l-22 -25 -26 20 c-34 26 -74 27
-107 1 -32 -25 -36 -16 -34 75 2 62 4 69 36 97 33 29 37 30 106 26 55 -4 85
-12 131 -37z m-3351 -215 c49 -21 44 -41 -12 -60 -63 -20 -228 -39 -276 -30
l-39 6 69 24 c37 13 69 28 71 34 2 5 10 10 19 10 8 0 21 7 29 15 20 19 94 20
139 1z m-985 -64 c0 -4 -9 -13 -20 -20 -41 -26 -18 -82 48 -116 147 -76 662
-119 662 -56 0 6 -26 10 -62 10 -124 0 -48 7 127 12 167 5 174 5 95 -6 l-85
-12 40 -12 c49 -15 117 -15 243 -1 181 19 333 64 422 124 37 25 47 29 40 15
-37 -70 -228 -131 -525 -170 -191 -24 -205 -29 -205 -69 0 -28 3 -30 43 -33
26 -2 9 -5 -46 -8 l-87 -5 0 36 c0 24 -5 39 -15 43 -9 3 -75 10 -148 16 -255
20 -450 55 -526 94 -33 18 -67 55 -76 84 -5 17 1 29 24 52 28 29 51 39 51 22z
m-469 -156 c-6 -7 -39 -21 -74 -31 -34 -9 -113 -41 -174 -71 -168 -80 -155
-98 85 -115 300 -21 466 -36 417 -38 -41 -1 -47 -3 -31 -13 10 -6 145 -19 300
-29 154 -10 346 -23 426 -28 152 -12 216 -14 209 -7 -4 4 -51 10 -209 27 -56
5 -40 6 65 3 247 -7 807 -50 695 -53 -57 -1 -111 -21 -58 -21 14 0 183 -11
375 -25 387 -27 409 -29 748 -50 457 -28 571 -35 598 -35 43 0 31 18 -15 23
-92 9 177 -5 352 -18 102 -8 234 -17 294 -21 59 -4 102 -10 95 -14 -8 -4 -45
-4 -84 0 -111 12 -339 20 -280 10 68 -11 339 -31 765 -56 118 -7 143 2 48 16
-80 12 276 1 495 -16 294 -22 455 -27 540 -16 72 9 86 15 164 69 248 169 513
344 513 339 0 -3 -27 -24 -60 -46 -33 -22 -60 -45 -60 -50 0 -13 17 -13 26 1
3 6 15 9 25 6 13 -4 19 0 19 11 0 12 3 13 8 5 11 -18 192 102 192 128 0 16
-62 28 -174 35 -66 4 -131 10 -145 14 l-26 8 25 1 c14 1 85 -4 158 -9 133 -10
182 -25 182 -55 0 -22 -628 -458 -700 -485 l-45 -18 -7 -108 c-4 -60 -10 -114
-13 -121 -2 -7 -20 -13 -39 -13 -27 0 -33 4 -31 18 2 9 6 61 9 115 l5 97 -123
0 c-68 0 -179 4 -247 10 -68 5 -200 14 -294 20 -93 5 -345 21 -560 35 -214 14
-500 32 -635 40 -364 22 -2082 137 -2740 185 -572 41 -723 50 -1000 61 -157 6
-298 12 -315 13 -30 1 -30 1 -33 -59 -1 -33 1 -77 5 -99 l8 -38 60 -4 c33 -2
89 -8 125 -14 36 -6 117 -17 180 -24 l115 -15 -140 5 c-205 8 -391 22 -436 34
-21 6 -45 21 -53 33 -17 27 -29 235 -15 260 14 24 44 38 230 107 90 34 184 69
209 80 55 23 66 24 51 6z m5567 -18 c9 14 82 -41 82 -62 0 -7 16 -29 35 -50
25 -28 35 -47 34 -70 0 -26 -2 -28 -9 -11 -4 11 -18 31 -30 43 l-22 24 -42
-40 c-22 -22 -59 -49 -81 -60 -101 -50 -301 -95 -553 -123 l-103 -11 3 -42 c3
-38 5 -41 38 -47 19 -4 -28 -6 -105 -6 -77 1 -114 2 -82 4 53 4 57 6 52 26 -3
12 -7 31 -7 43 -2 19 -12 21 -197 32 -314 20 -499 53 -631 114 -128 59 -183
122 -159 179 6 16 25 39 40 50 33 23 39 11 9 -16 -29 -26 -26 -76 7 -116 57
-67 277 -141 503 -169 102 -13 223 -15 537 -12 319 4 615 74 703 166 32 35 37
89 10 116 -12 12 -27 20 -33 17 -7 -2 -23 10 -36 27 l-25 31 28 -25 c19 -17
29 -21 34 -12z m-2484 -194 c24 -9 20 -27 -13 -58 -29 -28 -32 -28 -106 -21
-89 8 -104 24 -59 61 24 19 41 23 96 24 36 0 73 -3 82 -6z m-1941 -422 c60
-27 81 -60 74 -115 -5 -36 -15 -51 -67 -99 -33 -31 -57 -58 -53 -61 4 -3 23
-8 41 -12 38 -8 89 -56 98 -92 9 -33 42 -30 50 5 4 15 10 32 14 37 4 6 11 21
15 35 4 14 28 74 53 133 41 95 49 107 68 103 11 -3 29 1 40 9 10 8 27 15 36
15 9 0 18 6 21 13 3 7 7 5 12 -8 4 -11 10 -29 15 -40 8 -20 24 -115 36 -212 6
-47 9 -53 30 -53 18 0 24 -6 25 -22 0 -13 9 3 19 34 35 112 105 199 194 239
45 20 91 25 101 9 4 -6 11 -8 16 -4 14 8 40 -16 55 -53 11 -26 11 -39 -2 -82
-10 -34 -19 -49 -28 -45 -7 3 -16 -2 -20 -12 -6 -15 -9 -14 -26 6 -11 13 -20
34 -20 47 0 35 -33 29 -75 -12 -47 -47 -76 -107 -82 -169 -4 -43 -1 -56 18
-80 19 -25 27 -28 62 -23 22 3 58 19 81 35 52 37 97 61 79 41 -14 -14 -18 -49
-5 -49 4 1 17 9 29 19 18 15 26 44 47 173 31 188 37 208 65 201 13 -3 21 -1
21 7 0 7 8 9 20 5 11 -4 20 -2 20 4 0 6 5 11 10 11 6 0 10 -9 10 -19 0 -11 4
-21 9 -23 6 -2 4 -31 -5 -72 -8 -38 -12 -71 -10 -73 2 -2 32 21 67 53 91 81
167 137 177 130 5 -3 20 6 32 19 37 39 46 29 10 -11 -17 -20 -29 -39 -25 -42
3 -3 11 0 17 6 17 17 33 15 19 -2 -6 -7 -9 -20 -6 -28 6 -15 -25 -46 -145
-148 -36 -30 -71 -60 -78 -67 -11 -11 3 -34 83 -134 54 -66 100 -118 103 -115
3 3 -1 12 -7 20 -16 19 -10 92 7 89 6 -2 12 2 12 8 0 6 6 9 14 6 7 -3 18 -1
23 4 5 5 14 -5 22 -26 8 -23 20 -37 37 -41 36 -9 94 2 124 24 45 34 33 52 -70
105 -111 56 -138 79 -146 122 -11 60 38 120 138 171 119 60 228 31 228 -61 0
-31 -27 -88 -39 -80 -5 3 -12 -3 -16 -13 -6 -16 -7 -16 -16 1 -6 9 -14 15 -20
12 -5 -4 -9 8 -9 24 0 21 -5 31 -15 31 -29 0 -96 -33 -107 -53 -13 -24 -4 -33
91 -80 90 -45 151 -106 151 -151 0 -63 -73 -125 -196 -166 -63 -21 -90 -25
-96 -12 -4 9 -98 54 -98 46 0 -3 21 -33 46 -66 48 -62 40 -64 -30 -9 -36 29
-65 36 -38 9 24 -24 11 -29 -19 -8 -24 18 -39 21 -77 17 -42 -5 -44 -5 -19 5
15 7 27 15 27 18 0 4 -24 31 -53 61 -29 30 -73 78 -99 106 l-46 53 -10 -43
c-6 -23 -13 -62 -17 -87 -4 -25 -11 -52 -17 -60 -6 -11 -7 -9 -3 8 4 12 2 22
-3 22 -10 0 -27 -37 -35 -75 -3 -11 -5 -4 -6 16 -1 35 -30 79 -32 48 0 -8 -4
-6 -8 5 -4 11 -4 40 0 65 4 25 5 48 3 50 -3 3 -33 -22 -67 -55 -81 -80 -115
-104 -142 -104 -30 0 -105 34 -134 61 -25 24 -60 94 -61 122 0 17 -25 24 -34
9 -2 -4 2 -41 10 -82 7 -40 12 -76 9 -78 -3 -3 -5 0 -5 6 0 7 -5 12 -11 12 -6
0 -8 -8 -5 -17 2 -10 7 -34 10 -53 6 -34 6 -34 -15 10 -14 31 -23 41 -28 31
-6 -9 -11 -5 -16 16 -7 25 -8 26 -15 8 -10 -25 -14 -15 -33 70 -15 67 -10 65
-113 44 -52 -10 -52 -10 -74 -69 -12 -33 -28 -60 -35 -60 -7 0 -21 -17 -31
-37 -15 -31 -19 -34 -22 -18 -7 43 -11 48 -27 35 -19 -16 -19 -6 1 60 22 75 4
84 -56 25 -25 -24 -76 -64 -113 -89 -38 -24 -67 -47 -65 -51 2 -3 -23 -19 -54
-34 -32 -15 -58 -24 -58 -19 0 21 -30 5 -36 -19 -9 -44 -12 -50 -13 -25 -1 14
-6 22 -13 20 -8 -3 -14 -29 -16 -72 -3 -80 -22 -80 -22 0 0 54 -15 74 -23 32
l-4 -23 -8 23 c-8 24 -15 24 -72 6 -17 -5 -17 -5 1 10 23 18 13 36 -17 29
l-22 -5 23 20 c26 23 29 37 6 28 -30 -11 -2 14 36 34 44 22 46 29 54 168 3 66
1 82 -10 82 -8 0 -14 7 -15 15 -4 62 -2 70 18 80 25 11 31 27 39 118 l7 69
-39 -18 c-21 -9 -52 -19 -69 -22 -27 -4 -29 -3 -16 11 23 28 -11 31 -75 8 -31
-12 -58 -20 -60 -18 -2 2 28 19 66 37 39 19 70 38 70 43 0 5 -7 7 -15 3 -8 -3
-15 -1 -15 4 0 21 175 94 263 110 76 13 188 5 240 -18z m-1418 -217 c17 -193
28 -321 45 -535 6 -74 15 -187 20 -250 5 -63 9 -142 9 -175 -1 -55 -3 -52 -14
40 -34 273 -96 1119 -81 1105 3 -3 12 -87 21 -185z m3903 93 c6 -40 16 -111
23 -158 12 -97 13 -100 39 -100 13 0 17 -5 14 -15 -4 -8 -2 -15 3 -15 5 0 22
30 38 68 55 128 199 242 307 242 66 0 96 -14 115 -55 16 -33 16 -37 -3 -82
-12 -28 -26 -47 -34 -45 -7 2 -17 -2 -21 -9 -11 -18 -39 14 -39 45 0 72 -150
-25 -200 -129 -25 -51 -26 -122 -3 -147 24 -27 80 -23 127 10 57 39 57 52 2
52 -34 0 -46 4 -47 15 -5 70 -5 70 37 76 21 4 78 10 126 14 l86 7 -3 -33 c-2
-19 -12 -59 -23 -89 -11 -30 -33 -95 -48 -145 -20 -67 -29 -84 -34 -70 -7 19
-8 18 -18 -5 -6 -14 -15 -38 -21 -55 -9 -29 -9 -28 -10 18 -1 26 -5 47 -11 47
-5 0 -10 -7 -10 -15 0 -8 -5 -15 -10 -15 -6 0 -8 11 -5 25 3 14 7 36 10 50 3
14 4 25 2 25 -2 0 -25 -11 -51 -25 -54 -29 -71 -30 -119 -10 -74 31 -127 97
-127 160 0 20 -5 25 -25 25 -21 0 -24 -4 -20 -27 19 -112 21 -133 14 -133 -4
0 -10 6 -13 13 -3 6 -4 -14 -1 -46 5 -60 -8 -72 -18 -17 -4 16 -13 30 -20 30
-8 0 -19 10 -25 23 -6 12 -11 16 -11 10 -1 -7 -5 -13 -9 -13 -5 0 -14 32 -21
70 -15 80 -16 80 -125 58 l-58 -11 -34 -71 c-19 -39 -34 -63 -34 -54 0 29 -27
10 -50 -35 -19 -39 -20 -40 -16 -12 5 33 -11 70 -21 48 -2 -7 -8 -13 -13 -13
-5 0 2 27 16 60 28 69 28 71 11 64 -10 -3 -14 4 -14 26 0 16 5 30 10 30 5 0 4
6 -3 14 -9 12 -5 16 24 21 33 7 38 13 93 124 31 64 59 119 61 123 3 7 -25 5
-145 -14 -60 -9 -72 -14 -76 -32 -5 -23 -58 -233 -87 -341 -13 -48 -19 -61
-19 -40 l-1 30 -25 -30 c-13 -16 -27 -42 -30 -57 -4 -16 -10 -28 -15 -28 -4 0
-4 18 1 41 6 25 6 46 -1 57 -5 10 -10 12 -10 5 0 -7 -4 -13 -10 -13 -14 0 12
171 55 364 3 16 -1 18 -38 12 -95 -15 -132 -18 -118 -8 11 8 12 14 4 24 -12
16 -10 65 3 78 6 6 51 16 100 22 49 6 95 16 102 21 16 13 255 19 285 8 l22 -9
-24 -9 c-22 -9 -23 -10 -5 -17 18 -7 17 -8 -6 -21 -25 -14 -25 -14 15 -15 36
0 42 4 59 35 14 26 24 34 38 29 18 -5 84 13 103 28 18 16 22 7 33 -64z m1081
-37 c5 -7 25 -13 45 -13 47 0 46 -15 -1 -23 -21 -4 -48 -12 -61 -18 -21 -10
-21 -12 -6 -17 29 -10 4 -18 -81 -24 -161 -13 -173 -16 -178 -39 -3 -12 -9
-32 -13 -45 -7 -23 -5 -23 57 -22 35 1 80 1 99 0 32 -1 33 -2 15 -12 -19 -12
-19 -12 5 -19 25 -6 25 -7 -8 -19 -22 -8 -30 -15 -22 -20 20 -12 0 -17 -96
-25 l-92 -7 -13 -46 c-7 -26 -12 -49 -11 -50 1 -2 71 -3 155 -3 86 1 159 -3
167 -9 11 -7 7 -10 -20 -10 -67 -1 -8 -20 65 -21 81 -2 71 -5 -37 -14 -76 -7
-110 -25 -46 -25 73 0 12 -9 -137 -20 -88 -7 -172 -18 -187 -25 -20 -10 -28
-10 -31 -1 -3 6 -9 0 -15 -14 -8 -18 -11 -20 -11 -7 -1 13 -10 17 -37 17 -27
0 -35 4 -31 14 3 8 3 17 -1 21 -4 3 -7 19 -8 35 -1 22 3 30 19 32 26 4 63 107
44 123 -19 16 -9 73 14 80 20 7 30 25 43 78 5 22 3 27 -13 27 -13 0 -20 9 -23
30 -3 17 -1 30 4 30 4 0 8 8 8 18 0 33 64 51 184 51 60 1 112 4 115 7 11 11
132 -2 140 -15z m-2630 -566 c33 -10 69 -31 88 -50 33 -33 34 -35 18 -65 -17
-32 -68 -69 -144 -102 l-46 -21 68 -17 c107 -27 155 -74 135 -131 -13 -36 -95
-111 -153 -139 -25 -12 -87 -37 -138 -56 -61 -23 -79 -33 -52 -28 60 9 39 -2
-50 -26 -119 -33 -123 -34 -105 -21 13 9 12 11 -5 10 -11 0 -38 -6 -60 -13
-34 -10 -41 -17 -51 -51 l-12 -40 -1 38 c-1 34 -3 37 -20 27 -14 -7 -22 -25
-26 -58 -13 -93 -25 -111 -19 -29 4 71 3 78 -13 75 -9 -2 -20 -14 -24 -28 l-6
-25 -7 26 c-7 25 -10 26 -49 18 -44 -8 -66 -2 -29 8 39 10 19 32 -31 34 l-22
0 23 9 c24 10 30 30 10 30 -22 1 23 22 71 35 42 10 46 14 54 51 5 21 18 70 29
107 l19 69 -22 19 c-17 15 -19 22 -10 33 9 11 9 15 -1 18 -6 2 6 11 28 20 37
15 42 22 67 93 l27 78 -37 -7 c-95 -16 -118 -17 -104 -8 17 12 6 32 -17 32
-11 0 -6 8 16 21 39 26 40 31 5 23 -23 -5 -26 -4 -16 7 7 7 59 23 115 35 90
20 125 23 273 20 126 -2 184 -8 224 -21z m793 -4 c2 -6 33 -6 78 -1 41 5 111
9 155 8 l80 0 -50 -13 c-48 -13 -49 -13 -15 -15 l35 -2 -35 -14 -35 -13 45 4
c249 26 480 28 400 5 -24 -7 -24 -8 9 -15 l34 -8 -54 -18 c-52 -16 -53 -17
-19 -18 69 -3 6 -20 -121 -32 l-126 -12 -16 -45 -17 -45 82 6 c46 4 94 4 108
0 l25 -7 -25 -7 -25 -6 25 -11 c14 -6 20 -11 13 -11 -6 -1 -24 -6 -40 -12 -26
-10 -26 -12 -8 -19 14 -5 -2 -9 -50 -14 -156 -15 -149 -13 -167 -64 -10 -25
-15 -48 -14 -50 2 -2 66 0 143 5 76 4 163 5 193 2 44 -5 47 -6 18 -7 -76 -4
-34 -30 52 -33 43 -2 42 -2 -15 -9 -33 -4 -80 -10 -104 -15 -32 -6 -42 -5 -37
3 4 7 16 12 27 12 11 0 17 5 14 10 -3 6 -15 10 -25 10 -10 0 -20 5 -22 11 -3
9 -38 9 -133 1 -72 -5 -132 -9 -134 -7 -2 2 1 17 7 34 12 35 8 41 -30 41 -17
0 -27 4 -23 10 3 6 0 10 -8 10 -13 0 -45 -76 -39 -93 1 -4 -11 -12 -26 -18
-23 -8 -28 -15 -25 -33 6 -27 -7 -39 -27 -25 -10 6 -11 9 -2 9 6 0 12 6 12 14
0 8 -6 16 -12 19 -7 2 3 9 22 15 30 10 38 19 50 60 18 57 18 68 3 65 -12 -3
-12 34 1 55 5 8 1 10 -11 7 -10 -3 0 3 22 13 32 15 45 29 58 62 16 40 15 42
-3 47 -16 4 -17 9 -9 30 9 24 8 25 -23 20 -18 -3 -62 -9 -98 -12 l-66 -7 -22
-56 c-13 -32 -51 -131 -85 -222 -34 -91 -63 -158 -65 -149 -1 9 7 40 19 70 12
30 25 68 29 84 4 17 11 37 14 46 5 11 2 15 -11 14 -10 0 -23 -3 -28 -6 -6 -3
-23 -5 -40 -5 -25 1 -33 -5 -47 -37 -9 -20 -20 -54 -24 -75 -7 -38 -43 -117
-44 -95 0 11 82 261 117 355 10 26 15 49 13 51 -3 3 -32 1 -65 -4 -132 -19
-141 -20 -121 -8 19 11 19 12 1 25 -18 13 -18 14 0 34 16 18 17 23 5 30 -22
14 20 26 140 40 58 6 110 15 115 20 6 4 21 10 35 13 14 2 28 5 32 6 3 0 8 -3
10 -8z m1088 -19 c22 -10 36 -26 38 -39 2 -13 8 -23 14 -23 13 0 2 -46 -18
-77 -8 -13 -20 -20 -28 -17 -9 3 -17 -3 -22 -18 l-7 -23 -9 24 c-7 19 -11 21
-22 11 -12 -9 -15 -6 -18 22 -3 32 -4 33 -46 31 -49 -2 -147 -51 -147 -73 0
-10 41 -30 120 -61 143 -54 199 -83 231 -114 27 -27 31 -70 9 -101 -8 -12 -11
-24 -8 -28 3 -3 -1 -6 -9 -6 -9 0 -21 -7 -29 -16 -11 -14 -6 -15 52 -9 35 3
74 8 87 11 12 2 22 0 22 -6 0 -5 -10 -10 -22 -11 -126 -3 -188 -18 -321 -74
-75 -32 -135 -61 -132 -63 9 -10 -109 -53 -130 -48 -11 3 -77 -19 -149 -49
-143 -60 -184 -66 -62 -9 43 19 76 38 73 41 -3 3 -79 -20 -169 -51 -90 -31
-168 -56 -173 -56 -20 0 33 29 73 39 23 7 64 21 90 33 26 12 50 21 55 20 4 -1
35 7 68 18 33 12 70 18 81 14 13 -4 18 -2 14 4 -3 6 1 8 12 5 20 -5 202 55
327 108 l80 34 -67 6 c-72 6 -91 14 -68 29 27 18 5 10 -90 -29 -151 -62 -322
-140 -360 -164 -43 -29 -99 -52 -106 -44 -6 6 147 81 381 187 269 122 310 145
299 174 -6 15 -31 27 -186 86 -58 23 -118 50 -131 61 -33 25 -43 69 -23 107
35 68 232 161 341 162 28 0 65 -8 85 -18z m-1475 -22 c-4 -12 -2 -20 5 -20 16
0 10 -23 -62 -230 -97 -279 -143 -378 -74 -158 19 59 21 75 10 85 -15 15 -54
17 -54 3 0 -5 -11 -10 -25 -10 -21 0 -26 -8 -40 -52 -17 -60 -19 -82 -5 -73
17 10 11 -4 -10 -25 -11 -11 -20 -27 -20 -35 0 -8 -5 -15 -11 -15 -6 0 -8 9
-3 23 4 12 11 36 15 52 58 226 144 470 157 448 7 -11 93 4 108 20 13 12 16 8
9 -13z m-2357 -146 c20 -4 23 -10 20 -42 l-3 -37 -59 -3 c-82 -4 -116 11 -116
53 0 17 3 34 6 37 5 6 111 0 152 -8z m250 -20 c17 -5 22 -14 22 -40 0 -28 -5
-36 -27 -45 l-28 -11 28 -14 c20 -11 27 -22 27 -45 0 -39 -15 -44 -103 -33
l-72 9 -3 38 c-3 35 -2 37 27 37 39 0 40 12 1 27 -26 10 -30 16 -30 47 l0 36
68 0 c37 0 77 -3 90 -6z m4686 -150 c46 -7 46 -7 46 -45 l0 -39 -64 0 c-35 0
-78 3 -95 6 -27 6 -31 11 -31 39 0 17 3 35 7 38 8 9 76 9 137 1z m257 -14 l59
0 0 -40 0 -40 -76 0 c-90 0 -114 10 -114 49 0 36 9 44 44 37 16 -3 55 -6 87
-6z m-218 -119 c5 -5 7 -21 5 -37 -4 -34 -27 -40 -125 -29 -63 7 -63 7 -63 39
0 18 3 36 8 40 9 10 164 -2 175 -13z m-2448 -53 c-4 -18 -13 -44 -20 -58 l-13
-26 326 -1 c180 0 350 -5 377 -10 34 -6 -51 -8 -262 -5 -328 5 -557 -6 -813
-38 -128 -16 -377 -67 -368 -75 2 -2 118 12 258 30 315 42 620 66 680 55 25
-5 155 -7 290 -5 l245 4 -235 -14 c-269 -15 -481 -37 -618 -66 -52 -10 -97
-17 -100 -14 -15 15 253 68 398 78 25 2 6 4 -43 5 -110 2 -432 -30 -690 -69
-110 -17 -213 -29 -230 -27 l-32 3 31 17 c76 41 326 88 577 108 204 17 198 14
216 83 16 60 38 81 26 25z m-2992 5 c-19 -7 -16 -26 6 -40 35 -22 97 -33 286
-48 104 -8 191 -19 194 -24 6 -8 106 -17 796 -71 127 -9 210 -18 185 -19 -25
0 -103 3 -175 9 -196 14 -932 58 -1082 64 l-133 5 -1 -42 c0 -36 -2 -39 -10
-19 -5 13 -13 20 -19 17 -6 -4 -13 7 -17 25 -6 32 -33 50 -74 50 -16 0 -19 -7
-19 -45 0 -73 -18 -51 -22 26 -2 52 1 74 11 82 17 14 62 35 76 35 6 0 4 -2 -2
-5z m6657 -34 c12 -21 25 -13 -255 -164 -99 -54 -230 -127 -292 -161 -62 -34
-139 -72 -172 -85 -33 -12 -58 -25 -55 -30 3 -5 -5 -9 -18 -9 -18 0 -20 -2 -8
-10 8 -5 11 -10 6 -10 -5 0 -17 6 -25 14 -12 9 -120 19 -406 36 -638 37 -1084
67 -1020 69 33 0 168 -6 300 -14 550 -34 785 -46 867 -43 48 1 90 -1 94 -5 4
-4 39 -6 78 -5 l71 2 -75 6 -75 6 98 4 c53 3 97 2 97 -1 0 -13 91 9 153 38 81
39 207 119 207 133 0 5 4 10 10 10 5 0 33 15 62 34 76 48 151 84 165 79 12 -4
130 54 168 83 19 14 19 16 3 28 -22 16 -23 27 -3 20 9 -4 20 -15 25 -25z
m-1467 -14 c22 -9 23 -63 1 -72 -9 -3 -50 -2 -92 3 -70 8 -77 11 -80 32 -7 49
2 55 81 49 39 -3 80 -8 90 -12z m238 -15 c27 -15 26 -66 -2 -75 -32 -10 -157
5 -170 21 -6 8 -8 25 -5 39 6 24 10 25 82 25 41 0 84 -5 95 -10z"/>
<path d="M203 2244 c-8 -21 5 -196 15 -206 4 -4 22 -11 40 -14 31 -6 32 -6 34
32 3 52 1 90 -7 141 -5 35 -11 43 -37 52 -39 14 -37 14 -45 -5z"/>
<path d="M1625 1493 c-71 -15 -62 4 -91 -196 l-6 -39 62 34 c87 46 181 136
174 165 -8 29 -81 49 -139 36z"/>
<path d="M2470 1054 c-8 -3 -27 -34 -42 -70 l-27 -66 25 6 c52 13 191 67 223
87 31 19 33 22 17 31 -20 11 -171 20 -196 12z"/>
<path d="M2450 815 c-8 -2 -32 -6 -52 -10 l-37 -6 -32 -99 c-18 -55 -30 -103
-27 -106 10 -9 216 64 289 102 75 40 104 66 96 87 -9 24 -172 45 -237 32z"/>
<path d="M2192 663 c-17 -32 -25 -96 -11 -88 7 5 10 3 7 -6 -2 -7 -36 -23 -74
-35 -38 -12 -61 -22 -51 -23 21 -1 23 -21 2 -21 -13 0 -12 -4 4 -21 27 -30 83
-28 181 4 25 8 72 23 105 32 129 35 255 78 255 86 0 5 -12 3 -26 -3 -20 -9
-30 -9 -45 0 -10 7 -28 12 -39 12 -11 0 -20 5 -20 10 0 12 -19 9 -120 -19 -77
-22 -115 -27 -94 -13 7 4 17 25 23 47 14 51 14 62 -1 47 -15 -15 -54 -16 -63
-2 -9 15 -23 12 -33 -7z"/>
</g>
</svg>
