<?xml version="1.0" standalone="no"?>
<!DOCTYPE svg PUBLIC "-//W3C//DTD SVG 20010904//EN"
 "http://www.w3.org/TR/2001/REC-SVG-20010904/DTD/svg10.dtd">
<svg version="1.0" xmlns="http://www.w3.org/2000/svg"
 width="720.000000pt" height="544.000000pt" viewBox="0 0 720.000000 544.000000"
 preserveAspectRatio="xMidYMid meet">
<metadata>
Created by potrace 1.16, written by Peter Selinger 2001-2019
</metadata>
<g transform="translate(0.000000,544.000000) scale(0.100000,-0.100000)"
fill="#000000" stroke="none">
<path d="M3445 5365 c-227 -43 -418 -141 -567 -292 -91 -93 -168 -207 -168
-249 0 -25 -9 -42 -34 -67 -28 -28 -36 -45 -41 -92 -4 -32 -3 -66 2 -78 6 -12
7 -31 2 -42 -4 -11 -8 -34 -8 -51 -1 -22 -15 -48 -46 -86 -59 -72 -80 -150
-72 -267 8 -108 45 -191 119 -264 61 -60 144 -97 298 -131 14 -4 42 -26 63
-51 l39 -45 -46 -20 c-25 -11 -58 -37 -75 -57 l-30 -36 -108 21 c-59 12 -143
25 -185 28 -78 7 -78 7 -78 36 0 36 -58 161 -136 293 -86 144 -89 153 -70 209
25 74 21 134 -13 188 -16 25 -39 49 -50 53 -22 7 -44 41 -54 86 -4 14 -20 43
-37 64 -16 21 -30 45 -30 54 0 9 -12 41 -26 71 -14 30 -37 91 -51 135 -25 78
-69 172 -96 208 -19 23 -78 22 -108 -2 -21 -17 -24 -27 -23 -93 1 -91 21 -136
66 -145 29 -6 30 -7 10 -14 -20 -8 -21 -10 -8 -51 7 -24 19 -60 26 -80 17 -46
11 -54 -29 -34 -24 13 -40 14 -72 7 -22 -5 -42 -11 -43 -13 -1 -1 -10 -14 -19
-28 -11 -15 -33 -28 -60 -35 -36 -9 -45 -17 -65 -55 -14 -28 -35 -51 -56 -62
-41 -21 -66 -54 -66 -85 0 -27 71 -173 94 -192 8 -7 35 -45 60 -84 24 -40 58
-80 75 -90 29 -17 31 -22 31 -80 0 -51 8 -80 46 -167 68 -158 162 -318 200
-344 18 -11 43 -38 56 -59 41 -69 55 -82 113 -112 49 -24 68 -28 130 -27 55 1
74 -2 79 -13 2 -8 16 -21 29 -29 36 -24 280 -67 377 -67 47 0 114 0 150 0 36
0 81 5 100 11 26 8 48 7 84 -2 49 -13 49 -13 71 -78 49 -146 120 -250 183
-270 47 -15 54 -22 46 -43 -9 -24 -141 -25 -159 -1 -16 23 -87 24 -109 1 -21
-21 -26 -21 -53 -2 -14 10 -57 18 -118 22 l-95 6 0 39 c0 60 -13 75 -75 88
-86 18 -182 -7 -197 -51 -3 -8 -24 -4 -68 14 -36 14 -114 36 -175 48 -97 20
-142 22 -380 23 -148 1 -286 -1 -305 -4 -30 -4 -35 -2 -40 20 -5 22 -12 25
-58 28 -41 2 -54 -1 -58 -13 -9 -23 -2 -26 37 -18 33 7 33 7 9 14 -22 6 -20 7
12 8 51 1 41 -24 -13 -33 -22 -4 -48 -11 -57 -16 -14 -8 -102 -33 -270 -77
-18 -4 -22 -1 -22 19 0 35 -18 48 -70 48 -57 0 -70 -12 -70 -66 l0 -43 -73 1
c-93 1 -134 -18 -139 -64 -2 -25 -9 -33 -33 -41 -16 -5 -111 -41 -210 -79
-519 -199 -485 -180 -484 -272 0 -34 4 -96 8 -140 6 -67 10 -81 31 -97 14 -11
31 -24 38 -29 6 -6 12 -32 12 -58 0 -26 20 -292 45 -592 25 -300 48 -579 51
-620 l6 -76 -40 -18 c-23 -10 -51 -29 -63 -42 -19 -21 -21 -31 -17 -96 5 -62
9 -75 32 -95 48 -41 88 -46 786 -93 794 -53 1798 -123 2105 -145 1073 -79
1315 -97 1560 -117 230 -19 360 -22 878 -25 l607 -4 0 36 c0 36 -15 48 -23 17
-3 -9 -5 1 -6 24 l-1 40 -202 13 c-112 6 -275 16 -363 21 -625 38 -834 51
-860 54 -45 7 219 -3 400 -14 680 -41 784 -44 1030 -25 44 4 55 2 40 -5 -49
-24 74 4 133 31 91 41 213 119 205 132 -3 5 -1 7 5 3 5 -3 12 -3 14 2 1 4 41
30 88 56 166 95 167 96 155 75 -9 -14 60 16 123 54 57 34 61 41 35 56 -10 5
-15 12 -11 16 3 4 16 -3 28 -15 12 -12 18 -26 14 -30 -5 -5 -119 -69 -254
-143 -135 -73 -281 -154 -325 -179 -44 -25 -102 -53 -130 -63 -68 -25 -80 -40
-84 -102 l-2 -53 75 0 c76 0 76 0 199 70 339 195 523 309 534 331 7 13 13 54
13 91 0 64 -1 68 -35 96 l-36 29 21 259 c11 142 34 454 49 693 l29 434 28 22
c25 20 29 31 35 101 4 44 8 120 8 170 1 141 2 141 -370 170 -162 13 -220 14
-235 6 -14 -8 -15 -12 -4 -12 8 -1 -7 -7 -35 -15 -27 -7 -72 -23 -100 -35 -49
-21 -50 -22 -29 -38 27 -21 44 -54 44 -84 l0 -23 -13 25 c-7 14 -22 29 -35 35
-12 5 -22 13 -22 17 0 4 -19 -12 -42 -35 -73 -72 -257 -131 -508 -162 -69 -8
-146 -18 -171 -21 l-46 -5 1 -42 c1 -40 3 -42 36 -48 19 -4 -14 -6 -75 -6 -60
0 -100 2 -87 4 20 4 23 10 21 47 l-3 43 -170 7 c-94 4 -241 17 -326 29 -85 11
-179 21 -207 22 -29 0 -53 4 -53 8 0 16 -25 33 -83 56 -73 30 -140 81 -156
119 -11 26 -9 36 23 99 20 39 39 84 42 101 6 27 3 32 -31 48 -30 14 -34 19
-21 26 23 13 136 12 150 -2 17 -17 -12 -30 -41 -19 -37 14 -52 10 -18 -5 28
-12 29 -13 9 -20 -12 -4 -24 -17 -27 -29 -2 -12 -8 -30 -12 -39 -5 -13 -2 -15
17 -11 21 5 21 3 -9 -29 -113 -118 64 -232 462 -298 144 -23 302 -28 610 -18
307 9 549 67 638 152 23 23 25 30 16 47 -11 22 -11 22 -84 -28 -30 -20 -40
-15 -14 8 21 18 22 19 4 15 -89 -24 -595 -52 -603 -33 -2 4 -8 7 -13 7 -6 0
-7 -4 -4 -10 3 -6 -5 -10 -19 -10 -14 0 -28 -4 -31 -10 -3 -5 -2 -10 3 -10 6
0 13 -11 16 -25 4 -14 13 -25 20 -25 8 0 16 -7 20 -15 3 -9 19 -16 38 -17 18
0 -5 -4 -52 -8 -47 -3 -128 -3 -180 0 l-95 7 108 1 c98 2 106 3 98 19 -27 54
-51 105 -51 109 0 2 32 4 70 4 81 0 244 16 310 30 25 6 54 11 65 13 11 2 45
10 75 19 30 9 76 21 101 26 25 6 75 22 110 35 l64 25 -27 12 c-16 7 -28 17
-28 22 0 5 9 4 21 -3 32 -17 84 -3 98 27 11 26 6 74 -9 74 -5 0 -21 5 -37 12
l-28 11 35 7 c19 3 40 2 47 -3 6 -5 20 -8 30 -7 37 4 53 -1 73 -22 15 -16 20
-18 20 -6 0 50 -144 83 -209 48 -10 -5 -40 -3 -76 6 -78 18 -307 51 -415 59
-237 19 -684 -2 -842 -39 l-58 -13 0 32 c0 44 -21 59 -81 57 -62 -1 -69 -6
-69 -45 0 -55 -11 -62 -89 -58 -94 4 -140 -12 -148 -50 -5 -28 -8 -29 -59 -29
-30 0 -54 2 -54 5 0 22 29 55 68 75 26 14 63 47 85 75 50 64 133 232 142 286
l7 42 77 -7 c57 -5 85 -13 112 -32 65 -45 108 -49 464 -40 170 4 266 23 330
66 40 27 53 26 151 -15 46 -19 100 -35 120 -35 73 0 106 78 70 165 -19 44 -28
45 -15 3 13 -45 12 -108 -1 -88 -5 8 -10 29 -10 47 0 17 -5 35 -11 39 -6 3 -8
15 -6 25 6 23 -74 97 -156 144 -28 17 -73 52 -100 77 -62 60 -140 96 -235 109
-42 6 -80 13 -83 15 -4 2 -34 -4 -68 -15 -53 -16 -66 -17 -98 -6 -21 7 -64 16
-96 20 -54 7 -60 10 -84 49 -64 101 -171 175 -288 199 -119 24 -217 1 -295
-69 l-42 -38 -83 3 c-58 2 -94 -2 -117 -12 -32 -15 -127 -33 -117 -23 3 3 31
23 61 43 76 51 191 146 217 179 19 24 25 26 73 21 42 -4 61 0 92 17 21 11 68
37 104 56 78 41 164 136 184 202 8 25 13 93 13 163 0 165 -20 210 -153 334
l-94 90 6 44 c6 37 2 54 -20 98 -15 31 -40 63 -58 74 -17 11 -39 36 -48 54
-42 85 -211 219 -347 276 -136 57 -230 77 -391 81 -100 2 -170 -1 -225 -11z
m265 -256 c175 -28 349 -135 443 -273 39 -58 40 -61 38 -143 0 -46 4 -93 10
-104 8 -15 6 -39 -6 -91 -28 -123 -30 -247 -6 -384 12 -67 21 -146 21 -176 0
-51 -3 -57 -39 -91 -25 -23 -41 -32 -44 -24 -3 7 -6 2 -6 -9 -1 -31 -41 -42
-41 -12 0 5 4 7 9 4 5 -3 11 3 14 15 4 16 3 18 -8 9 -19 -15 -58 -83 -43 -74
6 4 8 3 4 -4 -3 -6 -21 -14 -39 -17 -17 -4 -51 -20 -73 -35 -23 -15 -56 -31
-74 -35 -21 -5 -30 -11 -26 -21 3 -8 1 -14 -4 -14 -4 0 -22 28 -39 62 -17 33
-31 55 -31 47 0 -11 32 -83 68 -151 1 -3 -48 -18 -110 -33 -313 -75 -628 7
-760 198 -54 79 -141 278 -157 357 -40 205 -34 343 19 487 48 131 61 156 110
218 70 87 87 101 248 211 60 41 201 86 292 93 91 7 129 6 230 -10z m893 -461
c20 -16 37 -32 37 -34 0 -2 -11 -4 -24 -4 -15 0 -26 7 -29 20 -7 29 -58 26
-95 -5 -34 -28 -66 -90 -56 -106 3 -6 -1 -37 -11 -69 -15 -51 -16 -71 -7 -162
12 -109 57 -267 79 -275 7 -3 32 4 55 15 30 16 46 18 60 11 10 -5 24 -7 31 -3
9 6 9 4 -1 -8 -20 -25 -111 -68 -143 -68 -36 0 -68 33 -104 109 -38 78 -52
154 -54 284 -2 94 1 122 16 149 9 18 16 36 15 41 -1 4 2 7 7 7 5 0 12 12 15
26 4 15 21 44 38 65 46 57 103 59 171 7z m97 -96 c44 -44 74 -156 67 -246 -9
-96 -32 -170 -67 -209 -33 -37 -52 -30 -22 8 39 50 63 133 63 220 1 94 -20
151 -73 208 -19 20 -33 39 -30 42 12 12 35 3 62 -23z m-2839 -62 c48 -97 47
-101 -24 -132 -34 -15 -65 -23 -69 -19 -5 4 -11 41 -14 83 -7 73 -6 77 20 103
14 14 34 25 43 23 10 -2 30 -28 44 -58z m828 -37 c-21 -34 -24 -52 -27 -163
-4 -144 8 -208 63 -323 37 -78 95 -153 129 -168 14 -5 6 -6 -24 -2 -98 13
-135 52 -181 193 -32 99 -34 113 -34 245 0 159 15 218 62 247 15 9 29 15 32
13 2 -2 -7 -21 -20 -42z m-968 15 c0 -2 6 -38 13 -80 l12 -77 -38 -16 c-21 -8
-43 -15 -48 -15 -5 0 -16 22 -24 50 -23 78 1 140 55 140 16 0 29 -1 30 -2z
m501 -124 c59 -30 96 -124 48 -124 -11 0 -20 -7 -20 -15 0 -39 -80 -46 -114
-10 -13 14 -30 25 -37 26 -8 0 -2 5 12 10 23 9 31 6 58 -21 32 -33 54 -35 59
-7 2 10 -12 24 -36 38 -35 20 -41 29 -46 67 -3 24 -3 48 0 53 6 11 34 4 76
-17z m141 -446 c133 -240 130 -234 124 -300 -6 -65 -33 -127 -78 -178 -25 -28
-28 -29 -15 -8 20 34 20 36 -1 34 -10 0 -23 12 -31 29 -8 17 -27 44 -43 60
-21 22 -27 37 -22 53 4 16 -3 34 -24 60 -43 53 -56 81 -50 108 2 13 3 24 1 24
-2 0 -30 -14 -61 -30 -38 -20 -86 -34 -140 -42 -46 -7 -83 -16 -83 -20 0 -4 8
-8 19 -8 11 0 25 -13 35 -32 10 -18 30 -53 46 -78 16 -25 49 -83 72 -129 24
-46 54 -95 66 -109 l24 -25 -69 7 c-99 10 -127 33 -199 164 -123 226 -162 324
-146 370 l9 27 20 -40 c57 -111 178 -136 312 -65 94 51 141 123 141 220 0 33
2 60 4 60 2 0 42 -69 89 -152z m1883 -38 c8 0 14 -4 14 -9 0 -13 -92 -94 -156
-136 -61 -41 -216 -115 -239 -115 -30 0 -14 16 35 33 57 20 182 111 266 194
32 31 60 51 62 45 2 -7 10 -12 18 -12z m442 -95 c106 -25 192 -78 244 -149 15
-21 28 -47 28 -57 0 -14 -6 -12 -31 12 -27 25 -39 29 -89 29 -102 0 -182 -53
-247 -165 -17 -28 -38 -51 -49 -53 -18 -3 -18 -2 -1 8 15 10 47 60 47 74 0 7
-81 46 -95 46 -7 0 -24 11 -39 25 -28 26 -78 33 -105 16 -30 -19 22 -105 84
-139 12 -7 15 -12 6 -12 -24 0 -77 47 -96 86 -26 55 -6 146 48 212 19 24 94
63 138 71 65 13 87 12 157 -4z m-1566 -170 l83 -44 -36 -15 c-20 -8 -54 -17
-75 -19 -34 -4 -39 -8 -37 -28 3 -23 2 -23 -14 3 -22 35 -64 52 -108 45 -32
-5 -34 -4 -25 13 13 24 101 88 123 89 4 1 44 -19 89 -44z m1149 -47 c-24 -57
-26 -75 -25 -188 0 -107 4 -136 26 -198 13 -40 20 -68 14 -62 -14 14 -46 13
-46 -2 0 -22 -17 5 -39 62 -23 58 -21 37 4 -43 8 -26 10 -45 5 -42 -6 4 -10
-1 -10 -9 0 -8 -8 -17 -17 -20 -10 -4 -33 -19 -50 -34 -18 -15 -47 -38 -64
-52 -17 -14 -37 -30 -43 -36 -18 -17 -73 -44 -90 -44 -8 0 -16 -5 -18 -12 -3
-8 -31 0 -90 25 -58 25 -108 39 -157 43 -55 5 -71 10 -72 23 -1 13 -2 13 -6
-1 -3 -12 -15 -18 -36 -18 -18 -1 -49 -7 -70 -15 -39 -13 -39 -13 -74 26 -40
44 -59 49 -68 18 -4 -11 -14 -19 -22 -17 -20 4 -61 106 -67 166 -6 58 -16 92
-27 92 -5 0 -9 8 -9 18 -1 16 -2 15 -11 -2 -16 -26 -13 -134 4 -192 15 -52 57
-143 107 -234 16 -30 30 -59 30 -64 0 -20 -44 32 -76 90 -99 178 -119 394 -50
559 16 38 27 47 19 15 -4 -15 0 -20 16 -20 17 0 21 -6 21 -32 l1 -33 15 28
c11 21 22 27 48 27 28 0 35 -4 40 -26 6 -23 10 -25 39 -19 41 9 43 11 26 32
-10 13 -7 12 13 -3 15 -12 54 -27 87 -35 46 -10 58 -16 54 -28 -5 -14 -4 -14
8 0 8 9 32 19 54 23 71 10 139 34 200 72 37 22 78 38 105 41 25 3 47 7 50 10
3 3 -14 3 -38 0 -42 -5 -43 -5 -26 14 9 10 22 19 28 18 24 -3 36 1 36 12 0 8
-5 8 -15 -1 -10 -8 -15 -9 -15 -2 0 6 10 16 21 23 13 7 19 7 15 1 -14 -24 17
-21 76 6 35 16 77 34 95 41 17 7 34 19 37 27 3 8 14 14 25 14 11 0 23 5 26 10
16 26 10 4 -14 -52z m-1511 -4 c108 -18 125 -26 162 -80 28 -42 63 -147 55
-168 -3 -8 -25 -11 -72 -9 -43 2 -64 0 -60 -7 3 -5 13 -10 22 -10 9 0 14 -2
12 -4 -7 -8 -206 13 -235 24 -24 10 -26 13 -20 53 8 54 -9 138 -35 172 -14 16
-30 25 -50 25 -21 0 -29 5 -29 18 0 17 6 18 78 10 42 -4 120 -15 172 -24z
m2333 -29 c43 -8 81 -15 83 -15 2 0 4 -4 4 -9 0 -5 -24 -23 -54 -40 -79 -46
-103 -75 -131 -160 -13 -42 -24 -70 -25 -63 0 8 -16 12 -48 12 -26 0 -78 8
-114 19 -37 10 -70 15 -74 12 -15 -14 7 76 31 123 17 35 40 61 72 83 87 58
123 63 256 38z m499 -93 c52 -27 110 -81 73 -68 -38 14 1 -15 72 -54 87 -47
128 -100 118 -153 -4 -21 -11 -37 -17 -37 -5 0 -8 6 -6 13 1 6 -17 41 -39 77
-32 49 -60 78 -111 113 -97 66 -132 79 -195 71 -71 -9 -87 -19 -87 -54 0 -17
-2 -30 -4 -30 -25 0 -67 26 -72 45 -10 42 39 97 96 108 47 8 125 -5 172 -31z
m-2990 -315 c7 -12 90 -25 166 -26 31 -1 52 -5 52 -12 0 -7 12 -9 32 -7 28 5
29 4 13 -9 -31 -22 -133 -13 -350 32 -96 19 -111 28 -65 36 45 9 143 -1 152
-14z m-524 -378 c28 -5 58 -17 68 -25 18 -14 18 -15 -3 -33 -50 -42 -362 -60
-463 -26 -80 26 -66 53 40 78 77 18 287 22 358 6z m3667 -59 c261 -30 447 -73
453 -104 3 -16 -1 -18 -30 -13 -18 3 -60 15 -93 26 -88 32 -283 69 -425 82
-155 14 -578 4 -693 -17 -45 -8 -95 -14 -112 -13 -43 1 117 28 265 44 139 15
485 12 635 -5z m-3083 -67 c-5 -29 -72 -80 -130 -101 -103 -37 -244 -65 -472
-93 -104 -12 -140 -29 -140 -65 0 -18 6 -24 33 -27 17 -2 -3 -5 -45 -5 l-78
-2 0 28 c0 15 -4 33 -8 39 -5 8 -60 16 -152 23 -329 24 -537 75 -584 142 -25
36 -20 74 13 97 39 28 47 26 22 -5 -32 -41 -27 -70 19 -100 85 -57 337 -104
553 -104 84 0 101 3 119 20 l22 20 -54 0 c-112 0 -38 8 125 13 155 4 162 4 85
-6 -47 -6 -73 -13 -57 -15 15 -2 25 -8 22 -13 -9 -14 134 -11 256 5 178 24
309 64 392 119 47 31 48 34 44 72 -5 39 -4 39 8 11 6 -15 10 -39 7 -53z
m-1998 -112 c-5 -5 -39 -18 -75 -29 -98 -30 -279 -119 -279 -137 0 -31 31 -35
568 -72 64 -4 89 -9 78 -15 -9 -5 -21 -6 -26 -3 -6 3 -10 2 -10 -3 0 -11 174
-28 435 -43 105 -5 237 -14 295 -19 58 -6 123 -9 145 -9 34 1 31 3 -20 10 -76
11 -402 38 -475 41 -41 1 -46 2 -20 5 19 3 143 -2 275 -11 132 -9 319 -20 415
-26 192 -11 429 -30 445 -35 6 -2 -10 -4 -35 -5 -25 -1 -54 -5 -65 -10 -16 -7
-14 -9 15 -10 19 0 125 -7 235 -15 110 -7 306 -21 435 -29 129 -9 334 -22 455
-31 121 -8 276 -17 345 -20 69 -3 163 -8 210 -12 102 -7 100 8 -3 18 -119 12
176 0 388 -16 105 -8 222 -15 262 -15 40 0 96 -6 125 -12 l53 -13 -75 -5 c-73
-5 -72 -5 55 -13 72 -5 195 -12 275 -18 170 -10 205 -11 198 -4 -3 3 -34 10
-69 15 -106 14 265 1 569 -21 318 -22 393 -23 483 -5 71 13 105 30 202 101
148 108 427 284 427 269 0 -8 -4 -13 -9 -10 -5 3 -19 -3 -32 -13 l-23 -19 26
3 c15 2 32 6 39 11 8 4 9 3 5 -4 -11 -18 1 -14 47 15 58 37 127 93 127 102 0
18 -60 30 -194 40 -76 5 -144 15 -150 21 -8 8 -7 10 4 6 8 -3 82 -10 164 -15
149 -10 196 -23 196 -55 0 -22 -629 -460 -700 -487 l-45 -17 -7 -108 c-4 -60
-10 -114 -13 -121 -2 -7 -20 -13 -39 -13 -27 0 -33 4 -31 18 2 9 6 61 9 115
l5 97 -113 0 c-62 0 -169 4 -237 10 -68 5 -203 14 -299 20 -199 11 -737 44
-975 60 -88 6 -234 15 -325 20 -91 5 -293 19 -450 30 -157 11 -454 31 -660 45
-206 13 -537 36 -735 50 -1643 113 -1619 111 -1930 121 -104 3 -198 8 -207 10
-16 5 -18 -3 -17 -68 2 -122 1 -121 99 -135 47 -7 153 -20 235 -29 83 -9 152
-18 155 -21 12 -12 -522 23 -573 37 -20 6 -43 21 -51 33 -14 23 -29 218 -20
254 6 23 45 42 234 113 74 28 162 62 195 75 58 22 79 24 59 6z m4577 -8 c43
-21 77 -28 164 -35 128 -9 154 -6 185 28 27 28 49 30 91 8 29 -14 30 -17 14
-34 -42 -47 -270 -76 -424 -55 -147 21 -204 51 -171 90 10 12 23 16 76 24 5 0
35 -11 65 -26z m-1487 -199 c23 -9 20 -27 -12 -57 -28 -27 -31 -27 -107 -20
-44 5 -80 13 -82 20 -2 6 9 23 24 37 24 23 37 26 95 26 36 0 73 -3 82 -6z
m-1938 -425 c101 -50 102 -123 2 -213 -58 -53 -63 -66 -24 -66 36 0 83 -36
102 -79 30 -64 47 -55 83 44 12 33 41 104 64 158 37 88 44 98 64 94 13 -2 31
2 40 9 10 7 26 14 36 14 9 0 17 5 17 10 0 6 5 10 10 10 6 0 10 -10 10 -23 0
-13 4 -27 9 -32 4 -6 14 -50 20 -100 19 -136 28 -165 52 -165 15 0 19 -5 16
-15 -4 -8 -2 -17 2 -20 5 -2 14 17 21 43 27 108 114 213 205 248 86 32 169
-10 167 -86 -1 -44 -22 -101 -34 -94 -6 4 -13 1 -17 -5 -13 -21 -40 0 -47 35
-8 45 -33 45 -79 -1 -47 -47 -76 -107 -82 -169 -4 -43 -1 -56 18 -80 19 -24
27 -28 60 -23 20 3 64 23 98 46 34 23 61 40 61 37 0 -3 -4 -16 -10 -30 -7 -20
-6 -26 4 -26 23 0 56 46 61 86 9 74 45 259 56 285 7 19 16 25 30 22 11 -3 19
0 19 7 0 7 8 9 20 5 11 -4 20 -2 20 4 0 19 15 12 26 -14 11 -22 7 -65 -11
-144 -6 -23 -5 -22 32 8 161 132 199 161 213 161 9 0 27 11 40 25 36 38 37 20
1 -21 -18 -20 -30 -39 -26 -42 3 -3 11 0 17 6 17 17 33 15 19 -2 -6 -7 -9 -20
-6 -28 5 -14 -27 -48 -120 -127 -22 -19 -57 -49 -78 -68 l-38 -34 97 -120 c53
-66 99 -118 101 -115 2 2 -1 13 -8 23 -12 20 -4 102 8 89 3 -3 12 -1 20 5 7 6
13 8 13 4 0 -4 6 -3 13 3 10 9 16 4 26 -23 8 -23 21 -37 37 -41 58 -15 149 22
149 61 0 12 -30 33 -95 66 -111 58 -138 81 -146 124 -11 60 38 120 138 171
119 60 228 31 228 -61 0 -29 -28 -90 -37 -81 -3 3 -12 -2 -19 -12 -13 -16 -13
-16 -14 0 0 11 -5 15 -15 12 -11 -5 -15 1 -15 25 0 36 -11 38 -70 15 -39 -16
-66 -46 -56 -62 3 -5 40 -26 82 -48 43 -21 97 -57 121 -80 35 -33 43 -47 43
-77 0 -41 -42 -97 -93 -124 -81 -41 -218 -79 -204 -55 3 4 -18 17 -45 29 l-50
23 17 -28 c10 -15 31 -44 47 -64 16 -21 28 -38 26 -38 -3 0 -29 18 -58 40 -57
43 -85 53 -55 20 26 -28 13 -34 -19 -9 -22 17 -36 20 -74 16 -42 -5 -44 -5
-19 5 15 7 27 16 27 21 0 5 -24 32 -53 60 -29 29 -74 75 -99 104 l-45 52 -11
-52 c-7 -29 -15 -71 -18 -95 -4 -23 -11 -45 -16 -48 -6 -4 -7 2 -3 15 3 11 2
21 -3 21 -10 0 -27 -37 -35 -75 -3 -13 -5 -8 -6 12 -2 51 -10 66 -29 51 -13
-12 -14 -5 -10 60 l5 73 -72 -68 c-94 -88 -100 -92 -132 -99 -39 -7 -114 28
-152 72 -17 19 -37 55 -43 80 -9 32 -17 44 -31 44 -15 0 -17 -5 -12 -37 4 -21
11 -54 16 -73 12 -46 11 -53 -3 -44 -8 5 -10 -7 -5 -47 5 -52 5 -53 -8 -24 -8
17 -14 36 -15 44 0 11 -3 11 -15 1 -12 -10 -15 -7 -21 16 -6 25 -8 26 -15 9
-9 -25 -13 -15 -32 70 -14 67 -14 67 -119 44 -45 -10 -47 -12 -68 -70 -12 -32
-28 -59 -35 -59 -7 0 -19 -13 -27 -30 -17 -38 -24 -38 -32 2 -6 30 -7 31 -21
12 -19 -25 -19 -10 1 56 11 38 13 55 5 58 -6 2 -8 9 -5 15 4 7 -17 -11 -47
-40 -30 -28 -85 -72 -124 -97 -38 -25 -63 -46 -55 -47 8 0 -16 -16 -54 -35
-76 -37 -80 -39 -71 -24 3 6 -1 10 -9 10 -9 0 -18 -12 -22 -27 -9 -44 -12 -50
-13 -25 -1 14 -6 22 -13 20 -8 -3 -14 -28 -16 -66 -2 -34 -6 -62 -11 -62 -4 0
-8 8 -8 18 1 58 -4 92 -13 92 -5 0 -10 -7 -10 -15 0 -8 -4 -15 -10 -15 -5 0
-10 7 -10 15 0 18 3 17 -38 6 -20 -6 -32 -6 -32 0 0 5 5 9 10 9 6 0 10 5 10
10 0 6 -9 10 -20 10 -23 0 -27 15 -5 24 21 8 19 29 -2 22 -24 -8 14 23 56 46
30 17 31 19 31 90 0 40 3 90 6 111 5 30 4 37 -10 37 -15 0 -21 16 -18 53 1 9
-4 17 -11 17 -6 0 3 10 21 21 35 23 38 31 51 127 5 44 5 62 -3 59 -96 -39
-116 -45 -121 -37 -3 6 -1 10 4 10 6 0 11 7 11 15 0 21 -30 19 -91 -5 -72 -29
-71 -19 2 15 57 28 109 68 67 52 -10 -3 -18 -2 -18 3 0 11 97 61 155 80 140
46 270 50 351 9z m-1421 -214 c9 -99 20 -238 26 -310 5 -71 16 -200 24 -285 8
-85 17 -207 20 -270 3 -63 8 -125 11 -137 2 -13 0 -23 -4 -23 -5 0 -12 30 -15
68 -4 37 -13 141 -21 232 -42 455 -73 920 -63 910 4 -3 13 -87 22 -185z m3899
123 c4 -24 14 -94 22 -157 7 -63 16 -116 18 -118 2 -3 12 -6 23 -7 10 -2 17
-10 15 -20 -6 -35 16 -14 33 32 49 127 164 234 284 261 91 20 170 -33 155
-104 -11 -50 -33 -85 -49 -79 -8 4 -15 1 -15 -5 0 -8 -6 -7 -20 1 -12 8 -20
24 -20 40 0 52 -68 30 -142 -48 -71 -73 -98 -171 -62 -223 14 -20 23 -23 60
-18 43 4 114 47 114 68 0 5 -20 9 -45 9 -33 0 -45 4 -46 15 -4 67 -4 69 30 76
17 4 75 10 127 14 l94 7 0 -35 c0 -20 -4 -38 -9 -41 -9 -6 -17 -29 -67 -191
-20 -67 -29 -85 -35 -70 -6 17 -9 15 -23 -17 -9 -21 -16 -44 -16 -53 0 -8 -4
-15 -10 -15 -6 0 -7 18 -3 45 4 31 2 45 -6 45 -6 0 -11 -7 -11 -16 0 -8 -4
-13 -9 -10 -4 3 -5 25 -1 48 5 24 7 44 6 46 -2 1 -23 -9 -47 -23 -54 -31 -81
-31 -138 -2 -58 30 -101 84 -108 136 -5 34 -9 41 -28 41 -22 0 -22 -1 -10 -75
10 -68 6 -95 -9 -62 -3 6 -4 -14 -2 -46 5 -59 -7 -70 -19 -17 -4 18 -11 27
-20 24 -8 -3 -16 4 -20 17 -5 15 -9 18 -15 9 -4 -7 -10 -8 -13 -4 -4 7 -27
118 -27 131 0 7 -144 -9 -161 -18 -9 -4 -29 -36 -44 -71 -16 -35 -30 -57 -33
-50 -7 23 -22 12 -47 -35 -22 -41 -25 -43 -20 -18 6 38 -10 68 -24 45 -6 -8
-13 -11 -17 -7 -4 3 -2 12 3 19 5 7 17 32 26 55 13 33 13 42 3 46 -13 5 -15
41 -3 53 4 4 2 13 -4 20 -8 10 -3 14 24 19 36 7 39 12 155 247 2 4 -9 6 -25 3
-15 -2 -65 -9 -109 -16 l-81 -11 -16 -57 c-8 -31 -25 -99 -37 -151 -38 -163
-58 -229 -60 -195 -1 29 -1 29 -16 10 -9 -11 -25 -38 -36 -60 l-19 -40 6 51
c4 33 3 54 -4 59 -6 3 -11 1 -11 -4 0 -6 -5 -11 -10 -11 -13 0 3 111 44 305 8
38 13 71 11 73 -2 2 -33 -1 -68 -7 -82 -14 -90 -14 -84 3 3 8 3 17 -1 21 -12
11 -10 64 2 75 7 5 48 14 92 20 43 6 90 16 104 22 32 13 263 20 293 9 l22 -9
-25 -10 -25 -9 24 -8 25 -8 -30 -12 -29 -13 40 -1 c36 -1 42 3 60 35 14 27 23
34 40 30 20 -5 87 13 101 27 15 14 22 6 28 -35z m1094 -67 c2 -6 19 -11 38
-11 49 0 42 -17 -11 -24 -46 -7 -66 -23 -45 -36 15 -9 -14 -17 -100 -25 -175
-16 -167 -14 -173 -43 -3 -15 -9 -35 -13 -45 -6 -17 -1 -19 62 -17 38 1 83 2
99 1 28 -2 29 -2 10 -13 -19 -12 -19 -12 5 -18 25 -7 25 -7 -10 -23 -26 -11
-30 -16 -15 -17 l20 -1 -20 -9 c-11 -4 -59 -11 -107 -15 l-86 -7 -13 -47 c-7
-25 -12 -48 -11 -50 1 -2 71 -3 155 -2 88 1 158 -3 167 -9 12 -7 8 -10 -15
-10 -60 -1 -2 -20 65 -21 70 -2 62 -4 -42 -14 -65 -6 -96 -25 -41 -25 14 0 24
-2 22 -4 -2 -2 -76 -10 -164 -16 -88 -7 -172 -18 -187 -25 -20 -9 -28 -10 -28
-2 0 17 -17 -4 -23 -28 -4 -18 -5 -18 -6 3 -1 17 -7 22 -30 22 -23 0 -30 6
-36 28 -16 57 -14 71 8 74 28 4 63 107 43 123 -20 15 -8 73 16 81 19 6 29 24
42 76 5 22 2 27 -16 30 -16 2 -22 10 -21 28 1 45 14 69 47 82 59 24 406 32
414 9z m-2639 -566 c33 -10 69 -31 88 -50 33 -33 33 -35 19 -63 -16 -31 -65
-67 -133 -96 -42 -19 -56 -36 -30 -36 33 0 119 -33 147 -56 23 -20 30 -34 30
-62 0 -31 -8 -44 -53 -87 -60 -56 -108 -82 -241 -132 -68 -25 -81 -32 -51 -29
51 7 41 3 -70 -30 -121 -35 -137 -38 -90 -15 35 18 36 20 10 14 -95 -20 -109
-27 -122 -68 l-11 -40 -1 38 c-1 35 -2 36 -21 25 -11 -7 -23 -28 -26 -48 -16
-102 -24 -115 -19 -37 3 68 1 78 -13 75 -9 -2 -19 -14 -23 -28 l-6 -25 -8 27
c-7 29 -12 29 -79 11 -12 -3 -16 -1 -12 6 4 6 14 11 22 11 8 0 14 3 14 8 0 4
24 5 54 4 32 -2 73 3 102 13 27 9 111 35 187 56 140 40 302 98 294 105 -2 2
-35 -7 -72 -21 -61 -22 -74 -23 -109 -13 -23 6 -46 16 -53 21 -8 5 -45 -1
-102 -17 -108 -31 -120 -32 -98 -8 8 9 18 35 21 57 3 22 3 34 0 28 -3 -8 -26
-13 -60 -13 -39 0 -54 -4 -54 -14 0 -7 -3 -28 -7 -46 -5 -26 -3 -31 7 -25 8 5
11 3 8 -6 -3 -8 -33 -22 -68 -31 -65 -18 -86 -28 -55 -28 13 0 15 -3 6 -13 -6
-8 -8 -17 -4 -20 3 -4 -11 -7 -33 -6 -33 0 -36 2 -16 9 24 10 30 30 10 30 -22
1 23 22 70 34 l45 12 24 89 c12 50 25 100 29 113 5 18 2 22 -17 23 -23 0 -23
1 -4 9 17 7 17 9 3 9 -23 1 -23 20 -1 28 15 6 14 7 -3 14 -20 7 -21 7 36 28
20 7 31 25 53 86 l27 78 -37 -7 c-53 -10 -122 -16 -100 -10 25 8 21 21 -10 32
-16 6 -21 11 -12 11 9 1 24 10 35 22 18 20 18 20 -11 14 -29 -7 -29 -6 -10 8
11 8 63 24 115 36 123 26 402 24 489 -4z m866 -4 c39 4 108 8 155 8 l85 -1
-50 -13 c-43 -11 -46 -13 -20 -15 26 -1 27 -3 10 -10 -30 -13 60 -12 210 1 71
6 145 8 172 3 32 -5 40 -9 26 -12 -35 -5 -27 -22 10 -23 29 -1 27 -3 -23 -19
-42 -14 -49 -18 -27 -19 15 -1 27 -5 27 -10 0 -5 -59 -14 -130 -21 l-131 -13
-19 -38 c-11 -21 -20 -41 -20 -45 0 -3 37 -3 83 0 48 5 92 3 107 -3 25 -10 25
-10 2 -10 -29 -1 -19 -21 11 -22 20 -1 21 -2 2 -6 -11 -3 -31 -10 -45 -16
l-25 -10 25 -7 c18 -5 2 -9 -55 -14 -144 -12 -142 -12 -165 -63 -11 -25 -18
-48 -16 -50 2 -2 70 0 150 5 81 4 166 5 189 1 38 -6 39 -7 10 -8 -35 -1 -44
-15 -17 -25 9 -3 41 -7 72 -7 53 -2 52 -2 -23 -9 -44 -4 -93 -11 -109 -15 -21
-6 -27 -5 -22 4 4 6 16 11 27 11 10 0 19 5 19 10 0 6 -12 10 -26 10 -16 0 -23
4 -18 11 6 10 -69 8 -255 -5 -9 0 -15 4 -14 9 9 60 9 60 -25 63 -18 2 -30 8
-27 13 4 5 2 9 -3 9 -17 0 -33 -27 -39 -65 -4 -27 -13 -40 -35 -51 -22 -12
-27 -18 -19 -28 13 -16 4 -26 -22 -26 -17 0 -18 2 -6 16 10 13 10 17 -1 24
-10 6 -4 11 20 17 29 8 36 16 51 58 22 63 23 79 5 72 -15 -6 -17 27 -2 51 5 8
1 10 -11 7 -10 -3 1 4 24 15 34 17 45 28 54 61 10 33 10 42 0 49 -8 4 -10 13
-7 19 4 6 2 11 -4 11 -6 0 -8 5 -4 11 4 8 -3 9 -22 6 -16 -3 -59 -9 -95 -12
l-66 -6 -58 -152 c-90 -235 -116 -296 -109 -257 4 19 12 46 19 60 18 36 35 99
29 114 -4 10 -56 14 -95 7 -9 -2 -36 -63 -44 -100 -4 -21 -4 -31 3 -27 17 10
22 -52 7 -95 -8 -23 -15 -44 -15 -48 0 -3 152 -7 338 -8 185 -1 353 -6 372
-11 23 -6 -67 -7 -251 -4 -429 8 -807 -20 -1079 -80 -147 -32 -94 -34 122 -4
101 14 221 30 268 35 100 12 361 27 375 21 6 -2 134 -3 285 -3 l275 1 -180 -9
c-251 -12 -467 -34 -620 -64 -150 -29 -142 -28 -129 -15 14 14 243 60 348 69
l91 8 -91 2 c-119 1 -448 -32 -683 -69 -102 -16 -204 -30 -226 -30 -38 1 -39
2 -20 16 57 43 349 97 669 123 60 5 112 13 116 18 10 12 30 86 30 112 0 31
-17 25 -25 -9 -6 -28 -25 -52 -25 -32 0 5 27 90 61 188 81 237 79 228 43 220
-28 -5 -73 -12 -144 -22 -32 -4 -33 -3 -17 10 18 14 18 15 0 24 -17 10 -17 11
2 32 16 18 17 23 5 30 -23 14 24 27 141 40 57 6 108 15 114 20 14 11 58 17 70
9 6 -3 42 -3 80 2z m1015 -19 c19 -9 37 -26 39 -37 2 -11 8 -23 14 -27 17 -11
-28 -99 -47 -92 -9 3 -17 -3 -22 -18 l-7 -23 -9 24 c-7 19 -11 21 -22 11 -12
-9 -15 -6 -18 22 -3 31 -5 33 -40 32 -46 -1 -153 -53 -153 -74 0 -10 41 -31
120 -61 207 -79 255 -111 255 -169 0 -14 -7 -34 -15 -44 -8 -10 -12 -23 -9
-27 3 -5 -1 -9 -8 -9 -7 0 -22 -8 -33 -16 -19 -15 -15 -15 45 -9 36 3 77 8 93
11 15 3 27 1 27 -4 0 -5 -48 -14 -107 -20 -94 -10 -124 -18 -236 -66 -70 -29
-127 -57 -127 -62 1 -4 -31 -20 -72 -36 -83 -32 -81 -32 -72 -17 10 17 -31 2
-238 -85 -69 -29 -39 -5 38 30 42 20 74 38 71 40 -2 3 -80 -20 -172 -51 -92
-31 -169 -54 -171 -52 -3 3 16 13 43 22 26 10 71 28 99 40 29 13 67 26 85 30
19 3 55 13 81 21 26 9 62 15 80 16 48 0 381 118 407 143 2 3 -18 4 -46 4 -27
-1 -59 4 -71 10 -12 6 -22 8 -22 4 0 -4 -4 -2 -8 4 -8 12 -118 -30 -300 -113
-29 -13 -58 -24 -65 -24 -7 0 38 23 98 51 61 28 169 77 240 110 228 105 228
110 -5 193 -141 50 -191 92 -177 148 9 36 71 93 136 124 127 63 235 79 301 46z
m-1501 -180 c-22 -65 -53 -151 -66 -192 -33 -96 -55 -153 -64 -164 -10 -12 5
47 30 118 12 33 21 62 21 66 0 3 -26 6 -57 5 l-58 -2 -17 -54 c-9 -30 -23 -76
-31 -104 -11 -36 -15 -43 -16 -24 -1 14 13 71 29 125 17 55 44 144 61 199 39
130 68 193 79 175 7 -11 15 -10 48 3 30 12 42 13 51 4 7 -7 12 -7 11 -2 -6 28
3 26 11 -3 9 -29 4 -51 -32 -150z m-2071 105 c6 -5 12 -24 12 -43 l0 -34 -52
0 c-29 0 -70 3 -90 6 -36 6 -38 9 -38 44 0 20 2 39 4 41 7 7 150 -5 164 -14z
m-245 -101 c4 -6 6 -24 5 -41 -3 -26 -8 -31 -38 -35 -37 -5 -33 -13 13 -24 24
-6 27 -11 27 -48 l0 -41 -82 7 c-44 4 -85 9 -90 12 -4 3 -8 21 -8 40 l0 34 50
0 c28 0 50 5 50 10 0 6 -6 10 -12 10 -7 0 -30 5 -50 11 -34 9 -38 13 -38 43 0
18 3 36 7 40 10 10 157 -5 166 -18z m245 -18 c22 -22 14 -67 -13 -80 l-25 -11
23 -11 c27 -14 37 -73 13 -82 -9 -3 -48 -2 -88 3 l-73 8 -3 37 -3 37 48 3 48
3 -45 15 c-42 14 -45 18 -48 53 l-3 37 78 0 c48 0 84 -5 91 -12z m4676 -144
c46 -7 46 -7 46 -45 l0 -39 -57 0 c-32 0 -75 3 -95 6 -35 6 -38 9 -38 39 0 17
3 35 7 38 8 9 76 9 137 1z m-4 -122 c43 -7 45 -8 45 -42 0 -31 -3 -35 -30 -38
-16 -2 -58 -1 -92 3 l-63 7 0 39 0 39 48 -1 c26 0 67 -4 92 -7z m-5396 -67
c-17 -43 40 -58 300 -80 98 -8 182 -17 186 -20 18 -11 832 -82 994 -86 17 0
25 -3 19 -6 -7 -2 -91 0 -185 6 -95 6 -348 22 -563 35 -214 14 -453 26 -530
28 l-140 3 -3 -26 c-4 -37 -41 -28 -49 12 -4 20 -15 32 -42 42 -44 18 -51 11
-51 -52 0 -70 -18 -35 -21 40 -3 76 2 86 45 105 40 17 47 17 40 -1z m5181 -35
c22 -8 26 -15 23 -42 -3 -31 -5 -33 -48 -36 -25 -1 -65 1 -90 6 -36 6 -46 12
-48 30 -7 45 3 52 72 52 36 0 77 -4 91 -10z m254 -24 c7 -8 11 -27 9 -43 l-3
-28 -85 2 c-89 3 -112 14 -105 51 2 9 4 20 4 25 1 4 39 7 85 7 60 0 87 -4 95
-14z"/>
<path d="M3890 4563 c-50 -16 -179 -67 -200 -78 -64 -34 -222 -87 -310 -105
-115 -23 -257 -26 -324 -6 -26 8 -76 18 -110 21 -57 6 -65 5 -92 -18 l-29 -25
0 -119 c0 -128 9 -187 26 -162 7 10 8 6 4 -12 -5 -19 -1 -32 12 -45 11 -11 30
-44 43 -74 48 -116 104 -183 193 -234 59 -33 99 -31 217 14 116 45 155 50 357
47 174 -2 193 0 255 21 127 44 189 115 223 253 15 58 15 84 6 186 -19 202 -63
298 -154 332 -29 11 -90 13 -117 4z m-30 -308 c0 -19 -7 -26 -27 -31 -49 -10
-49 -13 -3 -11 l45 2 -1 -37 c-1 -37 16 -52 31 -28 8 13 82 13 90 0 3 -5 7
-32 8 -60 1 -27 5 -50 10 -50 4 0 7 -11 7 -24 0 -27 -16 -36 -65 -36 -19 0
-36 -4 -39 -9 -8 -12 -145 -45 -153 -37 -3 3 -11 2 -17 -3 -6 -4 -30 -11 -53
-15 -36 -5 -43 -3 -48 14 -3 11 -3 25 1 31 3 6 2 14 -4 18 -5 3 -13 30 -17 59
l-7 52 34 2 c61 3 67 4 72 9 3 3 1 36 -5 73 -7 46 -8 71 -1 78 12 12 66 26
110 27 28 1 32 -2 32 -24z m-714 -94 c7 -1 15 -30 19 -66 l7 -65 54 0 c36 0
54 -4 55 -12 4 -44 9 -68 22 -106 17 -49 12 -55 -43 -51 -21 2 -42 0 -46 -4
-9 -9 -98 -9 -107 0 -4 3 -26 7 -49 7 -33 1 -43 5 -46 19 -3 16 2 18 37 16 22
-2 43 0 47 4 8 7 -9 11 -40 7 -39 -4 -64 10 -69 37 -3 16 -9 40 -13 56 -6 26
-5 27 30 27 34 0 35 1 34 35 -1 20 -5 38 -10 41 -4 3 -8 16 -8 29 0 30 29 36
126 26z"/>
<path d="M205 2158 c2 -61 8 -114 12 -118 4 -5 23 -11 41 -15 l32 -7 0 89 c0
116 -4 128 -50 146 l-39 15 4 -110z"/>
<path d="M1630 1493 c-73 -11 -67 2 -96 -192 l-6 -43 63 35 c133 75 202 159
152 185 -24 12 -82 20 -113 15z"/>
<path d="M2469 1054 c-8 -3 -27 -34 -41 -70 l-26 -66 24 6 c52 13 191 67 223
87 22 13 30 24 24 30 -11 11 -177 21 -204 13z"/>
<path d="M2440 813 c-75 -7 -74 -6 -110 -112 -19 -55 -32 -102 -29 -106 9 -9
180 50 271 94 98 47 134 76 118 96 -21 25 -145 39 -250 28z"/>
</g>
</svg>
