<?xml version="1.0" standalone="no"?>
<!DOCTYPE svg PUBLIC "-//W3C//DTD SVG 20010904//EN"
 "http://www.w3.org/TR/2001/REC-SVG-20010904/DTD/svg10.dtd">
<svg version="1.0" xmlns="http://www.w3.org/2000/svg"
 width="720.000000pt" height="544.000000pt" viewBox="0 0 720.000000 544.000000"
 preserveAspectRatio="xMidYMid meet">
<metadata>
Created by potrace 1.16, written by Peter Selinger 2001-2019
</metadata>
<g transform="translate(0.000000,544.000000) scale(0.100000,-0.100000)"
fill="#000000" stroke="none">
<path d="M3760 5410 c-208 -54 -287 -89 -400 -175 -98 -75 -148 -123 -166
-160 -8 -16 -30 -40 -49 -53 -51 -33 -75 -77 -74 -137 0 -27 3 -44 6 -37 7 19
37 14 51 -8 13 -21 2 -60 -18 -60 -4 0 -15 -3 -24 -6 -13 -5 -16 1 -16 26 0
32 0 32 -27 -18 -16 -29 -48 -66 -75 -87 -36 -27 -57 -54 -85 -113 -37 -74
-38 -81 -37 -177 1 -123 21 -196 69 -253 42 -48 236 -182 265 -182 12 0 26
-13 36 -32 9 -18 29 -51 45 -74 l28 -41 -78 -6 c-47 -3 -97 -13 -125 -26 -68
-30 -161 -123 -196 -197 -29 -60 -29 -63 -15 -104 8 -24 13 -45 10 -48 -2 -3
-18 1 -34 8 -27 11 -40 9 -108 -16 -100 -35 -223 -91 -243 -109 -12 -11 -24
-11 -62 -3 -34 8 -65 8 -110 0 -202 -35 -270 -61 -320 -120 -13 -16 -57 -46
-98 -68 -74 -38 -234 -182 -259 -231 -9 -18 -21 -23 -64 -25 -48 -3 -52 -5
-55 -29 -3 -24 -10 -29 -70 -43 -37 -9 -102 -28 -144 -41 -42 -14 -80 -25 -83
-25 -3 0 -5 13 -5 29 0 17 -6 31 -16 35 -30 12 -93 6 -108 -10 -28 -27 -16
-138 12 -120 6 4 16 -2 22 -14 10 -19 11 -19 38 8 15 15 19 18 10 7 -10 -12
-18 -26 -18 -32 0 -26 220 -79 445 -108 71 -9 131 -18 133 -20 2 -1 -79 -6
-180 -9 -168 -6 -225 -3 -378 20 -106 16 43 -48 167 -72 166 -32 458 -37 503
-9 5 3 37 1 70 -5 46 -8 91 -7 199 5 261 28 392 67 480 140 37 32 38 42 7 88
l-25 36 32 -18 c18 -10 36 -29 41 -44 29 -80 -97 -157 -333 -201 -68 -13 -353
-46 -397 -46 -10 0 -14 -13 -14 -39 0 -39 1 -40 38 -44 20 -2 0 -4 -46 -5 -57
-1 -81 1 -77 9 4 6 4 25 1 43 l-6 33 -138 7 c-296 14 -482 52 -571 115 -14 10
-62 31 -106 46 -44 15 -92 34 -107 41 -23 12 -32 11 -80 -10 -30 -13 -126 -52
-213 -85 -88 -34 -218 -85 -290 -112 -72 -28 -141 -61 -154 -74 -23 -23 -23
-24 -16 -160 l7 -136 34 -22 c23 -15 35 -32 38 -52 3 -16 26 -291 51 -610 25
-319 49 -610 52 -646 l6 -66 -33 -13 c-18 -7 -46 -24 -61 -38 -31 -26 -35 -53
-23 -146 6 -43 9 -47 58 -70 56 -27 112 -33 536 -61 124 -8 360 -24 525 -35
165 -11 561 -38 880 -60 319 -22 672 -47 785 -55 113 -8 390 -29 615 -45 618
-45 789 -58 1077 -82 220 -18 361 -22 860 -25 l596 -4 5 23 4 23 2 -22 c1 -22
5 -23 91 -23 l90 0 128 74 c312 181 508 298 521 311 9 9 16 43 19 93 l4 79
-37 30 -37 31 16 183 c14 167 26 338 70 987 l15 213 29 28 c26 27 29 38 35
122 4 51 7 124 7 164 0 120 -9 124 -385 150 -317 22 -320 23 -321 60 -2 117
-2 115 -41 132 -43 17 -142 20 -172 4 -14 -8 -36 -7 -79 4 -150 39 -325 57
-598 62 -290 6 -471 -5 -625 -36 l-89 -18 0 32 c0 41 -20 58 -68 58 -65 0 -82
-10 -82 -48 0 -62 -3 -64 -90 -58 -69 5 -82 3 -114 -16 -20 -13 -36 -28 -36
-36 0 -14 -30 -25 -72 -25 -46 0 -40 17 8 23 88 10 244 180 282 308 15 54 20
59 45 59 35 0 95 25 124 52 13 12 38 22 63 23 23 2 52 11 66 20 18 12 29 13
43 5 11 -5 33 -10 50 -10 31 0 247 75 319 112 44 22 92 70 92 91 0 7 23 18 52
25 79 18 121 51 157 123 17 34 31 72 31 84 0 12 12 32 26 46 50 46 83 136 109
295 17 104 19 174 5 174 -5 0 -10 -24 -10 -54 0 -61 -31 -227 -55 -297 -23
-66 -67 -114 -122 -133 -47 -16 -106 -22 -88 -8 6 4 23 72 38 152 16 80 34
173 41 206 l13 61 -73 7 c-81 6 -164 24 -178 37 -12 11 -27 12 -24 2 5 -17
-14 -103 -41 -193 -16 -52 -35 -114 -41 -138 -7 -29 -15 -40 -23 -35 -7 4 -7
0 2 -10 9 -11 9 -17 2 -17 -16 0 -79 100 -87 137 -6 28 29 246 63 391 3 12 1
22 -4 22 -15 0 -77 -326 -76 -396 l2 -62 -91 -32 -91 -32 -81 38 c-73 35 -88
38 -166 38 -100 0 -149 -14 -210 -61 -30 -23 -51 -32 -65 -29 -50 14 -127 18
-134 8 -4 -7 -23 -8 -56 -3 -30 5 -39 9 -22 10 55 2 224 85 322 158 22 15 35
19 45 12 44 -28 85 -29 192 -4 120 27 145 38 207 91 40 35 101 117 101 136 0
20 -20 4 -43 -34 -14 -24 -39 -56 -56 -72 -28 -27 -33 -28 -56 -16 -27 14 -35
33 -11 24 22 -8 74 26 96 64 18 30 19 35 4 57 -19 29 -11 45 22 45 27 0 31 12
9 30 -21 18 -19 58 5 72 27 17 25 59 -4 131 -26 61 -17 88 15 48 29 -36 40
-115 29 -211 -12 -108 -11 -125 5 -75 18 54 19 217 1 258 -20 48 -106 178
-122 184 -17 6 -19 81 -3 116 18 39 -6 131 -45 175 -18 21 -36 52 -39 70 -9
46 -99 176 -176 253 -181 180 -456 294 -739 305 -118 4 -135 2 -242 -26z m283
-225 c48 -8 108 -22 134 -31 76 -25 231 -105 238 -122 3 -10 -11 -31 -41 -61
-42 -42 -124 -165 -124 -186 0 -5 17 20 38 54 46 76 128 171 148 171 24 0 101
-78 143 -145 69 -108 101 -208 80 -247 -6 -12 -15 -58 -19 -102 -5 -53 -22
-121 -49 -197 -38 -108 -50 -164 -81 -389 -7 -47 -15 -100 -17 -117 -4 -27 -2
-33 13 -33 17 0 17 -1 -1 -19 -33 -32 -142 -89 -213 -111 -51 -16 -201 -50
-219 -50 -2 0 -3 6 -3 13 0 7 12 14 28 15 51 4 145 32 206 62 110 54 210 141
156 137 -14 -1 -19 -6 -15 -17 3 -10 0 -9 -9 4 -14 17 -17 17 -63 -20 -26 -22
-57 -47 -67 -56 -11 -10 -28 -18 -39 -18 -10 0 -31 -8 -45 -19 -15 -10 -57
-23 -94 -28 -75 -10 -78 -8 -78 52 0 19 -5 37 -11 41 -7 4 -9 -10 -4 -50 l7
-56 -93 0 c-84 0 -121 4 -246 27 -21 4 -33 2 -33 -6 0 -6 5 -11 12 -11 6 0 19
-6 27 -14 23 -19 121 -35 243 -38 60 -2 108 -6 108 -10 0 -18 -218 -12 -329 8
-203 37 -415 172 -488 311 -33 62 -78 238 -88 344 -9 83 18 308 45 390 48 140
139 275 244 359 65 51 152 100 180 100 8 0 30 9 48 20 40 24 169 53 259 59 15
0 65 -6 112 -14z m-935 -442 c-37 -43 -69 -114 -67 -145 2 -18 -4 -44 -11 -58
-11 -18 -14 -61 -14 -155 1 -149 20 -236 66 -300 35 -49 21 -57 -33 -19 -67
46 -82 87 -87 245 -8 257 49 449 134 449 25 0 26 -1 12 -17z m1942 -330 c0
-19 -9 -16 -47 17 -18 17 -37 30 -42 30 -13 0 -87 -84 -105 -119 -16 -29 -15
-31 1 -31 10 0 30 7 45 14 15 8 29 12 32 8 8 -14 -20 -77 -34 -74 -70 16 -69
16 -86 -23 -18 -45 -29 -138 -29 -258 0 -86 0 -88 33 -118 34 -32 33 -46 -3
-49 -59 -6 -73 5 -91 71 -14 52 -20 188 -10 239 2 14 7 47 11 74 3 27 11 58
16 68 6 11 9 30 7 43 -5 42 129 192 182 205 33 7 38 5 78 -38 23 -26 42 -52
42 -59z m-1682 -655 c68 -49 90 -78 58 -78 -8 0 -18 5 -21 11 -19 29 -82 27
-162 -6 l-35 -15 31 -39 c27 -34 28 -38 11 -34 -13 4 -28 -3 -43 -18 -12 -13
-31 -31 -42 -39 -19 -14 -19 -14 -6 3 8 10 9 17 3 17 -18 0 -24 -20 -12 -35 7
-8 10 -15 7 -15 -3 0 -13 -3 -23 -7 -12 -4 -15 -3 -10 5 9 15 1 15 -25 1 -12
-6 -18 -17 -15 -25 4 -9 -4 -19 -20 -26 -19 -9 -24 -18 -21 -35 6 -31 -5 -29
-26 6 -24 41 -94 101 -117 101 -25 0 -25 0 6 62 52 102 158 188 256 207 101
20 128 15 206 -41z m1468 -93 c27 -8 65 -25 84 -37 l35 -22 -61 -7 c-110 -13
-172 -61 -226 -174 -18 -38 -29 -51 -48 -53 l-25 -3 28 18 c22 14 27 25 27 55
l0 38 -46 0 c-38 0 -45 3 -40 16 3 8 2 13 -3 9 -15 -8 -41 6 -41 22 0 12 -3
13 -14 4 -8 -6 -20 -10 -27 -9 -7 2 -13 -1 -14 -7 0 -5 -6 -19 -13 -30 -12
-19 -13 -18 -6 5 21 80 83 147 159 174 53 19 169 20 231 1z m344 -11 c0 -3
-13 -17 -30 -30 -74 -63 -60 -245 27 -341 67 -73 147 -89 208 -42 43 34 40 14
-4 -23 -27 -23 -83 -50 -170 -82 -149 -55 -206 -65 -236 -42 -14 12 -15 14 -3
10 9 -3 63 11 120 32 56 20 123 42 148 50 25 7 37 13 28 13 -10 1 -18 5 -18
10 0 5 -11 12 -25 15 -38 10 -100 70 -123 120 l-21 43 -57 -19 c-32 -11 -90
-23 -130 -27 -39 -5 -77 -12 -83 -15 -16 -10 -14 51 3 108 16 52 55 108 92
133 60 39 274 107 274 87z m-1771 -53 c-12 -16 -18 -34 -15 -40 4 -6 0 -11
-11 -12 -16 0 -16 -1 2 -8 11 -5 23 -7 28 -4 13 8 7 -16 -13 -49 -30 -50 -24
-58 7 -10 31 47 43 50 96 23 30 -15 34 -20 20 -24 -10 -2 -3 -3 16 -1 31 3 32
2 15 -11 -18 -14 -18 -14 7 -15 14 0 31 -6 38 -12 8 -7 6 0 -4 15 -25 38 -12
45 14 8 13 -18 51 -45 94 -65 70 -35 74 -35 182 -32 81 3 123 9 160 23 28 11
66 19 85 17 34 -3 34 -3 5 4 l-30 8 32 17 c34 18 59 23 33 7 -32 -20 3 -20
111 1 71 13 119 28 128 38 12 14 13 11 8 -24 -21 -145 -29 -241 -24 -315 2
-47 2 -79 0 -72 -8 22 -43 14 -44 -10 -1 -22 -1 -22 -10 2 -5 14 -13 61 -18
105 -10 79 -10 78 -4 -27 3 -70 1 -108 -5 -108 -6 0 -23 -11 -39 -24 -56 -47
-218 -131 -264 -137 -17 -3 -41 8 -76 33 -58 43 -143 85 -190 94 -24 5 -33 12
-34 28 l-2 21 -4 -21 c-4 -19 -8 -21 -39 -14 -20 5 -63 4 -97 -1 -34 -5 -65
-9 -68 -9 -4 0 -22 22 -40 50 -33 48 -59 70 -59 49 0 -6 -6 -17 -14 -24 -12
-12 -16 -5 -30 45 -9 32 -19 88 -23 124 -3 38 -10 63 -15 59 -6 -3 -7 4 -3 18
7 20 5 22 -6 12 -59 -49 -42 -259 33 -391 22 -40 37 -118 19 -108 -18 12 -58
96 -75 162 -26 93 -31 256 -12 338 22 94 81 224 119 264 38 40 44 41 16 3z
m-531 -180 c58 -30 98 -71 142 -146 35 -62 51 -100 34 -82 -7 6 -129 -35 -184
-63 -20 -10 -52 -21 -71 -25 -33 -6 -35 -5 -58 42 -49 102 -118 163 -185 163
-20 0 -36 4 -36 9 0 12 267 119 298 120 12 1 39 -8 60 -18z m-416 -121 c90
-25 207 -240 136 -247 -112 -13 -130 -16 -135 -29 -9 -24 -23 -15 -23 16 0 66
-46 120 -145 172 -53 27 -66 30 -122 25 -38 -3 -76 -13 -98 -26 -44 -26 -48
-26 -36 -2 14 26 84 56 161 70 36 6 79 15 95 20 41 13 123 13 167 1z m-281
-161 c54 -58 47 -119 -20 -183 -24 -23 -31 -26 -31 -13 0 46 -90 77 -122 43
-11 -11 -18 -8 -44 23 l-32 36 -38 -18 c-34 -16 -38 -17 -46 -3 -5 9 -19 16
-31 16 -21 1 -20 2 8 25 16 14 65 43 108 65 70 35 86 40 149 40 65 0 72 -2 99
-31z m1063 -31 c2 -7 9 -42 15 -77 14 -74 53 -166 84 -199 12 -13 37 -30 55
-37 l32 -14 0 -75 0 -76 -74 0 c-53 0 -77 4 -86 15 -17 20 -81 19 -118 -2 -29
-16 -32 -16 -49 -1 -14 13 -46 19 -116 24 l-97 7 0 41 c0 23 -4 46 -8 52 -41
62 -242 48 -264 -18 -3 -8 -28 -3 -83 17 l-78 29 44 19 c24 10 57 30 72 45 26
24 34 27 93 23 55 -2 86 4 212 45 147 47 202 79 202 118 0 9 19 20 53 30 28 8
61 22 72 30 25 19 35 20 39 4z m-869 -240 c24 -11 25 -15 25 -90 0 -75 -1 -78
-19 -68 -11 5 -29 10 -40 10 -46 0 -75 118 -36 146 23 17 36 17 70 2z m3445
-208 c257 -33 375 -64 375 -96 0 -25 -21 -23 -124 15 -46 17 -149 43 -230 58
-138 25 -162 27 -456 26 -274 0 -324 -2 -434 -22 -68 -12 -125 -20 -128 -17
-7 6 20 13 132 31 235 38 598 40 865 5z m-258 -134 c94 -17 133 -35 133 -61 0
-84 -506 -104 -587 -23 -10 10 -18 25 -16 31 17 53 294 84 470 53z m-4897 -32
c-11 -8 -45 -22 -75 -31 -30 -8 -106 -40 -167 -69 -117 -56 -136 -76 -87 -94
14 -6 152 -19 307 -30 322 -23 353 -26 278 -29 -163 -4 86 -35 414 -51 121 -6
261 -15 310 -20 50 -5 117 -9 150 -8 59 1 59 2 -20 8 -44 4 -125 12 -180 18
-55 6 -201 19 -325 28 -124 10 -217 20 -207 22 19 4 332 -15 377 -22 30 -5
256 -21 535 -36 245 -14 485 -37 403 -39 -31 0 -60 -5 -63 -11 -3 -6 4 -10 17
-10 13 0 118 -7 233 -15 454 -33 979 -67 1150 -75 99 -5 221 -12 270 -16 63
-4 87 -3 80 4 -5 6 -26 13 -45 15 -111 14 457 -21 685 -43 85 -8 83 -8 -35 -4
-176 6 -122 -11 80 -25 459 -32 559 -36 548 -26 -3 3 -34 10 -69 15 -82 11
245 3 411 -10 266 -22 490 -32 570 -26 98 8 154 31 245 98 89 66 426 283 385
249 -19 -16 -31 -33 -27 -38 5 -4 15 1 23 11 8 11 14 16 14 12 0 -5 6 -3 14 3
7 6 20 9 29 5 21 -8 187 102 187 125 0 16 -52 31 -105 31 -35 0 -55 4 -55 11
0 17 126 2 156 -18 33 -21 30 -37 -13 -68 -21 -14 -87 -61 -148 -104 -279
-196 -472 -324 -514 -340 l-46 -19 -7 -108 c-4 -60 -10 -114 -13 -121 -2 -7
-20 -13 -39 -13 -27 0 -33 4 -31 18 2 9 6 61 9 115 l5 97 -112 0 c-61 0 -211
7 -332 15 -343 23 -667 44 -940 60 -537 33 -743 46 -1385 89 -1257 85 -1555
106 -1680 116 -370 30 -976 66 -1280 76 -96 3 -184 6 -195 7 -19 2 -20 -4 -19
-91 1 -108 3 -112 81 -112 29 0 83 -5 120 -10 38 -6 118 -17 178 -25 l110 -13
-135 4 c-206 8 -401 23 -443 35 -20 5 -43 20 -51 32 -15 24 -30 245 -18 263
10 16 60 40 149 73 217 80 327 121 331 126 3 3 10 5 16 5 6 0 2 -7 -9 -16z
m3856 -29 c-61 -70 -30 -131 97 -191 207 -98 475 -129 992 -113 253 8 451 47
571 110 72 38 98 66 105 111 5 29 1 41 -26 71 -18 21 -29 37 -25 37 17 0 85
-56 85 -71 0 -8 16 -32 35 -53 25 -28 35 -47 34 -70 0 -17 -3 -24 -6 -16 -3 8
-18 29 -33 46 l-27 31 -27 -33 c-71 -89 -265 -150 -601 -189 -71 -8 -134 -15
-138 -15 -5 0 -7 -19 -5 -42 3 -42 4 -43 43 -49 22 -4 -10 -6 -75 -6 -63 0
-105 2 -92 4 19 4 22 11 22 49 l0 44 -67 0 c-83 0 -278 15 -393 31 -275 36
-477 117 -526 211 -19 38 -12 58 36 102 51 46 61 46 21 1z m-767 -181 c23 -9
20 -24 -11 -56 -28 -30 -64 -35 -147 -20 -50 9 -54 23 -19 56 24 23 37 26 95
26 36 0 73 -3 82 -6z m-1941 -422 c60 -27 81 -60 74 -115 -5 -36 -15 -51 -66
-98 -61 -56 -66 -69 -27 -69 36 0 83 -36 102 -79 28 -61 47 -53 78 32 15 39
46 116 69 170 37 86 45 97 63 93 11 -3 29 1 40 9 10 8 27 15 37 15 9 0 17 5
17 10 0 6 5 10 10 10 6 0 10 -9 10 -20 0 -11 4 -28 9 -38 5 -9 17 -71 28 -137
17 -112 20 -120 41 -123 15 -2 22 -9 18 -17 -3 -8 -1 -17 3 -20 5 -2 14 16 20
41 26 104 97 195 184 239 50 25 97 32 111 18 4 -4 14 -8 23 -8 24 0 56 -50 55
-85 -1 -48 -21 -100 -36 -94 -8 3 -16 -2 -20 -12 -6 -15 -9 -14 -26 6 -11 13
-20 34 -20 47 0 56 -86 -2 -132 -90 -29 -57 -31 -146 -3 -177 26 -29 78 -23
137 17 23 17 54 36 68 43 23 12 24 12 12 -3 -8 -9 -12 -23 -10 -31 2 -13 8
-12 30 7 25 20 30 36 53 174 31 185 37 203 64 196 13 -3 21 -1 21 7 0 7 8 9
20 5 11 -4 20 -2 20 4 0 21 16 11 26 -16 7 -20 6 -46 -3 -88 -7 -33 -12 -64
-13 -68 0 -10 19 4 139 105 50 43 97 75 104 72 7 -2 24 7 37 21 37 39 46 29
10 -11 -17 -20 -29 -39 -25 -42 3 -3 11 0 17 6 17 17 33 15 18 -3 -6 -8 -9
-19 -5 -25 9 -14 -13 -39 -90 -103 -33 -27 -79 -67 -103 -89 l-43 -39 97 -120
c53 -66 98 -118 101 -115 2 2 -1 13 -8 23 -13 22 -4 97 12 88 5 -4 9 -1 9 5 0
7 6 10 14 7 7 -3 18 -1 23 4 5 5 14 -5 22 -26 8 -23 20 -37 37 -41 36 -9 94 2
124 24 45 34 33 52 -70 105 -111 56 -138 79 -146 122 -11 60 38 120 138 171
119 60 228 31 228 -61 0 -31 -27 -88 -39 -80 -5 3 -12 -3 -16 -13 -6 -16 -7
-16 -16 1 -6 9 -14 15 -20 12 -5 -4 -9 8 -9 24 0 38 -18 40 -80 9 -67 -34 -61
-52 35 -104 44 -23 99 -60 123 -81 35 -32 42 -45 42 -75 0 -44 -33 -87 -94
-123 -76 -44 -219 -83 -201 -55 3 6 1 10 -5 10 -6 0 -29 9 -50 19 -22 11 -40
17 -40 14 0 -2 21 -32 47 -66 49 -64 45 -66 -24 -10 -45 36 -78 46 -50 15 27
-29 20 -35 -14 -12 -24 18 -39 21 -77 17 -42 -5 -44 -5 -19 5 15 7 27 15 27
19 0 4 -28 36 -63 71 -35 35 -79 82 -99 106 l-35 42 -18 -87 c-10 -49 -22 -92
-27 -98 -6 -6 -7 -3 -3 8 4 9 3 17 -2 17 -13 0 -33 -45 -35 -78 0 -16 -3 -9
-7 18 -5 36 -10 45 -24 43 -17 -1 -18 6 -15 63 2 35 1 64 -2 64 -3 0 -30 -25
-60 -56 -62 -63 -120 -104 -149 -104 -35 0 -109 40 -140 75 -17 20 -36 56 -42
80 -10 41 -30 58 -43 37 -3 -5 2 -40 10 -78 17 -82 17 -94 3 -74 -8 11 -9 1
-6 -40 l5 -55 -16 38 c-9 22 -20 36 -28 33 -7 -3 -15 6 -19 22 -7 25 -8 25
-15 7 -10 -25 -14 -15 -33 70 -15 67 -10 65 -113 44 -51 -10 -52 -10 -73 -69
-12 -33 -28 -60 -36 -60 -7 0 -19 -13 -27 -30 -17 -38 -24 -38 -32 2 -6 30 -7
31 -21 12 -19 -25 -19 -10 1 56 22 75 4 84 -56 25 -25 -24 -75 -63 -113 -88
-37 -24 -64 -46 -61 -50 4 -3 -20 -19 -52 -34 -80 -38 -78 -37 -70 -24 4 6 1
11 -8 11 -9 0 -18 -12 -22 -27 -9 -44 -12 -50 -13 -25 -1 12 -5 22 -10 22 -14
0 -21 -28 -21 -87 0 -31 -3 -53 -7 -49 -9 8 -9 13 -11 74 -2 45 -18 57 -25 20
l-4 -23 -8 23 c-8 24 -15 24 -72 6 -17 -5 -17 -5 1 10 20 16 13 41 -10 32 -8
-3 -14 -1 -14 5 0 5 7 12 15 15 21 9 19 27 -2 20 -24 -8 14 23 55 45 29 16 30
19 31 95 1 44 4 94 7 112 5 25 3 32 -10 32 -15 0 -21 17 -16 49 1 8 -4 17 -10
21 -8 5 -1 12 18 21 35 15 39 27 48 121 l7 68 -59 -24 c-54 -22 -95 -25 -63
-5 11 7 11 11 1 21 -10 10 -23 9 -65 -6 -84 -30 -86 -29 -15 8 61 33 105 69
65 53 -10 -3 -17 -2 -17 3 0 21 161 89 261 110 68 14 190 5 242 -18z m-1414
-282 c12 -135 26 -294 31 -355 19 -203 40 -500 39 -550 l-1 -50 -8 55 c-17
111 -71 775 -86 1035 -11 200 3 125 25 -135z m3899 158 c6 -40 16 -111 23
-158 10 -81 19 -100 46 -100 7 0 10 -7 7 -15 -4 -8 -2 -15 4 -15 5 0 17 21 27
48 26 68 55 111 114 165 64 60 141 97 203 97 66 0 96 -14 115 -55 16 -33 16
-37 -3 -82 -12 -28 -26 -47 -34 -45 -7 2 -17 -2 -21 -9 -11 -18 -39 14 -39 45
0 72 -150 -25 -200 -129 -25 -51 -26 -122 -3 -147 24 -27 80 -23 127 10 57 39
57 52 2 52 -34 0 -46 4 -47 15 -5 70 -5 70 37 76 21 4 78 10 126 14 l87 7 -3
-33 c-2 -19 -13 -59 -24 -89 -11 -30 -33 -95 -48 -145 -19 -64 -29 -84 -34
-70 -8 23 -17 11 -36 -49 l-13 -41 0 48 c-1 26 -5 47 -11 47 -5 0 -10 -7 -10
-15 0 -8 -4 -15 -8 -15 -5 0 -6 21 -1 48 4 26 6 48 5 50 -2 1 -24 -9 -50 -23
-54 -29 -71 -30 -119 -10 -74 31 -127 97 -127 160 0 20 -5 25 -25 25 -21 0
-24 -4 -20 -27 19 -112 21 -133 14 -133 -4 0 -10 6 -13 13 -3 6 -4 -14 -1 -46
6 -63 -8 -71 -19 -11 -4 21 -12 34 -19 31 -7 -2 -17 5 -24 17 -7 12 -12 15
-13 9 0 -7 -4 -13 -8 -13 -5 0 -15 32 -22 71 l-12 71 -62 -6 c-105 -12 -105
-12 -142 -90 -19 -39 -34 -63 -34 -54 0 28 -25 10 -49 -35 -20 -39 -21 -40
-17 -12 6 39 -9 68 -23 45 -21 -31 -18 -2 4 50 17 40 20 56 11 58 -15 3 -17
62 -3 62 5 0 4 7 -3 15 -10 12 -7 15 17 20 15 4 31 7 35 8 7 2 128 240 124
244 -2 3 -210 -27 -213 -30 -2 -3 -49 -186 -79 -312 -23 -94 -30 -113 -34 -90
l-6 30 -27 -46 c-15 -25 -27 -51 -27 -57 0 -7 -4 -12 -9 -12 -5 0 -4 20 1 46
7 32 7 49 -1 57 -8 8 -11 8 -11 -1 0 -7 -4 -12 -10 -12 -12 0 -5 58 30 235 16
77 26 142 24 144 -2 2 -29 -1 -60 -8 -77 -15 -112 -15 -96 1 8 8 9 15 1 25 -8
9 -8 17 0 26 7 9 7 17 0 24 -18 18 14 32 97 43 43 6 90 16 104 22 31 13 264
20 293 8 l22 -8 -24 -9 c-22 -9 -23 -10 -5 -17 18 -7 17 -8 -5 -20 -24 -13
-24 -13 13 -18 34 -4 39 -1 57 32 17 29 27 37 52 37 47 2 97 14 97 24 0 5 4 9
9 9 4 0 13 -33 19 -72z m1098 -42 c9 -9 24 -14 34 -11 10 3 21 1 24 -4 4 -5
-13 -13 -38 -16 -25 -4 -53 -13 -63 -21 -17 -12 -16 -13 7 -14 55 -1 -5 -18
-84 -24 -160 -13 -174 -16 -179 -39 -3 -12 -9 -33 -13 -46 -7 -23 -6 -23 62
-21 38 2 82 2 98 1 28 -1 29 -2 10 -16 -19 -14 -18 -14 4 -15 33 0 27 -16 -10
-25 -28 -6 -30 -8 -14 -14 30 -11 4 -18 -100 -26 l-90 -7 -11 -37 c-6 -20 -14
-43 -17 -51 -5 -13 14 -15 148 -12 97 3 161 0 173 -7 15 -9 13 -10 -17 -11
-66 -1 -9 -20 65 -21 75 -2 68 -4 -37 -14 -65 -6 -96 -25 -41 -25 14 0 24 -2
22 -4 -2 -2 -76 -10 -164 -16 -88 -7 -172 -18 -187 -25 -20 -10 -28 -10 -31
-1 -3 6 -9 0 -15 -14 -9 -22 -11 -23 -17 -7 -5 11 -18 17 -37 17 -22 0 -29 4
-25 14 3 8 3 17 -1 21 -4 3 -7 19 -8 35 -1 22 3 30 19 32 27 4 65 107 45 123
-20 16 -10 73 13 80 20 7 30 25 43 77 5 22 2 27 -16 30 -22 3 -34 43 -16 54 4
3 8 13 8 23 0 32 65 50 189 50 63 1 117 4 120 7 12 13 130 -4 147 -20z m-2647
-561 c33 -10 69 -31 88 -50 33 -33 34 -35 18 -64 -14 -28 -82 -74 -160 -110
l-30 -14 35 -8 c88 -22 111 -31 140 -55 23 -20 30 -34 30 -62 0 -31 -8 -44
-53 -87 -60 -56 -108 -82 -241 -132 -68 -25 -81 -32 -51 -29 51 7 41 2 -68
-29 -95 -27 -110 -30 -87 -15 12 8 12 10 -5 9 -11 0 -38 -6 -59 -12 -31 -10
-42 -19 -52 -47 l-12 -35 -1 32 c-1 24 -5 31 -15 27 -17 -7 -31 -41 -45 -114
-10 -54 -10 -53 -5 23 5 71 3 78 -13 75 -9 -2 -20 -14 -24 -28 l-6 -25 -7 27
c-5 15 -13 25 -19 23 -35 -10 -77 -13 -77 -6 0 13 37 21 110 25 37 2 117 20
185 41 66 20 150 45 187 56 77 22 201 70 195 75 -2 2 -30 -5 -62 -17 -32 -11
-64 -18 -71 -15 -8 3 -14 0 -14 -7 0 -8 -4 -6 -10 3 -5 8 -10 12 -10 7 0 -4
-13 -1 -30 8 -18 9 -30 11 -30 5 0 -6 -10 -8 -23 -5 -13 4 -59 -3 -102 -14
-84 -22 -107 -26 -89 -13 10 7 34 65 34 84 0 9 -92 4 -108 -6 -16 -10 -24 -69
-10 -77 20 -13 -1 -26 -66 -43 -62 -16 -81 -26 -52 -26 9 0 14 -5 11 -10 -4
-6 -12 -7 -18 -3 -7 4 -6 0 2 -10 12 -15 10 -17 -25 -16 -34 0 -36 2 -16 9 24
10 30 30 10 30 -22 1 23 22 70 34 l45 12 24 89 c12 50 26 101 29 114 6 20 4
23 -11 18 -12 -5 -16 -3 -12 7 3 8 1 17 -6 19 -9 3 -8 8 2 20 11 14 11 17 1
17 -20 0 -2 14 32 26 27 9 35 21 60 88 l28 79 -37 -7 c-95 -16 -118 -17 -104
-8 16 12 6 32 -17 33 -13 0 -14 2 -2 6 8 3 23 15 35 25 20 19 20 19 -10 12
-25 -5 -28 -4 -18 7 7 7 59 23 115 35 90 20 125 23 273 20 126 -2 184 -8 224
-21z m793 -3 c2 -5 37 -5 78 -1 41 4 111 8 155 7 l80 0 -50 -13 c-48 -13 -49
-13 -15 -15 l35 -2 -35 -14 c-34 -13 -34 -14 -5 -10 101 15 393 27 415 18 l25
-11 -25 -1 c-22 -1 -23 -2 -7 -11 10 -6 25 -8 33 -5 8 3 14 2 14 -3 0 -5 -24
-15 -52 -24 -43 -12 -47 -16 -24 -16 68 -2 4 -20 -112 -32 l-124 -13 -19 -37
c-10 -21 -19 -41 -19 -45 0 -4 36 -4 80 0 44 3 92 3 107 -1 l28 -7 -25 -7 -25
-6 25 -11 c14 -6 20 -11 13 -11 -6 -1 -24 -6 -40 -12 -26 -10 -26 -12 -8 -19
14 -5 -2 -9 -50 -14 -154 -15 -151 -14 -164 -54 -7 -21 -15 -42 -17 -49 -4 -8
45 -10 193 -8 109 2 181 1 161 -1 -71 -9 -36 -32 52 -35 43 -2 42 -2 -15 -9
-33 -4 -80 -10 -104 -15 -32 -6 -42 -5 -37 3 4 7 16 12 27 12 11 0 17 5 14 10
-3 6 -15 10 -26 10 -13 0 -18 4 -13 11 5 9 -21 10 -102 5 -60 -4 -124 -10
-143 -13 -33 -6 -34 -5 -27 23 4 16 8 33 9 39 1 5 -13 11 -30 13 -18 2 -33 7
-33 13 0 5 -4 9 -8 9 -9 0 -39 -80 -34 -93 1 -4 -11 -12 -26 -18 -24 -8 -28
-15 -24 -34 3 -19 0 -25 -13 -25 -12 0 -15 5 -11 17 4 9 1 20 -5 24 -7 4 2 11
23 18 28 9 36 19 48 59 18 57 18 68 3 65 -10 -2 -11 33 -3 57 2 3 2 8 2 11 -1
4 10 10 24 13 38 10 74 106 39 106 -12 0 -12 5 -5 26 10 26 9 26 -22 21 -18
-3 -63 -9 -99 -13 l-67 -6 -51 -137 c-100 -263 -116 -303 -119 -288 -2 8 7 38
19 68 37 94 42 118 25 134 -9 10 -17 11 -21 5 -4 -6 -21 -9 -39 -7 -33 4 -34
3 -56 -61 -17 -47 -20 -67 -12 -70 7 -2 12 -8 12 -13 0 -4 -6 -6 -13 -3 -8 3
-18 -9 -26 -31 -7 -20 -15 -34 -18 -32 -5 5 63 221 108 344 13 35 21 65 18 68
-3 2 -34 0 -70 -5 -147 -22 -136 -22 -116 -6 17 13 17 15 2 24 -16 8 -16 11
-1 35 13 19 14 26 4 30 -25 9 39 25 143 37 57 7 109 16 114 20 6 5 21 10 35
13 14 2 28 5 32 6 3 0 8 -3 10 -7z m1088 -20 c19 -9 37 -26 39 -37 2 -11 8
-23 14 -27 17 -11 -28 -99 -47 -92 -9 3 -17 -3 -22 -18 l-7 -23 -9 24 c-7 19
-11 21 -22 11 -12 -9 -15 -6 -18 22 -4 41 -21 45 -92 23 -62 -20 -116 -59
-101 -74 6 -5 62 -30 126 -54 203 -79 249 -110 249 -167 0 -14 -7 -34 -15 -44
-8 -10 -12 -23 -9 -27 3 -5 -1 -9 -8 -9 -7 0 -22 -8 -33 -16 -18 -14 -15 -15
50 -9 39 3 80 8 93 11 12 2 22 0 22 -4 0 -5 -47 -14 -106 -20 -93 -9 -120 -17
-240 -68 -74 -31 -132 -59 -129 -62 6 -6 -63 -36 -118 -52 -18 -6 -25 -5 -21
2 9 14 -21 4 -155 -53 -131 -56 -164 -58 -45 -3 43 21 74 39 68 41 -6 2 -82
-21 -169 -52 -87 -30 -163 -54 -168 -52 -11 3 34 23 138 60 126 45 213 69 224
62 6 -3 11 -1 11 5 0 8 9 10 23 6 24 -6 238 66 347 117 l55 25 -47 1 c-26 1
-49 5 -52 10 -18 28 -66 17 -236 -55 -96 -41 -200 -90 -230 -107 -64 -38 -119
-62 -126 -55 -6 7 204 111 378 187 191 84 294 137 301 155 7 19 -12 39 -50 54
-15 6 -77 30 -138 53 -153 59 -187 97 -150 168 34 66 234 160 340 161 28 0 65
-8 85 -18z m-1474 -19 c-4 -9 -1 -20 5 -24 9 -5 2 -38 -28 -126 -23 -65 -53
-154 -69 -198 -44 -130 -76 -205 -69 -165 4 19 16 61 26 93 26 73 23 99 -13
104 -16 2 -28 -1 -28 -7 0 -5 -5 -10 -11 -10 -5 0 -8 4 -5 8 3 5 -1 9 -9 9 -8
0 -12 -4 -9 -8 2 -4 -3 -14 -11 -22 -8 -9 -22 -46 -31 -83 -15 -65 -32 -109
-39 -102 -4 3 13 66 59 223 65 224 102 317 116 295 7 -11 14 -11 38 -1 17 7
35 10 40 7 5 -3 15 1 22 9 16 20 24 19 16 -2z m-2348 -156 c15 -12 16 -63 0
-73 -17 -11 -92 -7 -133 6 -30 10 -35 16 -35 44 0 18 3 36 7 40 10 9 145 -4
161 -17z m243 -17 c27 -15 26 -70 -1 -77 -11 -3 -20 -8 -20 -12 0 -3 9 -12 20
-19 24 -15 28 -70 5 -78 -8 -3 -47 -2 -87 3 l-73 8 -3 37 c-3 35 -2 37 30 40
l33 3 -32 18 c-28 15 -33 23 -33 52 l0 35 71 0 c39 0 79 -5 90 -10z m4692
-146 c35 -6 37 -8 37 -45 l0 -39 -64 0 c-35 0 -78 3 -95 6 -28 6 -31 10 -31
45 l0 39 58 0 c31 0 74 -3 95 -6z m-8 -122 c38 -7 40 -9 40 -42 0 -34 -2 -35
-40 -38 -22 -2 -64 -1 -92 3 -52 6 -53 7 -53 39 0 18 3 36 7 39 8 9 86 8 138
-1z m-2405 -42 c0 -5 -8 -31 -18 -57 l-18 -48 340 -1 c188 -1 354 -6 369 -11
17 -5 -111 -8 -330 -8 -539 0 -715 -14 -1023 -82 -121 -27 -56 -26 152 2 257
35 629 65 693 55 28 -4 149 -6 270 -5 211 4 214 3 75 -5 -342 -21 -525 -40
-689 -75 -41 -8 -76 -13 -79 -10 -14 14 243 67 388 79 25 2 -18 3 -95 1 -161
-4 -434 -33 -661 -70 -86 -14 -173 -25 -193 -23 l-36 3 32 17 c76 42 374 96
645 117 64 5 120 11 125 14 5 4 16 31 23 62 7 30 17 55 22 55 4 0 8 -4 8 -10z
m-2935 -79 c24 -6 129 -18 234 -26 105 -9 203 -20 216 -25 26 -10 318 -36 750
-67 138 -10 236 -19 219 -21 -17 -2 -204 8 -415 22 -379 25 -628 40 -866 51
l-123 6 -1 -43 c-1 -24 -4 -33 -6 -20 -3 14 -11 22 -21 20 -11 -2 -18 6 -22
26 -4 22 -12 32 -35 38 -44 12 -55 4 -55 -42 0 -22 -5 -40 -10 -40 -7 0 -10
28 -8 77 3 70 5 79 27 89 20 11 27 9 49 -11 14 -13 44 -28 67 -34z m6595 21
c0 -11 -41 -39 -128 -87 -70 -38 -217 -119 -328 -181 -110 -61 -229 -122 -263
-135 -35 -12 -66 -29 -69 -38 -8 -19 -42 -24 -42 -7 0 12 -40 15 -570 46 -512
30 -998 61 -1015 65 -30 6 209 -4 480 -21 637 -38 788 -45 900 -39 66 3 165 6
220 7 80 1 110 5 152 24 69 30 192 102 218 128 45 44 238 151 255 141 10 -6
126 51 165 81 19 14 19 16 3 28 -24 18 -23 29 2 16 11 -6 20 -18 20 -28z
m-1475 -2 c22 -8 26 -15 23 -42 -3 -31 -5 -33 -48 -36 -25 -1 -65 1 -90 6 -36
6 -46 12 -48 30 -7 45 3 52 72 52 36 0 77 -4 91 -10z m253 -22 c20 -20 15 -66
-8 -73 -30 -10 -153 5 -169 20 -9 8 -11 23 -7 39 6 25 8 26 89 26 51 0 88 -5
95 -12z"/>
<path d="M3476 4723 c-9 -48 -16 -103 -16 -120 0 -39 -4 -39 -61 -13 -24 11
-65 20 -91 20 -57 0 -79 -19 -109 -99 -24 -63 -37 -229 -22 -294 6 -29 8 -7 9
85 1 67 6 137 11 153 7 22 8 -1 5 -82 -5 -114 18 -304 40 -331 6 -7 8 -15 4
-19 -3 -3 -6 0 -6 7 0 7 -2 11 -5 8 -22 -22 67 -128 134 -161 43 -21 57 -22
232 -19 l187 3 123 -41 c160 -54 263 -63 367 -31 60 18 79 30 126 78 84 86
130 222 130 388 1 140 -32 223 -104 260 -35 18 -146 20 -220 4 -28 -6 -54 -9
-56 -6 -3 3 2 29 10 58 9 29 14 54 12 57 -3 2 -12 -23 -21 -57 -19 -66 -17
-65 -120 -82 -167 -27 -359 -11 -507 43 l-58 21 0 42 c0 24 7 80 16 125 8 45
13 84 11 87 -3 2 -12 -36 -21 -84z m-3 -378 c20 -4 40 -12 44 -17 3 -6 5 -44
4 -85 -1 -49 1 -73 8 -68 6 3 29 1 51 -5 33 -9 40 -15 40 -35 0 -17 -6 -25
-17 -25 -15 0 -14 -2 3 -14 16 -13 17 -18 6 -35 -7 -13 -8 -21 -2 -21 5 0 10
-9 10 -21 0 -18 -5 -20 -42 -17 -40 3 -43 5 -43 32 -1 16 -5 31 -11 33 -7 2
-9 -8 -6 -27 l4 -31 -43 7 c-24 4 -53 11 -63 17 -10 5 -40 14 -65 21 -46 11
-46 11 -48 55 -1 24 -4 60 -8 79 l-6 35 49 -6 c48 -6 49 -5 44 20 -4 22 -8 24
-38 18 -27 -5 -34 -3 -34 10 0 14 8 15 47 9 43 -6 46 -5 38 12 -10 24 -14 57
-8 67 3 5 15 6 27 3 11 -2 38 -8 59 -11z m774 -141 l-3 -76 33 7 c19 3 43 3
54 0 18 -6 20 -12 14 -58 -3 -29 -6 -67 -5 -84 1 -33 1 -33 -50 -33 -46 0 -50
2 -50 24 0 22 5 25 43 29 l42 4 -47 1 c-46 2 -47 1 -50 -30 l-3 -33 -77 -3
-78 -3 0 36 c0 20 -4 34 -8 31 -5 -3 -7 -19 -4 -36 l4 -31 -48 3 c-38 2 -50 7
-52 22 -2 10 2 22 10 27 9 6 9 9 1 9 -8 0 -12 18 -10 58 l2 57 58 0 57 -1 0
38 c0 21 4 38 9 38 4 0 6 11 3 25 -9 48 1 55 83 55 l76 0 -4 -76z"/>
<path d="M204 2234 c-4 -15 -3 -65 2 -112 9 -86 9 -86 42 -96 18 -5 35 -6 38
-3 8 7 6 161 -2 193 -4 14 -18 27 -36 33 -40 14 -37 15 -44 -15z"/>
<path d="M1630 1493 c-75 -11 -67 5 -97 -197 l-5 -39 62 34 c91 50 170 124
170 159 0 24 -5 29 -44 39 -25 6 -48 10 -53 10 -4 -1 -19 -3 -33 -6z"/>
<path d="M2469 1054 c-8 -3 -27 -34 -41 -70 l-26 -66 24 6 c52 13 191 67 223
87 31 19 33 22 17 31 -20 11 -171 20 -197 12z"/>
<path d="M2450 815 c-8 -2 -32 -6 -52 -10 l-37 -6 -32 -99 c-18 -55 -30 -103
-27 -105 8 -9 166 44 253 85 97 45 150 86 135 105 -19 23 -179 42 -240 30z"/>
<path d="M5574 5343 c-20 -21 -60 -108 -81 -177 -8 -27 -30 -83 -48 -125 -18
-42 -37 -94 -41 -116 -4 -22 -17 -52 -30 -68 -13 -15 -31 -53 -41 -83 -15 -50
-22 -58 -64 -80 -26 -13 -56 -35 -68 -50 -41 -52 -22 -169 53 -314 l33 -65
-25 -38 c-27 -41 -25 -59 4 -30 11 10 18 16 17 14 -1 -2 4 -16 12 -31 8 -15
11 -30 8 -34 -13 -13 30 -75 70 -102 45 -29 137 -65 149 -58 5 3 8 52 8 110 0
84 3 104 14 104 8 0 17 -8 20 -17 4 -10 22 -42 40 -72 l34 -55 21 34 c11 18
17 38 14 43 -3 5 4 15 16 23 26 19 19 34 -12 28 -12 -3 -3 4 20 15 25 12 54
37 72 63 17 24 38 54 48 67 9 14 18 20 20 14 6 -17 -31 -84 -61 -112 -23 -22
-26 -32 -26 -90 0 -47 3 -62 11 -54 6 6 10 32 8 57 -5 55 8 56 36 0 15 -30 20
-35 23 -20 2 10 -6 32 -18 48 -25 34 -27 29 40 138 22 36 61 103 86 149 73
131 71 209 -5 241 -22 9 -31 19 -31 36 0 30 -30 58 -79 73 -28 8 -41 18 -45
36 -7 26 -51 55 -84 55 -11 0 -36 -7 -55 -15 -20 -8 -38 -11 -41 -7 -4 7 49
181 67 216 24 48 47 133 47 173 0 33 -6 50 -25 68 -29 30 -85 34 -111 8z m168
-480 c8 -10 18 -26 22 -37 7 -20 -31 -159 -42 -154 -4 2 -33 16 -64 31 -53 26
-56 29 -48 55 25 84 53 122 89 122 15 0 35 -8 43 -17z m125 -95 c29 -23 23
-116 -10 -162 -13 -18 -16 -18 -60 9 -26 15 -47 29 -47 32 0 3 10 36 22 74 23
69 23 69 53 63 16 -3 35 -11 42 -16z m-522 -111 c0 -53 0 -54 -40 -71 -22 -9
-49 -23 -59 -31 -19 -14 -19 -15 -1 -35 10 -11 13 -20 7 -20 -32 0 -63 103
-40 132 11 15 114 77 128 78 3 0 5 -24 5 -53z"/>
<path d="M5550 4069 l0 -92 41 7 c44 7 93 29 122 54 13 11 17 29 15 71 l-1 56
-6 -45 c-4 -33 -11 -45 -23 -45 -9 0 -25 -8 -35 -18 -11 -9 -24 -17 -29 -17
-5 0 -24 27 -42 60 -18 33 -35 60 -37 60 -3 0 -5 -41 -5 -91z"/>
</g>
</svg>
