<?xml version="1.0" standalone="no"?>
<!DOCTYPE svg PUBLIC "-//W3C//DTD SVG 20010904//EN"
 "http://www.w3.org/TR/2001/REC-SVG-20010904/DTD/svg10.dtd">
<svg version="1.0" xmlns="http://www.w3.org/2000/svg"
 width="720.000000pt" height="544.000000pt" viewBox="0 0 720.000000 544.000000"
 preserveAspectRatio="xMidYMid meet">
<metadata>
Created by potrace 1.16, written by Peter Selinger 2001-2019
</metadata>
<g transform="translate(0.000000,544.000000) scale(0.100000,-0.100000)"
fill="#000000" stroke="none">
<path d="M3033 5265 c-268 -42 -488 -158 -656 -345 -84 -93 -204 -321 -191
-362 6 -21 7 -21 20 -3 12 16 14 17 14 2 0 -10 14 -20 38 -27 50 -13 51 -37 3
-44 -56 -7 -70 -5 -64 13 4 11 -1 9 -17 -6 -32 -30 -45 -124 -24 -166 9 -16
18 -53 21 -83 5 -48 2 -62 -32 -128 -37 -73 -37 -76 -33 -168 3 -78 9 -104 34
-158 39 -82 112 -164 177 -197 30 -15 101 -34 174 -48 97 -18 132 -29 164 -51
58 -41 160 -94 181 -94 10 0 18 -4 18 -10 0 -15 -37 -12 -63 4 -45 28 -62 28
-98 -4 -19 -16 -36 -30 -39 -30 -3 0 -54 -2 -115 -4 -122 -5 -241 -32 -287
-66 -32 -24 -46 -19 -91 29 -42 45 -137 72 -273 78 -148 7 -193 -4 -350 -89
-119 -63 -161 -92 -270 -187 -65 -56 -157 -221 -123 -221 5 0 9 5 9 11 0 6 8
9 18 7 9 -2 17 -9 16 -16 -1 -6 -2 -31 -3 -54 l-1 -43 -42 -2 c-48 -2 -58 -13
-58 -67 0 -33 3 -38 20 -33 13 3 20 0 20 -8 0 -20 36 -28 62 -14 23 12 23 12
4 -10 -13 -14 -16 -25 -10 -31 5 -5 71 -25 147 -44 126 -32 261 -53 472 -74
69 -7 47 -9 -167 -16 -207 -7 -266 -6 -368 8 -68 9 -124 15 -127 13 -6 -6 94
-44 159 -61 104 -27 250 -38 414 -33 88 3 214 6 281 6 255 0 516 59 586 132
24 26 4 25 -65 -1 -62 -24 -213 -50 -278 -49 -45 1 -45 1 -12 10 53 16 37 22
-40 16 -72 -6 -72 -6 57 27 267 69 335 96 335 134 0 6 8 12 18 14 13 3 10 7
-13 20 -63 33 -158 58 -277 74 -150 19 -212 35 -123 30 33 -2 94 -9 135 -16
103 -17 392 9 424 39 12 10 44 22 71 26 28 3 69 17 92 30 41 22 42 22 72 4 19
-11 43 -43 62 -81 17 -35 51 -91 75 -126 24 -35 44 -67 44 -71 0 -17 -44 -20
-61 -5 -12 11 -47 17 -113 21 l-96 6 0 42 c0 26 -6 48 -15 55 -12 10 -15 9
-15 -7 0 -10 -13 -34 -30 -53 -16 -19 -29 -42 -30 -51 0 -21 -20 -29 -70 -29
-30 0 -41 -5 -56 -27 -63 -97 -217 -148 -551 -185 l-203 -22 0 -37 c0 -37 1
-38 43 -42 23 -2 2 -4 -46 -5 -56 -1 -86 2 -82 8 3 5 3 25 -1 45 l-6 35 -58 0
c-31 0 -115 5 -186 10 -242 19 -390 55 -469 112 -22 16 -68 37 -102 48 -34 10
-75 26 -91 34 -32 16 23 35 -597 -206 -72 -27 -140 -59 -152 -71 -25 -23 -28
-68 -14 -221 6 -67 10 -81 31 -97 14 -11 31 -24 38 -29 6 -6 12 -32 12 -58 0
-26 20 -288 44 -582 25 -294 48 -574 51 -621 l7 -86 -32 -13 c-18 -7 -46 -24
-61 -38 -31 -26 -35 -53 -22 -147 6 -45 8 -48 57 -71 61 -27 38 -25 1421 -119
947 -65 1827 -127 2325 -165 140 -10 383 -28 540 -40 157 -11 335 -25 396 -30
60 -6 397 -10 748 -10 l638 0 157 91 c465 272 488 287 500 320 6 18 11 58 11
90 0 54 -2 59 -36 87 l-36 30 21 258 c12 143 34 454 50 692 l30 432 29 29 c26
27 29 37 35 122 4 51 7 124 7 164 0 120 -7 123 -380 150 -118 8 -239 18 -267
21 l-53 5 0 43 c0 76 -10 106 -42 122 -33 17 -147 21 -175 6 -13 -7 -37 -6
-81 4 -116 27 -317 54 -445 61 -142 7 -152 11 -201 81 l-28 41 17 69 c24 99
18 263 -11 312 -15 25 -20 46 -17 76 9 81 -68 186 -156 212 -47 15 -118 16
-126 2 -10 -17 -44 -11 -88 14 -68 39 -278 96 -342 93 -28 -2 -30 0 -33 38 -4
68 -11 85 -54 131 -80 87 -247 154 -342 138 -98 -16 -179 -63 -221 -128 -15
-23 -24 -26 -70 -26 -29 0 -82 -9 -116 -20 -35 -10 -65 -17 -67 -15 -3 2 13
26 35 52 22 26 50 67 62 91 21 41 23 42 70 42 43 0 56 5 101 43 29 23 67 52
85 64 149 100 189 328 91 521 -30 58 -116 142 -183 175 -64 33 -103 78 -103
121 0 39 -42 107 -81 130 -16 9 -58 46 -94 81 -75 75 -192 136 -340 181 -74
21 -114 27 -220 29 -72 2 -167 -3 -212 -10z m263 -273 c135 -36 264 -116 329
-206 20 -27 30 -55 34 -100 4 -33 14 -74 23 -91 11 -21 17 -72 22 -170 3 -77
8 -156 11 -175 5 -28 2 -25 -14 17 -44 119 -113 216 -167 239 -84 35 -160 9
-355 -119 -138 -91 -211 -128 -332 -169 -82 -28 -106 -32 -222 -34 -190 -4
-212 -9 -236 -47 -24 -41 -24 -69 2 -153 20 -68 43 -110 33 -63 -5 21 -4 22 6
7 6 -10 10 -24 9 -30 -3 -29 2 -49 11 -43 6 4 7 -1 3 -11 -4 -12 -3 -15 5 -10
8 5 10 1 5 -10 -4 -12 -3 -15 5 -10 8 5 10 1 5 -10 -4 -12 -3 -15 5 -10 8 5
12 0 12 -14 0 -12 4 -18 10 -15 6 4 9 2 8 -3 -5 -15 78 -124 132 -175 70 -66
93 -75 170 -68 56 6 78 15 160 64 113 69 159 83 315 98 260 23 411 120 445
285 11 52 10 79 -5 209 -4 30 4 16 31 -55 50 -135 68 -211 55 -232 -17 -27
-13 -33 8 -14 13 12 21 14 26 6 4 -6 16 -8 27 -5 18 6 19 5 5 -22 -27 -52
-134 -158 -223 -222 -128 -91 -128 -91 -170 -50 -19 19 -45 49 -56 67 -11 18
-22 31 -25 28 -3 -2 9 -25 26 -50 35 -50 37 -58 16 -50 -8 4 -15 2 -15 -3 0
-6 -12 -15 -27 -22 -52 -24 -228 -71 -265 -71 -21 0 -38 -4 -38 -9 0 -22 77
-29 113 -9 12 6 44 12 71 13 29 1 51 6 54 13 2 7 8 10 13 7 4 -3 38 6 74 21
37 14 69 24 72 21 9 -9 -42 -37 -125 -67 -303 -110 -574 -83 -740 74 -61 57
-166 210 -207 301 -73 162 -116 353 -101 449 27 175 110 349 225 469 131 137
267 215 409 236 106 16 263 12 338 -7z m789 -288 l30 -25 -37 17 c-36 17 -40
17 -74 1 -25 -13 -41 -30 -56 -64 -18 -42 -20 -60 -15 -167 3 -67 8 -131 10
-142 12 -50 79 -192 106 -223 l29 -34 47 26 c35 20 52 24 65 17 9 -5 20 -6 24
-2 4 3 4 -1 0 -11 -3 -9 -9 -17 -13 -17 -4 0 -26 -16 -48 -35 -49 -41 -61 -43
-111 -11 -99 62 -167 214 -179 396 -9 150 35 273 110 305 36 15 67 6 112 -31z
m105 -70 c69 -58 114 -195 108 -324 -5 -110 -27 -154 -78 -157 -21 0 -26 1
-12 4 35 7 72 97 72 171 0 109 -34 194 -105 270 -40 42 -48 62 -25 62 5 0 23
-12 40 -26z m-1957 -462 c-12 -47 -13 -71 -4 -137 14 -98 30 -146 87 -255 62
-120 111 -171 201 -206 l38 -14 -69 5 c-107 9 -132 27 -204 151 -41 71 -96
235 -108 323 -7 52 13 139 41 179 26 36 34 16 18 -46z m1165 20 c2 -18 9 -32
17 -32 16 0 26 -25 19 -45 -7 -17 7 -20 23 -4 14 14 78 28 92 19 8 -4 5 -14
-8 -32 l-20 -25 24 5 c29 5 44 -20 26 -42 -9 -11 -7 -15 10 -19 31 -8 20 -39
-24 -62 -33 -17 -39 -18 -48 -5 -8 12 -9 11 -7 -5 2 -16 -10 -26 -56 -48 -33
-16 -69 -29 -80 -30 -12 0 -23 -4 -26 -9 -3 -4 -22 -14 -42 -22 -33 -14 -38
-14 -52 0 -9 8 -16 23 -16 31 0 9 -6 24 -14 32 -8 9 -16 34 -18 55 -3 38 -1
40 37 55 22 8 42 16 44 18 6 4 -20 85 -31 98 -22 25 -7 47 55 75 77 36 91 34
95 -8z m-672 -229 c3 -10 10 -26 15 -35 5 -10 9 -27 9 -38 0 -18 5 -19 60 -13
57 5 60 5 60 -16 0 -16 -6 -21 -24 -21 -14 0 -27 -3 -29 -7 -3 -5 14 -8 36 -8
37 0 42 -3 45 -24 2 -14 11 -35 19 -47 19 -29 10 -44 -28 -44 -16 0 -47 -9
-69 -20 -45 -23 -90 -26 -109 -7 -10 10 -12 9 -9 -3 2 -10 -7 -16 -29 -18 -28
-3 -34 2 -57 41 -29 48 -33 73 -13 80 7 3 5 6 -5 6 -10 1 -18 3 -18 5 0 2 -3
11 -6 20 -5 12 1 16 24 16 22 0 32 -6 37 -20 3 -11 11 -20 16 -20 5 0 5 7 -1
18 -11 20 -60 132 -60 139 0 10 68 32 98 33 23 0 34 -5 38 -17z m1715 -63 c98
-33 185 -95 215 -152 15 -30 19 -51 5 -29 -19 29 -142 -70 -216 -173 l-20 -27
-40 20 c-22 12 -62 32 -90 45 -27 13 -81 40 -120 60 -41 22 -71 33 -73 27 -2
-6 -8 -9 -13 -5 -5 3 -9 -6 -9 -19 0 -33 57 -116 99 -144 41 -28 29 -31 -15
-4 -46 28 -92 104 -99 165 -9 72 7 124 52 168 46 44 73 58 138 74 73 18 118
16 186 -6z m-512 -242 c-20 -65 -13 -178 15 -262 32 -93 66 -146 138 -211 40
-36 45 -44 21 -30 -18 11 -33 24 -33 29 0 6 -7 0 -16 -12 -14 -21 -14 -25 1
-50 20 -32 -122 119 -147 157 -10 14 -18 22 -18 18 0 -12 36 -62 90 -127 55
-65 73 -93 47 -71 -11 9 -17 10 -17 2 0 -6 -5 -11 -11 -11 -7 0 -9 9 -5 24 6
26 -18 45 -28 21 -3 -8 0 -15 5 -17 6 -2 1 -15 -10 -28 -14 -16 -19 -19 -15
-7 11 31 -2 18 -71 -69 -65 -81 -111 -124 -146 -136 -8 -3 -58 0 -110 8 -111
17 -219 15 -219 -3 0 -7 -5 -13 -10 -13 -6 0 -28 -11 -50 -25 l-40 -25 -41 27
-41 27 -18 -24 c-14 -19 -21 -22 -32 -12 -24 20 -67 105 -83 167 -25 99 -16
205 19 205 7 0 16 10 19 22 5 19 8 20 23 7 16 -13 16 -12 5 9 -15 27 -7 28 30
1 22 -16 45 -21 92 -21 109 0 215 59 316 177 36 41 71 75 78 75 7 0 13 4 13 9
0 5 9 13 20 16 11 4 18 11 15 16 -4 5 0 9 8 9 8 0 25 11 39 24 13 14 49 42 78
62 30 21 63 46 74 56 26 24 26 23 15 -14z m951 -73 c105 -29 200 -68 200 -84
0 -7 -8 -7 -26 -1 -50 19 -67 12 -115 -48 -35 -42 -113 -181 -125 -219 -1 -4
-195 67 -226 83 -33 17 -33 22 -8 116 11 40 109 154 145 168 32 14 54 11 155
-15z m-2814 -229 c28 -9 66 -26 85 -39 42 -28 87 -109 90 -162 4 -75 4 -73
-48 -63 -61 11 -206 8 -214 -4 -4 -6 -10 16 -14 48 -19 156 -95 220 -249 212
-41 -2 -73 -2 -71 0 2 2 27 10 57 17 72 19 295 13 364 -9z m541 -12 c16 -3 34
-14 40 -23 10 -16 7 -17 -37 -13 -29 2 -50 0 -54 -7 -4 -6 -1 -9 7 -5 16 6 31
-22 20 -38 -4 -8 13 -9 55 -5 73 8 90 -6 27 -22 l-45 -11 25 -28 c17 -18 21
-28 13 -31 -20 -5 -38 -33 -38 -57 0 -27 -16 -33 -115 -43 l-73 -7 -12 57
c-23 109 -71 163 -137 156 -18 -2 -33 -2 -33 0 0 15 71 39 172 58 140 27 145
27 185 19z m2707 -14 c64 -24 120 -80 135 -137 22 -79 7 -323 -20 -323 -5 0
-9 6 -9 13 -1 23 -70 106 -102 123 -46 24 -125 44 -174 44 -50 0 -130 -23
-153 -44 -17 -15 -17 -13 -13 38 3 44 1 59 -14 73 -16 17 -16 18 -1 21 9 2 17
7 17 12 0 5 -6 7 -14 4 -10 -4 -13 2 -10 23 4 28 3 28 -5 3 -5 -14 -9 -75 -10
-136 -1 -78 -5 -116 -15 -130 -14 -18 -15 -18 -21 9 -16 61 12 251 45 304 63
104 233 152 364 103z m-3659 -65 c40 -39 29 -139 -19 -188 -24 -23 -31 -22
-65 15 l-30 32 -51 -18 c-51 -18 -52 -18 -81 3 l-29 22 -30 -23 c-23 -17 -33
-19 -42 -10 -16 16 19 53 105 109 133 87 198 103 242 58z m2838 -81 c25 -4 44
-16 58 -35 11 -16 29 -34 40 -39 25 -14 207 -66 259 -75 l40 -7 0 -68 0 -69
-52 -50 c-29 -27 -49 -53 -45 -58 5 -4 23 8 40 28 48 52 78 76 120 94 53 22
46 10 -11 -19 -26 -13 -69 -47 -95 -75 -26 -28 -52 -51 -56 -51 -5 0 -16 -11
-25 -25 -11 -16 -25 -25 -39 -24 -53 5 -67 -1 -67 -24 0 -15 -9 -28 -22 -35
-13 -6 -17 -11 -10 -11 21 -2 13 -19 -15 -33 -41 -20 -40 -49 2 -87 107 -93
312 -156 614 -186 79 -8 147 -18 150 -21 12 -13 -514 4 -609 20 -120 20 -192
39 -221 60 -13 9 -31 16 -41 16 -14 0 -15 -5 -8 -31 5 -18 17 -40 26 -50 27
-30 162 -89 261 -115 204 -52 337 -62 764 -56 411 5 739 109 739 232 0 18 -12
43 -31 65 -17 19 -27 35 -22 35 13 0 83 -60 83 -72 0 -5 16 -28 35 -51 24 -28
35 -50 34 -71 0 -17 -3 -24 -6 -16 -3 8 -16 27 -29 43 l-23 27 -50 -44 c-95
-85 -285 -138 -629 -177 l-103 -11 3 -42 c3 -38 5 -41 38 -47 19 -4 -23 -6
-95 -6 -71 0 -109 2 -82 4 43 4 47 6 42 26 -3 12 -7 32 -8 45 -1 21 -6 22 -72
22 -169 0 -475 37 -621 75 -65 17 -198 78 -241 111 -38 28 -66 76 -57 97 3 9
-10 24 -38 41 -76 45 -96 69 -90 104 4 30 2 32 -24 32 -16 0 -40 3 -53 7 -23
6 -23 8 -18 85 5 76 7 80 45 117 69 67 124 204 138 348 6 52 10 63 23 59 9 -3
33 -8 54 -12z m-2955 -130 c28 -20 28 -36 -4 -90 -14 -24 -22 -44 -17 -44 4 0
1 -5 -7 -11 -12 -8 -10 -9 10 -5 51 12 139 18 173 12 25 -5 36 -13 40 -29 2
-12 8 -30 12 -39 6 -16 1 -18 -41 -18 -40 0 -52 4 -69 26 -18 23 -24 25 -55
17 -25 -7 -36 -16 -38 -31 -2 -12 -13 -27 -24 -33 -20 -11 -21 -9 -16 33 6 49
-1 59 -56 79 -20 7 -42 19 -48 26 -20 24 61 123 101 123 9 0 27 -7 39 -16z
m322 -39 c34 -17 37 -38 19 -111 l-11 -44 -48 0 c-38 0 -50 -4 -53 -17 -3 -10
-5 7 -6 37 -2 94 19 139 67 149 2 1 16 -6 32 -14z m3443 -89 c56 -25 148 -101
168 -139 10 -17 8 -17 -29 2 -38 20 -40 20 -74 2 -29 -16 -36 -17 -53 -5 -30
22 -78 17 -104 -10 l-23 -25 -28 21 c-33 24 -93 19 -109 -10 -9 -16 -10 -15
-18 3 -4 11 -8 44 -7 72 0 55 24 94 69 114 36 16 146 3 208 -25z m-2705 -33
c178 -8 170 -24 -19 -40 -155 -12 -253 -15 -229 -6 8 3 26 14 39 24 18 15 20
19 7 19 -9 0 -16 5 -16 11 0 8 14 10 43 5 23 -3 102 -9 175 -13z m-1283 -45
c-4 -29 -13 -56 -19 -60 -8 -6 -7 -8 2 -8 18 0 15 -59 -3 -66 -8 -4 -27 -3
-41 0 -24 6 -26 10 -20 46 4 25 2 40 -4 40 -11 0 -14 83 -3 93 3 4 26 7 51 7
l44 0 -7 -52z m132 26 c9 -24 -34 -157 -58 -176 -23 -19 -44 -24 -34 -8 3 6 3
16 -2 23 -11 18 -3 161 10 169 22 14 77 9 84 -8z m642 -145 c62 -13 84 -35 56
-55 -11 -8 -35 -19 -55 -24 -59 -16 -189 -32 -210 -25 -18 6 -18 7 -2 26 9 10
24 19 34 19 23 0 31 16 19 39 -8 14 -8 21 2 24 22 9 105 7 156 -4z m3811 -80
c206 -32 300 -58 300 -83 0 -27 -16 -26 -112 9 -104 37 -274 70 -410 81 -49 4
-88 11 -88 17 0 13 147 2 310 -24z m-5229 -153 c-6 -7 -39 -21 -73 -31 -89
-25 -288 -122 -288 -140 0 -9 11 -20 25 -25 14 -6 164 -20 333 -32 175 -13
290 -25 267 -28 l-40 -6 40 -12 c22 -6 198 -21 390 -32 193 -12 368 -24 390
-27 23 -3 36 -2 32 3 -10 10 -9 10 -192 25 -77 6 -196 17 -265 24 l-125 14
110 -5 c61 -3 162 -9 225 -14 63 -6 194 -14 290 -20 250 -14 483 -30 570 -39
73 -8 74 -8 20 -10 -56 -1 -111 -21 -60 -21 14 0 183 -11 375 -25 382 -26 929
-61 1095 -69 58 -3 141 -9 186 -12 56 -5 83 -3 88 5 5 7 -8 11 -41 12 -26 1
-38 4 -25 6 23 4 744 -44 772 -52 20 -5 -228 4 -305 12 -33 3 -57 2 -53 -2 12
-12 693 -65 847 -65 41 0 13 14 -42 22 -83 11 290 -2 498 -17 305 -23 455 -28
538 -17 72 9 86 15 164 69 244 166 463 308 423 275 -19 -17 -32 -34 -28 -38 4
-4 14 -1 23 6 8 7 21 10 30 6 8 -3 14 -2 14 2 -3 18 2 26 9 15 6 -9 27 0 77
34 74 48 115 82 115 94 0 16 -62 28 -174 35 -66 4 -131 10 -145 14 -35 11 -19
11 146 0 143 -9 193 -23 193 -55 0 -22 -631 -459 -700 -486 -34 -13 -45 -22
-47 -40 -1 -13 -5 -68 -8 -121 l-7 -98 -38 0 c-31 0 -37 3 -35 18 2 9 6 61 9
115 l5 97 -112 0 c-61 0 -213 7 -337 15 -476 32 -684 45 -930 60 -140 9 -358
22 -485 30 -317 19 -1937 129 -2940 200 -379 26 -640 41 -915 50 -96 4 -186 7
-200 8 -23 2 -25 -2 -28 -43 -2 -25 -1 -68 3 -97 l6 -51 62 -6 c34 -4 96 -11
137 -17 41 -6 122 -17 180 -24 l105 -13 -135 4 c-205 8 -401 23 -443 35 -20 5
-43 20 -51 32 -20 32 -29 239 -11 264 16 22 41 34 225 103 74 28 162 61 195
74 72 29 81 30 66 12z m3083 -212 c24 -9 20 -27 -13 -58 -29 -28 -32 -28 -106
-21 -89 8 -104 24 -59 61 24 19 41 23 96 24 36 0 73 -3 82 -6z m-1941 -422
c60 -27 81 -60 74 -115 -5 -36 -15 -51 -67 -99 -33 -31 -57 -58 -53 -61 4 -3
23 -8 41 -12 38 -8 89 -56 98 -92 9 -33 42 -30 50 5 4 15 10 32 14 37 4 6 11
21 15 35 4 14 28 74 53 133 41 95 49 107 68 103 11 -3 29 1 40 9 10 8 27 15
36 15 9 0 18 6 21 13 3 7 7 5 12 -8 4 -11 11 -29 15 -40 5 -11 17 -75 26 -142
17 -117 19 -123 41 -123 17 0 23 -6 24 -22 0 -13 9 3 19 34 35 112 105 199
194 239 45 20 91 25 101 9 3 -5 12 -7 19 -4 19 7 59 -52 58 -87 -1 -49 -21
-99 -38 -92 -8 3 -14 0 -14 -6 0 -6 -4 -11 -9 -11 -18 0 -41 32 -41 56 0 36
-32 31 -75 -11 -47 -47 -76 -107 -82 -169 -4 -43 -1 -56 18 -80 19 -24 27 -28
60 -23 20 3 57 18 81 34 57 39 98 61 81 42 -14 -14 -18 -49 -5 -49 4 1 16 9
28 18 17 15 26 47 47 174 32 188 39 208 66 201 13 -3 21 -1 21 7 0 7 7 10 15
7 8 -4 17 -2 20 3 10 17 25 11 25 -9 0 -11 4 -21 9 -23 6 -2 4 -31 -5 -72 -8
-38 -12 -71 -10 -74 3 -2 26 16 53 40 83 78 175 147 187 142 7 -3 23 7 36 21
37 39 46 29 10 -11 -17 -20 -29 -39 -25 -42 3 -3 11 0 17 6 17 17 33 15 19 -2
-6 -7 -9 -20 -6 -28 6 -15 -25 -46 -145 -148 -36 -30 -71 -60 -78 -67 -11 -11
3 -34 83 -134 54 -66 100 -118 103 -115 3 3 -1 12 -7 20 -16 19 -10 92 7 89 6
-2 12 2 12 8 0 6 6 9 14 6 7 -3 18 -1 23 4 5 5 14 -5 22 -26 8 -23 20 -37 37
-41 36 -9 94 2 124 24 45 34 33 52 -72 107 -114 59 -136 77 -144 120 -11 60
38 120 138 171 119 60 228 31 228 -61 0 -31 -27 -88 -39 -80 -5 3 -12 -3 -16
-13 -6 -16 -7 -16 -16 1 -6 9 -14 15 -20 12 -5 -4 -9 8 -9 24 0 21 -5 31 -15
31 -29 0 -96 -33 -107 -53 -13 -24 -4 -33 91 -80 34 -18 83 -50 107 -73 36
-33 44 -47 44 -76 0 -65 -72 -126 -196 -168 -57 -19 -114 -27 -101 -13 7 6
-84 53 -92 47 -2 -1 18 -31 44 -65 49 -63 41 -65 -29 -10 -36 29 -65 36 -38 9
24 -24 11 -29 -18 -8 -24 17 -39 20 -77 15 -40 -4 -44 -3 -23 5 13 6 26 13 28
15 4 4 -191 224 -195 220 -2 -1 -11 -43 -22 -94 -10 -50 -22 -95 -26 -99 -4
-4 -4 3 -1 16 4 12 3 22 -2 22 -11 0 -29 -42 -35 -80 -3 -16 -5 -9 -6 16 -1
43 -24 76 -35 52 -3 -7 -5 17 -3 55 2 37 0 67 -3 67 -3 0 -28 -23 -55 -51 -59
-59 -129 -109 -154 -109 -35 0 -109 40 -140 76 -17 19 -37 55 -43 80 -11 40
-29 56 -42 36 -3 -5 2 -40 10 -78 16 -80 17 -95 4 -74 -15 24 -19 7 -9 -39 12
-54 5 -65 -11 -16 -8 23 -17 35 -25 31 -7 -2 -15 4 -18 15 -3 12 -11 17 -20
14 -11 -5 -18 10 -29 62 -16 76 -10 73 -114 52 -51 -10 -52 -10 -73 -69 -12
-33 -28 -60 -35 -60 -8 0 -22 -17 -32 -37 -9 -21 -18 -33 -20 -28 -1 6 -5 23
-9 39 -6 27 -7 27 -20 10 -19 -25 -19 -9 1 56 22 75 4 84 -56 25 -25 -24 -76
-64 -113 -88 -38 -25 -64 -46 -58 -48 6 -2 -18 -18 -54 -35 -36 -16 -65 -26
-65 -22 0 21 -30 5 -36 -19 -9 -44 -12 -50 -13 -25 -1 12 -5 22 -10 22 -14 0
-21 -28 -21 -86 0 -34 -4 -53 -10 -49 -5 3 -10 31 -10 61 0 54 -15 74 -23 32
l-4 -23 -8 23 c-8 24 -15 24 -72 6 -17 -5 -17 -5 1 10 20 16 14 38 -9 29 -8
-3 -15 0 -15 6 0 7 7 14 15 17 8 4 15 11 15 16 0 6 -7 7 -16 4 -30 -11 -2 14
36 34 44 22 46 29 54 168 3 66 1 82 -10 82 -14 0 -18 17 -15 53 1 9 -4 17 -11
17 -7 0 0 9 16 19 40 27 45 37 52 120 l7 72 -24 -10 c-13 -5 -41 -16 -61 -25
-21 -9 -39 -12 -43 -7 -3 5 1 11 7 14 10 4 10 7 0 18 -11 11 -23 10 -75 -9
-89 -32 -93 -27 -11 12 39 18 75 39 79 46 6 10 4 12 -8 7 -10 -3 -17 -2 -17 3
0 21 175 94 263 110 76 13 188 5 240 -18z m-1418 -215 c45 -515 75 -913 74
-972 l-1 -50 -8 47 c-24 141 -101 1171 -87 1158 4 -3 13 -86 22 -183z m3903
91 c6 -40 16 -111 23 -158 12 -97 13 -100 39 -100 13 0 17 -5 14 -15 -4 -8 -2
-15 4 -15 5 0 17 21 27 48 27 70 57 113 116 167 68 61 140 95 201 95 66 0 96
-14 115 -55 16 -33 16 -37 -3 -82 -14 -34 -25 -47 -37 -45 -9 2 -17 -2 -17 -8
0 -5 -4 -10 -10 -10 -5 0 -10 7 -10 16 0 8 -4 12 -10 9 -6 -4 -10 7 -10 24 0
21 -5 31 -15 31 -53 0 -149 -80 -185 -155 -25 -51 -26 -122 -3 -147 24 -27 80
-23 127 10 57 39 57 52 2 52 -34 0 -46 4 -47 15 -5 70 -5 70 37 77 21 3 78 9
126 13 l87 8 -3 -34 c-2 -19 -13 -59 -24 -89 -11 -30 -33 -95 -48 -145 -20
-67 -29 -84 -34 -70 -7 19 -8 18 -18 -5 -6 -14 -15 -38 -21 -55 -9 -29 -9 -28
-10 18 -1 26 -5 47 -11 47 -5 0 -10 -7 -10 -15 0 -8 -5 -15 -10 -15 -6 0 -8
11 -5 25 3 14 7 36 10 50 3 14 4 25 2 25 -2 0 -25 -11 -51 -25 -58 -31 -78
-31 -135 -2 -58 30 -101 84 -108 136 -5 35 -9 41 -30 41 -19 0 -22 -4 -18 -22
21 -93 22 -169 1 -125 -3 6 -4 -15 -1 -47 6 -62 -2 -67 -20 -15 -5 17 -14 31
-20 31 -5 -1 -15 9 -22 21 -7 12 -12 16 -13 10 0 -7 -4 -13 -8 -13 -5 0 -14
32 -21 70 -15 80 -16 80 -125 58 l-58 -11 -34 -71 c-19 -39 -34 -63 -34 -54 0
29 -27 10 -50 -35 -19 -39 -20 -40 -16 -12 5 33 -11 70 -21 48 -2 -7 -8 -13
-13 -13 -5 0 2 27 16 60 28 69 28 71 11 64 -10 -3 -14 4 -14 26 0 16 5 30 10
30 5 0 4 6 -3 14 -9 12 -5 16 24 21 33 7 38 13 93 124 31 64 59 119 61 123 3
7 -25 5 -143 -13 l-71 -11 -16 -62 c-9 -33 -26 -97 -37 -141 -49 -197 -59
-230 -60 -200 l-1 30 -25 -30 c-13 -16 -27 -42 -30 -57 -4 -16 -10 -28 -15
-28 -4 0 -4 17 1 38 10 43 2 83 -12 61 -26 -42 -14 58 35 305 l14 68 -42 -6
c-94 -15 -131 -18 -117 -8 11 8 12 14 4 24 -12 16 -10 65 3 78 6 6 51 16 100
22 49 6 95 16 102 21 16 13 257 18 285 7 l22 -9 -23 -7 c-21 -6 -21 -7 -5 -20
17 -12 16 -13 -7 -23 -23 -9 -22 -10 15 -10 36 -1 42 3 59 34 14 26 24 34 38
29 18 -5 84 13 103 28 18 16 22 7 33 -64z m1081 -37 c5 -7 22 -14 39 -15 46
-2 49 -14 6 -21 -22 -3 -50 -11 -64 -17 l-25 -11 25 -7 c23 -6 23 -7 5 -13
-11 -3 -51 -8 -90 -12 -169 -14 -173 -15 -178 -38 -3 -12 -9 -33 -13 -45 -7
-24 -6 -24 62 -22 38 1 83 2 99 1 28 -2 29 -2 10 -13 -19 -12 -19 -12 5 -18
25 -7 25 -7 -10 -23 -19 -8 -29 -16 -22 -16 7 -1 11 -5 8 -10 -4 -5 -48 -12
-100 -16 l-94 -7 -13 -47 c-7 -25 -12 -48 -11 -50 1 -2 71 -3 155 -2 88 1 158
-3 167 -9 11 -7 7 -10 -20 -10 -67 -1 -8 -20 65 -21 81 -2 71 -5 -37 -14 -76
-7 -110 -25 -46 -25 73 0 12 -9 -137 -20 -88 -7 -172 -18 -187 -25 -20 -10
-28 -10 -31 -1 -3 6 -9 0 -15 -14 -8 -18 -11 -20 -11 -7 -1 13 -10 17 -37 17
-27 0 -35 4 -31 14 3 8 3 17 -1 21 -4 3 -7 19 -8 35 -1 22 3 30 19 32 27 4 65
107 45 123 -20 16 -10 73 13 80 20 7 30 25 43 78 5 22 3 27 -12 27 -28 0 -30
6 -19 54 14 61 48 74 191 75 60 1 112 4 115 7 11 11 132 -2 140 -15z m-2630
-566 c33 -10 69 -31 88 -50 33 -33 34 -35 19 -63 -16 -31 -83 -78 -151 -107
l-40 -17 68 -18 c75 -19 115 -44 135 -83 17 -35 -1 -70 -64 -125 -53 -47 -98
-70 -227 -118 -59 -22 -78 -32 -52 -28 61 10 38 -2 -50 -26 -119 -33 -123 -34
-105 -21 13 9 12 11 -5 10 -11 0 -38 -6 -60 -13 -34 -10 -41 -17 -51 -51 l-12
-40 -1 38 c-1 34 -3 37 -21 27 -11 -6 -21 -25 -25 -48 -3 -20 -10 -55 -15 -77
-7 -32 -8 -24 -4 38 5 72 3 78 -13 75 -10 -2 -19 -13 -21 -26 -4 -27 -22 -19
-22 9 0 20 -8 20 -72 2 -10 -2 -18 0 -18 6 0 6 9 11 20 11 11 0 20 5 20 11 0
5 5 7 11 3 11 -6 70 -7 99 -1 8 2 49 13 90 26 41 12 120 36 175 53 161 48 165
49 165 58 0 5 -14 4 -31 -2 -22 -8 -34 -7 -42 1 -6 6 -28 11 -48 11 -21 0 -40
6 -42 13 -3 6 -6 3 -6 -8 -1 -13 -4 -16 -9 -8 -5 9 -25 7 -77 -8 -72 -20 -109
-25 -89 -11 10 6 15 18 30 72 3 12 -6 15 -46 14 -28 0 -54 -5 -59 -10 -15 -16
-21 -72 -9 -76 23 -8 -3 -26 -54 -38 -62 -15 -94 -29 -64 -30 14 0 16 -3 7
-13 -6 -8 -8 -17 -4 -20 3 -4 -11 -7 -33 -6 -33 0 -36 2 -16 9 24 10 30 30 10
30 -22 1 23 22 70 34 l45 12 24 89 c12 50 26 101 29 114 6 20 4 23 -11 18 -12
-5 -16 -3 -12 7 3 8 1 17 -6 19 -9 3 -8 8 2 20 11 14 11 17 0 18 -8 0 4 9 25
19 36 16 42 26 68 95 l28 78 -37 -7 c-95 -16 -118 -17 -104 -8 16 12 6 32 -17
33 -13 0 -14 2 -2 6 8 3 23 15 35 25 20 19 20 19 -10 12 -25 -5 -28 -4 -18 7
7 7 59 23 115 35 90 20 125 23 273 20 126 -2 184 -8 224 -21z m793 -4 c2 -6
33 -6 78 -1 41 5 111 9 155 8 l80 0 -50 -13 -50 -12 35 -5 35 -4 -35 -12 -35
-11 40 4 c163 18 373 27 400 17 29 -10 29 -10 5 -12 -22 0 -23 -2 -7 -11 10
-6 25 -8 33 -5 8 3 14 2 14 -3 0 -5 -24 -15 -52 -24 -51 -15 -51 -15 -18 -16
70 -3 5 -20 -121 -32 l-126 -12 -16 -45 -17 -45 80 7 c44 3 92 3 107 -1 l28
-7 -25 -7 -25 -6 25 -11 c14 -6 20 -11 13 -11 -6 -1 -24 -6 -40 -12 l-28 -12
25 -7 c18 -4 4 -8 -50 -14 -157 -14 -156 -14 -169 -54 -7 -21 -15 -42 -17 -49
-4 -8 45 -10 193 -8 109 2 178 0 153 -4 l-45 -7 28 -12 c16 -7 49 -13 75 -14
46 -1 46 -1 -13 -8 -33 -4 -80 -10 -104 -15 -32 -6 -42 -5 -37 3 4 7 16 12 27
12 11 0 17 5 14 10 -3 6 -15 10 -26 10 -12 0 -17 4 -13 11 5 9 -22 10 -102 5
-60 -4 -124 -10 -143 -13 -33 -6 -34 -5 -27 23 4 16 8 33 9 39 1 5 -13 11 -31
13 -18 2 -30 8 -27 13 4 5 0 9 -7 9 -14 0 -38 -53 -38 -84 0 -10 -12 -21 -27
-27 -23 -8 -28 -15 -27 -41 1 -26 6 -33 27 -39 14 -4 28 -5 31 -2 9 9 333 42
406 41 41 -1 59 -3 40 -4 -19 -2 -116 -11 -215 -20 -99 -9 -184 -20 -190 -24
-5 -4 -30 -6 -55 -5 -60 3 -62 3 -55 14 3 6 -3 14 -12 20 -10 6 -12 11 -5 11
6 0 12 6 12 14 0 8 -6 16 -12 19 -7 2 3 9 22 15 30 10 38 19 50 60 18 57 18
68 3 65 -9 -2 -11 27 -4 55 1 1 1 5 0 9 0 3 13 12 28 18 19 8 34 26 45 53 15
39 15 42 -2 47 -12 4 -16 13 -12 31 4 22 2 25 -14 21 -11 -3 -53 -8 -94 -12
l-75 -6 -23 -57 c-12 -31 -51 -131 -85 -222 -34 -91 -63 -158 -65 -149 -1 9 7
40 19 70 33 84 40 120 24 136 -10 9 -16 10 -21 2 -3 -6 -21 -9 -39 -7 -32 4
-33 2 -55 -60 -19 -54 -21 -65 -9 -73 10 -6 10 -9 2 -9 -7 0 -21 -17 -32 -37
-33 -63 -24 -24 40 163 81 238 79 228 43 220 -28 -5 -73 -12 -144 -22 -32 -4
-33 -3 -17 10 18 14 18 15 0 24 -17 10 -17 11 2 32 16 18 17 23 5 30 -22 14
20 26 140 40 58 6 110 15 115 20 6 4 21 10 35 13 14 2 28 5 32 6 3 0 8 -3 10
-8z m1088 -19 c22 -10 36 -26 38 -39 2 -13 8 -23 14 -23 13 0 2 -44 -18 -75
-9 -13 -22 -21 -29 -19 -8 3 -16 -4 -21 -18 l-7 -23 -9 24 c-7 19 -11 21 -22
11 -12 -9 -15 -6 -18 22 -3 32 -4 33 -46 31 -49 -2 -147 -51 -147 -73 0 -10
41 -30 120 -61 202 -77 255 -112 255 -168 0 -16 -4 -33 -10 -36 -5 -3 -10 -15
-10 -26 0 -10 -6 -19 -14 -19 -7 0 -19 -7 -27 -16 -11 -14 -6 -15 52 -9 35 3
74 8 86 11 12 2 25 0 28 -6 3 -6 -4 -10 -17 -10 -116 -1 -203 -21 -333 -76
-74 -32 -132 -60 -129 -63 5 -5 -66 -36 -119 -51 -18 -6 -25 -5 -21 2 9 14
-21 4 -155 -53 -131 -56 -164 -58 -45 -3 43 21 74 39 68 41 -6 2 -82 -21 -169
-52 -88 -30 -164 -55 -169 -55 -18 1 36 29 77 40 20 6 59 20 85 32 26 11 54
22 62 23 8 1 39 9 68 19 29 10 59 15 67 12 8 -3 15 -2 15 2 0 4 15 7 33 8 36
1 230 68 328 113 l64 30 -57 0 c-32 1 -58 5 -58 10 0 21 -47 17 -115 -10 -122
-49 -318 -138 -355 -162 -43 -28 -99 -52 -106 -44 -6 6 131 74 399 195 207 95
287 137 287 152 0 18 -32 39 -102 65 -213 80 -258 107 -258 157 0 34 27 72 74
106 121 87 285 125 366 84z m-1474 -19 c-4 -9 -1 -20 6 -24 10 -7 4 -35 -29
-126 -23 -65 -54 -154 -69 -198 -65 -191 -101 -260 -48 -94 28 88 26 129 -6
129 -10 0 -22 -4 -25 -10 -3 -5 -13 -10 -21 -10 -24 0 -41 -23 -54 -70 -9 -32
-9 -45 0 -50 8 -5 7 -9 -3 -13 -8 -3 -18 -19 -22 -36 -4 -17 -11 -31 -16 -31
-6 0 -8 8 -5 18 3 10 13 42 21 72 8 30 31 107 51 170 19 63 42 136 49 161 19
68 45 115 55 99 6 -10 15 -10 46 0 22 7 46 16 54 21 22 11 23 11 16 -8z
m-2348 -156 c7 -6 12 -24 10 -41 -3 -30 -4 -31 -62 -34 -82 -4 -116 11 -116
53 0 17 3 35 7 38 9 10 146 -4 161 -16z m246 -13 c25 -10 22 -74 -4 -81 -11
-3 -20 -8 -20 -12 0 -3 9 -12 20 -19 25 -15 28 -70 4 -79 -8 -3 -48 -2 -87 3
l-72 9 -3 38 c-3 35 -2 37 27 37 39 0 40 12 1 27 -26 10 -30 16 -30 47 l0 36
74 0 c41 0 81 -3 90 -6z m4680 -150 c46 -7 46 -7 46 -45 l0 -39 -64 0 c-35 0
-78 3 -95 6 -27 6 -31 11 -31 39 0 17 3 35 7 38 8 9 76 9 137 1z m257 -14 l59
0 0 -40 0 -40 -76 0 c-90 0 -114 10 -114 49 0 36 9 44 44 37 16 -3 55 -6 87
-6z m-261 -108 c43 -7 45 -8 45 -42 0 -34 -2 -35 -40 -38 -22 -2 -64 -1 -92 3
l-53 6 0 40 0 39 48 -1 c26 0 67 -4 92 -7z m-5404 -65 c-17 -13 -17 -14 6 -29
41 -27 94 -37 293 -53 104 -9 194 -20 200 -25 11 -9 57 -13 640 -57 209 -15
369 -30 356 -31 -14 -2 -99 1 -190 7 -398 28 -778 51 -916 56 -83 3 -185 8
-227 10 l-78 5 -1 -42 c0 -37 -2 -40 -10 -20 -5 13 -13 20 -19 17 -6 -4 -13 7
-17 25 -6 32 -33 50 -74 50 -16 0 -19 -7 -19 -52 0 -36 -3 -49 -10 -42 -6 6
-10 43 -8 85 3 73 3 74 38 91 42 20 61 23 36 5z m6664 -27 c11 -21 21 -14
-265 -170 -93 -51 -219 -121 -280 -155 -60 -34 -138 -73 -172 -85 -35 -12 -60
-26 -57 -31 3 -5 -1 -9 -8 -9 -10 0 -13 -10 -10 -36 3 -27 1 -35 -7 -29 -7 4
-11 14 -9 23 9 43 -13 48 -322 66 -162 10 -506 31 -765 47 -258 16 -483 29
-500 30 -16 1 -23 3 -14 6 14 3 313 -13 869 -46 290 -18 465 -22 605 -13 77 5
141 6 143 2 4 -11 84 5 134 27 67 30 189 103 213 128 42 41 212 135 256 140
29 4 125 51 164 81 19 14 19 16 3 28 -22 16 -23 27 -3 20 9 -4 20 -15 25 -24z
m-1487 -11 c35 -9 38 -13 35 -42 -3 -30 -5 -32 -48 -35 -25 -1 -65 1 -90 6
-36 6 -46 12 -48 30 -6 43 4 52 60 52 29 0 70 -5 91 -11z m265 -21 c20 -20 15
-66 -9 -73 -32 -10 -157 5 -170 21 -6 8 -8 25 -5 39 6 24 9 25 89 25 51 0 88
-5 95 -12z m-1768 -36 c19 -5 -107 -6 -280 -4 -329 5 -656 -12 -860 -44 -101
-16 -314 -64 -308 -69 2 -2 84 7 183 21 380 51 683 77 755 64 25 -5 146 -7
270 -5 212 3 216 3 80 -5 -343 -21 -525 -40 -689 -75 -41 -8 -76 -13 -79 -10
-14 14 257 69 388 78 25 2 6 4 -42 5 -109 2 -420 -29 -681 -69 -110 -17 -213
-29 -230 -27 l-32 4 46 22 c110 52 435 102 794 122 175 9 629 4 685 -8z"/>
<path d="M4465 2651 c-33 -14 -56 -47 -62 -90 -5 -36 -2 -44 27 -71 37 -34 60
-38 82 -12 25 29 31 43 16 40 -8 -2 -14 7 -15 22 0 14 -1 30 -2 37 -1 6 -11
15 -23 19 -47 14 -48 28 -4 46 23 10 32 17 21 17 -11 0 -29 -4 -40 -8z"/>
<path d="M201 2193 c0 -38 4 -88 7 -113 6 -39 11 -45 40 -54 18 -5 35 -6 38
-3 9 8 8 123 -1 174 -5 35 -12 43 -37 52 -17 6 -35 11 -39 11 -5 0 -9 -30 -8
-67z"/>
<path d="M1625 1493 c-11 -2 -29 -6 -41 -8 -21 -5 -25 -21 -50 -184 l-6 -43
63 35 c96 54 169 122 169 156 0 25 -5 30 -44 40 -46 11 -56 12 -91 4z"/>
<path d="M2469 1054 c-8 -3 -27 -34 -41 -70 l-26 -66 24 6 c52 13 191 67 223
87 31 19 33 22 17 31 -20 11 -171 20 -197 12z"/>
<path d="M2450 815 c-8 -2 -32 -6 -52 -10 l-37 -6 -32 -99 c-18 -55 -30 -103
-27 -105 9 -10 170 46 263 90 94 45 131 75 122 98 -9 24 -172 45 -237 32z"/>
</g>
</svg>
