<?xml version="1.0" standalone="no"?>
<!DOCTYPE svg PUBLIC "-//W3C//DTD SVG 20010904//EN"
 "http://www.w3.org/TR/2001/REC-SVG-20010904/DTD/svg10.dtd">
<svg version="1.0" xmlns="http://www.w3.org/2000/svg"
 width="720.000000pt" height="544.000000pt" viewBox="0 0 720.000000 544.000000"
 preserveAspectRatio="xMidYMid meet">
<metadata>
Created by potrace 1.16, written by Peter Selinger 2001-2019
</metadata>
<g transform="translate(0.000000,544.000000) scale(0.100000,-0.100000)"
fill="#000000" stroke="none">
<path d="M3634 5415 c-45 -13 -107 -36 -139 -49 -132 -59 -323 -214 -352 -288
-10 -25 -22 -38 -34 -38 -36 0 -111 -129 -90 -154 18 -22 -24 -129 -58 -149
-48 -28 -102 -90 -129 -147 -38 -80 -43 -227 -12 -320 12 -36 33 -79 46 -97
46 -61 227 -183 271 -183 13 0 26 -15 42 -47 12 -25 38 -65 57 -88 l34 -42
-82 -5 c-64 -4 -95 -11 -134 -31 -72 -37 -146 -112 -185 -188 l-32 -64 17 -46
c9 -26 16 -49 16 -53 0 -3 -20 -3 -44 0 -37 6 -64 -1 -178 -45 -73 -29 -145
-61 -161 -72 -23 -16 -31 -18 -50 -8 -48 27 -299 3 -381 -36 -20 -10 -53 -33
-73 -52 -21 -19 -67 -50 -103 -68 -67 -34 -227 -169 -261 -221 -10 -16 -19
-41 -19 -56 0 -24 -4 -28 -28 -28 -15 0 -34 -6 -40 -12 -10 -10 -114 -42 -280
-85 -18 -4 -22 -1 -22 19 0 35 -18 48 -70 48 -57 0 -70 -12 -70 -67 l0 -42
-73 1 c-93 1 -134 -18 -139 -64 -2 -25 -9 -33 -33 -41 -29 -9 -240 -89 -520
-198 -72 -28 -141 -61 -154 -74 -24 -23 -24 -24 -15 -162 l9 -138 32 -20 c21
-13 34 -30 37 -50 5 -32 107 -1279 106 -1306 0 -9 -18 -24 -39 -34 -22 -10
-50 -28 -62 -41 -19 -21 -21 -31 -17 -96 5 -62 9 -75 32 -95 51 -44 61 -45
1086 -113 1243 -83 2984 -209 3430 -247 133 -11 355 -17 788 -20 l602 -4 0 58
0 59 -377 23 c-208 12 -551 33 -763 47 -212 13 -401 24 -420 25 -20 1 -26 3
-14 6 11 2 178 -5 370 -17 192 -11 468 -27 614 -36 243 -14 424 -13 595 2 45
4 56 2 45 -6 -29 -21 62 1 130 32 73 33 206 113 217 131 17 27 240 147 260
140 12 -4 109 44 148 73 20 15 20 15 1 30 -11 7 -17 16 -14 20 4 3 16 -4 28
-16 12 -12 18 -26 14 -30 -5 -5 -119 -69 -254 -143 -135 -73 -281 -154 -325
-179 -44 -25 -108 -56 -142 -68 -49 -17 -63 -27 -63 -43 0 -14 -5 -18 -20 -14
-11 3 -20 1 -20 -4 0 -5 7 -9 16 -9 9 0 14 -6 11 -12 -2 -7 -10 -12 -16 -11
-6 2 -11 -10 -11 -27 l0 -30 91 0 91 0 192 112 c408 238 457 269 467 294 5 14
9 54 9 89 0 61 -2 65 -36 93 l-36 30 16 189 c15 182 41 541 70 982 l14 214 28
22 c26 21 29 31 35 106 4 46 8 123 8 170 1 136 -2 137 -374 164 -342 24 -325
21 -325 55 0 16 -4 32 -10 35 -5 3 -10 1 -10 -5 0 -6 -16 -18 -35 -25 -19 -8
-39 -24 -45 -35 -6 -11 -18 -20 -27 -20 -14 0 -13 -4 5 -23 12 -13 22 -30 22
-38 0 -8 16 -29 35 -48 26 -25 35 -42 34 -65 0 -27 -1 -28 -9 -10 -4 12 -20
31 -35 42 l-26 21 -42 -42 c-49 -50 -163 -98 -296 -127 -75 -17 -142 -26 -384
-56 l-48 -6 3 -42 c3 -38 5 -41 38 -47 19 -4 -14 -6 -75 -6 -60 0 -100 2 -87
4 20 4 23 10 21 49 l-3 44 -61 0 c-79 0 -309 18 -405 31 -278 39 -502 135
-525 226 -8 32 23 82 67 107 l33 20 -32 -37 c-68 -77 -31 -140 116 -202 163
-69 375 -106 620 -108 516 -5 772 29 932 123 73 43 101 84 92 133 -6 30 -44
59 -51 38 -2 -6 -7 -9 -10 -7 -4 2 -47 -5 -97 -15 -155 -31 -170 -21 -25 17
74 20 146 39 160 42 25 6 25 6 -5 12 -26 5 -21 8 35 18 83 15 114 38 118 86 3
34 1 38 -35 52 -43 19 -139 22 -168 7 -15 -8 -42 -6 -105 7 -201 44 -291 52
-600 57 -312 5 -447 -4 -626 -41 l-64 -14 0 33 c0 44 -22 59 -83 58 -60 -1
-77 -18 -77 -74 l0 -37 -73 5 c-97 7 -146 -8 -154 -48 -5 -28 -8 -29 -59 -29
-67 0 -75 12 -20 29 69 20 210 173 261 283 14 29 25 65 25 81 0 25 3 27 38 27
47 0 117 32 131 59 9 16 18 19 41 15 19 -4 44 1 73 15 30 15 53 19 75 15 39
-8 113 18 279 97 95 46 126 66 138 89 8 16 15 36 15 44 0 9 18 18 49 26 60 14
127 69 152 124 11 23 19 64 19 95 0 47 4 58 34 91 27 31 36 51 45 106 12 82
16 166 11 294 -3 86 -4 78 -11 -72 -11 -260 -30 -318 -119 -364 -44 -23 -126
-44 -104 -27 13 10 36 332 27 391 l-6 42 -99 0 c-113 0 -138 -8 -131 -43 3
-17 -1 -29 -15 -38 -14 -11 -21 -31 -26 -79 -4 -36 -11 -78 -16 -95 -20 -68
-20 -118 -2 -139 16 -20 16 -20 -3 -6 -40 28 -77 66 -96 97 -19 30 -20 50 -20
208 0 97 -3 174 -8 171 -10 -7 -8 -356 3 -378 6 -14 4 -18 -8 -18 -9 0 -46
-13 -83 -30 -78 -36 -78 -36 -131 -10 -124 60 -271 50 -381 -25 l-51 -36 -65
12 c-56 9 -69 9 -89 -5 -20 -12 -31 -13 -55 -5 -17 6 -38 8 -46 5 -8 -3 -15
-2 -15 3 0 5 16 12 37 16 45 8 250 113 303 155 38 30 40 30 69 15 38 -19 87
-19 141 0 23 8 56 15 72 15 75 0 222 123 241 200 l6 25 -17 -25 c-68 -100
-107 -129 -135 -101 -8 8 -5 11 10 11 26 0 76 50 104 104 24 45 49 135 49 174
0 41 -33 149 -53 172 -15 18 -15 21 -2 26 41 16 75 -62 75 -173 0 -61 2 -69
19 -69 15 0 20 10 25 46 4 25 15 56 26 70 l20 25 0 -47 c0 -37 4 -50 20 -58
14 -7 19 -17 15 -29 -9 -28 58 -83 90 -75 18 4 27 1 31 -10 5 -13 21 -16 79
-16 97 0 127 11 125 48 -4 63 -1 75 20 69 13 -3 24 1 30 13 15 28 13 31 -17
25 -27 -6 -27 -6 -9 9 33 26 46 20 46 -22 0 -21 -5 -43 -11 -49 -7 -7 -9 -19
-5 -29 6 -15 11 -13 41 16 27 26 35 42 35 70 0 20 -5 41 -12 48 -6 6 -9 15 -5
18 11 11 46 -26 59 -62 7 -19 16 -34 20 -34 18 0 6 39 -23 80 l-31 43 32 65
c42 87 120 324 120 367 0 40 -28 71 -72 81 -22 4 -34 16 -44 40 -15 36 -45 54
-92 54 -19 1 -33 10 -47 33 -18 28 -27 32 -68 35 -35 2 -58 -3 -83 -17 -30
-18 -34 -18 -34 -4 0 18 23 146 46 248 20 94 23 177 5 198 -10 13 -30 17 -81
17 l-67 0 -22 -68 c-11 -37 -21 -88 -21 -112 0 -25 -10 -74 -21 -110 -12 -36
-25 -99 -29 -140 -4 -41 -16 -97 -28 -125 -11 -27 -26 -63 -32 -80 -7 -16 -35
-48 -63 -71 l-52 -41 1 -69 c1 -60 7 -81 44 -154 23 -47 53 -99 66 -117 13
-17 24 -35 24 -40 -1 -10 -40 -57 -44 -52 -1 2 -8 31 -15 64 -15 71 -46 127
-106 195 -50 57 -68 119 -41 149 14 16 14 23 1 76 -9 34 -28 72 -45 92 -17 18
-30 43 -30 55 0 47 -102 190 -204 285 -120 113 -224 173 -406 233 -87 30 -89
30 -316 29 -212 0 -235 -2 -310 -24z m451 -225 c92 -24 184 -65 250 -110 l46
-31 -39 -32 c-46 -38 -144 -157 -130 -157 2 0 22 23 43 52 22 28 62 69 89 90
l49 39 44 -43 c61 -59 139 -178 159 -243 16 -51 16 -58 -1 -129 -9 -42 -15
-90 -12 -108 3 -23 -6 -57 -28 -113 -47 -113 -64 -185 -81 -347 -18 -171 -30
-196 -121 -238 -55 -26 -67 -40 -33 -40 26 0 94 43 114 72 l16 22 0 -31 c0
-38 12 -48 42 -33 21 11 21 10 -2 -10 -52 -43 -244 -128 -338 -149 -115 -26
-118 -26 -125 0 -4 16 -3 18 8 9 11 -9 23 -9 50 0 33 11 59 17 78 19 4 1 7 10
7 20 0 17 -4 18 -33 10 -18 -5 -54 -13 -79 -17 -46 -9 -46 -9 -52 21 -3 16 -6
40 -6 53 0 13 -3 24 -7 24 -5 0 -6 -22 -5 -49 l4 -48 -39 -6 c-62 -11 -153 -7
-223 8 -88 19 -107 17 -40 -5 54 -18 54 -19 20 -21 -35 -1 -34 -2 10 -11 74
-15 284 -22 276 -9 -4 6 -2 11 3 11 6 0 11 -2 11 -4 0 -2 3 -11 6 -20 5 -14
-9 -16 -119 -16 -268 0 -483 76 -618 217 -77 81 -112 155 -144 305 -32 149
-28 393 9 519 30 100 106 227 191 318 52 57 168 138 226 160 19 7 45 18 59 25
23 12 124 40 180 50 51 9 208 -4 285 -24z m1460 -230 c14 -15 17 -32 13 -85
-5 -79 -14 -91 -54 -70 -16 8 -42 15 -58 15 l-29 0 7 54 c10 91 19 106 64 106
26 0 45 -7 57 -20z m130 -74 c25 -25 26 -49 4 -138 l-10 -38 -49 25 -50 25 6
58 c4 31 11 65 16 75 13 24 55 21 83 -7z m-2610 -137 c-20 -18 -42 -44 -49
-58 -40 -78 -57 -294 -36 -446 11 -71 56 -179 71 -169 5 3 9 3 9 0 0 -2 3 -11
6 -20 5 -13 -1 -12 -33 4 -48 23 -66 43 -95 105 -21 46 -23 64 -23 215 0 96
-4 168 -10 172 -5 4 -1 16 12 30 11 13 27 41 35 63 28 81 56 123 85 128 63 9
65 8 28 -24z m2091 -9 c1 -17 9 -39 19 -50 19 -21 7 -28 -13 -8 -9 9 -12 7
-12 -11 0 -16 -9 -25 -30 -32 -16 -6 -31 -16 -31 -22 -1 -7 -2 -19 -3 -27 0
-8 10 -18 24 -21 24 -6 24 -7 -4 -8 -42 -2 -76 33 -76 78 0 20 4 41 8 48 11
17 95 83 107 83 6 0 10 -14 11 -30z m-228 -197 l37 -17 -34 -4 c-48 -5 -74
-25 -105 -82 l-27 -49 41 -21 c22 -11 40 -17 40 -14 0 4 3 5 6 2 3 -3 -2 -23
-11 -43 -14 -35 -17 -37 -33 -23 -22 20 -54 29 -69 20 -19 -12 -45 -161 -46
-267 -1 -110 16 -168 53 -180 25 -8 16 -25 -13 -25 -33 0 -64 26 -89 73 -30
59 -30 241 1 337 18 56 18 66 6 80 -21 23 -8 58 29 75 17 9 42 34 56 57 23 38
92 98 112 98 5 0 25 -8 46 -17z m-1577 -797 c38 -26 69 -48 69 -50 0 -2 -28
-2 -62 1 -49 4 -76 0 -120 -17 -52 -19 -56 -23 -43 -36 8 -9 20 -24 25 -35 9
-16 6 -20 -16 -25 -45 -11 -126 -88 -117 -111 3 -7 0 -13 -7 -13 -6 0 -8 5 -5
10 3 6 3 10 0 10 -10 0 -30 -23 -38 -44 -4 -11 -13 -16 -22 -12 -13 4 -12 1 2
-22 9 -15 23 -35 31 -44 8 -10 13 -18 10 -18 -3 0 -34 34 -69 76 -35 42 -76
82 -91 90 -34 17 -36 9 -6 -23 16 -17 19 -26 11 -34 -8 -8 -16 -3 -27 19 -22
42 -20 54 13 120 30 60 115 148 170 176 46 25 108 36 170 31 43 -3 67 -13 122
-49z m1779 -46 c0 -5 -11 -17 -25 -26 -14 -9 -23 -20 -20 -24 3 -4 -2 -22 -11
-39 -48 -95 45 -282 162 -327 51 -20 103 -10 142 26 15 14 22 17 22 7 0 -33
-112 -98 -283 -163 -89 -34 -131 -41 -155 -25 -9 6 -3 10 21 14 19 3 83 28
142 56 63 30 123 51 144 52 32 1 30 2 -19 13 -31 6 -70 21 -87 34 -39 28 -89
85 -98 111 -8 25 -18 26 -48 7 -35 -23 -119 -49 -152 -47 -16 1 -45 -3 -62 -8
l-33 -10 0 52 c1 129 76 206 275 283 67 26 85 29 85 14z m-280 -23 c30 -12 53
-27 51 -32 -2 -6 -27 -15 -55 -20 -108 -23 -169 -73 -205 -170 -14 -39 -24
-51 -42 -53 -21 -2 -22 -1 -6 8 20 13 24 79 5 81 -7 1 -48 3 -92 5 -71 3 -79
1 -83 -16 -3 -11 -9 -20 -13 -20 -13 0 9 81 31 111 31 44 98 97 143 113 66 23
200 20 266 -7z m-1479 -96 c-21 -30 -19 -41 9 -41 35 0 120 -31 114 -42 -4 -6
1 -8 15 -3 13 4 29 1 38 -7 14 -11 16 -11 8 2 -5 8 11 -4 34 -27 66 -65 133
-86 256 -80 105 5 183 27 257 74 44 27 49 28 42 8 -5 -11 1 -15 17 -15 30 0
173 36 198 50 11 5 21 10 23 10 5 0 -8 -109 -18 -145 -4 -16 -8 -87 -8 -157
-1 -69 -3 -125 -5 -123 -1 2 -13 0 -26 -5 -26 -10 -34 1 -36 48 -1 15 -3 20
-6 11 -2 -8 0 -41 5 -72 5 -31 5 -54 0 -51 -4 3 -8 12 -8 21 0 14 -2 14 -24
-1 -56 -36 -248 -138 -277 -146 -27 -8 -37 -5 -76 25 -58 44 -146 86 -195 93
-34 4 -38 8 -39 36 -2 29 -2 30 -6 4 -4 -26 -6 -27 -51 -22 -26 3 -67 1 -92
-5 -49 -11 -49 -11 -105 62 l-29 39 -14 -29 -15 -28 -18 43 c-11 24 -21 71
-25 105 -6 64 -23 127 -35 127 -10 0 -29 -84 -29 -133 0 -52 28 -159 62 -242
48 -115 44 -165 -6 -67 -38 77 -66 205 -66 306 0 146 51 308 118 379 33 35 39
35 13 -2z m-523 -176 c52 -22 119 -90 153 -157 34 -67 35 -78 12 -78 -19 0
-107 -35 -159 -63 -18 -9 -49 -19 -71 -23 -39 -6 -39 -6 -62 44 -13 28 -47 74
-76 102 -45 44 -60 53 -100 57 -33 4 -43 9 -36 16 10 10 276 116 294 117 4 0
24 -7 45 -15z m-426 -115 c72 -20 148 -108 166 -193 5 -26 7 -49 3 -51 -3 -2
-39 -7 -79 -11 -51 -5 -75 -12 -82 -24 -8 -14 -9 -14 -10 4 -3 66 -69 155
-149 202 -65 38 -146 38 -221 1 -30 -15 -56 -25 -58 -24 -2 2 12 16 31 30 42
32 108 56 161 57 22 1 55 5 71 9 45 11 125 11 167 0z m-309 -119 c32 -12 67
-70 67 -109 0 -19 -12 -46 -32 -73 -38 -49 -58 -60 -58 -30 0 45 -84 68 -123
34 -16 -15 -21 -15 -25 -4 -17 48 -80 67 -105 31 -14 -20 -14 -20 -31 5 -12
18 -23 25 -34 21 -29 -10 28 33 99 75 86 51 185 72 242 50z m1126 -133 c26
-126 81 -222 135 -236 28 -7 32 -13 39 -58 18 -118 20 -114 -64 -114 -53 0
-75 4 -83 15 -16 23 -89 24 -110 2 -21 -21 -26 -21 -53 -2 -14 10 -57 18 -118
22 l-95 6 0 41 c0 23 -4 46 -8 52 -15 23 -56 36 -117 36 -76 0 -132 -16 -140
-43 -8 -24 -7 -24 -91 4 l-69 24 30 15 c17 9 40 27 53 40 21 23 26 24 72 14
58 -12 127 3 300 63 99 34 106 39 128 78 18 33 32 45 60 53 20 5 51 19 67 29
17 11 35 20 40 20 6 1 17 -27 24 -61z m-885 -180 c9 -15 14 -48 13 -90 l-1
-66 -23 15 c-12 8 -30 13 -38 9 -17 -6 -40 32 -50 85 -5 27 -2 40 10 52 24 25
72 22 89 -5z m-437 -54 c7 -18 -28 -87 -65 -126 -28 -30 -82 -39 -82 -14 0 7
14 45 31 85 32 70 32 71 71 71 26 0 41 -5 45 -16z m3713 -124 c272 -19 561
-77 568 -113 4 -20 -37 -24 -70 -6 -39 21 -186 59 -314 81 -116 20 -160 22
-439 21 -270 0 -325 -3 -429 -22 -66 -12 -121 -19 -124 -16 -7 7 13 12 133 30
220 33 439 41 675 25z m-4498 -43 c-28 -30 -28 -68 1 -95 30 -28 146 -67 256
-87 114 -21 385 -32 395 -16 4 6 16 11 27 11 11 0 17 5 14 10 -3 6 -31 10 -62
10 -31 0 -54 2 -52 4 2 2 87 6 189 9 163 4 175 3 100 -6 -47 -6 -74 -13 -61
-15 19 -3 21 -6 10 -14 -18 -12 216 -3 321 12 89 14 241 55 284 77 57 29 95
64 99 91 4 26 4 26 6 -4 1 -33 -30 -70 -85 -97 -75 -38 -286 -88 -470 -111
-136 -17 -184 -35 -184 -71 0 -19 6 -24 33 -28 17 -2 -3 -5 -45 -5 l-78 -2 0
28 c0 15 -4 32 -8 39 -5 8 -63 16 -162 23 -160 11 -259 23 -333 39 -23 6 -53
12 -67 14 -61 12 -141 50 -166 80 -15 18 -31 31 -36 30 -28 -9 23 75 56 91 39
19 45 12 18 -17z m4482 -122 c65 -17 86 -30 86 -51 0 -58 -330 -97 -499 -59
-63 15 -111 43 -111 65 0 18 45 38 105 49 33 6 71 13 85 15 51 9 277 -4 334
-19z m-4950 -24 c-5 -5 -39 -18 -75 -29 -95 -29 -279 -120 -279 -138 0 -8 11
-19 25 -24 23 -9 520 -50 604 -50 19 0 32 -3 28 -6 -3 -3 -23 -6 -43 -6 -25 0
-33 -3 -23 -8 19 -11 199 -27 444 -40 110 -6 247 -15 305 -20 58 -5 106 -7
108 -5 7 7 -145 26 -318 39 -102 7 -165 14 -140 15 25 0 146 -6 270 -14 124
-8 304 -20 400 -25 225 -14 470 -37 405 -39 -27 -1 -56 -5 -62 -9 -13 -8 229
-28 771 -62 166 -11 364 -24 441 -29 77 -6 192 -13 255 -15 63 -3 160 -8 215
-11 66 -3 93 -2 80 4 -11 5 -40 10 -65 11 -25 1 -37 4 -27 7 10 2 122 -3 250
-12 128 -9 291 -20 362 -25 72 -5 144 -10 160 -10 19 0 25 -3 17 -8 -6 -5 -45
-5 -85 -1 -100 10 -321 20 -316 15 6 -7 331 -34 539 -46 96 -5 222 -12 280
-16 114 -7 131 2 29 16 -112 15 264 0 566 -22 283 -21 451 -20 527 2 21 6 72
34 114 63 218 148 506 335 482 313 -15 -14 -31 -26 -35 -26 -4 -1 -18 -9 -30
-19 -24 -20 -30 -41 -12 -41 5 0 8 4 4 10 -3 5 9 17 26 26 25 12 33 13 39 3 6
-9 25 -1 72 31 68 46 108 79 108 91 0 16 -63 28 -194 38 -76 5 -144 15 -150
21 -8 8 -7 10 4 6 8 -3 82 -10 163 -15 149 -9 197 -23 197 -54 0 -23 -628
-460 -700 -488 l-45 -17 -7 -108 c-4 -60 -10 -114 -13 -121 -2 -7 -19 -13 -38
-13 -31 0 -33 2 -31 28 2 15 5 66 7 115 l5 87 -111 0 c-62 0 -211 7 -332 15
-276 19 -918 59 -1260 80 -143 8 -357 22 -475 30 -118 8 -451 31 -740 50 -572
38 -1235 84 -1675 115 -637 45 -742 51 -1010 60 -154 5 -295 10 -314 10 l-34
0 5 -85 c2 -47 9 -89 14 -94 9 -9 82 -20 324 -47 74 -8 140 -17 145 -19 32
-14 -513 20 -568 36 -57 15 -65 37 -69 176 -4 143 -10 133 121 181 47 18 149
56 226 85 132 51 161 59 139 38z m3090 -207 c24 -9 20 -27 -13 -58 -28 -27
-30 -28 -107 -19 -46 5 -79 13 -81 20 -3 7 8 24 23 38 23 22 36 25 95 25 37 0
74 -3 83 -6z m-1938 -425 c60 -29 87 -74 73 -122 -5 -19 -32 -54 -68 -88 -61
-56 -66 -69 -27 -69 36 0 83 -36 102 -79 30 -64 47 -55 83 44 12 33 41 104 64
158 37 88 44 98 64 94 13 -2 31 2 40 9 10 7 26 14 36 14 9 0 17 5 17 10 0 6 5
10 10 10 6 0 10 -10 10 -23 0 -13 4 -27 9 -32 4 -6 14 -50 20 -100 19 -134 28
-165 51 -165 14 0 20 -7 21 -22 0 -13 9 3 19 34 24 77 60 137 111 182 105 96
211 99 258 8 17 -31 -12 -134 -34 -126 -8 4 -15 1 -15 -5 0 -6 -4 -11 -9 -11
-18 0 -41 32 -41 56 0 36 -32 31 -75 -11 -47 -47 -76 -107 -82 -169 -4 -43 -1
-56 18 -80 19 -24 27 -28 59 -23 21 3 62 21 91 41 64 43 72 44 59 11 -12 -31
1 -32 34 -2 22 19 28 41 50 173 30 178 39 206 62 197 9 -3 19 -1 23 4 3 5 17
13 31 16 40 10 52 -27 34 -110 -7 -37 -12 -68 -10 -70 2 -2 31 21 65 52 86 76
165 135 183 135 8 0 23 9 33 20 10 11 23 20 29 20 5 0 -4 -15 -22 -33 -36 -37
-41 -53 -13 -37 30 15 36 12 17 -9 -13 -15 -14 -20 -4 -24 13 -5 -38 -61 -112
-121 -19 -16 -54 -46 -78 -68 l-43 -39 97 -120 c53 -66 99 -118 101 -115 2 2
-1 13 -8 23 -12 20 -4 102 8 89 3 -3 12 -1 20 5 7 6 13 8 13 4 0 -4 6 -3 13 3
10 9 16 4 26 -23 8 -23 21 -37 37 -41 58 -15 149 22 149 61 0 12 -30 33 -95
66 -111 58 -139 83 -146 130 -6 44 21 89 81 132 137 97 285 83 285 -28 0 -29
-28 -90 -37 -81 -3 3 -12 -2 -19 -12 -13 -16 -13 -16 -14 0 0 11 -5 15 -15 12
-11 -5 -15 1 -15 25 0 36 -11 38 -70 15 -39 -16 -66 -46 -56 -62 3 -5 40 -26
82 -48 106 -53 164 -109 164 -157 0 -64 -72 -125 -196 -167 -57 -19 -114 -27
-101 -13 7 6 -84 53 -92 47 -2 -1 18 -30 44 -63 25 -34 44 -61 42 -61 -2 0
-28 18 -57 40 -57 43 -85 53 -55 20 26 -28 13 -34 -19 -9 -22 17 -36 20 -74
16 -42 -5 -44 -5 -19 5 15 7 27 15 27 20 0 4 -24 31 -53 60 -29 29 -74 76 -99
105 l-45 52 -17 -75 c-9 -41 -16 -83 -16 -94 0 -11 -4 -20 -10 -20 -5 0 -7 7
-4 15 4 8 2 15 -4 15 -9 0 -27 -37 -35 -75 -3 -11 -5 -5 -6 15 -1 19 -6 42
-11 50 -9 13 -11 13 -21 0 -8 -11 -9 4 -6 58 l4 74 -71 -69 c-113 -110 -131
-117 -207 -84 -72 32 -108 76 -124 149 -6 29 -27 43 -39 24 -2 -4 2 -41 10
-82 17 -89 17 -89 3 -70 -8 11 -9 0 -5 -40 5 -53 5 -54 -9 -25 -8 17 -14 36
-15 44 0 10 -3 11 -14 2 -11 -9 -15 -7 -20 11 -5 18 -8 20 -15 9 -7 -11 -13 0
-25 40 -8 30 -16 63 -18 74 -4 22 -26 23 -109 4 -45 -10 -48 -12 -68 -70 -12
-33 -28 -59 -36 -59 -7 0 -19 -13 -27 -30 -17 -38 -24 -38 -32 2 -6 30 -7 31
-21 12 -19 -25 -19 -10 1 56 11 38 13 55 5 58 -6 2 -8 9 -5 15 4 7 -17 -11
-47 -40 -30 -29 -84 -72 -121 -96 -37 -24 -65 -46 -62 -49 2 -3 -21 -18 -53
-34 -76 -38 -77 -38 -69 -25 4 6 1 11 -8 11 -9 0 -18 -12 -22 -27 -9 -44 -12
-50 -13 -25 -1 12 -5 22 -10 22 -14 0 -21 -27 -21 -81 0 -27 -4 -49 -10 -49
-5 0 -9 3 -9 8 1 4 1 28 0 55 -1 49 -16 64 -24 25 l-4 -23 -8 23 c-4 12 -8 22
-9 22 -1 0 -16 -4 -34 -9 -20 -6 -32 -6 -32 0 0 5 5 9 10 9 6 0 10 5 10 10 0
6 -10 10 -22 10 -20 0 -20 1 -5 18 22 24 21 33 0 26 -10 -3 -5 5 12 20 17 14
35 26 41 26 24 0 32 29 36 133 4 85 2 107 -9 107 -13 0 -18 17 -15 53 1 9 -4
17 -11 17 -6 0 2 10 20 21 26 16 34 30 42 72 17 89 19 118 7 113 -96 -38 -116
-44 -121 -36 -3 6 -1 10 4 10 6 0 11 7 11 15 0 20 -19 19 -87 -5 -85 -30 -87
-24 -7 14 39 18 74 39 78 45 5 7 1 9 -8 5 -9 -3 -16 -1 -16 5 0 13 95 62 166
85 132 43 259 45 340 5z m-1411 -329 c9 -113 23 -277 30 -365 8 -88 19 -230
25 -315 6 -85 12 -172 14 -194 3 -21 1 -35 -4 -30 -9 10 -30 219 -55 534 -8
107 -20 249 -25 315 -5 66 -11 174 -14 240 -7 165 7 75 29 -185z m3889 238 c4
-24 14 -94 22 -157 13 -109 22 -130 51 -131 7 0 10 -7 7 -15 -4 -8 -2 -15 4
-15 5 0 17 21 27 48 49 127 164 234 284 261 91 20 170 -33 155 -104 -11 -50
-33 -85 -49 -79 -8 4 -15 1 -15 -5 0 -8 -6 -7 -20 1 -12 8 -20 24 -20 40 0 55
-67 30 -143 -51 -56 -60 -77 -104 -77 -162 0 -51 22 -79 62 -79 43 0 128 47
128 72 0 4 -20 8 -45 8 -33 0 -45 4 -46 15 -4 67 -4 69 30 76 17 4 75 10 127
14 l94 7 0 -30 c0 -17 -7 -43 -15 -59 -8 -15 -31 -82 -52 -147 -26 -87 -38
-115 -44 -100 -6 16 -9 14 -23 -18 -9 -21 -16 -44 -16 -53 0 -8 -4 -15 -10
-15 -6 0 -7 18 -3 45 4 29 2 45 -5 45 -6 0 -13 -8 -16 -17 -3 -10 -4 6 -2 35
2 28 2 52 1 52 -1 0 -23 -11 -49 -25 -54 -29 -71 -30 -119 -10 -74 31 -127 97
-127 160 0 20 -5 25 -23 25 l-24 0 12 -80 c6 -44 8 -80 4 -80 -4 0 -10 8 -13
18 -3 9 -3 -11 -1 -46 5 -66 -8 -78 -19 -18 -4 23 -11 33 -20 30 -7 -3 -18 5
-24 18 -6 13 -11 17 -11 11 -1 -7 -5 -13 -10 -13 -5 0 -12 21 -16 48 -14 100
-9 95 -84 87 -99 -9 -100 -10 -136 -89 -19 -39 -34 -63 -34 -53 -1 30 -20 18
-46 -30 -22 -41 -25 -43 -20 -18 6 38 -10 68 -24 45 -21 -31 -18 -2 4 50 17
40 20 56 11 58 -15 3 -17 62 -3 62 5 0 4 6 -3 14 -9 12 -6 16 24 21 35 7 44
20 154 247 2 4 -9 6 -25 3 -15 -2 -65 -9 -109 -16 l-81 -11 -15 -57 c-9 -31
-33 -128 -54 -216 -29 -119 -40 -152 -44 -130 l-5 30 -22 -36 c-12 -19 -27
-46 -33 -60 -8 -19 -9 -14 -4 27 3 33 2 54 -5 59 -6 3 -11 -1 -11 -10 0 -9 -5
-13 -10 -10 -6 4 -8 24 -4 48 7 52 53 295 61 321 6 20 -1 20 -121 0 -28 -5
-37 -4 -32 4 4 7 4 18 -1 25 -13 20 -12 66 2 77 7 6 53 16 101 22 49 6 95 16
102 21 15 11 232 20 276 11 28 -6 29 -7 11 -20 -17 -13 -17 -14 0 -20 15 -6
13 -9 -11 -20 l-29 -12 40 -1 c36 -1 42 3 59 34 14 26 24 34 38 29 18 -5 84
13 103 28 17 15 22 8 29 -34z m1101 -72 c10 -9 25 -14 35 -11 10 3 21 2 24 -4
3 -5 -13 -12 -36 -16 -24 -4 -52 -14 -63 -21 -19 -14 -19 -14 5 -14 56 0 -6
-18 -84 -24 -167 -13 -173 -15 -179 -44 -3 -15 -9 -35 -13 -45 -6 -17 -1 -19
62 -17 38 1 82 2 98 1 28 -1 29 -2 10 -16 -19 -14 -18 -14 4 -15 33 0 27 -16
-10 -25 -28 -6 -30 -8 -14 -14 30 -11 3 -18 -102 -26 l-90 -7 -13 -47 c-7 -25
-12 -48 -11 -50 1 -2 71 -3 155 -2 88 1 158 -3 167 -9 12 -8 9 -10 -13 -10
-16 0 -26 -4 -22 -10 3 -5 39 -11 78 -12 40 0 56 -3 37 -5 -111 -10 -140 -15
-140 -24 0 -5 12 -9 27 -9 14 0 24 -2 22 -4 -2 -2 -76 -10 -164 -16 -88 -7
-172 -18 -187 -25 -20 -10 -28 -10 -31 -1 -3 6 -9 0 -15 -14 -8 -18 -11 -20
-11 -7 -1 12 -9 17 -30 17 -23 0 -30 6 -36 28 -16 57 -14 70 9 76 18 4 27 18
39 58 11 39 12 56 3 63 -18 16 -8 73 15 80 20 7 30 25 42 76 6 22 3 28 -16 33
-15 3 -22 13 -23 31 -1 14 2 25 7 25 5 0 9 9 9 19 0 30 54 45 185 52 177 9
250 5 270 -15z m-4360 -535 c26 -5 30 -10 30 -41 0 -41 -14 -46 -112 -35 -56
6 -64 9 -69 31 -11 44 0 54 63 53 32 -1 72 -4 88 -8z m1714 -26 c33 -10 69
-31 88 -50 33 -33 33 -35 19 -63 -16 -31 -62 -65 -141 -102 -38 -18 -45 -25
-30 -27 124 -24 185 -64 185 -121 0 -31 -8 -44 -53 -87 -60 -56 -109 -83 -241
-131 -65 -24 -80 -32 -51 -29 22 3 -9 -10 -70 -29 -114 -37 -152 -44 -100 -21
38 18 7 19 -50 1 -34 -10 -41 -17 -51 -51 l-12 -40 -1 37 c-1 28 -5 36 -15 32
-17 -7 -31 -41 -45 -114 -10 -55 -10 -54 -6 23 4 70 3 78 -12 75 -9 -2 -20
-14 -24 -28 l-6 -25 -8 27 c-7 29 -10 29 -80 11 -17 -4 -18 -3 -7 8 8 8 45 17
90 20 101 8 597 157 580 175 -3 3 -23 -1 -44 -9 -96 -35 -115 -39 -128 -28 -7
6 -26 12 -42 13 -16 1 -31 5 -34 10 -3 4 -44 -4 -90 -17 -106 -30 -119 -31
-98 -7 9 9 19 31 22 47 l7 30 -52 -1 c-59 -2 -64 -6 -73 -57 -6 -29 -4 -37 5
-32 7 5 10 3 7 -6 -2 -7 -36 -23 -74 -35 -38 -12 -61 -22 -50 -23 14 -1 16 -4
7 -14 -6 -8 -8 -17 -4 -20 3 -4 -11 -7 -33 -7 l-39 1 30 13 c28 12 29 13 10
24 -23 13 -18 16 61 36 l47 12 24 89 c12 50 25 100 29 113 5 18 2 22 -17 23
-23 0 -23 1 -4 9 17 7 17 9 3 9 -20 1 -24 16 -7 27 8 4 7 9 -2 15 -13 8 -2 14
50 31 8 2 27 39 43 82 l28 79 -37 -7 c-53 -10 -122 -16 -100 -10 23 7 22 20
-4 27 -21 6 -21 7 7 32 l29 25 -30 -6 c-29 -6 -29 -5 -10 9 11 8 63 24 115 36
123 26 402 24 489 -4z m871 -4 c41 4 111 8 155 7 l80 0 -50 -13 c-41 -10 -45
-13 -20 -14 23 -1 27 -3 15 -11 -20 -13 18 -13 205 1 104 8 161 8 185 1 27 -8
29 -10 12 -11 -32 -1 -17 -21 16 -22 20 -1 13 -5 -28 -19 -42 -14 -49 -18 -27
-19 15 -1 27 -5 27 -10 0 -8 -42 -15 -183 -27 -78 -7 -78 -7 -98 -45 -10 -21
-19 -41 -19 -45 0 -3 37 -3 83 0 48 5 92 3 107 -3 25 -10 25 -10 2 -10 -29 -1
-19 -21 11 -22 20 -1 21 -2 2 -6 -11 -3 -31 -10 -45 -16 l-25 -10 25 -7 c18
-5 6 -8 -45 -14 -149 -14 -165 -18 -165 -32 0 -8 -7 -29 -16 -45 -8 -17 -13
-33 -11 -36 3 -2 70 0 149 5 79 5 163 6 188 2 39 -6 40 -8 13 -9 -18 0 -33 -5
-33 -11 0 -15 46 -23 100 -18 27 3 47 2 45 -2 -3 -4 -40 -10 -82 -13 -43 -3
-91 -9 -107 -13 -21 -5 -27 -4 -22 5 4 6 16 11 27 11 11 0 17 5 14 10 -3 6
-15 10 -26 10 -12 0 -17 4 -14 11 5 7 -34 8 -134 3 l-140 -7 8 31 c11 36 7 42
-31 42 -17 0 -27 4 -23 10 3 6 2 10 -4 10 -14 0 -41 -53 -41 -80 0 -12 -9 -24
-24 -30 -29 -11 -40 -26 -26 -35 15 -9 2 -25 -22 -25 -17 0 -19 2 -7 16 10 13
10 17 0 24 -9 5 -3 11 21 19 30 10 37 19 51 65 21 64 21 70 3 63 -16 -6 -17
28 -1 52 5 10 4 12 -3 7 -7 -4 -12 -4 -12 -1 0 3 16 13 35 20 27 12 37 24 46
56 10 33 10 42 0 49 -8 4 -10 13 -7 19 4 6 2 11 -4 11 -6 0 -8 5 -4 11 4 8 -3
9 -22 5 -16 -3 -59 -8 -95 -12 l-67 -6 -48 -127 c-76 -202 -123 -317 -123
-303 -1 7 8 38 20 70 11 31 26 75 33 97 l13 40 -36 1 c-20 0 -45 2 -56 5 -16
3 -24 -11 -56 -104 -34 -101 -49 -134 -49 -110 0 6 27 91 61 189 81 237 79
228 43 221 -16 -3 -49 -9 -74 -12 -25 -3 -58 -8 -75 -11 -29 -5 -29 -4 -10 11
20 15 19 16 -3 21 -27 8 -27 9 -1 35 17 17 19 23 8 30 -21 13 26 26 142 39 57
7 109 16 114 20 14 11 58 17 70 9 6 -3 44 -2 85 2z m1010 -19 c22 -10 36 -26
38 -39 2 -13 8 -23 14 -23 13 0 2 -46 -18 -77 -8 -13 -20 -20 -28 -17 -9 3
-17 -3 -22 -18 l-7 -23 -9 24 c-7 19 -11 21 -22 11 -12 -9 -15 -6 -18 22 -3
32 -4 33 -46 31 -48 -2 -147 -51 -147 -72 0 -10 47 -33 132 -67 146 -57 217
-95 233 -124 13 -24 13 -67 0 -75 -5 -3 -10 -14 -10 -23 0 -10 -14 -23 -32
-31 -45 -20 -24 -24 68 -12 44 5 83 6 87 2 4 -4 -42 -12 -103 -18 -100 -10
-123 -17 -245 -68 -75 -32 -133 -60 -130 -63 5 -6 -83 -45 -128 -57 -20 -5
-20 -5 3 10 l25 16 -25 -7 c-34 -9 -216 -81 -252 -100 -17 -9 -32 -13 -36 -10
-3 3 30 22 72 42 43 19 76 37 73 40 -2 2 -79 -21 -171 -52 -93 -30 -170 -53
-172 -51 -3 2 8 9 23 15 15 6 57 22 93 36 97 38 240 78 279 78 35 0 251 75
351 121 l55 25 -55 1 c-31 1 -61 6 -68 13 -7 7 -12 8 -12 2 0 -5 -4 -3 -9 4
-6 11 -32 4 -122 -33 -134 -56 -234 -101 -269 -121 -65 -38 -143 -75 -152 -72
-14 5 120 71 502 247 153 70 184 90 175 113 -7 17 -28 27 -190 89 -116 45
-165 81 -165 121 0 63 98 140 233 184 87 28 159 30 207 6z m-1471 -14 c-1 -7
1 -20 5 -29 4 -9 -10 -64 -33 -130 -21 -63 -51 -150 -66 -194 -35 -101 -57
-158 -66 -169 -10 -11 3 42 30 123 24 73 24 74 11 66 -5 -3 -10 -2 -10 2 0 12
-38 14 -45 2 -4 -5 -11 -9 -16 -9 -6 0 -7 5 -4 10 3 6 -2 10 -11 10 -10 0 -15
-3 -11 -6 3 -4 0 -13 -8 -20 -7 -8 -20 -45 -29 -82 -9 -38 -20 -80 -25 -93
l-10 -24 0 26 c-1 14 13 71 29 125 17 55 44 144 61 199 40 130 68 193 79 175
7 -11 14 -11 42 1 18 7 38 13 45 11 6 -1 14 2 18 8 9 14 16 13 14 -2z m-2346
-162 c4 -6 6 -24 5 -40 -3 -25 -9 -32 -38 -40 -32 -9 -33 -10 -10 -14 38 -6
50 -21 50 -60 l0 -35 -81 6 c-44 4 -84 9 -90 12 -5 4 -9 22 -9 41 0 34 0 34
45 34 57 0 58 13 3 26 -39 8 -43 12 -46 43 -2 20 2 37 9 42 18 11 152 -2 162
-15z m246 -20 c7 -8 11 -27 9 -43 -2 -21 -9 -29 -28 -31 -35 -5 -50 -22 -19
-22 33 0 49 -17 49 -52 0 -38 -16 -42 -103 -32 l-72 9 -3 37 c-3 36 -2 37 35
40 l38 3 -37 17 c-34 15 -38 21 -38 52 l0 36 79 0 c56 0 82 -4 90 -14z m4710
-151 c6 -3 11 -22 11 -41 l0 -34 -64 0 c-35 0 -78 3 -95 6 -27 6 -31 11 -31
39 0 17 3 35 8 39 8 9 155 2 171 -9z m-39 -113 c43 -7 45 -8 45 -42 0 -34 -2
-35 -40 -38 -22 -2 -64 -1 -92 3 l-53 6 0 40 0 39 48 -1 c26 0 67 -4 92 -7z
m-2418 -98 l-18 -49 340 -2 c188 -1 357 -5 376 -11 23 -6 -71 -7 -270 -4 -319
4 -659 -12 -865 -43 -128 -19 -305 -58 -282 -63 9 -2 120 10 245 28 268 36
586 60 663 50 30 -4 153 -6 274 -5 l220 4 -165 -9 c-257 -15 -493 -39 -630
-66 -145 -28 -137 -27 -124 -14 15 15 247 60 354 69 l95 8 -100 1 c-143 2
-396 -23 -688 -69 -108 -16 -212 -29 -230 -27 l-32 3 32 17 c77 42 358 93 652
117 62 5 117 13 120 18 11 12 31 87 32 119 l1 29 9 -26 c7 -20 5 -39 -9 -75z
m-2978 31 c-17 -43 39 -58 298 -80 102 -8 200 -20 219 -25 19 -6 142 -19 274
-30 619 -51 603 -50 465 -45 -69 3 -188 9 -266 15 -259 18 -648 39 -779 42
-128 3 -130 3 -133 -19 -5 -36 -40 -30 -49 8 -7 24 -17 34 -45 44 -34 11 -37
11 -42 -9 -3 -12 -6 -37 -6 -55 0 -25 -3 -32 -10 -25 -6 6 -10 43 -8 85 3 74
3 74 38 91 43 22 51 22 44 3z m5181 -35 c22 -8 26 -15 23 -42 -3 -32 -5 -33
-53 -36 -79 -4 -129 9 -133 37 -7 44 3 51 72 51 36 0 77 -4 91 -10z m253 -22
c7 -7 12 -24 12 -39 0 -36 -23 -43 -111 -34 -62 6 -71 10 -79 31 -18 46 -5 54
84 54 50 0 87 -5 94 -12z"/>
<path d="M3402 4633 c-1 -24 -4 -43 -7 -43 -2 0 -27 9 -55 20 -96 38 -141 24
-181 -57 -21 -43 -23 -62 -24 -188 0 -309 83 -459 275 -495 36 -7 80 -5 153 5
124 17 173 11 329 -41 104 -35 113 -36 217 -32 171 7 238 49 308 190 49 101
66 191 61 321 -10 239 -81 279 -393 221 -123 -23 -178 -28 -310 -29 -156 0
-163 1 -262 34 l-102 34 -4 51 c-3 49 -3 49 -5 9z m-7 -266 c11 -3 33 -8 48
-11 25 -6 28 -11 27 -39 -1 -18 -2 -51 -1 -73 l1 -41 49 -7 49 -6 0 -60 c0
-55 -2 -60 -21 -61 -22 0 -22 0 1 -9 18 -8 33 -50 17 -50 -26 0 -194 34 -210
43 -11 6 -33 12 -49 14 -16 2 -35 8 -41 13 -15 12 -15 166 0 163 68 -10 70
-10 67 25 -3 28 0 32 20 33 17 1 18 3 6 6 -20 5 -34 45 -23 63 4 6 14 9 23 6
10 -2 26 -7 37 -9z m761 -67 c40 0 44 -2 44 -25 0 -14 -7 -28 -16 -32 -15 -5
-15 -7 1 -16 13 -7 15 -17 11 -41 l-6 -31 52 0 c46 0 53 -3 56 -21 2 -16 -5
-22 -35 -31 l-38 -10 32 -2 c17 0 34 -5 37 -10 12 -19 -7 -41 -38 -43 l-31 -1
33 -4 c27 -4 33 -8 30 -26 -2 -18 -11 -23 -47 -25 -28 -2 -47 1 -52 10 -7 10
-9 9 -9 -4 0 -16 -10 -18 -75 -18 -60 0 -76 3 -84 18 -8 13 -10 14 -11 2 0
-12 -11 -14 -50 -12 -45 4 -50 6 -50 28 0 20 5 24 33 26 l32 1 -32 4 c-27 4
-33 9 -33 29 0 16 6 24 17 24 15 0 15 1 -1 13 -10 7 -16 22 -14 33 3 16 12 19
62 19 l58 1 4 69 c3 37 8 73 11 78 3 5 19 6 35 3 17 -3 50 -6 74 -6z"/>
<path d="M201 2197 c0 -40 4 -92 7 -117 6 -39 11 -45 40 -54 18 -5 35 -6 39
-2 8 7 6 148 -3 187 -3 19 -16 31 -45 42 l-39 15 1 -71z"/>
<path d="M1625 1494 c-11 -3 -29 -7 -41 -9 -21 -5 -25 -21 -50 -184 l-6 -44
62 34 c85 47 170 124 170 154 0 14 -8 28 -17 33 -23 12 -92 21 -118 16z"/>
<path d="M2469 1054 c-8 -3 -27 -34 -41 -70 l-26 -66 24 6 c52 13 191 67 223
87 22 13 30 24 24 30 -11 11 -177 21 -204 13z"/>
<path d="M2450 814 c-14 -2 -39 -7 -56 -9 -28 -5 -32 -11 -64 -105 -19 -55
-31 -102 -29 -105 9 -9 189 53 274 94 120 58 147 100 73 115 -46 9 -168 15
-198 10z"/>
</g>
</svg>
