<?xml version="1.0" standalone="no"?>
<!DOCTYPE svg PUBLIC "-//W3C//DTD SVG 20010904//EN"
 "http://www.w3.org/TR/2001/REC-SVG-20010904/DTD/svg10.dtd">
<svg version="1.0" xmlns="http://www.w3.org/2000/svg"
 width="720.000000pt" height="544.000000pt" viewBox="0 0 720.000000 544.000000"
 preserveAspectRatio="xMidYMid meet">
<metadata>
Created by potrace 1.16, written by Peter Selinger 2001-2019
</metadata>
<g transform="translate(0.000000,544.000000) scale(0.100000,-0.100000)"
fill="#000000" stroke="none">
<path d="M3845 5359 c-187 -22 -391 -124 -536 -268 -37 -36 -79 -74 -93 -84
-31 -22 -66 -86 -66 -123 0 -14 -7 -38 -15 -52 -8 -15 -19 -39 -25 -54 -6 -17
-25 -35 -52 -49 -59 -29 -105 -74 -136 -134 -24 -45 -27 -62 -30 -186 -5 -184
5 -209 137 -325 66 -59 109 -89 139 -97 40 -12 45 -18 67 -70 12 -32 35 -73
49 -92 l27 -35 -28 -1 c-15 0 -39 -2 -53 -4 -14 -3 -43 -7 -65 -10 -93 -13
-237 -130 -260 -211 l-11 -35 -184 0 -184 0 -17 34 c-44 86 -291 269 -426 317
-31 11 -75 32 -97 46 -56 38 -267 73 -433 74 l-121 0 -26 -30 c-22 -27 -25
-39 -23 -91 2 -55 0 -61 -30 -90 -29 -26 -33 -37 -33 -79 0 -39 6 -56 32 -91
55 -71 80 -84 161 -84 59 0 78 -4 104 -22 17 -13 60 -36 95 -52 50 -23 89 -54
183 -148 94 -92 136 -127 195 -157 41 -21 99 -52 129 -67 62 -33 143 -39 190
-14 27 13 31 12 68 -15 54 -40 101 -48 295 -52 158 -3 167 -2 190 18 15 14 42
23 79 27 31 3 71 12 87 21 53 27 76 10 89 -69 6 -36 27 -100 47 -141 29 -62
42 -77 70 -89 29 -12 36 -21 41 -52 4 -21 9 -50 11 -65 l6 -28 -60 0 c-44 0
-61 4 -66 15 -4 10 -19 15 -49 15 -27 0 -49 -6 -57 -15 -16 -19 -39 -19 -60 0
-10 9 -50 17 -113 21 l-97 7 0 31 c0 53 -11 74 -43 87 -64 27 -217 7 -217 -27
0 -26 -24 -25 -96 2 -160 60 -502 96 -738 76 -71 -6 -133 -9 -138 -6 -4 3 -8
14 -8 25 0 17 -7 19 -60 19 -60 0 -60 0 -60 -29 0 -28 -3 -30 -72 -46 -40 -10
-104 -29 -142 -42 -38 -12 -73 -23 -78 -23 -4 0 -8 13 -8 29 0 33 -14 41 -68
41 -51 0 -64 -11 -72 -62 -6 -44 4 -68 29 -68 6 0 15 -9 21 -20 10 -19 11 -19
38 8 15 15 19 18 10 7 -10 -12 -18 -26 -18 -32 0 -25 244 -83 460 -110 l145
-18 -175 -9 c-126 -6 -204 -5 -280 3 -58 7 -123 15 -145 17 -54 7 -29 -9 68
-42 123 -42 468 -75 562 -53 28 6 64 11 80 10 217 -6 295 1 479 41 111 24 229
79 259 120 20 26 20 26 -2 61 l-22 35 21 -5 c32 -8 53 -47 45 -83 -20 -91
-219 -160 -564 -195 -85 -8 -160 -15 -167 -15 -10 0 -14 -13 -14 -39 0 -39 1
-40 38 -44 20 -2 0 -4 -46 -5 -57 -1 -81 1 -77 9 4 6 4 26 1 45 l-7 34 -62 0
c-94 0 -290 18 -397 36 -117 20 -205 48 -247 80 -18 13 -63 34 -100 45 -37 12
-84 29 -104 39 l-35 18 -195 -77 c-106 -43 -261 -103 -344 -135 -83 -31 -161
-67 -174 -80 -23 -24 -23 -26 -16 -160 l7 -136 32 -22 c42 -30 46 -36 46 -89
0 -38 18 -261 96 -1210 l6 -76 -32 -13 c-18 -7 -46 -24 -61 -38 -31 -26 -35
-53 -23 -146 6 -43 9 -47 58 -71 55 -27 85 -29 756 -75 965 -65 1809 -123
2110 -145 725 -53 1305 -97 1555 -117 217 -18 359 -22 857 -25 l596 -4 5 23 4
23 2 -22 c1 -22 5 -23 91 -23 l90 0 128 74 c283 163 508 298 521 311 9 9 16
43 19 93 l4 79 -37 30 -37 31 26 318 c14 176 32 429 41 564 33 510 31 498 63
530 26 26 29 37 35 121 4 51 7 124 7 164 0 119 -10 123 -365 150 -115 8 -240
16 -277 18 l-68 2 0 72 c0 50 -4 76 -15 87 -24 23 -113 38 -160 25 -22 -5 -44
-11 -50 -12 -16 -3 -248 44 -266 54 -13 6 -18 3 -23 -14 l-7 -22 -10 24 c-5
13 -7 33 -3 44 6 20 7 20 20 2 12 -16 14 -16 20 -2 9 25 -10 69 -54 129 -21
29 -47 67 -56 83 -9 17 -28 45 -41 63 -13 18 -28 56 -34 84 -15 67 -43 126
-75 160 -74 77 -173 116 -265 105 -37 -5 -73 2 -187 39 -134 44 -141 47 -152
78 -14 37 -119 140 -172 170 l-35 19 42 8 c23 4 56 15 73 24 72 37 169 151
185 218 13 49 -13 29 -41 -34 -30 -65 -111 -149 -146 -149 -29 0 -19 16 37 58
30 23 61 58 78 89 31 58 57 167 50 206 -5 25 -6 25 -30 10 -17 -11 -27 -13
-35 -5 -16 16 -1 60 23 67 13 5 19 14 17 28 -2 18 2 22 20 20 12 -2 22 2 22 8
0 14 -48 97 -77 132 -27 33 -29 63 -7 115 20 49 11 122 -24 182 -19 33 -27 40
-31 27 -4 -12 -10 -14 -21 -7 -21 14 -77 12 -100 -2 -28 -18 -56 1 -53 37 3
36 6 39 48 31 23 -5 35 -13 36 -24 0 -10 3 -12 6 -4 2 6 14 11 26 11 17 -1 18
-2 5 -6 -10 -2 -18 -9 -18 -14 0 -6 7 -6 19 0 10 6 21 8 24 5 3 -3 3 5 0 18
l-5 23 22 -25 22 -25 -6 33 c-6 32 -36 89 -114 212 -42 66 -162 186 -240 239
-112 76 -241 130 -382 162 -102 23 -313 32 -425 18z m328 -253 c167 -43 322
-137 420 -256 21 -25 58 -87 84 -139 54 -109 64 -173 40 -249 -9 -26 -19 -68
-23 -93 -4 -24 -22 -74 -40 -111 -53 -105 -80 -185 -109 -319 -36 -166 -52
-212 -81 -226 -18 -8 -24 -8 -28 3 -3 7 -1 16 5 19 5 4 7 11 4 16 -4 5 -18 -2
-33 -16 -15 -14 -32 -25 -39 -25 -11 0 -15 -10 -12 -37 0 -5 8 -7 17 -5 14 2
14 0 -2 -13 -11 -8 -28 -12 -38 -9 -11 3 -25 1 -33 -6 -8 -7 -15 -7 -19 -1 -9
14 -79 2 -96 -18 -11 -12 -32 -16 -80 -16 l-65 0 -6 45 c-7 54 -11 43 -9 -24
1 -41 -1 -48 -12 -39 -8 7 -59 13 -123 14 -73 1 -115 6 -125 15 -21 17 -70 29
-70 16 0 -6 9 -14 20 -17 11 -3 26 -13 34 -20 16 -17 112 -33 213 -37 50 -2
73 -7 73 -15 0 -17 -48 -16 -180 2 -210 28 -378 103 -496 220 -91 91 -118 139
-143 252 -26 117 -29 335 -5 462 32 174 117 337 227 438 78 71 199 150 250
163 185 49 176 47 288 49 72 1 121 -5 192 -23z m-1015 -384 c-40 -44 -73 -121
-65 -151 3 -11 -1 -25 -8 -31 -19 -15 -26 -80 -26 -218 1 -137 12 -201 42
-244 25 -35 19 -46 -12 -24 -63 44 -156 148 -168 187 -7 22 -10 43 -8 45 2 3
10 -15 17 -40 11 -41 63 -106 75 -94 3 3 0 38 -6 79 -25 162 24 397 103 493
24 29 70 50 87 39 2 -1 -12 -20 -31 -41z m1879 -366 l28 -25 -33 1 c-25 1 -42
-8 -73 -38 -36 -34 -69 -82 -69 -99 0 -3 18 -5 41 -5 40 0 41 -1 34 -27 -10
-41 -19 -46 -54 -29 -19 10 -31 12 -31 6 0 -6 -4 -9 -8 -6 -24 15 -82 -211
-82 -317 0 -85 5 -92 56 -95 27 -1 43 2 39 8 -3 6 1 7 10 4 24 -10 0 -29 -50
-40 -89 -21 -114 5 -122 123 -5 82 5 139 51 313 25 95 25 95 104 173 88 86
112 94 159 53z m-3344 -381 c56 -9 131 -19 166 -25 118 -17 81 -25 -107 -24
-178 1 -231 9 -247 33 -21 35 32 39 188 16z m691 -303 c101 -86 130 -133 128
-208 -1 -43 -20 -119 -21 -89 -1 7 -16 9 -36 7 -27 -3 -35 -1 -35 12 0 17 -70
66 -94 66 -7 0 -19 7 -26 15 -15 18 -62 12 -89 -11 -9 -8 -39 -25 -67 -38
l-51 -24 58 57 c41 41 61 68 70 101 15 53 18 173 5 214 l-9 29 40 -29 c23 -16
80 -62 127 -102z m-312 88 c21 -6 40 -15 43 -21 4 -5 -3 -29 -14 -52 -26 -53
-99 -94 -157 -88 -17 2 -37 106 -24 130 21 41 76 52 152 31z m1306 -36 c34
-25 62 -49 62 -52 0 -4 -36 -7 -79 -7 -91 0 -114 -12 -93 -46 8 -12 12 -22 10
-22 -19 -10 -75 -43 -83 -50 -5 -5 -28 -18 -50 -31 -71 -39 -50 -93 33 -82 29
5 32 4 12 -3 -52 -19 -80 -13 -98 20 -9 17 -28 45 -42 62 -43 52 -120 69 -120
26 0 -11 -5 -19 -11 -19 -24 0 5 67 49 113 96 100 171 135 288 136 56 1 64 -2
122 -45z m1116 -20 c26 -10 18 -31 -19 -54 -77 -47 -153 -78 -225 -90 -41 -6
-99 -16 -129 -21 -52 -8 -71 -6 -58 7 6 6 43 16 157 40 82 17 143 44 210 93
24 17 44 31 46 31 1 0 9 -3 18 -6z m382 -70 c55 -29 128 -95 150 -136 20 -38
17 -45 -6 -15 -11 14 -36 35 -56 48 -28 17 -40 19 -57 11 -12 -6 -37 -14 -55
-17 -17 -4 -54 -21 -80 -39 l-47 -33 -18 23 c-20 27 -23 59 -4 48 8 -5 9 -4 2
4 -6 7 -52 13 -108 14 -78 2 -100 0 -107 -12 -5 -8 -10 -11 -10 -5 0 5 -5 4
-12 -3 -14 -14 -28 -16 -28 -2 0 23 70 86 125 111 53 25 72 28 161 29 90 0
106 -3 150 -26z m-1391 6 c3 -5 1 -10 -5 -10 -22 0 -75 -30 -87 -50 -13 -20
-7 -54 7 -45 5 3 11 1 14 -4 3 -5 -8 -8 -24 -7 -17 1 -30 -1 -30 -6 0 -4 15
-8 33 -8 l32 -1 -22 -18 c-13 -11 -23 -24 -23 -30 0 -6 9 -2 20 9 11 11 29 20
39 20 31 0 73 -19 66 -30 -3 -5 0 -10 7 -11 7 0 2 -5 -11 -10 -19 -8 -22 -12
-12 -22 9 -9 14 -9 20 2 6 9 11 10 15 2 9 -14 56 -14 56 0 0 5 -4 8 -8 5 -4
-2 -9 7 -10 20 -2 23 2 21 31 -18 67 -88 172 -125 322 -115 44 3 96 12 115 21
29 11 51 12 115 4 44 -5 93 -13 109 -18 22 -7 27 -7 19 1 -14 14 -83 28 -143
29 -30 0 -40 3 -30 9 8 5 35 6 60 2 47 -7 179 12 214 31 21 11 21 7 -3 -207
-5 -44 -7 -105 -4 -135 l5 -55 -31 -2 c-18 -1 -34 3 -37 10 -2 7 -9 55 -14
107 l-9 95 5 -120 5 -120 -39 -20 c-22 -11 -68 -35 -103 -54 -73 -40 -64 -36
-147 -55 l-64 -14 -45 34 c-55 42 -113 73 -168 89 -28 9 -41 19 -45 36 -6 24
-6 24 -12 2 -5 -20 -9 -21 -48 -12 -27 6 -62 6 -97 -1 -31 -5 -58 -8 -62 -5
-4 2 -20 24 -36 49 -28 45 -58 59 -68 34 -9 -25 -27 8 -38 68 -30 173 -42 197
-66 131 -26 -71 -4 -226 46 -326 23 -45 37 -126 20 -115 -18 10 -65 122 -79
185 -8 35 -11 102 -8 180 4 115 7 131 42 219 49 123 89 185 145 226 50 37 57
39 66 24z m-570 -144 c38 -25 83 -93 100 -149 16 -55 13 -67 -16 -67 -11 0
-17 -4 -14 -10 4 -6 -8 -10 -29 -10 -19 0 -36 -6 -38 -12 -3 -9 -37 -14 -108
-16 -117 -4 -120 -3 -120 69 0 29 -10 64 -27 100 -23 45 -35 56 -67 67 -48 15
-71 33 -57 42 6 3 87 5 180 4 140 -1 175 -4 196 -18z m-1108 -37 c20 -20 145
-78 158 -73 16 6 55 -25 55 -43 0 -7 6 -13 14 -13 8 0 16 -6 19 -13 3 -8 25
-23 49 -35 23 -11 56 -32 72 -46 16 -14 32 -26 36 -26 4 0 20 -11 36 -25 26
-22 27 -25 9 -25 -16 0 -17 -2 -6 -9 24 -15 -28 -19 -75 -5 -80 22 -268 169
-340 265 -11 14 -33 33 -49 42 -25 13 -27 16 -9 17 11 0 25 -5 31 -11z m3349
-55 c49 -14 107 -34 129 -44 l40 -20 -43 6 c-54 7 -122 -24 -160 -75 -15 -20
-35 -42 -44 -49 -9 -7 -27 -41 -40 -75 -12 -34 -24 -55 -26 -47 -2 14 -164 80
-204 83 -22 2 -22 2 -1 62 20 60 80 122 153 158 67 33 85 33 196 1z m391 -78
c51 -28 88 -70 125 -146 36 -72 56 -130 45 -130 -3 0 -21 22 -40 49 -26 35
-54 59 -103 85 -60 32 -77 36 -141 36 -48 0 -90 -7 -124 -20 -29 -10 -56 -17
-61 -14 -5 3 -7 0 -6 -8 2 -7 -5 -13 -14 -13 -9 0 -20 -4 -24 -8 -4 -4 -2 -7
4 -7 6 0 -2 -20 -18 -44 -30 -44 -70 -129 -70 -148 0 -6 10 2 22 18 39 52 83
95 111 111 46 23 41 9 -9 -31 -26 -20 -42 -36 -35 -36 7 0 -10 -18 -38 -40
-55 -44 -63 -65 -28 -73 12 -4 30 -12 40 -19 18 -13 18 -16 2 -56 -18 -44 -84
-102 -117 -102 -22 0 -23 4 0 30 9 12 18 39 18 63 3 82 50 244 104 359 24 52
81 107 149 144 40 22 55 25 113 20 36 -2 79 -12 95 -20z m4 -187 c20 -5 43
-17 50 -26 8 -9 37 -33 66 -54 56 -42 123 -107 123 -120 0 -5 -21 1 -47 14
-34 16 -47 19 -50 10 -4 -10 -10 -10 -26 -1 -25 13 -73 13 -90 0 -7 -5 -51
-12 -98 -16 -110 -9 -123 1 -117 82 4 49 9 59 47 94 45 42 44 42 142 17z
m-707 -209 c24 -17 79 -39 123 -51 l80 -22 -4 -66 c-3 -36 -8 -69 -12 -73 -4
-4 -55 -16 -114 -26 l-107 -18 0 31 c0 43 -16 55 -71 55 -69 0 -79 -6 -79 -50
0 -22 -5 -42 -11 -46 -7 -4 -51 -7 -99 -8 l-87 -1 44 50 c58 64 93 134 95 190
2 44 3 45 38 45 19 1 49 7 65 15 40 19 86 10 139 -25z m668 -48 c29 -32 36
-49 41 -102 8 -70 5 -79 -18 -60 -9 8 -29 10 -49 7 l-34 -5 -22 68 -22 68 23
31 c12 17 28 31 35 31 6 0 27 -17 46 -38z m132 25 c16 -12 28 -29 63 -95 13
-25 15 -37 6 -50 -8 -14 -7 -23 7 -39 9 -12 20 -48 23 -83 4 -33 10 -72 13
-86 6 -25 5 -26 -31 -21 -21 3 -42 11 -46 19 -25 38 -39 148 -19 148 6 0 10 6
10 14 0 8 6 17 13 20 6 3 0 4 -14 1 -45 -8 -63 25 -76 138 -5 42 -3 47 14 47
10 0 27 -6 37 -13z m-260 -127 c20 -28 36 -51 36 -53 0 -1 -65 -4 -145 -5 -80
-1 -145 2 -145 6 0 13 103 82 137 92 62 19 79 13 117 -40z m-3306 -51 c65 -14
91 -31 74 -52 -42 -50 -401 -69 -494 -26 -88 40 44 87 249 88 67 1 144 -4 171
-10z m-1413 -235 c-11 -8 -45 -22 -75 -31 -30 -8 -106 -40 -167 -69 -118 -56
-136 -76 -86 -95 14 -5 166 -20 337 -32 178 -13 292 -24 266 -27 l-45 -5 46
-12 c25 -7 133 -17 240 -23 107 -6 257 -15 334 -21 77 -5 183 -11 235 -13 l95
-4 -75 8 c-41 5 -136 13 -210 20 -387 34 -520 48 -475 48 56 1 224 -10 490
-32 99 -8 275 -20 390 -26 249 -14 497 -37 415 -39 -60 -1 -110 -20 -55 -21
17 0 122 -7 235 -15 113 -8 311 -21 440 -30 129 -8 298 -20 375 -26 77 -5 228
-14 335 -19 107 -5 233 -12 280 -16 60 -4 82 -3 75 4 -5 6 -28 13 -50 15 -94
10 174 -4 458 -25 169 -12 307 -26 307 -30 0 -11 -44 -10 -111 1 -66 11 -285
24 -277 16 13 -14 860 -73 903 -63 11 2 -14 9 -55 15 -67 10 -58 11 90 7 91
-3 296 -14 455 -26 349 -25 480 -21 558 15 28 13 79 44 112 69 89 66 426 283
385 249 -19 -16 -31 -33 -27 -38 5 -4 13 0 18 10 6 9 14 15 19 12 5 -3 12 -1
15 5 4 6 15 8 25 5 29 -9 186 97 174 117 -4 7 -2 8 4 4 7 -4 12 -3 12 2 0 17
-51 32 -105 32 -35 0 -55 4 -55 11 0 8 19 10 66 5 66 -7 114 -28 114 -51 0
-21 -626 -456 -698 -484 l-47 -19 -8 -108 c-4 -60 -9 -115 -12 -122 -2 -6 -20
-12 -39 -12 -27 0 -33 4 -31 18 2 9 6 61 9 115 l5 97 -123 0 c-68 0 -179 4
-247 10 -68 5 -198 14 -289 20 -91 5 -345 21 -565 35 -220 14 -506 31 -635 40
-496 31 -2381 158 -2660 180 -423 32 -906 61 -1210 71 -96 3 -184 6 -195 7
-19 2 -20 -4 -19 -91 1 -108 3 -112 81 -112 29 0 83 -5 120 -11 38 -6 118 -17
178 -24 l110 -14 -135 5 c-196 7 -399 23 -443 35 -20 5 -43 20 -51 32 -15 24
-31 244 -18 263 12 18 60 40 233 104 90 34 184 69 209 80 55 23 72 24 45 4z
m3856 -29 c-65 -75 -35 -131 104 -196 148 -68 396 -112 640 -112 440 -1 524 5
717 48 230 51 366 160 288 230 -23 21 -26 40 -5 31 8 -3 21 4 30 17 12 17 15
18 15 5 0 -9 -4 -19 -9 -22 -12 -8 19 -67 58 -111 19 -22 31 -46 30 -63 0 -16
-3 -21 -6 -12 -3 8 -16 27 -29 43 l-23 27 -48 -42 c-104 -89 -266 -135 -636
-179 l-98 -12 3 -41 c3 -40 4 -41 43 -47 22 -4 -10 -6 -75 -6 -63 0 -105 2
-92 4 19 4 22 11 22 49 l0 44 -69 0 c-231 0 -599 53 -711 102 -108 48 -153 74
-181 105 -42 49 -39 86 11 135 51 48 62 49 21 3z m-767 -181 c24 -9 19 -27
-14 -59 -29 -28 -30 -28 -106 -19 -45 5 -79 14 -82 21 -2 7 9 24 24 38 23 22
36 25 95 25 37 0 74 -3 83 -6z m-1941 -422 c60 -27 81 -60 74 -115 -5 -36 -15
-51 -66 -98 -61 -56 -66 -69 -27 -69 36 0 83 -36 102 -79 28 -61 47 -53 78 32
15 39 46 116 69 170 36 87 43 98 62 93 12 -3 30 1 41 9 10 8 27 15 37 15 9 0
17 5 17 10 0 6 5 10 10 10 6 0 10 -9 10 -20 0 -11 4 -28 9 -38 6 -9 18 -71 28
-137 17 -112 20 -120 41 -123 15 -2 22 -9 18 -17 -3 -8 -1 -17 3 -20 5 -2 14
16 20 41 26 104 97 195 184 239 50 25 97 32 111 18 4 -4 14 -8 23 -8 24 0 56
-50 55 -85 -1 -48 -21 -100 -36 -94 -8 3 -16 -2 -20 -12 -6 -15 -9 -14 -26 6
-11 13 -20 34 -20 47 0 35 -33 29 -75 -12 -47 -47 -76 -107 -82 -169 -4 -43
-1 -56 18 -80 19 -24 27 -28 60 -23 20 3 64 23 97 46 59 40 88 53 64 29 -14
-14 -16 -48 -4 -48 5 0 18 10 30 23 16 17 27 57 47 176 32 186 37 201 64 194
13 -3 21 -1 21 7 0 7 8 9 20 5 11 -4 20 -2 20 4 0 21 16 11 26 -16 7 -20 6
-46 -3 -88 -7 -33 -12 -64 -13 -68 0 -10 19 4 139 105 50 43 97 75 104 72 7
-2 24 7 37 21 37 39 46 29 10 -11 -17 -20 -29 -39 -25 -42 3 -3 11 0 17 6 17
17 33 15 18 -3 -6 -8 -9 -19 -5 -25 9 -14 -13 -39 -90 -103 -33 -27 -79 -67
-103 -89 l-43 -39 97 -120 c53 -66 98 -118 101 -115 2 2 -1 13 -8 23 -13 22
-4 97 12 88 5 -4 9 -1 9 5 0 7 6 10 14 7 7 -3 18 -1 23 4 5 5 14 -5 22 -26 8
-23 20 -37 37 -41 36 -9 94 2 124 24 45 34 33 52 -70 105 -111 56 -138 79
-146 122 -11 60 38 120 138 171 119 60 228 31 228 -61 0 -29 -28 -90 -37 -81
-3 3 -12 -2 -19 -12 -8 -10 -13 -12 -14 -4 0 6 -7 12 -15 12 -10 0 -15 10 -15
30 0 37 -18 39 -80 8 -67 -34 -61 -52 35 -104 44 -23 99 -60 123 -81 35 -32
42 -45 42 -75 0 -44 -33 -87 -94 -123 -76 -44 -219 -83 -201 -55 3 6 1 10 -5
10 -6 0 -29 9 -50 19 -22 11 -40 17 -40 14 0 -2 21 -31 46 -64 25 -32 43 -59
41 -59 -2 0 -28 18 -57 40 -56 42 -85 53 -57 22 27 -29 20 -35 -14 -12 -24 18
-39 21 -77 17 -42 -5 -44 -5 -19 5 15 7 27 15 27 19 0 5 -26 34 -58 66 -32 32
-76 79 -99 105 l-40 48 -18 -88 c-10 -48 -22 -91 -27 -97 -6 -6 -7 -3 -3 8 4
9 3 17 -3 17 -11 0 -29 -41 -35 -80 -3 -16 -5 -9 -6 16 -1 43 -24 77 -35 52
-3 -7 -4 17 -3 55 1 37 0 67 -3 67 -3 0 -30 -25 -60 -56 -62 -63 -120 -104
-149 -104 -35 0 -109 40 -140 75 -17 20 -36 56 -42 80 -10 41 -30 58 -43 37
-3 -5 2 -40 10 -78 17 -82 17 -94 3 -74 -8 11 -9 1 -6 -40 l5 -55 -20 44 c-13
29 -23 40 -28 32 -5 -9 -10 -3 -15 16 -7 25 -8 26 -15 8 -10 -25 -14 -15 -33
70 -15 67 -10 65 -113 44 -52 -10 -52 -10 -74 -69 -12 -33 -28 -60 -35 -60 -7
0 -19 -13 -27 -30 -15 -34 -28 -39 -28 -12 0 26 -11 34 -27 21 -17 -15 -16 -4
3 61 22 75 4 84 -56 25 -25 -24 -75 -63 -113 -88 -37 -24 -64 -46 -61 -50 4
-3 -20 -18 -52 -34 -33 -15 -63 -29 -68 -31 -5 -3 -6 0 -2 7 4 6 1 11 -8 11
-9 0 -18 -12 -22 -27 -9 -44 -12 -50 -13 -25 -1 12 -5 22 -10 22 -14 0 -21
-28 -21 -87 0 -31 -3 -53 -7 -49 -9 8 -9 13 -11 74 -2 45 -18 57 -25 20 l-4
-23 -8 23 c-8 24 -15 24 -72 6 -17 -5 -17 -5 1 10 20 16 13 41 -10 32 -8 -3
-14 -1 -14 5 0 5 7 12 15 15 21 9 19 27 -2 20 -24 -8 14 23 55 45 29 16 30 19
31 95 1 44 4 94 7 112 5 25 3 32 -10 32 -15 0 -21 17 -16 49 1 8 -4 17 -10 21
-8 5 -1 12 18 21 35 15 39 27 48 121 l7 68 -59 -24 c-54 -22 -95 -25 -63 -5
11 7 11 11 1 21 -10 10 -23 9 -65 -6 -84 -30 -86 -29 -15 8 61 33 105 69 65
53 -10 -3 -17 -2 -17 3 0 21 161 89 261 110 68 14 190 5 242 -18z m-1418 -217
c40 -458 75 -916 74 -970 l-1 -50 -9 55 c-8 55 -36 376 -63 720 -20 247 -30
436 -23 430 3 -3 13 -86 22 -185z m3903 93 c6 -40 16 -111 23 -158 10 -81 19
-100 46 -100 7 0 10 -7 7 -15 -4 -8 -2 -15 4 -15 5 0 17 21 27 48 27 70 57
113 116 167 92 82 195 115 273 85 33 -12 58 -62 50 -97 -11 -45 -34 -84 -46
-77 -5 4 -14 1 -18 -6 -12 -19 -40 12 -40 44 0 72 -150 -25 -200 -129 -25 -51
-26 -122 -3 -147 24 -27 80 -23 127 10 57 39 57 52 2 52 -34 0 -46 4 -47 15
-5 70 -5 69 37 76 21 4 78 10 126 14 l86 7 -3 -34 c-2 -18 -12 -58 -23 -88
-11 -30 -33 -95 -48 -145 -19 -64 -29 -84 -34 -70 -8 23 -17 11 -36 -49 l-13
-41 0 48 c-1 26 -5 47 -11 47 -5 0 -10 -7 -10 -15 0 -8 -5 -15 -10 -15 -6 0
-8 11 -5 25 3 14 7 36 10 50 3 14 4 25 2 25 -2 0 -25 -11 -51 -25 -58 -31 -78
-31 -135 -2 -58 30 -101 84 -108 136 -5 35 -9 41 -29 41 -20 0 -23 -4 -18 -27
24 -136 25 -154 3 -123 -8 11 -9 -2 -4 -44 6 -62 -2 -68 -20 -15 -5 17 -14 31
-20 31 -5 -1 -15 9 -22 21 -7 12 -12 16 -13 10 0 -7 -4 -13 -8 -13 -5 0 -15
32 -22 71 l-12 71 -62 -6 c-105 -12 -105 -12 -142 -90 -19 -39 -34 -63 -34
-54 0 28 -25 10 -49 -35 -20 -39 -21 -40 -17 -12 6 39 -9 68 -23 45 -22 -34
-19 1 4 51 19 42 22 56 12 64 -16 13 -20 55 -6 55 8 0 8 4 0 14 -13 15 4 26
38 26 16 0 61 80 139 243 2 5 -11 6 -29 3 -19 -3 -68 -11 -110 -17 l-77 -11
-15 -62 c-9 -33 -33 -130 -54 -215 -28 -114 -39 -147 -43 -125 l-5 29 -22 -36
c-12 -19 -27 -46 -33 -60 -8 -19 -9 -14 -4 27 3 33 2 54 -5 59 -6 3 -11 1 -11
-4 0 -6 -5 -11 -10 -11 -6 0 -8 17 -4 43 7 52 53 295 61 321 5 17 1 18 -38 12
-125 -20 -135 -20 -121 -4 7 10 9 19 4 22 -12 7 -8 64 4 76 5 5 45 14 89 20
44 6 91 16 105 22 31 13 264 20 293 8 l22 -8 -24 -9 c-22 -9 -23 -10 -5 -17
18 -7 17 -8 -5 -20 -24 -13 -24 -13 13 -18 34 -4 39 -1 58 34 16 28 26 37 40
32 18 -5 84 13 103 28 18 16 22 7 33 -64z m1076 -33 c15 -8 39 -15 52 -15 41
0 35 -18 -8 -25 -24 -4 -52 -14 -63 -21 -19 -14 -19 -14 5 -14 56 0 -6 -18
-84 -24 -160 -13 -174 -16 -179 -39 -3 -12 -9 -33 -13 -46 -7 -23 -6 -23 62
-21 38 2 82 2 98 1 28 -1 29 -2 10 -16 -19 -14 -18 -14 4 -15 33 0 27 -16 -10
-25 -28 -6 -30 -8 -13 -14 18 -7 17 -8 -5 -14 -14 -3 -61 -9 -105 -13 l-81 -7
-11 -36 c-7 -20 -14 -43 -17 -51 -5 -13 13 -15 141 -12 85 2 159 -1 173 -7 24
-9 24 -10 -8 -10 -19 -1 -31 -5 -27 -11 3 -5 41 -11 83 -11 82 -2 77 -4 -30
-14 -65 -6 -96 -25 -41 -25 68 0 3 -9 -142 -20 -88 -7 -172 -18 -187 -25 -20
-10 -28 -10 -31 -1 -3 6 -9 0 -15 -14 -9 -22 -11 -23 -17 -7 -5 11 -18 17 -37
17 -25 0 -28 3 -23 20 3 11 2 20 -3 20 -5 0 -9 13 -9 30 0 21 6 30 20 32 27 4
64 107 45 123 -7 5 -12 17 -12 25 1 8 2 23 3 32 0 9 10 20 22 23 20 7 30 24
43 77 5 22 2 27 -16 30 -16 2 -22 10 -23 31 0 15 3 27 7 27 4 0 8 8 8 18 0 33
64 51 184 51 60 1 112 3 114 6 11 11 109 4 136 -10z m-2625 -570 c33 -10 69
-31 88 -50 33 -33 34 -35 18 -64 -14 -28 -82 -74 -160 -110 l-30 -14 35 -8
c88 -22 111 -31 140 -55 23 -20 30 -34 30 -62 0 -31 -8 -44 -53 -87 -60 -56
-109 -83 -241 -131 -67 -25 -80 -33 -51 -29 47 6 31 -1 -79 -34 -75 -23 -100
-26 -76 -11 12 8 12 10 -5 9 -11 0 -38 -6 -59 -12 -31 -10 -42 -19 -52 -47
l-12 -35 -1 33 c-1 29 -3 32 -21 22 -11 -6 -22 -25 -25 -48 -17 -103 -25 -117
-20 -39 4 70 3 78 -12 75 -9 -2 -20 -14 -24 -28 l-6 -25 -8 27 c-7 29 -5 29
-80 12 -19 -5 -19 -5 -1 10 11 9 39 15 70 15 59 0 39 -5 276 65 176 51 325
104 317 112 -2 2 -30 -5 -62 -17 -32 -11 -64 -18 -72 -15 -8 3 -11 1 -8 -4 8
-13 -18 -13 -30 -1 -22 21 -96 22 -175 2 -84 -22 -113 -26 -94 -13 10 7 34 65
34 83 0 12 -99 7 -109 -6 -17 -21 -22 -68 -9 -76 20 -13 0 -26 -66 -43 -63
-17 -81 -26 -51 -26 14 0 16 -3 8 -11 -6 -6 -9 -17 -7 -23 3 -8 -7 -11 -33 -8
-33 4 -35 6 -15 13 24 9 30 29 10 29 -22 1 23 22 70 34 l45 12 24 89 c12 50
25 100 29 113 5 16 2 22 -11 22 -9 0 -14 4 -11 9 4 5 0 11 -6 14 -10 3 -10 7
1 20 11 14 11 17 0 18 -8 0 4 9 25 19 36 16 42 26 68 95 l28 78 -37 -7 c-95
-16 -118 -17 -104 -8 17 12 6 32 -17 32 -11 0 -5 7 16 20 39 24 41 32 5 24
-23 -5 -26 -4 -16 7 7 7 59 23 115 35 90 20 125 23 273 20 126 -2 184 -8 224
-21z m793 -4 c2 -6 33 -6 78 -1 41 5 111 9 155 8 l80 0 -50 -13 c-48 -13 -49
-13 -15 -15 l35 -2 -35 -13 -35 -14 40 4 c232 25 484 28 405 5 -24 -7 -24 -8
10 -16 l35 -8 -55 -17 c-44 -14 -49 -18 -26 -18 19 -1 26 -5 20 -10 -5 -5 -64
-15 -132 -22 l-124 -13 -19 -37 c-10 -21 -19 -41 -19 -45 0 -4 35 -3 79 0 43
4 91 4 107 0 l29 -8 -25 -7 -25 -6 25 -11 c14 -6 20 -11 13 -11 -6 -1 -24 -6
-40 -12 -26 -10 -26 -12 -8 -19 14 -5 -2 -9 -50 -14 -154 -15 -151 -14 -164
-54 -7 -21 -15 -42 -17 -49 -4 -8 45 -10 193 -8 109 2 181 1 161 -1 -70 -9
-31 -32 61 -36 25 -1 18 -3 -24 -8 -33 -4 -80 -10 -104 -15 -32 -6 -42 -5 -37
3 4 7 16 12 27 12 11 0 17 5 14 10 -3 6 -15 10 -26 10 -12 0 -17 4 -13 11 5 9
-23 10 -107 4 -63 -4 -125 -8 -139 -9 -25 -1 -27 4 -19 49 3 16 -2 21 -29 23
-18 2 -30 8 -27 13 4 5 0 9 -8 9 -13 0 -45 -76 -39 -93 1 -4 -11 -12 -26 -18
-24 -8 -28 -15 -24 -34 4 -21 1 -25 -19 -24 -13 0 -18 3 -11 6 6 2 12 11 12
18 0 7 -6 15 -12 18 -7 2 3 9 22 15 30 10 38 19 50 60 18 57 18 68 3 65 -7 -2
-10 8 -9 25 2 15 -1 30 -6 33 -6 4 6 12 27 19 27 9 41 21 51 46 18 43 18 64
-1 64 -12 0 -12 5 -5 26 10 26 9 26 -22 21 -18 -3 -63 -9 -99 -13 l-67 -6 -63
-167 c-79 -211 -108 -280 -109 -260 0 8 13 51 29 95 25 68 27 83 16 103 -8 16
-15 20 -19 12 -4 -6 -22 -10 -40 -8 -33 4 -34 3 -56 -61 -17 -47 -20 -67 -12
-70 7 -2 12 -8 12 -13 0 -4 -6 -6 -13 -3 -8 3 -18 -9 -26 -31 -7 -20 -15 -34
-18 -32 -5 5 65 228 109 344 12 34 20 64 17 67 -3 3 -34 1 -70 -4 -147 -22
-136 -22 -116 -6 17 13 17 15 2 24 -16 8 -16 11 -1 35 13 19 14 26 4 30 -25 9
39 25 143 37 57 7 109 16 114 20 6 5 21 10 35 13 14 2 28 5 32 6 3 0 8 -3 10
-8z m1088 -19 c19 -9 37 -26 39 -37 2 -11 8 -23 14 -27 17 -11 -28 -99 -47
-92 -9 3 -17 -3 -22 -18 l-7 -23 -9 24 c-7 19 -11 21 -22 11 -12 -9 -15 -6
-18 22 -4 41 -21 45 -92 23 -63 -20 -116 -59 -101 -74 6 -5 63 -30 127 -55
204 -79 248 -108 248 -166 0 -14 -7 -34 -15 -44 -8 -10 -12 -23 -9 -27 3 -5
-1 -9 -9 -9 -8 0 -20 -7 -28 -16 -11 -14 -6 -15 52 -9 35 3 74 8 87 11 12 2
22 0 22 -6 0 -5 -8 -10 -17 -10 -10 0 -58 -5 -107 -10 -73 -7 -112 -19 -223
-66 -73 -31 -131 -59 -128 -62 6 -6 -63 -36 -118 -52 -18 -6 -25 -5 -21 2 9
14 -21 4 -155 -53 -130 -56 -163 -58 -47 -3 42 20 75 39 72 41 -3 3 -80 -21
-171 -52 -91 -32 -168 -55 -170 -53 -14 14 345 135 364 123 6 -3 11 -1 11 5 0
8 9 10 24 6 15 -4 45 2 74 13 27 11 82 31 123 44 41 14 103 39 139 55 l65 31
-57 0 c-32 1 -58 6 -60 12 -2 7 -17 12 -33 12 -32 0 -364 -142 -430 -184 -46
-29 -104 -54 -110 -47 -3 2 24 19 58 36 34 18 73 39 87 47 14 7 99 46 190 86
190 83 336 154 344 168 11 17 -5 38 -42 54 -20 9 -86 35 -147 58 -153 59 -187
97 -150 168 34 66 234 160 340 161 28 0 65 -8 85 -18z m-1477 -18 c-3 -9 0
-20 8 -24 11 -7 6 -31 -28 -127 -23 -65 -54 -154 -69 -198 -44 -129 -76 -206
-69 -165 4 19 16 61 26 93 26 73 23 99 -13 104 -16 2 -28 -1 -28 -7 0 -5 -7
-10 -16 -10 -27 0 -43 -26 -60 -96 -15 -65 -32 -109 -39 -102 -4 3 13 66 59
223 62 211 102 317 114 298 8 -12 102 6 102 19 0 5 4 8 10 8 5 0 7 -7 3 -16z
m-2345 -157 c15 -12 16 -63 1 -73 -17 -10 -97 -6 -135 6 -29 10 -34 16 -34 44
0 18 3 36 7 40 10 9 145 -4 161 -17z m246 -20 c26 -19 18 -71 -11 -75 -13 -2
-23 -7 -23 -10 0 -4 10 -12 23 -17 27 -12 37 -72 13 -81 -9 -3 -48 -2 -88 3
l-73 8 -3 37 c-3 36 -2 37 35 40 l38 3 -37 17 c-34 15 -38 21 -38 52 l0 36 73
0 c44 0 80 -5 91 -13z m4680 -143 c46 -7 46 -7 46 -45 l0 -39 -72 0 c-108 0
-118 5 -118 51 l0 39 49 0 c26 0 69 -3 95 -6z m39 -133 c5 -5 7 -21 5 -37 -3
-26 -7 -29 -43 -32 -22 -2 -64 -1 -92 3 -52 6 -53 7 -53 39 0 18 3 36 8 40 9
10 164 -2 175 -13z m-2443 -31 c0 -5 -8 -31 -18 -57 l-18 -48 335 -2 c185 -1
351 -5 370 -10 21 -5 -110 -8 -330 -8 -502 0 -663 -11 -933 -66 -82 -16 -156
-34 -165 -39 -12 -8 -11 -9 9 -5 14 3 131 18 260 35 293 37 607 61 657 50 20
-5 141 -7 267 -5 216 3 221 3 86 -5 -380 -24 -534 -40 -699 -75 -41 -8 -76
-13 -79 -10 -14 14 243 66 388 79 25 2 -20 2 -100 0 -162 -4 -416 -31 -652
-70 -87 -14 -174 -24 -195 -22 l-38 3 31 17 c38 21 202 63 304 77 140 21 325
41 377 41 83 0 97 10 113 74 7 31 17 56 22 56 4 0 8 -4 8 -10z m-2960 -72 c30
-11 133 -24 312 -38 76 -6 148 -14 162 -19 25 -10 278 -35 511 -50 364 -25
488 -35 477 -39 -12 -4 -143 3 -517 28 -237 16 -633 38 -772 44 l-133 6 -1
-42 c-1 -24 -4 -33 -6 -22 -2 12 -12 24 -23 27 -10 2 -20 15 -22 28 -2 15 -12
25 -33 31 -44 12 -55 4 -55 -42 0 -22 -5 -40 -10 -40 -7 0 -10 28 -8 77 3 70
5 79 27 89 20 10 27 9 45 -8 11 -11 32 -24 46 -30z m6620 14 c0 -11 -41 -39
-128 -87 -70 -38 -217 -119 -328 -181 -110 -61 -229 -122 -263 -135 -35 -12
-66 -29 -69 -38 -8 -19 -42 -24 -42 -7 0 9 -82 17 -292 29 -596 36 -1264 77
-1288 81 -72 9 80 4 381 -14 807 -49 867 -51 1019 -45 85 3 172 8 194 11 28 5
37 3 31 -6 -10 -17 58 -2 123 26 65 29 219 120 229 137 18 28 228 142 243 132
10 -6 126 51 165 81 19 14 19 16 3 28 -24 18 -23 29 2 16 11 -6 20 -18 20 -28z
m-1475 -2 c22 -8 26 -15 23 -42 -3 -31 -5 -33 -48 -36 -25 -1 -65 1 -90 6 -36
6 -46 12 -48 30 -7 45 3 52 72 52 36 0 77 -4 91 -10z m253 -22 c20 -20 15 -66
-9 -73 -32 -10 -157 5 -170 21 -6 8 -8 25 -5 39 6 24 9 25 89 25 51 0 88 -5
95 -12z"/>
<path d="M3530 4622 c-7 -40 -17 -72 -22 -72 -5 0 -31 12 -58 26 -59 31 -113
34 -142 8 -30 -28 -69 -99 -80 -147 -6 -25 -6 -111 -1 -217 5 -118 10 -160 14
-130 l6 45 2 -45 c1 -27 13 -69 31 -105 16 -33 30 -64 30 -69 0 -12 26 -32 85
-63 47 -25 61 -27 225 -34 187 -7 187 -7 350 -82 69 -32 177 -51 244 -43 174
20 269 119 336 347 28 96 32 122 27 181 -7 78 -36 148 -74 178 -55 43 -87 44
-429 14 -140 -13 -376 31 -495 91 -54 28 -56 33 -38 115 6 27 9 55 7 62 -2 6
-10 -21 -18 -60z m18 -313 c20 -8 23 -13 17 -37 -4 -15 -9 -38 -11 -52 -1 -14
-4 -34 -6 -45 -3 -17 3 -21 37 -23 58 -5 66 -16 59 -76 -4 -28 -11 -54 -17
-57 -5 -4 -5 -9 2 -13 6 -4 11 -14 11 -23 0 -12 -9 -14 -47 -9 -105 13 -165
30 -183 51 -6 8 -9 23 -5 35 4 11 2 20 -4 20 -6 0 -11 -11 -11 -25 0 -29 -16
-32 -48 -9 -28 19 -28 31 -1 39 17 6 19 9 8 16 -8 5 -14 28 -15 59 -1 43 2 50
18 50 11 0 28 -5 40 -11 25 -13 32 -7 23 22 -5 16 -9 18 -15 8 -7 -10 -11 -10
-24 0 -9 8 -16 20 -16 28 0 12 8 14 33 9 38 -7 52 1 36 20 -6 8 -8 21 -5 30 5
13 15 15 53 9 25 -4 57 -11 71 -16z m721 -118 c25 -7 36 -37 22 -56 -5 -5 -11
-27 -14 -47 l-6 -37 51 -3 c44 -3 52 -6 54 -25 2 -13 -1 -23 -7 -23 -8 0 -8
-4 0 -14 9 -10 9 -20 0 -40 -7 -14 -15 -26 -19 -26 -4 0 -5 -12 -2 -26 l5 -27
-57 5 c-31 3 -56 1 -56 -4 0 -12 -122 3 -147 18 -14 9 -23 10 -25 3 -5 -15
-78 0 -85 17 -3 8 -2 22 2 32 4 9 8 28 9 42 1 17 9 26 26 31 22 6 23 7 4 8
-26 1 -40 31 -22 43 7 4 29 7 48 6 39 -3 51 -26 26 -51 -12 -11 -13 -16 -3
-20 24 -8 33 4 29 38 -2 19 0 35 5 35 5 0 9 12 8 27 0 19 7 31 25 40 25 12 25
13 3 13 -18 0 -23 6 -23 25 0 24 2 25 63 24 34 -1 73 -4 86 -8z"/>
<path d="M207 2253 c-9 -8 -8 -101 1 -168 6 -45 10 -50 40 -59 18 -5 35 -6 38
-3 8 7 6 161 -2 193 -4 14 -18 27 -36 33 -37 13 -33 13 -41 4z"/>
<path d="M1630 1493 c-75 -11 -67 5 -97 -197 l-5 -38 63 35 c96 54 169 122
169 156 0 25 -5 30 -44 40 -25 6 -48 10 -53 10 -4 -1 -19 -3 -33 -6z"/>
<path d="M2469 1054 c-8 -3 -27 -34 -41 -70 l-26 -66 24 6 c52 13 191 67 223
87 31 19 33 22 17 31 -20 11 -171 20 -197 12z"/>
<path d="M2450 815 c-8 -2 -32 -6 -52 -10 l-37 -6 -32 -99 c-18 -55 -30 -103
-27 -105 8 -9 166 44 253 85 97 45 150 86 135 105 -19 23 -179 42 -240 30z"/>
</g>
</svg>
